<?xml version="1.0" encoding="utf-8" standalone="no"?>
<!DOCTYPE svg PUBLIC "-//W3C//DTD SVG 1.1//EN"
  "http://www.w3.org/Graphics/SVG/1.1/DTD/svg11.dtd">
<svg xmlns:xlink="http://www.w3.org/1999/xlink" width="936pt" height="432pt" viewBox="0 0 936 432" xmlns="http://www.w3.org/2000/svg" version="1.1">
 <metadata>
  <rdf:RDF xmlns:dc="http://purl.org/dc/elements/1.1/" xmlns:cc="http://creativecommons.org/ns#" xmlns:rdf="http://www.w3.org/1999/02/22-rdf-syntax-ns#">
   <cc:Work>
    <dc:type rdf:resource="http://purl.org/dc/dcmitype/StillImage"/>
    <dc:date>2022-05-03T18:48:24.003108</dc:date>
    <dc:format>image/svg+xml</dc:format>
    <dc:creator>
     <cc:Agent>
      <dc:title>Matplotlib v3.5.1, https://matplotlib.org/</dc:title>
     </cc:Agent>
    </dc:creator>
   </cc:Work>
  </rdf:RDF>
 </metadata>
 <defs>
  <style type="text/css">*{stroke-linejoin: round; stroke-linecap: butt}</style>
 </defs>
 <g id="figure_1">
  <g id="patch_1">
   <path d="M 0 432 
L 936 432 
L 936 0 
L 0 0 
L 0 432 
z
" style="fill: none"/>
  </g>
  <g id="axes_1">
   <g id="patch_2">
    <path d="M 117 378 
L 842.4 378 
L 842.4 51.84 
L 117 51.84 
z
" style="fill: #ffffff"/>
   </g>
   <g id="matplotlib.axis_1">
    <g id="xtick_1">
     <g id="line2d_1">
      <defs>
       <path id="m68b7c39ca8" d="M 0 0 
L 0 3.5 
" style="stroke: #000000; stroke-width: 0.8"/>
      </defs>
      <g>
       <use xlink:href="#m68b7c39ca8" x="117" y="378" style="stroke: #000000; stroke-width: 0.8"/>
      </g>
     </g>
     <g id="text_1">
      <!-- 2007 -->
      <g transform="translate(104.275 392.598437)scale(0.1 -0.1)">
       <defs>
        <path id="DejaVuSans-32" d="M 1228 531 
L 3431 531 
L 3431 0 
L 469 0 
L 469 531 
Q 828 903 1448 1529 
Q 2069 2156 2228 2338 
Q 2531 2678 2651 2914 
Q 2772 3150 2772 3378 
Q 2772 3750 2511 3984 
Q 2250 4219 1831 4219 
Q 1534 4219 1204 4116 
Q 875 4013 500 3803 
L 500 4441 
Q 881 4594 1212 4672 
Q 1544 4750 1819 4750 
Q 2544 4750 2975 4387 
Q 3406 4025 3406 3419 
Q 3406 3131 3298 2873 
Q 3191 2616 2906 2266 
Q 2828 2175 2409 1742 
Q 1991 1309 1228 531 
z
" transform="scale(0.015625)"/>
        <path id="DejaVuSans-30" d="M 2034 4250 
Q 1547 4250 1301 3770 
Q 1056 3291 1056 2328 
Q 1056 1369 1301 889 
Q 1547 409 2034 409 
Q 2525 409 2770 889 
Q 3016 1369 3016 2328 
Q 3016 3291 2770 3770 
Q 2525 4250 2034 4250 
z
M 2034 4750 
Q 2819 4750 3233 4129 
Q 3647 3509 3647 2328 
Q 3647 1150 3233 529 
Q 2819 -91 2034 -91 
Q 1250 -91 836 529 
Q 422 1150 422 2328 
Q 422 3509 836 4129 
Q 1250 4750 2034 4750 
z
" transform="scale(0.015625)"/>
        <path id="DejaVuSans-37" d="M 525 4666 
L 3525 4666 
L 3525 4397 
L 1831 0 
L 1172 0 
L 2766 4134 
L 525 4134 
L 525 4666 
z
" transform="scale(0.015625)"/>
       </defs>
       <use xlink:href="#DejaVuSans-32"/>
       <use xlink:href="#DejaVuSans-30" x="63.623047"/>
       <use xlink:href="#DejaVuSans-30" x="127.246094"/>
       <use xlink:href="#DejaVuSans-37" x="190.869141"/>
      </g>
     </g>
    </g>
    <g id="xtick_2">
     <g id="line2d_2">
      <g>
       <use xlink:href="#m68b7c39ca8" x="213.72" y="378" style="stroke: #000000; stroke-width: 0.8"/>
      </g>
     </g>
     <g id="text_2">
      <!-- 2009 -->
      <g transform="translate(200.995 392.598437)scale(0.1 -0.1)">
       <defs>
        <path id="DejaVuSans-39" d="M 703 97 
L 703 672 
Q 941 559 1184 500 
Q 1428 441 1663 441 
Q 2288 441 2617 861 
Q 2947 1281 2994 2138 
Q 2813 1869 2534 1725 
Q 2256 1581 1919 1581 
Q 1219 1581 811 2004 
Q 403 2428 403 3163 
Q 403 3881 828 4315 
Q 1253 4750 1959 4750 
Q 2769 4750 3195 4129 
Q 3622 3509 3622 2328 
Q 3622 1225 3098 567 
Q 2575 -91 1691 -91 
Q 1453 -91 1209 -44 
Q 966 3 703 97 
z
M 1959 2075 
Q 2384 2075 2632 2365 
Q 2881 2656 2881 3163 
Q 2881 3666 2632 3958 
Q 2384 4250 1959 4250 
Q 1534 4250 1286 3958 
Q 1038 3666 1038 3163 
Q 1038 2656 1286 2365 
Q 1534 2075 1959 2075 
z
" transform="scale(0.015625)"/>
       </defs>
       <use xlink:href="#DejaVuSans-32"/>
       <use xlink:href="#DejaVuSans-30" x="63.623047"/>
       <use xlink:href="#DejaVuSans-30" x="127.246094"/>
       <use xlink:href="#DejaVuSans-39" x="190.869141"/>
      </g>
     </g>
    </g>
    <g id="xtick_3">
     <g id="line2d_3">
      <g>
       <use xlink:href="#m68b7c39ca8" x="310.44" y="378" style="stroke: #000000; stroke-width: 0.8"/>
      </g>
     </g>
     <g id="text_3">
      <!-- 2011 -->
      <g transform="translate(297.715 392.598437)scale(0.1 -0.1)">
       <defs>
        <path id="DejaVuSans-31" d="M 794 531 
L 1825 531 
L 1825 4091 
L 703 3866 
L 703 4441 
L 1819 4666 
L 2450 4666 
L 2450 531 
L 3481 531 
L 3481 0 
L 794 0 
L 794 531 
z
" transform="scale(0.015625)"/>
       </defs>
       <use xlink:href="#DejaVuSans-32"/>
       <use xlink:href="#DejaVuSans-30" x="63.623047"/>
       <use xlink:href="#DejaVuSans-31" x="127.246094"/>
       <use xlink:href="#DejaVuSans-31" x="190.869141"/>
      </g>
     </g>
    </g>
    <g id="xtick_4">
     <g id="line2d_4">
      <g>
       <use xlink:href="#m68b7c39ca8" x="407.16" y="378" style="stroke: #000000; stroke-width: 0.8"/>
      </g>
     </g>
     <g id="text_4">
      <!-- 2013 -->
      <g transform="translate(394.435 392.598437)scale(0.1 -0.1)">
       <defs>
        <path id="DejaVuSans-33" d="M 2597 2516 
Q 3050 2419 3304 2112 
Q 3559 1806 3559 1356 
Q 3559 666 3084 287 
Q 2609 -91 1734 -91 
Q 1441 -91 1130 -33 
Q 819 25 488 141 
L 488 750 
Q 750 597 1062 519 
Q 1375 441 1716 441 
Q 2309 441 2620 675 
Q 2931 909 2931 1356 
Q 2931 1769 2642 2001 
Q 2353 2234 1838 2234 
L 1294 2234 
L 1294 2753 
L 1863 2753 
Q 2328 2753 2575 2939 
Q 2822 3125 2822 3475 
Q 2822 3834 2567 4026 
Q 2313 4219 1838 4219 
Q 1578 4219 1281 4162 
Q 984 4106 628 3988 
L 628 4550 
Q 988 4650 1302 4700 
Q 1616 4750 1894 4750 
Q 2613 4750 3031 4423 
Q 3450 4097 3450 3541 
Q 3450 3153 3228 2886 
Q 3006 2619 2597 2516 
z
" transform="scale(0.015625)"/>
       </defs>
       <use xlink:href="#DejaVuSans-32"/>
       <use xlink:href="#DejaVuSans-30" x="63.623047"/>
       <use xlink:href="#DejaVuSans-31" x="127.246094"/>
       <use xlink:href="#DejaVuSans-33" x="190.869141"/>
      </g>
     </g>
    </g>
    <g id="xtick_5">
     <g id="line2d_5">
      <g>
       <use xlink:href="#m68b7c39ca8" x="503.88" y="378" style="stroke: #000000; stroke-width: 0.8"/>
      </g>
     </g>
     <g id="text_5">
      <!-- 2015 -->
      <g transform="translate(491.155 392.598437)scale(0.1 -0.1)">
       <defs>
        <path id="DejaVuSans-35" d="M 691 4666 
L 3169 4666 
L 3169 4134 
L 1269 4134 
L 1269 2991 
Q 1406 3038 1543 3061 
Q 1681 3084 1819 3084 
Q 2600 3084 3056 2656 
Q 3513 2228 3513 1497 
Q 3513 744 3044 326 
Q 2575 -91 1722 -91 
Q 1428 -91 1123 -41 
Q 819 9 494 109 
L 494 744 
Q 775 591 1075 516 
Q 1375 441 1709 441 
Q 2250 441 2565 725 
Q 2881 1009 2881 1497 
Q 2881 1984 2565 2268 
Q 2250 2553 1709 2553 
Q 1456 2553 1204 2497 
Q 953 2441 691 2322 
L 691 4666 
z
" transform="scale(0.015625)"/>
       </defs>
       <use xlink:href="#DejaVuSans-32"/>
       <use xlink:href="#DejaVuSans-30" x="63.623047"/>
       <use xlink:href="#DejaVuSans-31" x="127.246094"/>
       <use xlink:href="#DejaVuSans-35" x="190.869141"/>
      </g>
     </g>
    </g>
    <g id="xtick_6">
     <g id="line2d_6">
      <g>
       <use xlink:href="#m68b7c39ca8" x="600.6" y="378" style="stroke: #000000; stroke-width: 0.8"/>
      </g>
     </g>
     <g id="text_6">
      <!-- 2017 -->
      <g transform="translate(587.875 392.598437)scale(0.1 -0.1)">
       <use xlink:href="#DejaVuSans-32"/>
       <use xlink:href="#DejaVuSans-30" x="63.623047"/>
       <use xlink:href="#DejaVuSans-31" x="127.246094"/>
       <use xlink:href="#DejaVuSans-37" x="190.869141"/>
      </g>
     </g>
    </g>
    <g id="xtick_7">
     <g id="line2d_7">
      <g>
       <use xlink:href="#m68b7c39ca8" x="697.32" y="378" style="stroke: #000000; stroke-width: 0.8"/>
      </g>
     </g>
     <g id="text_7">
      <!-- 2019 -->
      <g transform="translate(684.595 392.598437)scale(0.1 -0.1)">
       <use xlink:href="#DejaVuSans-32"/>
       <use xlink:href="#DejaVuSans-30" x="63.623047"/>
       <use xlink:href="#DejaVuSans-31" x="127.246094"/>
       <use xlink:href="#DejaVuSans-39" x="190.869141"/>
      </g>
     </g>
    </g>
    <g id="xtick_8">
     <g id="line2d_8">
      <g>
       <use xlink:href="#m68b7c39ca8" x="794.04" y="378" style="stroke: #000000; stroke-width: 0.8"/>
      </g>
     </g>
     <g id="text_8">
      <!-- 2021 -->
      <g transform="translate(781.315 392.598437)scale(0.1 -0.1)">
       <use xlink:href="#DejaVuSans-32"/>
       <use xlink:href="#DejaVuSans-30" x="63.623047"/>
       <use xlink:href="#DejaVuSans-32" x="127.246094"/>
       <use xlink:href="#DejaVuSans-31" x="190.869141"/>
      </g>
     </g>
    </g>
    <g id="xtick_9">
     <g id="line2d_9">
      <defs>
       <path id="m973e2b9cab" d="M 0 0 
L 0 2 
" style="stroke: #000000; stroke-width: 0.6"/>
      </defs>
      <g>
       <use xlink:href="#m973e2b9cab" x="165.36" y="378" style="stroke: #000000; stroke-width: 0.6"/>
      </g>
     </g>
    </g>
    <g id="xtick_10">
     <g id="line2d_10">
      <g>
       <use xlink:href="#m973e2b9cab" x="262.08" y="378" style="stroke: #000000; stroke-width: 0.6"/>
      </g>
     </g>
    </g>
    <g id="xtick_11">
     <g id="line2d_11">
      <g>
       <use xlink:href="#m973e2b9cab" x="358.8" y="378" style="stroke: #000000; stroke-width: 0.6"/>
      </g>
     </g>
    </g>
    <g id="xtick_12">
     <g id="line2d_12">
      <g>
       <use xlink:href="#m973e2b9cab" x="455.52" y="378" style="stroke: #000000; stroke-width: 0.6"/>
      </g>
     </g>
    </g>
    <g id="xtick_13">
     <g id="line2d_13">
      <g>
       <use xlink:href="#m973e2b9cab" x="552.24" y="378" style="stroke: #000000; stroke-width: 0.6"/>
      </g>
     </g>
    </g>
    <g id="xtick_14">
     <g id="line2d_14">
      <g>
       <use xlink:href="#m973e2b9cab" x="648.96" y="378" style="stroke: #000000; stroke-width: 0.6"/>
      </g>
     </g>
    </g>
    <g id="xtick_15">
     <g id="line2d_15">
      <g>
       <use xlink:href="#m973e2b9cab" x="745.68" y="378" style="stroke: #000000; stroke-width: 0.6"/>
      </g>
     </g>
    </g>
    <g id="xtick_16">
     <g id="line2d_16">
      <g>
       <use xlink:href="#m973e2b9cab" x="842.4" y="378" style="stroke: #000000; stroke-width: 0.6"/>
      </g>
     </g>
    </g>
   </g>
   <g id="matplotlib.axis_2">
    <g id="ytick_1">
     <g id="line2d_17">
      <defs>
       <path id="md9df9d518c" d="M 0 0 
L -3.5 0 
" style="stroke: #000000; stroke-width: 0.8"/>
      </defs>
      <g>
       <use xlink:href="#md9df9d518c" x="117" y="378" style="stroke: #000000; stroke-width: 0.8"/>
      </g>
     </g>
     <g id="text_9">
      <!-- 0 -->
      <g transform="translate(103.6375 381.799219)scale(0.1 -0.1)">
       <use xlink:href="#DejaVuSans-30"/>
      </g>
     </g>
    </g>
    <g id="ytick_2">
     <g id="line2d_18">
      <g>
       <use xlink:href="#md9df9d518c" x="117" y="323.64" style="stroke: #000000; stroke-width: 0.8"/>
      </g>
     </g>
     <g id="text_10">
      <!-- 2 -->
      <g transform="translate(103.6375 327.439219)scale(0.1 -0.1)">
       <use xlink:href="#DejaVuSans-32"/>
      </g>
     </g>
    </g>
    <g id="ytick_3">
     <g id="line2d_19">
      <g>
       <use xlink:href="#md9df9d518c" x="117" y="269.28" style="stroke: #000000; stroke-width: 0.8"/>
      </g>
     </g>
     <g id="text_11">
      <!-- 4 -->
      <g transform="translate(103.6375 273.079219)scale(0.1 -0.1)">
       <defs>
        <path id="DejaVuSans-34" d="M 2419 4116 
L 825 1625 
L 2419 1625 
L 2419 4116 
z
M 2253 4666 
L 3047 4666 
L 3047 1625 
L 3713 1625 
L 3713 1100 
L 3047 1100 
L 3047 0 
L 2419 0 
L 2419 1100 
L 313 1100 
L 313 1709 
L 2253 4666 
z
" transform="scale(0.015625)"/>
       </defs>
       <use xlink:href="#DejaVuSans-34"/>
      </g>
     </g>
    </g>
    <g id="ytick_4">
     <g id="line2d_20">
      <g>
       <use xlink:href="#md9df9d518c" x="117" y="214.92" style="stroke: #000000; stroke-width: 0.8"/>
      </g>
     </g>
     <g id="text_12">
      <!-- 6 -->
      <g transform="translate(103.6375 218.719219)scale(0.1 -0.1)">
       <defs>
        <path id="DejaVuSans-36" d="M 2113 2584 
Q 1688 2584 1439 2293 
Q 1191 2003 1191 1497 
Q 1191 994 1439 701 
Q 1688 409 2113 409 
Q 2538 409 2786 701 
Q 3034 994 3034 1497 
Q 3034 2003 2786 2293 
Q 2538 2584 2113 2584 
z
M 3366 4563 
L 3366 3988 
Q 3128 4100 2886 4159 
Q 2644 4219 2406 4219 
Q 1781 4219 1451 3797 
Q 1122 3375 1075 2522 
Q 1259 2794 1537 2939 
Q 1816 3084 2150 3084 
Q 2853 3084 3261 2657 
Q 3669 2231 3669 1497 
Q 3669 778 3244 343 
Q 2819 -91 2113 -91 
Q 1303 -91 875 529 
Q 447 1150 447 2328 
Q 447 3434 972 4092 
Q 1497 4750 2381 4750 
Q 2619 4750 2861 4703 
Q 3103 4656 3366 4563 
z
" transform="scale(0.015625)"/>
       </defs>
       <use xlink:href="#DejaVuSans-36"/>
      </g>
     </g>
    </g>
    <g id="ytick_5">
     <g id="line2d_21">
      <g>
       <use xlink:href="#md9df9d518c" x="117" y="160.56" style="stroke: #000000; stroke-width: 0.8"/>
      </g>
     </g>
     <g id="text_13">
      <!-- 8 -->
      <g transform="translate(103.6375 164.359219)scale(0.1 -0.1)">
       <defs>
        <path id="DejaVuSans-38" d="M 2034 2216 
Q 1584 2216 1326 1975 
Q 1069 1734 1069 1313 
Q 1069 891 1326 650 
Q 1584 409 2034 409 
Q 2484 409 2743 651 
Q 3003 894 3003 1313 
Q 3003 1734 2745 1975 
Q 2488 2216 2034 2216 
z
M 1403 2484 
Q 997 2584 770 2862 
Q 544 3141 544 3541 
Q 544 4100 942 4425 
Q 1341 4750 2034 4750 
Q 2731 4750 3128 4425 
Q 3525 4100 3525 3541 
Q 3525 3141 3298 2862 
Q 3072 2584 2669 2484 
Q 3125 2378 3379 2068 
Q 3634 1759 3634 1313 
Q 3634 634 3220 271 
Q 2806 -91 2034 -91 
Q 1263 -91 848 271 
Q 434 634 434 1313 
Q 434 1759 690 2068 
Q 947 2378 1403 2484 
z
M 1172 3481 
Q 1172 3119 1398 2916 
Q 1625 2713 2034 2713 
Q 2441 2713 2670 2916 
Q 2900 3119 2900 3481 
Q 2900 3844 2670 4047 
Q 2441 4250 2034 4250 
Q 1625 4250 1398 4047 
Q 1172 3844 1172 3481 
z
" transform="scale(0.015625)"/>
       </defs>
       <use xlink:href="#DejaVuSans-38"/>
      </g>
     </g>
    </g>
    <g id="ytick_6">
     <g id="line2d_22">
      <g>
       <use xlink:href="#md9df9d518c" x="117" y="106.2" style="stroke: #000000; stroke-width: 0.8"/>
      </g>
     </g>
     <g id="text_14">
      <!-- 10 -->
      <g transform="translate(97.275 109.999219)scale(0.1 -0.1)">
       <use xlink:href="#DejaVuSans-31"/>
       <use xlink:href="#DejaVuSans-30" x="63.623047"/>
      </g>
     </g>
    </g>
    <g id="ytick_7">
     <g id="line2d_23">
      <g>
       <use xlink:href="#md9df9d518c" x="117" y="51.84" style="stroke: #000000; stroke-width: 0.8"/>
      </g>
     </g>
     <g id="text_15">
      <!-- 12 -->
      <g transform="translate(97.275 55.639219)scale(0.1 -0.1)">
       <use xlink:href="#DejaVuSans-31"/>
       <use xlink:href="#DejaVuSans-32" x="63.623047"/>
      </g>
     </g>
    </g>
    <g id="text_16">
     <!-- monthly number of unique committers, smoothed 8 months -->
     <g transform="translate(91.195312 365.27)rotate(-90)scale(0.1 -0.1)">
      <defs>
       <path id="DejaVuSans-6d" d="M 3328 2828 
Q 3544 3216 3844 3400 
Q 4144 3584 4550 3584 
Q 5097 3584 5394 3201 
Q 5691 2819 5691 2113 
L 5691 0 
L 5113 0 
L 5113 2094 
Q 5113 2597 4934 2840 
Q 4756 3084 4391 3084 
Q 3944 3084 3684 2787 
Q 3425 2491 3425 1978 
L 3425 0 
L 2847 0 
L 2847 2094 
Q 2847 2600 2669 2842 
Q 2491 3084 2119 3084 
Q 1678 3084 1418 2786 
Q 1159 2488 1159 1978 
L 1159 0 
L 581 0 
L 581 3500 
L 1159 3500 
L 1159 2956 
Q 1356 3278 1631 3431 
Q 1906 3584 2284 3584 
Q 2666 3584 2933 3390 
Q 3200 3197 3328 2828 
z
" transform="scale(0.015625)"/>
       <path id="DejaVuSans-6f" d="M 1959 3097 
Q 1497 3097 1228 2736 
Q 959 2375 959 1747 
Q 959 1119 1226 758 
Q 1494 397 1959 397 
Q 2419 397 2687 759 
Q 2956 1122 2956 1747 
Q 2956 2369 2687 2733 
Q 2419 3097 1959 3097 
z
M 1959 3584 
Q 2709 3584 3137 3096 
Q 3566 2609 3566 1747 
Q 3566 888 3137 398 
Q 2709 -91 1959 -91 
Q 1206 -91 779 398 
Q 353 888 353 1747 
Q 353 2609 779 3096 
Q 1206 3584 1959 3584 
z
" transform="scale(0.015625)"/>
       <path id="DejaVuSans-6e" d="M 3513 2113 
L 3513 0 
L 2938 0 
L 2938 2094 
Q 2938 2591 2744 2837 
Q 2550 3084 2163 3084 
Q 1697 3084 1428 2787 
Q 1159 2491 1159 1978 
L 1159 0 
L 581 0 
L 581 3500 
L 1159 3500 
L 1159 2956 
Q 1366 3272 1645 3428 
Q 1925 3584 2291 3584 
Q 2894 3584 3203 3211 
Q 3513 2838 3513 2113 
z
" transform="scale(0.015625)"/>
       <path id="DejaVuSans-74" d="M 1172 4494 
L 1172 3500 
L 2356 3500 
L 2356 3053 
L 1172 3053 
L 1172 1153 
Q 1172 725 1289 603 
Q 1406 481 1766 481 
L 2356 481 
L 2356 0 
L 1766 0 
Q 1100 0 847 248 
Q 594 497 594 1153 
L 594 3053 
L 172 3053 
L 172 3500 
L 594 3500 
L 594 4494 
L 1172 4494 
z
" transform="scale(0.015625)"/>
       <path id="DejaVuSans-68" d="M 3513 2113 
L 3513 0 
L 2938 0 
L 2938 2094 
Q 2938 2591 2744 2837 
Q 2550 3084 2163 3084 
Q 1697 3084 1428 2787 
Q 1159 2491 1159 1978 
L 1159 0 
L 581 0 
L 581 4863 
L 1159 4863 
L 1159 2956 
Q 1366 3272 1645 3428 
Q 1925 3584 2291 3584 
Q 2894 3584 3203 3211 
Q 3513 2838 3513 2113 
z
" transform="scale(0.015625)"/>
       <path id="DejaVuSans-6c" d="M 603 4863 
L 1178 4863 
L 1178 0 
L 603 0 
L 603 4863 
z
" transform="scale(0.015625)"/>
       <path id="DejaVuSans-79" d="M 2059 -325 
Q 1816 -950 1584 -1140 
Q 1353 -1331 966 -1331 
L 506 -1331 
L 506 -850 
L 844 -850 
Q 1081 -850 1212 -737 
Q 1344 -625 1503 -206 
L 1606 56 
L 191 3500 
L 800 3500 
L 1894 763 
L 2988 3500 
L 3597 3500 
L 2059 -325 
z
" transform="scale(0.015625)"/>
       <path id="DejaVuSans-20" transform="scale(0.015625)"/>
       <path id="DejaVuSans-75" d="M 544 1381 
L 544 3500 
L 1119 3500 
L 1119 1403 
Q 1119 906 1312 657 
Q 1506 409 1894 409 
Q 2359 409 2629 706 
Q 2900 1003 2900 1516 
L 2900 3500 
L 3475 3500 
L 3475 0 
L 2900 0 
L 2900 538 
Q 2691 219 2414 64 
Q 2138 -91 1772 -91 
Q 1169 -91 856 284 
Q 544 659 544 1381 
z
M 1991 3584 
L 1991 3584 
z
" transform="scale(0.015625)"/>
       <path id="DejaVuSans-62" d="M 3116 1747 
Q 3116 2381 2855 2742 
Q 2594 3103 2138 3103 
Q 1681 3103 1420 2742 
Q 1159 2381 1159 1747 
Q 1159 1113 1420 752 
Q 1681 391 2138 391 
Q 2594 391 2855 752 
Q 3116 1113 3116 1747 
z
M 1159 2969 
Q 1341 3281 1617 3432 
Q 1894 3584 2278 3584 
Q 2916 3584 3314 3078 
Q 3713 2572 3713 1747 
Q 3713 922 3314 415 
Q 2916 -91 2278 -91 
Q 1894 -91 1617 61 
Q 1341 213 1159 525 
L 1159 0 
L 581 0 
L 581 4863 
L 1159 4863 
L 1159 2969 
z
" transform="scale(0.015625)"/>
       <path id="DejaVuSans-65" d="M 3597 1894 
L 3597 1613 
L 953 1613 
Q 991 1019 1311 708 
Q 1631 397 2203 397 
Q 2534 397 2845 478 
Q 3156 559 3463 722 
L 3463 178 
Q 3153 47 2828 -22 
Q 2503 -91 2169 -91 
Q 1331 -91 842 396 
Q 353 884 353 1716 
Q 353 2575 817 3079 
Q 1281 3584 2069 3584 
Q 2775 3584 3186 3129 
Q 3597 2675 3597 1894 
z
M 3022 2063 
Q 3016 2534 2758 2815 
Q 2500 3097 2075 3097 
Q 1594 3097 1305 2825 
Q 1016 2553 972 2059 
L 3022 2063 
z
" transform="scale(0.015625)"/>
       <path id="DejaVuSans-72" d="M 2631 2963 
Q 2534 3019 2420 3045 
Q 2306 3072 2169 3072 
Q 1681 3072 1420 2755 
Q 1159 2438 1159 1844 
L 1159 0 
L 581 0 
L 581 3500 
L 1159 3500 
L 1159 2956 
Q 1341 3275 1631 3429 
Q 1922 3584 2338 3584 
Q 2397 3584 2469 3576 
Q 2541 3569 2628 3553 
L 2631 2963 
z
" transform="scale(0.015625)"/>
       <path id="DejaVuSans-66" d="M 2375 4863 
L 2375 4384 
L 1825 4384 
Q 1516 4384 1395 4259 
Q 1275 4134 1275 3809 
L 1275 3500 
L 2222 3500 
L 2222 3053 
L 1275 3053 
L 1275 0 
L 697 0 
L 697 3053 
L 147 3053 
L 147 3500 
L 697 3500 
L 697 3744 
Q 697 4328 969 4595 
Q 1241 4863 1831 4863 
L 2375 4863 
z
" transform="scale(0.015625)"/>
       <path id="DejaVuSans-69" d="M 603 3500 
L 1178 3500 
L 1178 0 
L 603 0 
L 603 3500 
z
M 603 4863 
L 1178 4863 
L 1178 4134 
L 603 4134 
L 603 4863 
z
" transform="scale(0.015625)"/>
       <path id="DejaVuSans-71" d="M 947 1747 
Q 947 1113 1208 752 
Q 1469 391 1925 391 
Q 2381 391 2643 752 
Q 2906 1113 2906 1747 
Q 2906 2381 2643 2742 
Q 2381 3103 1925 3103 
Q 1469 3103 1208 2742 
Q 947 2381 947 1747 
z
M 2906 525 
Q 2725 213 2448 61 
Q 2172 -91 1784 -91 
Q 1150 -91 751 415 
Q 353 922 353 1747 
Q 353 2572 751 3078 
Q 1150 3584 1784 3584 
Q 2172 3584 2448 3432 
Q 2725 3281 2906 2969 
L 2906 3500 
L 3481 3500 
L 3481 -1331 
L 2906 -1331 
L 2906 525 
z
" transform="scale(0.015625)"/>
       <path id="DejaVuSans-63" d="M 3122 3366 
L 3122 2828 
Q 2878 2963 2633 3030 
Q 2388 3097 2138 3097 
Q 1578 3097 1268 2742 
Q 959 2388 959 1747 
Q 959 1106 1268 751 
Q 1578 397 2138 397 
Q 2388 397 2633 464 
Q 2878 531 3122 666 
L 3122 134 
Q 2881 22 2623 -34 
Q 2366 -91 2075 -91 
Q 1284 -91 818 406 
Q 353 903 353 1747 
Q 353 2603 823 3093 
Q 1294 3584 2113 3584 
Q 2378 3584 2631 3529 
Q 2884 3475 3122 3366 
z
" transform="scale(0.015625)"/>
       <path id="DejaVuSans-73" d="M 2834 3397 
L 2834 2853 
Q 2591 2978 2328 3040 
Q 2066 3103 1784 3103 
Q 1356 3103 1142 2972 
Q 928 2841 928 2578 
Q 928 2378 1081 2264 
Q 1234 2150 1697 2047 
L 1894 2003 
Q 2506 1872 2764 1633 
Q 3022 1394 3022 966 
Q 3022 478 2636 193 
Q 2250 -91 1575 -91 
Q 1294 -91 989 -36 
Q 684 19 347 128 
L 347 722 
Q 666 556 975 473 
Q 1284 391 1588 391 
Q 1994 391 2212 530 
Q 2431 669 2431 922 
Q 2431 1156 2273 1281 
Q 2116 1406 1581 1522 
L 1381 1569 
Q 847 1681 609 1914 
Q 372 2147 372 2553 
Q 372 3047 722 3315 
Q 1072 3584 1716 3584 
Q 2034 3584 2315 3537 
Q 2597 3491 2834 3397 
z
" transform="scale(0.015625)"/>
       <path id="DejaVuSans-2c" d="M 750 794 
L 1409 794 
L 1409 256 
L 897 -744 
L 494 -744 
L 750 256 
L 750 794 
z
" transform="scale(0.015625)"/>
       <path id="DejaVuSans-64" d="M 2906 2969 
L 2906 4863 
L 3481 4863 
L 3481 0 
L 2906 0 
L 2906 525 
Q 2725 213 2448 61 
Q 2172 -91 1784 -91 
Q 1150 -91 751 415 
Q 353 922 353 1747 
Q 353 2572 751 3078 
Q 1150 3584 1784 3584 
Q 2172 3584 2448 3432 
Q 2725 3281 2906 2969 
z
M 947 1747 
Q 947 1113 1208 752 
Q 1469 391 1925 391 
Q 2381 391 2643 752 
Q 2906 1113 2906 1747 
Q 2906 2381 2643 2742 
Q 2381 3103 1925 3103 
Q 1469 3103 1208 2742 
Q 947 2381 947 1747 
z
" transform="scale(0.015625)"/>
      </defs>
      <use xlink:href="#DejaVuSans-6d"/>
      <use xlink:href="#DejaVuSans-6f" x="97.412109"/>
      <use xlink:href="#DejaVuSans-6e" x="158.59375"/>
      <use xlink:href="#DejaVuSans-74" x="221.972656"/>
      <use xlink:href="#DejaVuSans-68" x="261.181641"/>
      <use xlink:href="#DejaVuSans-6c" x="324.560547"/>
      <use xlink:href="#DejaVuSans-79" x="352.34375"/>
      <use xlink:href="#DejaVuSans-20" x="411.523438"/>
      <use xlink:href="#DejaVuSans-6e" x="443.310547"/>
      <use xlink:href="#DejaVuSans-75" x="506.689453"/>
      <use xlink:href="#DejaVuSans-6d" x="570.068359"/>
      <use xlink:href="#DejaVuSans-62" x="667.480469"/>
      <use xlink:href="#DejaVuSans-65" x="730.957031"/>
      <use xlink:href="#DejaVuSans-72" x="792.480469"/>
      <use xlink:href="#DejaVuSans-20" x="833.59375"/>
      <use xlink:href="#DejaVuSans-6f" x="865.380859"/>
      <use xlink:href="#DejaVuSans-66" x="926.5625"/>
      <use xlink:href="#DejaVuSans-20" x="961.767578"/>
      <use xlink:href="#DejaVuSans-75" x="993.554688"/>
      <use xlink:href="#DejaVuSans-6e" x="1056.933594"/>
      <use xlink:href="#DejaVuSans-69" x="1120.3125"/>
      <use xlink:href="#DejaVuSans-71" x="1148.095703"/>
      <use xlink:href="#DejaVuSans-75" x="1211.572266"/>
      <use xlink:href="#DejaVuSans-65" x="1274.951172"/>
      <use xlink:href="#DejaVuSans-20" x="1336.474609"/>
      <use xlink:href="#DejaVuSans-63" x="1368.261719"/>
      <use xlink:href="#DejaVuSans-6f" x="1423.242188"/>
      <use xlink:href="#DejaVuSans-6d" x="1484.423828"/>
      <use xlink:href="#DejaVuSans-6d" x="1581.835938"/>
      <use xlink:href="#DejaVuSans-69" x="1679.248047"/>
      <use xlink:href="#DejaVuSans-74" x="1707.03125"/>
      <use xlink:href="#DejaVuSans-74" x="1746.240234"/>
      <use xlink:href="#DejaVuSans-65" x="1785.449219"/>
      <use xlink:href="#DejaVuSans-72" x="1846.972656"/>
      <use xlink:href="#DejaVuSans-73" x="1888.085938"/>
      <use xlink:href="#DejaVuSans-2c" x="1940.185547"/>
      <use xlink:href="#DejaVuSans-20" x="1971.972656"/>
      <use xlink:href="#DejaVuSans-73" x="2003.759766"/>
      <use xlink:href="#DejaVuSans-6d" x="2055.859375"/>
      <use xlink:href="#DejaVuSans-6f" x="2153.271484"/>
      <use xlink:href="#DejaVuSans-6f" x="2214.453125"/>
      <use xlink:href="#DejaVuSans-74" x="2275.634766"/>
      <use xlink:href="#DejaVuSans-68" x="2314.84375"/>
      <use xlink:href="#DejaVuSans-65" x="2378.222656"/>
      <use xlink:href="#DejaVuSans-64" x="2439.746094"/>
      <use xlink:href="#DejaVuSans-20" x="2503.222656"/>
      <use xlink:href="#DejaVuSans-38" x="2535.009766"/>
      <use xlink:href="#DejaVuSans-20" x="2598.632812"/>
      <use xlink:href="#DejaVuSans-6d" x="2630.419922"/>
      <use xlink:href="#DejaVuSans-6f" x="2727.832031"/>
      <use xlink:href="#DejaVuSans-6e" x="2789.013672"/>
      <use xlink:href="#DejaVuSans-74" x="2852.392578"/>
      <use xlink:href="#DejaVuSans-68" x="2891.601562"/>
      <use xlink:href="#DejaVuSans-73" x="2954.980469"/>
     </g>
    </g>
   </g>
   <g id="line2d_24">
    <path d="M -1 340.6275 
L 8.19 340.6275 
L 16.25 347.4225 
L 20.28 347.4225 
L 24.31 350.82 
L 28.34 347.4225 
L 32.37 347.4225 
L 36.4 344.025 
L 52.52 344.025 
L 60.58 337.23 
L 64.61 330.435 
L 68.64 327.0375 
L 84.76 299.8575 
L 92.82 293.0625 
L 96.85 296.46 
L 100.88 296.46 
L 112.97 306.6525 
L 117 303.255 
L 133.12 303.255 
L 137.15 299.8575 
L 145.21 299.8575 
L 149.24 306.6525 
L 153.27 306.6525 
L 157.3 313.4475 
L 161.33 303.255 
L 169.39 303.255 
L 173.42 299.8575 
L 177.45 289.665 
L 189.54 279.4725 
L 193.57 289.665 
L 205.66 289.665 
L 209.69 299.8575 
L 213.72 299.8575 
L 221.78 306.6525 
L 225.81 299.8575 
L 233.87 299.8575 
L 241.93 286.2675 
L 245.96 282.87 
L 249.99 282.87 
L 258.05 276.075 
L 262.08 276.075 
L 270.14 289.665 
L 274.17 286.2675 
L 278.2 286.2675 
L 282.23 282.87 
L 286.26 282.87 
L 290.29 286.2675 
L 294.32 276.075 
L 298.35 259.0875 
L 302.38 259.0875 
L 310.44 272.6775 
L 314.47 276.075 
L 318.5 276.075 
L 326.56 289.665 
L 330.59 299.8575 
L 334.62 296.46 
L 338.65 296.46 
L 342.68 289.665 
L 346.71 279.4725 
L 350.74 272.6775 
L 354.77 272.6775 
L 358.8 279.4725 
L 362.83 279.4725 
L 366.86 286.2675 
L 370.89 286.2675 
L 374.92 293.0625 
L 378.95 303.255 
L 382.98 310.05 
L 387.01 306.6525 
L 391.04 310.05 
L 395.07 310.05 
L 399.1 313.4475 
L 403.13 310.05 
L 407.16 310.05 
L 411.19 313.4475 
L 415.22 313.4475 
L 419.25 310.05 
L 423.28 296.46 
L 427.31 299.8575 
L 431.34 296.46 
L 435.37 306.6525 
L 439.4 303.255 
L 443.43 306.6525 
L 447.46 306.6525 
L 451.49 313.4475 
L 455.52 313.4475 
L 459.55 310.05 
L 463.58 313.4475 
L 467.61 306.6525 
L 475.67 299.8575 
L 479.7 303.255 
L 483.73 303.255 
L 487.76 313.4475 
L 491.79 313.4475 
L 495.82 303.255 
L 499.85 303.255 
L 503.88 310.05 
L 507.91 306.6525 
L 511.94 299.8575 
L 515.97 296.46 
L 520 296.46 
L 524.03 293.0625 
L 528.06 296.46 
L 532.09 293.0625 
L 536.12 286.2675 
L 540.15 282.87 
L 544.18 289.665 
L 552.24 276.075 
L 556.27 286.2675 
L 560.3 286.2675 
L 564.33 289.665 
L 568.36 296.46 
L 572.39 299.8575 
L 576.42 296.46 
L 584.48 282.87 
L 588.51 279.4725 
L 596.57 265.8825 
L 600.6 262.485 
L 604.63 245.4975 
L 608.66 242.1 
L 612.69 255.69 
L 620.75 242.1 
L 624.78 242.1 
L 628.81 248.895 
L 632.84 248.895 
L 636.87 262.485 
L 640.9 259.0875 
L 644.93 252.2925 
L 648.96 262.485 
L 652.99 262.485 
L 657.02 272.6775 
L 661.05 272.6775 
L 665.08 269.28 
L 669.11 276.075 
L 685.23 316.845 
L 693.29 316.845 
L 697.32 320.2425 
L 701.35 306.6525 
L 705.38 310.05 
L 709.41 306.6525 
L 713.44 306.6525 
L 717.47 296.46 
L 721.5 299.8575 
L 725.53 299.8575 
L 729.56 293.0625 
L 733.59 293.0625 
L 737.62 286.2675 
L 741.65 289.665 
L 745.68 282.87 
L 749.71 282.87 
L 753.74 276.075 
L 757.77 265.8825 
L 761.8 269.28 
L 765.83 282.87 
L 769.86 289.665 
L 773.89 286.2675 
L 777.92 286.2675 
L 781.95 293.0625 
L 785.98 296.46 
L 790.01 306.6525 
L 794.04 310.05 
L 798.07 289.665 
L 802.1 279.4725 
L 806.13 272.6775 
L 810.16 282.87 
L 818.22 269.28 
L 822.25 276.075 
L 826.28 279.4725 
L 830.31 299.8575 
L 834.34 306.6525 
L 838.37 310.05 
L 842.4 289.665 
L 846.43 293.0625 
L 850.46 293.0625 
L 854.49 286.2675 
L 858.52 293.0625 
L 858.52 293.0625 
" clip-path="url(#pb9fa5d62c8)" style="fill: none; stroke: #ff7f0e; stroke-width: 1.5; stroke-linecap: square"/>
   </g>
   <g id="line2d_25">
    <path d="M -1 378 
L 169.39 378 
L 173.42 364.41 
L 189.54 350.82 
L 193.57 350.82 
L 201.63 344.025 
L 205.66 354.2175 
L 209.69 357.615 
L 213.72 354.2175 
L 221.78 361.0125 
L 225.81 357.615 
L 237.9 367.8075 
L 241.93 367.8075 
L 245.96 371.205 
L 254.02 364.41 
L 258.05 367.8075 
L 282.23 367.8075 
L 286.26 371.205 
L 290.29 371.205 
L 294.32 367.8075 
L 298.35 367.8075 
L 306.41 361.0125 
L 314.47 361.0125 
L 322.53 354.2175 
L 326.56 357.615 
L 330.59 354.2175 
L 334.62 344.025 
L 338.65 337.23 
L 358.8 320.2425 
L 362.83 323.64 
L 366.86 337.23 
L 370.89 347.4225 
L 374.92 344.025 
L 378.95 347.4225 
L 382.98 337.23 
L 387.01 333.8325 
L 391.04 333.8325 
L 395.07 330.435 
L 399.1 316.845 
L 403.13 313.4475 
L 407.16 316.845 
L 411.19 316.845 
L 415.22 327.0375 
L 419.25 330.435 
L 423.28 316.845 
L 427.31 310.05 
L 431.34 316.845 
L 439.4 316.845 
L 443.43 313.4475 
L 447.46 313.4475 
L 451.49 316.845 
L 455.52 330.435 
L 459.55 327.0375 
L 471.64 327.0375 
L 475.67 320.2425 
L 487.76 310.05 
L 491.79 316.845 
L 499.85 316.845 
L 503.88 320.2425 
L 507.91 330.435 
L 511.94 337.23 
L 520 344.025 
L 524.03 344.025 
L 540.15 330.435 
L 548.21 330.435 
L 552.24 333.8325 
L 556.27 330.435 
L 560.3 337.23 
L 564.33 333.8325 
L 568.36 340.6275 
L 580.45 340.6275 
L 584.48 333.8325 
L 588.51 337.23 
L 592.54 337.23 
L 596.57 340.6275 
L 604.63 340.6275 
L 608.66 344.025 
L 612.69 344.025 
L 620.75 350.82 
L 628.81 344.025 
L 632.84 337.23 
L 636.87 337.23 
L 640.9 333.8325 
L 648.96 333.8325 
L 652.99 337.23 
L 661.05 350.82 
L 665.08 350.82 
L 669.11 344.025 
L 673.14 344.025 
L 685.23 333.8325 
L 689.26 327.0375 
L 693.29 327.0375 
L 697.32 333.8325 
L 701.35 344.025 
L 705.38 344.025 
L 709.41 347.4225 
L 713.44 347.4225 
L 717.47 344.025 
L 721.5 347.4225 
L 725.53 347.4225 
L 729.56 344.025 
L 737.62 330.435 
L 741.65 320.2425 
L 745.68 316.845 
L 749.71 296.46 
L 753.74 296.46 
L 757.77 286.2675 
L 761.8 286.2675 
L 765.83 276.075 
L 769.86 282.87 
L 773.89 293.0625 
L 777.92 299.8575 
L 781.95 323.64 
L 785.98 313.4475 
L 790.01 320.2425 
L 794.04 316.845 
L 798.07 333.8325 
L 806.13 313.4475 
L 810.16 316.845 
L 814.19 303.255 
L 818.22 306.6525 
L 822.25 303.255 
L 826.28 303.255 
L 830.31 293.0625 
L 834.34 289.665 
L 838.37 293.0625 
L 842.4 282.87 
L 846.43 299.8575 
L 854.49 306.6525 
L 858.52 313.4475 
L 858.52 313.4475 
" clip-path="url(#pb9fa5d62c8)" style="fill: none; stroke-dasharray: 1.5,2.475; stroke-dashoffset: 0; stroke: #2ca02c; stroke-width: 1.5"/>
   </g>
   <g id="line2d_26">
    <path d="M -1 378 
L 145.21 378 
L 157.3 367.8075 
L 161.33 367.8075 
L 165.36 364.41 
L 177.45 364.41 
L 189.54 374.6025 
L 193.57 374.6025 
L 197.6 378 
L 507.91 378 
L 511.94 374.6025 
L 540.15 374.6025 
L 544.18 378 
L 858.52 378 
L 858.52 378 
" clip-path="url(#pb9fa5d62c8)" style="fill: none; stroke-dasharray: 5.55,2.4; stroke-dashoffset: 0; stroke: #d62728; stroke-width: 1.5"/>
   </g>
   <g id="line2d_27">
    <path d="M -1 378 
L 161.33 378 
L 165.36 374.6025 
L 173.42 361.0125 
L 177.45 361.0125 
L 189.54 350.82 
L 193.57 350.82 
L 197.6 354.2175 
L 205.66 367.8075 
L 209.69 364.41 
L 221.78 374.6025 
L 237.9 374.6025 
L 241.93 378 
L 334.62 378 
L 338.65 374.6025 
L 366.86 374.6025 
L 370.89 378 
L 507.91 378 
L 511.94 374.6025 
L 540.15 374.6025 
L 544.18 378 
L 572.39 378 
L 576.42 371.205 
L 604.63 371.205 
L 608.66 378 
L 842.4 378 
L 846.43 371.205 
L 858.52 371.205 
L 858.52 371.205 
" clip-path="url(#pb9fa5d62c8)" style="fill: none; stroke-dasharray: 9.6,2.4,1.5,2.4; stroke-dashoffset: 0; stroke: #9467bd; stroke-width: 1.5"/>
   </g>
   <g id="line2d_28">
    <path d="M -1 378 
L 310.44 378 
L 314.47 371.205 
L 326.56 371.205 
L 330.59 367.8075 
L 334.62 361.0125 
L 338.65 350.82 
L 342.68 347.4225 
L 346.71 350.82 
L 350.74 344.025 
L 354.77 344.025 
L 358.8 337.23 
L 362.83 327.0375 
L 366.86 320.2425 
L 370.89 327.0375 
L 374.92 320.2425 
L 382.98 320.2425 
L 387.01 316.845 
L 391.04 316.845 
L 395.07 323.64 
L 399.1 323.64 
L 403.13 320.2425 
L 407.16 330.435 
L 411.19 327.0375 
L 415.22 310.05 
L 419.25 303.255 
L 423.28 303.255 
L 427.31 293.0625 
L 431.34 293.0625 
L 435.37 289.665 
L 439.4 282.87 
L 443.43 279.4725 
L 447.46 293.0625 
L 455.52 293.0625 
L 459.55 303.255 
L 467.61 310.05 
L 471.64 303.255 
L 475.67 299.8575 
L 483.73 299.8575 
L 491.79 313.4475 
L 495.82 323.64 
L 499.85 330.435 
L 503.88 344.025 
L 507.91 354.2175 
L 511.94 357.615 
L 515.97 367.8075 
L 524.03 354.2175 
L 536.12 354.2175 
L 540.15 357.615 
L 544.18 364.41 
L 552.24 364.41 
L 556.27 371.205 
L 572.39 371.205 
L 576.42 367.8075 
L 580.45 367.8075 
L 584.48 371.205 
L 596.57 361.0125 
L 604.63 361.0125 
L 608.66 364.41 
L 612.69 364.41 
L 620.75 371.205 
L 624.78 371.205 
L 628.81 374.6025 
L 636.87 367.8075 
L 652.99 367.8075 
L 657.02 371.205 
L 661.05 371.205 
L 669.11 378 
L 685.23 378 
L 689.26 371.205 
L 717.47 371.205 
L 721.5 378 
L 858.52 378 
L 858.52 378 
" clip-path="url(#pb9fa5d62c8)" style="fill: none; stroke: #8c564b; stroke-width: 1.5; stroke-linecap: square"/>
   </g>
   <g id="line2d_29">
    <path d="M -1 378 
L 306.41 378 
L 318.5 367.8075 
L 338.65 367.8075 
L 350.74 378 
L 358.8 378 
L 362.83 374.6025 
L 391.04 374.6025 
L 395.07 378 
L 503.88 378 
L 511.94 371.205 
L 536.12 371.205 
L 544.18 378 
L 858.52 378 
L 858.52 378 
" clip-path="url(#pb9fa5d62c8)" style="fill: none; stroke-dasharray: 1.5,2.475; stroke-dashoffset: 0; stroke: #e377c2; stroke-width: 1.5"/>
   </g>
   <g id="line2d_30">
    <path d="M -1 378 
L 475.67 378 
L 479.7 374.6025 
L 487.76 374.6025 
L 495.82 367.8075 
L 507.91 367.8075 
L 511.94 371.205 
L 520 371.205 
L 528.06 378 
L 858.52 378 
L 858.52 378 
" clip-path="url(#pb9fa5d62c8)" style="fill: none; stroke-dasharray: 5.55,2.4; stroke-dashoffset: 0; stroke: #7f7f7f; stroke-width: 1.5"/>
   </g>
   <g id="line2d_31">
    <path d="M -1 378 
L 528.06 378 
L 536.12 364.41 
L 540.15 361.0125 
L 548.21 361.0125 
L 556.27 354.2175 
L 560.3 354.2175 
L 568.36 367.8075 
L 572.39 371.205 
L 580.45 364.41 
L 584.48 367.8075 
L 592.54 367.8075 
L 596.57 364.41 
L 616.72 364.41 
L 620.75 367.8075 
L 628.81 367.8075 
L 632.84 364.41 
L 636.87 364.41 
L 644.93 371.205 
L 648.96 364.41 
L 657.02 364.41 
L 665.08 371.205 
L 681.2 371.205 
L 685.23 367.8075 
L 709.41 367.8075 
L 713.44 371.205 
L 717.47 364.41 
L 737.62 364.41 
L 741.65 354.2175 
L 745.68 347.4225 
L 749.71 357.615 
L 765.83 357.615 
L 769.86 354.2175 
L 777.92 374.6025 
L 790.01 374.6025 
L 794.04 367.8075 
L 798.07 367.8075 
L 802.1 371.205 
L 822.25 371.205 
L 826.28 374.6025 
L 830.31 374.6025 
L 838.37 361.0125 
L 842.4 357.615 
L 854.49 357.615 
L 858.52 361.0125 
L 858.52 361.0125 
" clip-path="url(#pb9fa5d62c8)" style="fill: none; stroke-dasharray: 9.6,2.4,1.5,2.4; stroke-dashoffset: 0; stroke: #bcbd22; stroke-width: 1.5"/>
   </g>
   <g id="line2d_32">
    <path d="M -1 378 
L 552.24 378 
L 556.27 374.6025 
L 560.3 374.6025 
L 564.33 367.8075 
L 584.48 367.8075 
L 588.51 371.205 
L 592.54 371.205 
L 596.57 378 
L 858.52 378 
L 858.52 378 
" clip-path="url(#pb9fa5d62c8)" style="fill: none; stroke: #17becf; stroke-width: 1.5; stroke-linecap: square"/>
   </g>
   <g id="line2d_33">
    <path d="M -1 378 
L 576.42 378 
L 580.45 374.6025 
L 600.6 374.6025 
L 604.63 371.205 
L 608.66 364.41 
L 612.69 361.0125 
L 616.72 354.2175 
L 632.84 340.6275 
L 636.87 344.025 
L 648.96 364.41 
L 652.99 367.8075 
L 661.05 367.8075 
L 665.08 371.205 
L 669.11 371.205 
L 677.17 364.41 
L 681.2 364.41 
L 685.23 361.0125 
L 693.29 367.8075 
L 701.35 367.8075 
L 709.41 374.6025 
L 713.44 374.6025 
L 717.47 378 
L 858.52 378 
L 858.52 378 
" clip-path="url(#pb9fa5d62c8)" style="fill: none; stroke-dasharray: 1.5,2.475; stroke-dashoffset: 0; stroke: #1f77b4; stroke-width: 1.5"/>
   </g>
   <g id="line2d_34">
    <path d="M -1 378 
L 556.27 378 
L 584.48 354.2175 
L 588.51 347.4225 
L 616.72 347.4225 
L 620.75 354.2175 
L 624.78 354.2175 
L 632.84 361.0125 
L 644.93 361.0125 
L 648.96 364.41 
L 652.99 361.0125 
L 657.02 361.0125 
L 665.08 347.4225 
L 673.14 340.6275 
L 677.17 344.025 
L 681.2 337.23 
L 685.23 337.23 
L 693.29 344.025 
L 697.32 350.82 
L 701.35 350.82 
L 705.38 354.2175 
L 709.41 350.82 
L 713.44 350.82 
L 717.47 354.2175 
L 721.5 347.4225 
L 725.53 350.82 
L 729.56 347.4225 
L 733.59 350.82 
L 737.62 347.4225 
L 745.68 354.2175 
L 749.71 350.82 
L 753.74 357.615 
L 757.77 357.615 
L 761.8 361.0125 
L 765.83 361.0125 
L 769.86 367.8075 
L 781.95 367.8075 
L 785.98 364.41 
L 790.01 364.41 
L 794.04 361.0125 
L 798.07 364.41 
L 802.1 364.41 
L 806.13 361.0125 
L 822.25 361.0125 
L 826.28 364.41 
L 842.4 364.41 
L 850.46 371.205 
L 858.52 371.205 
L 858.52 371.205 
" clip-path="url(#pb9fa5d62c8)" style="fill: none; stroke-dasharray: 5.55,2.4; stroke-dashoffset: 0; stroke: #ff7f0e; stroke-width: 1.5"/>
   </g>
   <g id="line2d_35">
    <path d="M -1 378 
L 560.3 378 
L 564.33 374.6025 
L 568.36 364.41 
L 572.39 344.025 
L 576.42 330.435 
L 592.54 303.255 
L 596.57 306.6525 
L 600.6 316.845 
L 604.63 333.8325 
L 608.66 333.8325 
L 612.69 330.435 
L 624.78 350.82 
L 628.81 344.025 
L 632.84 344.025 
L 636.87 347.4225 
L 640.9 361.0125 
L 644.93 371.205 
L 657.02 371.205 
L 661.05 378 
L 725.53 378 
L 729.56 367.8075 
L 733.59 367.8075 
L 737.62 361.0125 
L 753.74 361.0125 
L 757.77 354.2175 
L 761.8 364.41 
L 765.83 364.41 
L 769.86 371.205 
L 785.98 371.205 
L 790.01 378 
L 794.04 374.6025 
L 798.07 364.41 
L 806.13 357.615 
L 822.25 357.615 
L 826.28 361.0125 
L 830.31 371.205 
L 838.37 378 
L 850.46 378 
L 854.49 374.6025 
L 858.52 374.6025 
L 858.52 374.6025 
" clip-path="url(#pb9fa5d62c8)" style="fill: none; stroke-dasharray: 9.6,2.4,1.5,2.4; stroke-dashoffset: 0; stroke: #2ca02c; stroke-width: 1.5"/>
   </g>
   <g id="line2d_36">
    <path d="M -1 378 
L 652.99 378 
L 657.02 371.205 
L 661.05 371.205 
L 665.08 367.8075 
L 673.14 347.4225 
L 677.17 347.4225 
L 681.2 344.025 
L 685.23 333.8325 
L 693.29 333.8325 
L 697.32 337.23 
L 705.38 357.615 
L 709.41 357.615 
L 713.44 361.0125 
L 717.47 371.205 
L 721.5 378 
L 858.52 378 
L 858.52 378 
" clip-path="url(#pb9fa5d62c8)" style="fill: none; stroke: #d62728; stroke-width: 1.5; stroke-linecap: square"/>
   </g>
   <g id="line2d_37">
    <path d="M -1 378 
L 689.26 378 
L 709.41 344.025 
L 713.44 330.435 
L 721.5 310.05 
L 729.56 310.05 
L 737.62 296.46 
L 741.65 293.0625 
L 745.68 293.0625 
L 749.71 296.46 
L 753.74 306.6525 
L 757.77 306.6525 
L 761.8 310.05 
L 765.83 303.255 
L 769.86 303.255 
L 773.89 299.8575 
L 777.92 310.05 
L 781.95 316.845 
L 785.98 316.845 
L 790.01 320.2425 
L 794.04 316.845 
L 798.07 330.435 
L 802.1 337.23 
L 806.13 347.4225 
L 810.16 350.82 
L 818.22 350.82 
L 822.25 354.2175 
L 830.31 367.8075 
L 834.34 367.8075 
L 838.37 371.205 
L 842.4 371.205 
L 846.43 364.41 
L 858.52 364.41 
L 858.52 364.41 
" clip-path="url(#pb9fa5d62c8)" style="fill: none; stroke-dasharray: 1.5,2.475; stroke-dashoffset: 0; stroke: #9467bd; stroke-width: 1.5"/>
   </g>
   <g id="line2d_38">
    <path d="M -1 378 
L 560.3 378 
L 568.36 357.615 
L 572.39 344.025 
L 576.42 337.23 
L 580.45 333.8325 
L 584.48 327.0375 
L 588.51 327.0375 
L 592.54 323.64 
L 596.57 327.0375 
L 600.6 327.0375 
L 604.63 333.8325 
L 608.66 330.435 
L 612.69 323.64 
L 616.72 323.64 
L 620.75 320.2425 
L 624.78 323.64 
L 628.81 323.64 
L 640.9 333.8325 
L 644.93 333.8325 
L 648.96 337.23 
L 652.99 337.23 
L 657.02 333.8325 
L 665.08 347.4225 
L 669.11 340.6275 
L 673.14 340.6275 
L 677.17 347.4225 
L 685.23 333.8325 
L 689.26 333.8325 
L 693.29 323.64 
L 697.32 310.05 
L 701.35 313.4475 
L 709.41 293.0625 
L 713.44 279.4725 
L 717.47 282.87 
L 721.5 269.28 
L 725.53 265.8825 
L 729.56 265.8825 
L 733.59 248.895 
L 737.62 245.4975 
L 741.65 231.9075 
L 745.68 231.9075 
L 749.71 211.5225 
L 753.74 174.15 
L 757.77 160.56 
L 761.8 136.7775 
L 765.83 133.38 
L 769.86 123.1875 
L 773.89 129.9825 
L 777.92 133.38 
L 781.95 126.585 
L 785.98 140.175 
L 790.01 146.97 
L 794.04 160.56 
L 802.1 133.38 
L 806.13 109.5975 
L 810.16 96.0075 
L 818.22 96.0075 
L 822.25 72.225 
L 826.28 65.43 
L 830.31 89.2125 
L 834.34 96.0075 
L 838.37 129.9825 
L 842.4 146.97 
L 846.43 160.56 
L 854.49 201.33 
L 858.52 228.51 
L 858.52 228.51 
" clip-path="url(#pb9fa5d62c8)" style="fill: none; stroke-dasharray: 5.55,2.4; stroke-dashoffset: 0; stroke: #1f77b4; stroke-width: 1.5"/>
   </g>
   <g id="patch_3">
    <path d="M 117 378 
L 117 51.84 
" style="fill: none; stroke: #000000; stroke-width: 0.8; stroke-linejoin: miter; stroke-linecap: square"/>
   </g>
   <g id="patch_4">
    <path d="M 842.4 378 
L 842.4 51.84 
" style="fill: none; stroke: #000000; stroke-width: 0.8; stroke-linejoin: miter; stroke-linecap: square"/>
   </g>
   <g id="patch_5">
    <path d="M 117 378 
L 842.4 378 
" style="fill: none; stroke: #000000; stroke-width: 0.8; stroke-linejoin: miter; stroke-linecap: square"/>
   </g>
   <g id="patch_6">
    <path d="M 117 51.84 
L 842.4 51.84 
" style="fill: none; stroke: #000000; stroke-width: 0.8; stroke-linejoin: miter; stroke-linecap: square"/>
   </g>
   <g id="legend_1">
    <g id="patch_7">
     <path d="M 124 280.011875 
L 247.390625 280.011875 
Q 249.390625 280.011875 249.390625 278.011875 
L 249.390625 58.84 
Q 249.390625 56.84 247.390625 56.84 
L 124 56.84 
Q 122 56.84 122 58.84 
L 122 278.011875 
Q 122 280.011875 124 280.011875 
z
" style="fill: #ffffff; opacity: 0.8; stroke: #cccccc; stroke-linejoin: miter"/>
    </g>
    <g id="line2d_39">
     <path d="M 126 64.938437 
L 136 64.938437 
L 146 64.938437 
" style="fill: none; stroke: #ff7f0e; stroke-width: 1.5; stroke-linecap: square"/>
    </g>
    <g id="text_17">
     <!-- ROOT histograms -->
     <g transform="translate(154 68.438437)scale(0.1 -0.1)">
      <defs>
       <path id="DejaVuSans-52" d="M 2841 2188 
Q 3044 2119 3236 1894 
Q 3428 1669 3622 1275 
L 4263 0 
L 3584 0 
L 2988 1197 
Q 2756 1666 2539 1819 
Q 2322 1972 1947 1972 
L 1259 1972 
L 1259 0 
L 628 0 
L 628 4666 
L 2053 4666 
Q 2853 4666 3247 4331 
Q 3641 3997 3641 3322 
Q 3641 2881 3436 2590 
Q 3231 2300 2841 2188 
z
M 1259 4147 
L 1259 2491 
L 2053 2491 
Q 2509 2491 2742 2702 
Q 2975 2913 2975 3322 
Q 2975 3731 2742 3939 
Q 2509 4147 2053 4147 
L 1259 4147 
z
" transform="scale(0.015625)"/>
       <path id="DejaVuSans-4f" d="M 2522 4238 
Q 1834 4238 1429 3725 
Q 1025 3213 1025 2328 
Q 1025 1447 1429 934 
Q 1834 422 2522 422 
Q 3209 422 3611 934 
Q 4013 1447 4013 2328 
Q 4013 3213 3611 3725 
Q 3209 4238 2522 4238 
z
M 2522 4750 
Q 3503 4750 4090 4092 
Q 4678 3434 4678 2328 
Q 4678 1225 4090 567 
Q 3503 -91 2522 -91 
Q 1538 -91 948 565 
Q 359 1222 359 2328 
Q 359 3434 948 4092 
Q 1538 4750 2522 4750 
z
" transform="scale(0.015625)"/>
       <path id="DejaVuSans-54" d="M -19 4666 
L 3928 4666 
L 3928 4134 
L 2272 4134 
L 2272 0 
L 1638 0 
L 1638 4134 
L -19 4134 
L -19 4666 
z
" transform="scale(0.015625)"/>
       <path id="DejaVuSans-67" d="M 2906 1791 
Q 2906 2416 2648 2759 
Q 2391 3103 1925 3103 
Q 1463 3103 1205 2759 
Q 947 2416 947 1791 
Q 947 1169 1205 825 
Q 1463 481 1925 481 
Q 2391 481 2648 825 
Q 2906 1169 2906 1791 
z
M 3481 434 
Q 3481 -459 3084 -895 
Q 2688 -1331 1869 -1331 
Q 1566 -1331 1297 -1286 
Q 1028 -1241 775 -1147 
L 775 -588 
Q 1028 -725 1275 -790 
Q 1522 -856 1778 -856 
Q 2344 -856 2625 -561 
Q 2906 -266 2906 331 
L 2906 616 
Q 2728 306 2450 153 
Q 2172 0 1784 0 
Q 1141 0 747 490 
Q 353 981 353 1791 
Q 353 2603 747 3093 
Q 1141 3584 1784 3584 
Q 2172 3584 2450 3431 
Q 2728 3278 2906 2969 
L 2906 3500 
L 3481 3500 
L 3481 434 
z
" transform="scale(0.015625)"/>
       <path id="DejaVuSans-61" d="M 2194 1759 
Q 1497 1759 1228 1600 
Q 959 1441 959 1056 
Q 959 750 1161 570 
Q 1363 391 1709 391 
Q 2188 391 2477 730 
Q 2766 1069 2766 1631 
L 2766 1759 
L 2194 1759 
z
M 3341 1997 
L 3341 0 
L 2766 0 
L 2766 531 
Q 2569 213 2275 61 
Q 1981 -91 1556 -91 
Q 1019 -91 701 211 
Q 384 513 384 1019 
Q 384 1609 779 1909 
Q 1175 2209 1959 2209 
L 2766 2209 
L 2766 2266 
Q 2766 2663 2505 2880 
Q 2244 3097 1772 3097 
Q 1472 3097 1187 3025 
Q 903 2953 641 2809 
L 641 3341 
Q 956 3463 1253 3523 
Q 1550 3584 1831 3584 
Q 2591 3584 2966 3190 
Q 3341 2797 3341 1997 
z
" transform="scale(0.015625)"/>
      </defs>
      <use xlink:href="#DejaVuSans-52"/>
      <use xlink:href="#DejaVuSans-4f" x="69.482422"/>
      <use xlink:href="#DejaVuSans-4f" x="148.193359"/>
      <use xlink:href="#DejaVuSans-54" x="226.904297"/>
      <use xlink:href="#DejaVuSans-20" x="287.988281"/>
      <use xlink:href="#DejaVuSans-68" x="319.775391"/>
      <use xlink:href="#DejaVuSans-69" x="383.154297"/>
      <use xlink:href="#DejaVuSans-73" x="410.9375"/>
      <use xlink:href="#DejaVuSans-74" x="463.037109"/>
      <use xlink:href="#DejaVuSans-6f" x="502.246094"/>
      <use xlink:href="#DejaVuSans-67" x="563.427734"/>
      <use xlink:href="#DejaVuSans-72" x="626.904297"/>
      <use xlink:href="#DejaVuSans-61" x="668.017578"/>
      <use xlink:href="#DejaVuSans-6d" x="729.296875"/>
      <use xlink:href="#DejaVuSans-73" x="826.708984"/>
     </g>
    </g>
    <g id="line2d_40">
     <path d="M 126 79.616562 
L 136 79.616562 
L 146 79.616562 
" style="fill: none; stroke-dasharray: 1.5,2.475; stroke-dashoffset: 0; stroke: #2ca02c; stroke-width: 1.5"/>
    </g>
    <g id="text_18">
     <!-- YODA -->
     <g transform="translate(154 83.116562)scale(0.1 -0.1)">
      <defs>
       <path id="DejaVuSans-59" d="M -13 4666 
L 666 4666 
L 1959 2747 
L 3244 4666 
L 3922 4666 
L 2272 2222 
L 2272 0 
L 1638 0 
L 1638 2222 
L -13 4666 
z
" transform="scale(0.015625)"/>
       <path id="DejaVuSans-44" d="M 1259 4147 
L 1259 519 
L 2022 519 
Q 2988 519 3436 956 
Q 3884 1394 3884 2338 
Q 3884 3275 3436 3711 
Q 2988 4147 2022 4147 
L 1259 4147 
z
M 628 4666 
L 1925 4666 
Q 3281 4666 3915 4102 
Q 4550 3538 4550 2338 
Q 4550 1131 3912 565 
Q 3275 0 1925 0 
L 628 0 
L 628 4666 
z
" transform="scale(0.015625)"/>
       <path id="DejaVuSans-41" d="M 2188 4044 
L 1331 1722 
L 3047 1722 
L 2188 4044 
z
M 1831 4666 
L 2547 4666 
L 4325 0 
L 3669 0 
L 3244 1197 
L 1141 1197 
L 716 0 
L 50 0 
L 1831 4666 
z
" transform="scale(0.015625)"/>
      </defs>
      <use xlink:href="#DejaVuSans-59"/>
      <use xlink:href="#DejaVuSans-4f" x="55.583984"/>
      <use xlink:href="#DejaVuSans-44" x="134.294922"/>
      <use xlink:href="#DejaVuSans-41" x="209.546875"/>
     </g>
    </g>
    <g id="line2d_41">
     <path d="M 126 94.294688 
L 136 94.294688 
L 146 94.294688 
" style="fill: none; stroke-dasharray: 5.55,2.4; stroke-dashoffset: 0; stroke: #d62728; stroke-width: 1.5"/>
    </g>
    <g id="text_19">
     <!-- Plothon -->
     <g transform="translate(154 97.794688)scale(0.1 -0.1)">
      <defs>
       <path id="DejaVuSans-50" d="M 1259 4147 
L 1259 2394 
L 2053 2394 
Q 2494 2394 2734 2622 
Q 2975 2850 2975 3272 
Q 2975 3691 2734 3919 
Q 2494 4147 2053 4147 
L 1259 4147 
z
M 628 4666 
L 2053 4666 
Q 2838 4666 3239 4311 
Q 3641 3956 3641 3272 
Q 3641 2581 3239 2228 
Q 2838 1875 2053 1875 
L 1259 1875 
L 1259 0 
L 628 0 
L 628 4666 
z
" transform="scale(0.015625)"/>
      </defs>
      <use xlink:href="#DejaVuSans-50"/>
      <use xlink:href="#DejaVuSans-6c" x="60.302734"/>
      <use xlink:href="#DejaVuSans-6f" x="88.085938"/>
      <use xlink:href="#DejaVuSans-74" x="149.267578"/>
      <use xlink:href="#DejaVuSans-68" x="188.476562"/>
      <use xlink:href="#DejaVuSans-6f" x="251.855469"/>
      <use xlink:href="#DejaVuSans-6e" x="313.037109"/>
     </g>
    </g>
    <g id="line2d_42">
     <path d="M 126 108.972812 
L 136 108.972812 
L 146 108.972812 
" style="fill: none; stroke-dasharray: 9.6,2.4,1.5,2.4; stroke-dashoffset: 0; stroke: #9467bd; stroke-width: 1.5"/>
    </g>
    <g id="text_20">
     <!-- SVGFig -->
     <g transform="translate(154 112.472812)scale(0.1 -0.1)">
      <defs>
       <path id="DejaVuSans-53" d="M 3425 4513 
L 3425 3897 
Q 3066 4069 2747 4153 
Q 2428 4238 2131 4238 
Q 1616 4238 1336 4038 
Q 1056 3838 1056 3469 
Q 1056 3159 1242 3001 
Q 1428 2844 1947 2747 
L 2328 2669 
Q 3034 2534 3370 2195 
Q 3706 1856 3706 1288 
Q 3706 609 3251 259 
Q 2797 -91 1919 -91 
Q 1588 -91 1214 -16 
Q 841 59 441 206 
L 441 856 
Q 825 641 1194 531 
Q 1563 422 1919 422 
Q 2459 422 2753 634 
Q 3047 847 3047 1241 
Q 3047 1584 2836 1778 
Q 2625 1972 2144 2069 
L 1759 2144 
Q 1053 2284 737 2584 
Q 422 2884 422 3419 
Q 422 4038 858 4394 
Q 1294 4750 2059 4750 
Q 2388 4750 2728 4690 
Q 3069 4631 3425 4513 
z
" transform="scale(0.015625)"/>
       <path id="DejaVuSans-56" d="M 1831 0 
L 50 4666 
L 709 4666 
L 2188 738 
L 3669 4666 
L 4325 4666 
L 2547 0 
L 1831 0 
z
" transform="scale(0.015625)"/>
       <path id="DejaVuSans-47" d="M 3809 666 
L 3809 1919 
L 2778 1919 
L 2778 2438 
L 4434 2438 
L 4434 434 
Q 4069 175 3628 42 
Q 3188 -91 2688 -91 
Q 1594 -91 976 548 
Q 359 1188 359 2328 
Q 359 3472 976 4111 
Q 1594 4750 2688 4750 
Q 3144 4750 3555 4637 
Q 3966 4525 4313 4306 
L 4313 3634 
Q 3963 3931 3569 4081 
Q 3175 4231 2741 4231 
Q 1884 4231 1454 3753 
Q 1025 3275 1025 2328 
Q 1025 1384 1454 906 
Q 1884 428 2741 428 
Q 3075 428 3337 486 
Q 3600 544 3809 666 
z
" transform="scale(0.015625)"/>
       <path id="DejaVuSans-46" d="M 628 4666 
L 3309 4666 
L 3309 4134 
L 1259 4134 
L 1259 2759 
L 3109 2759 
L 3109 2228 
L 1259 2228 
L 1259 0 
L 628 0 
L 628 4666 
z
" transform="scale(0.015625)"/>
      </defs>
      <use xlink:href="#DejaVuSans-53"/>
      <use xlink:href="#DejaVuSans-56" x="63.476562"/>
      <use xlink:href="#DejaVuSans-47" x="131.884766"/>
      <use xlink:href="#DejaVuSans-46" x="209.375"/>
      <use xlink:href="#DejaVuSans-69" x="259.644531"/>
      <use xlink:href="#DejaVuSans-67" x="287.427734"/>
     </g>
    </g>
    <g id="line2d_43">
     <path d="M 126 123.650937 
L 136 123.650937 
L 146 123.650937 
" style="fill: none; stroke: #8c564b; stroke-width: 1.5; stroke-linecap: square"/>
    </g>
    <g id="text_21">
     <!-- rootpy histograms -->
     <g transform="translate(154 127.150937)scale(0.1 -0.1)">
      <defs>
       <path id="DejaVuSans-70" d="M 1159 525 
L 1159 -1331 
L 581 -1331 
L 581 3500 
L 1159 3500 
L 1159 2969 
Q 1341 3281 1617 3432 
Q 1894 3584 2278 3584 
Q 2916 3584 3314 3078 
Q 3713 2572 3713 1747 
Q 3713 922 3314 415 
Q 2916 -91 2278 -91 
Q 1894 -91 1617 61 
Q 1341 213 1159 525 
z
M 3116 1747 
Q 3116 2381 2855 2742 
Q 2594 3103 2138 3103 
Q 1681 3103 1420 2742 
Q 1159 2381 1159 1747 
Q 1159 1113 1420 752 
Q 1681 391 2138 391 
Q 2594 391 2855 752 
Q 3116 1113 3116 1747 
z
" transform="scale(0.015625)"/>
      </defs>
      <use xlink:href="#DejaVuSans-72"/>
      <use xlink:href="#DejaVuSans-6f" x="38.863281"/>
      <use xlink:href="#DejaVuSans-6f" x="100.044922"/>
      <use xlink:href="#DejaVuSans-74" x="161.226562"/>
      <use xlink:href="#DejaVuSans-70" x="200.435547"/>
      <use xlink:href="#DejaVuSans-79" x="263.912109"/>
      <use xlink:href="#DejaVuSans-20" x="323.091797"/>
      <use xlink:href="#DejaVuSans-68" x="354.878906"/>
      <use xlink:href="#DejaVuSans-69" x="418.257812"/>
      <use xlink:href="#DejaVuSans-73" x="446.041016"/>
      <use xlink:href="#DejaVuSans-74" x="498.140625"/>
      <use xlink:href="#DejaVuSans-6f" x="537.349609"/>
      <use xlink:href="#DejaVuSans-67" x="598.53125"/>
      <use xlink:href="#DejaVuSans-72" x="662.007812"/>
      <use xlink:href="#DejaVuSans-61" x="703.121094"/>
      <use xlink:href="#DejaVuSans-6d" x="764.400391"/>
      <use xlink:href="#DejaVuSans-73" x="861.8125"/>
     </g>
    </g>
    <g id="line2d_44">
     <path d="M 126 138.329062 
L 136 138.329062 
L 146 138.329062 
" style="fill: none; stroke-dasharray: 1.5,2.475; stroke-dashoffset: 0; stroke: #e377c2; stroke-width: 1.5"/>
    </g>
    <g id="text_22">
     <!-- SimpleHist -->
     <g transform="translate(154 141.829062)scale(0.1 -0.1)">
      <defs>
       <path id="DejaVuSans-48" d="M 628 4666 
L 1259 4666 
L 1259 2753 
L 3553 2753 
L 3553 4666 
L 4184 4666 
L 4184 0 
L 3553 0 
L 3553 2222 
L 1259 2222 
L 1259 0 
L 628 0 
L 628 4666 
z
" transform="scale(0.015625)"/>
      </defs>
      <use xlink:href="#DejaVuSans-53"/>
      <use xlink:href="#DejaVuSans-69" x="63.476562"/>
      <use xlink:href="#DejaVuSans-6d" x="91.259766"/>
      <use xlink:href="#DejaVuSans-70" x="188.671875"/>
      <use xlink:href="#DejaVuSans-6c" x="252.148438"/>
      <use xlink:href="#DejaVuSans-65" x="279.931641"/>
      <use xlink:href="#DejaVuSans-48" x="341.455078"/>
      <use xlink:href="#DejaVuSans-69" x="416.650391"/>
      <use xlink:href="#DejaVuSans-73" x="444.433594"/>
      <use xlink:href="#DejaVuSans-74" x="496.533203"/>
     </g>
    </g>
    <g id="line2d_45">
     <path d="M 126 153.007187 
L 136 153.007187 
L 146 153.007187 
" style="fill: none; stroke-dasharray: 5.55,2.4; stroke-dashoffset: 0; stroke: #7f7f7f; stroke-width: 1.5"/>
    </g>
    <g id="text_23">
     <!-- pyhistogram -->
     <g transform="translate(154 156.507187)scale(0.1 -0.1)">
      <use xlink:href="#DejaVuSans-70"/>
      <use xlink:href="#DejaVuSans-79" x="63.476562"/>
      <use xlink:href="#DejaVuSans-68" x="122.65625"/>
      <use xlink:href="#DejaVuSans-69" x="186.035156"/>
      <use xlink:href="#DejaVuSans-73" x="213.818359"/>
      <use xlink:href="#DejaVuSans-74" x="265.917969"/>
      <use xlink:href="#DejaVuSans-6f" x="305.126953"/>
      <use xlink:href="#DejaVuSans-67" x="366.308594"/>
      <use xlink:href="#DejaVuSans-72" x="429.785156"/>
      <use xlink:href="#DejaVuSans-61" x="470.898438"/>
      <use xlink:href="#DejaVuSans-6d" x="532.177734"/>
     </g>
    </g>
    <g id="line2d_46">
     <path d="M 126 167.685312 
L 136 167.685312 
L 146 167.685312 
" style="fill: none; stroke-dasharray: 9.6,2.4,1.5,2.4; stroke-dashoffset: 0; stroke: #bcbd22; stroke-width: 1.5"/>
    </g>
    <g id="text_24">
     <!-- multihist -->
     <g transform="translate(154 171.185312)scale(0.1 -0.1)">
      <use xlink:href="#DejaVuSans-6d"/>
      <use xlink:href="#DejaVuSans-75" x="97.412109"/>
      <use xlink:href="#DejaVuSans-6c" x="160.791016"/>
      <use xlink:href="#DejaVuSans-74" x="188.574219"/>
      <use xlink:href="#DejaVuSans-69" x="227.783203"/>
      <use xlink:href="#DejaVuSans-68" x="255.566406"/>
      <use xlink:href="#DejaVuSans-69" x="318.945312"/>
      <use xlink:href="#DejaVuSans-73" x="346.728516"/>
      <use xlink:href="#DejaVuSans-74" x="398.828125"/>
     </g>
    </g>
    <g id="line2d_47">
     <path d="M 126 182.363437 
L 136 182.363437 
L 146 182.363437 
" style="fill: none; stroke: #17becf; stroke-width: 1.5; stroke-linecap: square"/>
    </g>
    <g id="text_25">
     <!-- matplotlib-hep -->
     <g transform="translate(154 185.863437)scale(0.1 -0.1)">
      <defs>
       <path id="DejaVuSans-2d" d="M 313 2009 
L 1997 2009 
L 1997 1497 
L 313 1497 
L 313 2009 
z
" transform="scale(0.015625)"/>
      </defs>
      <use xlink:href="#DejaVuSans-6d"/>
      <use xlink:href="#DejaVuSans-61" x="97.412109"/>
      <use xlink:href="#DejaVuSans-74" x="158.691406"/>
      <use xlink:href="#DejaVuSans-70" x="197.900391"/>
      <use xlink:href="#DejaVuSans-6c" x="261.376953"/>
      <use xlink:href="#DejaVuSans-6f" x="289.160156"/>
      <use xlink:href="#DejaVuSans-74" x="350.341797"/>
      <use xlink:href="#DejaVuSans-6c" x="389.550781"/>
      <use xlink:href="#DejaVuSans-69" x="417.333984"/>
      <use xlink:href="#DejaVuSans-62" x="445.117188"/>
      <use xlink:href="#DejaVuSans-2d" x="508.59375"/>
      <use xlink:href="#DejaVuSans-68" x="544.677734"/>
      <use xlink:href="#DejaVuSans-65" x="608.056641"/>
      <use xlink:href="#DejaVuSans-70" x="669.580078"/>
     </g>
    </g>
    <g id="line2d_48">
     <path d="M 126 197.041562 
L 136 197.041562 
L 146 197.041562 
" style="fill: none; stroke-dasharray: 1.5,2.475; stroke-dashoffset: 0; stroke: #1f77b4; stroke-width: 1.5"/>
    </g>
    <g id="text_26">
     <!-- QHist -->
     <g transform="translate(154 200.541562)scale(0.1 -0.1)">
      <defs>
       <path id="DejaVuSans-51" d="M 2522 4238 
Q 1834 4238 1429 3725 
Q 1025 3213 1025 2328 
Q 1025 1447 1429 934 
Q 1834 422 2522 422 
Q 3209 422 3611 934 
Q 4013 1447 4013 2328 
Q 4013 3213 3611 3725 
Q 3209 4238 2522 4238 
z
M 3406 84 
L 4238 -825 
L 3475 -825 
L 2784 -78 
Q 2681 -84 2626 -87 
Q 2572 -91 2522 -91 
Q 1538 -91 948 567 
Q 359 1225 359 2328 
Q 359 3434 948 4092 
Q 1538 4750 2522 4750 
Q 3503 4750 4090 4092 
Q 4678 3434 4678 2328 
Q 4678 1516 4351 937 
Q 4025 359 3406 84 
z
" transform="scale(0.015625)"/>
      </defs>
      <use xlink:href="#DejaVuSans-51"/>
      <use xlink:href="#DejaVuSans-48" x="78.710938"/>
      <use xlink:href="#DejaVuSans-69" x="153.90625"/>
      <use xlink:href="#DejaVuSans-73" x="181.689453"/>
      <use xlink:href="#DejaVuSans-74" x="233.789062"/>
     </g>
    </g>
    <g id="line2d_49">
     <path d="M 126 211.719687 
L 136 211.719687 
L 146 211.719687 
" style="fill: none; stroke-dasharray: 5.55,2.4; stroke-dashoffset: 0; stroke: #ff7f0e; stroke-width: 1.5"/>
    </g>
    <g id="text_27">
     <!-- Physt -->
     <g transform="translate(154 215.219687)scale(0.1 -0.1)">
      <use xlink:href="#DejaVuSans-50"/>
      <use xlink:href="#DejaVuSans-68" x="60.302734"/>
      <use xlink:href="#DejaVuSans-79" x="123.681641"/>
      <use xlink:href="#DejaVuSans-73" x="182.861328"/>
      <use xlink:href="#DejaVuSans-74" x="234.960938"/>
     </g>
    </g>
    <g id="line2d_50">
     <path d="M 126 226.397812 
L 136 226.397812 
L 146 226.397812 
" style="fill: none; stroke-dasharray: 9.6,2.4,1.5,2.4; stroke-dashoffset: 0; stroke: #2ca02c; stroke-width: 1.5"/>
    </g>
    <g id="text_28">
     <!-- Histogrammar -->
     <g transform="translate(154 229.897812)scale(0.1 -0.1)">
      <use xlink:href="#DejaVuSans-48"/>
      <use xlink:href="#DejaVuSans-69" x="75.195312"/>
      <use xlink:href="#DejaVuSans-73" x="102.978516"/>
      <use xlink:href="#DejaVuSans-74" x="155.078125"/>
      <use xlink:href="#DejaVuSans-6f" x="194.287109"/>
      <use xlink:href="#DejaVuSans-67" x="255.46875"/>
      <use xlink:href="#DejaVuSans-72" x="318.945312"/>
      <use xlink:href="#DejaVuSans-61" x="360.058594"/>
      <use xlink:href="#DejaVuSans-6d" x="421.337891"/>
      <use xlink:href="#DejaVuSans-6d" x="518.75"/>
      <use xlink:href="#DejaVuSans-61" x="616.162109"/>
      <use xlink:href="#DejaVuSans-72" x="677.441406"/>
     </g>
    </g>
    <g id="line2d_51">
     <path d="M 126 241.075937 
L 136 241.075937 
L 146 241.075937 
" style="fill: none; stroke: #d62728; stroke-width: 1.5; stroke-linecap: square"/>
    </g>
    <g id="text_29">
     <!-- HistBook -->
     <g transform="translate(154 244.575937)scale(0.1 -0.1)">
      <defs>
       <path id="DejaVuSans-42" d="M 1259 2228 
L 1259 519 
L 2272 519 
Q 2781 519 3026 730 
Q 3272 941 3272 1375 
Q 3272 1813 3026 2020 
Q 2781 2228 2272 2228 
L 1259 2228 
z
M 1259 4147 
L 1259 2741 
L 2194 2741 
Q 2656 2741 2882 2914 
Q 3109 3088 3109 3444 
Q 3109 3797 2882 3972 
Q 2656 4147 2194 4147 
L 1259 4147 
z
M 628 4666 
L 2241 4666 
Q 2963 4666 3353 4366 
Q 3744 4066 3744 3513 
Q 3744 3084 3544 2831 
Q 3344 2578 2956 2516 
Q 3422 2416 3680 2098 
Q 3938 1781 3938 1306 
Q 3938 681 3513 340 
Q 3088 0 2303 0 
L 628 0 
L 628 4666 
z
" transform="scale(0.015625)"/>
       <path id="DejaVuSans-6b" d="M 581 4863 
L 1159 4863 
L 1159 1991 
L 2875 3500 
L 3609 3500 
L 1753 1863 
L 3688 0 
L 2938 0 
L 1159 1709 
L 1159 0 
L 581 0 
L 581 4863 
z
" transform="scale(0.015625)"/>
      </defs>
      <use xlink:href="#DejaVuSans-48"/>
      <use xlink:href="#DejaVuSans-69" x="75.195312"/>
      <use xlink:href="#DejaVuSans-73" x="102.978516"/>
      <use xlink:href="#DejaVuSans-74" x="155.078125"/>
      <use xlink:href="#DejaVuSans-42" x="194.287109"/>
      <use xlink:href="#DejaVuSans-6f" x="262.890625"/>
      <use xlink:href="#DejaVuSans-6f" x="324.072266"/>
      <use xlink:href="#DejaVuSans-6b" x="385.253906"/>
     </g>
    </g>
    <g id="line2d_52">
     <path d="M 126 255.754062 
L 136 255.754062 
L 146 255.754062 
" style="fill: none; stroke-dasharray: 1.5,2.475; stroke-dashoffset: 0; stroke: #9467bd; stroke-width: 1.5"/>
    </g>
    <g id="text_30">
     <!-- Coffea -->
     <g transform="translate(154 259.254062)scale(0.1 -0.1)">
      <defs>
       <path id="DejaVuSans-43" d="M 4122 4306 
L 4122 3641 
Q 3803 3938 3442 4084 
Q 3081 4231 2675 4231 
Q 1875 4231 1450 3742 
Q 1025 3253 1025 2328 
Q 1025 1406 1450 917 
Q 1875 428 2675 428 
Q 3081 428 3442 575 
Q 3803 722 4122 1019 
L 4122 359 
Q 3791 134 3420 21 
Q 3050 -91 2638 -91 
Q 1578 -91 968 557 
Q 359 1206 359 2328 
Q 359 3453 968 4101 
Q 1578 4750 2638 4750 
Q 3056 4750 3426 4639 
Q 3797 4528 4122 4306 
z
" transform="scale(0.015625)"/>
      </defs>
      <use xlink:href="#DejaVuSans-43"/>
      <use xlink:href="#DejaVuSans-6f" x="69.824219"/>
      <use xlink:href="#DejaVuSans-66" x="131.005859"/>
      <use xlink:href="#DejaVuSans-66" x="166.210938"/>
      <use xlink:href="#DejaVuSans-65" x="201.416016"/>
      <use xlink:href="#DejaVuSans-61" x="262.939453"/>
     </g>
    </g>
    <g id="line2d_53">
     <path d="M 126 270.432187 
L 136 270.432187 
L 146 270.432187 
" style="fill: none; stroke-dasharray: 5.55,2.4; stroke-dashoffset: 0; stroke: #1f77b4; stroke-width: 1.5"/>
    </g>
    <g id="text_31">
     <!-- Boost/hist/mplhep -->
     <g transform="translate(154 273.932187)scale(0.1 -0.1)">
      <defs>
       <path id="DejaVuSans-2f" d="M 1625 4666 
L 2156 4666 
L 531 -594 
L 0 -594 
L 1625 4666 
z
" transform="scale(0.015625)"/>
      </defs>
      <use xlink:href="#DejaVuSans-42"/>
      <use xlink:href="#DejaVuSans-6f" x="68.603516"/>
      <use xlink:href="#DejaVuSans-6f" x="129.785156"/>
      <use xlink:href="#DejaVuSans-73" x="190.966797"/>
      <use xlink:href="#DejaVuSans-74" x="243.066406"/>
      <use xlink:href="#DejaVuSans-2f" x="282.275391"/>
      <use xlink:href="#DejaVuSans-68" x="315.966797"/>
      <use xlink:href="#DejaVuSans-69" x="379.345703"/>
      <use xlink:href="#DejaVuSans-73" x="407.128906"/>
      <use xlink:href="#DejaVuSans-74" x="459.228516"/>
      <use xlink:href="#DejaVuSans-2f" x="498.4375"/>
      <use xlink:href="#DejaVuSans-6d" x="532.128906"/>
      <use xlink:href="#DejaVuSans-70" x="629.541016"/>
      <use xlink:href="#DejaVuSans-6c" x="693.017578"/>
      <use xlink:href="#DejaVuSans-68" x="720.800781"/>
      <use xlink:href="#DejaVuSans-65" x="784.179688"/>
      <use xlink:href="#DejaVuSans-70" x="845.703125"/>
     </g>
    </g>
   </g>
  </g>
 </g>
 <defs>
  <clipPath id="pb9fa5d62c8">
   <rect x="117" y="51.84" width="725.4" height="326.16"/>
  </clipPath>
 </defs>
</svg>
