<?xml version="1.0" encoding="utf-8" standalone="no"?>
<!DOCTYPE svg PUBLIC "-//W3C//DTD SVG 1.1//EN"
  "http://www.w3.org/Graphics/SVG/1.1/DTD/svg11.dtd">
<svg xmlns:xlink="http://www.w3.org/1999/xlink" width="720pt" height="360pt" viewBox="0 0 720 360" xmlns="http://www.w3.org/2000/svg" version="1.1">
 <metadata>
  <rdf:RDF xmlns:dc="http://purl.org/dc/elements/1.1/" xmlns:cc="http://creativecommons.org/ns#" xmlns:rdf="http://www.w3.org/1999/02/22-rdf-syntax-ns#">
   <cc:Work>
    <dc:type rdf:resource="http://purl.org/dc/dcmitype/StillImage"/>
    <dc:date>2022-07-17T13:25:47.164081</dc:date>
    <dc:format>image/svg+xml</dc:format>
    <dc:creator>
     <cc:Agent>
      <dc:title>Matplotlib v3.5.2, https://matplotlib.org/</dc:title>
     </cc:Agent>
    </dc:creator>
   </cc:Work>
  </rdf:RDF>
 </metadata>
 <defs>
  <style type="text/css">*{stroke-linejoin: round; stroke-linecap: butt}</style>
 </defs>
 <g id="figure_1">
  <g id="patch_1">
   <path d="M 0 360 
L 720 360 
L 720 0 
L 0 0 
L 0 360 
z
" style="fill: none"/>
  </g>
  <g id="axes_1">
   <g id="patch_2">
    <path d="M 90 315 
L 648 315 
L 648 43.2 
L 90 43.2 
z
" style="fill: #ffffff"/>
   </g>
   <g id="matplotlib.axis_1">
    <g id="xtick_1">
     <g id="line2d_1">
      <defs>
       <path id="m9e26c0fc93" d="M 0 0 
L 0 3.5 
" style="stroke: #000000; stroke-width: 0.8"/>
      </defs>
      <g>
       <use xlink:href="#m9e26c0fc93" x="90" y="315" style="stroke: #000000; stroke-width: 0.8"/>
      </g>
     </g>
    </g>
    <g id="xtick_2">
     <g id="line2d_2">
      <g>
       <use xlink:href="#m9e26c0fc93" x="203.732484" y="315" style="stroke: #000000; stroke-width: 0.8"/>
      </g>
     </g>
     <g id="text_1">
      <!-- 2019 -->
      <g transform="translate(191.007484 329.598437)scale(0.1 -0.1)">
       <defs>
        <path id="DejaVuSans-32" d="M 1228 531 
L 3431 531 
L 3431 0 
L 469 0 
L 469 531 
Q 828 903 1448 1529 
Q 2069 2156 2228 2338 
Q 2531 2678 2651 2914 
Q 2772 3150 2772 3378 
Q 2772 3750 2511 3984 
Q 2250 4219 1831 4219 
Q 1534 4219 1204 4116 
Q 875 4013 500 3803 
L 500 4441 
Q 881 4594 1212 4672 
Q 1544 4750 1819 4750 
Q 2544 4750 2975 4387 
Q 3406 4025 3406 3419 
Q 3406 3131 3298 2873 
Q 3191 2616 2906 2266 
Q 2828 2175 2409 1742 
Q 1991 1309 1228 531 
z
" transform="scale(0.015625)"/>
        <path id="DejaVuSans-30" d="M 2034 4250 
Q 1547 4250 1301 3770 
Q 1056 3291 1056 2328 
Q 1056 1369 1301 889 
Q 1547 409 2034 409 
Q 2525 409 2770 889 
Q 3016 1369 3016 2328 
Q 3016 3291 2770 3770 
Q 2525 4250 2034 4250 
z
M 2034 4750 
Q 2819 4750 3233 4129 
Q 3647 3509 3647 2328 
Q 3647 1150 3233 529 
Q 2819 -91 2034 -91 
Q 1250 -91 836 529 
Q 422 1150 422 2328 
Q 422 3509 836 4129 
Q 1250 4750 2034 4750 
z
" transform="scale(0.015625)"/>
        <path id="DejaVuSans-31" d="M 794 531 
L 1825 531 
L 1825 4091 
L 703 3866 
L 703 4441 
L 1819 4666 
L 2450 4666 
L 2450 531 
L 3481 531 
L 3481 0 
L 794 0 
L 794 531 
z
" transform="scale(0.015625)"/>
        <path id="DejaVuSans-39" d="M 703 97 
L 703 672 
Q 941 559 1184 500 
Q 1428 441 1663 441 
Q 2288 441 2617 861 
Q 2947 1281 2994 2138 
Q 2813 1869 2534 1725 
Q 2256 1581 1919 1581 
Q 1219 1581 811 2004 
Q 403 2428 403 3163 
Q 403 3881 828 4315 
Q 1253 4750 1959 4750 
Q 2769 4750 3195 4129 
Q 3622 3509 3622 2328 
Q 3622 1225 3098 567 
Q 2575 -91 1691 -91 
Q 1453 -91 1209 -44 
Q 966 3 703 97 
z
M 1959 2075 
Q 2384 2075 2632 2365 
Q 2881 2656 2881 3163 
Q 2881 3666 2632 3958 
Q 2384 4250 1959 4250 
Q 1534 4250 1286 3958 
Q 1038 3666 1038 3163 
Q 1038 2656 1286 2365 
Q 1534 2075 1959 2075 
z
" transform="scale(0.015625)"/>
       </defs>
       <use xlink:href="#DejaVuSans-32"/>
       <use xlink:href="#DejaVuSans-30" x="63.623047"/>
       <use xlink:href="#DejaVuSans-31" x="127.246094"/>
       <use xlink:href="#DejaVuSans-39" x="190.869141"/>
      </g>
     </g>
    </g>
    <g id="xtick_3">
     <g id="line2d_3">
      <g>
       <use xlink:href="#m9e26c0fc93" x="333.458599" y="315" style="stroke: #000000; stroke-width: 0.8"/>
      </g>
     </g>
     <g id="text_2">
      <!-- 2020 -->
      <g transform="translate(320.733599 329.598437)scale(0.1 -0.1)">
       <use xlink:href="#DejaVuSans-32"/>
       <use xlink:href="#DejaVuSans-30" x="63.623047"/>
       <use xlink:href="#DejaVuSans-32" x="127.246094"/>
       <use xlink:href="#DejaVuSans-30" x="190.869141"/>
      </g>
     </g>
    </g>
    <g id="xtick_4">
     <g id="line2d_4">
      <g>
       <use xlink:href="#m9e26c0fc93" x="463.540127" y="315" style="stroke: #000000; stroke-width: 0.8"/>
      </g>
     </g>
     <g id="text_3">
      <!-- 2021 -->
      <g transform="translate(450.815127 329.598437)scale(0.1 -0.1)">
       <use xlink:href="#DejaVuSans-32"/>
       <use xlink:href="#DejaVuSans-30" x="63.623047"/>
       <use xlink:href="#DejaVuSans-32" x="127.246094"/>
       <use xlink:href="#DejaVuSans-31" x="190.869141"/>
      </g>
     </g>
    </g>
    <g id="xtick_5">
     <g id="line2d_5">
      <g>
       <use xlink:href="#m9e26c0fc93" x="593.266242" y="315" style="stroke: #000000; stroke-width: 0.8"/>
      </g>
     </g>
     <g id="text_4">
      <!-- 2022 -->
      <g transform="translate(580.541242 329.598437)scale(0.1 -0.1)">
       <use xlink:href="#DejaVuSans-32"/>
       <use xlink:href="#DejaVuSans-30" x="63.623047"/>
       <use xlink:href="#DejaVuSans-32" x="127.246094"/>
       <use xlink:href="#DejaVuSans-32" x="190.869141"/>
      </g>
     </g>
    </g>
    <g id="xtick_6">
     <g id="line2d_6">
      <g>
       <use xlink:href="#m9e26c0fc93" x="648" y="315" style="stroke: #000000; stroke-width: 0.8"/>
      </g>
     </g>
    </g>
    <g id="xtick_7">
     <g id="line2d_7">
      <defs>
       <path id="m03f0161566" d="M 0 0 
L 0 2 
" style="stroke: #000000; stroke-width: 0.6"/>
      </defs>
      <g>
       <use xlink:href="#m03f0161566" x="105.993631" y="315" style="stroke: #000000; stroke-width: 0.6"/>
      </g>
     </g>
    </g>
    <g id="xtick_8">
     <g id="line2d_8">
      <g>
       <use xlink:href="#m03f0161566" x="138.336306" y="315" style="stroke: #000000; stroke-width: 0.6"/>
      </g>
     </g>
    </g>
    <g id="xtick_9">
     <g id="line2d_9">
      <g>
       <use xlink:href="#m03f0161566" x="171.034395" y="315" style="stroke: #000000; stroke-width: 0.6"/>
      </g>
     </g>
    </g>
    <g id="xtick_10">
     <g id="line2d_10">
      <g>
       <use xlink:href="#m03f0161566" x="235.719745" y="315" style="stroke: #000000; stroke-width: 0.6"/>
      </g>
     </g>
    </g>
    <g id="xtick_11">
     <g id="line2d_11">
      <g>
       <use xlink:href="#m03f0161566" x="268.06242" y="315" style="stroke: #000000; stroke-width: 0.6"/>
      </g>
     </g>
    </g>
    <g id="xtick_12">
     <g id="line2d_12">
      <g>
       <use xlink:href="#m03f0161566" x="300.76051" y="315" style="stroke: #000000; stroke-width: 0.6"/>
      </g>
     </g>
    </g>
    <g id="xtick_13">
     <g id="line2d_13">
      <g>
       <use xlink:href="#m03f0161566" x="365.801274" y="315" style="stroke: #000000; stroke-width: 0.6"/>
      </g>
     </g>
    </g>
    <g id="xtick_14">
     <g id="line2d_14">
      <g>
       <use xlink:href="#m03f0161566" x="398.143949" y="315" style="stroke: #000000; stroke-width: 0.6"/>
      </g>
     </g>
    </g>
    <g id="xtick_15">
     <g id="line2d_15">
      <g>
       <use xlink:href="#m03f0161566" x="430.842038" y="315" style="stroke: #000000; stroke-width: 0.6"/>
      </g>
     </g>
    </g>
    <g id="xtick_16">
     <g id="line2d_16">
      <g>
       <use xlink:href="#m03f0161566" x="495.527389" y="315" style="stroke: #000000; stroke-width: 0.6"/>
      </g>
     </g>
    </g>
    <g id="xtick_17">
     <g id="line2d_17">
      <g>
       <use xlink:href="#m03f0161566" x="527.870064" y="315" style="stroke: #000000; stroke-width: 0.6"/>
      </g>
     </g>
    </g>
    <g id="xtick_18">
     <g id="line2d_18">
      <g>
       <use xlink:href="#m03f0161566" x="560.568153" y="315" style="stroke: #000000; stroke-width: 0.6"/>
      </g>
     </g>
    </g>
    <g id="xtick_19">
     <g id="line2d_19">
      <g>
       <use xlink:href="#m03f0161566" x="625.253503" y="315" style="stroke: #000000; stroke-width: 0.6"/>
      </g>
     </g>
    </g>
   </g>
   <g id="matplotlib.axis_2">
    <g id="ytick_1">
     <g id="line2d_20">
      <defs>
       <path id="md04fcbfd83" d="M 0 0 
L -3.5 0 
" style="stroke: #000000; stroke-width: 0.8"/>
      </defs>
      <g>
       <use xlink:href="#md04fcbfd83" x="90" y="315" style="stroke: #000000; stroke-width: 0.8"/>
      </g>
     </g>
     <g id="text_5">
      <!-- 0 -->
      <g transform="translate(76.6375 318.799219)scale(0.1 -0.1)">
       <use xlink:href="#DejaVuSans-30"/>
      </g>
     </g>
    </g>
    <g id="ytick_2">
     <g id="line2d_21">
      <g>
       <use xlink:href="#md04fcbfd83" x="90" y="260.64" style="stroke: #000000; stroke-width: 0.8"/>
      </g>
     </g>
     <g id="text_6">
      <!-- 100000 -->
      <g transform="translate(44.825 264.439219)scale(0.1 -0.1)">
       <use xlink:href="#DejaVuSans-31"/>
       <use xlink:href="#DejaVuSans-30" x="63.623047"/>
       <use xlink:href="#DejaVuSans-30" x="127.246094"/>
       <use xlink:href="#DejaVuSans-30" x="190.869141"/>
       <use xlink:href="#DejaVuSans-30" x="254.492188"/>
       <use xlink:href="#DejaVuSans-30" x="318.115234"/>
      </g>
     </g>
    </g>
    <g id="ytick_3">
     <g id="line2d_22">
      <g>
       <use xlink:href="#md04fcbfd83" x="90" y="206.28" style="stroke: #000000; stroke-width: 0.8"/>
      </g>
     </g>
     <g id="text_7">
      <!-- 200000 -->
      <g transform="translate(44.825 210.079219)scale(0.1 -0.1)">
       <use xlink:href="#DejaVuSans-32"/>
       <use xlink:href="#DejaVuSans-30" x="63.623047"/>
       <use xlink:href="#DejaVuSans-30" x="127.246094"/>
       <use xlink:href="#DejaVuSans-30" x="190.869141"/>
       <use xlink:href="#DejaVuSans-30" x="254.492188"/>
       <use xlink:href="#DejaVuSans-30" x="318.115234"/>
      </g>
     </g>
    </g>
    <g id="ytick_4">
     <g id="line2d_23">
      <g>
       <use xlink:href="#md04fcbfd83" x="90" y="151.92" style="stroke: #000000; stroke-width: 0.8"/>
      </g>
     </g>
     <g id="text_8">
      <!-- 300000 -->
      <g transform="translate(44.825 155.719219)scale(0.1 -0.1)">
       <defs>
        <path id="DejaVuSans-33" d="M 2597 2516 
Q 3050 2419 3304 2112 
Q 3559 1806 3559 1356 
Q 3559 666 3084 287 
Q 2609 -91 1734 -91 
Q 1441 -91 1130 -33 
Q 819 25 488 141 
L 488 750 
Q 750 597 1062 519 
Q 1375 441 1716 441 
Q 2309 441 2620 675 
Q 2931 909 2931 1356 
Q 2931 1769 2642 2001 
Q 2353 2234 1838 2234 
L 1294 2234 
L 1294 2753 
L 1863 2753 
Q 2328 2753 2575 2939 
Q 2822 3125 2822 3475 
Q 2822 3834 2567 4026 
Q 2313 4219 1838 4219 
Q 1578 4219 1281 4162 
Q 984 4106 628 3988 
L 628 4550 
Q 988 4650 1302 4700 
Q 1616 4750 1894 4750 
Q 2613 4750 3031 4423 
Q 3450 4097 3450 3541 
Q 3450 3153 3228 2886 
Q 3006 2619 2597 2516 
z
" transform="scale(0.015625)"/>
       </defs>
       <use xlink:href="#DejaVuSans-33"/>
       <use xlink:href="#DejaVuSans-30" x="63.623047"/>
       <use xlink:href="#DejaVuSans-30" x="127.246094"/>
       <use xlink:href="#DejaVuSans-30" x="190.869141"/>
       <use xlink:href="#DejaVuSans-30" x="254.492188"/>
       <use xlink:href="#DejaVuSans-30" x="318.115234"/>
      </g>
     </g>
    </g>
    <g id="ytick_5">
     <g id="line2d_24">
      <g>
       <use xlink:href="#md04fcbfd83" x="90" y="97.56" style="stroke: #000000; stroke-width: 0.8"/>
      </g>
     </g>
     <g id="text_9">
      <!-- 400000 -->
      <g transform="translate(44.825 101.359219)scale(0.1 -0.1)">
       <defs>
        <path id="DejaVuSans-34" d="M 2419 4116 
L 825 1625 
L 2419 1625 
L 2419 4116 
z
M 2253 4666 
L 3047 4666 
L 3047 1625 
L 3713 1625 
L 3713 1100 
L 3047 1100 
L 3047 0 
L 2419 0 
L 2419 1100 
L 313 1100 
L 313 1709 
L 2253 4666 
z
" transform="scale(0.015625)"/>
       </defs>
       <use xlink:href="#DejaVuSans-34"/>
       <use xlink:href="#DejaVuSans-30" x="63.623047"/>
       <use xlink:href="#DejaVuSans-30" x="127.246094"/>
       <use xlink:href="#DejaVuSans-30" x="190.869141"/>
       <use xlink:href="#DejaVuSans-30" x="254.492188"/>
       <use xlink:href="#DejaVuSans-30" x="318.115234"/>
      </g>
     </g>
    </g>
    <g id="ytick_6">
     <g id="line2d_25">
      <g>
       <use xlink:href="#md04fcbfd83" x="90" y="43.2" style="stroke: #000000; stroke-width: 0.8"/>
      </g>
     </g>
     <g id="text_10">
      <!-- 500000 -->
      <g transform="translate(44.825 46.999219)scale(0.1 -0.1)">
       <defs>
        <path id="DejaVuSans-35" d="M 691 4666 
L 3169 4666 
L 3169 4134 
L 1269 4134 
L 1269 2991 
Q 1406 3038 1543 3061 
Q 1681 3084 1819 3084 
Q 2600 3084 3056 2656 
Q 3513 2228 3513 1497 
Q 3513 744 3044 326 
Q 2575 -91 1722 -91 
Q 1428 -91 1123 -41 
Q 819 9 494 109 
L 494 744 
Q 775 591 1075 516 
Q 1375 441 1709 441 
Q 2250 441 2565 725 
Q 2881 1009 2881 1497 
Q 2881 1984 2565 2268 
Q 2250 2553 1709 2553 
Q 1456 2553 1204 2497 
Q 953 2441 691 2322 
L 691 4666 
z
" transform="scale(0.015625)"/>
       </defs>
       <use xlink:href="#DejaVuSans-35"/>
       <use xlink:href="#DejaVuSans-30" x="63.623047"/>
       <use xlink:href="#DejaVuSans-30" x="127.246094"/>
       <use xlink:href="#DejaVuSans-30" x="190.869141"/>
       <use xlink:href="#DejaVuSans-30" x="254.492188"/>
       <use xlink:href="#DejaVuSans-30" x="318.115234"/>
      </g>
     </g>
    </g>
    <g id="text_11">
     <!-- Number of pip-installs per month -->
     <g transform="translate(38.745312 262.00625)rotate(-90)scale(0.1 -0.1)">
      <defs>
       <path id="DejaVuSans-4e" d="M 628 4666 
L 1478 4666 
L 3547 763 
L 3547 4666 
L 4159 4666 
L 4159 0 
L 3309 0 
L 1241 3903 
L 1241 0 
L 628 0 
L 628 4666 
z
" transform="scale(0.015625)"/>
       <path id="DejaVuSans-75" d="M 544 1381 
L 544 3500 
L 1119 3500 
L 1119 1403 
Q 1119 906 1312 657 
Q 1506 409 1894 409 
Q 2359 409 2629 706 
Q 2900 1003 2900 1516 
L 2900 3500 
L 3475 3500 
L 3475 0 
L 2900 0 
L 2900 538 
Q 2691 219 2414 64 
Q 2138 -91 1772 -91 
Q 1169 -91 856 284 
Q 544 659 544 1381 
z
M 1991 3584 
L 1991 3584 
z
" transform="scale(0.015625)"/>
       <path id="DejaVuSans-6d" d="M 3328 2828 
Q 3544 3216 3844 3400 
Q 4144 3584 4550 3584 
Q 5097 3584 5394 3201 
Q 5691 2819 5691 2113 
L 5691 0 
L 5113 0 
L 5113 2094 
Q 5113 2597 4934 2840 
Q 4756 3084 4391 3084 
Q 3944 3084 3684 2787 
Q 3425 2491 3425 1978 
L 3425 0 
L 2847 0 
L 2847 2094 
Q 2847 2600 2669 2842 
Q 2491 3084 2119 3084 
Q 1678 3084 1418 2786 
Q 1159 2488 1159 1978 
L 1159 0 
L 581 0 
L 581 3500 
L 1159 3500 
L 1159 2956 
Q 1356 3278 1631 3431 
Q 1906 3584 2284 3584 
Q 2666 3584 2933 3390 
Q 3200 3197 3328 2828 
z
" transform="scale(0.015625)"/>
       <path id="DejaVuSans-62" d="M 3116 1747 
Q 3116 2381 2855 2742 
Q 2594 3103 2138 3103 
Q 1681 3103 1420 2742 
Q 1159 2381 1159 1747 
Q 1159 1113 1420 752 
Q 1681 391 2138 391 
Q 2594 391 2855 752 
Q 3116 1113 3116 1747 
z
M 1159 2969 
Q 1341 3281 1617 3432 
Q 1894 3584 2278 3584 
Q 2916 3584 3314 3078 
Q 3713 2572 3713 1747 
Q 3713 922 3314 415 
Q 2916 -91 2278 -91 
Q 1894 -91 1617 61 
Q 1341 213 1159 525 
L 1159 0 
L 581 0 
L 581 4863 
L 1159 4863 
L 1159 2969 
z
" transform="scale(0.015625)"/>
       <path id="DejaVuSans-65" d="M 3597 1894 
L 3597 1613 
L 953 1613 
Q 991 1019 1311 708 
Q 1631 397 2203 397 
Q 2534 397 2845 478 
Q 3156 559 3463 722 
L 3463 178 
Q 3153 47 2828 -22 
Q 2503 -91 2169 -91 
Q 1331 -91 842 396 
Q 353 884 353 1716 
Q 353 2575 817 3079 
Q 1281 3584 2069 3584 
Q 2775 3584 3186 3129 
Q 3597 2675 3597 1894 
z
M 3022 2063 
Q 3016 2534 2758 2815 
Q 2500 3097 2075 3097 
Q 1594 3097 1305 2825 
Q 1016 2553 972 2059 
L 3022 2063 
z
" transform="scale(0.015625)"/>
       <path id="DejaVuSans-72" d="M 2631 2963 
Q 2534 3019 2420 3045 
Q 2306 3072 2169 3072 
Q 1681 3072 1420 2755 
Q 1159 2438 1159 1844 
L 1159 0 
L 581 0 
L 581 3500 
L 1159 3500 
L 1159 2956 
Q 1341 3275 1631 3429 
Q 1922 3584 2338 3584 
Q 2397 3584 2469 3576 
Q 2541 3569 2628 3553 
L 2631 2963 
z
" transform="scale(0.015625)"/>
       <path id="DejaVuSans-20" transform="scale(0.015625)"/>
       <path id="DejaVuSans-6f" d="M 1959 3097 
Q 1497 3097 1228 2736 
Q 959 2375 959 1747 
Q 959 1119 1226 758 
Q 1494 397 1959 397 
Q 2419 397 2687 759 
Q 2956 1122 2956 1747 
Q 2956 2369 2687 2733 
Q 2419 3097 1959 3097 
z
M 1959 3584 
Q 2709 3584 3137 3096 
Q 3566 2609 3566 1747 
Q 3566 888 3137 398 
Q 2709 -91 1959 -91 
Q 1206 -91 779 398 
Q 353 888 353 1747 
Q 353 2609 779 3096 
Q 1206 3584 1959 3584 
z
" transform="scale(0.015625)"/>
       <path id="DejaVuSans-66" d="M 2375 4863 
L 2375 4384 
L 1825 4384 
Q 1516 4384 1395 4259 
Q 1275 4134 1275 3809 
L 1275 3500 
L 2222 3500 
L 2222 3053 
L 1275 3053 
L 1275 0 
L 697 0 
L 697 3053 
L 147 3053 
L 147 3500 
L 697 3500 
L 697 3744 
Q 697 4328 969 4595 
Q 1241 4863 1831 4863 
L 2375 4863 
z
" transform="scale(0.015625)"/>
       <path id="DejaVuSans-70" d="M 1159 525 
L 1159 -1331 
L 581 -1331 
L 581 3500 
L 1159 3500 
L 1159 2969 
Q 1341 3281 1617 3432 
Q 1894 3584 2278 3584 
Q 2916 3584 3314 3078 
Q 3713 2572 3713 1747 
Q 3713 922 3314 415 
Q 2916 -91 2278 -91 
Q 1894 -91 1617 61 
Q 1341 213 1159 525 
z
M 3116 1747 
Q 3116 2381 2855 2742 
Q 2594 3103 2138 3103 
Q 1681 3103 1420 2742 
Q 1159 2381 1159 1747 
Q 1159 1113 1420 752 
Q 1681 391 2138 391 
Q 2594 391 2855 752 
Q 3116 1113 3116 1747 
z
" transform="scale(0.015625)"/>
       <path id="DejaVuSans-69" d="M 603 3500 
L 1178 3500 
L 1178 0 
L 603 0 
L 603 3500 
z
M 603 4863 
L 1178 4863 
L 1178 4134 
L 603 4134 
L 603 4863 
z
" transform="scale(0.015625)"/>
       <path id="DejaVuSans-2d" d="M 313 2009 
L 1997 2009 
L 1997 1497 
L 313 1497 
L 313 2009 
z
" transform="scale(0.015625)"/>
       <path id="DejaVuSans-6e" d="M 3513 2113 
L 3513 0 
L 2938 0 
L 2938 2094 
Q 2938 2591 2744 2837 
Q 2550 3084 2163 3084 
Q 1697 3084 1428 2787 
Q 1159 2491 1159 1978 
L 1159 0 
L 581 0 
L 581 3500 
L 1159 3500 
L 1159 2956 
Q 1366 3272 1645 3428 
Q 1925 3584 2291 3584 
Q 2894 3584 3203 3211 
Q 3513 2838 3513 2113 
z
" transform="scale(0.015625)"/>
       <path id="DejaVuSans-73" d="M 2834 3397 
L 2834 2853 
Q 2591 2978 2328 3040 
Q 2066 3103 1784 3103 
Q 1356 3103 1142 2972 
Q 928 2841 928 2578 
Q 928 2378 1081 2264 
Q 1234 2150 1697 2047 
L 1894 2003 
Q 2506 1872 2764 1633 
Q 3022 1394 3022 966 
Q 3022 478 2636 193 
Q 2250 -91 1575 -91 
Q 1294 -91 989 -36 
Q 684 19 347 128 
L 347 722 
Q 666 556 975 473 
Q 1284 391 1588 391 
Q 1994 391 2212 530 
Q 2431 669 2431 922 
Q 2431 1156 2273 1281 
Q 2116 1406 1581 1522 
L 1381 1569 
Q 847 1681 609 1914 
Q 372 2147 372 2553 
Q 372 3047 722 3315 
Q 1072 3584 1716 3584 
Q 2034 3584 2315 3537 
Q 2597 3491 2834 3397 
z
" transform="scale(0.015625)"/>
       <path id="DejaVuSans-74" d="M 1172 4494 
L 1172 3500 
L 2356 3500 
L 2356 3053 
L 1172 3053 
L 1172 1153 
Q 1172 725 1289 603 
Q 1406 481 1766 481 
L 2356 481 
L 2356 0 
L 1766 0 
Q 1100 0 847 248 
Q 594 497 594 1153 
L 594 3053 
L 172 3053 
L 172 3500 
L 594 3500 
L 594 4494 
L 1172 4494 
z
" transform="scale(0.015625)"/>
       <path id="DejaVuSans-61" d="M 2194 1759 
Q 1497 1759 1228 1600 
Q 959 1441 959 1056 
Q 959 750 1161 570 
Q 1363 391 1709 391 
Q 2188 391 2477 730 
Q 2766 1069 2766 1631 
L 2766 1759 
L 2194 1759 
z
M 3341 1997 
L 3341 0 
L 2766 0 
L 2766 531 
Q 2569 213 2275 61 
Q 1981 -91 1556 -91 
Q 1019 -91 701 211 
Q 384 513 384 1019 
Q 384 1609 779 1909 
Q 1175 2209 1959 2209 
L 2766 2209 
L 2766 2266 
Q 2766 2663 2505 2880 
Q 2244 3097 1772 3097 
Q 1472 3097 1187 3025 
Q 903 2953 641 2809 
L 641 3341 
Q 956 3463 1253 3523 
Q 1550 3584 1831 3584 
Q 2591 3584 2966 3190 
Q 3341 2797 3341 1997 
z
" transform="scale(0.015625)"/>
       <path id="DejaVuSans-6c" d="M 603 4863 
L 1178 4863 
L 1178 0 
L 603 0 
L 603 4863 
z
" transform="scale(0.015625)"/>
       <path id="DejaVuSans-68" d="M 3513 2113 
L 3513 0 
L 2938 0 
L 2938 2094 
Q 2938 2591 2744 2837 
Q 2550 3084 2163 3084 
Q 1697 3084 1428 2787 
Q 1159 2491 1159 1978 
L 1159 0 
L 581 0 
L 581 4863 
L 1159 4863 
L 1159 2956 
Q 1366 3272 1645 3428 
Q 1925 3584 2291 3584 
Q 2894 3584 3203 3211 
Q 3513 2838 3513 2113 
z
" transform="scale(0.015625)"/>
      </defs>
      <use xlink:href="#DejaVuSans-4e"/>
      <use xlink:href="#DejaVuSans-75" x="74.804688"/>
      <use xlink:href="#DejaVuSans-6d" x="138.183594"/>
      <use xlink:href="#DejaVuSans-62" x="235.595703"/>
      <use xlink:href="#DejaVuSans-65" x="299.072266"/>
      <use xlink:href="#DejaVuSans-72" x="360.595703"/>
      <use xlink:href="#DejaVuSans-20" x="401.708984"/>
      <use xlink:href="#DejaVuSans-6f" x="433.496094"/>
      <use xlink:href="#DejaVuSans-66" x="494.677734"/>
      <use xlink:href="#DejaVuSans-20" x="529.882812"/>
      <use xlink:href="#DejaVuSans-70" x="561.669922"/>
      <use xlink:href="#DejaVuSans-69" x="625.146484"/>
      <use xlink:href="#DejaVuSans-70" x="652.929688"/>
      <use xlink:href="#DejaVuSans-2d" x="716.40625"/>
      <use xlink:href="#DejaVuSans-69" x="752.490234"/>
      <use xlink:href="#DejaVuSans-6e" x="780.273438"/>
      <use xlink:href="#DejaVuSans-73" x="843.652344"/>
      <use xlink:href="#DejaVuSans-74" x="895.751953"/>
      <use xlink:href="#DejaVuSans-61" x="934.960938"/>
      <use xlink:href="#DejaVuSans-6c" x="996.240234"/>
      <use xlink:href="#DejaVuSans-6c" x="1024.023438"/>
      <use xlink:href="#DejaVuSans-73" x="1051.806641"/>
      <use xlink:href="#DejaVuSans-20" x="1103.90625"/>
      <use xlink:href="#DejaVuSans-70" x="1135.693359"/>
      <use xlink:href="#DejaVuSans-65" x="1199.169922"/>
      <use xlink:href="#DejaVuSans-72" x="1260.693359"/>
      <use xlink:href="#DejaVuSans-20" x="1301.806641"/>
      <use xlink:href="#DejaVuSans-6d" x="1333.59375"/>
      <use xlink:href="#DejaVuSans-6f" x="1431.005859"/>
      <use xlink:href="#DejaVuSans-6e" x="1492.1875"/>
      <use xlink:href="#DejaVuSans-74" x="1555.566406"/>
      <use xlink:href="#DejaVuSans-68" x="1594.775391"/>
     </g>
    </g>
   </g>
   <g id="line2d_26">
    <path d="M 107.770701 315 
L 317.464968 314.955062 
L 335.235669 314.631439 
L 370.77707 314.604531 
L 427.643312 314.151893 
L 431.197452 309.146334 
L 434.751592 298.514333 
L 438.305732 285.880163 
L 441.859873 270.358843 
L 448.968153 238.108505 
L 452.522293 224.989625 
L 456.076433 217.586971 
L 459.630573 215.21624 
L 463.184713 214.846411 
L 466.738854 213.474365 
L 473.847134 207.683756 
L 477.401274 204.288068 
L 480.955414 198.393723 
L 484.509554 189.444889 
L 491.617834 176.687956 
L 495.171975 169.882265 
L 498.726115 163.396755 
L 502.280255 154.131002 
L 505.834395 152.988536 
L 509.388535 144.476938 
L 512.942675 138.696477 
L 516.496815 136.846878 
L 520.050955 134.581425 
L 523.605096 135.251503 
L 527.159236 129.764042 
L 530.713376 133.810419 
L 534.267516 132.369154 
L 537.821656 132.155157 
L 541.375796 129.984109 
L 544.929936 124.026887 
L 548.484076 122.506529 
L 552.038217 112.544062 
L 555.592357 111.600282 
L 559.146497 104.740412 
L 562.700637 105.547024 
L 566.254777 105.108158 
L 569.808917 102.084473 
L 573.363057 106.129582 
L 576.917197 104.013166 
L 580.471338 110.02801 
L 584.025478 107.077711 
L 587.579618 113.886664 
L 591.133758 124.39871 
L 594.687898 124.429061 
L 598.242038 128.627918 
L 601.796178 128.183706 
L 605.350318 131.090154 
L 608.904459 126.581536 
L 612.458599 120.701686 
L 616.012739 118.930819 
L 619.566879 114.492053 
L 623.121019 113.311897 
L 626.675159 109.67621 
L 630.229299 111.358199 
L 633.783439 108.620357 
L 637.33758 109.848259 
L 640.89172 108.472408 
L 644.44586 103.00814 
L 648 103.738739 
L 651.55414 99.090959 
L 655.10828 99.938341 
L 658.66242 97.925027 
L 662.216561 124.226842 
L 662.216561 124.226842 
" clip-path="url(#p6b70085449)" style="fill: none; stroke: #1f77b4; stroke-width: 1.5; stroke-linecap: square"/>
   </g>
   <g id="line2d_27">
    <path d="M 107.770701 314.999185 
L 214.394904 314.897713 
L 221.503185 314.556604 
L 232.165605 314.395789 
L 239.273885 314.617124 
L 246.382166 314.757464 
L 281.923567 314.706094 
L 299.694268 314.638778 
L 303.248408 313.01432 
L 306.802548 306.871459 
L 313.910828 290.859539 
L 317.464968 282.38092 
L 321.019108 273.31349 
L 324.573248 265.867076 
L 328.127389 263.060379 
L 331.681529 263.005385 
L 335.235669 258.655407 
L 338.789809 255.495188 
L 342.343949 251.982355 
L 349.452229 240.131331 
L 353.006369 231.394682 
L 356.56051 228.045291 
L 360.11465 220.190633 
L 363.66879 213.046189 
L 367.22293 208.395419 
L 370.77707 199.946698 
L 374.33121 194.003609 
L 377.88535 184.804448 
L 381.43949 182.097048 
L 384.993631 178.683693 
L 388.547771 172.324479 
L 392.101911 170.857756 
L 395.656051 169.864689 
L 399.210191 172.58885 
L 402.764331 167.459259 
L 409.872611 159.756628 
L 413.426752 156.964517 
L 416.980892 150.957737 
L 420.535032 139.733756 
L 424.089172 130.445444 
L 427.643312 115.683262 
L 431.197452 114.007615 
L 434.751592 108.862803 
L 438.305732 104.985304 
L 441.859873 99.659474 
L 445.414013 102.610316 
L 448.968153 113.309723 
L 452.522293 109.667512 
L 456.076433 112.885896 
L 459.630573 122.596223 
L 463.184713 135.280857 
L 466.738854 140.230879 
L 470.292994 139.508978 
L 473.847134 143.53642 
L 477.401274 143.757121 
L 480.955414 141.142768 
L 484.509554 136.105861 
L 488.063694 135.583461 
L 491.617834 136.753379 
L 495.171975 136.092271 
L 498.726115 134.636419 
L 502.280255 128.769435 
L 505.834395 133.806342 
L 509.388535 128.402686 
L 512.942675 128.620579 
L 516.496815 131.340301 
L 520.050955 132.494273 
L 523.605096 135.806428 
L 527.159236 131.721908 
L 530.713376 140.719756 
L 534.267516 141.44057 
L 541.375796 150.130741 
L 544.929936 149.230177 
L 548.484076 153.751932 
L 552.038217 147.640328 
L 555.592357 151.064464 
L 559.146497 146.701984 
L 562.700637 142.849309 
L 566.254777 139.319171 
L 569.808917 128.484045 
L 573.363057 126.158705 
L 576.917197 116.90908 
L 580.471338 116.938978 
L 584.025478 114.129653 
L 587.579618 121.023497 
L 591.133758 136.312247 
L 594.687898 135.743189 
L 598.242038 141.112598 
L 601.796178 139.25104 
L 605.350318 141.225395 
L 608.904459 132.63733 
L 612.458599 122.212622 
L 616.012739 120.975026 
L 619.566879 112.98157 
L 623.121019 111.342887 
L 626.675159 101.762753 
L 630.229299 108.001831 
L 633.783439 107.156986 
L 637.33758 113.340074 
L 640.89172 116.709578 
L 644.44586 117.032024 
L 648 127.831816 
L 651.55414 123.849764 
L 655.10828 126.170302 
L 658.66242 120.962524 
L 662.216561 142.492526 
L 662.216561 142.492526 
" clip-path="url(#p6b70085449)" style="fill: none; stroke-dasharray: 1.5,2.475; stroke-dashoffset: 0; stroke: #ff7f0e; stroke-width: 1.5"/>
   </g>
   <g id="line2d_28">
    <path d="M 107.770701 314.35366 
L 118.433121 314.375041 
L 129.095541 314.259617 
L 132.649682 314.282086 
L 143.312102 311.579578 
L 146.866242 305.936738 
L 150.420382 298.670347 
L 153.974522 290.974692 
L 157.528662 283.641528 
L 161.082803 275.759328 
L 164.636943 267.376654 
L 168.191083 262.454899 
L 171.745223 259.682992 
L 175.299363 256.684857 
L 178.853503 251.900815 
L 182.407643 247.636635 
L 185.961783 243.140882 
L 189.515924 241.224058 
L 193.070064 238.859669 
L 196.624204 237.501394 
L 200.178344 242.031213 
L 203.732484 243.392931 
L 207.286624 242.275924 
L 214.394904 235.795124 
L 217.949045 230.843563 
L 221.503185 219.004045 
L 225.057325 210.7541 
L 228.611465 204.288068 
L 232.165605 201.617452 
L 235.719745 196.000071 
L 239.273885 194.710561 
L 242.828025 199.063891 
L 246.382166 195.998168 
L 249.936306 195.868429 
L 253.490446 188.421653 
L 257.044586 185.555341 
L 264.152866 171.926926 
L 267.707006 171.390484 
L 271.261146 168.108317 
L 274.815287 170.590123 
L 278.369427 167.496043 
L 281.923567 170.74822 
L 285.477707 165.181666 
L 289.031847 160.035676 
L 292.585987 151.667588 
L 296.140127 140.153234 
L 299.694268 139.05779 
L 303.248408 126.441649 
L 306.802548 120.228664 
L 310.356688 116.91361 
L 313.910828 115.416263 
L 317.464968 118.778882 
L 321.019108 118.194694 
L 324.573248 127.004456 
L 328.127389 136.326562 
L 331.681529 148.733236 
L 335.235669 149.616586 
L 338.789809 155.232245 
L 342.343949 159.750377 
L 345.898089 158.181275 
L 349.452229 158.19251 
L 353.006369 150.189993 
L 356.56051 158.589157 
L 360.11465 149.71688 
L 363.66879 138.498697 
L 367.22293 132.984781 
L 370.77707 118.255577 
L 374.33121 109.702574 
L 377.88535 93.030091 
L 381.43949 93.998876 
L 384.993631 94.095184 
L 388.547771 88.079254 
L 392.101911 83.852129 
L 395.656051 69.079437 
L 399.210191 68.492349 
L 402.764331 67.035954 
L 406.318471 71.358661 
L 409.872611 76.788138 
L 413.426752 92.484044 
L 416.980892 113.569201 
L 420.535032 124.289718 
L 424.089172 127.322734 
L 427.643312 125.844052 
L 431.197452 132.006482 
L 434.751592 128.944384 
L 438.305732 124.805685 
L 441.859873 118.437139 
L 445.414013 118.322802 
L 448.968153 122.226303 
L 452.522293 115.122719 
L 456.076433 116.083714 
L 459.630573 125.900858 
L 463.184713 137.364204 
L 466.738854 138.083659 
L 470.292994 132.832754 
L 473.847134 134.428039 
L 477.401274 135.103372 
L 480.955414 131.221886 
L 484.509554 125.972704 
L 488.063694 128.054057 
L 491.617834 131.91552 
L 495.171975 134.011189 
L 498.726115 135.660471 
L 502.280255 133.319186 
L 505.834395 142.121882 
L 509.388535 142.054747 
L 512.942675 146.228327 
L 516.496815 149.98569 
L 520.050955 145.514942 
L 523.605096 150.517693 
L 527.159236 149.109588 
L 530.713376 156.86975 
L 534.267516 157.992103 
L 537.821656 162.141492 
L 541.375796 172.919721 
L 544.929936 173.84665 
L 548.484076 177.460865 
L 552.038217 172.826675 
L 555.592357 175.508344 
L 559.146497 174.2288 
L 562.700637 171.629577 
L 566.254777 169.874746 
L 569.808917 161.153771 
L 573.363057 156.236546 
L 576.917197 145.596301 
L 580.471338 144.358252 
L 584.025478 128.754848 
L 587.579618 122.829065 
L 591.133758 133.542334 
L 594.687898 139.452987 
L 598.242038 148.947686 
L 601.796178 148.455909 
L 605.350318 165.087079 
L 608.904459 172.19474 
L 612.458599 167.313031 
L 616.012739 170.257078 
L 619.566879 167.650697 
L 623.121019 172.034378 
L 626.675159 170.577167 
L 630.229299 168.816356 
L 633.783439 165.799648 
L 637.33758 164.075258 
L 640.89172 165.65197 
L 644.44586 157.944538 
L 648 157.54481 
L 651.55414 161.381902 
L 655.10828 169.366751 
L 658.66242 172.755191 
L 662.216561 190.150301 
L 662.216561 190.150301 
" clip-path="url(#p6b70085449)" style="fill: none; stroke-dasharray: 5.55,2.4; stroke-dashoffset: 0; stroke: #2ca02c; stroke-width: 1.5"/>
   </g>
   <g id="line2d_29">
    <path d="M 107.770701 276.330742 
L 111.324841 275.836519 
L 114.878981 275.598966 
L 118.433121 274.773872 
L 121.987261 276.136224 
L 125.541401 276.788906 
L 129.095541 278.336626 
L 132.649682 278.880045 
L 136.203822 280.389894 
L 139.757962 283.796726 
L 143.312102 287.526275 
L 150.420382 276.217311 
L 153.974522 266.758762 
L 157.528662 258.309949 
L 164.636943 234.946565 
L 168.191083 231.363335 
L 171.745223 228.880804 
L 175.299363 229.809998 
L 178.853503 225.38754 
L 182.407643 222.97758 
L 185.961783 218.6122 
L 189.515924 218.495054 
L 193.070064 218.603321 
L 196.624204 219.28264 
L 200.178344 228.666535 
L 203.732484 233.609581 
L 207.286624 236.544749 
L 210.840764 236.328305 
L 214.394904 235.487628 
L 217.949045 234.506158 
L 221.503185 226.835237 
L 225.057325 224.639184 
L 228.611465 224.588176 
L 232.165605 227.269936 
L 235.719745 228.587532 
L 239.273885 230.914955 
L 242.828025 237.789683 
L 246.382166 239.13002 
L 249.936306 242.332367 
L 253.490446 241.372189 
L 257.044586 243.570326 
L 260.598726 242.410918 
L 264.152866 239.899576 
L 267.707006 241.299437 
L 271.261146 240.948996 
L 274.815287 243.778162 
L 278.369427 242.308449 
L 281.923567 244.84244 
L 285.477707 244.055308 
L 289.031847 244.248014 
L 292.585987 243.799 
L 296.140127 241.06587 
L 299.694268 244.086293 
L 303.248408 241.344284 
L 306.802548 239.630313 
L 310.356688 236.685632 
L 313.910828 234.180723 
L 317.464968 233.127045 
L 321.019108 229.077769 
L 324.573248 230.303405 
L 328.127389 232.991236 
L 331.681529 238.313351 
L 335.235669 238.188867 
L 338.789809 240.672847 
L 342.343949 242.998368 
L 345.898089 241.408972 
L 349.452229 240.135136 
L 353.006369 234.54566 
L 356.56051 237.831631 
L 360.11465 234.605456 
L 363.66879 232.734203 
L 367.22293 232.900636 
L 370.77707 230.801343 
L 374.33121 232.591237 
L 377.88535 229.650361 
L 381.43949 232.436673 
L 384.993631 233.310057 
L 388.547771 232.352959 
L 392.101911 233.934563 
L 395.656051 233.111734 
L 399.210191 235.77782 
L 402.764331 233.321201 
L 406.318471 232.426163 
L 409.872611 231.296834 
L 413.426752 231.961295 
L 416.980892 232.483332 
L 420.535032 230.02318 
L 424.089172 230.700596 
L 427.643312 228.993148 
L 431.197452 231.476766 
L 434.751592 226.328693 
L 438.305732 221.480687 
L 441.859873 218.669188 
L 445.414013 217.344978 
L 448.968153 218.579765 
L 452.522293 212.23396 
L 456.076433 213.331489 
L 459.630573 219.287533 
L 463.184713 224.192345 
L 466.738854 225.921808 
L 470.292994 222.796742 
L 473.847134 229.133759 
L 477.401274 233.491891 
L 480.955414 234.398797 
L 484.509554 232.807227 
L 488.063694 233.84505 
L 491.617834 238.769794 
L 495.171975 239.287845 
L 498.726115 240.13568 
L 502.280255 238.591584 
L 505.834395 242.743963 
L 509.388535 242.539298 
L 516.496815 244.668035 
L 520.050955 245.078091 
L 523.605096 248.462726 
L 527.159236 248.172262 
L 530.713376 251.243693 
L 534.267516 252.165276 
L 537.821656 254.436527 
L 541.375796 257.049794 
L 544.929936 257.583881 
L 548.484076 260.336943 
L 552.038217 260.852729 
L 555.592357 263.082848 
L 559.146497 262.780878 
L 562.700637 262.049645 
L 566.254777 261.458662 
L 569.808917 259.254273 
L 573.363057 260.240454 
L 576.917197 258.906007 
L 580.471338 259.455224 
L 584.025478 258.966346 
L 587.579618 260.736217 
L 591.133758 264.576298 
L 594.687898 264.870386 
L 598.242038 267.152328 
L 601.796178 267.64483 
L 605.350318 270.160339 
L 608.904459 269.944348 
L 612.458599 267.609677 
L 616.012739 267.209044 
L 619.566879 266.381503 
L 623.121019 267.248545 
L 626.675159 266.592601 
L 630.229299 268.246595 
L 633.783439 270.185797 
L 637.33758 272.443187 
L 640.89172 274.463657 
L 644.44586 275.858082 
L 648 278.547271 
L 651.55414 279.170599 
L 655.10828 281.020198 
L 658.66242 281.859426 
L 662.216561 286.411442 
L 662.216561 286.411442 
" clip-path="url(#p6b70085449)" style="fill: none; stroke: #d62728; stroke-width: 1.5; stroke-linecap: square"/>
   </g>
   <g id="line2d_30">
    <path d="M 107.770701 305.262312 
L 111.324841 305.584123 
L 114.878981 306.11368 
L 118.433121 306.347972 
L 121.987261 306.044099 
L 125.541401 283.694801 
L 129.095541 271.318569 
L 132.649682 250.842607 
L 136.203822 225.206521 
L 139.757962 216.03617 
L 143.312102 202.89156 
L 146.866242 178.93538 
L 150.420382 146.388236 
L 153.974522 125.649262 
L 157.528662 88.7718 
L 161.082803 46.780512 
L 164.340126 -1 
M 189.737398 -1 
L 193.070064 59.384422 
L 196.624204 135.94269 
L 200.178344 157.880574 
L 203.732484 169.460522 
L 207.286624 186.933276 
L 210.840764 217.043461 
L 214.394904 230.864129 
L 217.949045 213.782495 
L 221.503185 167.635204 
L 225.057325 124.530533 
L 228.611465 73.710275 
L 232.165605 44.304686 
L 235.719745 34.675899 
L 239.273885 62.97943 
L 242.828025 129.700531 
L 246.382166 182.631226 
L 249.936306 240.837467 
L 253.490446 275.059171 
L 257.044586 287.311825 
L 260.598726 294.168433 
L 264.152866 293.228729 
L 267.707006 293.913665 
L 271.261146 293.351764 
L 274.815287 293.792533 
L 278.369427 293.066374 
L 281.923567 293.351402 
L 289.031847 293.215411 
L 292.585987 293.600824 
L 296.140127 293.598377 
L 299.694268 293.331651 
L 303.248408 289.864208 
L 306.802548 289.626745 
L 310.356688 270.304755 
L 313.910828 255.217771 
L 317.464968 242.643307 
L 321.019108 222.248341 
L 324.573248 213.511058 
L 328.127389 205.691553 
L 331.681529 223.183333 
L 335.235669 233.27427 
L 338.789809 242.366433 
L 342.343949 259.701656 
L 345.898089 266.491582 
L 349.452229 265.552876 
L 353.006369 262.637639 
L 360.11465 268.753774 
L 363.66879 268.428157 
L 367.22293 273.57016 
L 370.77707 282.983319 
L 374.33121 288.338866 
L 377.88535 290.11218 
L 381.43949 290.584206 
L 384.993631 294.394933 
L 388.547771 294.178036 
L 392.101911 287.957621 
L 395.656051 277.459346 
L 399.210191 270.071822 
L 402.764331 266.057065 
L 406.318471 265.449773 
L 409.872611 262.478365 
L 413.426752 256.149864 
L 416.980892 255.541032 
L 420.535032 250.050944 
L 424.089172 253.81637 
L 427.643312 254.313311 
L 431.197452 259.147637 
L 434.751592 271.300358 
L 438.305732 278.295403 
L 441.859873 273.714486 
L 445.414013 258.580662 
L 448.968153 241.699164 
L 452.522293 228.155189 
L 456.076433 208.355737 
L 459.630573 187.244215 
L 463.184713 187.912481 
L 466.738854 185.365805 
L 470.292994 179.872365 
L 473.847134 159.969448 
L 477.401274 157.788977 
L 480.955414 157.580326 
L 484.509554 149.897989 
L 488.063694 142.883918 
L 491.617834 143.076534 
L 495.171975 155.938744 
L 498.726115 156.168687 
L 502.280255 158.933255 
L 505.834395 163.602417 
L 509.388535 164.498813 
L 512.942675 170.177803 
L 516.496815 169.681224 
L 520.050955 172.346132 
L 523.605096 173.940783 
L 527.159236 178.023038 
L 530.713376 193.026488 
L 534.267516 194.175931 
L 537.821656 196.576649 
L 541.375796 197.317123 
L 548.484076 207.354969 
L 552.038217 210.540465 
L 555.592357 214.870239 
L 559.146497 219.547011 
L 562.700637 224.783691 
L 566.254777 233.272549 
L 569.808917 231.960298 
L 573.363057 228.406694 
L 576.917197 228.8047 
L 580.471338 225.531775 
L 584.025478 219.946013 
L 587.579618 208.318319 
L 591.133758 199.771568 
L 594.687898 193.29394 
L 598.242038 194.452261 
L 601.796178 191.300649 
L 605.350318 197.498776 
L 608.904459 214.390059 
L 612.458599 233.437078 
L 616.012739 248.880482 
L 619.566879 258.585373 
L 623.121019 277.408792 
L 626.675159 289.461581 
L 630.229299 290.488623 
L 633.783439 291.26579 
L 640.89172 291.741621 
L 644.44586 291.858857 
L 648 292.201416 
L 658.66242 294.653052 
L 662.216561 297.732184 
L 662.216561 297.732184 
" clip-path="url(#p6b70085449)" style="fill: none; stroke-dasharray: 5.55,2.4; stroke-dashoffset: 0; stroke: #9467bd; stroke-width: 1.5"/>
   </g>
   <g id="line2d_31">
    <path d="M 107.770701 279.219704 
L 111.324841 281.052271 
L 114.878981 288.300724 
L 118.433121 289.868557 
L 121.987261 291.99974 
L 125.541401 293.15335 
L 132.649682 295.79878 
L 136.203822 298.731955 
L 139.757962 301.202254 
L 143.312102 303.035002 
L 146.866242 299.701193 
L 150.420382 295.967205 
L 153.974522 289.579905 
L 157.528662 280.132046 
L 164.636943 262.835872 
L 168.191083 260.841041 
L 171.745223 259.006391 
L 175.299363 259.227274 
L 178.853503 261.923983 
L 182.407643 264.080716 
L 185.961783 264.694622 
L 193.070064 265.351291 
L 196.624204 265.272559 
L 200.178344 268.242699 
L 207.286624 269.348472 
L 210.840764 268.306844 
L 214.394904 268.789379 
L 217.949045 269.1564 
L 221.503185 265.956589 
L 225.057325 265.377927 
L 228.611465 264.375166 
L 232.165605 265.587394 
L 235.719745 264.76828 
L 239.273885 265.292763 
L 242.828025 269.549423 
L 246.382166 270.704935 
L 249.936306 273.555483 
L 253.490446 273.907373 
L 257.044586 276.229542 
L 260.598726 276.916471 
L 264.152866 275.531922 
L 267.707006 276.401048 
L 271.261146 275.251877 
L 274.815287 275.315026 
L 278.369427 273.556389 
L 281.923567 272.941577 
L 289.031847 262.941693 
L 292.585987 263.489914 
L 296.140127 263.220379 
L 299.694268 265.338878 
L 303.248408 265.356817 
L 306.802548 269.948969 
L 310.356688 273.792946 
L 313.910828 273.345563 
L 317.464968 273.247896 
L 321.019108 271.858001 
L 324.573248 272.409846 
L 328.127389 272.786923 
L 331.681529 275.337947 
L 335.235669 275.614277 
L 338.789809 275.310677 
L 342.343949 274.616409 
L 345.898089 269.791144 
L 349.452229 269.052119 
L 353.006369 265.179241 
L 356.56051 265.890814 
L 360.11465 266.251764 
L 363.66879 266.345988 
L 367.22293 269.298823 
L 370.77707 266.692442 
L 374.33121 269.843782 
L 377.88535 261.396148 
L 381.43949 262.913426 
L 384.993631 264.61589 
L 388.547771 267.821228 
L 392.101911 272.349869 
L 395.656051 272.706289 
L 399.210191 283.163794 
L 402.764331 283.46966 
L 406.318471 284.46626 
L 413.426752 284.370405 
L 416.980892 284.018243 
L 420.535032 283.962977 
L 424.089172 285.726506 
L 427.643312 286.261861 
L 431.197452 286.943264 
L 434.751592 286.59391 
L 438.305732 287.029696 
L 441.859873 286.937194 
L 445.414013 285.635272 
L 448.968153 285.982994 
L 452.522293 285.359848 
L 456.076433 286.662223 
L 459.630573 288.637121 
L 463.184713 289.70303 
L 466.738854 290.329348 
L 470.292994 289.413382 
L 473.847134 290.055646 
L 477.401274 289.824253 
L 480.955414 288.130667 
L 484.509554 285.693165 
L 488.063694 284.844696 
L 491.617834 284.891899 
L 495.171975 284.442704 
L 498.726115 284.297925 
L 502.280255 283.955366 
L 505.834395 285.92193 
L 512.942675 286.961203 
L 516.496815 288.029739 
L 520.050955 287.416015 
L 523.605096 288.283872 
L 527.159236 288.023578 
L 530.713376 288.962285 
L 534.267516 289.723778 
L 537.821656 289.996937 
L 541.375796 291.192223 
L 544.929936 290.789506 
L 548.484076 291.107059 
L 552.038217 290.015329 
L 555.592357 289.156169 
L 559.146497 287.932706 
L 562.700637 286.438712 
L 566.254777 286.397761 
L 569.808917 285.580549 
L 573.363057 285.78757 
L 576.917197 285.812848 
L 584.025478 288.136647 
L 587.579618 289.087585 
L 591.133758 291.342347 
L 598.242038 292.947326 
L 601.796178 292.86488 
L 605.350318 293.721231 
L 608.904459 293.904968 
L 612.458599 293.918558 
L 616.012739 294.732055 
L 619.566879 295.263968 
L 623.121019 296.3364 
L 626.675159 296.050919 
L 630.229299 296.445392 
L 633.783439 295.097083 
L 637.33758 295.412733 
L 640.89172 296.226049 
L 644.44586 296.777803 
L 648 298.012409 
L 651.55414 298.990074 
L 655.10828 301.130771 
L 658.66242 302.004427 
L 662.216561 303.895067 
L 662.216561 303.895067 
" clip-path="url(#p6b70085449)" style="fill: none; stroke-dasharray: 9.6,2.4,1.5,2.4; stroke-dashoffset: 0; stroke: #8c564b; stroke-width: 1.5"/>
   </g>
   <g id="patch_3">
    <path d="M 90 315 
L 90 43.2 
" style="fill: none; stroke: #000000; stroke-width: 0.8; stroke-linejoin: miter; stroke-linecap: square"/>
   </g>
   <g id="patch_4">
    <path d="M 648 315 
L 648 43.2 
" style="fill: none; stroke: #000000; stroke-width: 0.8; stroke-linejoin: miter; stroke-linecap: square"/>
   </g>
   <g id="patch_5">
    <path d="M 90 315 
L 648 315 
" style="fill: none; stroke: #000000; stroke-width: 0.8; stroke-linejoin: miter; stroke-linecap: square"/>
   </g>
   <g id="patch_6">
    <path d="M 90 43.2 
L 648 43.2 
" style="fill: none; stroke: #000000; stroke-width: 0.8; stroke-linejoin: miter; stroke-linecap: square"/>
   </g>
   <g id="text_12">
    <!-- Python version of NumPy users, MacOS and Windows (i.e. no batch jobs) -->
    <g transform="translate(150.75 37.2)scale(0.12 -0.12)">
     <defs>
      <path id="DejaVuSans-50" d="M 1259 4147 
L 1259 2394 
L 2053 2394 
Q 2494 2394 2734 2622 
Q 2975 2850 2975 3272 
Q 2975 3691 2734 3919 
Q 2494 4147 2053 4147 
L 1259 4147 
z
M 628 4666 
L 2053 4666 
Q 2838 4666 3239 4311 
Q 3641 3956 3641 3272 
Q 3641 2581 3239 2228 
Q 2838 1875 2053 1875 
L 1259 1875 
L 1259 0 
L 628 0 
L 628 4666 
z
" transform="scale(0.015625)"/>
      <path id="DejaVuSans-79" d="M 2059 -325 
Q 1816 -950 1584 -1140 
Q 1353 -1331 966 -1331 
L 506 -1331 
L 506 -850 
L 844 -850 
Q 1081 -850 1212 -737 
Q 1344 -625 1503 -206 
L 1606 56 
L 191 3500 
L 800 3500 
L 1894 763 
L 2988 3500 
L 3597 3500 
L 2059 -325 
z
" transform="scale(0.015625)"/>
      <path id="DejaVuSans-76" d="M 191 3500 
L 800 3500 
L 1894 563 
L 2988 3500 
L 3597 3500 
L 2284 0 
L 1503 0 
L 191 3500 
z
" transform="scale(0.015625)"/>
      <path id="DejaVuSans-2c" d="M 750 794 
L 1409 794 
L 1409 256 
L 897 -744 
L 494 -744 
L 750 256 
L 750 794 
z
" transform="scale(0.015625)"/>
      <path id="DejaVuSans-4d" d="M 628 4666 
L 1569 4666 
L 2759 1491 
L 3956 4666 
L 4897 4666 
L 4897 0 
L 4281 0 
L 4281 4097 
L 3078 897 
L 2444 897 
L 1241 4097 
L 1241 0 
L 628 0 
L 628 4666 
z
" transform="scale(0.015625)"/>
      <path id="DejaVuSans-63" d="M 3122 3366 
L 3122 2828 
Q 2878 2963 2633 3030 
Q 2388 3097 2138 3097 
Q 1578 3097 1268 2742 
Q 959 2388 959 1747 
Q 959 1106 1268 751 
Q 1578 397 2138 397 
Q 2388 397 2633 464 
Q 2878 531 3122 666 
L 3122 134 
Q 2881 22 2623 -34 
Q 2366 -91 2075 -91 
Q 1284 -91 818 406 
Q 353 903 353 1747 
Q 353 2603 823 3093 
Q 1294 3584 2113 3584 
Q 2378 3584 2631 3529 
Q 2884 3475 3122 3366 
z
" transform="scale(0.015625)"/>
      <path id="DejaVuSans-4f" d="M 2522 4238 
Q 1834 4238 1429 3725 
Q 1025 3213 1025 2328 
Q 1025 1447 1429 934 
Q 1834 422 2522 422 
Q 3209 422 3611 934 
Q 4013 1447 4013 2328 
Q 4013 3213 3611 3725 
Q 3209 4238 2522 4238 
z
M 2522 4750 
Q 3503 4750 4090 4092 
Q 4678 3434 4678 2328 
Q 4678 1225 4090 567 
Q 3503 -91 2522 -91 
Q 1538 -91 948 565 
Q 359 1222 359 2328 
Q 359 3434 948 4092 
Q 1538 4750 2522 4750 
z
" transform="scale(0.015625)"/>
      <path id="DejaVuSans-53" d="M 3425 4513 
L 3425 3897 
Q 3066 4069 2747 4153 
Q 2428 4238 2131 4238 
Q 1616 4238 1336 4038 
Q 1056 3838 1056 3469 
Q 1056 3159 1242 3001 
Q 1428 2844 1947 2747 
L 2328 2669 
Q 3034 2534 3370 2195 
Q 3706 1856 3706 1288 
Q 3706 609 3251 259 
Q 2797 -91 1919 -91 
Q 1588 -91 1214 -16 
Q 841 59 441 206 
L 441 856 
Q 825 641 1194 531 
Q 1563 422 1919 422 
Q 2459 422 2753 634 
Q 3047 847 3047 1241 
Q 3047 1584 2836 1778 
Q 2625 1972 2144 2069 
L 1759 2144 
Q 1053 2284 737 2584 
Q 422 2884 422 3419 
Q 422 4038 858 4394 
Q 1294 4750 2059 4750 
Q 2388 4750 2728 4690 
Q 3069 4631 3425 4513 
z
" transform="scale(0.015625)"/>
      <path id="DejaVuSans-64" d="M 2906 2969 
L 2906 4863 
L 3481 4863 
L 3481 0 
L 2906 0 
L 2906 525 
Q 2725 213 2448 61 
Q 2172 -91 1784 -91 
Q 1150 -91 751 415 
Q 353 922 353 1747 
Q 353 2572 751 3078 
Q 1150 3584 1784 3584 
Q 2172 3584 2448 3432 
Q 2725 3281 2906 2969 
z
M 947 1747 
Q 947 1113 1208 752 
Q 1469 391 1925 391 
Q 2381 391 2643 752 
Q 2906 1113 2906 1747 
Q 2906 2381 2643 2742 
Q 2381 3103 1925 3103 
Q 1469 3103 1208 2742 
Q 947 2381 947 1747 
z
" transform="scale(0.015625)"/>
      <path id="DejaVuSans-57" d="M 213 4666 
L 850 4666 
L 1831 722 
L 2809 4666 
L 3519 4666 
L 4500 722 
L 5478 4666 
L 6119 4666 
L 4947 0 
L 4153 0 
L 3169 4050 
L 2175 0 
L 1381 0 
L 213 4666 
z
" transform="scale(0.015625)"/>
      <path id="DejaVuSans-77" d="M 269 3500 
L 844 3500 
L 1563 769 
L 2278 3500 
L 2956 3500 
L 3675 769 
L 4391 3500 
L 4966 3500 
L 4050 0 
L 3372 0 
L 2619 2869 
L 1863 0 
L 1184 0 
L 269 3500 
z
" transform="scale(0.015625)"/>
      <path id="DejaVuSans-28" d="M 1984 4856 
Q 1566 4138 1362 3434 
Q 1159 2731 1159 2009 
Q 1159 1288 1364 580 
Q 1569 -128 1984 -844 
L 1484 -844 
Q 1016 -109 783 600 
Q 550 1309 550 2009 
Q 550 2706 781 3412 
Q 1013 4119 1484 4856 
L 1984 4856 
z
" transform="scale(0.015625)"/>
      <path id="DejaVuSans-2e" d="M 684 794 
L 1344 794 
L 1344 0 
L 684 0 
L 684 794 
z
" transform="scale(0.015625)"/>
      <path id="DejaVuSans-6a" d="M 603 3500 
L 1178 3500 
L 1178 -63 
Q 1178 -731 923 -1031 
Q 669 -1331 103 -1331 
L -116 -1331 
L -116 -844 
L 38 -844 
Q 366 -844 484 -692 
Q 603 -541 603 -63 
L 603 3500 
z
M 603 4863 
L 1178 4863 
L 1178 4134 
L 603 4134 
L 603 4863 
z
" transform="scale(0.015625)"/>
      <path id="DejaVuSans-29" d="M 513 4856 
L 1013 4856 
Q 1481 4119 1714 3412 
Q 1947 2706 1947 2009 
Q 1947 1309 1714 600 
Q 1481 -109 1013 -844 
L 513 -844 
Q 928 -128 1133 580 
Q 1338 1288 1338 2009 
Q 1338 2731 1133 3434 
Q 928 4138 513 4856 
z
" transform="scale(0.015625)"/>
     </defs>
     <use xlink:href="#DejaVuSans-50"/>
     <use xlink:href="#DejaVuSans-79" x="60.302734"/>
     <use xlink:href="#DejaVuSans-74" x="119.482422"/>
     <use xlink:href="#DejaVuSans-68" x="158.691406"/>
     <use xlink:href="#DejaVuSans-6f" x="222.070312"/>
     <use xlink:href="#DejaVuSans-6e" x="283.251953"/>
     <use xlink:href="#DejaVuSans-20" x="346.630859"/>
     <use xlink:href="#DejaVuSans-76" x="378.417969"/>
     <use xlink:href="#DejaVuSans-65" x="437.597656"/>
     <use xlink:href="#DejaVuSans-72" x="499.121094"/>
     <use xlink:href="#DejaVuSans-73" x="540.234375"/>
     <use xlink:href="#DejaVuSans-69" x="592.333984"/>
     <use xlink:href="#DejaVuSans-6f" x="620.117188"/>
     <use xlink:href="#DejaVuSans-6e" x="681.298828"/>
     <use xlink:href="#DejaVuSans-20" x="744.677734"/>
     <use xlink:href="#DejaVuSans-6f" x="776.464844"/>
     <use xlink:href="#DejaVuSans-66" x="837.646484"/>
     <use xlink:href="#DejaVuSans-20" x="872.851562"/>
     <use xlink:href="#DejaVuSans-4e" x="904.638672"/>
     <use xlink:href="#DejaVuSans-75" x="979.443359"/>
     <use xlink:href="#DejaVuSans-6d" x="1042.822266"/>
     <use xlink:href="#DejaVuSans-50" x="1140.234375"/>
     <use xlink:href="#DejaVuSans-79" x="1200.537109"/>
     <use xlink:href="#DejaVuSans-20" x="1259.716797"/>
     <use xlink:href="#DejaVuSans-75" x="1291.503906"/>
     <use xlink:href="#DejaVuSans-73" x="1354.882812"/>
     <use xlink:href="#DejaVuSans-65" x="1406.982422"/>
     <use xlink:href="#DejaVuSans-72" x="1468.505859"/>
     <use xlink:href="#DejaVuSans-73" x="1509.619141"/>
     <use xlink:href="#DejaVuSans-2c" x="1561.71875"/>
     <use xlink:href="#DejaVuSans-20" x="1593.505859"/>
     <use xlink:href="#DejaVuSans-4d" x="1625.292969"/>
     <use xlink:href="#DejaVuSans-61" x="1711.572266"/>
     <use xlink:href="#DejaVuSans-63" x="1772.851562"/>
     <use xlink:href="#DejaVuSans-4f" x="1827.832031"/>
     <use xlink:href="#DejaVuSans-53" x="1906.542969"/>
     <use xlink:href="#DejaVuSans-20" x="1970.019531"/>
     <use xlink:href="#DejaVuSans-61" x="2001.806641"/>
     <use xlink:href="#DejaVuSans-6e" x="2063.085938"/>
     <use xlink:href="#DejaVuSans-64" x="2126.464844"/>
     <use xlink:href="#DejaVuSans-20" x="2189.941406"/>
     <use xlink:href="#DejaVuSans-57" x="2221.728516"/>
     <use xlink:href="#DejaVuSans-69" x="2318.355469"/>
     <use xlink:href="#DejaVuSans-6e" x="2346.138672"/>
     <use xlink:href="#DejaVuSans-64" x="2409.517578"/>
     <use xlink:href="#DejaVuSans-6f" x="2472.994141"/>
     <use xlink:href="#DejaVuSans-77" x="2534.175781"/>
     <use xlink:href="#DejaVuSans-73" x="2615.962891"/>
     <use xlink:href="#DejaVuSans-20" x="2668.0625"/>
     <use xlink:href="#DejaVuSans-28" x="2699.849609"/>
     <use xlink:href="#DejaVuSans-69" x="2738.863281"/>
     <use xlink:href="#DejaVuSans-2e" x="2766.646484"/>
     <use xlink:href="#DejaVuSans-65" x="2798.433594"/>
     <use xlink:href="#DejaVuSans-2e" x="2859.957031"/>
     <use xlink:href="#DejaVuSans-20" x="2891.744141"/>
     <use xlink:href="#DejaVuSans-6e" x="2923.53125"/>
     <use xlink:href="#DejaVuSans-6f" x="2986.910156"/>
     <use xlink:href="#DejaVuSans-20" x="3048.091797"/>
     <use xlink:href="#DejaVuSans-62" x="3079.878906"/>
     <use xlink:href="#DejaVuSans-61" x="3143.355469"/>
     <use xlink:href="#DejaVuSans-74" x="3204.634766"/>
     <use xlink:href="#DejaVuSans-63" x="3243.84375"/>
     <use xlink:href="#DejaVuSans-68" x="3298.824219"/>
     <use xlink:href="#DejaVuSans-20" x="3362.203125"/>
     <use xlink:href="#DejaVuSans-6a" x="3393.990234"/>
     <use xlink:href="#DejaVuSans-6f" x="3421.773438"/>
     <use xlink:href="#DejaVuSans-62" x="3482.955078"/>
     <use xlink:href="#DejaVuSans-73" x="3546.431641"/>
     <use xlink:href="#DejaVuSans-29" x="3598.53125"/>
    </g>
   </g>
   <g id="legend_1">
    <g id="patch_7">
     <path d="M 97 139.26875 
L 189.421875 139.26875 
Q 191.421875 139.26875 191.421875 137.26875 
L 191.421875 50.2 
Q 191.421875 48.2 189.421875 48.2 
L 97 48.2 
Q 95 48.2 95 50.2 
L 95 137.26875 
Q 95 139.26875 97 139.26875 
z
" style="fill: #ffffff; opacity: 0.8; stroke: #cccccc; stroke-linejoin: miter"/>
    </g>
    <g id="line2d_32">
     <path d="M 99 56.298437 
L 109 56.298437 
L 119 56.298437 
" style="fill: none; stroke: #1f77b4; stroke-width: 1.5; stroke-linecap: square"/>
    </g>
    <g id="text_13">
     <!-- 3.9 -->
     <g transform="translate(127 59.798437)scale(0.1 -0.1)">
      <use xlink:href="#DejaVuSans-33"/>
      <use xlink:href="#DejaVuSans-2e" x="63.623047"/>
      <use xlink:href="#DejaVuSans-39" x="95.410156"/>
     </g>
    </g>
    <g id="line2d_33">
     <path d="M 99 70.976562 
L 109 70.976562 
L 119 70.976562 
" style="fill: none; stroke-dasharray: 1.5,2.475; stroke-dashoffset: 0; stroke: #ff7f0e; stroke-width: 1.5"/>
    </g>
    <g id="text_14">
     <!-- 3.8 -->
     <g transform="translate(127 74.476562)scale(0.1 -0.1)">
      <defs>
       <path id="DejaVuSans-38" d="M 2034 2216 
Q 1584 2216 1326 1975 
Q 1069 1734 1069 1313 
Q 1069 891 1326 650 
Q 1584 409 2034 409 
Q 2484 409 2743 651 
Q 3003 894 3003 1313 
Q 3003 1734 2745 1975 
Q 2488 2216 2034 2216 
z
M 1403 2484 
Q 997 2584 770 2862 
Q 544 3141 544 3541 
Q 544 4100 942 4425 
Q 1341 4750 2034 4750 
Q 2731 4750 3128 4425 
Q 3525 4100 3525 3541 
Q 3525 3141 3298 2862 
Q 3072 2584 2669 2484 
Q 3125 2378 3379 2068 
Q 3634 1759 3634 1313 
Q 3634 634 3220 271 
Q 2806 -91 2034 -91 
Q 1263 -91 848 271 
Q 434 634 434 1313 
Q 434 1759 690 2068 
Q 947 2378 1403 2484 
z
M 1172 3481 
Q 1172 3119 1398 2916 
Q 1625 2713 2034 2713 
Q 2441 2713 2670 2916 
Q 2900 3119 2900 3481 
Q 2900 3844 2670 4047 
Q 2441 4250 2034 4250 
Q 1625 4250 1398 4047 
Q 1172 3844 1172 3481 
z
" transform="scale(0.015625)"/>
      </defs>
      <use xlink:href="#DejaVuSans-33"/>
      <use xlink:href="#DejaVuSans-2e" x="63.623047"/>
      <use xlink:href="#DejaVuSans-38" x="95.410156"/>
     </g>
    </g>
    <g id="line2d_34">
     <path d="M 99 85.654687 
L 109 85.654687 
L 119 85.654687 
" style="fill: none; stroke-dasharray: 5.55,2.4; stroke-dashoffset: 0; stroke: #2ca02c; stroke-width: 1.5"/>
    </g>
    <g id="text_15">
     <!-- 3.7 -->
     <g transform="translate(127 89.154687)scale(0.1 -0.1)">
      <defs>
       <path id="DejaVuSans-37" d="M 525 4666 
L 3525 4666 
L 3525 4397 
L 1831 0 
L 1172 0 
L 2766 4134 
L 525 4134 
L 525 4666 
z
" transform="scale(0.015625)"/>
      </defs>
      <use xlink:href="#DejaVuSans-33"/>
      <use xlink:href="#DejaVuSans-2e" x="63.623047"/>
      <use xlink:href="#DejaVuSans-37" x="95.410156"/>
     </g>
    </g>
    <g id="line2d_35">
     <path d="M 99 100.332812 
L 109 100.332812 
L 119 100.332812 
" style="fill: none; stroke: #d62728; stroke-width: 1.5; stroke-linecap: square"/>
    </g>
    <g id="text_16">
     <!-- 3.6 -->
     <g transform="translate(127 103.832812)scale(0.1 -0.1)">
      <defs>
       <path id="DejaVuSans-36" d="M 2113 2584 
Q 1688 2584 1439 2293 
Q 1191 2003 1191 1497 
Q 1191 994 1439 701 
Q 1688 409 2113 409 
Q 2538 409 2786 701 
Q 3034 994 3034 1497 
Q 3034 2003 2786 2293 
Q 2538 2584 2113 2584 
z
M 3366 4563 
L 3366 3988 
Q 3128 4100 2886 4159 
Q 2644 4219 2406 4219 
Q 1781 4219 1451 3797 
Q 1122 3375 1075 2522 
Q 1259 2794 1537 2939 
Q 1816 3084 2150 3084 
Q 2853 3084 3261 2657 
Q 3669 2231 3669 1497 
Q 3669 778 3244 343 
Q 2819 -91 2113 -91 
Q 1303 -91 875 529 
Q 447 1150 447 2328 
Q 447 3434 972 4092 
Q 1497 4750 2381 4750 
Q 2619 4750 2861 4703 
Q 3103 4656 3366 4563 
z
" transform="scale(0.015625)"/>
      </defs>
      <use xlink:href="#DejaVuSans-33"/>
      <use xlink:href="#DejaVuSans-2e" x="63.623047"/>
      <use xlink:href="#DejaVuSans-36" x="95.410156"/>
     </g>
    </g>
    <g id="line2d_36">
     <path d="M 99 115.010937 
L 109 115.010937 
L 119 115.010937 
" style="fill: none; stroke-dasharray: 5.55,2.4; stroke-dashoffset: 0; stroke: #9467bd; stroke-width: 1.5"/>
    </g>
    <g id="text_17">
     <!-- 3.3, 3.4, 3.5 -->
     <g transform="translate(127 118.510937)scale(0.1 -0.1)">
      <use xlink:href="#DejaVuSans-33"/>
      <use xlink:href="#DejaVuSans-2e" x="63.623047"/>
      <use xlink:href="#DejaVuSans-33" x="95.410156"/>
      <use xlink:href="#DejaVuSans-2c" x="159.033203"/>
      <use xlink:href="#DejaVuSans-20" x="190.820312"/>
      <use xlink:href="#DejaVuSans-33" x="222.607422"/>
      <use xlink:href="#DejaVuSans-2e" x="286.230469"/>
      <use xlink:href="#DejaVuSans-34" x="318.017578"/>
      <use xlink:href="#DejaVuSans-2c" x="381.640625"/>
      <use xlink:href="#DejaVuSans-20" x="413.427734"/>
      <use xlink:href="#DejaVuSans-33" x="445.214844"/>
      <use xlink:href="#DejaVuSans-2e" x="508.837891"/>
      <use xlink:href="#DejaVuSans-35" x="540.625"/>
     </g>
    </g>
    <g id="line2d_37">
     <path d="M 99 129.689062 
L 109 129.689062 
L 119 129.689062 
" style="fill: none; stroke-dasharray: 9.6,2.4,1.5,2.4; stroke-dashoffset: 0; stroke: #8c564b; stroke-width: 1.5"/>
    </g>
    <g id="text_18">
     <!-- 2.7 -->
     <g transform="translate(127 133.189062)scale(0.1 -0.1)">
      <use xlink:href="#DejaVuSans-32"/>
      <use xlink:href="#DejaVuSans-2e" x="63.623047"/>
      <use xlink:href="#DejaVuSans-37" x="95.410156"/>
     </g>
    </g>
   </g>
  </g>
 </g>
 <defs>
  <clipPath id="p6b70085449">
   <rect x="90" y="43.2" width="558" height="271.8"/>
  </clipPath>
 </defs>
</svg>
