<?xml version="1.0" encoding="utf-8" standalone="no"?>
<!DOCTYPE svg PUBLIC "-//W3C//DTD SVG 1.1//EN"
  "http://www.w3.org/Graphics/SVG/1.1/DTD/svg11.dtd">
<svg xmlns:xlink="http://www.w3.org/1999/xlink" width="720pt" height="360pt" viewBox="0 0 720 360" xmlns="http://www.w3.org/2000/svg" version="1.1">
 <metadata>
  <rdf:RDF xmlns:dc="http://purl.org/dc/elements/1.1/" xmlns:cc="http://creativecommons.org/ns#" xmlns:rdf="http://www.w3.org/1999/02/22-rdf-syntax-ns#">
   <cc:Work>
    <dc:type rdf:resource="http://purl.org/dc/dcmitype/StillImage"/>
    <dc:date>2022-07-17T13:25:48.185457</dc:date>
    <dc:format>image/svg+xml</dc:format>
    <dc:creator>
     <cc:Agent>
      <dc:title>Matplotlib v3.5.2, https://matplotlib.org/</dc:title>
     </cc:Agent>
    </dc:creator>
   </cc:Work>
  </rdf:RDF>
 </metadata>
 <defs>
  <style type="text/css">*{stroke-linejoin: round; stroke-linecap: butt}</style>
 </defs>
 <g id="figure_1">
  <g id="patch_1">
   <path d="M 0 360 
L 720 360 
L 720 0 
L 0 0 
L 0 360 
z
" style="fill: none"/>
  </g>
  <g id="axes_1">
   <g id="patch_2">
    <path d="M 90 315 
L 648 315 
L 648 43.2 
L 90 43.2 
z
" style="fill: #ffffff"/>
   </g>
   <g id="matplotlib.axis_1">
    <g id="xtick_1">
     <g id="line2d_1">
      <defs>
       <path id="mc1cc32758e" d="M 0 0 
L 0 3.5 
" style="stroke: #000000; stroke-width: 0.8"/>
      </defs>
      <g>
       <use xlink:href="#mc1cc32758e" x="90" y="315" style="stroke: #000000; stroke-width: 0.8"/>
      </g>
     </g>
     <g id="text_1">
      <!-- 2017 -->
      <g transform="translate(77.275 329.598437)scale(0.1 -0.1)">
       <defs>
        <path id="DejaVuSans-32" d="M 1228 531 
L 3431 531 
L 3431 0 
L 469 0 
L 469 531 
Q 828 903 1448 1529 
Q 2069 2156 2228 2338 
Q 2531 2678 2651 2914 
Q 2772 3150 2772 3378 
Q 2772 3750 2511 3984 
Q 2250 4219 1831 4219 
Q 1534 4219 1204 4116 
Q 875 4013 500 3803 
L 500 4441 
Q 881 4594 1212 4672 
Q 1544 4750 1819 4750 
Q 2544 4750 2975 4387 
Q 3406 4025 3406 3419 
Q 3406 3131 3298 2873 
Q 3191 2616 2906 2266 
Q 2828 2175 2409 1742 
Q 1991 1309 1228 531 
z
" transform="scale(0.015625)"/>
        <path id="DejaVuSans-30" d="M 2034 4250 
Q 1547 4250 1301 3770 
Q 1056 3291 1056 2328 
Q 1056 1369 1301 889 
Q 1547 409 2034 409 
Q 2525 409 2770 889 
Q 3016 1369 3016 2328 
Q 3016 3291 2770 3770 
Q 2525 4250 2034 4250 
z
M 2034 4750 
Q 2819 4750 3233 4129 
Q 3647 3509 3647 2328 
Q 3647 1150 3233 529 
Q 2819 -91 2034 -91 
Q 1250 -91 836 529 
Q 422 1150 422 2328 
Q 422 3509 836 4129 
Q 1250 4750 2034 4750 
z
" transform="scale(0.015625)"/>
        <path id="DejaVuSans-31" d="M 794 531 
L 1825 531 
L 1825 4091 
L 703 3866 
L 703 4441 
L 1819 4666 
L 2450 4666 
L 2450 531 
L 3481 531 
L 3481 0 
L 794 0 
L 794 531 
z
" transform="scale(0.015625)"/>
        <path id="DejaVuSans-37" d="M 525 4666 
L 3525 4666 
L 3525 4397 
L 1831 0 
L 1172 0 
L 2766 4134 
L 525 4134 
L 525 4666 
z
" transform="scale(0.015625)"/>
       </defs>
       <use xlink:href="#DejaVuSans-32"/>
       <use xlink:href="#DejaVuSans-30" x="63.623047"/>
       <use xlink:href="#DejaVuSans-31" x="127.246094"/>
       <use xlink:href="#DejaVuSans-37" x="190.869141"/>
      </g>
     </g>
    </g>
    <g id="xtick_2">
     <g id="line2d_2">
      <g>
       <use xlink:href="#mc1cc32758e" x="192.863636" y="315" style="stroke: #000000; stroke-width: 0.8"/>
      </g>
     </g>
     <g id="text_2">
      <!-- 2018 -->
      <g transform="translate(180.138636 329.598437)scale(0.1 -0.1)">
       <defs>
        <path id="DejaVuSans-38" d="M 2034 2216 
Q 1584 2216 1326 1975 
Q 1069 1734 1069 1313 
Q 1069 891 1326 650 
Q 1584 409 2034 409 
Q 2484 409 2743 651 
Q 3003 894 3003 1313 
Q 3003 1734 2745 1975 
Q 2488 2216 2034 2216 
z
M 1403 2484 
Q 997 2584 770 2862 
Q 544 3141 544 3541 
Q 544 4100 942 4425 
Q 1341 4750 2034 4750 
Q 2731 4750 3128 4425 
Q 3525 4100 3525 3541 
Q 3525 3141 3298 2862 
Q 3072 2584 2669 2484 
Q 3125 2378 3379 2068 
Q 3634 1759 3634 1313 
Q 3634 634 3220 271 
Q 2806 -91 2034 -91 
Q 1263 -91 848 271 
Q 434 634 434 1313 
Q 434 1759 690 2068 
Q 947 2378 1403 2484 
z
M 1172 3481 
Q 1172 3119 1398 2916 
Q 1625 2713 2034 2713 
Q 2441 2713 2670 2916 
Q 2900 3119 2900 3481 
Q 2900 3844 2670 4047 
Q 2441 4250 2034 4250 
Q 1625 4250 1398 4047 
Q 1172 3844 1172 3481 
z
" transform="scale(0.015625)"/>
       </defs>
       <use xlink:href="#DejaVuSans-32"/>
       <use xlink:href="#DejaVuSans-30" x="63.623047"/>
       <use xlink:href="#DejaVuSans-31" x="127.246094"/>
       <use xlink:href="#DejaVuSans-38" x="190.869141"/>
      </g>
     </g>
    </g>
    <g id="xtick_3">
     <g id="line2d_3">
      <g>
       <use xlink:href="#mc1cc32758e" x="295.727273" y="315" style="stroke: #000000; stroke-width: 0.8"/>
      </g>
     </g>
     <g id="text_3">
      <!-- 2019 -->
      <g transform="translate(283.002273 329.598437)scale(0.1 -0.1)">
       <defs>
        <path id="DejaVuSans-39" d="M 703 97 
L 703 672 
Q 941 559 1184 500 
Q 1428 441 1663 441 
Q 2288 441 2617 861 
Q 2947 1281 2994 2138 
Q 2813 1869 2534 1725 
Q 2256 1581 1919 1581 
Q 1219 1581 811 2004 
Q 403 2428 403 3163 
Q 403 3881 828 4315 
Q 1253 4750 1959 4750 
Q 2769 4750 3195 4129 
Q 3622 3509 3622 2328 
Q 3622 1225 3098 567 
Q 2575 -91 1691 -91 
Q 1453 -91 1209 -44 
Q 966 3 703 97 
z
M 1959 2075 
Q 2384 2075 2632 2365 
Q 2881 2656 2881 3163 
Q 2881 3666 2632 3958 
Q 2384 4250 1959 4250 
Q 1534 4250 1286 3958 
Q 1038 3666 1038 3163 
Q 1038 2656 1286 2365 
Q 1534 2075 1959 2075 
z
" transform="scale(0.015625)"/>
       </defs>
       <use xlink:href="#DejaVuSans-32"/>
       <use xlink:href="#DejaVuSans-30" x="63.623047"/>
       <use xlink:href="#DejaVuSans-31" x="127.246094"/>
       <use xlink:href="#DejaVuSans-39" x="190.869141"/>
      </g>
     </g>
    </g>
    <g id="xtick_4">
     <g id="line2d_4">
      <g>
       <use xlink:href="#mc1cc32758e" x="398.590909" y="315" style="stroke: #000000; stroke-width: 0.8"/>
      </g>
     </g>
     <g id="text_4">
      <!-- 2020 -->
      <g transform="translate(385.865909 329.598437)scale(0.1 -0.1)">
       <use xlink:href="#DejaVuSans-32"/>
       <use xlink:href="#DejaVuSans-30" x="63.623047"/>
       <use xlink:href="#DejaVuSans-32" x="127.246094"/>
       <use xlink:href="#DejaVuSans-30" x="190.869141"/>
      </g>
     </g>
    </g>
    <g id="xtick_5">
     <g id="line2d_5">
      <g>
       <use xlink:href="#mc1cc32758e" x="501.736364" y="315" style="stroke: #000000; stroke-width: 0.8"/>
      </g>
     </g>
     <g id="text_5">
      <!-- 2021 -->
      <g transform="translate(489.011364 329.598437)scale(0.1 -0.1)">
       <use xlink:href="#DejaVuSans-32"/>
       <use xlink:href="#DejaVuSans-30" x="63.623047"/>
       <use xlink:href="#DejaVuSans-32" x="127.246094"/>
       <use xlink:href="#DejaVuSans-31" x="190.869141"/>
      </g>
     </g>
    </g>
    <g id="xtick_6">
     <g id="line2d_6">
      <g>
       <use xlink:href="#mc1cc32758e" x="604.6" y="315" style="stroke: #000000; stroke-width: 0.8"/>
      </g>
     </g>
     <g id="text_6">
      <!-- 2022 -->
      <g transform="translate(591.875 329.598437)scale(0.1 -0.1)">
       <use xlink:href="#DejaVuSans-32"/>
       <use xlink:href="#DejaVuSans-30" x="63.623047"/>
       <use xlink:href="#DejaVuSans-32" x="127.246094"/>
       <use xlink:href="#DejaVuSans-32" x="190.869141"/>
      </g>
     </g>
    </g>
    <g id="xtick_7">
     <g id="line2d_7">
      <g>
       <use xlink:href="#mc1cc32758e" x="648" y="315" style="stroke: #000000; stroke-width: 0.8"/>
      </g>
     </g>
    </g>
    <g id="xtick_8">
     <g id="line2d_8">
      <defs>
       <path id="m394f5c5bed" d="M 0 0 
L 0 2 
" style="stroke: #000000; stroke-width: 0.6"/>
      </defs>
      <g>
       <use xlink:href="#m394f5c5bed" x="115.363636" y="315" style="stroke: #000000; stroke-width: 0.6"/>
      </g>
     </g>
    </g>
    <g id="xtick_9">
     <g id="line2d_9">
      <g>
       <use xlink:href="#m394f5c5bed" x="141.009091" y="315" style="stroke: #000000; stroke-width: 0.6"/>
      </g>
     </g>
    </g>
    <g id="xtick_10">
     <g id="line2d_10">
      <g>
       <use xlink:href="#m394f5c5bed" x="166.936364" y="315" style="stroke: #000000; stroke-width: 0.6"/>
      </g>
     </g>
    </g>
    <g id="xtick_11">
     <g id="line2d_11">
      <g>
       <use xlink:href="#m394f5c5bed" x="218.227273" y="315" style="stroke: #000000; stroke-width: 0.6"/>
      </g>
     </g>
    </g>
    <g id="xtick_12">
     <g id="line2d_12">
      <g>
       <use xlink:href="#m394f5c5bed" x="243.872727" y="315" style="stroke: #000000; stroke-width: 0.6"/>
      </g>
     </g>
    </g>
    <g id="xtick_13">
     <g id="line2d_13">
      <g>
       <use xlink:href="#m394f5c5bed" x="269.8" y="315" style="stroke: #000000; stroke-width: 0.6"/>
      </g>
     </g>
    </g>
    <g id="xtick_14">
     <g id="line2d_14">
      <g>
       <use xlink:href="#m394f5c5bed" x="321.090909" y="315" style="stroke: #000000; stroke-width: 0.6"/>
      </g>
     </g>
    </g>
    <g id="xtick_15">
     <g id="line2d_15">
      <g>
       <use xlink:href="#m394f5c5bed" x="346.736364" y="315" style="stroke: #000000; stroke-width: 0.6"/>
      </g>
     </g>
    </g>
    <g id="xtick_16">
     <g id="line2d_16">
      <g>
       <use xlink:href="#m394f5c5bed" x="372.663636" y="315" style="stroke: #000000; stroke-width: 0.6"/>
      </g>
     </g>
    </g>
    <g id="xtick_17">
     <g id="line2d_17">
      <g>
       <use xlink:href="#m394f5c5bed" x="424.236364" y="315" style="stroke: #000000; stroke-width: 0.6"/>
      </g>
     </g>
    </g>
    <g id="xtick_18">
     <g id="line2d_18">
      <g>
       <use xlink:href="#m394f5c5bed" x="449.881818" y="315" style="stroke: #000000; stroke-width: 0.6"/>
      </g>
     </g>
    </g>
    <g id="xtick_19">
     <g id="line2d_19">
      <g>
       <use xlink:href="#m394f5c5bed" x="475.809091" y="315" style="stroke: #000000; stroke-width: 0.6"/>
      </g>
     </g>
    </g>
    <g id="xtick_20">
     <g id="line2d_20">
      <g>
       <use xlink:href="#m394f5c5bed" x="527.1" y="315" style="stroke: #000000; stroke-width: 0.6"/>
      </g>
     </g>
    </g>
    <g id="xtick_21">
     <g id="line2d_21">
      <g>
       <use xlink:href="#m394f5c5bed" x="552.745455" y="315" style="stroke: #000000; stroke-width: 0.6"/>
      </g>
     </g>
    </g>
    <g id="xtick_22">
     <g id="line2d_22">
      <g>
       <use xlink:href="#m394f5c5bed" x="578.672727" y="315" style="stroke: #000000; stroke-width: 0.6"/>
      </g>
     </g>
    </g>
    <g id="xtick_23">
     <g id="line2d_23">
      <g>
       <use xlink:href="#m394f5c5bed" x="629.963636" y="315" style="stroke: #000000; stroke-width: 0.6"/>
      </g>
     </g>
    </g>
   </g>
   <g id="matplotlib.axis_2">
    <g id="ytick_1">
     <g id="line2d_24">
      <defs>
       <path id="maf40767f1a" d="M 0 0 
L -3.5 0 
" style="stroke: #000000; stroke-width: 0.8"/>
      </defs>
      <g>
       <use xlink:href="#maf40767f1a" x="90" y="297.221016" style="stroke: #000000; stroke-width: 0.8"/>
      </g>
     </g>
     <g id="text_7">
      <!-- $\mathdefault{10^{1}}$ -->
      <g transform="translate(65.4 301.020234)scale(0.1 -0.1)">
       <use xlink:href="#DejaVuSans-31" transform="translate(0 0.684375)"/>
       <use xlink:href="#DejaVuSans-30" transform="translate(63.623047 0.684375)"/>
       <use xlink:href="#DejaVuSans-31" transform="translate(128.203125 38.965625)scale(0.7)"/>
      </g>
     </g>
    </g>
    <g id="ytick_2">
     <g id="line2d_25">
      <g>
       <use xlink:href="#maf40767f1a" x="90" y="238.160508" style="stroke: #000000; stroke-width: 0.8"/>
      </g>
     </g>
     <g id="text_8">
      <!-- $\mathdefault{10^{2}}$ -->
      <g transform="translate(65.4 241.959727)scale(0.1 -0.1)">
       <use xlink:href="#DejaVuSans-31" transform="translate(0 0.765625)"/>
       <use xlink:href="#DejaVuSans-30" transform="translate(63.623047 0.765625)"/>
       <use xlink:href="#DejaVuSans-32" transform="translate(128.203125 39.046875)scale(0.7)"/>
      </g>
     </g>
    </g>
    <g id="ytick_3">
     <g id="line2d_26">
      <g>
       <use xlink:href="#maf40767f1a" x="90" y="179.1" style="stroke: #000000; stroke-width: 0.8"/>
      </g>
     </g>
     <g id="text_9">
      <!-- $\mathdefault{10^{3}}$ -->
      <g transform="translate(65.4 182.899219)scale(0.1 -0.1)">
       <defs>
        <path id="DejaVuSans-33" d="M 2597 2516 
Q 3050 2419 3304 2112 
Q 3559 1806 3559 1356 
Q 3559 666 3084 287 
Q 2609 -91 1734 -91 
Q 1441 -91 1130 -33 
Q 819 25 488 141 
L 488 750 
Q 750 597 1062 519 
Q 1375 441 1716 441 
Q 2309 441 2620 675 
Q 2931 909 2931 1356 
Q 2931 1769 2642 2001 
Q 2353 2234 1838 2234 
L 1294 2234 
L 1294 2753 
L 1863 2753 
Q 2328 2753 2575 2939 
Q 2822 3125 2822 3475 
Q 2822 3834 2567 4026 
Q 2313 4219 1838 4219 
Q 1578 4219 1281 4162 
Q 984 4106 628 3988 
L 628 4550 
Q 988 4650 1302 4700 
Q 1616 4750 1894 4750 
Q 2613 4750 3031 4423 
Q 3450 4097 3450 3541 
Q 3450 3153 3228 2886 
Q 3006 2619 2597 2516 
z
" transform="scale(0.015625)"/>
       </defs>
       <use xlink:href="#DejaVuSans-31" transform="translate(0 0.765625)"/>
       <use xlink:href="#DejaVuSans-30" transform="translate(63.623047 0.765625)"/>
       <use xlink:href="#DejaVuSans-33" transform="translate(128.203125 39.046875)scale(0.7)"/>
      </g>
     </g>
    </g>
    <g id="ytick_4">
     <g id="line2d_27">
      <g>
       <use xlink:href="#maf40767f1a" x="90" y="120.039492" style="stroke: #000000; stroke-width: 0.8"/>
      </g>
     </g>
     <g id="text_10">
      <!-- $\mathdefault{10^{4}}$ -->
      <g transform="translate(65.4 123.838711)scale(0.1 -0.1)">
       <defs>
        <path id="DejaVuSans-34" d="M 2419 4116 
L 825 1625 
L 2419 1625 
L 2419 4116 
z
M 2253 4666 
L 3047 4666 
L 3047 1625 
L 3713 1625 
L 3713 1100 
L 3047 1100 
L 3047 0 
L 2419 0 
L 2419 1100 
L 313 1100 
L 313 1709 
L 2253 4666 
z
" transform="scale(0.015625)"/>
       </defs>
       <use xlink:href="#DejaVuSans-31" transform="translate(0 0.684375)"/>
       <use xlink:href="#DejaVuSans-30" transform="translate(63.623047 0.684375)"/>
       <use xlink:href="#DejaVuSans-34" transform="translate(128.203125 38.965625)scale(0.7)"/>
      </g>
     </g>
    </g>
    <g id="ytick_5">
     <g id="line2d_28">
      <g>
       <use xlink:href="#maf40767f1a" x="90" y="60.978984" style="stroke: #000000; stroke-width: 0.8"/>
      </g>
     </g>
     <g id="text_11">
      <!-- $\mathdefault{10^{5}}$ -->
      <g transform="translate(65.4 64.778203)scale(0.1 -0.1)">
       <defs>
        <path id="DejaVuSans-35" d="M 691 4666 
L 3169 4666 
L 3169 4134 
L 1269 4134 
L 1269 2991 
Q 1406 3038 1543 3061 
Q 1681 3084 1819 3084 
Q 2600 3084 3056 2656 
Q 3513 2228 3513 1497 
Q 3513 744 3044 326 
Q 2575 -91 1722 -91 
Q 1428 -91 1123 -41 
Q 819 9 494 109 
L 494 744 
Q 775 591 1075 516 
Q 1375 441 1709 441 
Q 2250 441 2565 725 
Q 2881 1009 2881 1497 
Q 2881 1984 2565 2268 
Q 2250 2553 1709 2553 
Q 1456 2553 1204 2497 
Q 953 2441 691 2322 
L 691 4666 
z
" transform="scale(0.015625)"/>
       </defs>
       <use xlink:href="#DejaVuSans-31" transform="translate(0 0.684375)"/>
       <use xlink:href="#DejaVuSans-30" transform="translate(63.623047 0.684375)"/>
       <use xlink:href="#DejaVuSans-35" transform="translate(128.203125 38.965625)scale(0.7)"/>
      </g>
     </g>
    </g>
    <g id="ytick_6">
     <g id="line2d_29">
      <defs>
       <path id="me0aad02ea9" d="M 0 0 
L -2 0 
" style="stroke: #000000; stroke-width: 0.6"/>
      </defs>
      <g>
       <use xlink:href="#me0aad02ea9" x="90" y="315" style="stroke: #000000; stroke-width: 0.6"/>
      </g>
     </g>
    </g>
    <g id="ytick_7">
     <g id="line2d_30">
      <g>
       <use xlink:href="#me0aad02ea9" x="90" y="310.323515" style="stroke: #000000; stroke-width: 0.6"/>
      </g>
     </g>
    </g>
    <g id="ytick_8">
     <g id="line2d_31">
      <g>
       <use xlink:href="#me0aad02ea9" x="90" y="306.369604" style="stroke: #000000; stroke-width: 0.6"/>
      </g>
     </g>
    </g>
    <g id="ytick_9">
     <g id="line2d_32">
      <g>
       <use xlink:href="#me0aad02ea9" x="90" y="302.94457" style="stroke: #000000; stroke-width: 0.6"/>
      </g>
     </g>
    </g>
    <g id="ytick_10">
     <g id="line2d_33">
      <g>
       <use xlink:href="#me0aad02ea9" x="90" y="299.923476" style="stroke: #000000; stroke-width: 0.6"/>
      </g>
     </g>
    </g>
    <g id="ytick_11">
     <g id="line2d_34">
      <g>
       <use xlink:href="#me0aad02ea9" x="90" y="279.442031" style="stroke: #000000; stroke-width: 0.6"/>
      </g>
     </g>
    </g>
    <g id="ytick_12">
     <g id="line2d_35">
      <g>
       <use xlink:href="#me0aad02ea9" x="90" y="269.041992" style="stroke: #000000; stroke-width: 0.6"/>
      </g>
     </g>
    </g>
    <g id="ytick_13">
     <g id="line2d_36">
      <g>
       <use xlink:href="#me0aad02ea9" x="90" y="261.663047" style="stroke: #000000; stroke-width: 0.6"/>
      </g>
     </g>
    </g>
    <g id="ytick_14">
     <g id="line2d_37">
      <g>
       <use xlink:href="#me0aad02ea9" x="90" y="255.939492" style="stroke: #000000; stroke-width: 0.6"/>
      </g>
     </g>
    </g>
    <g id="ytick_15">
     <g id="line2d_38">
      <g>
       <use xlink:href="#me0aad02ea9" x="90" y="251.263008" style="stroke: #000000; stroke-width: 0.6"/>
      </g>
     </g>
    </g>
    <g id="ytick_16">
     <g id="line2d_39">
      <g>
       <use xlink:href="#me0aad02ea9" x="90" y="247.309096" style="stroke: #000000; stroke-width: 0.6"/>
      </g>
     </g>
    </g>
    <g id="ytick_17">
     <g id="line2d_40">
      <g>
       <use xlink:href="#me0aad02ea9" x="90" y="243.884062" style="stroke: #000000; stroke-width: 0.6"/>
      </g>
     </g>
    </g>
    <g id="ytick_18">
     <g id="line2d_41">
      <g>
       <use xlink:href="#me0aad02ea9" x="90" y="240.862968" style="stroke: #000000; stroke-width: 0.6"/>
      </g>
     </g>
    </g>
    <g id="ytick_19">
     <g id="line2d_42">
      <g>
       <use xlink:href="#me0aad02ea9" x="90" y="220.381523" style="stroke: #000000; stroke-width: 0.6"/>
      </g>
     </g>
    </g>
    <g id="ytick_20">
     <g id="line2d_43">
      <g>
       <use xlink:href="#me0aad02ea9" x="90" y="209.981484" style="stroke: #000000; stroke-width: 0.6"/>
      </g>
     </g>
    </g>
    <g id="ytick_21">
     <g id="line2d_44">
      <g>
       <use xlink:href="#me0aad02ea9" x="90" y="202.602539" style="stroke: #000000; stroke-width: 0.6"/>
      </g>
     </g>
    </g>
    <g id="ytick_22">
     <g id="line2d_45">
      <g>
       <use xlink:href="#me0aad02ea9" x="90" y="196.878984" style="stroke: #000000; stroke-width: 0.6"/>
      </g>
     </g>
    </g>
    <g id="ytick_23">
     <g id="line2d_46">
      <g>
       <use xlink:href="#me0aad02ea9" x="90" y="192.2025" style="stroke: #000000; stroke-width: 0.6"/>
      </g>
     </g>
    </g>
    <g id="ytick_24">
     <g id="line2d_47">
      <g>
       <use xlink:href="#me0aad02ea9" x="90" y="188.248588" style="stroke: #000000; stroke-width: 0.6"/>
      </g>
     </g>
    </g>
    <g id="ytick_25">
     <g id="line2d_48">
      <g>
       <use xlink:href="#me0aad02ea9" x="90" y="184.823555" style="stroke: #000000; stroke-width: 0.6"/>
      </g>
     </g>
    </g>
    <g id="ytick_26">
     <g id="line2d_49">
      <g>
       <use xlink:href="#me0aad02ea9" x="90" y="181.802461" style="stroke: #000000; stroke-width: 0.6"/>
      </g>
     </g>
    </g>
    <g id="ytick_27">
     <g id="line2d_50">
      <g>
       <use xlink:href="#me0aad02ea9" x="90" y="161.321016" style="stroke: #000000; stroke-width: 0.6"/>
      </g>
     </g>
    </g>
    <g id="ytick_28">
     <g id="line2d_51">
      <g>
       <use xlink:href="#me0aad02ea9" x="90" y="150.920976" style="stroke: #000000; stroke-width: 0.6"/>
      </g>
     </g>
    </g>
    <g id="ytick_29">
     <g id="line2d_52">
      <g>
       <use xlink:href="#me0aad02ea9" x="90" y="143.542031" style="stroke: #000000; stroke-width: 0.6"/>
      </g>
     </g>
    </g>
    <g id="ytick_30">
     <g id="line2d_53">
      <g>
       <use xlink:href="#me0aad02ea9" x="90" y="137.818477" style="stroke: #000000; stroke-width: 0.6"/>
      </g>
     </g>
    </g>
    <g id="ytick_31">
     <g id="line2d_54">
      <g>
       <use xlink:href="#me0aad02ea9" x="90" y="133.141992" style="stroke: #000000; stroke-width: 0.6"/>
      </g>
     </g>
    </g>
    <g id="ytick_32">
     <g id="line2d_55">
      <g>
       <use xlink:href="#me0aad02ea9" x="90" y="129.188081" style="stroke: #000000; stroke-width: 0.6"/>
      </g>
     </g>
    </g>
    <g id="ytick_33">
     <g id="line2d_56">
      <g>
       <use xlink:href="#me0aad02ea9" x="90" y="125.763047" style="stroke: #000000; stroke-width: 0.6"/>
      </g>
     </g>
    </g>
    <g id="ytick_34">
     <g id="line2d_57">
      <g>
       <use xlink:href="#me0aad02ea9" x="90" y="122.741953" style="stroke: #000000; stroke-width: 0.6"/>
      </g>
     </g>
    </g>
    <g id="ytick_35">
     <g id="line2d_58">
      <g>
       <use xlink:href="#me0aad02ea9" x="90" y="102.260508" style="stroke: #000000; stroke-width: 0.6"/>
      </g>
     </g>
    </g>
    <g id="ytick_36">
     <g id="line2d_59">
      <g>
       <use xlink:href="#me0aad02ea9" x="90" y="91.860469" style="stroke: #000000; stroke-width: 0.6"/>
      </g>
     </g>
    </g>
    <g id="ytick_37">
     <g id="line2d_60">
      <g>
       <use xlink:href="#me0aad02ea9" x="90" y="84.481523" style="stroke: #000000; stroke-width: 0.6"/>
      </g>
     </g>
    </g>
    <g id="ytick_38">
     <g id="line2d_61">
      <g>
       <use xlink:href="#me0aad02ea9" x="90" y="78.757969" style="stroke: #000000; stroke-width: 0.6"/>
      </g>
     </g>
    </g>
    <g id="ytick_39">
     <g id="line2d_62">
      <g>
       <use xlink:href="#me0aad02ea9" x="90" y="74.081484" style="stroke: #000000; stroke-width: 0.6"/>
      </g>
     </g>
    </g>
    <g id="ytick_40">
     <g id="line2d_63">
      <g>
       <use xlink:href="#me0aad02ea9" x="90" y="70.127573" style="stroke: #000000; stroke-width: 0.6"/>
      </g>
     </g>
    </g>
    <g id="ytick_41">
     <g id="line2d_64">
      <g>
       <use xlink:href="#me0aad02ea9" x="90" y="66.702539" style="stroke: #000000; stroke-width: 0.6"/>
      </g>
     </g>
    </g>
    <g id="ytick_42">
     <g id="line2d_65">
      <g>
       <use xlink:href="#me0aad02ea9" x="90" y="63.681445" style="stroke: #000000; stroke-width: 0.6"/>
      </g>
     </g>
    </g>
    <g id="ytick_43">
     <g id="line2d_66">
      <g>
       <use xlink:href="#me0aad02ea9" x="90" y="43.2" style="stroke: #000000; stroke-width: 0.6"/>
      </g>
     </g>
    </g>
    <g id="text_12">
     <!-- Number of pip-installs per month -->
     <g transform="translate(59.320312 262.00625)rotate(-90)scale(0.1 -0.1)">
      <defs>
       <path id="DejaVuSans-4e" d="M 628 4666 
L 1478 4666 
L 3547 763 
L 3547 4666 
L 4159 4666 
L 4159 0 
L 3309 0 
L 1241 3903 
L 1241 0 
L 628 0 
L 628 4666 
z
" transform="scale(0.015625)"/>
       <path id="DejaVuSans-75" d="M 544 1381 
L 544 3500 
L 1119 3500 
L 1119 1403 
Q 1119 906 1312 657 
Q 1506 409 1894 409 
Q 2359 409 2629 706 
Q 2900 1003 2900 1516 
L 2900 3500 
L 3475 3500 
L 3475 0 
L 2900 0 
L 2900 538 
Q 2691 219 2414 64 
Q 2138 -91 1772 -91 
Q 1169 -91 856 284 
Q 544 659 544 1381 
z
M 1991 3584 
L 1991 3584 
z
" transform="scale(0.015625)"/>
       <path id="DejaVuSans-6d" d="M 3328 2828 
Q 3544 3216 3844 3400 
Q 4144 3584 4550 3584 
Q 5097 3584 5394 3201 
Q 5691 2819 5691 2113 
L 5691 0 
L 5113 0 
L 5113 2094 
Q 5113 2597 4934 2840 
Q 4756 3084 4391 3084 
Q 3944 3084 3684 2787 
Q 3425 2491 3425 1978 
L 3425 0 
L 2847 0 
L 2847 2094 
Q 2847 2600 2669 2842 
Q 2491 3084 2119 3084 
Q 1678 3084 1418 2786 
Q 1159 2488 1159 1978 
L 1159 0 
L 581 0 
L 581 3500 
L 1159 3500 
L 1159 2956 
Q 1356 3278 1631 3431 
Q 1906 3584 2284 3584 
Q 2666 3584 2933 3390 
Q 3200 3197 3328 2828 
z
" transform="scale(0.015625)"/>
       <path id="DejaVuSans-62" d="M 3116 1747 
Q 3116 2381 2855 2742 
Q 2594 3103 2138 3103 
Q 1681 3103 1420 2742 
Q 1159 2381 1159 1747 
Q 1159 1113 1420 752 
Q 1681 391 2138 391 
Q 2594 391 2855 752 
Q 3116 1113 3116 1747 
z
M 1159 2969 
Q 1341 3281 1617 3432 
Q 1894 3584 2278 3584 
Q 2916 3584 3314 3078 
Q 3713 2572 3713 1747 
Q 3713 922 3314 415 
Q 2916 -91 2278 -91 
Q 1894 -91 1617 61 
Q 1341 213 1159 525 
L 1159 0 
L 581 0 
L 581 4863 
L 1159 4863 
L 1159 2969 
z
" transform="scale(0.015625)"/>
       <path id="DejaVuSans-65" d="M 3597 1894 
L 3597 1613 
L 953 1613 
Q 991 1019 1311 708 
Q 1631 397 2203 397 
Q 2534 397 2845 478 
Q 3156 559 3463 722 
L 3463 178 
Q 3153 47 2828 -22 
Q 2503 -91 2169 -91 
Q 1331 -91 842 396 
Q 353 884 353 1716 
Q 353 2575 817 3079 
Q 1281 3584 2069 3584 
Q 2775 3584 3186 3129 
Q 3597 2675 3597 1894 
z
M 3022 2063 
Q 3016 2534 2758 2815 
Q 2500 3097 2075 3097 
Q 1594 3097 1305 2825 
Q 1016 2553 972 2059 
L 3022 2063 
z
" transform="scale(0.015625)"/>
       <path id="DejaVuSans-72" d="M 2631 2963 
Q 2534 3019 2420 3045 
Q 2306 3072 2169 3072 
Q 1681 3072 1420 2755 
Q 1159 2438 1159 1844 
L 1159 0 
L 581 0 
L 581 3500 
L 1159 3500 
L 1159 2956 
Q 1341 3275 1631 3429 
Q 1922 3584 2338 3584 
Q 2397 3584 2469 3576 
Q 2541 3569 2628 3553 
L 2631 2963 
z
" transform="scale(0.015625)"/>
       <path id="DejaVuSans-20" transform="scale(0.015625)"/>
       <path id="DejaVuSans-6f" d="M 1959 3097 
Q 1497 3097 1228 2736 
Q 959 2375 959 1747 
Q 959 1119 1226 758 
Q 1494 397 1959 397 
Q 2419 397 2687 759 
Q 2956 1122 2956 1747 
Q 2956 2369 2687 2733 
Q 2419 3097 1959 3097 
z
M 1959 3584 
Q 2709 3584 3137 3096 
Q 3566 2609 3566 1747 
Q 3566 888 3137 398 
Q 2709 -91 1959 -91 
Q 1206 -91 779 398 
Q 353 888 353 1747 
Q 353 2609 779 3096 
Q 1206 3584 1959 3584 
z
" transform="scale(0.015625)"/>
       <path id="DejaVuSans-66" d="M 2375 4863 
L 2375 4384 
L 1825 4384 
Q 1516 4384 1395 4259 
Q 1275 4134 1275 3809 
L 1275 3500 
L 2222 3500 
L 2222 3053 
L 1275 3053 
L 1275 0 
L 697 0 
L 697 3053 
L 147 3053 
L 147 3500 
L 697 3500 
L 697 3744 
Q 697 4328 969 4595 
Q 1241 4863 1831 4863 
L 2375 4863 
z
" transform="scale(0.015625)"/>
       <path id="DejaVuSans-70" d="M 1159 525 
L 1159 -1331 
L 581 -1331 
L 581 3500 
L 1159 3500 
L 1159 2969 
Q 1341 3281 1617 3432 
Q 1894 3584 2278 3584 
Q 2916 3584 3314 3078 
Q 3713 2572 3713 1747 
Q 3713 922 3314 415 
Q 2916 -91 2278 -91 
Q 1894 -91 1617 61 
Q 1341 213 1159 525 
z
M 3116 1747 
Q 3116 2381 2855 2742 
Q 2594 3103 2138 3103 
Q 1681 3103 1420 2742 
Q 1159 2381 1159 1747 
Q 1159 1113 1420 752 
Q 1681 391 2138 391 
Q 2594 391 2855 752 
Q 3116 1113 3116 1747 
z
" transform="scale(0.015625)"/>
       <path id="DejaVuSans-69" d="M 603 3500 
L 1178 3500 
L 1178 0 
L 603 0 
L 603 3500 
z
M 603 4863 
L 1178 4863 
L 1178 4134 
L 603 4134 
L 603 4863 
z
" transform="scale(0.015625)"/>
       <path id="DejaVuSans-2d" d="M 313 2009 
L 1997 2009 
L 1997 1497 
L 313 1497 
L 313 2009 
z
" transform="scale(0.015625)"/>
       <path id="DejaVuSans-6e" d="M 3513 2113 
L 3513 0 
L 2938 0 
L 2938 2094 
Q 2938 2591 2744 2837 
Q 2550 3084 2163 3084 
Q 1697 3084 1428 2787 
Q 1159 2491 1159 1978 
L 1159 0 
L 581 0 
L 581 3500 
L 1159 3500 
L 1159 2956 
Q 1366 3272 1645 3428 
Q 1925 3584 2291 3584 
Q 2894 3584 3203 3211 
Q 3513 2838 3513 2113 
z
" transform="scale(0.015625)"/>
       <path id="DejaVuSans-73" d="M 2834 3397 
L 2834 2853 
Q 2591 2978 2328 3040 
Q 2066 3103 1784 3103 
Q 1356 3103 1142 2972 
Q 928 2841 928 2578 
Q 928 2378 1081 2264 
Q 1234 2150 1697 2047 
L 1894 2003 
Q 2506 1872 2764 1633 
Q 3022 1394 3022 966 
Q 3022 478 2636 193 
Q 2250 -91 1575 -91 
Q 1294 -91 989 -36 
Q 684 19 347 128 
L 347 722 
Q 666 556 975 473 
Q 1284 391 1588 391 
Q 1994 391 2212 530 
Q 2431 669 2431 922 
Q 2431 1156 2273 1281 
Q 2116 1406 1581 1522 
L 1381 1569 
Q 847 1681 609 1914 
Q 372 2147 372 2553 
Q 372 3047 722 3315 
Q 1072 3584 1716 3584 
Q 2034 3584 2315 3537 
Q 2597 3491 2834 3397 
z
" transform="scale(0.015625)"/>
       <path id="DejaVuSans-74" d="M 1172 4494 
L 1172 3500 
L 2356 3500 
L 2356 3053 
L 1172 3053 
L 1172 1153 
Q 1172 725 1289 603 
Q 1406 481 1766 481 
L 2356 481 
L 2356 0 
L 1766 0 
Q 1100 0 847 248 
Q 594 497 594 1153 
L 594 3053 
L 172 3053 
L 172 3500 
L 594 3500 
L 594 4494 
L 1172 4494 
z
" transform="scale(0.015625)"/>
       <path id="DejaVuSans-61" d="M 2194 1759 
Q 1497 1759 1228 1600 
Q 959 1441 959 1056 
Q 959 750 1161 570 
Q 1363 391 1709 391 
Q 2188 391 2477 730 
Q 2766 1069 2766 1631 
L 2766 1759 
L 2194 1759 
z
M 3341 1997 
L 3341 0 
L 2766 0 
L 2766 531 
Q 2569 213 2275 61 
Q 1981 -91 1556 -91 
Q 1019 -91 701 211 
Q 384 513 384 1019 
Q 384 1609 779 1909 
Q 1175 2209 1959 2209 
L 2766 2209 
L 2766 2266 
Q 2766 2663 2505 2880 
Q 2244 3097 1772 3097 
Q 1472 3097 1187 3025 
Q 903 2953 641 2809 
L 641 3341 
Q 956 3463 1253 3523 
Q 1550 3584 1831 3584 
Q 2591 3584 2966 3190 
Q 3341 2797 3341 1997 
z
" transform="scale(0.015625)"/>
       <path id="DejaVuSans-6c" d="M 603 4863 
L 1178 4863 
L 1178 0 
L 603 0 
L 603 4863 
z
" transform="scale(0.015625)"/>
       <path id="DejaVuSans-68" d="M 3513 2113 
L 3513 0 
L 2938 0 
L 2938 2094 
Q 2938 2591 2744 2837 
Q 2550 3084 2163 3084 
Q 1697 3084 1428 2787 
Q 1159 2491 1159 1978 
L 1159 0 
L 581 0 
L 581 4863 
L 1159 4863 
L 1159 2956 
Q 1366 3272 1645 3428 
Q 1925 3584 2291 3584 
Q 2894 3584 3203 3211 
Q 3513 2838 3513 2113 
z
" transform="scale(0.015625)"/>
      </defs>
      <use xlink:href="#DejaVuSans-4e"/>
      <use xlink:href="#DejaVuSans-75" x="74.804688"/>
      <use xlink:href="#DejaVuSans-6d" x="138.183594"/>
      <use xlink:href="#DejaVuSans-62" x="235.595703"/>
      <use xlink:href="#DejaVuSans-65" x="299.072266"/>
      <use xlink:href="#DejaVuSans-72" x="360.595703"/>
      <use xlink:href="#DejaVuSans-20" x="401.708984"/>
      <use xlink:href="#DejaVuSans-6f" x="433.496094"/>
      <use xlink:href="#DejaVuSans-66" x="494.677734"/>
      <use xlink:href="#DejaVuSans-20" x="529.882812"/>
      <use xlink:href="#DejaVuSans-70" x="561.669922"/>
      <use xlink:href="#DejaVuSans-69" x="625.146484"/>
      <use xlink:href="#DejaVuSans-70" x="652.929688"/>
      <use xlink:href="#DejaVuSans-2d" x="716.40625"/>
      <use xlink:href="#DejaVuSans-69" x="752.490234"/>
      <use xlink:href="#DejaVuSans-6e" x="780.273438"/>
      <use xlink:href="#DejaVuSans-73" x="843.652344"/>
      <use xlink:href="#DejaVuSans-74" x="895.751953"/>
      <use xlink:href="#DejaVuSans-61" x="934.960938"/>
      <use xlink:href="#DejaVuSans-6c" x="996.240234"/>
      <use xlink:href="#DejaVuSans-6c" x="1024.023438"/>
      <use xlink:href="#DejaVuSans-73" x="1051.806641"/>
      <use xlink:href="#DejaVuSans-20" x="1103.90625"/>
      <use xlink:href="#DejaVuSans-70" x="1135.693359"/>
      <use xlink:href="#DejaVuSans-65" x="1199.169922"/>
      <use xlink:href="#DejaVuSans-72" x="1260.693359"/>
      <use xlink:href="#DejaVuSans-20" x="1301.806641"/>
      <use xlink:href="#DejaVuSans-6d" x="1333.59375"/>
      <use xlink:href="#DejaVuSans-6f" x="1431.005859"/>
      <use xlink:href="#DejaVuSans-6e" x="1492.1875"/>
      <use xlink:href="#DejaVuSans-74" x="1555.566406"/>
      <use xlink:href="#DejaVuSans-68" x="1594.775391"/>
     </g>
    </g>
   </g>
   <g id="line2d_67">
    <path d="M 160.454543 361 
L 160.454545 360.958008 
L 163.272727 328.1025 
L 166.090909 315 
L 168.909091 307.621055 
L 171.727273 302.94457 
L 174.545455 294.010624 
L 177.363636 291.841757 
L 180.181818 283.863293 
L 183 276.803775 
L 185.818182 273.548046 
L 188.636364 271.429729 
L 191.454545 271.273804 
L 194.272727 270.059392 
L 197.090909 271.586608 
L 199.909091 261.450185 
L 202.727273 244.643304 
L 205.545455 244.920002 
L 208.363636 241.929837 
L 211.181818 240.768145 
L 214 239.74759 
L 216.818182 241.880368 
L 219.636364 238.809901 
L 222.454545 233.306516 
L 225.272727 234.060444 
L 228.090909 228.659531 
L 230.909091 229.046142 
L 233.727273 229.652545 
L 236.545455 239.030071 
L 239.363636 243.61826 
L 242.181818 243.302892 
L 245 255.347876 
L 247.818182 258.171304 
L 250.636364 237.862994 
L 253.454545 230.368106 
L 256.272727 220.189869 
L 259.090909 217.704725 
L 261.909091 215.598387 
L 264.727273 211.342178 
L 267.545455 211.043402 
L 273.181818 207.771056 
L 276 204.556051 
L 278.818182 199.477159 
L 281.636364 190.964624 
L 287.272727 177.686209 
L 290.090909 170.265829 
L 292.909091 170.894491 
L 295.727273 169.534169 
L 298.545455 168.024931 
L 301.363636 165.386675 
L 304.181818 164.094824 
L 307 163.517874 
L 309.818182 157.226418 
L 312.636364 152.715059 
L 315.454545 149.958862 
L 318.272727 149.221538 
L 321.090909 147.667871 
L 323.909091 148.812723 
L 326.727273 151.981409 
L 329.545455 153.895622 
L 332.363636 157.270185 
L 335.181818 160.018723 
L 338 161.815227 
L 340.818182 161.321016 
L 343.636364 157.810625 
L 346.454545 159.44614 
L 349.272727 155.775918 
L 352.090909 154.688656 
L 354.909091 154.014312 
L 357.727273 155.037613 
L 360.545455 152.262144 
L 363.363636 147.072322 
L 366.181818 144.372928 
L 369 137.2963 
L 371.818182 120.767929 
L 374.636364 116.140603 
L 377.454545 114.302261 
L 380.272727 113.170889 
L 383.090909 110.167826 
L 385.909091 110.048822 
L 388.727273 118.415782 
L 391.545455 119.509358 
L 394.363636 120.158612 
L 397.181818 122.864318 
L 400 126.556989 
L 402.818182 123.777645 
L 405.636364 118.386106 
L 408.454545 117.558314 
L 411.272727 117.418213 
L 414.090909 114.758514 
L 416.909091 113.590325 
L 419.727273 114.391287 
L 422.545455 115.782152 
L 425.363636 114.504728 
L 428.181818 111.516193 
L 431 110.012361 
L 433.818182 109.425461 
L 436.636364 111.162945 
L 439.454545 113.061881 
L 442.272727 114.654342 
L 445.090909 116.021171 
L 447.909091 116.396351 
L 450.727273 115.215945 
L 456.363636 110.82315 
L 459.181818 111.506076 
L 462 114.098667 
L 464.818182 115.633033 
L 467.636364 117.398151 
L 470.454545 118.035403 
L 473.272727 117.064038 
L 476.090909 114.842856 
L 478.909091 110.62011 
L 481.727273 107.781272 
L 484.545455 106.61152 
L 487.363636 104.695521 
L 490.181818 104.413626 
L 493 103.15839 
L 495.818182 104.907691 
L 498.636364 107.968303 
L 501.454545 106.614813 
L 504.272727 104.913143 
L 507.090909 104.390854 
L 509.909091 103.731883 
L 512.727273 98.682169 
L 515.545455 97.620386 
L 518.363636 96.696304 
L 521.181818 97.15252 
L 524 96.580423 
L 526.818182 94.664144 
L 529.636364 95.840114 
L 532.454545 93.890213 
L 535.272727 93.884044 
L 538.090909 89.780582 
L 540.909091 90.23716 
L 543.727273 93.295047 
L 549.363636 95.902595 
L 552.181818 97.786275 
L 555 106.693963 
L 557.818182 107.80063 
L 560.636364 107.559566 
L 563.454545 110.123062 
L 566.272727 111.223201 
L 569.090909 113.507345 
L 571.909091 111.342311 
L 574.727273 111.065142 
L 577.545455 109.425461 
L 580.363636 106.493771 
L 583.181818 107.369219 
L 586 106.824637 
L 588.818182 109.126773 
L 591.636364 111.026607 
L 594.454545 113.698935 
L 597.272727 116.790279 
L 600.090909 118.578007 
L 602.909091 119.069693 
L 605.727273 119.01295 
L 608.545455 117.452973 
L 611.363636 111.115507 
L 614.181818 109.546996 
L 617 104.633547 
L 619.818182 104.997666 
L 622.636364 104.878322 
L 625.454545 103.596646 
L 628.272727 106.78024 
L 631.090909 107.784453 
L 633.909091 108.614554 
L 636.727273 105.358586 
L 639.545455 91.299505 
L 642.363636 87.730789 
L 648 86.981959 
L 650.818182 87.855187 
L 653.636364 89.286191 
L 656.454545 101.140696 
L 659.272727 111.871886 
L 659.272727 111.871886 
" clip-path="url(#p89568a2532)" style="fill: none; stroke-dasharray: 1.5,2.475; stroke-dashoffset: 0; stroke: #1f77b4; stroke-width: 1.5"/>
   </g>
   <g id="line2d_68">
    <path d="M 160.454543 361 
L 160.454545 360.958008 
L 163.272727 328.1025 
L 166.090909 315 
L 168.909091 307.621055 
L 171.727273 302.94457 
L 174.545455 294.010624 
L 177.363636 291.841757 
L 183 299.452827 
L 188.636364 309.620741 
L 191.454545 329.568593 
L 194.272727 356.281523 
L 197.090909 332.778984 
L 199.909091 338.502539 
L 211.181818 338.502539 
L 211.182891 361 
M 287.271654 361 
L 287.272727 338.502539 
L 301.363636 338.502539 
L 301.36471 361 
M 309.817109 361 
L 309.818182 338.502539 
L 315.454545 338.502539 
L 318.272727 320.723555 
L 321.090909 320.723555 
L 323.909091 309.620741 
L 326.727273 319.676485 
L 329.545455 312.555327 
L 332.363636 312.555327 
L 335.181818 319.676485 
L 338 319.676485 
L 340.818182 338.502539 
L 343.636364 320.723555 
L 346.454545 331.123594 
L 349.272727 328.1025 
L 352.090909 334.548628 
L 354.909091 314.158952 
L 357.727273 307.621055 
L 360.545455 316.769643 
L 363.363636 307.621055 
L 366.181818 308.93671 
L 369 308.93671 
L 371.818182 324.148588 
L 374.636364 338.502539 
L 377.454545 338.502539 
L 377.455619 361 
M 391.544381 361 
L 391.545455 338.502539 
L 394.363636 320.723555 
L 397.181818 310.323515 
L 405.636364 310.323515 
L 408.454545 320.723555 
L 411.272727 334.548628 
L 412.766254 361 
M 456.34296 361 
L 456.363636 360.958008 
L 459.181818 320.723555 
L 462 316.769643 
L 464.818182 308.270448 
L 467.636364 308.93671 
L 470.454545 296.797045 
L 473.272727 286.537552 
L 476.090909 292.544531 
L 478.909091 288.59062 
L 481.727273 284.899784 
L 484.545455 281.441718 
L 487.363636 282.383095 
L 490.181818 290.822431 
L 493 289.523437 
L 495.818182 294.010624 
L 498.636364 302.415693 
L 501.454545 308.270448 
L 504.272727 315 
L 507.090909 315.869563 
L 509.909091 319.676485 
L 512.727273 321.815194 
L 515.545455 324.148588 
L 518.363636 328.1025 
L 521.181818 352.327612 
L 524 340.734351 
L 526.818182 334.548628 
L 529.636364 338.502539 
L 532.454545 348.902578 
L 535.272727 352.327612 
L 538.090909 352.327612 
L 539.215488 361 
M 566.252051 361 
L 566.272727 360.958008 
L 566.281759 361 
M 607.493809 361 
L 608.545455 336.449471 
L 611.363636 336.449471 
L 614.181818 338.502539 
L 622.636364 338.502539 
L 622.637437 361 
M 654.961019 361 
L 656.454545 334.548628 
L 659.272727 334.548628 
L 659.272727 334.548628 
" clip-path="url(#p89568a2532)" style="fill: none; stroke: #ff7f0e; stroke-width: 1.5; stroke-linecap: square"/>
   </g>
   <g id="line2d_69">
    <path d="M 180.179368 361 
L 180.181818 309.620741 
L 183 290.491463 
L 185.818182 282.623939 
L 188.636364 277.987815 
L 191.454545 274.062772 
L 194.272727 270.964768 
L 197.090909 274.062772 
L 199.909091 262.754686 
L 202.727273 245.312463 
L 205.545455 245.596516 
L 208.363636 242.531029 
L 211.181818 241.342415 
L 214 239.74759 
L 216.818182 241.880368 
L 219.636364 238.809901 
L 222.454545 233.306516 
L 225.272727 234.060444 
L 228.090909 228.659531 
L 230.909091 229.046142 
L 233.727273 229.652545 
L 236.545455 239.030071 
L 239.363636 243.61826 
L 242.181818 243.302892 
L 245 255.347876 
L 247.818182 258.171304 
L 250.636364 237.862994 
L 253.454545 230.368106 
L 256.272727 220.189869 
L 259.090909 217.93685 
L 264.727273 214.032955 
L 267.545455 220.877914 
L 270.363636 227.141018 
L 273.181818 244.206704 
L 276 252.804652 
L 278.818182 263.547454 
L 281.636364 278.808674 
L 284.454545 283.863293 
L 287.272727 265.957644 
L 290.090909 264.484532 
L 292.909091 269.473089 
L 295.727273 271.744453 
L 298.545455 269.911555 
L 301.363636 268.618021 
L 304.181818 288.897805 
L 307 291.841757 
L 309.818182 269.764565 
L 312.636364 268.339218 
L 315.454545 270.964768 
L 318.272727 259.315716 
L 321.090909 258.54713 
L 323.909091 246.350119 
L 326.727273 253.109103 
L 329.545455 247.802374 
L 332.363636 248.368892 
L 335.181818 254.044756 
L 338 255.769062 
L 340.818182 277.587031 
L 343.636364 261.344413 
L 346.454545 269.764565 
L 349.272727 255.264462 
L 352.090909 255.347876 
L 354.909091 249.01339 
L 357.727273 239.838708 
L 360.545455 244.698405 
L 363.363636 240.021921 
L 366.181818 246.350119 
L 369 247.37024 
L 371.818182 252.804652 
L 374.636364 269.911555 
L 377.454545 271.903275 
L 380.272727 293.267104 
L 383.090909 294.776343 
L 385.909091 297.652112 
L 388.727273 299.923476 
L 391.545455 272.385727 
L 394.363636 258.737128 
L 397.181818 251.839429 
L 400 252.206383 
L 402.818182 252.354647 
L 405.636364 252.206383 
L 408.454545 262.094144 
L 411.272727 277.786641 
L 414.090909 321.815194 
L 416.909091 325.400039 
L 419.727273 334.548628 
L 422.545455 345.881484 
L 431 345.881484 
L 433.818182 334.548628 
L 436.636364 331.123594 
L 439.454545 329.568593 
L 442.272727 322.955366 
L 445.090909 321.815194 
L 447.909091 312.555327 
L 450.727273 306.369604 
L 453.545455 306.369604 
L 456.363636 302.94457 
L 459.181818 264.365507 
L 462 261.450185 
L 464.818182 253.185784 
L 467.636364 254.284102 
L 470.454545 241.732531 
L 473.272727 233.662767 
L 476.090909 236.665931 
L 478.909091 230.749521 
L 481.727273 228.837243 
L 484.545455 225.6286 
L 487.363636 222.660013 
L 490.181818 226.891856 
L 493 228.748233 
L 495.818182 233.662767 
L 498.636364 238.075151 
L 501.454545 241.880368 
L 504.272727 259.024791 
L 507.090909 260.513583 
L 509.909091 263.091448 
L 512.727273 266.988924 
L 515.545455 269.911555 
L 518.363636 272.385727 
L 521.181818 283.863293 
L 524 280.757686 
L 526.818182 277.987815 
L 529.636364 281.673843 
L 532.454545 289.523437 
L 538.090909 300.891503 
L 540.909091 324.148588 
L 542.631038 361 
M 546.540419 361 
L 546.545455 360.958008 
L 549.363636 345.881484 
L 552.181818 318.670487 
L 555 302.94457 
L 557.818182 291.497461 
L 560.636364 288.59062 
L 563.454545 286.257225 
L 566.272727 284.899784 
L 569.090909 289.208713 
L 571.909091 297.221016 
L 574.727273 312.555327 
L 577.545455 312.555327 
L 580.363636 322.955366 
L 583.181818 338.502539 
L 586 338.502539 
L 588.818182 340.734351 
L 591.636364 340.734351 
L 594.454545 356.281523 
L 597.272727 340.734351 
L 602.909091 340.734351 
L 605.727273 334.548628 
L 608.545455 280.311594 
L 611.363636 281.211674 
L 614.181818 282.383095 
L 617 282.383095 
L 619.818182 282.867065 
L 622.636364 283.610585 
L 622.640052 361 
M 654.285601 361 
L 656.454545 282.623939 
L 659.272727 282.623939 
L 659.272727 282.623939 
" clip-path="url(#p89568a2532)" style="fill: none; stroke: #2ca02c; stroke-width: 1.5; stroke-linecap: square"/>
   </g>
   <g id="line2d_70">
    <path d="M 259.089836 361 
L 259.090909 338.502539 
L 261.909091 328.1025 
L 264.727273 270.508085 
L 267.545455 240.438998 
L 270.363636 227.252538 
L 273.181818 214.881235 
L 276 208.81159 
L 278.818182 201.689195 
L 281.636364 191.820612 
L 284.454545 184.898475 
L 287.272727 178.571122 
L 290.090909 170.962882 
L 292.909091 171.488063 
L 298.545455 168.546523 
L 301.363636 165.879782 
L 304.181818 164.293261 
L 307 163.690773 
L 309.818182 157.569433 
L 312.636364 153.0179 
L 315.454545 150.205727 
L 318.272727 149.607174 
L 321.090909 148.040867 
L 323.909091 149.441191 
L 326.727273 152.521706 
L 329.545455 154.617784 
L 332.363636 158.078582 
L 335.181818 160.735666 
L 338 162.537863 
L 340.818182 161.624184 
L 343.636364 158.313225 
L 346.454545 159.828455 
L 349.272727 156.343496 
L 352.090909 155.223998 
L 354.909091 154.705165 
L 357.727273 156.065102 
L 360.545455 153.013261 
L 363.363636 147.81642 
L 366.181818 144.901598 
L 369 137.682042 
L 371.818182 120.926751 
L 374.636364 116.208996 
L 377.454545 114.361463 
L 380.272727 113.193793 
L 383.090909 110.187034 
L 385.909091 110.065913 
L 388.727273 118.43746 
L 391.545455 119.580645 
L 394.363636 120.28476 
L 397.181818 123.050168 
L 400 126.768959 
L 402.818182 123.96677 
L 405.636364 118.540076 
L 408.454545 117.659413 
L 411.272727 117.473078 
L 414.090909 114.767214 
L 416.909091 113.59764 
L 419.727273 114.396776 
L 422.545455 115.786135 
L 425.363636 114.508518 
L 428.181818 111.518953 
L 431 110.014963 
L 433.818182 109.433659 
L 436.636364 111.17444 
L 439.454545 113.081429 
L 442.272727 114.692836 
L 445.090909 116.064337 
L 447.909091 116.458365 
L 450.727273 115.303228 
L 456.363636 111.142388 
L 459.181818 112.067886 
L 462 114.925375 
L 464.818182 116.851366 
L 467.636364 118.973141 
L 470.454545 119.965642 
L 473.272727 119.27385 
L 476.090909 116.827592 
L 478.909091 112.378673 
L 481.727273 109.402861 
L 484.545455 108.358163 
L 487.363636 106.595063 
L 490.181818 106.240902 
L 493 106.084612 
L 495.818182 108.789857 
L 498.636364 113.156502 
L 501.454545 112.49978 
L 504.272727 111.032323 
L 507.090909 111.527848 
L 509.909091 110.453943 
L 512.727273 105.18288 
L 518.363636 103.378479 
L 521.181818 104.146755 
L 524 103.545582 
L 526.818182 101.921194 
L 529.636364 103.878762 
L 532.454545 102.291092 
L 535.272727 103.313367 
L 538.090909 101.161575 
L 540.909091 102.447145 
L 543.727273 106.845331 
L 549.363636 108.894842 
L 552.181818 110.512554 
L 555 117.852999 
L 557.818182 118.981754 
L 560.636364 118.284103 
L 563.454545 122.043801 
L 566.272727 123.09925 
L 569.090909 126.739522 
L 571.909091 123.994686 
L 574.727273 122.072938 
L 577.545455 121.249168 
L 580.363636 119.656341 
L 583.181818 122.344159 
L 586 123.174016 
L 588.818182 128.597658 
L 591.636364 137.354171 
L 594.454545 147.121426 
L 597.272727 160.787951 
L 600.090909 165.466948 
L 605.727273 171.031455 
L 608.545455 165.656077 
L 611.363636 149.414303 
L 614.181818 148.116122 
L 617 146.220753 
L 619.818182 146.149669 
L 622.636364 145.215668 
L 625.454545 139.191796 
L 628.272727 145.412639 
L 631.090909 142.816044 
L 633.909091 138.581241 
L 636.727273 133.31428 
L 639.545455 125.457083 
L 642.363636 119.95797 
L 645.181818 118.620847 
L 648 118.07695 
L 650.818182 120.253704 
L 653.636364 122.915914 
L 656.454545 128.547575 
L 659.272727 143.269884 
L 659.272727 143.269884 
" clip-path="url(#p89568a2532)" style="fill: none; stroke: #d62728; stroke-width: 1.5; stroke-linecap: square"/>
   </g>
   <g id="line2d_71">
    <path d="M 433.816836 361 
L 433.818182 332.778984 
L 436.636364 322.955366 
L 439.454545 305.766055 
L 442.272727 287.107568 
L 445.090909 285.705598 
L 447.909091 276.997358 
L 450.727273 266.211603 
L 453.545455 243.460092 
L 456.363636 224.802785 
L 459.181818 213.43911 
L 462 205.675787 
L 464.818182 197.467067 
L 467.636364 192.181134 
L 470.454545 188.741866 
L 473.272727 185.059761 
L 476.090909 185.022037 
L 481.727273 183.94117 
L 484.545455 180.970608 
L 487.363636 176.713688 
L 490.181818 176.73707 
L 493 162.310261 
L 495.818182 156.61071 
L 498.636364 152.477758 
L 501.454545 147.959484 
L 504.272727 145.003222 
L 507.090909 140.957831 
L 509.909091 141.616542 
L 512.727273 137.252774 
L 515.545455 135.681888 
L 518.363636 134.59828 
L 521.181818 133.979881 
L 524 133.511574 
L 526.818182 130.682426 
L 529.636364 129.590625 
L 532.454545 126.655284 
L 535.272727 124.158304 
L 538.090909 116.125185 
L 540.909091 115.148026 
L 543.727273 116.140971 
L 549.363636 119.575186 
L 552.181818 121.876554 
L 555 133.455977 
L 557.818182 134.544041 
L 560.636364 135.168652 
L 563.454545 135.582177 
L 566.272727 136.766482 
L 569.090909 136.886575 
L 571.909091 135.584528 
L 574.727273 138.101322 
L 577.545455 135.001873 
L 580.363636 129.921544 
L 583.181818 128.304516 
L 586 126.124679 
L 588.818182 125.324363 
L 591.636364 122.410187 
L 594.454545 121.833881 
L 597.272727 121.882984 
L 600.090909 123.078066 
L 602.909091 123.163873 
L 605.727273 122.639086 
L 608.545455 121.762002 
L 611.363636 117.690991 
L 614.181818 116.039453 
L 617 110.316045 
L 619.818182 110.788552 
L 625.454545 110.963209 
L 631.090909 115.341998 
L 633.909091 118.166206 
L 636.727273 115.872114 
L 639.545455 99.163527 
L 642.363636 96.324261 
L 645.181818 96.333081 
L 648 96.040425 
L 650.818182 96.380966 
L 653.636364 97.342207 
L 656.454545 111.973133 
L 659.272727 120.855159 
L 659.272727 120.855159 
" clip-path="url(#p89568a2532)" style="fill: none; stroke: #9467bd; stroke-width: 1.5; stroke-linecap: square"/>
   </g>
   <g id="line2d_72">
    <path d="M 494.127273 315 
L 494.127273 43.2 
" clip-path="url(#p89568a2532)" style="fill: none; stroke-dasharray: 1.5,2.475; stroke-dashoffset: 0; stroke: #808080; stroke-width: 1.5"/>
   </g>
   <g id="patch_3">
    <path d="M 90 315 
L 90 43.2 
" style="fill: none; stroke: #000000; stroke-width: 0.8; stroke-linejoin: miter; stroke-linecap: square"/>
   </g>
   <g id="patch_4">
    <path d="M 648 315 
L 648 43.2 
" style="fill: none; stroke: #000000; stroke-width: 0.8; stroke-linejoin: miter; stroke-linecap: square"/>
   </g>
   <g id="patch_5">
    <path d="M 90 315 
L 648 315 
" style="fill: none; stroke: #000000; stroke-width: 0.8; stroke-linejoin: miter; stroke-linecap: square"/>
   </g>
   <g id="patch_6">
    <path d="M 90 43.2 
L 648 43.2 
" style="fill: none; stroke: #000000; stroke-width: 0.8; stroke-linejoin: miter; stroke-linecap: square"/>
   </g>
   <g id="text_13">
    <!-- pip name transition -->
    <g transform="translate(491.862074 304.854336)rotate(-90)scale(0.1 -0.1)">
     <use xlink:href="#DejaVuSans-70"/>
     <use xlink:href="#DejaVuSans-69" x="63.476562"/>
     <use xlink:href="#DejaVuSans-70" x="91.259766"/>
     <use xlink:href="#DejaVuSans-20" x="154.736328"/>
     <use xlink:href="#DejaVuSans-6e" x="186.523438"/>
     <use xlink:href="#DejaVuSans-61" x="249.902344"/>
     <use xlink:href="#DejaVuSans-6d" x="311.181641"/>
     <use xlink:href="#DejaVuSans-65" x="408.59375"/>
     <use xlink:href="#DejaVuSans-20" x="470.117188"/>
     <use xlink:href="#DejaVuSans-74" x="501.904297"/>
     <use xlink:href="#DejaVuSans-72" x="541.113281"/>
     <use xlink:href="#DejaVuSans-61" x="582.226562"/>
     <use xlink:href="#DejaVuSans-6e" x="643.505859"/>
     <use xlink:href="#DejaVuSans-73" x="706.884766"/>
     <use xlink:href="#DejaVuSans-69" x="758.984375"/>
     <use xlink:href="#DejaVuSans-74" x="786.767578"/>
     <use xlink:href="#DejaVuSans-69" x="825.976562"/>
     <use xlink:href="#DejaVuSans-6f" x="853.759766"/>
     <use xlink:href="#DejaVuSans-6e" x="914.941406"/>
    </g>
   </g>
   <g id="text_14">
    <!-- All operating systems -->
    <g transform="translate(303.985313 37.2)scale(0.12 -0.12)">
     <defs>
      <path id="DejaVuSans-41" d="M 2188 4044 
L 1331 1722 
L 3047 1722 
L 2188 4044 
z
M 1831 4666 
L 2547 4666 
L 4325 0 
L 3669 0 
L 3244 1197 
L 1141 1197 
L 716 0 
L 50 0 
L 1831 4666 
z
" transform="scale(0.015625)"/>
      <path id="DejaVuSans-67" d="M 2906 1791 
Q 2906 2416 2648 2759 
Q 2391 3103 1925 3103 
Q 1463 3103 1205 2759 
Q 947 2416 947 1791 
Q 947 1169 1205 825 
Q 1463 481 1925 481 
Q 2391 481 2648 825 
Q 2906 1169 2906 1791 
z
M 3481 434 
Q 3481 -459 3084 -895 
Q 2688 -1331 1869 -1331 
Q 1566 -1331 1297 -1286 
Q 1028 -1241 775 -1147 
L 775 -588 
Q 1028 -725 1275 -790 
Q 1522 -856 1778 -856 
Q 2344 -856 2625 -561 
Q 2906 -266 2906 331 
L 2906 616 
Q 2728 306 2450 153 
Q 2172 0 1784 0 
Q 1141 0 747 490 
Q 353 981 353 1791 
Q 353 2603 747 3093 
Q 1141 3584 1784 3584 
Q 2172 3584 2450 3431 
Q 2728 3278 2906 2969 
L 2906 3500 
L 3481 3500 
L 3481 434 
z
" transform="scale(0.015625)"/>
      <path id="DejaVuSans-79" d="M 2059 -325 
Q 1816 -950 1584 -1140 
Q 1353 -1331 966 -1331 
L 506 -1331 
L 506 -850 
L 844 -850 
Q 1081 -850 1212 -737 
Q 1344 -625 1503 -206 
L 1606 56 
L 191 3500 
L 800 3500 
L 1894 763 
L 2988 3500 
L 3597 3500 
L 2059 -325 
z
" transform="scale(0.015625)"/>
     </defs>
     <use xlink:href="#DejaVuSans-41"/>
     <use xlink:href="#DejaVuSans-6c" x="68.408203"/>
     <use xlink:href="#DejaVuSans-6c" x="96.191406"/>
     <use xlink:href="#DejaVuSans-20" x="123.974609"/>
     <use xlink:href="#DejaVuSans-6f" x="155.761719"/>
     <use xlink:href="#DejaVuSans-70" x="216.943359"/>
     <use xlink:href="#DejaVuSans-65" x="280.419922"/>
     <use xlink:href="#DejaVuSans-72" x="341.943359"/>
     <use xlink:href="#DejaVuSans-61" x="383.056641"/>
     <use xlink:href="#DejaVuSans-74" x="444.335938"/>
     <use xlink:href="#DejaVuSans-69" x="483.544922"/>
     <use xlink:href="#DejaVuSans-6e" x="511.328125"/>
     <use xlink:href="#DejaVuSans-67" x="574.707031"/>
     <use xlink:href="#DejaVuSans-20" x="638.183594"/>
     <use xlink:href="#DejaVuSans-73" x="669.970703"/>
     <use xlink:href="#DejaVuSans-79" x="722.070312"/>
     <use xlink:href="#DejaVuSans-73" x="781.25"/>
     <use xlink:href="#DejaVuSans-74" x="833.349609"/>
     <use xlink:href="#DejaVuSans-65" x="872.558594"/>
     <use xlink:href="#DejaVuSans-6d" x="934.082031"/>
     <use xlink:href="#DejaVuSans-73" x="1031.494141"/>
    </g>
   </g>
   <g id="legend_1">
    <g id="patch_7">
     <path d="M 97 124.590625 
L 230.390625 124.590625 
Q 232.390625 124.590625 232.390625 122.590625 
L 232.390625 50.2 
Q 232.390625 48.2 230.390625 48.2 
L 97 48.2 
Q 95 48.2 95 50.2 
L 95 122.590625 
Q 95 124.590625 97 124.590625 
z
" style="fill: #ffffff; opacity: 0.8; stroke: #cccccc; stroke-linejoin: miter"/>
    </g>
    <g id="line2d_73">
     <path d="M 99 56.298437 
L 109 56.298437 
L 119 56.298437 
" style="fill: none; stroke-dasharray: 1.5,2.475; stroke-dashoffset: 0; stroke: #1f77b4; stroke-width: 1.5"/>
    </g>
    <g id="text_15">
     <!-- Uproot (all versions) -->
     <g transform="translate(127 59.798437)scale(0.1 -0.1)">
      <defs>
       <path id="DejaVuSans-55" d="M 556 4666 
L 1191 4666 
L 1191 1831 
Q 1191 1081 1462 751 
Q 1734 422 2344 422 
Q 2950 422 3222 751 
Q 3494 1081 3494 1831 
L 3494 4666 
L 4128 4666 
L 4128 1753 
Q 4128 841 3676 375 
Q 3225 -91 2344 -91 
Q 1459 -91 1007 375 
Q 556 841 556 1753 
L 556 4666 
z
" transform="scale(0.015625)"/>
       <path id="DejaVuSans-28" d="M 1984 4856 
Q 1566 4138 1362 3434 
Q 1159 2731 1159 2009 
Q 1159 1288 1364 580 
Q 1569 -128 1984 -844 
L 1484 -844 
Q 1016 -109 783 600 
Q 550 1309 550 2009 
Q 550 2706 781 3412 
Q 1013 4119 1484 4856 
L 1984 4856 
z
" transform="scale(0.015625)"/>
       <path id="DejaVuSans-76" d="M 191 3500 
L 800 3500 
L 1894 563 
L 2988 3500 
L 3597 3500 
L 2284 0 
L 1503 0 
L 191 3500 
z
" transform="scale(0.015625)"/>
       <path id="DejaVuSans-29" d="M 513 4856 
L 1013 4856 
Q 1481 4119 1714 3412 
Q 1947 2706 1947 2009 
Q 1947 1309 1714 600 
Q 1481 -109 1013 -844 
L 513 -844 
Q 928 -128 1133 580 
Q 1338 1288 1338 2009 
Q 1338 2731 1133 3434 
Q 928 4138 513 4856 
z
" transform="scale(0.015625)"/>
      </defs>
      <use xlink:href="#DejaVuSans-55"/>
      <use xlink:href="#DejaVuSans-70" x="73.193359"/>
      <use xlink:href="#DejaVuSans-72" x="136.669922"/>
      <use xlink:href="#DejaVuSans-6f" x="175.533203"/>
      <use xlink:href="#DejaVuSans-6f" x="236.714844"/>
      <use xlink:href="#DejaVuSans-74" x="297.896484"/>
      <use xlink:href="#DejaVuSans-20" x="337.105469"/>
      <use xlink:href="#DejaVuSans-28" x="368.892578"/>
      <use xlink:href="#DejaVuSans-61" x="407.90625"/>
      <use xlink:href="#DejaVuSans-6c" x="469.185547"/>
      <use xlink:href="#DejaVuSans-6c" x="496.96875"/>
      <use xlink:href="#DejaVuSans-20" x="524.751953"/>
      <use xlink:href="#DejaVuSans-76" x="556.539062"/>
      <use xlink:href="#DejaVuSans-65" x="615.71875"/>
      <use xlink:href="#DejaVuSans-72" x="677.242188"/>
      <use xlink:href="#DejaVuSans-73" x="718.355469"/>
      <use xlink:href="#DejaVuSans-69" x="770.455078"/>
      <use xlink:href="#DejaVuSans-6f" x="798.238281"/>
      <use xlink:href="#DejaVuSans-6e" x="859.419922"/>
      <use xlink:href="#DejaVuSans-73" x="922.798828"/>
      <use xlink:href="#DejaVuSans-29" x="974.898438"/>
     </g>
    </g>
    <g id="line2d_74">
     <path d="M 99 70.976562 
L 109 70.976562 
L 119 70.976562 
" style="fill: none; stroke: #ff7f0e; stroke-width: 1.5; stroke-linecap: square"/>
    </g>
    <g id="text_16">
     <!-- Uproot 1.x -->
     <g transform="translate(127 74.476562)scale(0.1 -0.1)">
      <defs>
       <path id="DejaVuSans-2e" d="M 684 794 
L 1344 794 
L 1344 0 
L 684 0 
L 684 794 
z
" transform="scale(0.015625)"/>
       <path id="DejaVuSans-78" d="M 3513 3500 
L 2247 1797 
L 3578 0 
L 2900 0 
L 1881 1375 
L 863 0 
L 184 0 
L 1544 1831 
L 300 3500 
L 978 3500 
L 1906 2253 
L 2834 3500 
L 3513 3500 
z
" transform="scale(0.015625)"/>
      </defs>
      <use xlink:href="#DejaVuSans-55"/>
      <use xlink:href="#DejaVuSans-70" x="73.193359"/>
      <use xlink:href="#DejaVuSans-72" x="136.669922"/>
      <use xlink:href="#DejaVuSans-6f" x="175.533203"/>
      <use xlink:href="#DejaVuSans-6f" x="236.714844"/>
      <use xlink:href="#DejaVuSans-74" x="297.896484"/>
      <use xlink:href="#DejaVuSans-20" x="337.105469"/>
      <use xlink:href="#DejaVuSans-31" x="368.892578"/>
      <use xlink:href="#DejaVuSans-2e" x="432.515625"/>
      <use xlink:href="#DejaVuSans-78" x="464.302734"/>
     </g>
    </g>
    <g id="line2d_75">
     <path d="M 99 85.654687 
L 109 85.654687 
L 119 85.654687 
" style="fill: none; stroke: #2ca02c; stroke-width: 1.5; stroke-linecap: square"/>
    </g>
    <g id="text_17">
     <!-- Uproot 2.x -->
     <g transform="translate(127 89.154687)scale(0.1 -0.1)">
      <use xlink:href="#DejaVuSans-55"/>
      <use xlink:href="#DejaVuSans-70" x="73.193359"/>
      <use xlink:href="#DejaVuSans-72" x="136.669922"/>
      <use xlink:href="#DejaVuSans-6f" x="175.533203"/>
      <use xlink:href="#DejaVuSans-6f" x="236.714844"/>
      <use xlink:href="#DejaVuSans-74" x="297.896484"/>
      <use xlink:href="#DejaVuSans-20" x="337.105469"/>
      <use xlink:href="#DejaVuSans-32" x="368.892578"/>
      <use xlink:href="#DejaVuSans-2e" x="432.515625"/>
      <use xlink:href="#DejaVuSans-78" x="464.302734"/>
     </g>
    </g>
    <g id="line2d_76">
     <path d="M 99 100.332812 
L 109 100.332812 
L 119 100.332812 
" style="fill: none; stroke: #d62728; stroke-width: 1.5; stroke-linecap: square"/>
    </g>
    <g id="text_18">
     <!-- Uproot 3.x -->
     <g transform="translate(127 103.832812)scale(0.1 -0.1)">
      <use xlink:href="#DejaVuSans-55"/>
      <use xlink:href="#DejaVuSans-70" x="73.193359"/>
      <use xlink:href="#DejaVuSans-72" x="136.669922"/>
      <use xlink:href="#DejaVuSans-6f" x="175.533203"/>
      <use xlink:href="#DejaVuSans-6f" x="236.714844"/>
      <use xlink:href="#DejaVuSans-74" x="297.896484"/>
      <use xlink:href="#DejaVuSans-20" x="337.105469"/>
      <use xlink:href="#DejaVuSans-33" x="368.892578"/>
      <use xlink:href="#DejaVuSans-2e" x="432.515625"/>
      <use xlink:href="#DejaVuSans-78" x="464.302734"/>
     </g>
    </g>
    <g id="line2d_77">
     <path d="M 99 115.010937 
L 109 115.010937 
L 119 115.010937 
" style="fill: none; stroke: #9467bd; stroke-width: 1.5; stroke-linecap: square"/>
    </g>
    <g id="text_19">
     <!-- Uproot 4.x -->
     <g transform="translate(127 118.510937)scale(0.1 -0.1)">
      <use xlink:href="#DejaVuSans-55"/>
      <use xlink:href="#DejaVuSans-70" x="73.193359"/>
      <use xlink:href="#DejaVuSans-72" x="136.669922"/>
      <use xlink:href="#DejaVuSans-6f" x="175.533203"/>
      <use xlink:href="#DejaVuSans-6f" x="236.714844"/>
      <use xlink:href="#DejaVuSans-74" x="297.896484"/>
      <use xlink:href="#DejaVuSans-20" x="337.105469"/>
      <use xlink:href="#DejaVuSans-34" x="368.892578"/>
      <use xlink:href="#DejaVuSans-2e" x="432.515625"/>
      <use xlink:href="#DejaVuSans-78" x="464.302734"/>
     </g>
    </g>
   </g>
  </g>
 </g>
 <defs>
  <clipPath id="p89568a2532">
   <rect x="90" y="43.2" width="558" height="271.8"/>
  </clipPath>
 </defs>
</svg>
