<?xml version="1.0" encoding="utf-8" standalone="no"?>
<!DOCTYPE svg PUBLIC "-//W3C//DTD SVG 1.1//EN"
  "http://www.w3.org/Graphics/SVG/1.1/DTD/svg11.dtd">
<svg xmlns:xlink="http://www.w3.org/1999/xlink" width="720pt" height="360pt" viewBox="0 0 720 360" xmlns="http://www.w3.org/2000/svg" version="1.1">
 <metadata>
  <rdf:RDF xmlns:dc="http://purl.org/dc/elements/1.1/" xmlns:cc="http://creativecommons.org/ns#" xmlns:rdf="http://www.w3.org/1999/02/22-rdf-syntax-ns#">
   <cc:Work>
    <dc:type rdf:resource="http://purl.org/dc/dcmitype/StillImage"/>
    <dc:date>2022-03-29T17:19:26.448018</dc:date>
    <dc:format>image/svg+xml</dc:format>
    <dc:creator>
     <cc:Agent>
      <dc:title>Matplotlib v3.5.1, https://matplotlib.org/</dc:title>
     </cc:Agent>
    </dc:creator>
   </cc:Work>
  </rdf:RDF>
 </metadata>
 <defs>
  <style type="text/css">*{stroke-linejoin: round; stroke-linecap: butt}</style>
 </defs>
 <g id="figure_1">
  <g id="patch_1">
   <path d="M 0 360 
L 720 360 
L 720 0 
L 0 0 
L 0 360 
z
" style="fill: none"/>
  </g>
  <g id="axes_1">
   <g id="patch_2">
    <path d="M 90 315 
L 648 315 
L 648 43.2 
L 90 43.2 
z
" style="fill: #ffffff"/>
   </g>
   <g id="matplotlib.axis_1">
    <g id="xtick_1">
     <g id="line2d_1">
      <defs>
       <path id="ma5c23cae83" d="M 0 0 
L 0 3.5 
" style="stroke: #000000; stroke-width: 0.8"/>
      </defs>
      <g>
       <use xlink:href="#ma5c23cae83" x="90" y="315" style="stroke: #000000; stroke-width: 0.8"/>
      </g>
     </g>
    </g>
    <g id="xtick_2">
     <g id="line2d_2">
      <g>
       <use xlink:href="#ma5c23cae83" x="214.418919" y="315" style="stroke: #000000; stroke-width: 0.8"/>
      </g>
     </g>
     <g id="text_1">
      <!-- 2019 -->
      <g transform="translate(201.693919 329.598437)scale(0.1 -0.1)">
       <defs>
        <path id="DejaVuSans-32" d="M 1228 531 
L 3431 531 
L 3431 0 
L 469 0 
L 469 531 
Q 828 903 1448 1529 
Q 2069 2156 2228 2338 
Q 2531 2678 2651 2914 
Q 2772 3150 2772 3378 
Q 2772 3750 2511 3984 
Q 2250 4219 1831 4219 
Q 1534 4219 1204 4116 
Q 875 4013 500 3803 
L 500 4441 
Q 881 4594 1212 4672 
Q 1544 4750 1819 4750 
Q 2544 4750 2975 4387 
Q 3406 4025 3406 3419 
Q 3406 3131 3298 2873 
Q 3191 2616 2906 2266 
Q 2828 2175 2409 1742 
Q 1991 1309 1228 531 
z
" transform="scale(0.015625)"/>
        <path id="DejaVuSans-30" d="M 2034 4250 
Q 1547 4250 1301 3770 
Q 1056 3291 1056 2328 
Q 1056 1369 1301 889 
Q 1547 409 2034 409 
Q 2525 409 2770 889 
Q 3016 1369 3016 2328 
Q 3016 3291 2770 3770 
Q 2525 4250 2034 4250 
z
M 2034 4750 
Q 2819 4750 3233 4129 
Q 3647 3509 3647 2328 
Q 3647 1150 3233 529 
Q 2819 -91 2034 -91 
Q 1250 -91 836 529 
Q 422 1150 422 2328 
Q 422 3509 836 4129 
Q 1250 4750 2034 4750 
z
" transform="scale(0.015625)"/>
        <path id="DejaVuSans-31" d="M 794 531 
L 1825 531 
L 1825 4091 
L 703 3866 
L 703 4441 
L 1819 4666 
L 2450 4666 
L 2450 531 
L 3481 531 
L 3481 0 
L 794 0 
L 794 531 
z
" transform="scale(0.015625)"/>
        <path id="DejaVuSans-39" d="M 703 97 
L 703 672 
Q 941 559 1184 500 
Q 1428 441 1663 441 
Q 2288 441 2617 861 
Q 2947 1281 2994 2138 
Q 2813 1869 2534 1725 
Q 2256 1581 1919 1581 
Q 1219 1581 811 2004 
Q 403 2428 403 3163 
Q 403 3881 828 4315 
Q 1253 4750 1959 4750 
Q 2769 4750 3195 4129 
Q 3622 3509 3622 2328 
Q 3622 1225 3098 567 
Q 2575 -91 1691 -91 
Q 1453 -91 1209 -44 
Q 966 3 703 97 
z
M 1959 2075 
Q 2384 2075 2632 2365 
Q 2881 2656 2881 3163 
Q 2881 3666 2632 3958 
Q 2384 4250 1959 4250 
Q 1534 4250 1286 3958 
Q 1038 3666 1038 3163 
Q 1038 2656 1286 2365 
Q 1534 2075 1959 2075 
z
" transform="scale(0.015625)"/>
       </defs>
       <use xlink:href="#DejaVuSans-32"/>
       <use xlink:href="#DejaVuSans-30" x="63.623047"/>
       <use xlink:href="#DejaVuSans-31" x="127.246094"/>
       <use xlink:href="#DejaVuSans-39" x="190.869141"/>
      </g>
     </g>
    </g>
    <g id="xtick_3">
     <g id="line2d_3">
      <g>
       <use xlink:href="#ma5c23cae83" x="352.033784" y="315" style="stroke: #000000; stroke-width: 0.8"/>
      </g>
     </g>
     <g id="text_2">
      <!-- 2020 -->
      <g transform="translate(339.308784 329.598437)scale(0.1 -0.1)">
       <use xlink:href="#DejaVuSans-32"/>
       <use xlink:href="#DejaVuSans-30" x="63.623047"/>
       <use xlink:href="#DejaVuSans-32" x="127.246094"/>
       <use xlink:href="#DejaVuSans-30" x="190.869141"/>
      </g>
     </g>
    </g>
    <g id="xtick_4">
     <g id="line2d_4">
      <g>
       <use xlink:href="#ma5c23cae83" x="490.025676" y="315" style="stroke: #000000; stroke-width: 0.8"/>
      </g>
     </g>
     <g id="text_3">
      <!-- 2021 -->
      <g transform="translate(477.300676 329.598437)scale(0.1 -0.1)">
       <use xlink:href="#DejaVuSans-32"/>
       <use xlink:href="#DejaVuSans-30" x="63.623047"/>
       <use xlink:href="#DejaVuSans-32" x="127.246094"/>
       <use xlink:href="#DejaVuSans-31" x="190.869141"/>
      </g>
     </g>
    </g>
    <g id="xtick_5">
     <g id="line2d_5">
      <g>
       <use xlink:href="#ma5c23cae83" x="627.640541" y="315" style="stroke: #000000; stroke-width: 0.8"/>
      </g>
     </g>
     <g id="text_4">
      <!-- 2022 -->
      <g transform="translate(614.915541 329.598437)scale(0.1 -0.1)">
       <use xlink:href="#DejaVuSans-32"/>
       <use xlink:href="#DejaVuSans-30" x="63.623047"/>
       <use xlink:href="#DejaVuSans-32" x="127.246094"/>
       <use xlink:href="#DejaVuSans-32" x="190.869141"/>
      </g>
     </g>
    </g>
    <g id="xtick_6">
     <g id="line2d_6">
      <g>
       <use xlink:href="#ma5c23cae83" x="648" y="315" style="stroke: #000000; stroke-width: 0.8"/>
      </g>
     </g>
    </g>
    <g id="xtick_7">
     <g id="line2d_7">
      <defs>
       <path id="m10a7154120" d="M 0 0 
L 0 2 
" style="stroke: #000000; stroke-width: 0.6"/>
      </defs>
      <g>
       <use xlink:href="#m10a7154120" x="110.736486" y="315" style="stroke: #000000; stroke-width: 0.6"/>
      </g>
     </g>
    </g>
    <g id="xtick_8">
     <g id="line2d_8">
      <g>
       <use xlink:href="#m10a7154120" x="145.045946" y="315" style="stroke: #000000; stroke-width: 0.6"/>
      </g>
     </g>
    </g>
    <g id="xtick_9">
     <g id="line2d_9">
      <g>
       <use xlink:href="#m10a7154120" x="179.732432" y="315" style="stroke: #000000; stroke-width: 0.6"/>
      </g>
     </g>
    </g>
    <g id="xtick_10">
     <g id="line2d_10">
      <g>
       <use xlink:href="#m10a7154120" x="248.351351" y="315" style="stroke: #000000; stroke-width: 0.6"/>
      </g>
     </g>
    </g>
    <g id="xtick_11">
     <g id="line2d_11">
      <g>
       <use xlink:href="#m10a7154120" x="282.660811" y="315" style="stroke: #000000; stroke-width: 0.6"/>
      </g>
     </g>
    </g>
    <g id="xtick_12">
     <g id="line2d_12">
      <g>
       <use xlink:href="#m10a7154120" x="317.347297" y="315" style="stroke: #000000; stroke-width: 0.6"/>
      </g>
     </g>
    </g>
    <g id="xtick_13">
     <g id="line2d_13">
      <g>
       <use xlink:href="#m10a7154120" x="386.343243" y="315" style="stroke: #000000; stroke-width: 0.6"/>
      </g>
     </g>
    </g>
    <g id="xtick_14">
     <g id="line2d_14">
      <g>
       <use xlink:href="#m10a7154120" x="420.652703" y="315" style="stroke: #000000; stroke-width: 0.6"/>
      </g>
     </g>
    </g>
    <g id="xtick_15">
     <g id="line2d_15">
      <g>
       <use xlink:href="#m10a7154120" x="455.339189" y="315" style="stroke: #000000; stroke-width: 0.6"/>
      </g>
     </g>
    </g>
    <g id="xtick_16">
     <g id="line2d_16">
      <g>
       <use xlink:href="#m10a7154120" x="523.958108" y="315" style="stroke: #000000; stroke-width: 0.6"/>
      </g>
     </g>
    </g>
    <g id="xtick_17">
     <g id="line2d_17">
      <g>
       <use xlink:href="#m10a7154120" x="558.267568" y="315" style="stroke: #000000; stroke-width: 0.6"/>
      </g>
     </g>
    </g>
    <g id="xtick_18">
     <g id="line2d_18">
      <g>
       <use xlink:href="#m10a7154120" x="592.954054" y="315" style="stroke: #000000; stroke-width: 0.6"/>
      </g>
     </g>
    </g>
   </g>
   <g id="matplotlib.axis_2">
    <g id="ytick_1">
     <g id="line2d_19">
      <defs>
       <path id="m6a01f95ae7" d="M 0 0 
L -3.5 0 
" style="stroke: #000000; stroke-width: 0.8"/>
      </defs>
      <g>
       <use xlink:href="#m6a01f95ae7" x="90" y="292.285233" style="stroke: #000000; stroke-width: 0.8"/>
      </g>
     </g>
     <g id="text_5">
      <!-- $\mathdefault{10^{5}}$ -->
      <g transform="translate(65.4 296.084452)scale(0.1 -0.1)">
       <defs>
        <path id="DejaVuSans-35" d="M 691 4666 
L 3169 4666 
L 3169 4134 
L 1269 4134 
L 1269 2991 
Q 1406 3038 1543 3061 
Q 1681 3084 1819 3084 
Q 2600 3084 3056 2656 
Q 3513 2228 3513 1497 
Q 3513 744 3044 326 
Q 2575 -91 1722 -91 
Q 1428 -91 1123 -41 
Q 819 9 494 109 
L 494 744 
Q 775 591 1075 516 
Q 1375 441 1709 441 
Q 2250 441 2565 725 
Q 2881 1009 2881 1497 
Q 2881 1984 2565 2268 
Q 2250 2553 1709 2553 
Q 1456 2553 1204 2497 
Q 953 2441 691 2322 
L 691 4666 
z
" transform="scale(0.015625)"/>
       </defs>
       <use xlink:href="#DejaVuSans-31" transform="translate(0 0.684375)"/>
       <use xlink:href="#DejaVuSans-30" transform="translate(63.623047 0.684375)"/>
       <use xlink:href="#DejaVuSans-35" transform="translate(128.203125 38.965625)scale(0.7)"/>
      </g>
     </g>
    </g>
    <g id="ytick_2">
     <g id="line2d_20">
      <g>
       <use xlink:href="#m6a01f95ae7" x="90" y="216.828411" style="stroke: #000000; stroke-width: 0.8"/>
      </g>
     </g>
     <g id="text_6">
      <!-- $\mathdefault{10^{6}}$ -->
      <g transform="translate(65.4 220.62763)scale(0.1 -0.1)">
       <defs>
        <path id="DejaVuSans-36" d="M 2113 2584 
Q 1688 2584 1439 2293 
Q 1191 2003 1191 1497 
Q 1191 994 1439 701 
Q 1688 409 2113 409 
Q 2538 409 2786 701 
Q 3034 994 3034 1497 
Q 3034 2003 2786 2293 
Q 2538 2584 2113 2584 
z
M 3366 4563 
L 3366 3988 
Q 3128 4100 2886 4159 
Q 2644 4219 2406 4219 
Q 1781 4219 1451 3797 
Q 1122 3375 1075 2522 
Q 1259 2794 1537 2939 
Q 1816 3084 2150 3084 
Q 2853 3084 3261 2657 
Q 3669 2231 3669 1497 
Q 3669 778 3244 343 
Q 2819 -91 2113 -91 
Q 1303 -91 875 529 
Q 447 1150 447 2328 
Q 447 3434 972 4092 
Q 1497 4750 2381 4750 
Q 2619 4750 2861 4703 
Q 3103 4656 3366 4563 
z
" transform="scale(0.015625)"/>
       </defs>
       <use xlink:href="#DejaVuSans-31" transform="translate(0 0.765625)"/>
       <use xlink:href="#DejaVuSans-30" transform="translate(63.623047 0.765625)"/>
       <use xlink:href="#DejaVuSans-36" transform="translate(128.203125 39.046875)scale(0.7)"/>
      </g>
     </g>
    </g>
    <g id="ytick_3">
     <g id="line2d_21">
      <g>
       <use xlink:href="#m6a01f95ae7" x="90" y="141.371589" style="stroke: #000000; stroke-width: 0.8"/>
      </g>
     </g>
     <g id="text_7">
      <!-- $\mathdefault{10^{7}}$ -->
      <g transform="translate(65.4 145.170808)scale(0.1 -0.1)">
       <defs>
        <path id="DejaVuSans-37" d="M 525 4666 
L 3525 4666 
L 3525 4397 
L 1831 0 
L 1172 0 
L 2766 4134 
L 525 4134 
L 525 4666 
z
" transform="scale(0.015625)"/>
       </defs>
       <use xlink:href="#DejaVuSans-31" transform="translate(0 0.684375)"/>
       <use xlink:href="#DejaVuSans-30" transform="translate(63.623047 0.684375)"/>
       <use xlink:href="#DejaVuSans-37" transform="translate(128.203125 38.965625)scale(0.7)"/>
      </g>
     </g>
    </g>
    <g id="ytick_4">
     <g id="line2d_22">
      <g>
       <use xlink:href="#m6a01f95ae7" x="90" y="65.914767" style="stroke: #000000; stroke-width: 0.8"/>
      </g>
     </g>
     <g id="text_8">
      <!-- $\mathdefault{10^{8}}$ -->
      <g transform="translate(65.4 69.713986)scale(0.1 -0.1)">
       <defs>
        <path id="DejaVuSans-38" d="M 2034 2216 
Q 1584 2216 1326 1975 
Q 1069 1734 1069 1313 
Q 1069 891 1326 650 
Q 1584 409 2034 409 
Q 2484 409 2743 651 
Q 3003 894 3003 1313 
Q 3003 1734 2745 1975 
Q 2488 2216 2034 2216 
z
M 1403 2484 
Q 997 2584 770 2862 
Q 544 3141 544 3541 
Q 544 4100 942 4425 
Q 1341 4750 2034 4750 
Q 2731 4750 3128 4425 
Q 3525 4100 3525 3541 
Q 3525 3141 3298 2862 
Q 3072 2584 2669 2484 
Q 3125 2378 3379 2068 
Q 3634 1759 3634 1313 
Q 3634 634 3220 271 
Q 2806 -91 2034 -91 
Q 1263 -91 848 271 
Q 434 634 434 1313 
Q 434 1759 690 2068 
Q 947 2378 1403 2484 
z
M 1172 3481 
Q 1172 3119 1398 2916 
Q 1625 2713 2034 2713 
Q 2441 2713 2670 2916 
Q 2900 3119 2900 3481 
Q 2900 3844 2670 4047 
Q 2441 4250 2034 4250 
Q 1625 4250 1398 4047 
Q 1172 3844 1172 3481 
z
" transform="scale(0.015625)"/>
       </defs>
       <use xlink:href="#DejaVuSans-31" transform="translate(0 0.765625)"/>
       <use xlink:href="#DejaVuSans-30" transform="translate(63.623047 0.765625)"/>
       <use xlink:href="#DejaVuSans-38" transform="translate(128.203125 39.046875)scale(0.7)"/>
      </g>
     </g>
    </g>
    <g id="ytick_5">
     <g id="line2d_23">
      <defs>
       <path id="mef38fca36c" d="M 0 0 
L -2 0 
" style="stroke: #000000; stroke-width: 0.6"/>
      </defs>
      <g>
       <use xlink:href="#mef38fca36c" x="90" y="315" style="stroke: #000000; stroke-width: 0.6"/>
      </g>
     </g>
    </g>
    <g id="ytick_6">
     <g id="line2d_24">
      <g>
       <use xlink:href="#mef38fca36c" x="90" y="309.025235" style="stroke: #000000; stroke-width: 0.6"/>
      </g>
     </g>
    </g>
    <g id="ytick_7">
     <g id="line2d_25">
      <g>
       <use xlink:href="#mef38fca36c" x="90" y="303.973643" style="stroke: #000000; stroke-width: 0.6"/>
      </g>
     </g>
    </g>
    <g id="ytick_8">
     <g id="line2d_26">
      <g>
       <use xlink:href="#mef38fca36c" x="90" y="299.597755" style="stroke: #000000; stroke-width: 0.6"/>
      </g>
     </g>
    </g>
    <g id="ytick_9">
     <g id="line2d_27">
      <g>
       <use xlink:href="#mef38fca36c" x="90" y="295.737948" style="stroke: #000000; stroke-width: 0.6"/>
      </g>
     </g>
    </g>
    <g id="ytick_10">
     <g id="line2d_28">
      <g>
       <use xlink:href="#mef38fca36c" x="90" y="269.570466" style="stroke: #000000; stroke-width: 0.6"/>
      </g>
     </g>
    </g>
    <g id="ytick_11">
     <g id="line2d_29">
      <g>
       <use xlink:href="#mef38fca36c" x="90" y="256.28318" style="stroke: #000000; stroke-width: 0.6"/>
      </g>
     </g>
    </g>
    <g id="ytick_12">
     <g id="line2d_30">
      <g>
       <use xlink:href="#mef38fca36c" x="90" y="246.8557" style="stroke: #000000; stroke-width: 0.6"/>
      </g>
     </g>
    </g>
    <g id="ytick_13">
     <g id="line2d_31">
      <g>
       <use xlink:href="#mef38fca36c" x="90" y="239.543178" style="stroke: #000000; stroke-width: 0.6"/>
      </g>
     </g>
    </g>
    <g id="ytick_14">
     <g id="line2d_32">
      <g>
       <use xlink:href="#mef38fca36c" x="90" y="233.568413" style="stroke: #000000; stroke-width: 0.6"/>
      </g>
     </g>
    </g>
    <g id="ytick_15">
     <g id="line2d_33">
      <g>
       <use xlink:href="#mef38fca36c" x="90" y="228.516821" style="stroke: #000000; stroke-width: 0.6"/>
      </g>
     </g>
    </g>
    <g id="ytick_16">
     <g id="line2d_34">
      <g>
       <use xlink:href="#mef38fca36c" x="90" y="224.140933" style="stroke: #000000; stroke-width: 0.6"/>
      </g>
     </g>
    </g>
    <g id="ytick_17">
     <g id="line2d_35">
      <g>
       <use xlink:href="#mef38fca36c" x="90" y="220.281126" style="stroke: #000000; stroke-width: 0.6"/>
      </g>
     </g>
    </g>
    <g id="ytick_18">
     <g id="line2d_36">
      <g>
       <use xlink:href="#mef38fca36c" x="90" y="194.113644" style="stroke: #000000; stroke-width: 0.6"/>
      </g>
     </g>
    </g>
    <g id="ytick_19">
     <g id="line2d_37">
      <g>
       <use xlink:href="#mef38fca36c" x="90" y="180.826357" style="stroke: #000000; stroke-width: 0.6"/>
      </g>
     </g>
    </g>
    <g id="ytick_20">
     <g id="line2d_38">
      <g>
       <use xlink:href="#mef38fca36c" x="90" y="171.398877" style="stroke: #000000; stroke-width: 0.6"/>
      </g>
     </g>
    </g>
    <g id="ytick_21">
     <g id="line2d_39">
      <g>
       <use xlink:href="#mef38fca36c" x="90" y="164.086356" style="stroke: #000000; stroke-width: 0.6"/>
      </g>
     </g>
    </g>
    <g id="ytick_22">
     <g id="line2d_40">
      <g>
       <use xlink:href="#mef38fca36c" x="90" y="158.111591" style="stroke: #000000; stroke-width: 0.6"/>
      </g>
     </g>
    </g>
    <g id="ytick_23">
     <g id="line2d_41">
      <g>
       <use xlink:href="#mef38fca36c" x="90" y="153.059999" style="stroke: #000000; stroke-width: 0.6"/>
      </g>
     </g>
    </g>
    <g id="ytick_24">
     <g id="line2d_42">
      <g>
       <use xlink:href="#mef38fca36c" x="90" y="148.684111" style="stroke: #000000; stroke-width: 0.6"/>
      </g>
     </g>
    </g>
    <g id="ytick_25">
     <g id="line2d_43">
      <g>
       <use xlink:href="#mef38fca36c" x="90" y="144.824304" style="stroke: #000000; stroke-width: 0.6"/>
      </g>
     </g>
    </g>
    <g id="ytick_26">
     <g id="line2d_44">
      <g>
       <use xlink:href="#mef38fca36c" x="90" y="118.656822" style="stroke: #000000; stroke-width: 0.6"/>
      </g>
     </g>
    </g>
    <g id="ytick_27">
     <g id="line2d_45">
      <g>
       <use xlink:href="#mef38fca36c" x="90" y="105.369535" style="stroke: #000000; stroke-width: 0.6"/>
      </g>
     </g>
    </g>
    <g id="ytick_28">
     <g id="line2d_46">
      <g>
       <use xlink:href="#mef38fca36c" x="90" y="95.942055" style="stroke: #000000; stroke-width: 0.6"/>
      </g>
     </g>
    </g>
    <g id="ytick_29">
     <g id="line2d_47">
      <g>
       <use xlink:href="#mef38fca36c" x="90" y="88.629534" style="stroke: #000000; stroke-width: 0.6"/>
      </g>
     </g>
    </g>
    <g id="ytick_30">
     <g id="line2d_48">
      <g>
       <use xlink:href="#mef38fca36c" x="90" y="82.654768" style="stroke: #000000; stroke-width: 0.6"/>
      </g>
     </g>
    </g>
    <g id="ytick_31">
     <g id="line2d_49">
      <g>
       <use xlink:href="#mef38fca36c" x="90" y="77.603176" style="stroke: #000000; stroke-width: 0.6"/>
      </g>
     </g>
    </g>
    <g id="ytick_32">
     <g id="line2d_50">
      <g>
       <use xlink:href="#mef38fca36c" x="90" y="73.227288" style="stroke: #000000; stroke-width: 0.6"/>
      </g>
     </g>
    </g>
    <g id="ytick_33">
     <g id="line2d_51">
      <g>
       <use xlink:href="#mef38fca36c" x="90" y="69.367482" style="stroke: #000000; stroke-width: 0.6"/>
      </g>
     </g>
    </g>
    <g id="ytick_34">
     <g id="line2d_52">
      <g>
       <use xlink:href="#mef38fca36c" x="90" y="43.2" style="stroke: #000000; stroke-width: 0.6"/>
      </g>
     </g>
    </g>
    <g id="text_9">
     <!-- Number of pip-installs per month -->
     <g transform="translate(59.320312 262.00625)rotate(-90)scale(0.1 -0.1)">
      <defs>
       <path id="DejaVuSans-4e" d="M 628 4666 
L 1478 4666 
L 3547 763 
L 3547 4666 
L 4159 4666 
L 4159 0 
L 3309 0 
L 1241 3903 
L 1241 0 
L 628 0 
L 628 4666 
z
" transform="scale(0.015625)"/>
       <path id="DejaVuSans-75" d="M 544 1381 
L 544 3500 
L 1119 3500 
L 1119 1403 
Q 1119 906 1312 657 
Q 1506 409 1894 409 
Q 2359 409 2629 706 
Q 2900 1003 2900 1516 
L 2900 3500 
L 3475 3500 
L 3475 0 
L 2900 0 
L 2900 538 
Q 2691 219 2414 64 
Q 2138 -91 1772 -91 
Q 1169 -91 856 284 
Q 544 659 544 1381 
z
M 1991 3584 
L 1991 3584 
z
" transform="scale(0.015625)"/>
       <path id="DejaVuSans-6d" d="M 3328 2828 
Q 3544 3216 3844 3400 
Q 4144 3584 4550 3584 
Q 5097 3584 5394 3201 
Q 5691 2819 5691 2113 
L 5691 0 
L 5113 0 
L 5113 2094 
Q 5113 2597 4934 2840 
Q 4756 3084 4391 3084 
Q 3944 3084 3684 2787 
Q 3425 2491 3425 1978 
L 3425 0 
L 2847 0 
L 2847 2094 
Q 2847 2600 2669 2842 
Q 2491 3084 2119 3084 
Q 1678 3084 1418 2786 
Q 1159 2488 1159 1978 
L 1159 0 
L 581 0 
L 581 3500 
L 1159 3500 
L 1159 2956 
Q 1356 3278 1631 3431 
Q 1906 3584 2284 3584 
Q 2666 3584 2933 3390 
Q 3200 3197 3328 2828 
z
" transform="scale(0.015625)"/>
       <path id="DejaVuSans-62" d="M 3116 1747 
Q 3116 2381 2855 2742 
Q 2594 3103 2138 3103 
Q 1681 3103 1420 2742 
Q 1159 2381 1159 1747 
Q 1159 1113 1420 752 
Q 1681 391 2138 391 
Q 2594 391 2855 752 
Q 3116 1113 3116 1747 
z
M 1159 2969 
Q 1341 3281 1617 3432 
Q 1894 3584 2278 3584 
Q 2916 3584 3314 3078 
Q 3713 2572 3713 1747 
Q 3713 922 3314 415 
Q 2916 -91 2278 -91 
Q 1894 -91 1617 61 
Q 1341 213 1159 525 
L 1159 0 
L 581 0 
L 581 4863 
L 1159 4863 
L 1159 2969 
z
" transform="scale(0.015625)"/>
       <path id="DejaVuSans-65" d="M 3597 1894 
L 3597 1613 
L 953 1613 
Q 991 1019 1311 708 
Q 1631 397 2203 397 
Q 2534 397 2845 478 
Q 3156 559 3463 722 
L 3463 178 
Q 3153 47 2828 -22 
Q 2503 -91 2169 -91 
Q 1331 -91 842 396 
Q 353 884 353 1716 
Q 353 2575 817 3079 
Q 1281 3584 2069 3584 
Q 2775 3584 3186 3129 
Q 3597 2675 3597 1894 
z
M 3022 2063 
Q 3016 2534 2758 2815 
Q 2500 3097 2075 3097 
Q 1594 3097 1305 2825 
Q 1016 2553 972 2059 
L 3022 2063 
z
" transform="scale(0.015625)"/>
       <path id="DejaVuSans-72" d="M 2631 2963 
Q 2534 3019 2420 3045 
Q 2306 3072 2169 3072 
Q 1681 3072 1420 2755 
Q 1159 2438 1159 1844 
L 1159 0 
L 581 0 
L 581 3500 
L 1159 3500 
L 1159 2956 
Q 1341 3275 1631 3429 
Q 1922 3584 2338 3584 
Q 2397 3584 2469 3576 
Q 2541 3569 2628 3553 
L 2631 2963 
z
" transform="scale(0.015625)"/>
       <path id="DejaVuSans-20" transform="scale(0.015625)"/>
       <path id="DejaVuSans-6f" d="M 1959 3097 
Q 1497 3097 1228 2736 
Q 959 2375 959 1747 
Q 959 1119 1226 758 
Q 1494 397 1959 397 
Q 2419 397 2687 759 
Q 2956 1122 2956 1747 
Q 2956 2369 2687 2733 
Q 2419 3097 1959 3097 
z
M 1959 3584 
Q 2709 3584 3137 3096 
Q 3566 2609 3566 1747 
Q 3566 888 3137 398 
Q 2709 -91 1959 -91 
Q 1206 -91 779 398 
Q 353 888 353 1747 
Q 353 2609 779 3096 
Q 1206 3584 1959 3584 
z
" transform="scale(0.015625)"/>
       <path id="DejaVuSans-66" d="M 2375 4863 
L 2375 4384 
L 1825 4384 
Q 1516 4384 1395 4259 
Q 1275 4134 1275 3809 
L 1275 3500 
L 2222 3500 
L 2222 3053 
L 1275 3053 
L 1275 0 
L 697 0 
L 697 3053 
L 147 3053 
L 147 3500 
L 697 3500 
L 697 3744 
Q 697 4328 969 4595 
Q 1241 4863 1831 4863 
L 2375 4863 
z
" transform="scale(0.015625)"/>
       <path id="DejaVuSans-70" d="M 1159 525 
L 1159 -1331 
L 581 -1331 
L 581 3500 
L 1159 3500 
L 1159 2969 
Q 1341 3281 1617 3432 
Q 1894 3584 2278 3584 
Q 2916 3584 3314 3078 
Q 3713 2572 3713 1747 
Q 3713 922 3314 415 
Q 2916 -91 2278 -91 
Q 1894 -91 1617 61 
Q 1341 213 1159 525 
z
M 3116 1747 
Q 3116 2381 2855 2742 
Q 2594 3103 2138 3103 
Q 1681 3103 1420 2742 
Q 1159 2381 1159 1747 
Q 1159 1113 1420 752 
Q 1681 391 2138 391 
Q 2594 391 2855 752 
Q 3116 1113 3116 1747 
z
" transform="scale(0.015625)"/>
       <path id="DejaVuSans-69" d="M 603 3500 
L 1178 3500 
L 1178 0 
L 603 0 
L 603 3500 
z
M 603 4863 
L 1178 4863 
L 1178 4134 
L 603 4134 
L 603 4863 
z
" transform="scale(0.015625)"/>
       <path id="DejaVuSans-2d" d="M 313 2009 
L 1997 2009 
L 1997 1497 
L 313 1497 
L 313 2009 
z
" transform="scale(0.015625)"/>
       <path id="DejaVuSans-6e" d="M 3513 2113 
L 3513 0 
L 2938 0 
L 2938 2094 
Q 2938 2591 2744 2837 
Q 2550 3084 2163 3084 
Q 1697 3084 1428 2787 
Q 1159 2491 1159 1978 
L 1159 0 
L 581 0 
L 581 3500 
L 1159 3500 
L 1159 2956 
Q 1366 3272 1645 3428 
Q 1925 3584 2291 3584 
Q 2894 3584 3203 3211 
Q 3513 2838 3513 2113 
z
" transform="scale(0.015625)"/>
       <path id="DejaVuSans-73" d="M 2834 3397 
L 2834 2853 
Q 2591 2978 2328 3040 
Q 2066 3103 1784 3103 
Q 1356 3103 1142 2972 
Q 928 2841 928 2578 
Q 928 2378 1081 2264 
Q 1234 2150 1697 2047 
L 1894 2003 
Q 2506 1872 2764 1633 
Q 3022 1394 3022 966 
Q 3022 478 2636 193 
Q 2250 -91 1575 -91 
Q 1294 -91 989 -36 
Q 684 19 347 128 
L 347 722 
Q 666 556 975 473 
Q 1284 391 1588 391 
Q 1994 391 2212 530 
Q 2431 669 2431 922 
Q 2431 1156 2273 1281 
Q 2116 1406 1581 1522 
L 1381 1569 
Q 847 1681 609 1914 
Q 372 2147 372 2553 
Q 372 3047 722 3315 
Q 1072 3584 1716 3584 
Q 2034 3584 2315 3537 
Q 2597 3491 2834 3397 
z
" transform="scale(0.015625)"/>
       <path id="DejaVuSans-74" d="M 1172 4494 
L 1172 3500 
L 2356 3500 
L 2356 3053 
L 1172 3053 
L 1172 1153 
Q 1172 725 1289 603 
Q 1406 481 1766 481 
L 2356 481 
L 2356 0 
L 1766 0 
Q 1100 0 847 248 
Q 594 497 594 1153 
L 594 3053 
L 172 3053 
L 172 3500 
L 594 3500 
L 594 4494 
L 1172 4494 
z
" transform="scale(0.015625)"/>
       <path id="DejaVuSans-61" d="M 2194 1759 
Q 1497 1759 1228 1600 
Q 959 1441 959 1056 
Q 959 750 1161 570 
Q 1363 391 1709 391 
Q 2188 391 2477 730 
Q 2766 1069 2766 1631 
L 2766 1759 
L 2194 1759 
z
M 3341 1997 
L 3341 0 
L 2766 0 
L 2766 531 
Q 2569 213 2275 61 
Q 1981 -91 1556 -91 
Q 1019 -91 701 211 
Q 384 513 384 1019 
Q 384 1609 779 1909 
Q 1175 2209 1959 2209 
L 2766 2209 
L 2766 2266 
Q 2766 2663 2505 2880 
Q 2244 3097 1772 3097 
Q 1472 3097 1187 3025 
Q 903 2953 641 2809 
L 641 3341 
Q 956 3463 1253 3523 
Q 1550 3584 1831 3584 
Q 2591 3584 2966 3190 
Q 3341 2797 3341 1997 
z
" transform="scale(0.015625)"/>
       <path id="DejaVuSans-6c" d="M 603 4863 
L 1178 4863 
L 1178 0 
L 603 0 
L 603 4863 
z
" transform="scale(0.015625)"/>
       <path id="DejaVuSans-68" d="M 3513 2113 
L 3513 0 
L 2938 0 
L 2938 2094 
Q 2938 2591 2744 2837 
Q 2550 3084 2163 3084 
Q 1697 3084 1428 2787 
Q 1159 2491 1159 1978 
L 1159 0 
L 581 0 
L 581 4863 
L 1159 4863 
L 1159 2956 
Q 1366 3272 1645 3428 
Q 1925 3584 2291 3584 
Q 2894 3584 3203 3211 
Q 3513 2838 3513 2113 
z
" transform="scale(0.015625)"/>
      </defs>
      <use xlink:href="#DejaVuSans-4e"/>
      <use xlink:href="#DejaVuSans-75" x="74.804688"/>
      <use xlink:href="#DejaVuSans-6d" x="138.183594"/>
      <use xlink:href="#DejaVuSans-62" x="235.595703"/>
      <use xlink:href="#DejaVuSans-65" x="299.072266"/>
      <use xlink:href="#DejaVuSans-72" x="360.595703"/>
      <use xlink:href="#DejaVuSans-20" x="401.708984"/>
      <use xlink:href="#DejaVuSans-6f" x="433.496094"/>
      <use xlink:href="#DejaVuSans-66" x="494.677734"/>
      <use xlink:href="#DejaVuSans-20" x="529.882812"/>
      <use xlink:href="#DejaVuSans-70" x="561.669922"/>
      <use xlink:href="#DejaVuSans-69" x="625.146484"/>
      <use xlink:href="#DejaVuSans-70" x="652.929688"/>
      <use xlink:href="#DejaVuSans-2d" x="716.40625"/>
      <use xlink:href="#DejaVuSans-69" x="752.490234"/>
      <use xlink:href="#DejaVuSans-6e" x="780.273438"/>
      <use xlink:href="#DejaVuSans-73" x="843.652344"/>
      <use xlink:href="#DejaVuSans-74" x="895.751953"/>
      <use xlink:href="#DejaVuSans-61" x="934.960938"/>
      <use xlink:href="#DejaVuSans-6c" x="996.240234"/>
      <use xlink:href="#DejaVuSans-6c" x="1024.023438"/>
      <use xlink:href="#DejaVuSans-73" x="1051.806641"/>
      <use xlink:href="#DejaVuSans-20" x="1103.90625"/>
      <use xlink:href="#DejaVuSans-70" x="1135.693359"/>
      <use xlink:href="#DejaVuSans-65" x="1199.169922"/>
      <use xlink:href="#DejaVuSans-72" x="1260.693359"/>
      <use xlink:href="#DejaVuSans-20" x="1301.806641"/>
      <use xlink:href="#DejaVuSans-6d" x="1333.59375"/>
      <use xlink:href="#DejaVuSans-6f" x="1431.005859"/>
      <use xlink:href="#DejaVuSans-6e" x="1492.1875"/>
      <use xlink:href="#DejaVuSans-74" x="1555.566406"/>
      <use xlink:href="#DejaVuSans-68" x="1594.775391"/>
     </g>
    </g>
   </g>
   <g id="line2d_53">
    <path d="M 450.54391 361 
L 451.945946 359.736927 
L 455.716216 286.034721 
L 459.486486 253.563083 
L 463.256757 234.202054 
L 467.027027 225.955781 
L 470.797297 221.878239 
L 474.567568 221.11887 
L 478.337838 218.818816 
L 485.878378 216.955314 
L 489.648649 214.102303 
L 493.418919 210.640187 
L 497.189189 205.72051 
L 500.959459 202.305077 
L 504.72973 199.178194 
L 508.5 196.907352 
L 516.040541 195.244882 
L 519.810811 194.124395 
L 523.581081 191.010578 
L 527.351351 189.688764 
L 531.121622 187.482361 
L 534.891892 188.636614 
L 538.662162 186.407213 
L 542.432432 185.991243 
L 546.202703 183.267422 
L 549.972973 181.510878 
L 553.743243 180.539455 
L 557.513514 179.010521 
L 561.283784 180.144801 
L 565.054054 178.283337 
L 568.824324 178.543156 
L 576.364865 174.80001 
L 580.135135 173.454274 
L 583.905405 171.216616 
L 587.675676 171.613249 
L 591.445946 169.133355 
L 595.216216 169.133653 
L 598.986486 167.111666 
L 602.756757 166.589609 
L 606.527027 165.875092 
L 610.297297 164.731245 
L 614.067568 165.565706 
L 617.837838 163.534778 
L 621.608108 165.103531 
L 625.378378 166.93358 
L 629.148649 166.595396 
L 632.918919 165.033464 
L 636.689189 159.691289 
L 640.459459 157.562725 
L 644.22973 151.993418 
L 648 149.374281 
L 648 149.374281 
" clip-path="url(#pd6bd4d0cc6)" style="fill: none; stroke: #1f77b4; stroke-width: 1.5; stroke-linecap: square"/>
   </g>
   <g id="line2d_54">
    <path d="M 317.717109 361 
L 319.986486 327.731004 
L 323.756757 282.764817 
L 327.527027 260.235242 
L 331.297297 248.885652 
L 335.067568 244.362791 
L 338.837838 241.449143 
L 342.608108 238.887747 
L 346.378378 237.433832 
L 350.148649 238.777883 
L 353.918919 234.31864 
L 357.689189 230.755855 
L 361.459459 225.006761 
L 365.22973 221.786157 
L 369 218.14501 
L 372.77027 207.643707 
L 376.540541 206.238572 
L 380.310811 199.879959 
L 384.081081 201.941748 
L 387.851351 199.219795 
L 391.621622 199.31122 
L 395.391892 197.121044 
L 399.162162 192.601615 
L 402.932432 191.202113 
L 406.702703 188.717356 
L 414.243243 183.018296 
L 418.013514 181.188167 
L 421.783784 183.260621 
L 425.554054 182.000409 
L 433.094595 165.509823 
L 436.864865 160.068578 
L 440.635135 156.193693 
L 444.405405 154.183367 
L 448.175676 151.866833 
L 451.945946 151.173357 
L 455.716216 151.025269 
L 459.486486 150.52928 
L 463.256757 150.879398 
L 467.027027 148.833532 
L 470.797297 147.74799 
L 474.567568 147.955733 
L 478.337838 147.442062 
L 482.108108 148.035213 
L 485.878378 147.922497 
L 489.648649 148.892949 
L 493.418919 149.212075 
L 497.189189 146.037432 
L 504.72973 143.076882 
L 508.5 146.506628 
L 512.27027 148.775512 
L 516.040541 149.3838 
L 519.810811 146.932443 
L 523.581081 146.115013 
L 527.351351 147.467376 
L 531.121622 147.61208 
L 534.891892 147.119575 
L 538.662162 143.706055 
L 542.432432 142.907282 
L 546.202703 141.163311 
L 549.972973 140.298044 
L 553.743243 140.344228 
L 557.513514 139.895472 
L 561.283784 142.490366 
L 565.054054 142.7867 
L 568.824324 145.171755 
L 572.594595 143.165354 
L 576.364865 142.214931 
L 580.135135 142.011552 
L 583.905405 141.337316 
L 587.675676 141.886924 
L 591.445946 139.278579 
L 595.216216 139.426064 
L 598.986486 136.814385 
L 602.756757 135.080487 
L 606.527027 134.461079 
L 610.297297 133.621485 
L 614.067568 134.083274 
L 617.837838 131.494455 
L 621.608108 132.561159 
L 625.378378 133.821355 
L 629.148649 131.145493 
L 632.918919 127.683844 
L 636.689189 122.181242 
L 640.459459 123.042447 
L 644.22973 122.126318 
L 648 123.253831 
L 648 123.253831 
" clip-path="url(#pd6bd4d0cc6)" style="fill: none; stroke-dasharray: 1.5,2.475; stroke-dashoffset: 0; stroke: #ff7f0e; stroke-width: 1.5"/>
   </g>
   <g id="line2d_55">
    <path d="M 142.021891 361 
L 142.783784 352.778997 
L 146.554054 331.087847 
L 150.324324 321.183587 
L 154.094595 288.148416 
L 157.864865 268.500315 
L 161.635135 254.085376 
L 165.405405 249.653583 
L 169.175676 245.738403 
L 172.945946 243.079309 
L 176.716216 239.108716 
L 180.486486 235.912192 
L 184.256757 233.316234 
L 188.027027 229.682837 
L 191.797297 227.32914 
L 195.567568 224.300133 
L 199.337838 224.562148 
L 203.108108 224.33959 
L 206.878378 224.798053 
L 210.648649 228.375604 
L 214.418919 227.899471 
L 218.189189 225.501312 
L 221.959459 217.669484 
L 225.72973 213.918874 
L 229.5 210.792286 
L 233.27027 207.28521 
L 237.040541 204.925042 
L 240.810811 202.25767 
L 244.581081 202.760509 
L 248.351351 200.829997 
L 252.121622 201.320937 
L 255.891892 203.139103 
L 259.662162 199.827035 
L 263.432432 197.49051 
L 267.202703 191.921147 
L 270.972973 192.612021 
L 274.743243 190.454657 
L 278.513514 190.051809 
L 286.054054 187.755531 
L 289.824324 187.221673 
L 293.594595 184.988519 
L 297.364865 185.453825 
L 301.135135 181.979617 
L 304.905405 181.161218 
L 308.675676 177.256217 
L 312.445946 174.702245 
L 316.216216 173.876105 
L 319.986486 172.648673 
L 323.756757 170.444374 
L 327.527027 164.097539 
L 331.297297 161.589263 
L 335.067568 160.860738 
L 338.837838 161.897675 
L 342.608108 162.336819 
L 346.378378 161.979112 
L 350.148649 165.504074 
L 353.918919 161.57378 
L 357.689189 159.77996 
L 361.459459 155.607194 
L 365.22973 155.265696 
L 369 154.069003 
L 372.77027 152.180694 
L 376.540541 152.002202 
L 380.310811 149.813648 
L 384.081081 148.393041 
L 387.851351 145.560866 
L 391.621622 143.785074 
L 395.391892 143.482374 
L 399.162162 142.448966 
L 402.932432 142.780702 
L 406.702703 141.002368 
L 410.472973 139.916095 
L 414.243243 137.620673 
L 418.013514 136.557569 
L 421.783784 136.973725 
L 425.554054 136.274658 
L 429.324324 129.049488 
L 433.094595 120.331613 
L 436.864865 115.016673 
L 440.635135 113.980876 
L 444.405405 114.777139 
L 448.175676 115.403782 
L 451.945946 114.641412 
L 455.716216 112.343155 
L 459.486486 111.142013 
L 463.256757 111.53343 
L 467.027027 113.497855 
L 470.797297 113.464301 
L 474.567568 113.610073 
L 478.337838 112.730816 
L 482.108108 112.934285 
L 485.878378 113.738072 
L 489.648649 115.567216 
L 493.418919 115.756887 
L 497.189189 113.615337 
L 500.959459 112.236183 
L 504.72973 111.608652 
L 508.5 112.013545 
L 512.27027 109.476794 
L 516.040541 107.278779 
L 519.810811 106.192115 
L 523.581081 107.204375 
L 527.351351 108.912597 
L 531.121622 107.281956 
L 534.891892 106.242016 
L 538.662162 104.115457 
L 542.432432 104.003784 
L 549.972973 102.432834 
L 553.743243 102.055654 
L 557.513514 100.860104 
L 561.283784 101.346913 
L 568.824324 99.40447 
L 572.594595 97.144725 
L 576.364865 95.341372 
L 580.135135 95.704199 
L 583.905405 95.107903 
L 587.675676 95.594593 
L 591.445946 93.956933 
L 595.216216 91.477609 
L 598.986486 90.558579 
L 602.756757 90.350535 
L 606.527027 92.869368 
L 610.297297 93.838868 
L 614.067568 95.931654 
L 617.837838 95.345564 
L 625.378378 97.427166 
L 629.148649 97.127996 
L 632.918919 96.597447 
L 636.689189 95.323586 
L 640.459459 97.348218 
L 644.22973 95.283686 
L 648 94.343123 
L 648 94.343123 
" clip-path="url(#pd6bd4d0cc6)" style="fill: none; stroke-dasharray: 5.55,2.4; stroke-dashoffset: 0; stroke: #2ca02c; stroke-width: 1.5"/>
   </g>
   <g id="line2d_56">
    <path d="M 97.540541 240.07421 
L 101.310811 238.822862 
L 105.081081 238.097588 
L 108.851351 238.368051 
L 112.621622 234.664583 
L 116.391892 235.490521 
L 120.162162 234.216034 
L 123.932432 234.961573 
L 127.702703 233.371943 
L 131.472973 232.793718 
L 135.243243 231.72297 
L 139.013514 231.550835 
L 142.783784 230.777316 
L 146.554054 235.538569 
L 150.324324 243.345261 
L 154.094595 225.423648 
L 157.864865 209.416523 
L 161.635135 195.482718 
L 165.405405 193.976541 
L 169.175676 192.169954 
L 172.945946 191.10723 
L 176.716216 189.055176 
L 180.486486 187.900917 
L 184.256757 187.903113 
L 188.027027 184.998467 
L 191.797297 183.77817 
L 195.567568 180.946824 
L 199.337838 180.915527 
L 203.108108 179.019627 
L 206.878378 178.309132 
L 210.648649 180.917553 
L 214.418919 181.842093 
L 218.189189 179.735649 
L 221.959459 172.627172 
L 225.72973 168.188968 
L 229.5 164.050092 
L 233.27027 160.211463 
L 237.040541 158.869883 
L 240.810811 159.888557 
L 244.581081 163.631817 
L 248.351351 163.822465 
L 252.121622 164.275185 
L 255.891892 166.990328 
L 259.662162 167.012966 
L 263.432432 165.234267 
L 267.202703 159.317824 
L 270.972973 158.677529 
L 274.743243 157.29864 
L 278.513514 157.355181 
L 282.283784 155.629055 
L 289.824324 152.651464 
L 293.594595 149.697978 
L 297.364865 149.457911 
L 301.135135 148.290376 
L 304.905405 150.124919 
L 308.675676 148.229697 
L 312.445946 146.170007 
L 316.216216 145.092962 
L 319.986486 145.158407 
L 323.756757 146.940839 
L 327.527027 146.531153 
L 331.297297 144.298751 
L 335.067568 138.064684 
L 338.837838 132.253968 
L 342.608108 130.084564 
L 346.378378 129.845008 
L 350.148649 130.173725 
L 353.918919 129.490249 
L 357.689189 129.366644 
L 361.459459 129.799844 
L 365.22973 130.786139 
L 369 131.483715 
L 372.77027 130.585614 
L 376.540541 130.645132 
L 380.310811 129.293051 
L 384.081081 130.006135 
L 387.851351 129.037489 
L 391.621622 129.198059 
L 395.391892 129.243727 
L 399.162162 128.106185 
L 402.932432 129.846276 
L 406.702703 131.069464 
L 410.472973 133.516828 
L 414.243243 133.880919 
L 418.013514 132.747013 
L 421.783784 133.067196 
L 425.554054 131.991766 
L 429.324324 131.481631 
L 433.094595 125.896384 
L 436.864865 121.326125 
L 440.635135 117.387369 
L 444.405405 116.7534 
L 451.945946 117.234285 
L 455.716216 121.232565 
L 459.486486 124.184312 
L 463.256757 127.530799 
L 467.027027 125.209288 
L 470.797297 124.961027 
L 474.567568 126.603202 
L 478.337838 127.383162 
L 482.108108 127.985256 
L 485.878378 127.881857 
L 489.648649 129.187467 
L 493.418919 128.336015 
L 497.189189 124.69987 
L 500.959459 122.211758 
L 504.72973 120.874438 
L 508.5 121.725325 
L 512.27027 121.111623 
L 516.040541 120.279751 
L 519.810811 118.304714 
L 523.581081 117.867393 
L 527.351351 118.084755 
L 534.891892 119.085188 
L 538.662162 117.733894 
L 546.202703 117.330085 
L 553.743243 118.122032 
L 557.513514 117.084501 
L 561.283784 117.50053 
L 565.054054 117.628883 
L 568.824324 119.308244 
L 572.594595 120.24548 
L 580.135135 119.222976 
L 583.905405 120.077143 
L 587.675676 121.924642 
L 591.445946 123.500123 
L 595.216216 124.152067 
L 598.986486 124.17676 
L 602.756757 124.396295 
L 606.527027 124.374587 
L 610.297297 124.044283 
L 617.837838 121.560582 
L 621.608108 123.558724 
L 625.378378 126.670619 
L 629.148649 127.550353 
L 632.918919 127.33886 
L 636.689189 125.094865 
L 640.459459 123.821845 
L 644.22973 122.08346 
L 648 122.204941 
L 648 122.204941 
" clip-path="url(#pd6bd4d0cc6)" style="fill: none; stroke: #d62728; stroke-width: 1.5; stroke-linecap: square"/>
   </g>
   <g id="line2d_57">
    <path d="M 97.540541 233.134091 
L 101.310811 232.842081 
L 105.081081 238.920206 
L 108.851351 240.94702 
L 112.621622 237.377465 
L 116.391892 239.13039 
L 120.162162 239.608719 
L 123.932432 242.14013 
L 127.702703 238.694752 
L 131.472973 218.483628 
L 135.243243 213.057336 
L 139.013514 204.327964 
L 142.783784 205.305915 
L 146.554054 205.003509 
L 150.324324 211.913635 
L 154.094595 201.978158 
L 157.864865 190.750819 
L 161.635135 180.640259 
L 165.405405 177.670283 
L 169.175676 175.857855 
L 172.945946 173.412814 
L 176.716216 171.38596 
L 180.486486 167.96127 
L 184.256757 164.945623 
L 188.027027 166.452455 
L 191.797297 170.812541 
L 195.567568 176.105699 
L 203.108108 176.72845 
L 206.878378 177.405662 
L 210.648649 182.38146 
L 214.418919 184.427957 
L 218.189189 187.961756 
L 221.959459 185.922209 
L 225.72973 185.749646 
L 229.5 180.303503 
L 233.27027 172.622537 
L 237.040541 167.659742 
L 240.810811 165.195945 
L 248.351351 171.431574 
L 252.121622 177.423872 
L 255.891892 185.189165 
L 259.662162 185.688707 
L 263.432432 185.307254 
L 267.202703 180.265865 
L 270.972973 181.516388 
L 274.743243 180.192327 
L 278.513514 179.600326 
L 286.054054 177.546974 
L 289.824324 177.045255 
L 293.594595 174.926394 
L 297.364865 175.694978 
L 301.135135 173.893039 
L 304.905405 173.392896 
L 308.675676 171.434822 
L 312.445946 169.943772 
L 316.216216 169.575784 
L 327.527027 165.485115 
L 331.297297 165.688769 
L 335.067568 166.632316 
L 342.608108 166.20179 
L 346.378378 166.374492 
L 350.148649 168.766345 
L 357.689189 169.408448 
L 361.459459 167.563752 
L 365.22973 165.95209 
L 369 165.65632 
L 372.77027 162.651817 
L 376.540541 164.188543 
L 380.310811 160.683437 
L 384.081081 159.855563 
L 387.851351 157.214689 
L 391.621622 158.104993 
L 395.391892 160.078145 
L 402.932432 166.643985 
L 406.702703 168.905392 
L 410.472973 169.254252 
L 414.243243 168.532819 
L 418.013514 166.544745 
L 421.783784 165.792805 
L 425.554054 161.608302 
L 429.324324 162.295874 
L 433.094595 162.570064 
L 436.864865 166.84819 
L 440.635135 168.001143 
L 444.405405 168.878701 
L 448.175676 171.854642 
L 451.945946 173.868171 
L 455.716216 176.460674 
L 459.486486 176.788946 
L 463.256757 177.680711 
L 467.027027 175.342724 
L 470.797297 174.715015 
L 474.567568 175.492408 
L 478.337838 177.528369 
L 482.108108 178.57398 
L 485.878378 178.776852 
L 489.648649 179.73174 
L 493.418919 181.047791 
L 497.189189 181.170213 
L 500.959459 179.771297 
L 504.72973 179.291263 
L 508.5 179.344591 
L 512.27027 180.193977 
L 516.040541 179.651347 
L 519.810811 178.985045 
L 523.581081 178.618953 
L 527.351351 178.850322 
L 531.121622 179.209259 
L 534.891892 180.337891 
L 538.662162 180.119465 
L 542.432432 180.591787 
L 546.202703 180.198863 
L 553.743243 183.074872 
L 557.513514 185.600081 
L 561.283784 189.081093 
L 565.054054 191.146763 
L 568.824324 192.0726 
L 572.594595 191.165028 
L 576.364865 191.284464 
L 580.135135 193.165452 
L 583.905405 195.816031 
L 587.675676 196.872416 
L 591.445946 194.590333 
L 595.216216 192.545195 
L 598.986486 193.415183 
L 606.527027 190.735355 
L 610.297297 188.302539 
L 614.067568 188.597404 
L 617.837838 187.271036 
L 621.608108 186.720698 
L 625.378378 186.441967 
L 632.918919 188.026737 
L 636.689189 187.792354 
L 640.459459 188.19952 
L 644.22973 189.02977 
L 648 191.071775 
L 648 191.071775 
" clip-path="url(#pd6bd4d0cc6)" style="fill: none; stroke-dasharray: 5.55,2.4; stroke-dashoffset: 0; stroke: #9467bd; stroke-width: 1.5"/>
   </g>
   <g id="line2d_58">
    <path d="M 97.540541 198.724919 
L 101.310811 202.443824 
L 105.081081 202.658463 
L 108.851351 205.911103 
L 112.621622 203.16514 
L 116.391892 205.082186 
L 120.162162 204.069559 
L 123.932432 206.529833 
L 127.702703 206.73267 
L 131.472973 208.324061 
L 135.243243 208.203268 
L 139.013514 207.00542 
L 142.783784 204.501336 
L 146.554054 207.034718 
L 150.324324 213.280162 
L 154.094595 199.739005 
L 161.635135 170.637801 
L 165.405405 167.196638 
L 169.175676 165.474529 
L 172.945946 166.227457 
L 176.716216 164.769856 
L 180.486486 163.809803 
L 184.256757 164.031982 
L 188.027027 162.303272 
L 191.797297 161.375461 
L 195.567568 158.551851 
L 199.337838 160.660748 
L 203.108108 161.320733 
L 206.878378 163.432004 
L 210.648649 167.949292 
L 214.418919 169.633691 
L 218.189189 167.189071 
L 221.959459 160.044612 
L 225.72973 156.841406 
L 229.5 156.315075 
L 233.27027 154.692927 
L 237.040541 153.994121 
L 240.810811 151.708738 
L 244.581081 153.285461 
L 248.351351 153.394233 
L 252.121622 156.986952 
L 255.891892 161.373434 
L 259.662162 161.321094 
L 263.432432 158.981687 
L 267.202703 153.211029 
L 270.972973 146.94435 
L 274.743243 144.95487 
L 278.513514 144.750242 
L 282.283784 149.017239 
L 286.054054 150.302399 
L 289.824324 150.840342 
L 297.364865 148.771852 
L 301.135135 144.811333 
L 304.905405 142.519948 
L 308.675676 139.384987 
L 312.445946 138.235182 
L 316.216216 137.581312 
L 323.756757 137.116223 
L 327.527027 135.356947 
L 331.297297 132.374487 
L 335.067568 129.130058 
L 338.837838 126.422581 
L 342.608108 123.502355 
L 346.378378 121.476742 
L 350.148649 120.94354 
L 353.918919 120.063679 
L 357.689189 118.448131 
L 361.459459 116.037299 
L 365.22973 120.950138 
L 369 128.93438 
L 372.77027 141.319188 
L 380.310811 148.487143 
L 384.081081 150.999669 
L 387.851351 153.794723 
L 399.162162 156.616396 
L 402.932432 158.316549 
L 406.702703 159.22542 
L 410.472973 160.754738 
L 421.783784 161.883976 
L 425.554054 161.469221 
L 429.324324 161.962798 
L 433.094595 161.46674 
L 436.864865 162.249681 
L 440.635135 162.528458 
L 448.175676 164.822466 
L 451.945946 164.154327 
L 455.716216 164.964057 
L 459.486486 163.89247 
L 463.256757 165.263331 
L 467.027027 164.995073 
L 470.797297 165.491778 
L 474.567568 166.324202 
L 478.337838 165.96134 
L 482.108108 167.668017 
L 485.878378 168.850022 
L 489.648649 170.814705 
L 493.418919 169.861127 
L 497.189189 167.95486 
L 500.959459 167.116936 
L 504.72973 167.633396 
L 508.5 169.200282 
L 512.27027 168.934005 
L 516.040541 169.306413 
L 519.810811 168.288047 
L 527.351351 168.591453 
L 531.121622 167.080047 
L 534.891892 169.871784 
L 538.662162 171.384511 
L 542.432432 175.163049 
L 546.202703 174.937664 
L 549.972973 174.908197 
L 553.743243 176.338177 
L 557.513514 175.641511 
L 561.283784 176.068768 
L 565.054054 175.42276 
L 568.824324 176.354393 
L 572.594595 176.727111 
L 576.364865 177.268092 
L 580.135135 178.427915 
L 583.905405 177.908445 
L 587.675676 178.217388 
L 591.445946 176.959483 
L 595.216216 177.025377 
L 598.986486 176.386936 
L 602.756757 176.155013 
L 606.527027 176.314687 
L 610.297297 175.669526 
L 614.067568 176.547296 
L 617.837838 175.45286 
L 621.608108 176.378571 
L 625.378378 176.674389 
L 629.148649 176.527842 
L 632.918919 176.074531 
L 636.689189 175.165337 
L 640.459459 176.801947 
L 644.22973 177.471582 
L 648 177.987885 
L 648 177.987885 
" clip-path="url(#pd6bd4d0cc6)" style="fill: none; stroke-dasharray: 9.6,2.4,1.5,2.4; stroke-dashoffset: 0; stroke: #8c564b; stroke-width: 1.5"/>
   </g>
   <g id="patch_3">
    <path d="M 90 315 
L 90 43.2 
" style="fill: none; stroke: #000000; stroke-width: 0.8; stroke-linejoin: miter; stroke-linecap: square"/>
   </g>
   <g id="patch_4">
    <path d="M 648 315 
L 648 43.2 
" style="fill: none; stroke: #000000; stroke-width: 0.8; stroke-linejoin: miter; stroke-linecap: square"/>
   </g>
   <g id="patch_5">
    <path d="M 90 315 
L 648 315 
" style="fill: none; stroke: #000000; stroke-width: 0.8; stroke-linejoin: miter; stroke-linecap: square"/>
   </g>
   <g id="patch_6">
    <path d="M 90 43.2 
L 648 43.2 
" style="fill: none; stroke: #000000; stroke-width: 0.8; stroke-linejoin: miter; stroke-linecap: square"/>
   </g>
   <g id="text_10">
    <!-- Python version of NumPy users, all operating systems -->
    <g transform="translate(206.897813 37.2)scale(0.12 -0.12)">
     <defs>
      <path id="DejaVuSans-50" d="M 1259 4147 
L 1259 2394 
L 2053 2394 
Q 2494 2394 2734 2622 
Q 2975 2850 2975 3272 
Q 2975 3691 2734 3919 
Q 2494 4147 2053 4147 
L 1259 4147 
z
M 628 4666 
L 2053 4666 
Q 2838 4666 3239 4311 
Q 3641 3956 3641 3272 
Q 3641 2581 3239 2228 
Q 2838 1875 2053 1875 
L 1259 1875 
L 1259 0 
L 628 0 
L 628 4666 
z
" transform="scale(0.015625)"/>
      <path id="DejaVuSans-79" d="M 2059 -325 
Q 1816 -950 1584 -1140 
Q 1353 -1331 966 -1331 
L 506 -1331 
L 506 -850 
L 844 -850 
Q 1081 -850 1212 -737 
Q 1344 -625 1503 -206 
L 1606 56 
L 191 3500 
L 800 3500 
L 1894 763 
L 2988 3500 
L 3597 3500 
L 2059 -325 
z
" transform="scale(0.015625)"/>
      <path id="DejaVuSans-76" d="M 191 3500 
L 800 3500 
L 1894 563 
L 2988 3500 
L 3597 3500 
L 2284 0 
L 1503 0 
L 191 3500 
z
" transform="scale(0.015625)"/>
      <path id="DejaVuSans-2c" d="M 750 794 
L 1409 794 
L 1409 256 
L 897 -744 
L 494 -744 
L 750 256 
L 750 794 
z
" transform="scale(0.015625)"/>
      <path id="DejaVuSans-67" d="M 2906 1791 
Q 2906 2416 2648 2759 
Q 2391 3103 1925 3103 
Q 1463 3103 1205 2759 
Q 947 2416 947 1791 
Q 947 1169 1205 825 
Q 1463 481 1925 481 
Q 2391 481 2648 825 
Q 2906 1169 2906 1791 
z
M 3481 434 
Q 3481 -459 3084 -895 
Q 2688 -1331 1869 -1331 
Q 1566 -1331 1297 -1286 
Q 1028 -1241 775 -1147 
L 775 -588 
Q 1028 -725 1275 -790 
Q 1522 -856 1778 -856 
Q 2344 -856 2625 -561 
Q 2906 -266 2906 331 
L 2906 616 
Q 2728 306 2450 153 
Q 2172 0 1784 0 
Q 1141 0 747 490 
Q 353 981 353 1791 
Q 353 2603 747 3093 
Q 1141 3584 1784 3584 
Q 2172 3584 2450 3431 
Q 2728 3278 2906 2969 
L 2906 3500 
L 3481 3500 
L 3481 434 
z
" transform="scale(0.015625)"/>
     </defs>
     <use xlink:href="#DejaVuSans-50"/>
     <use xlink:href="#DejaVuSans-79" x="60.302734"/>
     <use xlink:href="#DejaVuSans-74" x="119.482422"/>
     <use xlink:href="#DejaVuSans-68" x="158.691406"/>
     <use xlink:href="#DejaVuSans-6f" x="222.070312"/>
     <use xlink:href="#DejaVuSans-6e" x="283.251953"/>
     <use xlink:href="#DejaVuSans-20" x="346.630859"/>
     <use xlink:href="#DejaVuSans-76" x="378.417969"/>
     <use xlink:href="#DejaVuSans-65" x="437.597656"/>
     <use xlink:href="#DejaVuSans-72" x="499.121094"/>
     <use xlink:href="#DejaVuSans-73" x="540.234375"/>
     <use xlink:href="#DejaVuSans-69" x="592.333984"/>
     <use xlink:href="#DejaVuSans-6f" x="620.117188"/>
     <use xlink:href="#DejaVuSans-6e" x="681.298828"/>
     <use xlink:href="#DejaVuSans-20" x="744.677734"/>
     <use xlink:href="#DejaVuSans-6f" x="776.464844"/>
     <use xlink:href="#DejaVuSans-66" x="837.646484"/>
     <use xlink:href="#DejaVuSans-20" x="872.851562"/>
     <use xlink:href="#DejaVuSans-4e" x="904.638672"/>
     <use xlink:href="#DejaVuSans-75" x="979.443359"/>
     <use xlink:href="#DejaVuSans-6d" x="1042.822266"/>
     <use xlink:href="#DejaVuSans-50" x="1140.234375"/>
     <use xlink:href="#DejaVuSans-79" x="1200.537109"/>
     <use xlink:href="#DejaVuSans-20" x="1259.716797"/>
     <use xlink:href="#DejaVuSans-75" x="1291.503906"/>
     <use xlink:href="#DejaVuSans-73" x="1354.882812"/>
     <use xlink:href="#DejaVuSans-65" x="1406.982422"/>
     <use xlink:href="#DejaVuSans-72" x="1468.505859"/>
     <use xlink:href="#DejaVuSans-73" x="1509.619141"/>
     <use xlink:href="#DejaVuSans-2c" x="1561.71875"/>
     <use xlink:href="#DejaVuSans-20" x="1593.505859"/>
     <use xlink:href="#DejaVuSans-61" x="1625.292969"/>
     <use xlink:href="#DejaVuSans-6c" x="1686.572266"/>
     <use xlink:href="#DejaVuSans-6c" x="1714.355469"/>
     <use xlink:href="#DejaVuSans-20" x="1742.138672"/>
     <use xlink:href="#DejaVuSans-6f" x="1773.925781"/>
     <use xlink:href="#DejaVuSans-70" x="1835.107422"/>
     <use xlink:href="#DejaVuSans-65" x="1898.583984"/>
     <use xlink:href="#DejaVuSans-72" x="1960.107422"/>
     <use xlink:href="#DejaVuSans-61" x="2001.220703"/>
     <use xlink:href="#DejaVuSans-74" x="2062.5"/>
     <use xlink:href="#DejaVuSans-69" x="2101.708984"/>
     <use xlink:href="#DejaVuSans-6e" x="2129.492188"/>
     <use xlink:href="#DejaVuSans-67" x="2192.871094"/>
     <use xlink:href="#DejaVuSans-20" x="2256.347656"/>
     <use xlink:href="#DejaVuSans-73" x="2288.134766"/>
     <use xlink:href="#DejaVuSans-79" x="2340.234375"/>
     <use xlink:href="#DejaVuSans-73" x="2399.414062"/>
     <use xlink:href="#DejaVuSans-74" x="2451.513672"/>
     <use xlink:href="#DejaVuSans-65" x="2490.722656"/>
     <use xlink:href="#DejaVuSans-6d" x="2552.246094"/>
     <use xlink:href="#DejaVuSans-73" x="2649.658203"/>
    </g>
   </g>
   <g id="legend_1">
    <g id="patch_7">
     <path d="M 97 139.26875 
L 189.421875 139.26875 
Q 191.421875 139.26875 191.421875 137.26875 
L 191.421875 50.2 
Q 191.421875 48.2 189.421875 48.2 
L 97 48.2 
Q 95 48.2 95 50.2 
L 95 137.26875 
Q 95 139.26875 97 139.26875 
z
" style="fill: #ffffff; opacity: 0.8; stroke: #cccccc; stroke-linejoin: miter"/>
    </g>
    <g id="line2d_59">
     <path d="M 99 56.298437 
L 109 56.298437 
L 119 56.298437 
" style="fill: none; stroke: #1f77b4; stroke-width: 1.5; stroke-linecap: square"/>
    </g>
    <g id="text_11">
     <!-- 3.9 -->
     <g transform="translate(127 59.798437)scale(0.1 -0.1)">
      <defs>
       <path id="DejaVuSans-33" d="M 2597 2516 
Q 3050 2419 3304 2112 
Q 3559 1806 3559 1356 
Q 3559 666 3084 287 
Q 2609 -91 1734 -91 
Q 1441 -91 1130 -33 
Q 819 25 488 141 
L 488 750 
Q 750 597 1062 519 
Q 1375 441 1716 441 
Q 2309 441 2620 675 
Q 2931 909 2931 1356 
Q 2931 1769 2642 2001 
Q 2353 2234 1838 2234 
L 1294 2234 
L 1294 2753 
L 1863 2753 
Q 2328 2753 2575 2939 
Q 2822 3125 2822 3475 
Q 2822 3834 2567 4026 
Q 2313 4219 1838 4219 
Q 1578 4219 1281 4162 
Q 984 4106 628 3988 
L 628 4550 
Q 988 4650 1302 4700 
Q 1616 4750 1894 4750 
Q 2613 4750 3031 4423 
Q 3450 4097 3450 3541 
Q 3450 3153 3228 2886 
Q 3006 2619 2597 2516 
z
" transform="scale(0.015625)"/>
       <path id="DejaVuSans-2e" d="M 684 794 
L 1344 794 
L 1344 0 
L 684 0 
L 684 794 
z
" transform="scale(0.015625)"/>
      </defs>
      <use xlink:href="#DejaVuSans-33"/>
      <use xlink:href="#DejaVuSans-2e" x="63.623047"/>
      <use xlink:href="#DejaVuSans-39" x="95.410156"/>
     </g>
    </g>
    <g id="line2d_60">
     <path d="M 99 70.976562 
L 109 70.976562 
L 119 70.976562 
" style="fill: none; stroke-dasharray: 1.5,2.475; stroke-dashoffset: 0; stroke: #ff7f0e; stroke-width: 1.5"/>
    </g>
    <g id="text_12">
     <!-- 3.8 -->
     <g transform="translate(127 74.476562)scale(0.1 -0.1)">
      <use xlink:href="#DejaVuSans-33"/>
      <use xlink:href="#DejaVuSans-2e" x="63.623047"/>
      <use xlink:href="#DejaVuSans-38" x="95.410156"/>
     </g>
    </g>
    <g id="line2d_61">
     <path d="M 99 85.654687 
L 109 85.654687 
L 119 85.654687 
" style="fill: none; stroke-dasharray: 5.55,2.4; stroke-dashoffset: 0; stroke: #2ca02c; stroke-width: 1.5"/>
    </g>
    <g id="text_13">
     <!-- 3.7 -->
     <g transform="translate(127 89.154687)scale(0.1 -0.1)">
      <use xlink:href="#DejaVuSans-33"/>
      <use xlink:href="#DejaVuSans-2e" x="63.623047"/>
      <use xlink:href="#DejaVuSans-37" x="95.410156"/>
     </g>
    </g>
    <g id="line2d_62">
     <path d="M 99 100.332812 
L 109 100.332812 
L 119 100.332812 
" style="fill: none; stroke: #d62728; stroke-width: 1.5; stroke-linecap: square"/>
    </g>
    <g id="text_14">
     <!-- 3.6 -->
     <g transform="translate(127 103.832812)scale(0.1 -0.1)">
      <use xlink:href="#DejaVuSans-33"/>
      <use xlink:href="#DejaVuSans-2e" x="63.623047"/>
      <use xlink:href="#DejaVuSans-36" x="95.410156"/>
     </g>
    </g>
    <g id="line2d_63">
     <path d="M 99 115.010937 
L 109 115.010937 
L 119 115.010937 
" style="fill: none; stroke-dasharray: 5.55,2.4; stroke-dashoffset: 0; stroke: #9467bd; stroke-width: 1.5"/>
    </g>
    <g id="text_15">
     <!-- 3.3, 3.4, 3.5 -->
     <g transform="translate(127 118.510937)scale(0.1 -0.1)">
      <defs>
       <path id="DejaVuSans-34" d="M 2419 4116 
L 825 1625 
L 2419 1625 
L 2419 4116 
z
M 2253 4666 
L 3047 4666 
L 3047 1625 
L 3713 1625 
L 3713 1100 
L 3047 1100 
L 3047 0 
L 2419 0 
L 2419 1100 
L 313 1100 
L 313 1709 
L 2253 4666 
z
" transform="scale(0.015625)"/>
      </defs>
      <use xlink:href="#DejaVuSans-33"/>
      <use xlink:href="#DejaVuSans-2e" x="63.623047"/>
      <use xlink:href="#DejaVuSans-33" x="95.410156"/>
      <use xlink:href="#DejaVuSans-2c" x="159.033203"/>
      <use xlink:href="#DejaVuSans-20" x="190.820312"/>
      <use xlink:href="#DejaVuSans-33" x="222.607422"/>
      <use xlink:href="#DejaVuSans-2e" x="286.230469"/>
      <use xlink:href="#DejaVuSans-34" x="318.017578"/>
      <use xlink:href="#DejaVuSans-2c" x="381.640625"/>
      <use xlink:href="#DejaVuSans-20" x="413.427734"/>
      <use xlink:href="#DejaVuSans-33" x="445.214844"/>
      <use xlink:href="#DejaVuSans-2e" x="508.837891"/>
      <use xlink:href="#DejaVuSans-35" x="540.625"/>
     </g>
    </g>
    <g id="line2d_64">
     <path d="M 99 129.689062 
L 109 129.689062 
L 119 129.689062 
" style="fill: none; stroke-dasharray: 9.6,2.4,1.5,2.4; stroke-dashoffset: 0; stroke: #8c564b; stroke-width: 1.5"/>
    </g>
    <g id="text_16">
     <!-- 2.7 -->
     <g transform="translate(127 133.189062)scale(0.1 -0.1)">
      <use xlink:href="#DejaVuSans-32"/>
      <use xlink:href="#DejaVuSans-2e" x="63.623047"/>
      <use xlink:href="#DejaVuSans-37" x="95.410156"/>
     </g>
    </g>
   </g>
  </g>
 </g>
 <defs>
  <clipPath id="pd6bd4d0cc6">
   <rect x="90" y="43.2" width="558" height="271.8"/>
  </clipPath>
 </defs>
</svg>
