<?xml version="1.0" encoding="utf-8" standalone="no"?>
<!DOCTYPE svg PUBLIC "-//W3C//DTD SVG 1.1//EN"
  "http://www.w3.org/Graphics/SVG/1.1/DTD/svg11.dtd">
<svg xmlns:xlink="http://www.w3.org/1999/xlink" width="720pt" height="360pt" viewBox="0 0 720 360" xmlns="http://www.w3.org/2000/svg" version="1.1">
 <metadata>
  <rdf:RDF xmlns:dc="http://purl.org/dc/elements/1.1/" xmlns:cc="http://creativecommons.org/ns#" xmlns:rdf="http://www.w3.org/1999/02/22-rdf-syntax-ns#">
   <cc:Work>
    <dc:type rdf:resource="http://purl.org/dc/dcmitype/StillImage"/>
    <dc:date>2023-04-05T16:18:20.531407</dc:date>
    <dc:format>image/svg+xml</dc:format>
    <dc:creator>
     <cc:Agent>
      <dc:title>Matplotlib v3.7.1, https://matplotlib.org/</dc:title>
     </cc:Agent>
    </dc:creator>
   </cc:Work>
  </rdf:RDF>
 </metadata>
 <defs>
  <style type="text/css">*{stroke-linejoin: round; stroke-linecap: butt}</style>
 </defs>
 <g id="figure_1">
  <g id="patch_1">
   <path d="M 0 360 
L 720 360 
L 720 0 
L 0 0 
z
" style="fill: #ffffff"/>
  </g>
  <g id="axes_1">
   <g id="patch_2">
    <path d="M 90 320.4 
L 648 320.4 
L 648 43.2 
L 90 43.2 
z
" style="fill: #ffffff"/>
   </g>
   <g id="matplotlib.axis_1">
    <g id="xtick_1">
     <g id="line2d_1">
      <defs>
       <path id="m763b2e53d6" d="M 0 0 
L 0 3.5 
" style="stroke: #000000; stroke-width: 0.8"/>
      </defs>
      <g>
       <use xlink:href="#m763b2e53d6" x="90" y="320.4" style="stroke: #000000; stroke-width: 0.8"/>
      </g>
     </g>
     <g id="text_1">
      <!-- 2018 -->
      <g transform="translate(77.275 334.998438) scale(0.1 -0.1)">
       <defs>
        <path id="DejaVuSans-32" d="M 1228 531 
L 3431 531 
L 3431 0 
L 469 0 
L 469 531 
Q 828 903 1448 1529 
Q 2069 2156 2228 2338 
Q 2531 2678 2651 2914 
Q 2772 3150 2772 3378 
Q 2772 3750 2511 3984 
Q 2250 4219 1831 4219 
Q 1534 4219 1204 4116 
Q 875 4013 500 3803 
L 500 4441 
Q 881 4594 1212 4672 
Q 1544 4750 1819 4750 
Q 2544 4750 2975 4387 
Q 3406 4025 3406 3419 
Q 3406 3131 3298 2873 
Q 3191 2616 2906 2266 
Q 2828 2175 2409 1742 
Q 1991 1309 1228 531 
z
" transform="scale(0.015625)"/>
        <path id="DejaVuSans-30" d="M 2034 4250 
Q 1547 4250 1301 3770 
Q 1056 3291 1056 2328 
Q 1056 1369 1301 889 
Q 1547 409 2034 409 
Q 2525 409 2770 889 
Q 3016 1369 3016 2328 
Q 3016 3291 2770 3770 
Q 2525 4250 2034 4250 
z
M 2034 4750 
Q 2819 4750 3233 4129 
Q 3647 3509 3647 2328 
Q 3647 1150 3233 529 
Q 2819 -91 2034 -91 
Q 1250 -91 836 529 
Q 422 1150 422 2328 
Q 422 3509 836 4129 
Q 1250 4750 2034 4750 
z
" transform="scale(0.015625)"/>
        <path id="DejaVuSans-31" d="M 794 531 
L 1825 531 
L 1825 4091 
L 703 3866 
L 703 4441 
L 1819 4666 
L 2450 4666 
L 2450 531 
L 3481 531 
L 3481 0 
L 794 0 
L 794 531 
z
" transform="scale(0.015625)"/>
        <path id="DejaVuSans-38" d="M 2034 2216 
Q 1584 2216 1326 1975 
Q 1069 1734 1069 1313 
Q 1069 891 1326 650 
Q 1584 409 2034 409 
Q 2484 409 2743 651 
Q 3003 894 3003 1313 
Q 3003 1734 2745 1975 
Q 2488 2216 2034 2216 
z
M 1403 2484 
Q 997 2584 770 2862 
Q 544 3141 544 3541 
Q 544 4100 942 4425 
Q 1341 4750 2034 4750 
Q 2731 4750 3128 4425 
Q 3525 4100 3525 3541 
Q 3525 3141 3298 2862 
Q 3072 2584 2669 2484 
Q 3125 2378 3379 2068 
Q 3634 1759 3634 1313 
Q 3634 634 3220 271 
Q 2806 -91 2034 -91 
Q 1263 -91 848 271 
Q 434 634 434 1313 
Q 434 1759 690 2068 
Q 947 2378 1403 2484 
z
M 1172 3481 
Q 1172 3119 1398 2916 
Q 1625 2713 2034 2713 
Q 2441 2713 2670 2916 
Q 2900 3119 2900 3481 
Q 2900 3844 2670 4047 
Q 2441 4250 2034 4250 
Q 1625 4250 1398 4047 
Q 1172 3844 1172 3481 
z
" transform="scale(0.015625)"/>
       </defs>
       <use xlink:href="#DejaVuSans-32"/>
       <use xlink:href="#DejaVuSans-30" x="63.623047"/>
       <use xlink:href="#DejaVuSans-31" x="127.246094"/>
       <use xlink:href="#DejaVuSans-38" x="190.869141"/>
      </g>
     </g>
    </g>
    <g id="xtick_2">
     <g id="line2d_2">
      <g>
       <use xlink:href="#m763b2e53d6" x="198.624" y="320.4" style="stroke: #000000; stroke-width: 0.8"/>
      </g>
     </g>
     <g id="text_2">
      <!-- 2019 -->
      <g transform="translate(185.899 334.998438) scale(0.1 -0.1)">
       <defs>
        <path id="DejaVuSans-39" d="M 703 97 
L 703 672 
Q 941 559 1184 500 
Q 1428 441 1663 441 
Q 2288 441 2617 861 
Q 2947 1281 2994 2138 
Q 2813 1869 2534 1725 
Q 2256 1581 1919 1581 
Q 1219 1581 811 2004 
Q 403 2428 403 3163 
Q 403 3881 828 4315 
Q 1253 4750 1959 4750 
Q 2769 4750 3195 4129 
Q 3622 3509 3622 2328 
Q 3622 1225 3098 567 
Q 2575 -91 1691 -91 
Q 1453 -91 1209 -44 
Q 966 3 703 97 
z
M 1959 2075 
Q 2384 2075 2632 2365 
Q 2881 2656 2881 3163 
Q 2881 3666 2632 3958 
Q 2384 4250 1959 4250 
Q 1534 4250 1286 3958 
Q 1038 3666 1038 3163 
Q 1038 2656 1286 2365 
Q 1534 2075 1959 2075 
z
" transform="scale(0.015625)"/>
       </defs>
       <use xlink:href="#DejaVuSans-32"/>
       <use xlink:href="#DejaVuSans-30" x="63.623047"/>
       <use xlink:href="#DejaVuSans-31" x="127.246094"/>
       <use xlink:href="#DejaVuSans-39" x="190.869141"/>
      </g>
     </g>
    </g>
    <g id="xtick_3">
     <g id="line2d_3">
      <g>
       <use xlink:href="#m763b2e53d6" x="307.248" y="320.4" style="stroke: #000000; stroke-width: 0.8"/>
      </g>
     </g>
     <g id="text_3">
      <!-- 2020 -->
      <g transform="translate(294.523 334.998438) scale(0.1 -0.1)">
       <use xlink:href="#DejaVuSans-32"/>
       <use xlink:href="#DejaVuSans-30" x="63.623047"/>
       <use xlink:href="#DejaVuSans-32" x="127.246094"/>
       <use xlink:href="#DejaVuSans-30" x="190.869141"/>
      </g>
     </g>
    </g>
    <g id="xtick_4">
     <g id="line2d_4">
      <g>
       <use xlink:href="#m763b2e53d6" x="416.1696" y="320.4" style="stroke: #000000; stroke-width: 0.8"/>
      </g>
     </g>
     <g id="text_4">
      <!-- 2021 -->
      <g transform="translate(403.4446 334.998438) scale(0.1 -0.1)">
       <use xlink:href="#DejaVuSans-32"/>
       <use xlink:href="#DejaVuSans-30" x="63.623047"/>
       <use xlink:href="#DejaVuSans-32" x="127.246094"/>
       <use xlink:href="#DejaVuSans-31" x="190.869141"/>
      </g>
     </g>
    </g>
    <g id="xtick_5">
     <g id="line2d_5">
      <g>
       <use xlink:href="#m763b2e53d6" x="524.7936" y="320.4" style="stroke: #000000; stroke-width: 0.8"/>
      </g>
     </g>
     <g id="text_5">
      <!-- 2022 -->
      <g transform="translate(512.0686 334.998438) scale(0.1 -0.1)">
       <use xlink:href="#DejaVuSans-32"/>
       <use xlink:href="#DejaVuSans-30" x="63.623047"/>
       <use xlink:href="#DejaVuSans-32" x="127.246094"/>
       <use xlink:href="#DejaVuSans-32" x="190.869141"/>
      </g>
     </g>
    </g>
    <g id="xtick_6">
     <g id="line2d_6">
      <g>
       <use xlink:href="#m763b2e53d6" x="633.4176" y="320.4" style="stroke: #000000; stroke-width: 0.8"/>
      </g>
     </g>
     <g id="text_6">
      <!-- 2023 -->
      <g transform="translate(620.6926 334.998438) scale(0.1 -0.1)">
       <defs>
        <path id="DejaVuSans-33" d="M 2597 2516 
Q 3050 2419 3304 2112 
Q 3559 1806 3559 1356 
Q 3559 666 3084 287 
Q 2609 -91 1734 -91 
Q 1441 -91 1130 -33 
Q 819 25 488 141 
L 488 750 
Q 750 597 1062 519 
Q 1375 441 1716 441 
Q 2309 441 2620 675 
Q 2931 909 2931 1356 
Q 2931 1769 2642 2001 
Q 2353 2234 1838 2234 
L 1294 2234 
L 1294 2753 
L 1863 2753 
Q 2328 2753 2575 2939 
Q 2822 3125 2822 3475 
Q 2822 3834 2567 4026 
Q 2313 4219 1838 4219 
Q 1578 4219 1281 4162 
Q 984 4106 628 3988 
L 628 4550 
Q 988 4650 1302 4700 
Q 1616 4750 1894 4750 
Q 2613 4750 3031 4423 
Q 3450 4097 3450 3541 
Q 3450 3153 3228 2886 
Q 3006 2619 2597 2516 
z
" transform="scale(0.015625)"/>
       </defs>
       <use xlink:href="#DejaVuSans-32"/>
       <use xlink:href="#DejaVuSans-30" x="63.623047"/>
       <use xlink:href="#DejaVuSans-32" x="127.246094"/>
       <use xlink:href="#DejaVuSans-33" x="190.869141"/>
      </g>
     </g>
    </g>
    <g id="xtick_7">
     <g id="line2d_7">
      <g>
       <use xlink:href="#m763b2e53d6" x="648" y="320.4" style="stroke: #000000; stroke-width: 0.8"/>
      </g>
     </g>
    </g>
    <g id="xtick_8">
     <g id="line2d_8">
      <defs>
       <path id="m07176adbd6" d="M 0 0 
L 0 2 
" style="stroke: #000000; stroke-width: 0.6"/>
      </defs>
      <g>
       <use xlink:href="#m07176adbd6" x="116.784" y="320.4" style="stroke: #000000; stroke-width: 0.6"/>
      </g>
     </g>
    </g>
    <g id="xtick_9">
     <g id="line2d_9">
      <g>
       <use xlink:href="#m07176adbd6" x="143.8656" y="320.4" style="stroke: #000000; stroke-width: 0.6"/>
      </g>
     </g>
    </g>
    <g id="xtick_10">
     <g id="line2d_10">
      <g>
       <use xlink:href="#m07176adbd6" x="171.2448" y="320.4" style="stroke: #000000; stroke-width: 0.6"/>
      </g>
     </g>
    </g>
    <g id="xtick_11">
     <g id="line2d_11">
      <g>
       <use xlink:href="#m07176adbd6" x="225.408" y="320.4" style="stroke: #000000; stroke-width: 0.6"/>
      </g>
     </g>
    </g>
    <g id="xtick_12">
     <g id="line2d_12">
      <g>
       <use xlink:href="#m07176adbd6" x="252.4896" y="320.4" style="stroke: #000000; stroke-width: 0.6"/>
      </g>
     </g>
    </g>
    <g id="xtick_13">
     <g id="line2d_13">
      <g>
       <use xlink:href="#m07176adbd6" x="279.8688" y="320.4" style="stroke: #000000; stroke-width: 0.6"/>
      </g>
     </g>
    </g>
    <g id="xtick_14">
     <g id="line2d_14">
      <g>
       <use xlink:href="#m07176adbd6" x="334.3296" y="320.4" style="stroke: #000000; stroke-width: 0.6"/>
      </g>
     </g>
    </g>
    <g id="xtick_15">
     <g id="line2d_15">
      <g>
       <use xlink:href="#m07176adbd6" x="361.4112" y="320.4" style="stroke: #000000; stroke-width: 0.6"/>
      </g>
     </g>
    </g>
    <g id="xtick_16">
     <g id="line2d_16">
      <g>
       <use xlink:href="#m07176adbd6" x="388.7904" y="320.4" style="stroke: #000000; stroke-width: 0.6"/>
      </g>
     </g>
    </g>
    <g id="xtick_17">
     <g id="line2d_17">
      <g>
       <use xlink:href="#m07176adbd6" x="442.9536" y="320.4" style="stroke: #000000; stroke-width: 0.6"/>
      </g>
     </g>
    </g>
    <g id="xtick_18">
     <g id="line2d_18">
      <g>
       <use xlink:href="#m07176adbd6" x="470.0352" y="320.4" style="stroke: #000000; stroke-width: 0.6"/>
      </g>
     </g>
    </g>
    <g id="xtick_19">
     <g id="line2d_19">
      <g>
       <use xlink:href="#m07176adbd6" x="497.4144" y="320.4" style="stroke: #000000; stroke-width: 0.6"/>
      </g>
     </g>
    </g>
    <g id="xtick_20">
     <g id="line2d_20">
      <g>
       <use xlink:href="#m07176adbd6" x="551.5776" y="320.4" style="stroke: #000000; stroke-width: 0.6"/>
      </g>
     </g>
    </g>
    <g id="xtick_21">
     <g id="line2d_21">
      <g>
       <use xlink:href="#m07176adbd6" x="578.6592" y="320.4" style="stroke: #000000; stroke-width: 0.6"/>
      </g>
     </g>
    </g>
    <g id="xtick_22">
     <g id="line2d_22">
      <g>
       <use xlink:href="#m07176adbd6" x="606.0384" y="320.4" style="stroke: #000000; stroke-width: 0.6"/>
      </g>
     </g>
    </g>
   </g>
   <g id="matplotlib.axis_2">
    <g id="ytick_1">
     <g id="line2d_23">
      <defs>
       <path id="mf23da9283c" d="M 0 0 
L -3.5 0 
" style="stroke: #000000; stroke-width: 0.8"/>
      </defs>
      <g>
       <use xlink:href="#mf23da9283c" x="90" y="320.4" style="stroke: #000000; stroke-width: 0.8"/>
      </g>
     </g>
     <g id="text_7">
      <!-- 0 -->
      <g transform="translate(76.6375 324.199219) scale(0.1 -0.1)">
       <use xlink:href="#DejaVuSans-30"/>
      </g>
     </g>
    </g>
    <g id="ytick_2">
     <g id="line2d_24">
      <g>
       <use xlink:href="#mf23da9283c" x="90" y="264.96" style="stroke: #000000; stroke-width: 0.8"/>
      </g>
     </g>
     <g id="text_8">
      <!-- 500 -->
      <g transform="translate(63.9125 268.759219) scale(0.1 -0.1)">
       <defs>
        <path id="DejaVuSans-35" d="M 691 4666 
L 3169 4666 
L 3169 4134 
L 1269 4134 
L 1269 2991 
Q 1406 3038 1543 3061 
Q 1681 3084 1819 3084 
Q 2600 3084 3056 2656 
Q 3513 2228 3513 1497 
Q 3513 744 3044 326 
Q 2575 -91 1722 -91 
Q 1428 -91 1123 -41 
Q 819 9 494 109 
L 494 744 
Q 775 591 1075 516 
Q 1375 441 1709 441 
Q 2250 441 2565 725 
Q 2881 1009 2881 1497 
Q 2881 1984 2565 2268 
Q 2250 2553 1709 2553 
Q 1456 2553 1204 2497 
Q 953 2441 691 2322 
L 691 4666 
z
" transform="scale(0.015625)"/>
       </defs>
       <use xlink:href="#DejaVuSans-35"/>
       <use xlink:href="#DejaVuSans-30" x="63.623047"/>
       <use xlink:href="#DejaVuSans-30" x="127.246094"/>
      </g>
     </g>
    </g>
    <g id="ytick_3">
     <g id="line2d_25">
      <g>
       <use xlink:href="#mf23da9283c" x="90" y="209.52" style="stroke: #000000; stroke-width: 0.8"/>
      </g>
     </g>
     <g id="text_9">
      <!-- 1000 -->
      <g transform="translate(57.55 213.319219) scale(0.1 -0.1)">
       <use xlink:href="#DejaVuSans-31"/>
       <use xlink:href="#DejaVuSans-30" x="63.623047"/>
       <use xlink:href="#DejaVuSans-30" x="127.246094"/>
       <use xlink:href="#DejaVuSans-30" x="190.869141"/>
      </g>
     </g>
    </g>
    <g id="ytick_4">
     <g id="line2d_26">
      <g>
       <use xlink:href="#mf23da9283c" x="90" y="154.08" style="stroke: #000000; stroke-width: 0.8"/>
      </g>
     </g>
     <g id="text_10">
      <!-- 1500 -->
      <g transform="translate(57.55 157.879219) scale(0.1 -0.1)">
       <use xlink:href="#DejaVuSans-31"/>
       <use xlink:href="#DejaVuSans-35" x="63.623047"/>
       <use xlink:href="#DejaVuSans-30" x="127.246094"/>
       <use xlink:href="#DejaVuSans-30" x="190.869141"/>
      </g>
     </g>
    </g>
    <g id="ytick_5">
     <g id="line2d_27">
      <g>
       <use xlink:href="#mf23da9283c" x="90" y="98.64" style="stroke: #000000; stroke-width: 0.8"/>
      </g>
     </g>
     <g id="text_11">
      <!-- 2000 -->
      <g transform="translate(57.55 102.439219) scale(0.1 -0.1)">
       <use xlink:href="#DejaVuSans-32"/>
       <use xlink:href="#DejaVuSans-30" x="63.623047"/>
       <use xlink:href="#DejaVuSans-30" x="127.246094"/>
       <use xlink:href="#DejaVuSans-30" x="190.869141"/>
      </g>
     </g>
    </g>
    <g id="ytick_6">
     <g id="line2d_28">
      <g>
       <use xlink:href="#mf23da9283c" x="90" y="43.2" style="stroke: #000000; stroke-width: 0.8"/>
      </g>
     </g>
     <g id="text_12">
      <!-- 2500 -->
      <g transform="translate(57.55 46.999219) scale(0.1 -0.1)">
       <use xlink:href="#DejaVuSans-32"/>
       <use xlink:href="#DejaVuSans-35" x="63.623047"/>
       <use xlink:href="#DejaVuSans-30" x="127.246094"/>
       <use xlink:href="#DejaVuSans-30" x="190.869141"/>
      </g>
     </g>
    </g>
    <g id="text_13">
     <!-- Number of pip-installs per month -->
     <g transform="translate(51.470312 264.70625) rotate(-90) scale(0.1 -0.1)">
      <defs>
       <path id="DejaVuSans-4e" d="M 628 4666 
L 1478 4666 
L 3547 763 
L 3547 4666 
L 4159 4666 
L 4159 0 
L 3309 0 
L 1241 3903 
L 1241 0 
L 628 0 
L 628 4666 
z
" transform="scale(0.015625)"/>
       <path id="DejaVuSans-75" d="M 544 1381 
L 544 3500 
L 1119 3500 
L 1119 1403 
Q 1119 906 1312 657 
Q 1506 409 1894 409 
Q 2359 409 2629 706 
Q 2900 1003 2900 1516 
L 2900 3500 
L 3475 3500 
L 3475 0 
L 2900 0 
L 2900 538 
Q 2691 219 2414 64 
Q 2138 -91 1772 -91 
Q 1169 -91 856 284 
Q 544 659 544 1381 
z
M 1991 3584 
L 1991 3584 
z
" transform="scale(0.015625)"/>
       <path id="DejaVuSans-6d" d="M 3328 2828 
Q 3544 3216 3844 3400 
Q 4144 3584 4550 3584 
Q 5097 3584 5394 3201 
Q 5691 2819 5691 2113 
L 5691 0 
L 5113 0 
L 5113 2094 
Q 5113 2597 4934 2840 
Q 4756 3084 4391 3084 
Q 3944 3084 3684 2787 
Q 3425 2491 3425 1978 
L 3425 0 
L 2847 0 
L 2847 2094 
Q 2847 2600 2669 2842 
Q 2491 3084 2119 3084 
Q 1678 3084 1418 2786 
Q 1159 2488 1159 1978 
L 1159 0 
L 581 0 
L 581 3500 
L 1159 3500 
L 1159 2956 
Q 1356 3278 1631 3431 
Q 1906 3584 2284 3584 
Q 2666 3584 2933 3390 
Q 3200 3197 3328 2828 
z
" transform="scale(0.015625)"/>
       <path id="DejaVuSans-62" d="M 3116 1747 
Q 3116 2381 2855 2742 
Q 2594 3103 2138 3103 
Q 1681 3103 1420 2742 
Q 1159 2381 1159 1747 
Q 1159 1113 1420 752 
Q 1681 391 2138 391 
Q 2594 391 2855 752 
Q 3116 1113 3116 1747 
z
M 1159 2969 
Q 1341 3281 1617 3432 
Q 1894 3584 2278 3584 
Q 2916 3584 3314 3078 
Q 3713 2572 3713 1747 
Q 3713 922 3314 415 
Q 2916 -91 2278 -91 
Q 1894 -91 1617 61 
Q 1341 213 1159 525 
L 1159 0 
L 581 0 
L 581 4863 
L 1159 4863 
L 1159 2969 
z
" transform="scale(0.015625)"/>
       <path id="DejaVuSans-65" d="M 3597 1894 
L 3597 1613 
L 953 1613 
Q 991 1019 1311 708 
Q 1631 397 2203 397 
Q 2534 397 2845 478 
Q 3156 559 3463 722 
L 3463 178 
Q 3153 47 2828 -22 
Q 2503 -91 2169 -91 
Q 1331 -91 842 396 
Q 353 884 353 1716 
Q 353 2575 817 3079 
Q 1281 3584 2069 3584 
Q 2775 3584 3186 3129 
Q 3597 2675 3597 1894 
z
M 3022 2063 
Q 3016 2534 2758 2815 
Q 2500 3097 2075 3097 
Q 1594 3097 1305 2825 
Q 1016 2553 972 2059 
L 3022 2063 
z
" transform="scale(0.015625)"/>
       <path id="DejaVuSans-72" d="M 2631 2963 
Q 2534 3019 2420 3045 
Q 2306 3072 2169 3072 
Q 1681 3072 1420 2755 
Q 1159 2438 1159 1844 
L 1159 0 
L 581 0 
L 581 3500 
L 1159 3500 
L 1159 2956 
Q 1341 3275 1631 3429 
Q 1922 3584 2338 3584 
Q 2397 3584 2469 3576 
Q 2541 3569 2628 3553 
L 2631 2963 
z
" transform="scale(0.015625)"/>
       <path id="DejaVuSans-20" transform="scale(0.015625)"/>
       <path id="DejaVuSans-6f" d="M 1959 3097 
Q 1497 3097 1228 2736 
Q 959 2375 959 1747 
Q 959 1119 1226 758 
Q 1494 397 1959 397 
Q 2419 397 2687 759 
Q 2956 1122 2956 1747 
Q 2956 2369 2687 2733 
Q 2419 3097 1959 3097 
z
M 1959 3584 
Q 2709 3584 3137 3096 
Q 3566 2609 3566 1747 
Q 3566 888 3137 398 
Q 2709 -91 1959 -91 
Q 1206 -91 779 398 
Q 353 888 353 1747 
Q 353 2609 779 3096 
Q 1206 3584 1959 3584 
z
" transform="scale(0.015625)"/>
       <path id="DejaVuSans-66" d="M 2375 4863 
L 2375 4384 
L 1825 4384 
Q 1516 4384 1395 4259 
Q 1275 4134 1275 3809 
L 1275 3500 
L 2222 3500 
L 2222 3053 
L 1275 3053 
L 1275 0 
L 697 0 
L 697 3053 
L 147 3053 
L 147 3500 
L 697 3500 
L 697 3744 
Q 697 4328 969 4595 
Q 1241 4863 1831 4863 
L 2375 4863 
z
" transform="scale(0.015625)"/>
       <path id="DejaVuSans-70" d="M 1159 525 
L 1159 -1331 
L 581 -1331 
L 581 3500 
L 1159 3500 
L 1159 2969 
Q 1341 3281 1617 3432 
Q 1894 3584 2278 3584 
Q 2916 3584 3314 3078 
Q 3713 2572 3713 1747 
Q 3713 922 3314 415 
Q 2916 -91 2278 -91 
Q 1894 -91 1617 61 
Q 1341 213 1159 525 
z
M 3116 1747 
Q 3116 2381 2855 2742 
Q 2594 3103 2138 3103 
Q 1681 3103 1420 2742 
Q 1159 2381 1159 1747 
Q 1159 1113 1420 752 
Q 1681 391 2138 391 
Q 2594 391 2855 752 
Q 3116 1113 3116 1747 
z
" transform="scale(0.015625)"/>
       <path id="DejaVuSans-69" d="M 603 3500 
L 1178 3500 
L 1178 0 
L 603 0 
L 603 3500 
z
M 603 4863 
L 1178 4863 
L 1178 4134 
L 603 4134 
L 603 4863 
z
" transform="scale(0.015625)"/>
       <path id="DejaVuSans-2d" d="M 313 2009 
L 1997 2009 
L 1997 1497 
L 313 1497 
L 313 2009 
z
" transform="scale(0.015625)"/>
       <path id="DejaVuSans-6e" d="M 3513 2113 
L 3513 0 
L 2938 0 
L 2938 2094 
Q 2938 2591 2744 2837 
Q 2550 3084 2163 3084 
Q 1697 3084 1428 2787 
Q 1159 2491 1159 1978 
L 1159 0 
L 581 0 
L 581 3500 
L 1159 3500 
L 1159 2956 
Q 1366 3272 1645 3428 
Q 1925 3584 2291 3584 
Q 2894 3584 3203 3211 
Q 3513 2838 3513 2113 
z
" transform="scale(0.015625)"/>
       <path id="DejaVuSans-73" d="M 2834 3397 
L 2834 2853 
Q 2591 2978 2328 3040 
Q 2066 3103 1784 3103 
Q 1356 3103 1142 2972 
Q 928 2841 928 2578 
Q 928 2378 1081 2264 
Q 1234 2150 1697 2047 
L 1894 2003 
Q 2506 1872 2764 1633 
Q 3022 1394 3022 966 
Q 3022 478 2636 193 
Q 2250 -91 1575 -91 
Q 1294 -91 989 -36 
Q 684 19 347 128 
L 347 722 
Q 666 556 975 473 
Q 1284 391 1588 391 
Q 1994 391 2212 530 
Q 2431 669 2431 922 
Q 2431 1156 2273 1281 
Q 2116 1406 1581 1522 
L 1381 1569 
Q 847 1681 609 1914 
Q 372 2147 372 2553 
Q 372 3047 722 3315 
Q 1072 3584 1716 3584 
Q 2034 3584 2315 3537 
Q 2597 3491 2834 3397 
z
" transform="scale(0.015625)"/>
       <path id="DejaVuSans-74" d="M 1172 4494 
L 1172 3500 
L 2356 3500 
L 2356 3053 
L 1172 3053 
L 1172 1153 
Q 1172 725 1289 603 
Q 1406 481 1766 481 
L 2356 481 
L 2356 0 
L 1766 0 
Q 1100 0 847 248 
Q 594 497 594 1153 
L 594 3053 
L 172 3053 
L 172 3500 
L 594 3500 
L 594 4494 
L 1172 4494 
z
" transform="scale(0.015625)"/>
       <path id="DejaVuSans-61" d="M 2194 1759 
Q 1497 1759 1228 1600 
Q 959 1441 959 1056 
Q 959 750 1161 570 
Q 1363 391 1709 391 
Q 2188 391 2477 730 
Q 2766 1069 2766 1631 
L 2766 1759 
L 2194 1759 
z
M 3341 1997 
L 3341 0 
L 2766 0 
L 2766 531 
Q 2569 213 2275 61 
Q 1981 -91 1556 -91 
Q 1019 -91 701 211 
Q 384 513 384 1019 
Q 384 1609 779 1909 
Q 1175 2209 1959 2209 
L 2766 2209 
L 2766 2266 
Q 2766 2663 2505 2880 
Q 2244 3097 1772 3097 
Q 1472 3097 1187 3025 
Q 903 2953 641 2809 
L 641 3341 
Q 956 3463 1253 3523 
Q 1550 3584 1831 3584 
Q 2591 3584 2966 3190 
Q 3341 2797 3341 1997 
z
" transform="scale(0.015625)"/>
       <path id="DejaVuSans-6c" d="M 603 4863 
L 1178 4863 
L 1178 0 
L 603 0 
L 603 4863 
z
" transform="scale(0.015625)"/>
       <path id="DejaVuSans-68" d="M 3513 2113 
L 3513 0 
L 2938 0 
L 2938 2094 
Q 2938 2591 2744 2837 
Q 2550 3084 2163 3084 
Q 1697 3084 1428 2787 
Q 1159 2491 1159 1978 
L 1159 0 
L 581 0 
L 581 4863 
L 1159 4863 
L 1159 2956 
Q 1366 3272 1645 3428 
Q 1925 3584 2291 3584 
Q 2894 3584 3203 3211 
Q 3513 2838 3513 2113 
z
" transform="scale(0.015625)"/>
      </defs>
      <use xlink:href="#DejaVuSans-4e"/>
      <use xlink:href="#DejaVuSans-75" x="74.804688"/>
      <use xlink:href="#DejaVuSans-6d" x="138.183594"/>
      <use xlink:href="#DejaVuSans-62" x="235.595703"/>
      <use xlink:href="#DejaVuSans-65" x="299.072266"/>
      <use xlink:href="#DejaVuSans-72" x="360.595703"/>
      <use xlink:href="#DejaVuSans-20" x="401.708984"/>
      <use xlink:href="#DejaVuSans-6f" x="433.496094"/>
      <use xlink:href="#DejaVuSans-66" x="494.677734"/>
      <use xlink:href="#DejaVuSans-20" x="529.882812"/>
      <use xlink:href="#DejaVuSans-70" x="561.669922"/>
      <use xlink:href="#DejaVuSans-69" x="625.146484"/>
      <use xlink:href="#DejaVuSans-70" x="652.929688"/>
      <use xlink:href="#DejaVuSans-2d" x="716.40625"/>
      <use xlink:href="#DejaVuSans-69" x="752.490234"/>
      <use xlink:href="#DejaVuSans-6e" x="780.273438"/>
      <use xlink:href="#DejaVuSans-73" x="843.652344"/>
      <use xlink:href="#DejaVuSans-74" x="895.751953"/>
      <use xlink:href="#DejaVuSans-61" x="934.960938"/>
      <use xlink:href="#DejaVuSans-6c" x="996.240234"/>
      <use xlink:href="#DejaVuSans-6c" x="1024.023438"/>
      <use xlink:href="#DejaVuSans-73" x="1051.806641"/>
      <use xlink:href="#DejaVuSans-20" x="1103.90625"/>
      <use xlink:href="#DejaVuSans-70" x="1135.693359"/>
      <use xlink:href="#DejaVuSans-65" x="1199.169922"/>
      <use xlink:href="#DejaVuSans-72" x="1260.693359"/>
      <use xlink:href="#DejaVuSans-20" x="1301.806641"/>
      <use xlink:href="#DejaVuSans-6d" x="1333.59375"/>
      <use xlink:href="#DejaVuSans-6f" x="1431.005859"/>
      <use xlink:href="#DejaVuSans-6e" x="1492.1875"/>
      <use xlink:href="#DejaVuSans-74" x="1555.566406"/>
      <use xlink:href="#DejaVuSans-68" x="1594.775391"/>
     </g>
    </g>
   </g>
   <g id="line2d_29">
    <path d="M 85.536 319.91952 
L 97.44 319.80864 
L 103.392 319.99344 
L 106.368 319.67928 
L 121.248 318.95856 
L 127.2 319.3836 
L 130.176 319.54992 
L 139.104 319.49448 
L 145.056 319.23576 
L 148.032 319.27272 
L 156.96 318.57048 
L 162.912 318.47808 
L 165.888 318.21936 
L 168.864 317.38776 
L 177.792 315.57672 
L 183.744 313.98744 
L 186.72 313.6548 
L 189.696 313.82112 
L 192.672 313.78416 
L 195.648 314.54184 
L 198.624 314.52336 
L 201.6 315.02232 
L 204.576 315.37344 
L 207.552 314.81904 
L 210.528 314.65272 
L 213.504 313.54392 
L 216.48 312.97104 
L 219.456 310.58712 
L 225.408 309.16416 
L 228.384 308.70216 
L 231.36 308.9424 
L 234.336 309.4044 
L 237.312 310.99368 
L 240.288 311.47416 
L 243.264 312.25032 
L 246.24 312.23184 
L 249.216 311.78832 
L 252.192 311.21544 
L 255.168 311.30784 
L 258.144 311.5296 
L 261.12 311.40024 
L 264.096 311.40024 
L 267.072 311.58504 
L 270.048 311.27088 
L 273.024 310.77192 
L 276 308.36952 
L 278.976 296.70864 
L 284.928 288.66984 
L 287.904 283.42152 
L 290.88 277.63728 
L 293.856 270.8736 
L 296.832 268.71144 
L 302.784 244.74288 
L 305.76 235.90944 
L 308.736 224.78448 
L 311.712 223.69416 
L 314.688 220.92216 
L 317.664 228.72072 
L 320.64 236.98128 
L 323.616 232.8048 
L 326.592 234.06144 
L 329.568 222.88104 
L 332.544 218.31648 
L 335.52 211.03536 
L 338.496 199.59624 
L 341.472 202.79328 
L 344.448 203.68032 
L 347.424 212.08872 
L 350.4 213.73344 
L 353.376 213.23448 
L 356.352 200.90832 
L 359.328 197.80368 
L 362.304 192.55536 
L 365.28 169.39992 
L 368.256 153.54408 
L 371.232 143.0844 
L 374.208 153.02664 
L 377.184 149.07192 
L 380.16 148.4436 
L 383.136 158.31192 
L 386.112 158.27496 
L 389.088 160.4556 
L 392.064 148.75776 
L 395.04 144.84 
L 398.016 140.62656 
L 400.992 136.09896 
L 403.968 150.5688 
L 406.944 152.7864 
L 409.92 162.858 
L 412.896 164.00376 
L 415.872 168.08784 
L 418.848 174.81456 
L 421.824 176.42232 
L 424.8 175.18416 
L 427.776 158.9772 
L 430.752 165.9996 
L 433.728 170.47176 
L 436.704 173.26224 
L 439.68 163.63416 
L 442.656 142.77024 
L 445.632 138.42744 
L 448.608 117.87768 
L 451.584 101.98488 
L 454.56 88.23576 
L 457.536 95.46144 
L 460.512 105.05256 
L 463.488 128.37432 
L 466.464 131.84856 
L 469.44 126.9144 
L 472.416 140.38632 
L 475.392 129.66792 
L 478.368 129.02112 
L 481.344 117.45264 
L 484.32 126.21216 
L 487.296 140.23848 
L 490.272 140.53416 
L 496.224 171.76536 
L 499.2 178.54752 
L 502.176 185.73624 
L 505.152 192.44448 
L 508.128 200.1876 
L 511.104 205.86096 
L 514.08 213.82584 
L 520.032 239.088 
L 523.008 242.52528 
L 525.984 244.50264 
L 528.96 243.94824 
L 531.936 241.25016 
L 534.912 241.47192 
L 537.888 235.18872 
L 540.864 234.8376 
L 543.84 225.63456 
L 546.816 214.67592 
L 549.792 214.19544 
L 552.768 211.70064 
L 555.744 215.4336 
L 558.72 218.55672 
L 564.672 240.97296 
L 567.648 244.632 
L 570.624 249.19656 
L 573.6 247.79208 
L 576.576 247.42248 
L 579.552 246.33216 
L 582.528 250.89672 
L 585.504 251.34024 
L 588.48 247.51488 
L 591.456 244.57656 
L 594.432 242.0448 
L 597.408 240.89904 
L 600.384 237.6096 
L 603.36 237.16608 
L 609.312 242.48832 
L 612.288 242.15568 
L 615.264 233.11896 
L 618.24 223.26912 
L 621.216 208.76232 
L 624.192 173.13288 
L 627.168 153.76584 
L 630.144 151.4928 
L 633.12 143.06592 
L 636.096 134.04768 
L 639.072 133.89984 
L 642.048 142.41912 
L 645.024 134.1216 
L 648 119.892 
L 650.976 116.34384 
L 653.952 118.57992 
L 656.928 124.53048 
L 659.904 146.55864 
L 659.904 146.55864 
" clip-path="url(#pf51e6fa8d2)" style="fill: none; stroke-dasharray: 1.5,2.475; stroke-dashoffset: 0; stroke: #1f77b4; stroke-width: 1.5"/>
   </g>
   <g id="line2d_30">
    <path d="M 85.536 320.32608 
L 115.296 320.4 
L 659.904 320.4 
L 659.904 320.4 
" clip-path="url(#pf51e6fa8d2)" style="fill: none; stroke: #ff7f0e; stroke-width: 1.5; stroke-linecap: square"/>
   </g>
   <g id="line2d_31">
    <path d="M 85.536 319.99344 
L 97.44 319.80864 
L 103.392 319.99344 
L 106.368 319.67928 
L 121.248 318.95856 
L 127.2 319.3836 
L 130.176 319.54992 
L 139.104 319.49448 
L 145.056 319.23576 
L 148.032 319.27272 
L 156.96 318.57048 
L 165.888 318.51504 
L 174.816 319.82712 
L 180.768 320.28912 
L 186.72 320.38152 
L 204.576 320.38152 
L 207.552 320.19672 
L 222.432 320.19672 
L 225.408 320.38152 
L 243.264 320.38152 
L 430.752 320.27064 
L 439.68 320.2152 
L 451.584 320.34456 
L 463.488 320.38152 
L 493.248 320.4 
L 496.224 320.25216 
L 511.104 320.25216 
L 514.08 320.38152 
L 520.032 320.3076 
L 659.904 320.4 
L 659.904 320.4 
" clip-path="url(#pf51e6fa8d2)" style="fill: none; stroke: #2ca02c; stroke-width: 1.5; stroke-linecap: square"/>
   </g>
   <g id="line2d_32">
    <path d="M 85.536 320.4 
L 162.912 320.34456 
L 165.888 320.10432 
L 168.864 318.8292 
L 180.768 314.92992 
L 183.744 314.00592 
L 186.72 313.67328 
L 189.696 313.8396 
L 192.672 313.82112 
L 195.648 314.5788 
L 198.624 314.54184 
L 201.6 315.0408 
L 204.576 315.39192 
L 207.552 315.02232 
L 210.528 314.856 
L 213.504 313.7472 
L 216.48 313.17432 
L 219.456 310.7904 
L 225.408 309.18264 
L 228.384 308.70216 
L 231.36 308.9424 
L 234.336 309.4044 
L 237.312 310.99368 
L 240.288 311.47416 
L 243.264 312.2688 
L 246.24 312.25032 
L 249.216 311.8068 
L 252.192 311.23392 
L 255.168 311.32632 
L 258.144 311.54808 
L 261.12 311.40024 
L 264.096 311.40024 
L 267.072 311.58504 
L 270.048 311.27088 
L 273.024 310.77192 
L 276 308.36952 
L 278.976 296.70864 
L 284.928 288.66984 
L 287.904 283.42152 
L 290.88 277.63728 
L 293.856 270.8736 
L 296.832 268.71144 
L 302.784 244.74288 
L 305.76 235.90944 
L 308.736 224.78448 
L 311.712 223.69416 
L 314.688 220.92216 
L 317.664 228.72072 
L 320.64 236.98128 
L 323.616 232.8048 
L 326.592 234.06144 
L 329.568 222.88104 
L 332.544 218.31648 
L 335.52 211.03536 
L 338.496 199.59624 
L 341.472 202.79328 
L 344.448 203.68032 
L 347.424 212.08872 
L 350.4 213.73344 
L 353.376 213.34536 
L 356.352 201.03768 
L 359.328 197.97 
L 362.304 192.888 
L 365.28 170.45328 
L 368.256 155.928 
L 371.232 147.55656 
L 374.208 160.60344 
L 377.184 162.74712 
L 380.16 165.18648 
L 383.136 178.95408 
L 386.112 185.84712 
L 389.088 189.08112 
L 392.064 176.45928 
L 395.04 172.1904 
L 398.016 171.59904 
L 400.992 171.636 
L 403.968 182.46528 
L 406.944 189.82032 
L 409.92 205.87944 
L 412.896 208.09704 
L 415.872 214.08456 
L 418.848 221.9016 
L 421.824 229.09032 
L 424.8 230.42088 
L 427.776 224.72904 
L 430.752 236.37144 
L 433.728 239.88264 
L 436.704 241.93392 
L 439.68 235.392 
L 442.656 225.06168 
L 445.632 223.43544 
L 448.608 211.88544 
L 451.584 206.72952 
L 454.56 203.01504 
L 457.536 209.02104 
L 460.512 215.82168 
L 463.488 230.25456 
L 466.464 236.64864 
L 469.44 240.97296 
L 472.416 251.21088 
L 475.392 252.09792 
L 478.368 258.38112 
L 481.344 258.71376 
L 484.32 261.74448 
L 487.296 265.03392 
L 490.272 266.10576 
L 493.248 272.00088 
L 499.2 280.16904 
L 502.176 287.3208 
L 505.152 289.61232 
L 508.128 292.7724 
L 511.104 295.00848 
L 514.08 300.58944 
L 517.056 303.37992 
L 520.032 305.0616 
L 523.008 304.34088 
L 525.984 301.42104 
L 528.96 299.81328 
L 531.936 297.28152 
L 534.912 294.32472 
L 537.888 293.19744 
L 540.864 297.33696 
L 543.84 299.29584 
L 546.816 300.51552 
L 549.792 301.60584 
L 552.768 304.11912 
L 555.744 305.04312 
L 558.72 305.00616 
L 561.696 306.24432 
L 564.672 305.616 
L 567.648 306.02256 
L 570.624 306.15192 
L 573.6 305.17248 
L 576.576 304.692 
L 579.552 304.7844 
L 582.528 306.00408 
L 585.504 305.87472 
L 588.48 303.91584 
L 591.456 303.41688 
L 594.432 303.9528 
L 597.408 303.36144 
L 600.384 302.91792 
L 603.36 301.29168 
L 609.312 304.7844 
L 612.288 305.09856 
L 615.264 306.05952 
L 618.24 306.8172 
L 621.216 309.60768 
L 624.192 309.38592 
L 627.168 308.16624 
L 630.144 308.97936 
L 633.12 305.50512 
L 636.096 304.67352 
L 639.072 304.95072 
L 642.048 305.72688 
L 645.024 306.74328 
L 648 305.26488 
L 650.976 306.96504 
L 653.952 306.00408 
L 656.928 304.89528 
L 659.904 304.98768 
L 659.904 304.98768 
" clip-path="url(#pf51e6fa8d2)" style="fill: none; stroke: #d62728; stroke-width: 1.5; stroke-linecap: square"/>
   </g>
   <g id="line2d_33">
    <path d="M 85.536 320.4 
L 353.376 320.28912 
L 359.328 320.23368 
L 362.304 320.06736 
L 365.28 319.34664 
L 368.256 318.01608 
L 371.232 315.92784 
L 374.208 312.8232 
L 377.184 306.7248 
L 380.16 303.65712 
L 383.136 299.75784 
L 386.112 292.82784 
L 389.088 291.77448 
L 392.064 292.69848 
L 395.04 293.0496 
L 398.016 289.42752 
L 400.992 284.86296 
L 403.968 288.50352 
L 406.944 283.45848 
L 409.92 277.47096 
L 412.896 276.39912 
L 415.872 274.49568 
L 418.848 273.40536 
L 421.824 267.8244 
L 424.8 265.27416 
L 427.776 254.75904 
L 430.752 250.15752 
L 433.728 251.17392 
L 436.704 251.91312 
L 439.68 248.82696 
L 442.656 238.23792 
L 445.632 235.52136 
L 448.608 226.50312 
L 451.584 215.7108 
L 454.56 205.69464 
L 457.536 206.91432 
L 460.512 209.64936 
L 463.488 218.53824 
L 466.464 215.6184 
L 469.44 206.35992 
L 472.416 209.57544 
L 475.392 197.97 
L 478.368 191.04 
L 481.344 179.13888 
L 484.32 184.86768 
L 487.296 195.60456 
L 490.272 194.8284 
L 493.248 204.45648 
L 496.224 216.30216 
L 499.2 218.92632 
L 502.176 218.96328 
L 508.128 227.96304 
L 511.104 231.40032 
L 514.08 233.65488 
L 517.056 243.8004 
L 520.032 254.5188 
L 523.008 258.6768 
L 525.984 263.574 
L 528.96 264.62736 
L 531.936 264.44256 
L 534.912 267.5472 
L 537.888 262.39128 
L 540.864 257.90064 
L 543.84 246.73872 
L 546.816 234.5604 
L 549.792 232.9896 
L 552.768 227.98152 
L 555.744 230.79048 
L 558.72 233.96904 
L 561.696 244.13304 
L 564.672 255.77544 
L 567.648 259.02792 
L 570.624 263.46312 
L 573.6 263.03808 
L 576.576 263.13048 
L 579.552 261.94776 
L 582.528 265.3296 
L 585.504 266.29056 
L 588.48 264.79368 
L 591.456 262.76088 
L 594.432 260.11824 
L 597.408 260.00736 
L 600.384 257.8452 
L 603.36 259.28664 
L 606.336 260.39544 
L 609.312 261.37488 
L 612.288 261.09768 
L 615.264 251.45112 
L 618.24 240.69576 
L 621.216 223.2876 
L 624.192 190.0236 
L 627.168 195.49368 
L 630.144 205.12176 
L 633.12 218.6676 
L 636.096 234.3756 
L 639.072 256.88424 
L 642.048 293.2344 
L 645.024 288.3372 
L 648 282.73776 
L 650.976 285.12168 
L 653.952 284.71512 
L 656.928 284.60424 
L 659.904 287.598 
L 659.904 287.598 
" clip-path="url(#pf51e6fa8d2)" style="fill: none; stroke: #9467bd; stroke-width: 1.5; stroke-linecap: square"/>
   </g>
   <g id="line2d_34">
    <path d="M 85.536 320.4 
L 582.528 320.36304 
L 597.408 318.33024 
L 600.384 317.64648 
L 603.36 317.38776 
L 609.312 317.12904 
L 615.264 316.40832 
L 621.216 316.66704 
L 624.192 314.52336 
L 627.168 290.90592 
L 630.144 278.19168 
L 633.12 259.6932 
L 636.096 235.79856 
L 639.072 212.86488 
L 642.048 184.25784 
L 645.024 179.84112 
L 648 172.68936 
L 650.976 165.05712 
L 653.952 168.66072 
L 656.928 175.83096 
L 659.904 194.77296 
L 659.904 194.77296 
" clip-path="url(#pf51e6fa8d2)" style="fill: none; stroke: #8c564b; stroke-width: 1.5; stroke-linecap: square"/>
   </g>
   <g id="line2d_35">
    <path d="M 408.1344 320.4 
L 408.1344 43.2 
" clip-path="url(#pf51e6fa8d2)" style="fill: none; stroke-dasharray: 1.5,2.475; stroke-dashoffset: 0; stroke: #808080; stroke-width: 1.5"/>
   </g>
   <g id="line2d_36">
    <path d="M 626.5728 320.4 
L 626.5728 43.2 
" clip-path="url(#pf51e6fa8d2)" style="fill: none; stroke-dasharray: 1.5,2.475; stroke-dashoffset: 0; stroke: #808080; stroke-width: 1.5"/>
   </g>
   <g id="patch_3">
    <path d="M 90 320.4 
L 90 43.2 
" style="fill: none; stroke: #000000; stroke-width: 0.8; stroke-linejoin: miter; stroke-linecap: square"/>
   </g>
   <g id="patch_4">
    <path d="M 648 320.4 
L 648 43.2 
" style="fill: none; stroke: #000000; stroke-width: 0.8; stroke-linejoin: miter; stroke-linecap: square"/>
   </g>
   <g id="patch_5">
    <path d="M 90 320.4 
L 648 320.4 
" style="fill: none; stroke: #000000; stroke-width: 0.8; stroke-linejoin: miter; stroke-linecap: square"/>
   </g>
   <g id="patch_6">
    <path d="M 90 43.2 
L 648 43.2 
" style="fill: none; stroke: #000000; stroke-width: 0.8; stroke-linejoin: miter; stroke-linecap: square"/>
   </g>
   <g id="text_14">
    <!-- release date -->
    <g transform="translate(405.316837 129.734531) rotate(-90) scale(0.1 -0.1)">
     <defs>
      <path id="DejaVuSans-64" d="M 2906 2969 
L 2906 4863 
L 3481 4863 
L 3481 0 
L 2906 0 
L 2906 525 
Q 2725 213 2448 61 
Q 2172 -91 1784 -91 
Q 1150 -91 751 415 
Q 353 922 353 1747 
Q 353 2572 751 3078 
Q 1150 3584 1784 3584 
Q 2172 3584 2448 3432 
Q 2725 3281 2906 2969 
z
M 947 1747 
Q 947 1113 1208 752 
Q 1469 391 1925 391 
Q 2381 391 2643 752 
Q 2906 1113 2906 1747 
Q 2906 2381 2643 2742 
Q 2381 3103 1925 3103 
Q 1469 3103 1208 2742 
Q 947 2381 947 1747 
z
" transform="scale(0.015625)"/>
     </defs>
     <use xlink:href="#DejaVuSans-72"/>
     <use xlink:href="#DejaVuSans-65" x="38.863281"/>
     <use xlink:href="#DejaVuSans-6c" x="100.386719"/>
     <use xlink:href="#DejaVuSans-65" x="128.169922"/>
     <use xlink:href="#DejaVuSans-61" x="189.693359"/>
     <use xlink:href="#DejaVuSans-73" x="250.972656"/>
     <use xlink:href="#DejaVuSans-65" x="303.072266"/>
     <use xlink:href="#DejaVuSans-20" x="364.595703"/>
     <use xlink:href="#DejaVuSans-64" x="396.382812"/>
     <use xlink:href="#DejaVuSans-61" x="459.859375"/>
     <use xlink:href="#DejaVuSans-74" x="521.138672"/>
     <use xlink:href="#DejaVuSans-65" x="560.347656"/>
    </g>
   </g>
   <g id="text_15">
    <!-- release date -->
    <g transform="translate(623.755237 129.734531) rotate(-90) scale(0.1 -0.1)">
     <use xlink:href="#DejaVuSans-72"/>
     <use xlink:href="#DejaVuSans-65" x="38.863281"/>
     <use xlink:href="#DejaVuSans-6c" x="100.386719"/>
     <use xlink:href="#DejaVuSans-65" x="128.169922"/>
     <use xlink:href="#DejaVuSans-61" x="189.693359"/>
     <use xlink:href="#DejaVuSans-73" x="250.972656"/>
     <use xlink:href="#DejaVuSans-65" x="303.072266"/>
     <use xlink:href="#DejaVuSans-20" x="364.595703"/>
     <use xlink:href="#DejaVuSans-64" x="396.382812"/>
     <use xlink:href="#DejaVuSans-61" x="459.859375"/>
     <use xlink:href="#DejaVuSans-74" x="521.138672"/>
     <use xlink:href="#DejaVuSans-65" x="560.347656"/>
    </g>
   </g>
   <g id="text_16">
    <!-- MacOS and Windows (i.e. no batch jobs) -->
    <g transform="translate(248.265 37.2) scale(0.12 -0.12)">
     <defs>
      <path id="DejaVuSans-4d" d="M 628 4666 
L 1569 4666 
L 2759 1491 
L 3956 4666 
L 4897 4666 
L 4897 0 
L 4281 0 
L 4281 4097 
L 3078 897 
L 2444 897 
L 1241 4097 
L 1241 0 
L 628 0 
L 628 4666 
z
" transform="scale(0.015625)"/>
      <path id="DejaVuSans-63" d="M 3122 3366 
L 3122 2828 
Q 2878 2963 2633 3030 
Q 2388 3097 2138 3097 
Q 1578 3097 1268 2742 
Q 959 2388 959 1747 
Q 959 1106 1268 751 
Q 1578 397 2138 397 
Q 2388 397 2633 464 
Q 2878 531 3122 666 
L 3122 134 
Q 2881 22 2623 -34 
Q 2366 -91 2075 -91 
Q 1284 -91 818 406 
Q 353 903 353 1747 
Q 353 2603 823 3093 
Q 1294 3584 2113 3584 
Q 2378 3584 2631 3529 
Q 2884 3475 3122 3366 
z
" transform="scale(0.015625)"/>
      <path id="DejaVuSans-4f" d="M 2522 4238 
Q 1834 4238 1429 3725 
Q 1025 3213 1025 2328 
Q 1025 1447 1429 934 
Q 1834 422 2522 422 
Q 3209 422 3611 934 
Q 4013 1447 4013 2328 
Q 4013 3213 3611 3725 
Q 3209 4238 2522 4238 
z
M 2522 4750 
Q 3503 4750 4090 4092 
Q 4678 3434 4678 2328 
Q 4678 1225 4090 567 
Q 3503 -91 2522 -91 
Q 1538 -91 948 565 
Q 359 1222 359 2328 
Q 359 3434 948 4092 
Q 1538 4750 2522 4750 
z
" transform="scale(0.015625)"/>
      <path id="DejaVuSans-53" d="M 3425 4513 
L 3425 3897 
Q 3066 4069 2747 4153 
Q 2428 4238 2131 4238 
Q 1616 4238 1336 4038 
Q 1056 3838 1056 3469 
Q 1056 3159 1242 3001 
Q 1428 2844 1947 2747 
L 2328 2669 
Q 3034 2534 3370 2195 
Q 3706 1856 3706 1288 
Q 3706 609 3251 259 
Q 2797 -91 1919 -91 
Q 1588 -91 1214 -16 
Q 841 59 441 206 
L 441 856 
Q 825 641 1194 531 
Q 1563 422 1919 422 
Q 2459 422 2753 634 
Q 3047 847 3047 1241 
Q 3047 1584 2836 1778 
Q 2625 1972 2144 2069 
L 1759 2144 
Q 1053 2284 737 2584 
Q 422 2884 422 3419 
Q 422 4038 858 4394 
Q 1294 4750 2059 4750 
Q 2388 4750 2728 4690 
Q 3069 4631 3425 4513 
z
" transform="scale(0.015625)"/>
      <path id="DejaVuSans-57" d="M 213 4666 
L 850 4666 
L 1831 722 
L 2809 4666 
L 3519 4666 
L 4500 722 
L 5478 4666 
L 6119 4666 
L 4947 0 
L 4153 0 
L 3169 4050 
L 2175 0 
L 1381 0 
L 213 4666 
z
" transform="scale(0.015625)"/>
      <path id="DejaVuSans-77" d="M 269 3500 
L 844 3500 
L 1563 769 
L 2278 3500 
L 2956 3500 
L 3675 769 
L 4391 3500 
L 4966 3500 
L 4050 0 
L 3372 0 
L 2619 2869 
L 1863 0 
L 1184 0 
L 269 3500 
z
" transform="scale(0.015625)"/>
      <path id="DejaVuSans-28" d="M 1984 4856 
Q 1566 4138 1362 3434 
Q 1159 2731 1159 2009 
Q 1159 1288 1364 580 
Q 1569 -128 1984 -844 
L 1484 -844 
Q 1016 -109 783 600 
Q 550 1309 550 2009 
Q 550 2706 781 3412 
Q 1013 4119 1484 4856 
L 1984 4856 
z
" transform="scale(0.015625)"/>
      <path id="DejaVuSans-2e" d="M 684 794 
L 1344 794 
L 1344 0 
L 684 0 
L 684 794 
z
" transform="scale(0.015625)"/>
      <path id="DejaVuSans-6a" d="M 603 3500 
L 1178 3500 
L 1178 -63 
Q 1178 -731 923 -1031 
Q 669 -1331 103 -1331 
L -116 -1331 
L -116 -844 
L 38 -844 
Q 366 -844 484 -692 
Q 603 -541 603 -63 
L 603 3500 
z
M 603 4863 
L 1178 4863 
L 1178 4134 
L 603 4134 
L 603 4863 
z
" transform="scale(0.015625)"/>
      <path id="DejaVuSans-29" d="M 513 4856 
L 1013 4856 
Q 1481 4119 1714 3412 
Q 1947 2706 1947 2009 
Q 1947 1309 1714 600 
Q 1481 -109 1013 -844 
L 513 -844 
Q 928 -128 1133 580 
Q 1338 1288 1338 2009 
Q 1338 2731 1133 3434 
Q 928 4138 513 4856 
z
" transform="scale(0.015625)"/>
     </defs>
     <use xlink:href="#DejaVuSans-4d"/>
     <use xlink:href="#DejaVuSans-61" x="86.279297"/>
     <use xlink:href="#DejaVuSans-63" x="147.558594"/>
     <use xlink:href="#DejaVuSans-4f" x="202.539062"/>
     <use xlink:href="#DejaVuSans-53" x="281.25"/>
     <use xlink:href="#DejaVuSans-20" x="344.726562"/>
     <use xlink:href="#DejaVuSans-61" x="376.513672"/>
     <use xlink:href="#DejaVuSans-6e" x="437.792969"/>
     <use xlink:href="#DejaVuSans-64" x="501.171875"/>
     <use xlink:href="#DejaVuSans-20" x="564.648438"/>
     <use xlink:href="#DejaVuSans-57" x="596.435547"/>
     <use xlink:href="#DejaVuSans-69" x="693.0625"/>
     <use xlink:href="#DejaVuSans-6e" x="720.845703"/>
     <use xlink:href="#DejaVuSans-64" x="784.224609"/>
     <use xlink:href="#DejaVuSans-6f" x="847.701172"/>
     <use xlink:href="#DejaVuSans-77" x="908.882812"/>
     <use xlink:href="#DejaVuSans-73" x="990.669922"/>
     <use xlink:href="#DejaVuSans-20" x="1042.769531"/>
     <use xlink:href="#DejaVuSans-28" x="1074.556641"/>
     <use xlink:href="#DejaVuSans-69" x="1113.570312"/>
     <use xlink:href="#DejaVuSans-2e" x="1141.353516"/>
     <use xlink:href="#DejaVuSans-65" x="1173.140625"/>
     <use xlink:href="#DejaVuSans-2e" x="1234.664062"/>
     <use xlink:href="#DejaVuSans-20" x="1266.451172"/>
     <use xlink:href="#DejaVuSans-6e" x="1298.238281"/>
     <use xlink:href="#DejaVuSans-6f" x="1361.617188"/>
     <use xlink:href="#DejaVuSans-20" x="1422.798828"/>
     <use xlink:href="#DejaVuSans-62" x="1454.585938"/>
     <use xlink:href="#DejaVuSans-61" x="1518.0625"/>
     <use xlink:href="#DejaVuSans-74" x="1579.341797"/>
     <use xlink:href="#DejaVuSans-63" x="1618.550781"/>
     <use xlink:href="#DejaVuSans-68" x="1673.53125"/>
     <use xlink:href="#DejaVuSans-20" x="1736.910156"/>
     <use xlink:href="#DejaVuSans-6a" x="1768.697266"/>
     <use xlink:href="#DejaVuSans-6f" x="1796.480469"/>
     <use xlink:href="#DejaVuSans-62" x="1857.662109"/>
     <use xlink:href="#DejaVuSans-73" x="1921.138672"/>
     <use xlink:href="#DejaVuSans-29" x="1973.238281"/>
    </g>
   </g>
   <g id="legend_1">
    <g id="patch_7">
     <path d="M 97 139.26875 
L 230.390625 139.26875 
Q 232.390625 139.26875 232.390625 137.26875 
L 232.390625 50.2 
Q 232.390625 48.2 230.390625 48.2 
L 97 48.2 
Q 95 48.2 95 50.2 
L 95 137.26875 
Q 95 139.26875 97 139.26875 
z
" style="fill: #ffffff; opacity: 0.8; stroke: #cccccc; stroke-linejoin: miter"/>
    </g>
    <g id="line2d_37">
     <path d="M 99 56.298437 
L 109 56.298437 
L 119 56.298437 
" style="fill: none; stroke-dasharray: 1.5,2.475; stroke-dashoffset: 0; stroke: #1f77b4; stroke-width: 1.5"/>
    </g>
    <g id="text_17">
     <!-- Uproot (all versions) -->
     <g transform="translate(127 59.798437) scale(0.1 -0.1)">
      <defs>
       <path id="DejaVuSans-55" d="M 556 4666 
L 1191 4666 
L 1191 1831 
Q 1191 1081 1462 751 
Q 1734 422 2344 422 
Q 2950 422 3222 751 
Q 3494 1081 3494 1831 
L 3494 4666 
L 4128 4666 
L 4128 1753 
Q 4128 841 3676 375 
Q 3225 -91 2344 -91 
Q 1459 -91 1007 375 
Q 556 841 556 1753 
L 556 4666 
z
" transform="scale(0.015625)"/>
       <path id="DejaVuSans-76" d="M 191 3500 
L 800 3500 
L 1894 563 
L 2988 3500 
L 3597 3500 
L 2284 0 
L 1503 0 
L 191 3500 
z
" transform="scale(0.015625)"/>
      </defs>
      <use xlink:href="#DejaVuSans-55"/>
      <use xlink:href="#DejaVuSans-70" x="73.193359"/>
      <use xlink:href="#DejaVuSans-72" x="136.669922"/>
      <use xlink:href="#DejaVuSans-6f" x="175.533203"/>
      <use xlink:href="#DejaVuSans-6f" x="236.714844"/>
      <use xlink:href="#DejaVuSans-74" x="297.896484"/>
      <use xlink:href="#DejaVuSans-20" x="337.105469"/>
      <use xlink:href="#DejaVuSans-28" x="368.892578"/>
      <use xlink:href="#DejaVuSans-61" x="407.90625"/>
      <use xlink:href="#DejaVuSans-6c" x="469.185547"/>
      <use xlink:href="#DejaVuSans-6c" x="496.96875"/>
      <use xlink:href="#DejaVuSans-20" x="524.751953"/>
      <use xlink:href="#DejaVuSans-76" x="556.539062"/>
      <use xlink:href="#DejaVuSans-65" x="615.71875"/>
      <use xlink:href="#DejaVuSans-72" x="677.242188"/>
      <use xlink:href="#DejaVuSans-73" x="718.355469"/>
      <use xlink:href="#DejaVuSans-69" x="770.455078"/>
      <use xlink:href="#DejaVuSans-6f" x="798.238281"/>
      <use xlink:href="#DejaVuSans-6e" x="859.419922"/>
      <use xlink:href="#DejaVuSans-73" x="922.798828"/>
      <use xlink:href="#DejaVuSans-29" x="974.898438"/>
     </g>
    </g>
    <g id="line2d_38">
     <path d="M 99 70.976562 
L 109 70.976562 
L 119 70.976562 
" style="fill: none; stroke: #ff7f0e; stroke-width: 1.5; stroke-linecap: square"/>
    </g>
    <g id="text_18">
     <!-- Uproot 1.x -->
     <g transform="translate(127 74.476562) scale(0.1 -0.1)">
      <defs>
       <path id="DejaVuSans-78" d="M 3513 3500 
L 2247 1797 
L 3578 0 
L 2900 0 
L 1881 1375 
L 863 0 
L 184 0 
L 1544 1831 
L 300 3500 
L 978 3500 
L 1906 2253 
L 2834 3500 
L 3513 3500 
z
" transform="scale(0.015625)"/>
      </defs>
      <use xlink:href="#DejaVuSans-55"/>
      <use xlink:href="#DejaVuSans-70" x="73.193359"/>
      <use xlink:href="#DejaVuSans-72" x="136.669922"/>
      <use xlink:href="#DejaVuSans-6f" x="175.533203"/>
      <use xlink:href="#DejaVuSans-6f" x="236.714844"/>
      <use xlink:href="#DejaVuSans-74" x="297.896484"/>
      <use xlink:href="#DejaVuSans-20" x="337.105469"/>
      <use xlink:href="#DejaVuSans-31" x="368.892578"/>
      <use xlink:href="#DejaVuSans-2e" x="432.515625"/>
      <use xlink:href="#DejaVuSans-78" x="464.302734"/>
     </g>
    </g>
    <g id="line2d_39">
     <path d="M 99 85.654687 
L 109 85.654687 
L 119 85.654687 
" style="fill: none; stroke: #2ca02c; stroke-width: 1.5; stroke-linecap: square"/>
    </g>
    <g id="text_19">
     <!-- Uproot 2.x -->
     <g transform="translate(127 89.154687) scale(0.1 -0.1)">
      <use xlink:href="#DejaVuSans-55"/>
      <use xlink:href="#DejaVuSans-70" x="73.193359"/>
      <use xlink:href="#DejaVuSans-72" x="136.669922"/>
      <use xlink:href="#DejaVuSans-6f" x="175.533203"/>
      <use xlink:href="#DejaVuSans-6f" x="236.714844"/>
      <use xlink:href="#DejaVuSans-74" x="297.896484"/>
      <use xlink:href="#DejaVuSans-20" x="337.105469"/>
      <use xlink:href="#DejaVuSans-32" x="368.892578"/>
      <use xlink:href="#DejaVuSans-2e" x="432.515625"/>
      <use xlink:href="#DejaVuSans-78" x="464.302734"/>
     </g>
    </g>
    <g id="line2d_40">
     <path d="M 99 100.332812 
L 109 100.332812 
L 119 100.332812 
" style="fill: none; stroke: #d62728; stroke-width: 1.5; stroke-linecap: square"/>
    </g>
    <g id="text_20">
     <!-- Uproot 3.x -->
     <g transform="translate(127 103.832812) scale(0.1 -0.1)">
      <use xlink:href="#DejaVuSans-55"/>
      <use xlink:href="#DejaVuSans-70" x="73.193359"/>
      <use xlink:href="#DejaVuSans-72" x="136.669922"/>
      <use xlink:href="#DejaVuSans-6f" x="175.533203"/>
      <use xlink:href="#DejaVuSans-6f" x="236.714844"/>
      <use xlink:href="#DejaVuSans-74" x="297.896484"/>
      <use xlink:href="#DejaVuSans-20" x="337.105469"/>
      <use xlink:href="#DejaVuSans-33" x="368.892578"/>
      <use xlink:href="#DejaVuSans-2e" x="432.515625"/>
      <use xlink:href="#DejaVuSans-78" x="464.302734"/>
     </g>
    </g>
    <g id="line2d_41">
     <path d="M 99 115.010937 
L 109 115.010937 
L 119 115.010937 
" style="fill: none; stroke: #9467bd; stroke-width: 1.5; stroke-linecap: square"/>
    </g>
    <g id="text_21">
     <!-- Uproot 4.x -->
     <g transform="translate(127 118.510937) scale(0.1 -0.1)">
      <defs>
       <path id="DejaVuSans-34" d="M 2419 4116 
L 825 1625 
L 2419 1625 
L 2419 4116 
z
M 2253 4666 
L 3047 4666 
L 3047 1625 
L 3713 1625 
L 3713 1100 
L 3047 1100 
L 3047 0 
L 2419 0 
L 2419 1100 
L 313 1100 
L 313 1709 
L 2253 4666 
z
" transform="scale(0.015625)"/>
      </defs>
      <use xlink:href="#DejaVuSans-55"/>
      <use xlink:href="#DejaVuSans-70" x="73.193359"/>
      <use xlink:href="#DejaVuSans-72" x="136.669922"/>
      <use xlink:href="#DejaVuSans-6f" x="175.533203"/>
      <use xlink:href="#DejaVuSans-6f" x="236.714844"/>
      <use xlink:href="#DejaVuSans-74" x="297.896484"/>
      <use xlink:href="#DejaVuSans-20" x="337.105469"/>
      <use xlink:href="#DejaVuSans-34" x="368.892578"/>
      <use xlink:href="#DejaVuSans-2e" x="432.515625"/>
      <use xlink:href="#DejaVuSans-78" x="464.302734"/>
     </g>
    </g>
    <g id="line2d_42">
     <path d="M 99 129.689062 
L 109 129.689062 
L 119 129.689062 
" style="fill: none; stroke: #8c564b; stroke-width: 1.5; stroke-linecap: square"/>
    </g>
    <g id="text_22">
     <!-- Uproot 5.x -->
     <g transform="translate(127 133.189062) scale(0.1 -0.1)">
      <use xlink:href="#DejaVuSans-55"/>
      <use xlink:href="#DejaVuSans-70" x="73.193359"/>
      <use xlink:href="#DejaVuSans-72" x="136.669922"/>
      <use xlink:href="#DejaVuSans-6f" x="175.533203"/>
      <use xlink:href="#DejaVuSans-6f" x="236.714844"/>
      <use xlink:href="#DejaVuSans-74" x="297.896484"/>
      <use xlink:href="#DejaVuSans-20" x="337.105469"/>
      <use xlink:href="#DejaVuSans-35" x="368.892578"/>
      <use xlink:href="#DejaVuSans-2e" x="432.515625"/>
      <use xlink:href="#DejaVuSans-78" x="464.302734"/>
     </g>
    </g>
   </g>
  </g>
 </g>
 <defs>
  <clipPath id="pf51e6fa8d2">
   <rect x="90" y="43.2" width="558" height="277.2"/>
  </clipPath>
 </defs>
</svg>
