<?xml version="1.0" encoding="utf-8" standalone="no"?>
<!DOCTYPE svg PUBLIC "-//W3C//DTD SVG 1.1//EN"
  "http://www.w3.org/Graphics/SVG/1.1/DTD/svg11.dtd">
<svg xmlns:xlink="http://www.w3.org/1999/xlink" width="720pt" height="360pt" viewBox="0 0 720 360" xmlns="http://www.w3.org/2000/svg" version="1.1">
 <metadata>
  <rdf:RDF xmlns:dc="http://purl.org/dc/elements/1.1/" xmlns:cc="http://creativecommons.org/ns#" xmlns:rdf="http://www.w3.org/1999/02/22-rdf-syntax-ns#">
   <cc:Work>
    <dc:type rdf:resource="http://purl.org/dc/dcmitype/StillImage"/>
    <dc:date>2023-04-05T15:40:07.720792</dc:date>
    <dc:format>image/svg+xml</dc:format>
    <dc:creator>
     <cc:Agent>
      <dc:title>Matplotlib v3.7.1, https://matplotlib.org/</dc:title>
     </cc:Agent>
    </dc:creator>
   </cc:Work>
  </rdf:RDF>
 </metadata>
 <defs>
  <style type="text/css">*{stroke-linejoin: round; stroke-linecap: butt}</style>
 </defs>
 <g id="figure_1">
  <g id="patch_1">
   <path d="M 0 360 
L 720 360 
L 720 0 
L 0 0 
z
" style="fill: #ffffff"/>
  </g>
  <g id="axes_1">
   <g id="patch_2">
    <path d="M 90 320.4 
L 648 320.4 
L 648 43.2 
L 90 43.2 
z
" style="fill: #ffffff"/>
   </g>
   <g id="matplotlib.axis_1">
    <g id="xtick_1">
     <g id="line2d_1">
      <defs>
       <path id="m719d877cac" d="M 0 0 
L 0 3.5 
" style="stroke: #000000; stroke-width: 0.8"/>
      </defs>
      <g>
       <use xlink:href="#m719d877cac" x="90" y="320.4" style="stroke: #000000; stroke-width: 0.8"/>
      </g>
     </g>
    </g>
    <g id="xtick_2">
     <g id="line2d_2">
      <g>
       <use xlink:href="#m719d877cac" x="162.136882" y="320.4" style="stroke: #000000; stroke-width: 0.8"/>
      </g>
     </g>
     <g id="text_1">
      <!-- Jan -->
      <g transform="translate(154.42907 334.998438) scale(0.1 -0.1)">
       <defs>
        <path id="DejaVuSans-4a" d="M 628 4666 
L 1259 4666 
L 1259 325 
Q 1259 -519 939 -900 
Q 619 -1281 -91 -1281 
L -331 -1281 
L -331 -750 
L -134 -750 
Q 284 -750 456 -515 
Q 628 -281 628 325 
L 628 4666 
z
" transform="scale(0.015625)"/>
        <path id="DejaVuSans-61" d="M 2194 1759 
Q 1497 1759 1228 1600 
Q 959 1441 959 1056 
Q 959 750 1161 570 
Q 1363 391 1709 391 
Q 2188 391 2477 730 
Q 2766 1069 2766 1631 
L 2766 1759 
L 2194 1759 
z
M 3341 1997 
L 3341 0 
L 2766 0 
L 2766 531 
Q 2569 213 2275 61 
Q 1981 -91 1556 -91 
Q 1019 -91 701 211 
Q 384 513 384 1019 
Q 384 1609 779 1909 
Q 1175 2209 1959 2209 
L 2766 2209 
L 2766 2266 
Q 2766 2663 2505 2880 
Q 2244 3097 1772 3097 
Q 1472 3097 1187 3025 
Q 903 2953 641 2809 
L 641 3341 
Q 956 3463 1253 3523 
Q 1550 3584 1831 3584 
Q 2591 3584 2966 3190 
Q 3341 2797 3341 1997 
z
" transform="scale(0.015625)"/>
        <path id="DejaVuSans-6e" d="M 3513 2113 
L 3513 0 
L 2938 0 
L 2938 2094 
Q 2938 2591 2744 2837 
Q 2550 3084 2163 3084 
Q 1697 3084 1428 2787 
Q 1159 2491 1159 1978 
L 1159 0 
L 581 0 
L 581 3500 
L 1159 3500 
L 1159 2956 
Q 1366 3272 1645 3428 
Q 1925 3584 2291 3584 
Q 2894 3584 3203 3211 
Q 3513 2838 3513 2113 
z
" transform="scale(0.015625)"/>
       </defs>
       <use xlink:href="#DejaVuSans-4a"/>
       <use xlink:href="#DejaVuSans-61" x="29.492188"/>
       <use xlink:href="#DejaVuSans-6e" x="90.771484"/>
      </g>
      <!-- 2020 -->
      <g transform="translate(149.411882 346.19625) scale(0.1 -0.1)">
       <defs>
        <path id="DejaVuSans-32" d="M 1228 531 
L 3431 531 
L 3431 0 
L 469 0 
L 469 531 
Q 828 903 1448 1529 
Q 2069 2156 2228 2338 
Q 2531 2678 2651 2914 
Q 2772 3150 2772 3378 
Q 2772 3750 2511 3984 
Q 2250 4219 1831 4219 
Q 1534 4219 1204 4116 
Q 875 4013 500 3803 
L 500 4441 
Q 881 4594 1212 4672 
Q 1544 4750 1819 4750 
Q 2544 4750 2975 4387 
Q 3406 4025 3406 3419 
Q 3406 3131 3298 2873 
Q 3191 2616 2906 2266 
Q 2828 2175 2409 1742 
Q 1991 1309 1228 531 
z
" transform="scale(0.015625)"/>
        <path id="DejaVuSans-30" d="M 2034 4250 
Q 1547 4250 1301 3770 
Q 1056 3291 1056 2328 
Q 1056 1369 1301 889 
Q 1547 409 2034 409 
Q 2525 409 2770 889 
Q 3016 1369 3016 2328 
Q 3016 3291 2770 3770 
Q 2525 4250 2034 4250 
z
M 2034 4750 
Q 2819 4750 3233 4129 
Q 3647 3509 3647 2328 
Q 3647 1150 3233 529 
Q 2819 -91 2034 -91 
Q 1250 -91 836 529 
Q 422 1150 422 2328 
Q 422 3509 836 4129 
Q 1250 4750 2034 4750 
z
" transform="scale(0.015625)"/>
       </defs>
       <use xlink:href="#DejaVuSans-32"/>
       <use xlink:href="#DejaVuSans-30" x="63.623047"/>
       <use xlink:href="#DejaVuSans-32" x="127.246094"/>
       <use xlink:href="#DejaVuSans-30" x="190.869141"/>
      </g>
     </g>
    </g>
    <g id="xtick_3">
     <g id="line2d_3">
      <g>
       <use xlink:href="#m719d877cac" x="317.443346" y="320.4" style="stroke: #000000; stroke-width: 0.8"/>
      </g>
     </g>
     <g id="text_2">
      <!-- Jan -->
      <g transform="translate(309.735534 334.998438) scale(0.1 -0.1)">
       <use xlink:href="#DejaVuSans-4a"/>
       <use xlink:href="#DejaVuSans-61" x="29.492188"/>
       <use xlink:href="#DejaVuSans-6e" x="90.771484"/>
      </g>
      <!-- 2021 -->
      <g transform="translate(304.718346 346.19625) scale(0.1 -0.1)">
       <defs>
        <path id="DejaVuSans-31" d="M 794 531 
L 1825 531 
L 1825 4091 
L 703 3866 
L 703 4441 
L 1819 4666 
L 2450 4666 
L 2450 531 
L 3481 531 
L 3481 0 
L 794 0 
L 794 531 
z
" transform="scale(0.015625)"/>
       </defs>
       <use xlink:href="#DejaVuSans-32"/>
       <use xlink:href="#DejaVuSans-30" x="63.623047"/>
       <use xlink:href="#DejaVuSans-32" x="127.246094"/>
       <use xlink:href="#DejaVuSans-31" x="190.869141"/>
      </g>
     </g>
    </g>
    <g id="xtick_4">
     <g id="line2d_4">
      <g>
       <use xlink:href="#m719d877cac" x="472.325475" y="320.4" style="stroke: #000000; stroke-width: 0.8"/>
      </g>
     </g>
     <g id="text_3">
      <!-- Jan -->
      <g transform="translate(464.617663 334.998438) scale(0.1 -0.1)">
       <use xlink:href="#DejaVuSans-4a"/>
       <use xlink:href="#DejaVuSans-61" x="29.492188"/>
       <use xlink:href="#DejaVuSans-6e" x="90.771484"/>
      </g>
      <!-- 2022 -->
      <g transform="translate(459.600475 346.19625) scale(0.1 -0.1)">
       <use xlink:href="#DejaVuSans-32"/>
       <use xlink:href="#DejaVuSans-30" x="63.623047"/>
       <use xlink:href="#DejaVuSans-32" x="127.246094"/>
       <use xlink:href="#DejaVuSans-32" x="190.869141"/>
      </g>
     </g>
    </g>
    <g id="xtick_5">
     <g id="line2d_5">
      <g>
       <use xlink:href="#m719d877cac" x="627.207605" y="320.4" style="stroke: #000000; stroke-width: 0.8"/>
      </g>
     </g>
     <g id="text_4">
      <!-- Jan -->
      <g transform="translate(619.499792 334.998438) scale(0.1 -0.1)">
       <use xlink:href="#DejaVuSans-4a"/>
       <use xlink:href="#DejaVuSans-61" x="29.492188"/>
       <use xlink:href="#DejaVuSans-6e" x="90.771484"/>
      </g>
      <!-- 2023 -->
      <g transform="translate(614.482605 346.19625) scale(0.1 -0.1)">
       <defs>
        <path id="DejaVuSans-33" d="M 2597 2516 
Q 3050 2419 3304 2112 
Q 3559 1806 3559 1356 
Q 3559 666 3084 287 
Q 2609 -91 1734 -91 
Q 1441 -91 1130 -33 
Q 819 25 488 141 
L 488 750 
Q 750 597 1062 519 
Q 1375 441 1716 441 
Q 2309 441 2620 675 
Q 2931 909 2931 1356 
Q 2931 1769 2642 2001 
Q 2353 2234 1838 2234 
L 1294 2234 
L 1294 2753 
L 1863 2753 
Q 2328 2753 2575 2939 
Q 2822 3125 2822 3475 
Q 2822 3834 2567 4026 
Q 2313 4219 1838 4219 
Q 1578 4219 1281 4162 
Q 984 4106 628 3988 
L 628 4550 
Q 988 4650 1302 4700 
Q 1616 4750 1894 4750 
Q 2613 4750 3031 4423 
Q 3450 4097 3450 3541 
Q 3450 3153 3228 2886 
Q 3006 2619 2597 2516 
z
" transform="scale(0.015625)"/>
       </defs>
       <use xlink:href="#DejaVuSans-32"/>
       <use xlink:href="#DejaVuSans-30" x="63.623047"/>
       <use xlink:href="#DejaVuSans-32" x="127.246094"/>
       <use xlink:href="#DejaVuSans-33" x="190.869141"/>
      </g>
     </g>
    </g>
    <g id="xtick_6">
     <g id="line2d_6">
      <g>
       <use xlink:href="#m719d877cac" x="648" y="320.4" style="stroke: #000000; stroke-width: 0.8"/>
      </g>
     </g>
    </g>
    <g id="xtick_7">
     <g id="line2d_7">
      <defs>
       <path id="m2fe9d7812d" d="M 0 0 
L 0 2 
" style="stroke: #000000; stroke-width: 0.6"/>
      </defs>
      <g>
       <use xlink:href="#m2fe9d7812d" x="97.213688" y="320.4" style="stroke: #000000; stroke-width: 0.6"/>
      </g>
     </g>
    </g>
    <g id="xtick_8">
     <g id="line2d_8">
      <g>
       <use xlink:href="#m2fe9d7812d" x="110.368061" y="320.4" style="stroke: #000000; stroke-width: 0.6"/>
      </g>
     </g>
    </g>
    <g id="xtick_9">
     <g id="line2d_9">
      <g>
       <use xlink:href="#m2fe9d7812d" x="123.098099" y="320.4" style="stroke: #000000; stroke-width: 0.6"/>
      </g>
     </g>
    </g>
    <g id="xtick_10">
     <g id="line2d_10">
      <g>
       <use xlink:href="#m2fe9d7812d" x="136.252471" y="320.4" style="stroke: #000000; stroke-width: 0.6"/>
      </g>
     </g>
    </g>
    <g id="xtick_11">
     <g id="line2d_11">
      <g>
       <use xlink:href="#m2fe9d7812d" x="148.98251" y="320.4" style="stroke: #000000; stroke-width: 0.6"/>
      </g>
     </g>
    </g>
    <g id="xtick_12">
     <g id="line2d_12">
      <g>
       <use xlink:href="#m2fe9d7812d" x="175.291255" y="320.4" style="stroke: #000000; stroke-width: 0.6"/>
      </g>
     </g>
    </g>
    <g id="xtick_13">
     <g id="line2d_13">
      <g>
       <use xlink:href="#m2fe9d7812d" x="187.596958" y="320.4" style="stroke: #000000; stroke-width: 0.6"/>
      </g>
     </g>
    </g>
    <g id="xtick_14">
     <g id="line2d_14">
      <g>
       <use xlink:href="#m2fe9d7812d" x="200.751331" y="320.4" style="stroke: #000000; stroke-width: 0.6"/>
      </g>
     </g>
    </g>
    <g id="xtick_15">
     <g id="line2d_15">
      <g>
       <use xlink:href="#m2fe9d7812d" x="213.481369" y="320.4" style="stroke: #000000; stroke-width: 0.6"/>
      </g>
     </g>
    </g>
    <g id="xtick_16">
     <g id="line2d_16">
      <g>
       <use xlink:href="#m2fe9d7812d" x="226.635741" y="320.4" style="stroke: #000000; stroke-width: 0.6"/>
      </g>
     </g>
    </g>
    <g id="xtick_17">
     <g id="line2d_17">
      <g>
       <use xlink:href="#m2fe9d7812d" x="239.365779" y="320.4" style="stroke: #000000; stroke-width: 0.6"/>
      </g>
     </g>
     <g id="text_5">
      <!-- Jul -->
      <g transform="translate(233.332967 333.398438) scale(0.1 -0.1)">
       <defs>
        <path id="DejaVuSans-75" d="M 544 1381 
L 544 3500 
L 1119 3500 
L 1119 1403 
Q 1119 906 1312 657 
Q 1506 409 1894 409 
Q 2359 409 2629 706 
Q 2900 1003 2900 1516 
L 2900 3500 
L 3475 3500 
L 3475 0 
L 2900 0 
L 2900 538 
Q 2691 219 2414 64 
Q 2138 -91 1772 -91 
Q 1169 -91 856 284 
Q 544 659 544 1381 
z
M 1991 3584 
L 1991 3584 
z
" transform="scale(0.015625)"/>
        <path id="DejaVuSans-6c" d="M 603 4863 
L 1178 4863 
L 1178 0 
L 603 0 
L 603 4863 
z
" transform="scale(0.015625)"/>
       </defs>
       <use xlink:href="#DejaVuSans-4a"/>
       <use xlink:href="#DejaVuSans-75" x="29.492188"/>
       <use xlink:href="#DejaVuSans-6c" x="92.871094"/>
      </g>
     </g>
    </g>
    <g id="xtick_18">
     <g id="line2d_18">
      <g>
       <use xlink:href="#m2fe9d7812d" x="252.520152" y="320.4" style="stroke: #000000; stroke-width: 0.6"/>
      </g>
     </g>
    </g>
    <g id="xtick_19">
     <g id="line2d_19">
      <g>
       <use xlink:href="#m2fe9d7812d" x="265.674525" y="320.4" style="stroke: #000000; stroke-width: 0.6"/>
      </g>
     </g>
    </g>
    <g id="xtick_20">
     <g id="line2d_20">
      <g>
       <use xlink:href="#m2fe9d7812d" x="278.404563" y="320.4" style="stroke: #000000; stroke-width: 0.6"/>
      </g>
     </g>
    </g>
    <g id="xtick_21">
     <g id="line2d_21">
      <g>
       <use xlink:href="#m2fe9d7812d" x="291.558935" y="320.4" style="stroke: #000000; stroke-width: 0.6"/>
      </g>
     </g>
    </g>
    <g id="xtick_22">
     <g id="line2d_22">
      <g>
       <use xlink:href="#m2fe9d7812d" x="304.288973" y="320.4" style="stroke: #000000; stroke-width: 0.6"/>
      </g>
     </g>
    </g>
    <g id="xtick_23">
     <g id="line2d_23">
      <g>
       <use xlink:href="#m2fe9d7812d" x="330.597719" y="320.4" style="stroke: #000000; stroke-width: 0.6"/>
      </g>
     </g>
    </g>
    <g id="xtick_24">
     <g id="line2d_24">
      <g>
       <use xlink:href="#m2fe9d7812d" x="342.479087" y="320.4" style="stroke: #000000; stroke-width: 0.6"/>
      </g>
     </g>
    </g>
    <g id="xtick_25">
     <g id="line2d_25">
      <g>
       <use xlink:href="#m2fe9d7812d" x="355.63346" y="320.4" style="stroke: #000000; stroke-width: 0.6"/>
      </g>
     </g>
    </g>
    <g id="xtick_26">
     <g id="line2d_26">
      <g>
       <use xlink:href="#m2fe9d7812d" x="368.363498" y="320.4" style="stroke: #000000; stroke-width: 0.6"/>
      </g>
     </g>
    </g>
    <g id="xtick_27">
     <g id="line2d_27">
      <g>
       <use xlink:href="#m2fe9d7812d" x="381.517871" y="320.4" style="stroke: #000000; stroke-width: 0.6"/>
      </g>
     </g>
    </g>
    <g id="xtick_28">
     <g id="line2d_28">
      <g>
       <use xlink:href="#m2fe9d7812d" x="394.247909" y="320.4" style="stroke: #000000; stroke-width: 0.6"/>
      </g>
     </g>
     <g id="text_6">
      <!-- Jul -->
      <g transform="translate(388.215096 333.398438) scale(0.1 -0.1)">
       <use xlink:href="#DejaVuSans-4a"/>
       <use xlink:href="#DejaVuSans-75" x="29.492188"/>
       <use xlink:href="#DejaVuSans-6c" x="92.871094"/>
      </g>
     </g>
    </g>
    <g id="xtick_29">
     <g id="line2d_29">
      <g>
       <use xlink:href="#m2fe9d7812d" x="407.402281" y="320.4" style="stroke: #000000; stroke-width: 0.6"/>
      </g>
     </g>
    </g>
    <g id="xtick_30">
     <g id="line2d_30">
      <g>
       <use xlink:href="#m2fe9d7812d" x="420.556654" y="320.4" style="stroke: #000000; stroke-width: 0.6"/>
      </g>
     </g>
    </g>
    <g id="xtick_31">
     <g id="line2d_31">
      <g>
       <use xlink:href="#m2fe9d7812d" x="433.286692" y="320.4" style="stroke: #000000; stroke-width: 0.6"/>
      </g>
     </g>
    </g>
    <g id="xtick_32">
     <g id="line2d_32">
      <g>
       <use xlink:href="#m2fe9d7812d" x="446.441065" y="320.4" style="stroke: #000000; stroke-width: 0.6"/>
      </g>
     </g>
    </g>
    <g id="xtick_33">
     <g id="line2d_33">
      <g>
       <use xlink:href="#m2fe9d7812d" x="459.171103" y="320.4" style="stroke: #000000; stroke-width: 0.6"/>
      </g>
     </g>
    </g>
    <g id="xtick_34">
     <g id="line2d_34">
      <g>
       <use xlink:href="#m2fe9d7812d" x="485.479848" y="320.4" style="stroke: #000000; stroke-width: 0.6"/>
      </g>
     </g>
    </g>
    <g id="xtick_35">
     <g id="line2d_35">
      <g>
       <use xlink:href="#m2fe9d7812d" x="497.361217" y="320.4" style="stroke: #000000; stroke-width: 0.6"/>
      </g>
     </g>
    </g>
    <g id="xtick_36">
     <g id="line2d_36">
      <g>
       <use xlink:href="#m2fe9d7812d" x="510.515589" y="320.4" style="stroke: #000000; stroke-width: 0.6"/>
      </g>
     </g>
    </g>
    <g id="xtick_37">
     <g id="line2d_37">
      <g>
       <use xlink:href="#m2fe9d7812d" x="523.245627" y="320.4" style="stroke: #000000; stroke-width: 0.6"/>
      </g>
     </g>
    </g>
    <g id="xtick_38">
     <g id="line2d_38">
      <g>
       <use xlink:href="#m2fe9d7812d" x="536.4" y="320.4" style="stroke: #000000; stroke-width: 0.6"/>
      </g>
     </g>
    </g>
    <g id="xtick_39">
     <g id="line2d_39">
      <g>
       <use xlink:href="#m2fe9d7812d" x="549.130038" y="320.4" style="stroke: #000000; stroke-width: 0.6"/>
      </g>
     </g>
     <g id="text_7">
      <!-- Jul -->
      <g transform="translate(543.097226 333.398438) scale(0.1 -0.1)">
       <use xlink:href="#DejaVuSans-4a"/>
       <use xlink:href="#DejaVuSans-75" x="29.492188"/>
       <use xlink:href="#DejaVuSans-6c" x="92.871094"/>
      </g>
     </g>
    </g>
    <g id="xtick_40">
     <g id="line2d_40">
      <g>
       <use xlink:href="#m2fe9d7812d" x="562.284411" y="320.4" style="stroke: #000000; stroke-width: 0.6"/>
      </g>
     </g>
    </g>
    <g id="xtick_41">
     <g id="line2d_41">
      <g>
       <use xlink:href="#m2fe9d7812d" x="575.438783" y="320.4" style="stroke: #000000; stroke-width: 0.6"/>
      </g>
     </g>
    </g>
    <g id="xtick_42">
     <g id="line2d_42">
      <g>
       <use xlink:href="#m2fe9d7812d" x="588.168821" y="320.4" style="stroke: #000000; stroke-width: 0.6"/>
      </g>
     </g>
    </g>
    <g id="xtick_43">
     <g id="line2d_43">
      <g>
       <use xlink:href="#m2fe9d7812d" x="601.323194" y="320.4" style="stroke: #000000; stroke-width: 0.6"/>
      </g>
     </g>
    </g>
    <g id="xtick_44">
     <g id="line2d_44">
      <g>
       <use xlink:href="#m2fe9d7812d" x="614.053232" y="320.4" style="stroke: #000000; stroke-width: 0.6"/>
      </g>
     </g>
    </g>
    <g id="xtick_45">
     <g id="line2d_45">
      <g>
       <use xlink:href="#m2fe9d7812d" x="640.361977" y="320.4" style="stroke: #000000; stroke-width: 0.6"/>
      </g>
     </g>
    </g>
   </g>
   <g id="matplotlib.axis_2">
    <g id="ytick_1">
     <g id="line2d_46">
      <defs>
       <path id="m012f1c5e92" d="M 0 0 
L -3.5 0 
" style="stroke: #000000; stroke-width: 0.8"/>
      </defs>
      <g>
       <use xlink:href="#m012f1c5e92" x="90" y="302.267791" style="stroke: #000000; stroke-width: 0.8"/>
      </g>
     </g>
     <g id="text_8">
      <!-- $\mathdefault{10^{1}}$ -->
      <g transform="translate(65.4 306.067009) scale(0.1 -0.1)">
       <use xlink:href="#DejaVuSans-31" transform="translate(0 0.684375)"/>
       <use xlink:href="#DejaVuSans-30" transform="translate(63.623047 0.684375)"/>
       <use xlink:href="#DejaVuSans-31" transform="translate(128.203125 38.965625) scale(0.7)"/>
      </g>
     </g>
    </g>
    <g id="ytick_2">
     <g id="line2d_47">
      <g>
       <use xlink:href="#m012f1c5e92" x="90" y="242.033895" style="stroke: #000000; stroke-width: 0.8"/>
      </g>
     </g>
     <g id="text_9">
      <!-- $\mathdefault{10^{2}}$ -->
      <g transform="translate(65.4 245.833114) scale(0.1 -0.1)">
       <use xlink:href="#DejaVuSans-31" transform="translate(0 0.765625)"/>
       <use xlink:href="#DejaVuSans-30" transform="translate(63.623047 0.765625)"/>
       <use xlink:href="#DejaVuSans-32" transform="translate(128.203125 39.046875) scale(0.7)"/>
      </g>
     </g>
    </g>
    <g id="ytick_3">
     <g id="line2d_48">
      <g>
       <use xlink:href="#m012f1c5e92" x="90" y="181.8" style="stroke: #000000; stroke-width: 0.8"/>
      </g>
     </g>
     <g id="text_10">
      <!-- $\mathdefault{10^{3}}$ -->
      <g transform="translate(65.4 185.599219) scale(0.1 -0.1)">
       <use xlink:href="#DejaVuSans-31" transform="translate(0 0.765625)"/>
       <use xlink:href="#DejaVuSans-30" transform="translate(63.623047 0.765625)"/>
       <use xlink:href="#DejaVuSans-33" transform="translate(128.203125 39.046875) scale(0.7)"/>
      </g>
     </g>
    </g>
    <g id="ytick_4">
     <g id="line2d_49">
      <g>
       <use xlink:href="#m012f1c5e92" x="90" y="121.566105" style="stroke: #000000; stroke-width: 0.8"/>
      </g>
     </g>
     <g id="text_11">
      <!-- $\mathdefault{10^{4}}$ -->
      <g transform="translate(65.4 125.365323) scale(0.1 -0.1)">
       <defs>
        <path id="DejaVuSans-34" d="M 2419 4116 
L 825 1625 
L 2419 1625 
L 2419 4116 
z
M 2253 4666 
L 3047 4666 
L 3047 1625 
L 3713 1625 
L 3713 1100 
L 3047 1100 
L 3047 0 
L 2419 0 
L 2419 1100 
L 313 1100 
L 313 1709 
L 2253 4666 
z
" transform="scale(0.015625)"/>
       </defs>
       <use xlink:href="#DejaVuSans-31" transform="translate(0 0.684375)"/>
       <use xlink:href="#DejaVuSans-30" transform="translate(63.623047 0.684375)"/>
       <use xlink:href="#DejaVuSans-34" transform="translate(128.203125 38.965625) scale(0.7)"/>
      </g>
     </g>
    </g>
    <g id="ytick_5">
     <g id="line2d_50">
      <g>
       <use xlink:href="#m012f1c5e92" x="90" y="61.332209" style="stroke: #000000; stroke-width: 0.8"/>
      </g>
     </g>
     <g id="text_12">
      <!-- $\mathdefault{10^{5}}$ -->
      <g transform="translate(65.4 65.131428) scale(0.1 -0.1)">
       <defs>
        <path id="DejaVuSans-35" d="M 691 4666 
L 3169 4666 
L 3169 4134 
L 1269 4134 
L 1269 2991 
Q 1406 3038 1543 3061 
Q 1681 3084 1819 3084 
Q 2600 3084 3056 2656 
Q 3513 2228 3513 1497 
Q 3513 744 3044 326 
Q 2575 -91 1722 -91 
Q 1428 -91 1123 -41 
Q 819 9 494 109 
L 494 744 
Q 775 591 1075 516 
Q 1375 441 1709 441 
Q 2250 441 2565 725 
Q 2881 1009 2881 1497 
Q 2881 1984 2565 2268 
Q 2250 2553 1709 2553 
Q 1456 2553 1204 2497 
Q 953 2441 691 2322 
L 691 4666 
z
" transform="scale(0.015625)"/>
       </defs>
       <use xlink:href="#DejaVuSans-31" transform="translate(0 0.684375)"/>
       <use xlink:href="#DejaVuSans-30" transform="translate(63.623047 0.684375)"/>
       <use xlink:href="#DejaVuSans-35" transform="translate(128.203125 38.965625) scale(0.7)"/>
      </g>
     </g>
    </g>
    <g id="ytick_6">
     <g id="line2d_51">
      <defs>
       <path id="m4156aa7ed1" d="M 0 0 
L -2 0 
" style="stroke: #000000; stroke-width: 0.6"/>
      </defs>
      <g>
       <use xlink:href="#m4156aa7ed1" x="90" y="320.4" style="stroke: #000000; stroke-width: 0.6"/>
      </g>
     </g>
    </g>
    <g id="ytick_7">
     <g id="line2d_52">
      <g>
       <use xlink:href="#m4156aa7ed1" x="90" y="315.630605" style="stroke: #000000; stroke-width: 0.6"/>
      </g>
     </g>
    </g>
    <g id="ytick_8">
     <g id="line2d_53">
      <g>
       <use xlink:href="#m4156aa7ed1" x="90" y="311.598139" style="stroke: #000000; stroke-width: 0.6"/>
      </g>
     </g>
    </g>
    <g id="ytick_9">
     <g id="line2d_54">
      <g>
       <use xlink:href="#m4156aa7ed1" x="90" y="308.105058" style="stroke: #000000; stroke-width: 0.6"/>
      </g>
     </g>
    </g>
    <g id="ytick_10">
     <g id="line2d_55">
      <g>
       <use xlink:href="#m4156aa7ed1" x="90" y="305.023943" style="stroke: #000000; stroke-width: 0.6"/>
      </g>
     </g>
    </g>
    <g id="ytick_11">
     <g id="line2d_56">
      <g>
       <use xlink:href="#m4156aa7ed1" x="90" y="284.135581" style="stroke: #000000; stroke-width: 0.6"/>
      </g>
     </g>
    </g>
    <g id="ytick_12">
     <g id="line2d_57">
      <g>
       <use xlink:href="#m4156aa7ed1" x="90" y="273.528919" style="stroke: #000000; stroke-width: 0.6"/>
      </g>
     </g>
    </g>
    <g id="ytick_13">
     <g id="line2d_58">
      <g>
       <use xlink:href="#m4156aa7ed1" x="90" y="266.003372" style="stroke: #000000; stroke-width: 0.6"/>
      </g>
     </g>
    </g>
    <g id="ytick_14">
     <g id="line2d_59">
      <g>
       <use xlink:href="#m4156aa7ed1" x="90" y="260.166105" style="stroke: #000000; stroke-width: 0.6"/>
      </g>
     </g>
    </g>
    <g id="ytick_15">
     <g id="line2d_60">
      <g>
       <use xlink:href="#m4156aa7ed1" x="90" y="255.39671" style="stroke: #000000; stroke-width: 0.6"/>
      </g>
     </g>
    </g>
    <g id="ytick_16">
     <g id="line2d_61">
      <g>
       <use xlink:href="#m4156aa7ed1" x="90" y="251.364244" style="stroke: #000000; stroke-width: 0.6"/>
      </g>
     </g>
    </g>
    <g id="ytick_17">
     <g id="line2d_62">
      <g>
       <use xlink:href="#m4156aa7ed1" x="90" y="247.871163" style="stroke: #000000; stroke-width: 0.6"/>
      </g>
     </g>
    </g>
    <g id="ytick_18">
     <g id="line2d_63">
      <g>
       <use xlink:href="#m4156aa7ed1" x="90" y="244.790047" style="stroke: #000000; stroke-width: 0.6"/>
      </g>
     </g>
    </g>
    <g id="ytick_19">
     <g id="line2d_64">
      <g>
       <use xlink:href="#m4156aa7ed1" x="90" y="223.901686" style="stroke: #000000; stroke-width: 0.6"/>
      </g>
     </g>
    </g>
    <g id="ytick_20">
     <g id="line2d_65">
      <g>
       <use xlink:href="#m4156aa7ed1" x="90" y="213.295024" style="stroke: #000000; stroke-width: 0.6"/>
      </g>
     </g>
    </g>
    <g id="ytick_21">
     <g id="line2d_66">
      <g>
       <use xlink:href="#m4156aa7ed1" x="90" y="205.769477" style="stroke: #000000; stroke-width: 0.6"/>
      </g>
     </g>
    </g>
    <g id="ytick_22">
     <g id="line2d_67">
      <g>
       <use xlink:href="#m4156aa7ed1" x="90" y="199.932209" style="stroke: #000000; stroke-width: 0.6"/>
      </g>
     </g>
    </g>
    <g id="ytick_23">
     <g id="line2d_68">
      <g>
       <use xlink:href="#m4156aa7ed1" x="90" y="195.162814" style="stroke: #000000; stroke-width: 0.6"/>
      </g>
     </g>
    </g>
    <g id="ytick_24">
     <g id="line2d_69">
      <g>
       <use xlink:href="#m4156aa7ed1" x="90" y="191.130348" style="stroke: #000000; stroke-width: 0.6"/>
      </g>
     </g>
    </g>
    <g id="ytick_25">
     <g id="line2d_70">
      <g>
       <use xlink:href="#m4156aa7ed1" x="90" y="187.637268" style="stroke: #000000; stroke-width: 0.6"/>
      </g>
     </g>
    </g>
    <g id="ytick_26">
     <g id="line2d_71">
      <g>
       <use xlink:href="#m4156aa7ed1" x="90" y="184.556152" style="stroke: #000000; stroke-width: 0.6"/>
      </g>
     </g>
    </g>
    <g id="ytick_27">
     <g id="line2d_72">
      <g>
       <use xlink:href="#m4156aa7ed1" x="90" y="163.667791" style="stroke: #000000; stroke-width: 0.6"/>
      </g>
     </g>
    </g>
    <g id="ytick_28">
     <g id="line2d_73">
      <g>
       <use xlink:href="#m4156aa7ed1" x="90" y="153.061128" style="stroke: #000000; stroke-width: 0.6"/>
      </g>
     </g>
    </g>
    <g id="ytick_29">
     <g id="line2d_74">
      <g>
       <use xlink:href="#m4156aa7ed1" x="90" y="145.535581" style="stroke: #000000; stroke-width: 0.6"/>
      </g>
     </g>
    </g>
    <g id="ytick_30">
     <g id="line2d_75">
      <g>
       <use xlink:href="#m4156aa7ed1" x="90" y="139.698314" style="stroke: #000000; stroke-width: 0.6"/>
      </g>
     </g>
    </g>
    <g id="ytick_31">
     <g id="line2d_76">
      <g>
       <use xlink:href="#m4156aa7ed1" x="90" y="134.928919" style="stroke: #000000; stroke-width: 0.6"/>
      </g>
     </g>
    </g>
    <g id="ytick_32">
     <g id="line2d_77">
      <g>
       <use xlink:href="#m4156aa7ed1" x="90" y="130.896453" style="stroke: #000000; stroke-width: 0.6"/>
      </g>
     </g>
    </g>
    <g id="ytick_33">
     <g id="line2d_78">
      <g>
       <use xlink:href="#m4156aa7ed1" x="90" y="127.403372" style="stroke: #000000; stroke-width: 0.6"/>
      </g>
     </g>
    </g>
    <g id="ytick_34">
     <g id="line2d_79">
      <g>
       <use xlink:href="#m4156aa7ed1" x="90" y="124.322257" style="stroke: #000000; stroke-width: 0.6"/>
      </g>
     </g>
    </g>
    <g id="ytick_35">
     <g id="line2d_80">
      <g>
       <use xlink:href="#m4156aa7ed1" x="90" y="103.433895" style="stroke: #000000; stroke-width: 0.6"/>
      </g>
     </g>
    </g>
    <g id="ytick_36">
     <g id="line2d_81">
      <g>
       <use xlink:href="#m4156aa7ed1" x="90" y="92.827233" style="stroke: #000000; stroke-width: 0.6"/>
      </g>
     </g>
    </g>
    <g id="ytick_37">
     <g id="line2d_82">
      <g>
       <use xlink:href="#m4156aa7ed1" x="90" y="85.301686" style="stroke: #000000; stroke-width: 0.6"/>
      </g>
     </g>
    </g>
    <g id="ytick_38">
     <g id="line2d_83">
      <g>
       <use xlink:href="#m4156aa7ed1" x="90" y="79.464419" style="stroke: #000000; stroke-width: 0.6"/>
      </g>
     </g>
    </g>
    <g id="ytick_39">
     <g id="line2d_84">
      <g>
       <use xlink:href="#m4156aa7ed1" x="90" y="74.695024" style="stroke: #000000; stroke-width: 0.6"/>
      </g>
     </g>
    </g>
    <g id="ytick_40">
     <g id="line2d_85">
      <g>
       <use xlink:href="#m4156aa7ed1" x="90" y="70.662558" style="stroke: #000000; stroke-width: 0.6"/>
      </g>
     </g>
    </g>
    <g id="ytick_41">
     <g id="line2d_86">
      <g>
       <use xlink:href="#m4156aa7ed1" x="90" y="67.169477" style="stroke: #000000; stroke-width: 0.6"/>
      </g>
     </g>
    </g>
    <g id="ytick_42">
     <g id="line2d_87">
      <g>
       <use xlink:href="#m4156aa7ed1" x="90" y="64.088361" style="stroke: #000000; stroke-width: 0.6"/>
      </g>
     </g>
    </g>
    <g id="ytick_43">
     <g id="line2d_88">
      <g>
       <use xlink:href="#m4156aa7ed1" x="90" y="43.2" style="stroke: #000000; stroke-width: 0.6"/>
      </g>
     </g>
    </g>
    <g id="text_13">
     <!-- Number of pip-installs per month -->
     <g transform="translate(59.320312 264.70625) rotate(-90) scale(0.1 -0.1)">
      <defs>
       <path id="DejaVuSans-4e" d="M 628 4666 
L 1478 4666 
L 3547 763 
L 3547 4666 
L 4159 4666 
L 4159 0 
L 3309 0 
L 1241 3903 
L 1241 0 
L 628 0 
L 628 4666 
z
" transform="scale(0.015625)"/>
       <path id="DejaVuSans-6d" d="M 3328 2828 
Q 3544 3216 3844 3400 
Q 4144 3584 4550 3584 
Q 5097 3584 5394 3201 
Q 5691 2819 5691 2113 
L 5691 0 
L 5113 0 
L 5113 2094 
Q 5113 2597 4934 2840 
Q 4756 3084 4391 3084 
Q 3944 3084 3684 2787 
Q 3425 2491 3425 1978 
L 3425 0 
L 2847 0 
L 2847 2094 
Q 2847 2600 2669 2842 
Q 2491 3084 2119 3084 
Q 1678 3084 1418 2786 
Q 1159 2488 1159 1978 
L 1159 0 
L 581 0 
L 581 3500 
L 1159 3500 
L 1159 2956 
Q 1356 3278 1631 3431 
Q 1906 3584 2284 3584 
Q 2666 3584 2933 3390 
Q 3200 3197 3328 2828 
z
" transform="scale(0.015625)"/>
       <path id="DejaVuSans-62" d="M 3116 1747 
Q 3116 2381 2855 2742 
Q 2594 3103 2138 3103 
Q 1681 3103 1420 2742 
Q 1159 2381 1159 1747 
Q 1159 1113 1420 752 
Q 1681 391 2138 391 
Q 2594 391 2855 752 
Q 3116 1113 3116 1747 
z
M 1159 2969 
Q 1341 3281 1617 3432 
Q 1894 3584 2278 3584 
Q 2916 3584 3314 3078 
Q 3713 2572 3713 1747 
Q 3713 922 3314 415 
Q 2916 -91 2278 -91 
Q 1894 -91 1617 61 
Q 1341 213 1159 525 
L 1159 0 
L 581 0 
L 581 4863 
L 1159 4863 
L 1159 2969 
z
" transform="scale(0.015625)"/>
       <path id="DejaVuSans-65" d="M 3597 1894 
L 3597 1613 
L 953 1613 
Q 991 1019 1311 708 
Q 1631 397 2203 397 
Q 2534 397 2845 478 
Q 3156 559 3463 722 
L 3463 178 
Q 3153 47 2828 -22 
Q 2503 -91 2169 -91 
Q 1331 -91 842 396 
Q 353 884 353 1716 
Q 353 2575 817 3079 
Q 1281 3584 2069 3584 
Q 2775 3584 3186 3129 
Q 3597 2675 3597 1894 
z
M 3022 2063 
Q 3016 2534 2758 2815 
Q 2500 3097 2075 3097 
Q 1594 3097 1305 2825 
Q 1016 2553 972 2059 
L 3022 2063 
z
" transform="scale(0.015625)"/>
       <path id="DejaVuSans-72" d="M 2631 2963 
Q 2534 3019 2420 3045 
Q 2306 3072 2169 3072 
Q 1681 3072 1420 2755 
Q 1159 2438 1159 1844 
L 1159 0 
L 581 0 
L 581 3500 
L 1159 3500 
L 1159 2956 
Q 1341 3275 1631 3429 
Q 1922 3584 2338 3584 
Q 2397 3584 2469 3576 
Q 2541 3569 2628 3553 
L 2631 2963 
z
" transform="scale(0.015625)"/>
       <path id="DejaVuSans-20" transform="scale(0.015625)"/>
       <path id="DejaVuSans-6f" d="M 1959 3097 
Q 1497 3097 1228 2736 
Q 959 2375 959 1747 
Q 959 1119 1226 758 
Q 1494 397 1959 397 
Q 2419 397 2687 759 
Q 2956 1122 2956 1747 
Q 2956 2369 2687 2733 
Q 2419 3097 1959 3097 
z
M 1959 3584 
Q 2709 3584 3137 3096 
Q 3566 2609 3566 1747 
Q 3566 888 3137 398 
Q 2709 -91 1959 -91 
Q 1206 -91 779 398 
Q 353 888 353 1747 
Q 353 2609 779 3096 
Q 1206 3584 1959 3584 
z
" transform="scale(0.015625)"/>
       <path id="DejaVuSans-66" d="M 2375 4863 
L 2375 4384 
L 1825 4384 
Q 1516 4384 1395 4259 
Q 1275 4134 1275 3809 
L 1275 3500 
L 2222 3500 
L 2222 3053 
L 1275 3053 
L 1275 0 
L 697 0 
L 697 3053 
L 147 3053 
L 147 3500 
L 697 3500 
L 697 3744 
Q 697 4328 969 4595 
Q 1241 4863 1831 4863 
L 2375 4863 
z
" transform="scale(0.015625)"/>
       <path id="DejaVuSans-70" d="M 1159 525 
L 1159 -1331 
L 581 -1331 
L 581 3500 
L 1159 3500 
L 1159 2969 
Q 1341 3281 1617 3432 
Q 1894 3584 2278 3584 
Q 2916 3584 3314 3078 
Q 3713 2572 3713 1747 
Q 3713 922 3314 415 
Q 2916 -91 2278 -91 
Q 1894 -91 1617 61 
Q 1341 213 1159 525 
z
M 3116 1747 
Q 3116 2381 2855 2742 
Q 2594 3103 2138 3103 
Q 1681 3103 1420 2742 
Q 1159 2381 1159 1747 
Q 1159 1113 1420 752 
Q 1681 391 2138 391 
Q 2594 391 2855 752 
Q 3116 1113 3116 1747 
z
" transform="scale(0.015625)"/>
       <path id="DejaVuSans-69" d="M 603 3500 
L 1178 3500 
L 1178 0 
L 603 0 
L 603 3500 
z
M 603 4863 
L 1178 4863 
L 1178 4134 
L 603 4134 
L 603 4863 
z
" transform="scale(0.015625)"/>
       <path id="DejaVuSans-2d" d="M 313 2009 
L 1997 2009 
L 1997 1497 
L 313 1497 
L 313 2009 
z
" transform="scale(0.015625)"/>
       <path id="DejaVuSans-73" d="M 2834 3397 
L 2834 2853 
Q 2591 2978 2328 3040 
Q 2066 3103 1784 3103 
Q 1356 3103 1142 2972 
Q 928 2841 928 2578 
Q 928 2378 1081 2264 
Q 1234 2150 1697 2047 
L 1894 2003 
Q 2506 1872 2764 1633 
Q 3022 1394 3022 966 
Q 3022 478 2636 193 
Q 2250 -91 1575 -91 
Q 1294 -91 989 -36 
Q 684 19 347 128 
L 347 722 
Q 666 556 975 473 
Q 1284 391 1588 391 
Q 1994 391 2212 530 
Q 2431 669 2431 922 
Q 2431 1156 2273 1281 
Q 2116 1406 1581 1522 
L 1381 1569 
Q 847 1681 609 1914 
Q 372 2147 372 2553 
Q 372 3047 722 3315 
Q 1072 3584 1716 3584 
Q 2034 3584 2315 3537 
Q 2597 3491 2834 3397 
z
" transform="scale(0.015625)"/>
       <path id="DejaVuSans-74" d="M 1172 4494 
L 1172 3500 
L 2356 3500 
L 2356 3053 
L 1172 3053 
L 1172 1153 
Q 1172 725 1289 603 
Q 1406 481 1766 481 
L 2356 481 
L 2356 0 
L 1766 0 
Q 1100 0 847 248 
Q 594 497 594 1153 
L 594 3053 
L 172 3053 
L 172 3500 
L 594 3500 
L 594 4494 
L 1172 4494 
z
" transform="scale(0.015625)"/>
       <path id="DejaVuSans-68" d="M 3513 2113 
L 3513 0 
L 2938 0 
L 2938 2094 
Q 2938 2591 2744 2837 
Q 2550 3084 2163 3084 
Q 1697 3084 1428 2787 
Q 1159 2491 1159 1978 
L 1159 0 
L 581 0 
L 581 4863 
L 1159 4863 
L 1159 2956 
Q 1366 3272 1645 3428 
Q 1925 3584 2291 3584 
Q 2894 3584 3203 3211 
Q 3513 2838 3513 2113 
z
" transform="scale(0.015625)"/>
      </defs>
      <use xlink:href="#DejaVuSans-4e"/>
      <use xlink:href="#DejaVuSans-75" x="74.804688"/>
      <use xlink:href="#DejaVuSans-6d" x="138.183594"/>
      <use xlink:href="#DejaVuSans-62" x="235.595703"/>
      <use xlink:href="#DejaVuSans-65" x="299.072266"/>
      <use xlink:href="#DejaVuSans-72" x="360.595703"/>
      <use xlink:href="#DejaVuSans-20" x="401.708984"/>
      <use xlink:href="#DejaVuSans-6f" x="433.496094"/>
      <use xlink:href="#DejaVuSans-66" x="494.677734"/>
      <use xlink:href="#DejaVuSans-20" x="529.882812"/>
      <use xlink:href="#DejaVuSans-70" x="561.669922"/>
      <use xlink:href="#DejaVuSans-69" x="625.146484"/>
      <use xlink:href="#DejaVuSans-70" x="652.929688"/>
      <use xlink:href="#DejaVuSans-2d" x="716.40625"/>
      <use xlink:href="#DejaVuSans-69" x="752.490234"/>
      <use xlink:href="#DejaVuSans-6e" x="780.273438"/>
      <use xlink:href="#DejaVuSans-73" x="843.652344"/>
      <use xlink:href="#DejaVuSans-74" x="895.751953"/>
      <use xlink:href="#DejaVuSans-61" x="934.960938"/>
      <use xlink:href="#DejaVuSans-6c" x="996.240234"/>
      <use xlink:href="#DejaVuSans-6c" x="1024.023438"/>
      <use xlink:href="#DejaVuSans-73" x="1051.806641"/>
      <use xlink:href="#DejaVuSans-20" x="1103.90625"/>
      <use xlink:href="#DejaVuSans-70" x="1135.693359"/>
      <use xlink:href="#DejaVuSans-65" x="1199.169922"/>
      <use xlink:href="#DejaVuSans-72" x="1260.693359"/>
      <use xlink:href="#DejaVuSans-20" x="1301.806641"/>
      <use xlink:href="#DejaVuSans-6d" x="1333.59375"/>
      <use xlink:href="#DejaVuSans-6f" x="1431.005859"/>
      <use xlink:href="#DejaVuSans-6e" x="1492.1875"/>
      <use xlink:href="#DejaVuSans-74" x="1555.566406"/>
      <use xlink:href="#DejaVuSans-68" x="1594.775391"/>
     </g>
    </g>
   </g>
   <g id="line2d_89">
    <path d="M 580.105293 361 
L 580.106464 344.369477 
L 584.34981 332.348457 
L 588.593156 313.536748 
L 592.836502 291.086177 
L 601.323194 256.208486 
L 605.56654 246.594849 
L 609.809886 233.545323 
L 614.053232 219.168649 
L 618.296578 214.65212 
L 622.539924 211.991043 
L 626.78327 209.601072 
L 631.026616 206.398256 
L 635.269962 204.597176 
L 639.513308 204.111871 
L 643.756654 201.018254 
L 648 198.990203 
L 652.243346 197.621927 
L 656.486692 197.407278 
L 660.730038 196.027112 
L 664.973384 196.336871 
L 664.973384 196.336871 
" clip-path="url(#p841d241672)" style="fill: none; stroke: #1f77b4; stroke-width: 1.5; stroke-linecap: square"/>
   </g>
   <g id="line2d_90">
    <path d="M 435.830035 361 
L 435.8327 323.156152 
L 440.076046 306.519164 
L 444.319392 294.742244 
L 448.562738 288.386955 
L 452.806084 281.248959 
L 457.04943 278.64945 
L 461.292776 269.496453 
L 465.536122 262.158429 
L 469.779468 259.308348 
L 474.022814 251.614573 
L 478.26616 247.331778 
L 486.752852 237.373725 
L 490.996198 225.776651 
L 495.239544 221.627351 
L 499.48289 214.272223 
L 503.726236 205.563198 
L 507.969582 197.605966 
L 512.212928 193.042141 
L 516.456274 191.760722 
L 520.69962 188.739224 
L 524.942966 188.338719 
L 529.186312 188.14352 
L 533.429658 187.555647 
L 537.673004 187.79031 
L 541.91635 188.377934 
L 546.159696 187.779349 
L 550.403042 186.600805 
L 554.646388 187.151323 
L 558.889734 186.742618 
L 563.13308 182.990782 
L 567.376426 180.013807 
L 571.619772 175.913947 
L 575.863118 153.717462 
L 580.106464 133.057351 
L 584.34981 129.706887 
L 588.593156 129.836953 
L 592.836502 127.712563 
L 597.079848 110.664351 
L 601.323194 113.34458 
L 605.56654 120.794985 
L 609.809886 122.886338 
L 614.053232 122.400227 
L 618.296578 123.780973 
L 622.539924 166.885782 
L 626.78327 166.935135 
L 631.026616 164.924819 
L 635.269962 164.672159 
L 639.513308 144.592524 
L 643.756654 143.260247 
L 648 142.563204 
L 652.243346 134.568096 
L 656.486692 132.39739 
L 660.730038 132.246772 
L 664.973384 143.658941 
L 664.973384 143.658941 
" clip-path="url(#p841d241672)" style="fill: none; stroke-dasharray: 5.55,2.4; stroke-dashoffset: 0; stroke: #ff7f0e; stroke-width: 1.5"/>
   </g>
   <g id="line2d_91">
    <path d="M 277.484531 361 
L 278.828897 351.895024 
L 283.072243 313.536748 
L 287.315589 288.644683 
L 291.558935 275.333721 
L 295.802281 249.155653 
L 300.045627 243.375689 
L 304.288973 235.815745 
L 308.532319 232.464846 
L 312.775665 227.569746 
L 317.019011 225.917545 
L 321.262357 226.344838 
L 325.505703 223.945321 
L 329.749049 219.186846 
L 333.992395 215.14658 
L 338.235741 215.256 
L 342.479087 211.281781 
L 346.722433 207.469385 
L 350.965779 205.639007 
L 355.209125 200.31872 
L 359.452471 195.315857 
L 363.695817 191.355537 
L 367.939163 190.002751 
L 372.18251 188.389149 
L 376.425856 186.28839 
L 380.669202 185.283117 
L 384.912548 185.974547 
L 389.155894 184.981038 
L 393.39924 181.72164 
L 397.642586 181.090334 
L 401.885932 165.882185 
L 406.129278 161.598092 
L 410.372624 160.445602 
L 414.61597 159.847324 
L 418.859316 160.154281 
L 423.102662 158.911115 
L 427.346008 167.827 
L 431.589354 154.456519 
L 435.8327 141.764137 
L 440.076046 139.563506 
L 444.319392 137.084068 
L 448.562738 135.544303 
L 452.806084 132.174075 
L 457.04943 133.586943 
L 461.292776 135.812 
L 465.536122 136.140243 
L 469.779468 133.183479 
L 474.022814 131.535761 
L 478.26616 129.057957 
L 482.509506 126.221693 
L 486.752852 125.86214 
L 490.996198 121.004947 
L 495.239544 122.771949 
L 499.48289 124.19275 
L 503.726236 128.277811 
L 507.969582 131.11536 
L 512.212928 133.598681 
L 516.456274 132.122459 
L 520.69962 125.377517 
L 524.942966 101.204363 
L 529.186312 94.515047 
L 537.673004 92.899999 
L 541.91635 94.698451 
L 546.159696 96.750687 
L 550.403042 113.905858 
L 554.646388 129.21635 
L 558.889734 134.280143 
L 563.13308 141.123768 
L 567.376426 125.031297 
L 571.619772 116.807975 
L 575.863118 117.993957 
L 580.106464 100.49189 
L 584.34981 101.133394 
L 588.593156 100.350261 
L 592.836502 104.971698 
L 597.079848 110.27808 
L 601.323194 110.136587 
L 605.56654 139.369044 
L 609.809886 129.183078 
L 614.053232 126.955437 
L 618.296578 108.537375 
L 626.78327 99.325491 
L 631.026616 92.60164 
L 635.269962 93.55385 
L 639.513308 93.323708 
L 643.756654 99.837608 
L 648 100.660549 
L 652.243346 103.42692 
L 656.486692 110.679875 
L 660.730038 104.590934 
L 664.973384 105.42128 
L 664.973384 105.42128 
" clip-path="url(#p841d241672)" style="fill: none; stroke-dasharray: 1.5,2.475; stroke-dashoffset: 0; stroke: #2ca02c; stroke-width: 1.5"/>
   </g>
   <g id="line2d_92">
    <path d="M 147.285171 240.882447 
L 151.528517 238.264339 
L 155.771863 234.541068 
L 160.015209 237.889558 
L 164.258555 247.331778 
L 168.501901 243.979213 
L 172.745247 243.606169 
L 176.988593 240.020652 
L 181.231939 246.131841 
L 185.475285 237.337266 
L 189.718631 230.823863 
L 193.961977 224.03281 
L 198.205323 215.44465 
L 202.448669 211.97722 
L 206.692015 209.200348 
L 210.935361 207.088334 
L 215.178707 203.969035 
L 219.422053 202.056603 
L 223.665399 198.872709 
L 227.908745 195.93714 
L 232.152091 189.518088 
L 236.395437 186.293566 
L 240.638783 184.04288 
L 244.882129 176.359864 
L 249.125475 172.599461 
L 253.368821 168.99238 
L 257.612167 169.225886 
L 261.855513 168.473834 
L 266.098859 167.582804 
L 270.342205 169.905953 
L 274.585551 169.933638 
L 278.828897 170.513391 
L 283.072243 166.925257 
L 287.315589 165.903546 
L 291.558935 165.182254 
L 295.802281 162.968735 
L 300.045627 163.360057 
L 304.288973 160.042071 
L 308.532319 159.715795 
L 312.775665 158.720971 
L 317.019011 157.446203 
L 321.262357 156.512719 
L 325.505703 153.651974 
L 329.749049 154.129001 
L 333.992395 150.947156 
L 338.235741 149.044861 
L 342.479087 145.922092 
L 346.722433 145.667801 
L 350.965779 144.835465 
L 355.209125 141.991594 
L 359.452471 141.320639 
L 363.695817 138.879403 
L 367.939163 137.179717 
L 372.18251 126.454533 
L 376.425856 126.707501 
L 380.669202 128.563373 
L 384.912548 130.613969 
L 389.155894 132.974951 
L 393.39924 136.219516 
L 397.642586 155.846362 
L 401.885932 158.577021 
L 406.129278 158.503552 
L 410.372624 158.296801 
L 414.61597 157.931868 
L 418.859316 157.295409 
L 423.102662 157.984443 
L 427.346008 159.981411 
L 431.589354 162.269271 
L 435.8327 162.41848 
L 440.076046 164.162933 
L 444.319392 164.109669 
L 448.562738 163.864725 
L 452.806084 162.441351 
L 457.04943 162.685861 
L 461.292776 163.873512 
L 465.536122 166.402152 
L 469.779468 172.20979 
L 474.022814 173.301974 
L 478.26616 174.933395 
L 482.509506 162.203228 
L 490.996198 146.35373 
L 495.239544 144.789874 
L 499.48289 143.394479 
L 503.726236 138.715125 
L 512.212928 141.727362 
L 516.456274 146.105253 
L 520.69962 146.538817 
L 524.942966 146.389742 
L 529.186312 150.287978 
L 537.673004 155.545798 
L 541.91635 149.469591 
L 546.159696 148.392446 
L 550.403042 148.575447 
L 554.646388 150.681754 
L 558.889734 151.677078 
L 563.13308 153.763699 
L 567.376426 164.251948 
L 571.619772 167.781039 
L 575.863118 171.653698 
L 580.106464 170.405996 
L 584.34981 171.488562 
L 588.593156 170.621229 
L 592.836502 167.185797 
L 597.079848 166.623317 
L 601.323194 164.9111 
L 605.56654 165.08772 
L 614.053232 162.664874 
L 618.296578 149.918079 
L 622.539924 150.446619 
L 626.78327 149.95548 
L 631.026616 148.880845 
L 635.269962 148.105889 
L 639.513308 146.511649 
L 643.756654 156.072035 
L 648 153.027724 
L 652.243346 149.3697 
L 656.486692 149.838298 
L 660.730038 150.074485 
L 664.973384 153.066942 
L 664.973384 153.066942 
" clip-path="url(#p841d241672)" style="fill: none; stroke-dasharray: 9.6,2.4,1.5,2.4; stroke-dashoffset: 0; stroke: #d62728; stroke-width: 1.5"/>
   </g>
   <g id="line2d_93">
    <path d="M 147.285171 175.372999 
L 151.528517 171.532693 
L 155.771863 168.76094 
L 160.015209 167.155889 
L 164.258555 164.60203 
L 168.501901 164.656307 
L 172.745247 164.460086 
L 176.988593 165.796914 
L 181.231939 166.750541 
L 185.475285 164.043242 
L 189.718631 165.027949 
L 193.961977 163.17115 
L 198.205323 163.574221 
L 202.448669 164.372601 
L 206.692015 161.579971 
L 210.935361 163.286908 
L 215.178707 162.776302 
L 219.422053 165.226178 
L 227.908745 163.722346 
L 232.152091 164.685754 
L 236.395437 164.283175 
L 240.638783 164.136288 
L 244.882129 158.460642 
L 249.125475 155.854446 
L 253.368821 154.032294 
L 257.612167 154.334173 
L 261.855513 155.034639 
L 266.098859 154.364706 
L 270.342205 157.269792 
L 274.585551 158.829455 
L 278.828897 160.078154 
L 283.072243 158.498185 
L 287.315589 157.987951 
L 291.558935 158.814965 
L 295.802281 157.914367 
L 300.045627 159.75143 
L 304.288973 154.662741 
L 308.532319 155.152442 
L 312.775665 155.796297 
L 317.019011 156.152056 
L 321.262357 156.13734 
L 325.505703 155.528225 
L 329.749049 159.650277 
L 333.992395 153.592582 
L 338.235741 151.490284 
L 342.479087 150.857499 
L 346.722433 151.671565 
L 350.965779 150.610197 
L 355.209125 147.803412 
L 359.452471 151.984886 
L 367.939163 137.263003 
L 372.18251 124.637086 
L 376.425856 122.139564 
L 380.669202 121.945094 
L 384.912548 120.810229 
L 389.155894 122.609011 
L 393.39924 126.170693 
L 397.642586 140.422391 
L 401.885932 146.22472 
L 406.129278 150.29713 
L 410.372624 155.494709 
L 414.61597 161.036191 
L 418.859316 163.28476 
L 423.102662 161.840908 
L 427.346008 164.323379 
L 435.8327 165.069314 
L 440.076046 164.963732 
L 444.319392 164.109669 
L 448.562738 166.503996 
L 452.806084 166.091803 
L 457.04943 167.323313 
L 461.292776 169.137069 
L 465.536122 172.614801 
L 469.779468 177.663106 
L 474.022814 178.05688 
L 478.26616 177.363336 
L 482.509506 163.119865 
L 486.752852 163.783583 
L 495.239544 162.310633 
L 499.48289 161.612194 
L 503.726236 162.207351 
L 507.969582 175.427619 
L 512.212928 173.507567 
L 516.456274 174.600194 
L 520.69962 174.366171 
L 524.942966 175.893067 
L 537.673004 179.726273 
L 541.91635 178.246496 
L 546.159696 178.695642 
L 550.403042 177.951293 
L 554.646388 177.782486 
L 558.889734 176.225642 
L 563.13308 176.548227 
L 567.376426 177.216559 
L 571.619772 176.737957 
L 580.106464 176.770312 
L 584.34981 178.64149 
L 588.593156 177.411216 
L 592.836502 175.36618 
L 597.079848 175.25731 
L 601.323194 174.53406 
L 605.56654 174.983743 
L 614.053232 174.166768 
L 618.296578 174.889838 
L 622.539924 176.737957 
L 626.78327 177.278839 
L 631.026616 175.681727 
L 635.269962 175.223381 
L 639.513308 176.345703 
L 643.756654 178.04177 
L 648 176.845964 
L 652.243346 175.820118 
L 656.486692 177.238523 
L 660.730038 177.352299 
L 664.973384 179.481736 
L 664.973384 179.481736 
" clip-path="url(#p841d241672)" style="fill: none; stroke: #9467bd; stroke-width: 1.5; stroke-linecap: square"/>
   </g>
   <g id="line2d_94">
    <path d="M 147.285171 124.819621 
L 151.528517 127.159272 
L 155.771863 128.76066 
L 160.015209 132.696584 
L 164.258555 138.971681 
L 168.501901 134.906403 
L 172.745247 127.465574 
L 176.988593 126.562497 
L 181.231939 126.230029 
L 185.475285 123.995857 
L 189.718631 124.216381 
L 193.961977 127.206828 
L 198.205323 131.251377 
L 202.448669 128.332529 
L 206.692015 124.940369 
L 210.935361 125.064169 
L 215.178707 122.849221 
L 219.422053 124.640028 
L 223.665399 127.321752 
L 227.908745 130.441402 
L 232.152091 132.229725 
L 236.395437 129.019088 
L 240.638783 127.206287 
L 244.882129 125.816965 
L 249.125475 123.301862 
L 253.368821 125.741163 
L 257.612167 130.263885 
L 261.855513 133.010716 
L 266.098859 136.614873 
L 270.342205 136.094617 
L 274.585551 134.297161 
L 278.828897 130.587488 
L 283.072243 124.638066 
L 287.315589 120.298512 
L 291.558935 118.336208 
L 295.802281 115.778412 
L 300.045627 114.592078 
L 304.288973 113.735948 
L 308.532319 116.046765 
L 312.775665 120.716365 
L 321.262357 117.310002 
L 325.505703 117.209044 
L 329.749049 115.313259 
L 333.992395 109.782139 
L 342.479087 108.353351 
L 346.722433 108.583518 
L 350.965779 108.109286 
L 355.209125 106.834213 
L 359.452471 108.161991 
L 363.695817 107.587738 
L 367.939163 110.439711 
L 372.18251 112.961491 
L 376.425856 115.89188 
L 380.669202 123.080568 
L 384.912548 126.624846 
L 389.155894 126.891228 
L 393.39924 126.715993 
L 397.642586 128.298669 
L 401.885932 129.283607 
L 406.129278 127.867431 
L 410.372624 131.475834 
L 414.61597 131.929962 
L 418.859316 136.021782 
L 423.102662 132.084628 
L 427.346008 127.633273 
L 431.589354 127.469399 
L 435.8327 127.013897 
L 440.076046 129.847721 
L 444.319392 130.882754 
L 448.562738 137.483198 
L 452.806084 149.699902 
L 457.04943 158.224114 
L 461.292776 167.714794 
L 465.536122 173.07611 
L 469.779468 177.544267 
L 474.022814 185.558507 
L 478.26616 184.819061 
L 482.509506 172.089199 
L 486.752852 170.806726 
L 490.996198 165.951078 
L 495.239544 164.731122 
L 499.48289 161.694948 
L 503.726236 149.226224 
L 507.969582 152.711775 
L 512.212928 152.192122 
L 516.456274 153.344597 
L 520.69962 152.324603 
L 524.942966 153.585167 
L 529.186312 166.910447 
L 533.429658 166.969737 
L 537.673004 167.376011 
L 541.91635 167.228225 
L 546.159696 166.317584 
L 550.403042 164.956861 
L 554.646388 167.039079 
L 558.889734 162.435112 
L 563.13308 161.810433 
L 567.376426 160.648756 
L 571.619772 158.932934 
L 575.863118 160.357096 
L 580.106464 158.316337 
L 584.34981 161.997911 
L 588.593156 160.808513 
L 592.836502 159.135628 
L 597.079848 163.543828 
L 601.323194 162.460079 
L 605.56654 164.577191 
L 609.809886 167.957662 
L 614.053232 174.766264 
L 618.296578 177.966351 
L 622.539924 180.420085 
L 626.78327 186.118139 
L 631.026616 190.122337 
L 635.269962 190.734738 
L 639.513308 187.642718 
L 643.756654 195.126507 
L 648 194.659044 
L 652.243346 193.311549 
L 656.486692 176.608934 
L 660.730038 152.028158 
L 664.973384 150.235746 
L 664.973384 150.235746 
" clip-path="url(#p841d241672)" style="fill: none; stroke-dasharray: 5.55,2.4; stroke-dashoffset: 0; stroke: #8c564b; stroke-width: 1.5"/>
   </g>
   <g id="line2d_95">
    <path d="M 147.285171 262.158429 
L 151.528517 261.692119 
L 155.771863 265.463987 
L 160.015209 275.805071 
L 164.258555 278.298314 
L 168.501901 275.805071 
L 172.745247 275.647009 
L 181.231939 268.398701 
L 185.475285 262.922257 
L 189.718631 261.692119 
L 193.961977 260.873154 
L 198.205323 258.396205 
L 202.448669 259.992288 
L 206.692015 260.341084 
L 210.935361 260.962895 
L 215.178707 260.605766 
L 219.422053 264.111518 
L 223.665399 269.872852 
L 227.908745 269.872852 
L 232.152091 271.435062 
L 236.395437 274.116792 
L 240.638783 275.02414 
L 244.882129 273.528919 
L 249.125475 273.383992 
L 253.368821 275.805071 
L 257.612167 271.569557 
L 261.855513 268.398701 
L 266.098859 269.496453 
L 270.342205 271.035676 
L 274.585551 270.383292 
L 278.828897 267.691651 
L 283.072243 272.671162 
L 287.315589 279.185153 
L 291.558935 278.826802 
L 295.802281 275.489896 
L 300.045627 272.391381 
L 304.288973 271.569557 
L 308.532319 274.415758 
L 312.775665 275.489896 
L 317.019011 279.548482 
L 321.262357 286.411734 
L 325.505703 297.498396 
L 329.749049 307.565673 
L 333.992395 307.565673 
L 338.235741 308.105058 
L 342.479087 307.565673 
L 346.722433 312.228513 
L 350.965779 314.913869 
L 355.209125 326.237268 
L 359.452471 320.4 
L 363.695817 317.125826 
L 367.939163 322.204802 
L 372.18251 310.982599 
L 380.669202 308.6558 
L 384.912548 310.982599 
L 393.39924 308.6558 
L 397.642586 320.4 
L 401.885932 313.536748 
L 406.129278 312.874453 
L 410.372624 317.125826 
L 414.61597 312.228513 
L 418.859316 311.598139 
L 423.102662 308.6558 
L 427.346008 316.367534 
L 431.589354 317.125826 
L 435.8327 313.536748 
L 440.076046 323.156152 
L 444.319392 324.143411 
L 448.562738 328.51342 
L 452.806084 329.730348 
L 461.292776 329.730348 
L 465.536122 332.348457 
L 469.779468 336.84393 
L 474.022814 327.350595 
L 478.26616 329.730348 
L 482.509506 335.258036 
L 486.752852 331.006662 
L 495.239544 328.51342 
L 499.48289 336.84393 
L 503.726236 335.258036 
L 507.969582 332.348457 
L 512.212928 333.762814 
L 516.456274 336.84393 
L 520.69962 338.532209 
L 524.942966 342.27562 
L 533.429658 342.27562 
L 537.673004 358.46922 
L 541.91635 358.46922 
L 546.159696 354.976139 
L 554.646388 354.976139 
L 558.889734 358.46922 
L 560.109814 361 
M 600.103114 361 
L 601.323194 358.46922 
L 602.056774 361 
M 649.580218 361 
L 652.243346 358.46922 
L 654.906474 361 
M 662.310256 361 
L 664.973384 358.46922 
L 664.973384 358.46922 
" clip-path="url(#p841d241672)" style="fill: none; stroke-dasharray: 1.5,2.475; stroke-dashoffset: 0; stroke: #e377c2; stroke-width: 1.5"/>
   </g>
   <g id="line2d_96">
    <path d="M 147.285171 206.286845 
L 151.528517 200.496312 
L 155.771863 198.072821 
L 160.015209 198.548159 
L 164.258555 196.109859 
L 168.501901 195.51395 
L 172.745247 194.220808 
L 176.988593 188.654098 
L 181.231939 187.371579 
L 185.475285 180.88324 
L 189.718631 167.590401 
L 193.961977 162.192924 
L 198.205323 157.19139 
L 202.448669 159.181497 
L 206.692015 156.960955 
L 210.935361 148.463055 
L 215.178707 152.573044 
L 219.422053 154.363178 
L 223.665399 156.714144 
L 227.908745 156.804539 
L 232.152091 159.534619 
L 236.395437 177.481353 
L 240.638783 179.370251 
L 244.882129 182.7094 
L 249.125475 187.087207 
L 257.612167 183.76881 
L 261.855513 183.581456 
L 266.098859 186.15416 
L 270.342205 184.267096 
L 274.585551 180.087208 
L 278.828897 175.155655 
L 283.072243 174.856382 
L 287.315589 175.595603 
L 291.558935 176.666199 
L 295.802281 180.242845 
L 300.045627 185.715013 
L 304.288973 197.741942 
L 308.532319 204.462039 
L 312.775665 208.598394 
L 317.019011 202.151349 
L 321.262357 188.597501 
L 325.505703 190.435842 
L 329.749049 190.212386 
L 333.992395 186.869323 
L 338.235741 186.303922 
L 342.479087 189.800703 
L 346.722433 202.361005 
L 350.965779 204.524323 
L 355.209125 195.75812 
L 359.452471 196.581209 
L 363.695817 193.426892 
L 367.939163 191.342976 
L 372.18251 192.406662 
L 376.425856 191.551015 
L 380.669202 198.016032 
L 389.155894 199.923491 
L 393.39924 200.442908 
L 397.642586 199.862544 
L 401.885932 199.958382 
L 406.129278 201.82123 
L 410.372624 204.764462 
L 414.61597 209.312432 
L 418.859316 216.067328 
L 423.102662 212.409153 
L 427.346008 213.838345 
L 431.589354 216.408859 
L 435.8327 222.356858 
L 440.076046 224.297048 
L 444.319392 217.055208 
L 448.562738 223.879896 
L 452.806084 225.566723 
L 457.04943 226.392749 
L 461.292776 225.128997 
L 465.536122 225.197627 
L 469.779468 235.953607 
L 474.022814 241.946843 
L 478.26616 244.741649 
L 482.509506 246.908137 
L 486.752852 252.122536 
L 490.996198 253.169045 
L 495.239544 254.609368 
L 503.726236 254.609368 
L 507.969582 256.510037 
L 512.212928 256.662126 
L 516.456274 261.416272 
L 520.69962 261.784719 
L 524.942966 267.575646 
L 529.186312 271.704747 
L 533.429658 272.114561 
L 537.673004 278.124498 
L 541.91635 273.674653 
L 546.159696 274.415758 
L 550.403042 270.903891 
L 554.646388 273.821204 
L 558.889734 275.333721 
L 563.13308 277.105177 
L 567.376426 282.447302 
L 571.619772 280.103116 
L 575.863118 283.703187 
L 580.106464 282.041724 
L 584.34981 280.861408 
L 592.836502 260.429014 
L 597.079848 247.925718 
L 601.323194 226.20163 
L 605.56654 205.326364 
L 609.809886 205.304939 
L 614.053232 205.85682 
L 618.296578 206.962541 
L 622.539924 209.638956 
L 626.78327 219.041618 
L 631.026616 185.523296 
L 635.269962 169.231279 
L 639.513308 163.222535 
L 643.756654 155.82051 
L 652.243346 155.799524 
L 656.486692 165.695425 
L 660.730038 161.491561 
L 664.973384 161.920312 
L 664.973384 161.920312 
" clip-path="url(#p841d241672)" style="fill: none; stroke-dasharray: 9.6,2.4,1.5,2.4; stroke-dashoffset: 0; stroke: #7f7f7f; stroke-width: 1.5"/>
   </g>
   <g id="patch_3">
    <path d="M 90 320.4 
L 90 43.2 
" style="fill: none; stroke: #000000; stroke-width: 0.8; stroke-linejoin: miter; stroke-linecap: square"/>
   </g>
   <g id="patch_4">
    <path d="M 648 320.4 
L 648 43.2 
" style="fill: none; stroke: #000000; stroke-width: 0.8; stroke-linejoin: miter; stroke-linecap: square"/>
   </g>
   <g id="patch_5">
    <path d="M 90 320.4 
L 648 320.4 
" style="fill: none; stroke: #000000; stroke-width: 0.8; stroke-linejoin: miter; stroke-linecap: square"/>
   </g>
   <g id="patch_6">
    <path d="M 90 43.2 
L 648 43.2 
" style="fill: none; stroke: #000000; stroke-width: 0.8; stroke-linejoin: miter; stroke-linecap: square"/>
   </g>
   <g id="text_14">
    <!-- Python version of Uproot users, all operating systems -->
    <g transform="translate(207.975938 37.2) scale(0.12 -0.12)">
     <defs>
      <path id="DejaVuSans-50" d="M 1259 4147 
L 1259 2394 
L 2053 2394 
Q 2494 2394 2734 2622 
Q 2975 2850 2975 3272 
Q 2975 3691 2734 3919 
Q 2494 4147 2053 4147 
L 1259 4147 
z
M 628 4666 
L 2053 4666 
Q 2838 4666 3239 4311 
Q 3641 3956 3641 3272 
Q 3641 2581 3239 2228 
Q 2838 1875 2053 1875 
L 1259 1875 
L 1259 0 
L 628 0 
L 628 4666 
z
" transform="scale(0.015625)"/>
      <path id="DejaVuSans-79" d="M 2059 -325 
Q 1816 -950 1584 -1140 
Q 1353 -1331 966 -1331 
L 506 -1331 
L 506 -850 
L 844 -850 
Q 1081 -850 1212 -737 
Q 1344 -625 1503 -206 
L 1606 56 
L 191 3500 
L 800 3500 
L 1894 763 
L 2988 3500 
L 3597 3500 
L 2059 -325 
z
" transform="scale(0.015625)"/>
      <path id="DejaVuSans-76" d="M 191 3500 
L 800 3500 
L 1894 563 
L 2988 3500 
L 3597 3500 
L 2284 0 
L 1503 0 
L 191 3500 
z
" transform="scale(0.015625)"/>
      <path id="DejaVuSans-55" d="M 556 4666 
L 1191 4666 
L 1191 1831 
Q 1191 1081 1462 751 
Q 1734 422 2344 422 
Q 2950 422 3222 751 
Q 3494 1081 3494 1831 
L 3494 4666 
L 4128 4666 
L 4128 1753 
Q 4128 841 3676 375 
Q 3225 -91 2344 -91 
Q 1459 -91 1007 375 
Q 556 841 556 1753 
L 556 4666 
z
" transform="scale(0.015625)"/>
      <path id="DejaVuSans-2c" d="M 750 794 
L 1409 794 
L 1409 256 
L 897 -744 
L 494 -744 
L 750 256 
L 750 794 
z
" transform="scale(0.015625)"/>
      <path id="DejaVuSans-67" d="M 2906 1791 
Q 2906 2416 2648 2759 
Q 2391 3103 1925 3103 
Q 1463 3103 1205 2759 
Q 947 2416 947 1791 
Q 947 1169 1205 825 
Q 1463 481 1925 481 
Q 2391 481 2648 825 
Q 2906 1169 2906 1791 
z
M 3481 434 
Q 3481 -459 3084 -895 
Q 2688 -1331 1869 -1331 
Q 1566 -1331 1297 -1286 
Q 1028 -1241 775 -1147 
L 775 -588 
Q 1028 -725 1275 -790 
Q 1522 -856 1778 -856 
Q 2344 -856 2625 -561 
Q 2906 -266 2906 331 
L 2906 616 
Q 2728 306 2450 153 
Q 2172 0 1784 0 
Q 1141 0 747 490 
Q 353 981 353 1791 
Q 353 2603 747 3093 
Q 1141 3584 1784 3584 
Q 2172 3584 2450 3431 
Q 2728 3278 2906 2969 
L 2906 3500 
L 3481 3500 
L 3481 434 
z
" transform="scale(0.015625)"/>
     </defs>
     <use xlink:href="#DejaVuSans-50"/>
     <use xlink:href="#DejaVuSans-79" x="60.302734"/>
     <use xlink:href="#DejaVuSans-74" x="119.482422"/>
     <use xlink:href="#DejaVuSans-68" x="158.691406"/>
     <use xlink:href="#DejaVuSans-6f" x="222.070312"/>
     <use xlink:href="#DejaVuSans-6e" x="283.251953"/>
     <use xlink:href="#DejaVuSans-20" x="346.630859"/>
     <use xlink:href="#DejaVuSans-76" x="378.417969"/>
     <use xlink:href="#DejaVuSans-65" x="437.597656"/>
     <use xlink:href="#DejaVuSans-72" x="499.121094"/>
     <use xlink:href="#DejaVuSans-73" x="540.234375"/>
     <use xlink:href="#DejaVuSans-69" x="592.333984"/>
     <use xlink:href="#DejaVuSans-6f" x="620.117188"/>
     <use xlink:href="#DejaVuSans-6e" x="681.298828"/>
     <use xlink:href="#DejaVuSans-20" x="744.677734"/>
     <use xlink:href="#DejaVuSans-6f" x="776.464844"/>
     <use xlink:href="#DejaVuSans-66" x="837.646484"/>
     <use xlink:href="#DejaVuSans-20" x="872.851562"/>
     <use xlink:href="#DejaVuSans-55" x="904.638672"/>
     <use xlink:href="#DejaVuSans-70" x="977.832031"/>
     <use xlink:href="#DejaVuSans-72" x="1041.308594"/>
     <use xlink:href="#DejaVuSans-6f" x="1080.171875"/>
     <use xlink:href="#DejaVuSans-6f" x="1141.353516"/>
     <use xlink:href="#DejaVuSans-74" x="1202.535156"/>
     <use xlink:href="#DejaVuSans-20" x="1241.744141"/>
     <use xlink:href="#DejaVuSans-75" x="1273.53125"/>
     <use xlink:href="#DejaVuSans-73" x="1336.910156"/>
     <use xlink:href="#DejaVuSans-65" x="1389.009766"/>
     <use xlink:href="#DejaVuSans-72" x="1450.533203"/>
     <use xlink:href="#DejaVuSans-73" x="1491.646484"/>
     <use xlink:href="#DejaVuSans-2c" x="1543.746094"/>
     <use xlink:href="#DejaVuSans-20" x="1575.533203"/>
     <use xlink:href="#DejaVuSans-61" x="1607.320312"/>
     <use xlink:href="#DejaVuSans-6c" x="1668.599609"/>
     <use xlink:href="#DejaVuSans-6c" x="1696.382812"/>
     <use xlink:href="#DejaVuSans-20" x="1724.166016"/>
     <use xlink:href="#DejaVuSans-6f" x="1755.953125"/>
     <use xlink:href="#DejaVuSans-70" x="1817.134766"/>
     <use xlink:href="#DejaVuSans-65" x="1880.611328"/>
     <use xlink:href="#DejaVuSans-72" x="1942.134766"/>
     <use xlink:href="#DejaVuSans-61" x="1983.248047"/>
     <use xlink:href="#DejaVuSans-74" x="2044.527344"/>
     <use xlink:href="#DejaVuSans-69" x="2083.736328"/>
     <use xlink:href="#DejaVuSans-6e" x="2111.519531"/>
     <use xlink:href="#DejaVuSans-67" x="2174.898438"/>
     <use xlink:href="#DejaVuSans-20" x="2238.375"/>
     <use xlink:href="#DejaVuSans-73" x="2270.162109"/>
     <use xlink:href="#DejaVuSans-79" x="2322.261719"/>
     <use xlink:href="#DejaVuSans-73" x="2381.441406"/>
     <use xlink:href="#DejaVuSans-74" x="2433.541016"/>
     <use xlink:href="#DejaVuSans-65" x="2472.75"/>
     <use xlink:href="#DejaVuSans-6d" x="2534.273438"/>
     <use xlink:href="#DejaVuSans-73" x="2631.685547"/>
    </g>
   </g>
   <g id="legend_1">
    <g id="patch_7">
     <path d="M 97 168.625 
L 189.421875 168.625 
Q 191.421875 168.625 191.421875 166.625 
L 191.421875 50.2 
Q 191.421875 48.2 189.421875 48.2 
L 97 48.2 
Q 95 48.2 95 50.2 
L 95 166.625 
Q 95 168.625 97 168.625 
z
" style="fill: #ffffff; opacity: 0.8; stroke: #cccccc; stroke-linejoin: miter"/>
    </g>
    <g id="line2d_97">
     <path d="M 99 56.298437 
L 109 56.298437 
L 119 56.298437 
" style="fill: none; stroke: #1f77b4; stroke-width: 1.5; stroke-linecap: square"/>
    </g>
    <g id="text_15">
     <!-- 3.11 -->
     <g transform="translate(127 59.798437) scale(0.1 -0.1)">
      <defs>
       <path id="DejaVuSans-2e" d="M 684 794 
L 1344 794 
L 1344 0 
L 684 0 
L 684 794 
z
" transform="scale(0.015625)"/>
      </defs>
      <use xlink:href="#DejaVuSans-33"/>
      <use xlink:href="#DejaVuSans-2e" x="63.623047"/>
      <use xlink:href="#DejaVuSans-31" x="95.410156"/>
      <use xlink:href="#DejaVuSans-31" x="159.033203"/>
     </g>
    </g>
    <g id="line2d_98">
     <path d="M 99 70.976562 
L 109 70.976562 
L 119 70.976562 
" style="fill: none; stroke-dasharray: 5.55,2.4; stroke-dashoffset: 0; stroke: #ff7f0e; stroke-width: 1.5"/>
    </g>
    <g id="text_16">
     <!-- 3.10 -->
     <g transform="translate(127 74.476562) scale(0.1 -0.1)">
      <use xlink:href="#DejaVuSans-33"/>
      <use xlink:href="#DejaVuSans-2e" x="63.623047"/>
      <use xlink:href="#DejaVuSans-31" x="95.410156"/>
      <use xlink:href="#DejaVuSans-30" x="159.033203"/>
     </g>
    </g>
    <g id="line2d_99">
     <path d="M 99 85.654687 
L 109 85.654687 
L 119 85.654687 
" style="fill: none; stroke-dasharray: 1.5,2.475; stroke-dashoffset: 0; stroke: #2ca02c; stroke-width: 1.5"/>
    </g>
    <g id="text_17">
     <!-- 3.9 -->
     <g transform="translate(127 89.154687) scale(0.1 -0.1)">
      <defs>
       <path id="DejaVuSans-39" d="M 703 97 
L 703 672 
Q 941 559 1184 500 
Q 1428 441 1663 441 
Q 2288 441 2617 861 
Q 2947 1281 2994 2138 
Q 2813 1869 2534 1725 
Q 2256 1581 1919 1581 
Q 1219 1581 811 2004 
Q 403 2428 403 3163 
Q 403 3881 828 4315 
Q 1253 4750 1959 4750 
Q 2769 4750 3195 4129 
Q 3622 3509 3622 2328 
Q 3622 1225 3098 567 
Q 2575 -91 1691 -91 
Q 1453 -91 1209 -44 
Q 966 3 703 97 
z
M 1959 2075 
Q 2384 2075 2632 2365 
Q 2881 2656 2881 3163 
Q 2881 3666 2632 3958 
Q 2384 4250 1959 4250 
Q 1534 4250 1286 3958 
Q 1038 3666 1038 3163 
Q 1038 2656 1286 2365 
Q 1534 2075 1959 2075 
z
" transform="scale(0.015625)"/>
      </defs>
      <use xlink:href="#DejaVuSans-33"/>
      <use xlink:href="#DejaVuSans-2e" x="63.623047"/>
      <use xlink:href="#DejaVuSans-39" x="95.410156"/>
     </g>
    </g>
    <g id="line2d_100">
     <path d="M 99 100.332812 
L 109 100.332812 
L 119 100.332812 
" style="fill: none; stroke-dasharray: 9.6,2.4,1.5,2.4; stroke-dashoffset: 0; stroke: #d62728; stroke-width: 1.5"/>
    </g>
    <g id="text_18">
     <!-- 3.8 -->
     <g transform="translate(127 103.832812) scale(0.1 -0.1)">
      <defs>
       <path id="DejaVuSans-38" d="M 2034 2216 
Q 1584 2216 1326 1975 
Q 1069 1734 1069 1313 
Q 1069 891 1326 650 
Q 1584 409 2034 409 
Q 2484 409 2743 651 
Q 3003 894 3003 1313 
Q 3003 1734 2745 1975 
Q 2488 2216 2034 2216 
z
M 1403 2484 
Q 997 2584 770 2862 
Q 544 3141 544 3541 
Q 544 4100 942 4425 
Q 1341 4750 2034 4750 
Q 2731 4750 3128 4425 
Q 3525 4100 3525 3541 
Q 3525 3141 3298 2862 
Q 3072 2584 2669 2484 
Q 3125 2378 3379 2068 
Q 3634 1759 3634 1313 
Q 3634 634 3220 271 
Q 2806 -91 2034 -91 
Q 1263 -91 848 271 
Q 434 634 434 1313 
Q 434 1759 690 2068 
Q 947 2378 1403 2484 
z
M 1172 3481 
Q 1172 3119 1398 2916 
Q 1625 2713 2034 2713 
Q 2441 2713 2670 2916 
Q 2900 3119 2900 3481 
Q 2900 3844 2670 4047 
Q 2441 4250 2034 4250 
Q 1625 4250 1398 4047 
Q 1172 3844 1172 3481 
z
" transform="scale(0.015625)"/>
      </defs>
      <use xlink:href="#DejaVuSans-33"/>
      <use xlink:href="#DejaVuSans-2e" x="63.623047"/>
      <use xlink:href="#DejaVuSans-38" x="95.410156"/>
     </g>
    </g>
    <g id="line2d_101">
     <path d="M 99 115.010937 
L 109 115.010937 
L 119 115.010937 
" style="fill: none; stroke: #9467bd; stroke-width: 1.5; stroke-linecap: square"/>
    </g>
    <g id="text_19">
     <!-- 3.7 -->
     <g transform="translate(127 118.510937) scale(0.1 -0.1)">
      <defs>
       <path id="DejaVuSans-37" d="M 525 4666 
L 3525 4666 
L 3525 4397 
L 1831 0 
L 1172 0 
L 2766 4134 
L 525 4134 
L 525 4666 
z
" transform="scale(0.015625)"/>
      </defs>
      <use xlink:href="#DejaVuSans-33"/>
      <use xlink:href="#DejaVuSans-2e" x="63.623047"/>
      <use xlink:href="#DejaVuSans-37" x="95.410156"/>
     </g>
    </g>
    <g id="line2d_102">
     <path d="M 99 129.689062 
L 109 129.689062 
L 119 129.689062 
" style="fill: none; stroke-dasharray: 5.55,2.4; stroke-dashoffset: 0; stroke: #8c564b; stroke-width: 1.5"/>
    </g>
    <g id="text_20">
     <!-- 3.6 -->
     <g transform="translate(127 133.189062) scale(0.1 -0.1)">
      <defs>
       <path id="DejaVuSans-36" d="M 2113 2584 
Q 1688 2584 1439 2293 
Q 1191 2003 1191 1497 
Q 1191 994 1439 701 
Q 1688 409 2113 409 
Q 2538 409 2786 701 
Q 3034 994 3034 1497 
Q 3034 2003 2786 2293 
Q 2538 2584 2113 2584 
z
M 3366 4563 
L 3366 3988 
Q 3128 4100 2886 4159 
Q 2644 4219 2406 4219 
Q 1781 4219 1451 3797 
Q 1122 3375 1075 2522 
Q 1259 2794 1537 2939 
Q 1816 3084 2150 3084 
Q 2853 3084 3261 2657 
Q 3669 2231 3669 1497 
Q 3669 778 3244 343 
Q 2819 -91 2113 -91 
Q 1303 -91 875 529 
Q 447 1150 447 2328 
Q 447 3434 972 4092 
Q 1497 4750 2381 4750 
Q 2619 4750 2861 4703 
Q 3103 4656 3366 4563 
z
" transform="scale(0.015625)"/>
      </defs>
      <use xlink:href="#DejaVuSans-33"/>
      <use xlink:href="#DejaVuSans-2e" x="63.623047"/>
      <use xlink:href="#DejaVuSans-36" x="95.410156"/>
     </g>
    </g>
    <g id="line2d_103">
     <path d="M 99 144.367187 
L 109 144.367187 
L 119 144.367187 
" style="fill: none; stroke-dasharray: 1.5,2.475; stroke-dashoffset: 0; stroke: #e377c2; stroke-width: 1.5"/>
    </g>
    <g id="text_21">
     <!-- 3.3, 3.4, 3.5 -->
     <g transform="translate(127 147.867187) scale(0.1 -0.1)">
      <use xlink:href="#DejaVuSans-33"/>
      <use xlink:href="#DejaVuSans-2e" x="63.623047"/>
      <use xlink:href="#DejaVuSans-33" x="95.410156"/>
      <use xlink:href="#DejaVuSans-2c" x="159.033203"/>
      <use xlink:href="#DejaVuSans-20" x="190.820312"/>
      <use xlink:href="#DejaVuSans-33" x="222.607422"/>
      <use xlink:href="#DejaVuSans-2e" x="286.230469"/>
      <use xlink:href="#DejaVuSans-34" x="318.017578"/>
      <use xlink:href="#DejaVuSans-2c" x="381.640625"/>
      <use xlink:href="#DejaVuSans-20" x="413.427734"/>
      <use xlink:href="#DejaVuSans-33" x="445.214844"/>
      <use xlink:href="#DejaVuSans-2e" x="508.837891"/>
      <use xlink:href="#DejaVuSans-35" x="540.625"/>
     </g>
    </g>
    <g id="line2d_104">
     <path d="M 99 159.045312 
L 109 159.045312 
L 119 159.045312 
" style="fill: none; stroke-dasharray: 9.6,2.4,1.5,2.4; stroke-dashoffset: 0; stroke: #7f7f7f; stroke-width: 1.5"/>
    </g>
    <g id="text_22">
     <!-- 2.7 -->
     <g transform="translate(127 162.545312) scale(0.1 -0.1)">
      <use xlink:href="#DejaVuSans-32"/>
      <use xlink:href="#DejaVuSans-2e" x="63.623047"/>
      <use xlink:href="#DejaVuSans-37" x="95.410156"/>
     </g>
    </g>
   </g>
  </g>
 </g>
 <defs>
  <clipPath id="p841d241672">
   <rect x="90" y="43.2" width="558" height="277.2"/>
  </clipPath>
 </defs>
</svg>
