<?xml version="1.0" encoding="utf-8" standalone="no"?>
<!DOCTYPE svg PUBLIC "-//W3C//DTD SVG 1.1//EN"
  "http://www.w3.org/Graphics/SVG/1.1/DTD/svg11.dtd">
<svg xmlns:xlink="http://www.w3.org/1999/xlink" width="720pt" height="360pt" viewBox="0 0 720 360" xmlns="http://www.w3.org/2000/svg" version="1.1">
 <metadata>
  <rdf:RDF xmlns:dc="http://purl.org/dc/elements/1.1/" xmlns:cc="http://creativecommons.org/ns#" xmlns:rdf="http://www.w3.org/1999/02/22-rdf-syntax-ns#">
   <cc:Work>
    <dc:type rdf:resource="http://purl.org/dc/dcmitype/StillImage"/>
    <dc:date>2022-03-05T15:00:57.966323</dc:date>
    <dc:format>image/svg+xml</dc:format>
    <dc:creator>
     <cc:Agent>
      <dc:title>Matplotlib v3.5.1, https://matplotlib.org/</dc:title>
     </cc:Agent>
    </dc:creator>
   </cc:Work>
  </rdf:RDF>
 </metadata>
 <defs>
  <style type="text/css">*{stroke-linejoin: round; stroke-linecap: butt}</style>
 </defs>
 <g id="figure_1">
  <g id="patch_1">
   <path d="M 0 360 
L 720 360 
L 720 0 
L 0 0 
L 0 360 
z
" style="fill: none"/>
  </g>
  <g id="axes_1">
   <g id="patch_2">
    <path d="M 90 315 
L 648 315 
L 648 43.2 
L 90 43.2 
z
" style="fill: #ffffff"/>
   </g>
   <g id="matplotlib.axis_1">
    <g id="xtick_1">
     <g id="line2d_1">
      <defs>
       <path id="m0fa3425fe2" d="M 0 0 
L 0 3.5 
" style="stroke: #000000; stroke-width: 0.8"/>
      </defs>
      <g>
       <use xlink:href="#m0fa3425fe2" x="90" y="315" style="stroke: #000000; stroke-width: 0.8"/>
      </g>
     </g>
    </g>
    <g id="xtick_2">
     <g id="line2d_2">
      <g>
       <use xlink:href="#m0fa3425fe2" x="211.469388" y="315" style="stroke: #000000; stroke-width: 0.8"/>
      </g>
     </g>
     <g id="text_1">
      <!-- 2019 -->
      <g transform="translate(198.744388 329.598437)scale(0.1 -0.1)">
       <defs>
        <path id="DejaVuSans-32" d="M 1228 531 
L 3431 531 
L 3431 0 
L 469 0 
L 469 531 
Q 828 903 1448 1529 
Q 2069 2156 2228 2338 
Q 2531 2678 2651 2914 
Q 2772 3150 2772 3378 
Q 2772 3750 2511 3984 
Q 2250 4219 1831 4219 
Q 1534 4219 1204 4116 
Q 875 4013 500 3803 
L 500 4441 
Q 881 4594 1212 4672 
Q 1544 4750 1819 4750 
Q 2544 4750 2975 4387 
Q 3406 4025 3406 3419 
Q 3406 3131 3298 2873 
Q 3191 2616 2906 2266 
Q 2828 2175 2409 1742 
Q 1991 1309 1228 531 
z
" transform="scale(0.015625)"/>
        <path id="DejaVuSans-30" d="M 2034 4250 
Q 1547 4250 1301 3770 
Q 1056 3291 1056 2328 
Q 1056 1369 1301 889 
Q 1547 409 2034 409 
Q 2525 409 2770 889 
Q 3016 1369 3016 2328 
Q 3016 3291 2770 3770 
Q 2525 4250 2034 4250 
z
M 2034 4750 
Q 2819 4750 3233 4129 
Q 3647 3509 3647 2328 
Q 3647 1150 3233 529 
Q 2819 -91 2034 -91 
Q 1250 -91 836 529 
Q 422 1150 422 2328 
Q 422 3509 836 4129 
Q 1250 4750 2034 4750 
z
" transform="scale(0.015625)"/>
        <path id="DejaVuSans-31" d="M 794 531 
L 1825 531 
L 1825 4091 
L 703 3866 
L 703 4441 
L 1819 4666 
L 2450 4666 
L 2450 531 
L 3481 531 
L 3481 0 
L 794 0 
L 794 531 
z
" transform="scale(0.015625)"/>
        <path id="DejaVuSans-39" d="M 703 97 
L 703 672 
Q 941 559 1184 500 
Q 1428 441 1663 441 
Q 2288 441 2617 861 
Q 2947 1281 2994 2138 
Q 2813 1869 2534 1725 
Q 2256 1581 1919 1581 
Q 1219 1581 811 2004 
Q 403 2428 403 3163 
Q 403 3881 828 4315 
Q 1253 4750 1959 4750 
Q 2769 4750 3195 4129 
Q 3622 3509 3622 2328 
Q 3622 1225 3098 567 
Q 2575 -91 1691 -91 
Q 1453 -91 1209 -44 
Q 966 3 703 97 
z
M 1959 2075 
Q 2384 2075 2632 2365 
Q 2881 2656 2881 3163 
Q 2881 3666 2632 3958 
Q 2384 4250 1959 4250 
Q 1534 4250 1286 3958 
Q 1038 3666 1038 3163 
Q 1038 2656 1286 2365 
Q 1534 2075 1959 2075 
z
" transform="scale(0.015625)"/>
       </defs>
       <use xlink:href="#DejaVuSans-32"/>
       <use xlink:href="#DejaVuSans-30" x="63.623047"/>
       <use xlink:href="#DejaVuSans-31" x="127.246094"/>
       <use xlink:href="#DejaVuSans-39" x="190.869141"/>
      </g>
     </g>
    </g>
    <g id="xtick_3">
     <g id="line2d_3">
      <g>
       <use xlink:href="#m0fa3425fe2" x="350.020408" y="315" style="stroke: #000000; stroke-width: 0.8"/>
      </g>
     </g>
     <g id="text_2">
      <!-- 2020 -->
      <g transform="translate(337.295408 329.598437)scale(0.1 -0.1)">
       <use xlink:href="#DejaVuSans-32"/>
       <use xlink:href="#DejaVuSans-30" x="63.623047"/>
       <use xlink:href="#DejaVuSans-32" x="127.246094"/>
       <use xlink:href="#DejaVuSans-30" x="190.869141"/>
      </g>
     </g>
    </g>
    <g id="xtick_4">
     <g id="line2d_4">
      <g>
       <use xlink:href="#m0fa3425fe2" x="488.95102" y="315" style="stroke: #000000; stroke-width: 0.8"/>
      </g>
     </g>
     <g id="text_3">
      <!-- 2021 -->
      <g transform="translate(476.22602 329.598437)scale(0.1 -0.1)">
       <use xlink:href="#DejaVuSans-32"/>
       <use xlink:href="#DejaVuSans-30" x="63.623047"/>
       <use xlink:href="#DejaVuSans-32" x="127.246094"/>
       <use xlink:href="#DejaVuSans-31" x="190.869141"/>
      </g>
     </g>
    </g>
    <g id="xtick_5">
     <g id="line2d_5">
      <g>
       <use xlink:href="#m0fa3425fe2" x="627.502041" y="315" style="stroke: #000000; stroke-width: 0.8"/>
      </g>
     </g>
     <g id="text_4">
      <!-- 2022 -->
      <g transform="translate(614.777041 329.598437)scale(0.1 -0.1)">
       <use xlink:href="#DejaVuSans-32"/>
       <use xlink:href="#DejaVuSans-30" x="63.623047"/>
       <use xlink:href="#DejaVuSans-32" x="127.246094"/>
       <use xlink:href="#DejaVuSans-32" x="190.869141"/>
      </g>
     </g>
    </g>
    <g id="xtick_6">
     <g id="line2d_6">
      <g>
       <use xlink:href="#m0fa3425fe2" x="648" y="315" style="stroke: #000000; stroke-width: 0.8"/>
      </g>
     </g>
    </g>
    <g id="xtick_7">
     <g id="line2d_7">
      <defs>
       <path id="m722721cf8a" d="M 0 0 
L 0 2 
" style="stroke: #000000; stroke-width: 0.6"/>
      </defs>
      <g>
       <use xlink:href="#m722721cf8a" x="107.081633" y="315" style="stroke: #000000; stroke-width: 0.6"/>
      </g>
     </g>
    </g>
    <g id="xtick_8">
     <g id="line2d_8">
      <g>
       <use xlink:href="#m722721cf8a" x="141.62449" y="315" style="stroke: #000000; stroke-width: 0.6"/>
      </g>
     </g>
    </g>
    <g id="xtick_9">
     <g id="line2d_9">
      <g>
       <use xlink:href="#m722721cf8a" x="176.546939" y="315" style="stroke: #000000; stroke-width: 0.6"/>
      </g>
     </g>
    </g>
    <g id="xtick_10">
     <g id="line2d_10">
      <g>
       <use xlink:href="#m722721cf8a" x="245.632653" y="315" style="stroke: #000000; stroke-width: 0.6"/>
      </g>
     </g>
    </g>
    <g id="xtick_11">
     <g id="line2d_11">
      <g>
       <use xlink:href="#m722721cf8a" x="280.17551" y="315" style="stroke: #000000; stroke-width: 0.6"/>
      </g>
     </g>
    </g>
    <g id="xtick_12">
     <g id="line2d_12">
      <g>
       <use xlink:href="#m722721cf8a" x="315.097959" y="315" style="stroke: #000000; stroke-width: 0.6"/>
      </g>
     </g>
    </g>
    <g id="xtick_13">
     <g id="line2d_13">
      <g>
       <use xlink:href="#m722721cf8a" x="384.563265" y="315" style="stroke: #000000; stroke-width: 0.6"/>
      </g>
     </g>
    </g>
    <g id="xtick_14">
     <g id="line2d_14">
      <g>
       <use xlink:href="#m722721cf8a" x="419.106122" y="315" style="stroke: #000000; stroke-width: 0.6"/>
      </g>
     </g>
    </g>
    <g id="xtick_15">
     <g id="line2d_15">
      <g>
       <use xlink:href="#m722721cf8a" x="454.028571" y="315" style="stroke: #000000; stroke-width: 0.6"/>
      </g>
     </g>
    </g>
    <g id="xtick_16">
     <g id="line2d_16">
      <g>
       <use xlink:href="#m722721cf8a" x="523.114286" y="315" style="stroke: #000000; stroke-width: 0.6"/>
      </g>
     </g>
    </g>
    <g id="xtick_17">
     <g id="line2d_17">
      <g>
       <use xlink:href="#m722721cf8a" x="557.657143" y="315" style="stroke: #000000; stroke-width: 0.6"/>
      </g>
     </g>
    </g>
    <g id="xtick_18">
     <g id="line2d_18">
      <g>
       <use xlink:href="#m722721cf8a" x="592.579592" y="315" style="stroke: #000000; stroke-width: 0.6"/>
      </g>
     </g>
    </g>
   </g>
   <g id="matplotlib.axis_2">
    <g id="ytick_1">
     <g id="line2d_19">
      <defs>
       <path id="m1a66a8cabc" d="M 0 0 
L -3.5 0 
" style="stroke: #000000; stroke-width: 0.8"/>
      </defs>
      <g>
       <use xlink:href="#m1a66a8cabc" x="90" y="315" style="stroke: #000000; stroke-width: 0.8"/>
      </g>
     </g>
     <g id="text_5">
      <!-- 0.0 -->
      <g transform="translate(67.096875 318.799219)scale(0.1 -0.1)">
       <defs>
        <path id="DejaVuSans-2e" d="M 684 794 
L 1344 794 
L 1344 0 
L 684 0 
L 684 794 
z
" transform="scale(0.015625)"/>
       </defs>
       <use xlink:href="#DejaVuSans-30"/>
       <use xlink:href="#DejaVuSans-2e" x="63.623047"/>
       <use xlink:href="#DejaVuSans-30" x="95.410156"/>
      </g>
     </g>
    </g>
    <g id="ytick_2">
     <g id="line2d_20">
      <g>
       <use xlink:href="#m1a66a8cabc" x="90" y="269.7" style="stroke: #000000; stroke-width: 0.8"/>
      </g>
     </g>
     <g id="text_6">
      <!-- 0.5 -->
      <g transform="translate(67.096875 273.499219)scale(0.1 -0.1)">
       <defs>
        <path id="DejaVuSans-35" d="M 691 4666 
L 3169 4666 
L 3169 4134 
L 1269 4134 
L 1269 2991 
Q 1406 3038 1543 3061 
Q 1681 3084 1819 3084 
Q 2600 3084 3056 2656 
Q 3513 2228 3513 1497 
Q 3513 744 3044 326 
Q 2575 -91 1722 -91 
Q 1428 -91 1123 -41 
Q 819 9 494 109 
L 494 744 
Q 775 591 1075 516 
Q 1375 441 1709 441 
Q 2250 441 2565 725 
Q 2881 1009 2881 1497 
Q 2881 1984 2565 2268 
Q 2250 2553 1709 2553 
Q 1456 2553 1204 2497 
Q 953 2441 691 2322 
L 691 4666 
z
" transform="scale(0.015625)"/>
       </defs>
       <use xlink:href="#DejaVuSans-30"/>
       <use xlink:href="#DejaVuSans-2e" x="63.623047"/>
       <use xlink:href="#DejaVuSans-35" x="95.410156"/>
      </g>
     </g>
    </g>
    <g id="ytick_3">
     <g id="line2d_21">
      <g>
       <use xlink:href="#m1a66a8cabc" x="90" y="224.4" style="stroke: #000000; stroke-width: 0.8"/>
      </g>
     </g>
     <g id="text_7">
      <!-- 1.0 -->
      <g transform="translate(67.096875 228.199219)scale(0.1 -0.1)">
       <use xlink:href="#DejaVuSans-31"/>
       <use xlink:href="#DejaVuSans-2e" x="63.623047"/>
       <use xlink:href="#DejaVuSans-30" x="95.410156"/>
      </g>
     </g>
    </g>
    <g id="ytick_4">
     <g id="line2d_22">
      <g>
       <use xlink:href="#m1a66a8cabc" x="90" y="179.1" style="stroke: #000000; stroke-width: 0.8"/>
      </g>
     </g>
     <g id="text_8">
      <!-- 1.5 -->
      <g transform="translate(67.096875 182.899219)scale(0.1 -0.1)">
       <use xlink:href="#DejaVuSans-31"/>
       <use xlink:href="#DejaVuSans-2e" x="63.623047"/>
       <use xlink:href="#DejaVuSans-35" x="95.410156"/>
      </g>
     </g>
    </g>
    <g id="ytick_5">
     <g id="line2d_23">
      <g>
       <use xlink:href="#m1a66a8cabc" x="90" y="133.8" style="stroke: #000000; stroke-width: 0.8"/>
      </g>
     </g>
     <g id="text_9">
      <!-- 2.0 -->
      <g transform="translate(67.096875 137.599219)scale(0.1 -0.1)">
       <use xlink:href="#DejaVuSans-32"/>
       <use xlink:href="#DejaVuSans-2e" x="63.623047"/>
       <use xlink:href="#DejaVuSans-30" x="95.410156"/>
      </g>
     </g>
    </g>
    <g id="ytick_6">
     <g id="line2d_24">
      <g>
       <use xlink:href="#m1a66a8cabc" x="90" y="88.5" style="stroke: #000000; stroke-width: 0.8"/>
      </g>
     </g>
     <g id="text_10">
      <!-- 2.5 -->
      <g transform="translate(67.096875 92.299219)scale(0.1 -0.1)">
       <use xlink:href="#DejaVuSans-32"/>
       <use xlink:href="#DejaVuSans-2e" x="63.623047"/>
       <use xlink:href="#DejaVuSans-35" x="95.410156"/>
      </g>
     </g>
    </g>
    <g id="ytick_7">
     <g id="line2d_25">
      <g>
       <use xlink:href="#m1a66a8cabc" x="90" y="43.2" style="stroke: #000000; stroke-width: 0.8"/>
      </g>
     </g>
     <g id="text_11">
      <!-- 3.0 -->
      <g transform="translate(67.096875 46.999219)scale(0.1 -0.1)">
       <defs>
        <path id="DejaVuSans-33" d="M 2597 2516 
Q 3050 2419 3304 2112 
Q 3559 1806 3559 1356 
Q 3559 666 3084 287 
Q 2609 -91 1734 -91 
Q 1441 -91 1130 -33 
Q 819 25 488 141 
L 488 750 
Q 750 597 1062 519 
Q 1375 441 1716 441 
Q 2309 441 2620 675 
Q 2931 909 2931 1356 
Q 2931 1769 2642 2001 
Q 2353 2234 1838 2234 
L 1294 2234 
L 1294 2753 
L 1863 2753 
Q 2328 2753 2575 2939 
Q 2822 3125 2822 3475 
Q 2822 3834 2567 4026 
Q 2313 4219 1838 4219 
Q 1578 4219 1281 4162 
Q 984 4106 628 3988 
L 628 4550 
Q 988 4650 1302 4700 
Q 1616 4750 1894 4750 
Q 2613 4750 3031 4423 
Q 3450 4097 3450 3541 
Q 3450 3153 3228 2886 
Q 3006 2619 2597 2516 
z
" transform="scale(0.015625)"/>
       </defs>
       <use xlink:href="#DejaVuSans-33"/>
       <use xlink:href="#DejaVuSans-2e" x="63.623047"/>
       <use xlink:href="#DejaVuSans-30" x="95.410156"/>
      </g>
     </g>
    </g>
    <g id="text_12">
     <!-- Number of pip-installs per month -->
     <g transform="translate(61.017187 262.00625)rotate(-90)scale(0.1 -0.1)">
      <defs>
       <path id="DejaVuSans-4e" d="M 628 4666 
L 1478 4666 
L 3547 763 
L 3547 4666 
L 4159 4666 
L 4159 0 
L 3309 0 
L 1241 3903 
L 1241 0 
L 628 0 
L 628 4666 
z
" transform="scale(0.015625)"/>
       <path id="DejaVuSans-75" d="M 544 1381 
L 544 3500 
L 1119 3500 
L 1119 1403 
Q 1119 906 1312 657 
Q 1506 409 1894 409 
Q 2359 409 2629 706 
Q 2900 1003 2900 1516 
L 2900 3500 
L 3475 3500 
L 3475 0 
L 2900 0 
L 2900 538 
Q 2691 219 2414 64 
Q 2138 -91 1772 -91 
Q 1169 -91 856 284 
Q 544 659 544 1381 
z
M 1991 3584 
L 1991 3584 
z
" transform="scale(0.015625)"/>
       <path id="DejaVuSans-6d" d="M 3328 2828 
Q 3544 3216 3844 3400 
Q 4144 3584 4550 3584 
Q 5097 3584 5394 3201 
Q 5691 2819 5691 2113 
L 5691 0 
L 5113 0 
L 5113 2094 
Q 5113 2597 4934 2840 
Q 4756 3084 4391 3084 
Q 3944 3084 3684 2787 
Q 3425 2491 3425 1978 
L 3425 0 
L 2847 0 
L 2847 2094 
Q 2847 2600 2669 2842 
Q 2491 3084 2119 3084 
Q 1678 3084 1418 2786 
Q 1159 2488 1159 1978 
L 1159 0 
L 581 0 
L 581 3500 
L 1159 3500 
L 1159 2956 
Q 1356 3278 1631 3431 
Q 1906 3584 2284 3584 
Q 2666 3584 2933 3390 
Q 3200 3197 3328 2828 
z
" transform="scale(0.015625)"/>
       <path id="DejaVuSans-62" d="M 3116 1747 
Q 3116 2381 2855 2742 
Q 2594 3103 2138 3103 
Q 1681 3103 1420 2742 
Q 1159 2381 1159 1747 
Q 1159 1113 1420 752 
Q 1681 391 2138 391 
Q 2594 391 2855 752 
Q 3116 1113 3116 1747 
z
M 1159 2969 
Q 1341 3281 1617 3432 
Q 1894 3584 2278 3584 
Q 2916 3584 3314 3078 
Q 3713 2572 3713 1747 
Q 3713 922 3314 415 
Q 2916 -91 2278 -91 
Q 1894 -91 1617 61 
Q 1341 213 1159 525 
L 1159 0 
L 581 0 
L 581 4863 
L 1159 4863 
L 1159 2969 
z
" transform="scale(0.015625)"/>
       <path id="DejaVuSans-65" d="M 3597 1894 
L 3597 1613 
L 953 1613 
Q 991 1019 1311 708 
Q 1631 397 2203 397 
Q 2534 397 2845 478 
Q 3156 559 3463 722 
L 3463 178 
Q 3153 47 2828 -22 
Q 2503 -91 2169 -91 
Q 1331 -91 842 396 
Q 353 884 353 1716 
Q 353 2575 817 3079 
Q 1281 3584 2069 3584 
Q 2775 3584 3186 3129 
Q 3597 2675 3597 1894 
z
M 3022 2063 
Q 3016 2534 2758 2815 
Q 2500 3097 2075 3097 
Q 1594 3097 1305 2825 
Q 1016 2553 972 2059 
L 3022 2063 
z
" transform="scale(0.015625)"/>
       <path id="DejaVuSans-72" d="M 2631 2963 
Q 2534 3019 2420 3045 
Q 2306 3072 2169 3072 
Q 1681 3072 1420 2755 
Q 1159 2438 1159 1844 
L 1159 0 
L 581 0 
L 581 3500 
L 1159 3500 
L 1159 2956 
Q 1341 3275 1631 3429 
Q 1922 3584 2338 3584 
Q 2397 3584 2469 3576 
Q 2541 3569 2628 3553 
L 2631 2963 
z
" transform="scale(0.015625)"/>
       <path id="DejaVuSans-20" transform="scale(0.015625)"/>
       <path id="DejaVuSans-6f" d="M 1959 3097 
Q 1497 3097 1228 2736 
Q 959 2375 959 1747 
Q 959 1119 1226 758 
Q 1494 397 1959 397 
Q 2419 397 2687 759 
Q 2956 1122 2956 1747 
Q 2956 2369 2687 2733 
Q 2419 3097 1959 3097 
z
M 1959 3584 
Q 2709 3584 3137 3096 
Q 3566 2609 3566 1747 
Q 3566 888 3137 398 
Q 2709 -91 1959 -91 
Q 1206 -91 779 398 
Q 353 888 353 1747 
Q 353 2609 779 3096 
Q 1206 3584 1959 3584 
z
" transform="scale(0.015625)"/>
       <path id="DejaVuSans-66" d="M 2375 4863 
L 2375 4384 
L 1825 4384 
Q 1516 4384 1395 4259 
Q 1275 4134 1275 3809 
L 1275 3500 
L 2222 3500 
L 2222 3053 
L 1275 3053 
L 1275 0 
L 697 0 
L 697 3053 
L 147 3053 
L 147 3500 
L 697 3500 
L 697 3744 
Q 697 4328 969 4595 
Q 1241 4863 1831 4863 
L 2375 4863 
z
" transform="scale(0.015625)"/>
       <path id="DejaVuSans-70" d="M 1159 525 
L 1159 -1331 
L 581 -1331 
L 581 3500 
L 1159 3500 
L 1159 2969 
Q 1341 3281 1617 3432 
Q 1894 3584 2278 3584 
Q 2916 3584 3314 3078 
Q 3713 2572 3713 1747 
Q 3713 922 3314 415 
Q 2916 -91 2278 -91 
Q 1894 -91 1617 61 
Q 1341 213 1159 525 
z
M 3116 1747 
Q 3116 2381 2855 2742 
Q 2594 3103 2138 3103 
Q 1681 3103 1420 2742 
Q 1159 2381 1159 1747 
Q 1159 1113 1420 752 
Q 1681 391 2138 391 
Q 2594 391 2855 752 
Q 3116 1113 3116 1747 
z
" transform="scale(0.015625)"/>
       <path id="DejaVuSans-69" d="M 603 3500 
L 1178 3500 
L 1178 0 
L 603 0 
L 603 3500 
z
M 603 4863 
L 1178 4863 
L 1178 4134 
L 603 4134 
L 603 4863 
z
" transform="scale(0.015625)"/>
       <path id="DejaVuSans-2d" d="M 313 2009 
L 1997 2009 
L 1997 1497 
L 313 1497 
L 313 2009 
z
" transform="scale(0.015625)"/>
       <path id="DejaVuSans-6e" d="M 3513 2113 
L 3513 0 
L 2938 0 
L 2938 2094 
Q 2938 2591 2744 2837 
Q 2550 3084 2163 3084 
Q 1697 3084 1428 2787 
Q 1159 2491 1159 1978 
L 1159 0 
L 581 0 
L 581 3500 
L 1159 3500 
L 1159 2956 
Q 1366 3272 1645 3428 
Q 1925 3584 2291 3584 
Q 2894 3584 3203 3211 
Q 3513 2838 3513 2113 
z
" transform="scale(0.015625)"/>
       <path id="DejaVuSans-73" d="M 2834 3397 
L 2834 2853 
Q 2591 2978 2328 3040 
Q 2066 3103 1784 3103 
Q 1356 3103 1142 2972 
Q 928 2841 928 2578 
Q 928 2378 1081 2264 
Q 1234 2150 1697 2047 
L 1894 2003 
Q 2506 1872 2764 1633 
Q 3022 1394 3022 966 
Q 3022 478 2636 193 
Q 2250 -91 1575 -91 
Q 1294 -91 989 -36 
Q 684 19 347 128 
L 347 722 
Q 666 556 975 473 
Q 1284 391 1588 391 
Q 1994 391 2212 530 
Q 2431 669 2431 922 
Q 2431 1156 2273 1281 
Q 2116 1406 1581 1522 
L 1381 1569 
Q 847 1681 609 1914 
Q 372 2147 372 2553 
Q 372 3047 722 3315 
Q 1072 3584 1716 3584 
Q 2034 3584 2315 3537 
Q 2597 3491 2834 3397 
z
" transform="scale(0.015625)"/>
       <path id="DejaVuSans-74" d="M 1172 4494 
L 1172 3500 
L 2356 3500 
L 2356 3053 
L 1172 3053 
L 1172 1153 
Q 1172 725 1289 603 
Q 1406 481 1766 481 
L 2356 481 
L 2356 0 
L 1766 0 
Q 1100 0 847 248 
Q 594 497 594 1153 
L 594 3053 
L 172 3053 
L 172 3500 
L 594 3500 
L 594 4494 
L 1172 4494 
z
" transform="scale(0.015625)"/>
       <path id="DejaVuSans-61" d="M 2194 1759 
Q 1497 1759 1228 1600 
Q 959 1441 959 1056 
Q 959 750 1161 570 
Q 1363 391 1709 391 
Q 2188 391 2477 730 
Q 2766 1069 2766 1631 
L 2766 1759 
L 2194 1759 
z
M 3341 1997 
L 3341 0 
L 2766 0 
L 2766 531 
Q 2569 213 2275 61 
Q 1981 -91 1556 -91 
Q 1019 -91 701 211 
Q 384 513 384 1019 
Q 384 1609 779 1909 
Q 1175 2209 1959 2209 
L 2766 2209 
L 2766 2266 
Q 2766 2663 2505 2880 
Q 2244 3097 1772 3097 
Q 1472 3097 1187 3025 
Q 903 2953 641 2809 
L 641 3341 
Q 956 3463 1253 3523 
Q 1550 3584 1831 3584 
Q 2591 3584 2966 3190 
Q 3341 2797 3341 1997 
z
" transform="scale(0.015625)"/>
       <path id="DejaVuSans-6c" d="M 603 4863 
L 1178 4863 
L 1178 0 
L 603 0 
L 603 4863 
z
" transform="scale(0.015625)"/>
       <path id="DejaVuSans-68" d="M 3513 2113 
L 3513 0 
L 2938 0 
L 2938 2094 
Q 2938 2591 2744 2837 
Q 2550 3084 2163 3084 
Q 1697 3084 1428 2787 
Q 1159 2491 1159 1978 
L 1159 0 
L 581 0 
L 581 4863 
L 1159 4863 
L 1159 2956 
Q 1366 3272 1645 3428 
Q 1925 3584 2291 3584 
Q 2894 3584 3203 3211 
Q 3513 2838 3513 2113 
z
" transform="scale(0.015625)"/>
      </defs>
      <use xlink:href="#DejaVuSans-4e"/>
      <use xlink:href="#DejaVuSans-75" x="74.804688"/>
      <use xlink:href="#DejaVuSans-6d" x="138.183594"/>
      <use xlink:href="#DejaVuSans-62" x="235.595703"/>
      <use xlink:href="#DejaVuSans-65" x="299.072266"/>
      <use xlink:href="#DejaVuSans-72" x="360.595703"/>
      <use xlink:href="#DejaVuSans-20" x="401.708984"/>
      <use xlink:href="#DejaVuSans-6f" x="433.496094"/>
      <use xlink:href="#DejaVuSans-66" x="494.677734"/>
      <use xlink:href="#DejaVuSans-20" x="529.882812"/>
      <use xlink:href="#DejaVuSans-70" x="561.669922"/>
      <use xlink:href="#DejaVuSans-69" x="625.146484"/>
      <use xlink:href="#DejaVuSans-70" x="652.929688"/>
      <use xlink:href="#DejaVuSans-2d" x="716.40625"/>
      <use xlink:href="#DejaVuSans-69" x="752.490234"/>
      <use xlink:href="#DejaVuSans-6e" x="780.273438"/>
      <use xlink:href="#DejaVuSans-73" x="843.652344"/>
      <use xlink:href="#DejaVuSans-74" x="895.751953"/>
      <use xlink:href="#DejaVuSans-61" x="934.960938"/>
      <use xlink:href="#DejaVuSans-6c" x="996.240234"/>
      <use xlink:href="#DejaVuSans-6c" x="1024.023438"/>
      <use xlink:href="#DejaVuSans-73" x="1051.806641"/>
      <use xlink:href="#DejaVuSans-20" x="1103.90625"/>
      <use xlink:href="#DejaVuSans-70" x="1135.693359"/>
      <use xlink:href="#DejaVuSans-65" x="1199.169922"/>
      <use xlink:href="#DejaVuSans-72" x="1260.693359"/>
      <use xlink:href="#DejaVuSans-20" x="1301.806641"/>
      <use xlink:href="#DejaVuSans-6d" x="1333.59375"/>
      <use xlink:href="#DejaVuSans-6f" x="1431.005859"/>
      <use xlink:href="#DejaVuSans-6e" x="1492.1875"/>
      <use xlink:href="#DejaVuSans-74" x="1555.566406"/>
      <use xlink:href="#DejaVuSans-68" x="1594.775391"/>
     </g>
    </g>
    <g id="text_13">
     <!-- 1e6 -->
     <g transform="translate(90 40.2)scale(0.1 -0.1)">
      <defs>
       <path id="DejaVuSans-36" d="M 2113 2584 
Q 1688 2584 1439 2293 
Q 1191 2003 1191 1497 
Q 1191 994 1439 701 
Q 1688 409 2113 409 
Q 2538 409 2786 701 
Q 3034 994 3034 1497 
Q 3034 2003 2786 2293 
Q 2538 2584 2113 2584 
z
M 3366 4563 
L 3366 3988 
Q 3128 4100 2886 4159 
Q 2644 4219 2406 4219 
Q 1781 4219 1451 3797 
Q 1122 3375 1075 2522 
Q 1259 2794 1537 2939 
Q 1816 3084 2150 3084 
Q 2853 3084 3261 2657 
Q 3669 2231 3669 1497 
Q 3669 778 3244 343 
Q 2819 -91 2113 -91 
Q 1303 -91 875 529 
Q 447 1150 447 2328 
Q 447 3434 972 4092 
Q 1497 4750 2381 4750 
Q 2619 4750 2861 4703 
Q 3103 4656 3366 4563 
z
" transform="scale(0.015625)"/>
      </defs>
      <use xlink:href="#DejaVuSans-31"/>
      <use xlink:href="#DejaVuSans-65" x="63.623047"/>
      <use xlink:href="#DejaVuSans-36" x="125.146484"/>
     </g>
    </g>
   </g>
   <g id="line2d_26">
    <path d="M 97.591837 315 
L 332.938776 314.957418 
L 344.326531 314.76136 
L 363.306122 314.856852 
L 397.469388 314.74931 
L 427.836735 314.656173 
L 450.612245 314.517917 
L 454.408163 309.52323 
L 458.204082 298.918591 
L 462 286.362246 
L 465.795918 275.835613 
L 469.591837 270.311641 
L 473.387755 266.746259 
L 477.183673 264.154012 
L 480.979592 262.27533 
L 484.77551 263.469982 
L 488.571429 265.6924 
L 492.367347 266.199035 
L 496.163265 262.044753 
L 499.959184 256.991357 
L 503.755102 253.089034 
L 507.55102 251.34897 
L 511.346939 247.453532 
L 515.142857 244.911931 
L 518.938776 240.338986 
L 522.734694 237.428733 
L 526.530612 233.484824 
L 530.326531 228.792016 
L 534.122449 230.559803 
L 537.918367 225.992114 
L 541.714286 224.904461 
L 545.510204 221.287075 
L 549.306122 223.589311 
L 553.102041 225.347042 
L 556.897959 223.476967 
L 560.693878 225.221108 
L 564.489796 222.022112 
L 568.285714 223.67819 
L 572.081633 219.763001 
L 575.877551 217.004775 
L 579.673469 213.828339 
L 583.469388 207.781061 
L 587.265306 209.595507 
L 591.061224 205.912073 
L 594.857143 212.765963 
L 598.653061 210.512651 
L 602.44898 211.1724 
L 606.244898 208.363619 
L 610.040816 208.500515 
L 613.836735 213.85561 
L 617.632653 213.714092 
L 621.428571 220.386148 
L 625.22449 225.5431 
L 629.020408 225.714968 
L 632.816327 223.24177 
L 636.612245 217.640606 
L 640.408163 220.375186 
L 644.204082 218.339766 
L 648 218.348101 
L 648 218.348101 
" clip-path="url(#p4764fa9b7d)" style="fill: none; stroke: #1f77b4; stroke-width: 1.5; stroke-linecap: square"/>
   </g>
   <g id="line2d_27">
    <path d="M 97.591837 314.999456 
L 222.857143 314.898619 
L 230.44898 314.557691 
L 238.040816 314.739797 
L 245.632653 314.85957 
L 264.612245 314.842356 
L 313.959184 314.808653 
L 317.755102 313.203674 
L 321.55102 307.071322 
L 325.346939 299.118545 
L 329.142857 292.655866 
L 332.938776 290.309597 
L 336.734694 289.194946 
L 340.530612 288.211211 
L 344.326531 287.750782 
L 348.122449 288.810439 
L 351.918367 285.444196 
L 355.714286 282.744407 
L 359.510204 278.171915 
L 363.306122 275.709679 
L 367.102041 272.386924 
L 370.897959 268.222767 
L 374.693878 267.335612 
L 378.489796 262.803709 
L 382.285714 259.823422 
L 389.877551 252.142988 
L 393.673469 249.180187 
L 397.469388 243.74464 
L 401.265306 244.95406 
L 405.061224 244.503506 
L 408.857143 243.579839 
L 412.653061 240.903696 
L 416.44898 240.361183 
L 420.244898 244.009011 
L 424.040816 241.555563 
L 427.836735 238.272219 
L 431.632653 230.747617 
L 435.428571 230.408954 
L 439.22449 227.685518 
L 443.020408 223.986139 
L 446.816327 215.03649 
L 450.612245 202.997743 
L 454.408163 205.021475 
L 458.204082 208.826313 
L 462 216.987561 
L 465.795918 209.637998 
L 469.591837 208.784003 
L 473.387755 211.322162 
L 477.183673 215.029514 
L 480.979592 219.101893 
L 484.77551 226.274061 
L 488.571429 235.251343 
L 492.367347 236.128985 
L 496.163265 228.234917 
L 499.959184 223.285076 
L 503.755102 222.628136 
L 507.55102 227.907851 
L 511.346939 227.820784 
L 515.142857 227.955325 
L 518.938776 223.845528 
L 522.734694 223.271486 
L 526.530612 221.681094 
L 530.326531 219.923907 
L 534.122449 225.534856 
L 537.918367 221.721592 
L 541.714286 223.696672 
L 545.510204 220.805445 
L 549.306122 225.772681 
L 553.102041 227.109755 
L 556.897959 225.916463 
L 560.693878 229.947076 
L 564.489796 229.330814 
L 568.285714 234.889306 
L 572.081633 235.183665 
L 575.877551 234.899362 
L 579.673469 233.862626 
L 583.469388 227.456663 
L 587.265306 231.165102 
L 591.061224 227.839357 
L 594.857143 230.392646 
L 598.653061 223.154069 
L 602.44898 215.644688 
L 606.244898 210.766059 
L 610.040816 208.755011 
L 613.836735 216.29429 
L 617.632653 218.363594 
L 621.428571 227.268487 
L 625.22449 235.017958 
L 629.020408 232.379595 
L 632.816327 228.844111 
L 636.612245 219.233082 
L 640.408163 223.8458 
L 644.204082 218.793219 
L 648 218.186743 
L 648 218.186743 
" clip-path="url(#p4764fa9b7d)" style="fill: none; stroke-dasharray: 1.5,2.475; stroke-dashoffset: 0; stroke: #ff7f0e; stroke-width: 1.5"/>
   </g>
   <g id="line2d_28">
    <path d="M 97.591837 314.659163 
L 108.979592 314.694497 
L 135.55102 314.645663 
L 139.346939 313.77835 
L 143.142857 312.755838 
L 146.938776 311.933915 
L 150.734694 307.158389 
L 154.530612 300.914509 
L 158.326531 294.040777 
L 162.122449 291.483139 
L 165.918367 289.844819 
L 169.714286 288.335876 
L 173.510204 285.97176 
L 177.306122 284.838173 
L 181.102041 283.348981 
L 184.897959 280.929055 
L 192.489796 274.791901 
L 196.285714 275.295003 
L 200.081633 276.061207 
L 203.877551 277.709493 
L 207.673469 281.73621 
L 211.469388 282.331724 
L 215.265306 279.566431 
L 219.061224 272.28364 
L 222.857143 268.463401 
L 226.653061 266.277132 
L 234.244898 257.290699 
L 238.040816 253.010936 
L 241.836735 254.897047 
L 245.632653 253.709372 
L 249.428571 256.699625 
L 253.22449 259.166844 
L 257.020408 257.288797 
L 260.816327 254.168804 
L 264.612245 244.254809 
L 268.408163 243.266544 
L 272.204082 239.568524 
L 276 242.672117 
L 283.591837 243.539794 
L 287.387755 242.918006 
L 291.183673 239.372103 
L 294.979592 242.208427 
L 298.77551 237.26366 
L 302.571429 235.663573 
L 306.367347 224.459162 
L 310.163265 217.889575 
L 313.959184 218.394217 
L 317.755102 216.982487 
L 321.55102 217.339089 
L 325.346939 213.519393 
L 329.142857 213.433776 
L 332.938776 216.439793 
L 336.734694 219.675301 
L 340.530612 228.57068 
L 344.326531 234.886769 
L 348.122449 244.057935 
L 351.918367 236.045905 
L 355.714286 235.345477 
L 359.510204 230.692442 
L 363.306122 237.13537 
L 367.102041 237.847033 
L 370.897959 234.497551 
L 374.693878 236.453786 
L 378.489796 226.869847 
L 382.285714 219.001146 
L 386.081633 211.530995 
L 389.877551 206.38573 
L 393.673469 205.701428 
L 397.469388 196.499096 
L 401.265306 202.613146 
L 405.061224 203.393756 
L 408.857143 206.580158 
L 412.653061 196.238983 
L 416.44898 180.685681 
L 420.244898 176.912191 
L 424.040816 185.796971 
L 427.836735 205.67298 
L 431.632653 214.875947 
L 435.428571 221.687074 
L 439.22449 222.896221 
L 443.020408 224.413771 
L 446.816327 220.635661 
L 450.612245 217.94783 
L 454.408163 222.592711 
L 458.204082 223.308723 
L 462 221.857855 
L 465.795918 210.844428 
L 469.591837 210.014079 
L 473.387755 215.368448 
L 477.183673 219.278291 
L 480.979592 221.069635 
L 484.77551 225.532409 
L 488.571429 233.085913 
L 492.367347 232.014024 
L 496.163265 222.300345 
L 499.959184 216.342127 
L 503.755102 218.089348 
L 507.55102 223.921541 
L 511.346939 224.630577 
L 515.142857 224.96471 
L 518.938776 222.993979 
L 526.530612 225.695761 
L 530.326531 225.325207 
L 534.122449 232.74127 
L 537.918367 231.358986 
L 541.714286 235.90312 
L 545.510204 232.24442 
L 549.306122 229.155956 
L 553.102041 229.614574 
L 556.897959 231.865168 
L 560.693878 242.713793 
L 564.489796 243.377529 
L 568.285714 245.276324 
L 572.081633 245.205928 
L 575.877551 245.469121 
L 579.673469 247.184541 
L 583.469388 242.620747 
L 587.265306 245.039224 
L 591.061224 242.044259 
L 594.857143 244.00883 
L 598.653061 239.835522 
L 602.44898 234.109511 
L 606.244898 227.227717 
L 610.040816 220.760779 
L 613.836735 225.248741 
L 617.632653 216.527132 
L 621.428571 217.068286 
L 625.22449 223.293593 
L 629.020408 237.925855 
L 632.816327 246.8794 
L 636.612245 240.162316 
L 640.408163 242.161224 
L 644.204082 240.31534 
L 648 242.277645 
L 648 242.277645 
" clip-path="url(#p4764fa9b7d)" style="fill: none; stroke-dasharray: 5.55,2.4; stroke-dashoffset: 0; stroke: #2ca02c; stroke-width: 1.5"/>
   </g>
   <g id="line2d_29">
    <path d="M 97.591837 297.746498 
L 101.387755 296.009606 
L 105.183673 295.788904 
L 108.979592 293.584244 
L 112.77551 294.826913 
L 116.571429 294.810062 
L 120.367347 296.189628 
L 124.163265 296.309311 
L 127.959184 296.978845 
L 131.755102 297.146998 
L 135.55102 297.570734 
L 139.346939 298.411049 
L 146.938776 304.95554 
L 150.734694 298.503824 
L 154.530612 289.567583 
L 158.326531 276.803221 
L 162.122449 274.806125 
L 165.918367 272.211432 
L 169.714286 273.143344 
L 173.510204 271.557209 
L 177.306122 271.669372 
L 181.102041 271.666654 
L 184.897959 268.830331 
L 188.693878 266.308208 
L 192.489796 261.945546 
L 200.081633 267.295114 
L 203.877551 272.337094 
L 207.673469 279.001811 
L 211.469388 281.314467 
L 215.265306 279.207655 
L 219.061224 272.326494 
L 222.857143 269.173161 
L 226.653061 270.298504 
L 230.44898 269.508743 
L 234.244898 270.466023 
L 238.040816 269.289673 
L 241.836735 272.761193 
L 245.632653 273.121509 
L 253.22449 280.028491 
L 257.020408 281.008511 
L 260.816327 280.707085 
L 264.612245 276.343698 
L 268.408163 277.561815 
L 272.204082 276.703833 
L 276 278.555878 
L 279.795918 278.737622 
L 283.591837 279.245163 
L 287.387755 280.222284 
L 291.183673 278.570827 
L 294.979592 280.597277 
L 298.77551 278.833024 
L 302.571429 280.677187 
L 306.367347 278.201723 
L 310.163265 277.232846 
L 313.959184 278.409106 
L 317.755102 278.142561 
L 321.55102 277.397467 
L 325.346939 273.276526 
L 329.142857 271.038162 
L 332.938776 270.729578 
L 336.734694 270.801243 
L 340.530612 274.265243 
L 344.326531 277.261657 
L 348.122449 282.512108 
L 351.918367 278.923624 
L 355.714286 278.41119 
L 359.510204 275.48626 
L 363.306122 277.485349 
L 367.102041 276.723946 
L 370.897959 274.0594 
L 374.693878 275.346283 
L 378.489796 272.88151 
L 382.285714 273.674803 
L 386.081633 272.554353 
L 389.877551 272.919833 
L 393.673469 273.916433 
L 397.469388 272.096008 
L 401.265306 274.51684 
L 405.061224 274.393624 
L 408.857143 275.256951 
L 412.653061 274.417723 
L 416.44898 273.71811 
L 420.244898 275.520869 
L 424.040816 273.903478 
L 427.836735 273.708053 
L 431.632653 270.775966 
L 435.428571 273.057817 
L 439.22449 273.775279 
L 443.020408 274.247214 
L 446.816327 272.642779 
L 450.612245 270.21787 
L 454.408163 272.229552 
L 458.204082 268.685914 
L 462 266.262817 
L 465.795918 261.439636 
L 469.591837 263.659064 
L 473.387755 267.316948 
L 477.183673 265.794325 
L 480.979592 264.672425 
L 484.77551 266.970584 
L 488.571429 273.39802 
L 492.367347 276.249383 
L 496.163265 270.826158 
L 499.959184 270.735739 
L 503.755102 272.242508 
L 507.55102 278.572639 
L 511.346939 277.071488 
L 515.142857 276.602542 
L 518.938776 275.197155 
L 522.734694 277.216357 
L 526.530612 278.533138 
L 530.326531 278.394429 
L 534.122449 280.527606 
L 537.918367 279.00616 
L 541.714286 280.172454 
L 545.510204 279.140429 
L 549.306122 281.071931 
L 553.102041 283.290272 
L 556.897959 284.031833 
L 560.693878 285.171762 
L 564.489796 283.875004 
L 572.081633 286.878032 
L 575.877551 288.708877 
L 579.673469 289.932248 
L 583.469388 288.974697 
L 587.265306 289.373971 
L 591.061224 287.84863 
L 594.857143 288.074948 
L 598.653061 287.08469 
L 602.44898 286.405643 
L 606.244898 287.165506 
L 610.040816 286.821316 
L 613.836735 288.04958 
L 617.632653 286.800841 
L 621.428571 288.914901 
L 625.22449 291.526718 
L 629.020408 293.069545 
L 632.816327 293.237427 
L 636.612245 291.118112 
L 640.408163 292.090793 
L 644.204082 291.706921 
L 648 291.619402 
L 648 291.619402 
" clip-path="url(#p4764fa9b7d)" style="fill: none; stroke: #d62728; stroke-width: 1.5; stroke-linecap: square"/>
   </g>
   <g id="line2d_30">
    <path d="M 97.591837 310.199559 
L 101.387755 309.966264 
L 105.183673 310.217135 
L 108.979592 310.062753 
L 112.77551 310.617859 
L 120.367347 311.285219 
L 124.163265 310.42624 
L 127.959184 287.798256 
L 131.755102 275.03335 
L 135.55102 255.416366 
L 139.346939 252.408265 
L 143.142857 256.00282 
L 146.938776 262.475194 
L 150.734694 241.527115 
L 154.530612 205.385416 
L 158.326531 178.174068 
L 162.122449 162.244685 
L 165.918367 156.395096 
L 169.714286 131.472033 
L 173.510204 119.749661 
L 181.102041 56.724315 
L 184.897959 87.303083 
L 188.693878 146.33596 
L 192.489796 216.723734 
L 196.285714 222.684036 
L 200.081633 228.048462 
L 203.877551 234.218956 
L 207.673469 250.196538 
L 211.469388 256.41206 
L 215.265306 267.71432 
L 219.061224 281.846923 
L 222.857143 289.452068 
L 226.653061 261.068176 
L 230.44898 200.788281 
L 234.244898 150.078464 
L 238.040816 127.642099 
L 241.836735 158.516405 
L 245.632653 199.597435 
L 249.428571 250.33733 
L 253.22449 286.184126 
L 257.020408 298.033791 
L 260.816327 305.500137 
L 264.612245 303.875045 
L 268.408163 304.278034 
L 272.204082 303.668296 
L 276 304.353685 
L 279.795918 304.635632 
L 283.591837 304.683469 
L 287.387755 304.438849 
L 291.183673 303.430742 
L 298.77551 303.808001 
L 302.571429 304.784669 
L 306.367347 304.93289 
L 310.163265 304.790377 
L 313.959184 303.546982 
L 317.755102 299.931317 
L 321.55102 299.836369 
L 325.346939 281.757773 
L 329.142857 270.286454 
L 332.938776 257.806938 
L 336.734694 255.490568 
L 340.530612 258.224604 
L 344.326531 262.884615 
L 348.122449 282.692765 
L 351.918367 290.049666 
L 355.714286 294.481818 
L 359.510204 292.008891 
L 363.306122 291.441916 
L 367.102041 286.071058 
L 370.897959 285.628748 
L 374.693878 289.310732 
L 378.489796 297.682716 
L 382.285714 297.799409 
L 386.081633 299.259428 
L 389.877551 300.300603 
L 393.673469 305.539457 
L 397.469388 305.852752 
L 401.265306 305.283603 
L 405.061224 303.855475 
L 408.857143 303.325284 
L 412.653061 297.674018 
L 416.44898 288.603871 
L 420.244898 281.746538 
L 424.040816 283.383046 
L 427.836735 291.845902 
L 431.632653 295.731826 
L 435.428571 287.766818 
L 439.22449 278.69513 
L 443.020408 269.319118 
L 446.816327 281.049553 
L 450.612245 290.618181 
L 454.408163 304.828519 
L 458.204082 305.250806 
L 462 302.677222 
L 465.795918 283.885967 
L 469.591837 268.329856 
L 473.387755 254.021942 
L 477.183673 259.269222 
L 480.979592 255.02588 
L 484.77551 248.222273 
L 488.571429 243.643259 
L 492.367347 245.339925 
L 496.163265 246.650092 
L 499.959184 231.326189 
L 503.755102 227.449052 
L 507.55102 225.930234 
L 511.346939 233.5718 
L 515.142857 230.434866 
L 518.938776 232.1463 
L 522.734694 237.366944 
L 526.530612 240.733821 
L 530.326531 241.786955 
L 534.122449 241.235473 
L 537.918367 238.764992 
L 541.714286 243.390847 
L 545.510204 243.445751 
L 549.306122 248.58114 
L 553.102041 245.549936 
L 556.897959 249.577287 
L 560.693878 259.445348 
L 564.489796 263.625995 
L 568.285714 261.999362 
L 572.081633 252.871775 
L 575.877551 253.646586 
L 579.673469 260.355607 
L 583.469388 272.66869 
L 587.265306 276.223653 
L 591.061224 274.191404 
L 594.857143 267.115001 
L 598.653061 272.048896 
L 602.44898 272.768894 
L 606.244898 276.291694 
L 610.040816 271.755805 
L 613.836735 267.762881 
L 617.632653 258.65432 
L 621.428571 251.562514 
L 625.22449 247.008686 
L 629.020408 249.63962 
L 632.816327 257.889746 
L 636.612245 259.291963 
L 640.408163 262.859156 
L 644.204082 271.500313 
L 648 289.214696 
L 648 289.214696 
" clip-path="url(#p4764fa9b7d)" style="fill: none; stroke-dasharray: 5.55,2.4; stroke-dashoffset: 0; stroke: #9467bd; stroke-width: 1.5"/>
   </g>
   <g id="line2d_31">
    <path d="M 97.591837 292.15675 
L 101.387755 292.664654 
L 105.183673 301.015437 
L 108.979592 302.062954 
L 112.77551 303.387617 
L 116.571429 302.285287 
L 120.367347 302.805602 
L 124.163265 303.612124 
L 127.959184 305.868064 
L 131.755102 306.642059 
L 135.55102 307.186656 
L 139.346939 307.863891 
L 143.142857 309.560195 
L 146.938776 310.848346 
L 150.734694 306.837302 
L 154.530612 301.40701 
L 158.326531 293.731559 
L 162.122449 288.294744 
L 165.918367 285.080528 
L 169.714286 284.104313 
L 173.510204 287.546297 
L 177.306122 288.925864 
L 181.102041 290.122961 
L 184.897959 289.377686 
L 188.693878 290.154853 
L 192.489796 289.57166 
L 196.285714 290.605497 
L 200.081633 290.196438 
L 203.877551 290.700899 
L 207.673469 292.637202 
L 211.469388 293.594753 
L 215.265306 293.647573 
L 219.061224 290.669642 
L 222.857143 290.194626 
L 226.653061 290.508827 
L 230.44898 290.286947 
L 234.244898 290.183301 
L 238.040816 288.866339 
L 241.836735 290.300447 
L 245.632653 289.584979 
L 249.428571 291.426424 
L 253.22449 294.248976 
L 257.020408 296.119957 
L 260.816327 297.129059 
L 264.612245 294.658397 
L 268.408163 295.109585 
L 272.204082 294.787412 
L 276 295.873525 
L 279.795918 296.291462 
L 283.591837 295.464466 
L 287.387755 294.441501 
L 291.183673 292.264927 
L 294.979592 292.477112 
L 298.77551 288.573883 
L 302.571429 285.676766 
L 306.367347 286.012802 
L 310.163265 289.646496 
L 313.959184 294.662112 
L 317.755102 294.344015 
L 321.55102 295.302473 
L 325.346939 294.130834 
L 329.142857 294.001547 
L 332.938776 292.945423 
L 336.734694 292.727168 
L 340.530612 293.408299 
L 344.326531 294.8415 
L 348.122449 297.61078 
L 351.918367 297.205979 
L 355.714286 295.469177 
L 359.510204 292.005629 
L 363.306122 287.585165 
L 367.102041 288.582943 
L 370.897959 288.173612 
L 374.693878 293.305649 
L 378.489796 292.668821 
L 382.285714 293.172376 
L 386.081633 290.993174 
L 389.877551 289.023621 
L 393.673469 291.671406 
L 397.469388 285.402973 
L 401.265306 288.889805 
L 405.061224 287.944484 
L 408.857143 297.418255 
L 412.653061 298.460064 
L 416.44898 299.761805 
L 420.244898 300.74554 
L 424.040816 300.009596 
L 427.836735 299.704455 
L 431.632653 298.710301 
L 435.428571 299.360809 
L 439.22449 299.313788 
L 443.020408 300.252676 
L 446.816327 301.365697 
L 450.612245 301.948073 
L 454.408163 301.690588 
L 458.204082 300.228214 
L 462 300.081623 
L 469.591837 300.407058 
L 473.387755 300.901372 
L 477.183673 300.113242 
L 480.979592 301.255165 
L 484.77551 302.73575 
L 488.571429 304.589788 
L 492.367347 304.074184 
L 496.163265 301.677632 
L 499.959184 300.465857 
L 503.755102 300.75007 
L 507.55102 301.453035 
L 515.142857 299.094626 
L 518.938776 298.438864 
L 522.734694 299.215396 
L 526.530612 300.203299 
L 530.326531 300.516503 
L 534.122449 301.706534 
L 537.918367 301.247373 
L 541.714286 301.4447 
L 549.306122 301.168642 
L 553.102041 301.839172 
L 556.897959 301.700373 
L 560.693878 302.793643 
L 564.489796 302.884606 
L 568.285714 303.296564 
L 572.081633 303.398579 
L 575.877551 302.9049 
L 579.673469 302.810495 
L 583.469388 301.616749 
L 587.265306 301.251269 
L 591.061224 300.122212 
L 594.857143 299.821963 
L 602.44898 300.458338 
L 606.244898 300.965607 
L 610.040816 300.666355 
L 613.836735 301.502412 
L 617.632653 302.17104 
L 621.428571 303.421229 
L 625.22449 304.839935 
L 629.020408 304.959346 
L 632.816327 304.526096 
L 636.612245 303.024945 
L 640.408163 303.761885 
L 644.204082 304.378871 
L 648 305.907384 
L 648 305.907384 
" clip-path="url(#p4764fa9b7d)" style="fill: none; stroke-dasharray: 9.6,2.4,1.5,2.4; stroke-dashoffset: 0; stroke: #8c564b; stroke-width: 1.5"/>
   </g>
   <g id="patch_3">
    <path d="M 90 315 
L 90 43.2 
" style="fill: none; stroke: #000000; stroke-width: 0.8; stroke-linejoin: miter; stroke-linecap: square"/>
   </g>
   <g id="patch_4">
    <path d="M 648 315 
L 648 43.2 
" style="fill: none; stroke: #000000; stroke-width: 0.8; stroke-linejoin: miter; stroke-linecap: square"/>
   </g>
   <g id="patch_5">
    <path d="M 90 315 
L 648 315 
" style="fill: none; stroke: #000000; stroke-width: 0.8; stroke-linejoin: miter; stroke-linecap: square"/>
   </g>
   <g id="patch_6">
    <path d="M 90 43.2 
L 648 43.2 
" style="fill: none; stroke: #000000; stroke-width: 0.8; stroke-linejoin: miter; stroke-linecap: square"/>
   </g>
   <g id="text_14">
    <!-- Python version of NumPy users, MacOS and Windows (i.e. no batch jobs) -->
    <g transform="translate(150.75 37.2)scale(0.12 -0.12)">
     <defs>
      <path id="DejaVuSans-50" d="M 1259 4147 
L 1259 2394 
L 2053 2394 
Q 2494 2394 2734 2622 
Q 2975 2850 2975 3272 
Q 2975 3691 2734 3919 
Q 2494 4147 2053 4147 
L 1259 4147 
z
M 628 4666 
L 2053 4666 
Q 2838 4666 3239 4311 
Q 3641 3956 3641 3272 
Q 3641 2581 3239 2228 
Q 2838 1875 2053 1875 
L 1259 1875 
L 1259 0 
L 628 0 
L 628 4666 
z
" transform="scale(0.015625)"/>
      <path id="DejaVuSans-79" d="M 2059 -325 
Q 1816 -950 1584 -1140 
Q 1353 -1331 966 -1331 
L 506 -1331 
L 506 -850 
L 844 -850 
Q 1081 -850 1212 -737 
Q 1344 -625 1503 -206 
L 1606 56 
L 191 3500 
L 800 3500 
L 1894 763 
L 2988 3500 
L 3597 3500 
L 2059 -325 
z
" transform="scale(0.015625)"/>
      <path id="DejaVuSans-76" d="M 191 3500 
L 800 3500 
L 1894 563 
L 2988 3500 
L 3597 3500 
L 2284 0 
L 1503 0 
L 191 3500 
z
" transform="scale(0.015625)"/>
      <path id="DejaVuSans-2c" d="M 750 794 
L 1409 794 
L 1409 256 
L 897 -744 
L 494 -744 
L 750 256 
L 750 794 
z
" transform="scale(0.015625)"/>
      <path id="DejaVuSans-4d" d="M 628 4666 
L 1569 4666 
L 2759 1491 
L 3956 4666 
L 4897 4666 
L 4897 0 
L 4281 0 
L 4281 4097 
L 3078 897 
L 2444 897 
L 1241 4097 
L 1241 0 
L 628 0 
L 628 4666 
z
" transform="scale(0.015625)"/>
      <path id="DejaVuSans-63" d="M 3122 3366 
L 3122 2828 
Q 2878 2963 2633 3030 
Q 2388 3097 2138 3097 
Q 1578 3097 1268 2742 
Q 959 2388 959 1747 
Q 959 1106 1268 751 
Q 1578 397 2138 397 
Q 2388 397 2633 464 
Q 2878 531 3122 666 
L 3122 134 
Q 2881 22 2623 -34 
Q 2366 -91 2075 -91 
Q 1284 -91 818 406 
Q 353 903 353 1747 
Q 353 2603 823 3093 
Q 1294 3584 2113 3584 
Q 2378 3584 2631 3529 
Q 2884 3475 3122 3366 
z
" transform="scale(0.015625)"/>
      <path id="DejaVuSans-4f" d="M 2522 4238 
Q 1834 4238 1429 3725 
Q 1025 3213 1025 2328 
Q 1025 1447 1429 934 
Q 1834 422 2522 422 
Q 3209 422 3611 934 
Q 4013 1447 4013 2328 
Q 4013 3213 3611 3725 
Q 3209 4238 2522 4238 
z
M 2522 4750 
Q 3503 4750 4090 4092 
Q 4678 3434 4678 2328 
Q 4678 1225 4090 567 
Q 3503 -91 2522 -91 
Q 1538 -91 948 565 
Q 359 1222 359 2328 
Q 359 3434 948 4092 
Q 1538 4750 2522 4750 
z
" transform="scale(0.015625)"/>
      <path id="DejaVuSans-53" d="M 3425 4513 
L 3425 3897 
Q 3066 4069 2747 4153 
Q 2428 4238 2131 4238 
Q 1616 4238 1336 4038 
Q 1056 3838 1056 3469 
Q 1056 3159 1242 3001 
Q 1428 2844 1947 2747 
L 2328 2669 
Q 3034 2534 3370 2195 
Q 3706 1856 3706 1288 
Q 3706 609 3251 259 
Q 2797 -91 1919 -91 
Q 1588 -91 1214 -16 
Q 841 59 441 206 
L 441 856 
Q 825 641 1194 531 
Q 1563 422 1919 422 
Q 2459 422 2753 634 
Q 3047 847 3047 1241 
Q 3047 1584 2836 1778 
Q 2625 1972 2144 2069 
L 1759 2144 
Q 1053 2284 737 2584 
Q 422 2884 422 3419 
Q 422 4038 858 4394 
Q 1294 4750 2059 4750 
Q 2388 4750 2728 4690 
Q 3069 4631 3425 4513 
z
" transform="scale(0.015625)"/>
      <path id="DejaVuSans-64" d="M 2906 2969 
L 2906 4863 
L 3481 4863 
L 3481 0 
L 2906 0 
L 2906 525 
Q 2725 213 2448 61 
Q 2172 -91 1784 -91 
Q 1150 -91 751 415 
Q 353 922 353 1747 
Q 353 2572 751 3078 
Q 1150 3584 1784 3584 
Q 2172 3584 2448 3432 
Q 2725 3281 2906 2969 
z
M 947 1747 
Q 947 1113 1208 752 
Q 1469 391 1925 391 
Q 2381 391 2643 752 
Q 2906 1113 2906 1747 
Q 2906 2381 2643 2742 
Q 2381 3103 1925 3103 
Q 1469 3103 1208 2742 
Q 947 2381 947 1747 
z
" transform="scale(0.015625)"/>
      <path id="DejaVuSans-57" d="M 213 4666 
L 850 4666 
L 1831 722 
L 2809 4666 
L 3519 4666 
L 4500 722 
L 5478 4666 
L 6119 4666 
L 4947 0 
L 4153 0 
L 3169 4050 
L 2175 0 
L 1381 0 
L 213 4666 
z
" transform="scale(0.015625)"/>
      <path id="DejaVuSans-77" d="M 269 3500 
L 844 3500 
L 1563 769 
L 2278 3500 
L 2956 3500 
L 3675 769 
L 4391 3500 
L 4966 3500 
L 4050 0 
L 3372 0 
L 2619 2869 
L 1863 0 
L 1184 0 
L 269 3500 
z
" transform="scale(0.015625)"/>
      <path id="DejaVuSans-28" d="M 1984 4856 
Q 1566 4138 1362 3434 
Q 1159 2731 1159 2009 
Q 1159 1288 1364 580 
Q 1569 -128 1984 -844 
L 1484 -844 
Q 1016 -109 783 600 
Q 550 1309 550 2009 
Q 550 2706 781 3412 
Q 1013 4119 1484 4856 
L 1984 4856 
z
" transform="scale(0.015625)"/>
      <path id="DejaVuSans-6a" d="M 603 3500 
L 1178 3500 
L 1178 -63 
Q 1178 -731 923 -1031 
Q 669 -1331 103 -1331 
L -116 -1331 
L -116 -844 
L 38 -844 
Q 366 -844 484 -692 
Q 603 -541 603 -63 
L 603 3500 
z
M 603 4863 
L 1178 4863 
L 1178 4134 
L 603 4134 
L 603 4863 
z
" transform="scale(0.015625)"/>
      <path id="DejaVuSans-29" d="M 513 4856 
L 1013 4856 
Q 1481 4119 1714 3412 
Q 1947 2706 1947 2009 
Q 1947 1309 1714 600 
Q 1481 -109 1013 -844 
L 513 -844 
Q 928 -128 1133 580 
Q 1338 1288 1338 2009 
Q 1338 2731 1133 3434 
Q 928 4138 513 4856 
z
" transform="scale(0.015625)"/>
     </defs>
     <use xlink:href="#DejaVuSans-50"/>
     <use xlink:href="#DejaVuSans-79" x="60.302734"/>
     <use xlink:href="#DejaVuSans-74" x="119.482422"/>
     <use xlink:href="#DejaVuSans-68" x="158.691406"/>
     <use xlink:href="#DejaVuSans-6f" x="222.070312"/>
     <use xlink:href="#DejaVuSans-6e" x="283.251953"/>
     <use xlink:href="#DejaVuSans-20" x="346.630859"/>
     <use xlink:href="#DejaVuSans-76" x="378.417969"/>
     <use xlink:href="#DejaVuSans-65" x="437.597656"/>
     <use xlink:href="#DejaVuSans-72" x="499.121094"/>
     <use xlink:href="#DejaVuSans-73" x="540.234375"/>
     <use xlink:href="#DejaVuSans-69" x="592.333984"/>
     <use xlink:href="#DejaVuSans-6f" x="620.117188"/>
     <use xlink:href="#DejaVuSans-6e" x="681.298828"/>
     <use xlink:href="#DejaVuSans-20" x="744.677734"/>
     <use xlink:href="#DejaVuSans-6f" x="776.464844"/>
     <use xlink:href="#DejaVuSans-66" x="837.646484"/>
     <use xlink:href="#DejaVuSans-20" x="872.851562"/>
     <use xlink:href="#DejaVuSans-4e" x="904.638672"/>
     <use xlink:href="#DejaVuSans-75" x="979.443359"/>
     <use xlink:href="#DejaVuSans-6d" x="1042.822266"/>
     <use xlink:href="#DejaVuSans-50" x="1140.234375"/>
     <use xlink:href="#DejaVuSans-79" x="1200.537109"/>
     <use xlink:href="#DejaVuSans-20" x="1259.716797"/>
     <use xlink:href="#DejaVuSans-75" x="1291.503906"/>
     <use xlink:href="#DejaVuSans-73" x="1354.882812"/>
     <use xlink:href="#DejaVuSans-65" x="1406.982422"/>
     <use xlink:href="#DejaVuSans-72" x="1468.505859"/>
     <use xlink:href="#DejaVuSans-73" x="1509.619141"/>
     <use xlink:href="#DejaVuSans-2c" x="1561.71875"/>
     <use xlink:href="#DejaVuSans-20" x="1593.505859"/>
     <use xlink:href="#DejaVuSans-4d" x="1625.292969"/>
     <use xlink:href="#DejaVuSans-61" x="1711.572266"/>
     <use xlink:href="#DejaVuSans-63" x="1772.851562"/>
     <use xlink:href="#DejaVuSans-4f" x="1827.832031"/>
     <use xlink:href="#DejaVuSans-53" x="1906.542969"/>
     <use xlink:href="#DejaVuSans-20" x="1970.019531"/>
     <use xlink:href="#DejaVuSans-61" x="2001.806641"/>
     <use xlink:href="#DejaVuSans-6e" x="2063.085938"/>
     <use xlink:href="#DejaVuSans-64" x="2126.464844"/>
     <use xlink:href="#DejaVuSans-20" x="2189.941406"/>
     <use xlink:href="#DejaVuSans-57" x="2221.728516"/>
     <use xlink:href="#DejaVuSans-69" x="2318.355469"/>
     <use xlink:href="#DejaVuSans-6e" x="2346.138672"/>
     <use xlink:href="#DejaVuSans-64" x="2409.517578"/>
     <use xlink:href="#DejaVuSans-6f" x="2472.994141"/>
     <use xlink:href="#DejaVuSans-77" x="2534.175781"/>
     <use xlink:href="#DejaVuSans-73" x="2615.962891"/>
     <use xlink:href="#DejaVuSans-20" x="2668.0625"/>
     <use xlink:href="#DejaVuSans-28" x="2699.849609"/>
     <use xlink:href="#DejaVuSans-69" x="2738.863281"/>
     <use xlink:href="#DejaVuSans-2e" x="2766.646484"/>
     <use xlink:href="#DejaVuSans-65" x="2798.433594"/>
     <use xlink:href="#DejaVuSans-2e" x="2859.957031"/>
     <use xlink:href="#DejaVuSans-20" x="2891.744141"/>
     <use xlink:href="#DejaVuSans-6e" x="2923.53125"/>
     <use xlink:href="#DejaVuSans-6f" x="2986.910156"/>
     <use xlink:href="#DejaVuSans-20" x="3048.091797"/>
     <use xlink:href="#DejaVuSans-62" x="3079.878906"/>
     <use xlink:href="#DejaVuSans-61" x="3143.355469"/>
     <use xlink:href="#DejaVuSans-74" x="3204.634766"/>
     <use xlink:href="#DejaVuSans-63" x="3243.84375"/>
     <use xlink:href="#DejaVuSans-68" x="3298.824219"/>
     <use xlink:href="#DejaVuSans-20" x="3362.203125"/>
     <use xlink:href="#DejaVuSans-6a" x="3393.990234"/>
     <use xlink:href="#DejaVuSans-6f" x="3421.773438"/>
     <use xlink:href="#DejaVuSans-62" x="3482.955078"/>
     <use xlink:href="#DejaVuSans-73" x="3546.431641"/>
     <use xlink:href="#DejaVuSans-29" x="3598.53125"/>
    </g>
   </g>
   <g id="legend_1">
    <g id="patch_7">
     <path d="M 97 139.26875 
L 189.421875 139.26875 
Q 191.421875 139.26875 191.421875 137.26875 
L 191.421875 50.2 
Q 191.421875 48.2 189.421875 48.2 
L 97 48.2 
Q 95 48.2 95 50.2 
L 95 137.26875 
Q 95 139.26875 97 139.26875 
z
" style="fill: #ffffff; opacity: 0.8; stroke: #cccccc; stroke-linejoin: miter"/>
    </g>
    <g id="line2d_32">
     <path d="M 99 56.298437 
L 109 56.298437 
L 119 56.298437 
" style="fill: none; stroke: #1f77b4; stroke-width: 1.5; stroke-linecap: square"/>
    </g>
    <g id="text_15">
     <!-- 3.9 -->
     <g transform="translate(127 59.798437)scale(0.1 -0.1)">
      <use xlink:href="#DejaVuSans-33"/>
      <use xlink:href="#DejaVuSans-2e" x="63.623047"/>
      <use xlink:href="#DejaVuSans-39" x="95.410156"/>
     </g>
    </g>
    <g id="line2d_33">
     <path d="M 99 70.976562 
L 109 70.976562 
L 119 70.976562 
" style="fill: none; stroke-dasharray: 1.5,2.475; stroke-dashoffset: 0; stroke: #ff7f0e; stroke-width: 1.5"/>
    </g>
    <g id="text_16">
     <!-- 3.8 -->
     <g transform="translate(127 74.476562)scale(0.1 -0.1)">
      <defs>
       <path id="DejaVuSans-38" d="M 2034 2216 
Q 1584 2216 1326 1975 
Q 1069 1734 1069 1313 
Q 1069 891 1326 650 
Q 1584 409 2034 409 
Q 2484 409 2743 651 
Q 3003 894 3003 1313 
Q 3003 1734 2745 1975 
Q 2488 2216 2034 2216 
z
M 1403 2484 
Q 997 2584 770 2862 
Q 544 3141 544 3541 
Q 544 4100 942 4425 
Q 1341 4750 2034 4750 
Q 2731 4750 3128 4425 
Q 3525 4100 3525 3541 
Q 3525 3141 3298 2862 
Q 3072 2584 2669 2484 
Q 3125 2378 3379 2068 
Q 3634 1759 3634 1313 
Q 3634 634 3220 271 
Q 2806 -91 2034 -91 
Q 1263 -91 848 271 
Q 434 634 434 1313 
Q 434 1759 690 2068 
Q 947 2378 1403 2484 
z
M 1172 3481 
Q 1172 3119 1398 2916 
Q 1625 2713 2034 2713 
Q 2441 2713 2670 2916 
Q 2900 3119 2900 3481 
Q 2900 3844 2670 4047 
Q 2441 4250 2034 4250 
Q 1625 4250 1398 4047 
Q 1172 3844 1172 3481 
z
" transform="scale(0.015625)"/>
      </defs>
      <use xlink:href="#DejaVuSans-33"/>
      <use xlink:href="#DejaVuSans-2e" x="63.623047"/>
      <use xlink:href="#DejaVuSans-38" x="95.410156"/>
     </g>
    </g>
    <g id="line2d_34">
     <path d="M 99 85.654687 
L 109 85.654687 
L 119 85.654687 
" style="fill: none; stroke-dasharray: 5.55,2.4; stroke-dashoffset: 0; stroke: #2ca02c; stroke-width: 1.5"/>
    </g>
    <g id="text_17">
     <!-- 3.7 -->
     <g transform="translate(127 89.154687)scale(0.1 -0.1)">
      <defs>
       <path id="DejaVuSans-37" d="M 525 4666 
L 3525 4666 
L 3525 4397 
L 1831 0 
L 1172 0 
L 2766 4134 
L 525 4134 
L 525 4666 
z
" transform="scale(0.015625)"/>
      </defs>
      <use xlink:href="#DejaVuSans-33"/>
      <use xlink:href="#DejaVuSans-2e" x="63.623047"/>
      <use xlink:href="#DejaVuSans-37" x="95.410156"/>
     </g>
    </g>
    <g id="line2d_35">
     <path d="M 99 100.332812 
L 109 100.332812 
L 119 100.332812 
" style="fill: none; stroke: #d62728; stroke-width: 1.5; stroke-linecap: square"/>
    </g>
    <g id="text_18">
     <!-- 3.6 -->
     <g transform="translate(127 103.832812)scale(0.1 -0.1)">
      <use xlink:href="#DejaVuSans-33"/>
      <use xlink:href="#DejaVuSans-2e" x="63.623047"/>
      <use xlink:href="#DejaVuSans-36" x="95.410156"/>
     </g>
    </g>
    <g id="line2d_36">
     <path d="M 99 115.010937 
L 109 115.010937 
L 119 115.010937 
" style="fill: none; stroke-dasharray: 5.55,2.4; stroke-dashoffset: 0; stroke: #9467bd; stroke-width: 1.5"/>
    </g>
    <g id="text_19">
     <!-- 3.3, 3.4, 3.5 -->
     <g transform="translate(127 118.510937)scale(0.1 -0.1)">
      <defs>
       <path id="DejaVuSans-34" d="M 2419 4116 
L 825 1625 
L 2419 1625 
L 2419 4116 
z
M 2253 4666 
L 3047 4666 
L 3047 1625 
L 3713 1625 
L 3713 1100 
L 3047 1100 
L 3047 0 
L 2419 0 
L 2419 1100 
L 313 1100 
L 313 1709 
L 2253 4666 
z
" transform="scale(0.015625)"/>
      </defs>
      <use xlink:href="#DejaVuSans-33"/>
      <use xlink:href="#DejaVuSans-2e" x="63.623047"/>
      <use xlink:href="#DejaVuSans-33" x="95.410156"/>
      <use xlink:href="#DejaVuSans-2c" x="159.033203"/>
      <use xlink:href="#DejaVuSans-20" x="190.820312"/>
      <use xlink:href="#DejaVuSans-33" x="222.607422"/>
      <use xlink:href="#DejaVuSans-2e" x="286.230469"/>
      <use xlink:href="#DejaVuSans-34" x="318.017578"/>
      <use xlink:href="#DejaVuSans-2c" x="381.640625"/>
      <use xlink:href="#DejaVuSans-20" x="413.427734"/>
      <use xlink:href="#DejaVuSans-33" x="445.214844"/>
      <use xlink:href="#DejaVuSans-2e" x="508.837891"/>
      <use xlink:href="#DejaVuSans-35" x="540.625"/>
     </g>
    </g>
    <g id="line2d_37">
     <path d="M 99 129.689062 
L 109 129.689062 
L 119 129.689062 
" style="fill: none; stroke-dasharray: 9.6,2.4,1.5,2.4; stroke-dashoffset: 0; stroke: #8c564b; stroke-width: 1.5"/>
    </g>
    <g id="text_20">
     <!-- 2.7 -->
     <g transform="translate(127 133.189062)scale(0.1 -0.1)">
      <use xlink:href="#DejaVuSans-32"/>
      <use xlink:href="#DejaVuSans-2e" x="63.623047"/>
      <use xlink:href="#DejaVuSans-37" x="95.410156"/>
     </g>
    </g>
   </g>
  </g>
 </g>
 <defs>
  <clipPath id="p4764fa9b7d">
   <rect x="90" y="43.2" width="558" height="271.8"/>
  </clipPath>
 </defs>
</svg>
