<?xml version="1.0" encoding="utf-8" standalone="no"?>
<!DOCTYPE svg PUBLIC "-//W3C//DTD SVG 1.1//EN"
  "http://www.w3.org/Graphics/SVG/1.1/DTD/svg11.dtd">
<svg xmlns:xlink="http://www.w3.org/1999/xlink" width="720pt" height="360pt" viewBox="0 0 720 360" xmlns="http://www.w3.org/2000/svg" version="1.1">
 <metadata>
  <rdf:RDF xmlns:dc="http://purl.org/dc/elements/1.1/" xmlns:cc="http://creativecommons.org/ns#" xmlns:rdf="http://www.w3.org/1999/02/22-rdf-syntax-ns#">
   <cc:Work>
    <dc:type rdf:resource="http://purl.org/dc/dcmitype/StillImage"/>
    <dc:date>2022-03-05T16:20:09.073670</dc:date>
    <dc:format>image/svg+xml</dc:format>
    <dc:creator>
     <cc:Agent>
      <dc:title>Matplotlib v3.5.1, https://matplotlib.org/</dc:title>
     </cc:Agent>
    </dc:creator>
   </cc:Work>
  </rdf:RDF>
 </metadata>
 <defs>
  <style type="text/css">*{stroke-linejoin: round; stroke-linecap: butt}</style>
 </defs>
 <g id="figure_1">
  <g id="patch_1">
   <path d="M 0 360 
L 720 360 
L 720 0 
L 0 0 
L 0 360 
z
" style="fill: none"/>
  </g>
  <g id="axes_1">
   <g id="patch_2">
    <path d="M 90 315 
L 648 315 
L 648 43.2 
L 90 43.2 
z
" style="fill: #ffffff"/>
   </g>
   <g id="matplotlib.axis_1">
    <g id="xtick_1">
     <g id="line2d_1">
      <defs>
       <path id="m857d487498" d="M 0 0 
L 0 3.5 
" style="stroke: #000000; stroke-width: 0.8"/>
      </defs>
      <g>
       <use xlink:href="#m857d487498" x="90" y="315" style="stroke: #000000; stroke-width: 0.8"/>
      </g>
     </g>
    </g>
    <g id="xtick_2">
     <g id="line2d_2">
      <g>
       <use xlink:href="#m857d487498" x="214.418919" y="315" style="stroke: #000000; stroke-width: 0.8"/>
      </g>
     </g>
     <g id="text_1">
      <!-- 2019 -->
      <g transform="translate(201.693919 329.598437)scale(0.1 -0.1)">
       <defs>
        <path id="DejaVuSans-32" d="M 1228 531 
L 3431 531 
L 3431 0 
L 469 0 
L 469 531 
Q 828 903 1448 1529 
Q 2069 2156 2228 2338 
Q 2531 2678 2651 2914 
Q 2772 3150 2772 3378 
Q 2772 3750 2511 3984 
Q 2250 4219 1831 4219 
Q 1534 4219 1204 4116 
Q 875 4013 500 3803 
L 500 4441 
Q 881 4594 1212 4672 
Q 1544 4750 1819 4750 
Q 2544 4750 2975 4387 
Q 3406 4025 3406 3419 
Q 3406 3131 3298 2873 
Q 3191 2616 2906 2266 
Q 2828 2175 2409 1742 
Q 1991 1309 1228 531 
z
" transform="scale(0.015625)"/>
        <path id="DejaVuSans-30" d="M 2034 4250 
Q 1547 4250 1301 3770 
Q 1056 3291 1056 2328 
Q 1056 1369 1301 889 
Q 1547 409 2034 409 
Q 2525 409 2770 889 
Q 3016 1369 3016 2328 
Q 3016 3291 2770 3770 
Q 2525 4250 2034 4250 
z
M 2034 4750 
Q 2819 4750 3233 4129 
Q 3647 3509 3647 2328 
Q 3647 1150 3233 529 
Q 2819 -91 2034 -91 
Q 1250 -91 836 529 
Q 422 1150 422 2328 
Q 422 3509 836 4129 
Q 1250 4750 2034 4750 
z
" transform="scale(0.015625)"/>
        <path id="DejaVuSans-31" d="M 794 531 
L 1825 531 
L 1825 4091 
L 703 3866 
L 703 4441 
L 1819 4666 
L 2450 4666 
L 2450 531 
L 3481 531 
L 3481 0 
L 794 0 
L 794 531 
z
" transform="scale(0.015625)"/>
        <path id="DejaVuSans-39" d="M 703 97 
L 703 672 
Q 941 559 1184 500 
Q 1428 441 1663 441 
Q 2288 441 2617 861 
Q 2947 1281 2994 2138 
Q 2813 1869 2534 1725 
Q 2256 1581 1919 1581 
Q 1219 1581 811 2004 
Q 403 2428 403 3163 
Q 403 3881 828 4315 
Q 1253 4750 1959 4750 
Q 2769 4750 3195 4129 
Q 3622 3509 3622 2328 
Q 3622 1225 3098 567 
Q 2575 -91 1691 -91 
Q 1453 -91 1209 -44 
Q 966 3 703 97 
z
M 1959 2075 
Q 2384 2075 2632 2365 
Q 2881 2656 2881 3163 
Q 2881 3666 2632 3958 
Q 2384 4250 1959 4250 
Q 1534 4250 1286 3958 
Q 1038 3666 1038 3163 
Q 1038 2656 1286 2365 
Q 1534 2075 1959 2075 
z
" transform="scale(0.015625)"/>
       </defs>
       <use xlink:href="#DejaVuSans-32"/>
       <use xlink:href="#DejaVuSans-30" x="63.623047"/>
       <use xlink:href="#DejaVuSans-31" x="127.246094"/>
       <use xlink:href="#DejaVuSans-39" x="190.869141"/>
      </g>
     </g>
    </g>
    <g id="xtick_3">
     <g id="line2d_3">
      <g>
       <use xlink:href="#m857d487498" x="352.033784" y="315" style="stroke: #000000; stroke-width: 0.8"/>
      </g>
     </g>
     <g id="text_2">
      <!-- 2020 -->
      <g transform="translate(339.308784 329.598437)scale(0.1 -0.1)">
       <use xlink:href="#DejaVuSans-32"/>
       <use xlink:href="#DejaVuSans-30" x="63.623047"/>
       <use xlink:href="#DejaVuSans-32" x="127.246094"/>
       <use xlink:href="#DejaVuSans-30" x="190.869141"/>
      </g>
     </g>
    </g>
    <g id="xtick_4">
     <g id="line2d_4">
      <g>
       <use xlink:href="#m857d487498" x="490.025676" y="315" style="stroke: #000000; stroke-width: 0.8"/>
      </g>
     </g>
     <g id="text_3">
      <!-- 2021 -->
      <g transform="translate(477.300676 329.598437)scale(0.1 -0.1)">
       <use xlink:href="#DejaVuSans-32"/>
       <use xlink:href="#DejaVuSans-30" x="63.623047"/>
       <use xlink:href="#DejaVuSans-32" x="127.246094"/>
       <use xlink:href="#DejaVuSans-31" x="190.869141"/>
      </g>
     </g>
    </g>
    <g id="xtick_5">
     <g id="line2d_5">
      <g>
       <use xlink:href="#m857d487498" x="627.640541" y="315" style="stroke: #000000; stroke-width: 0.8"/>
      </g>
     </g>
     <g id="text_4">
      <!-- 2022 -->
      <g transform="translate(614.915541 329.598437)scale(0.1 -0.1)">
       <use xlink:href="#DejaVuSans-32"/>
       <use xlink:href="#DejaVuSans-30" x="63.623047"/>
       <use xlink:href="#DejaVuSans-32" x="127.246094"/>
       <use xlink:href="#DejaVuSans-32" x="190.869141"/>
      </g>
     </g>
    </g>
    <g id="xtick_6">
     <g id="line2d_6">
      <g>
       <use xlink:href="#m857d487498" x="648" y="315" style="stroke: #000000; stroke-width: 0.8"/>
      </g>
     </g>
    </g>
    <g id="xtick_7">
     <g id="line2d_7">
      <defs>
       <path id="maeed9b3f65" d="M 0 0 
L 0 2 
" style="stroke: #000000; stroke-width: 0.6"/>
      </defs>
      <g>
       <use xlink:href="#maeed9b3f65" x="110.736486" y="315" style="stroke: #000000; stroke-width: 0.6"/>
      </g>
     </g>
    </g>
    <g id="xtick_8">
     <g id="line2d_8">
      <g>
       <use xlink:href="#maeed9b3f65" x="145.045946" y="315" style="stroke: #000000; stroke-width: 0.6"/>
      </g>
     </g>
    </g>
    <g id="xtick_9">
     <g id="line2d_9">
      <g>
       <use xlink:href="#maeed9b3f65" x="179.732432" y="315" style="stroke: #000000; stroke-width: 0.6"/>
      </g>
     </g>
    </g>
    <g id="xtick_10">
     <g id="line2d_10">
      <g>
       <use xlink:href="#maeed9b3f65" x="248.351351" y="315" style="stroke: #000000; stroke-width: 0.6"/>
      </g>
     </g>
    </g>
    <g id="xtick_11">
     <g id="line2d_11">
      <g>
       <use xlink:href="#maeed9b3f65" x="282.660811" y="315" style="stroke: #000000; stroke-width: 0.6"/>
      </g>
     </g>
    </g>
    <g id="xtick_12">
     <g id="line2d_12">
      <g>
       <use xlink:href="#maeed9b3f65" x="317.347297" y="315" style="stroke: #000000; stroke-width: 0.6"/>
      </g>
     </g>
    </g>
    <g id="xtick_13">
     <g id="line2d_13">
      <g>
       <use xlink:href="#maeed9b3f65" x="386.343243" y="315" style="stroke: #000000; stroke-width: 0.6"/>
      </g>
     </g>
    </g>
    <g id="xtick_14">
     <g id="line2d_14">
      <g>
       <use xlink:href="#maeed9b3f65" x="420.652703" y="315" style="stroke: #000000; stroke-width: 0.6"/>
      </g>
     </g>
    </g>
    <g id="xtick_15">
     <g id="line2d_15">
      <g>
       <use xlink:href="#maeed9b3f65" x="455.339189" y="315" style="stroke: #000000; stroke-width: 0.6"/>
      </g>
     </g>
    </g>
    <g id="xtick_16">
     <g id="line2d_16">
      <g>
       <use xlink:href="#maeed9b3f65" x="523.958108" y="315" style="stroke: #000000; stroke-width: 0.6"/>
      </g>
     </g>
    </g>
    <g id="xtick_17">
     <g id="line2d_17">
      <g>
       <use xlink:href="#maeed9b3f65" x="558.267568" y="315" style="stroke: #000000; stroke-width: 0.6"/>
      </g>
     </g>
    </g>
    <g id="xtick_18">
     <g id="line2d_18">
      <g>
       <use xlink:href="#maeed9b3f65" x="592.954054" y="315" style="stroke: #000000; stroke-width: 0.6"/>
      </g>
     </g>
    </g>
   </g>
   <g id="matplotlib.axis_2">
    <g id="ytick_1">
     <g id="line2d_19">
      <defs>
       <path id="m8075e2fc6d" d="M 0 0 
L -3.5 0 
" style="stroke: #000000; stroke-width: 0.8"/>
      </defs>
      <g>
       <use xlink:href="#m8075e2fc6d" x="90" y="315" style="stroke: #000000; stroke-width: 0.8"/>
      </g>
     </g>
     <g id="text_5">
      <!-- 0 -->
      <g transform="translate(76.6375 318.799219)scale(0.1 -0.1)">
       <use xlink:href="#DejaVuSans-30"/>
      </g>
     </g>
    </g>
    <g id="ytick_2">
     <g id="line2d_20">
      <g>
       <use xlink:href="#m8075e2fc6d" x="90" y="260.64" style="stroke: #000000; stroke-width: 0.8"/>
      </g>
     </g>
     <g id="text_6">
      <!-- 1 -->
      <g transform="translate(76.6375 264.439219)scale(0.1 -0.1)">
       <use xlink:href="#DejaVuSans-31"/>
      </g>
     </g>
    </g>
    <g id="ytick_3">
     <g id="line2d_21">
      <g>
       <use xlink:href="#m8075e2fc6d" x="90" y="206.28" style="stroke: #000000; stroke-width: 0.8"/>
      </g>
     </g>
     <g id="text_7">
      <!-- 2 -->
      <g transform="translate(76.6375 210.079219)scale(0.1 -0.1)">
       <use xlink:href="#DejaVuSans-32"/>
      </g>
     </g>
    </g>
    <g id="ytick_4">
     <g id="line2d_22">
      <g>
       <use xlink:href="#m8075e2fc6d" x="90" y="151.92" style="stroke: #000000; stroke-width: 0.8"/>
      </g>
     </g>
     <g id="text_8">
      <!-- 3 -->
      <g transform="translate(76.6375 155.719219)scale(0.1 -0.1)">
       <defs>
        <path id="DejaVuSans-33" d="M 2597 2516 
Q 3050 2419 3304 2112 
Q 3559 1806 3559 1356 
Q 3559 666 3084 287 
Q 2609 -91 1734 -91 
Q 1441 -91 1130 -33 
Q 819 25 488 141 
L 488 750 
Q 750 597 1062 519 
Q 1375 441 1716 441 
Q 2309 441 2620 675 
Q 2931 909 2931 1356 
Q 2931 1769 2642 2001 
Q 2353 2234 1838 2234 
L 1294 2234 
L 1294 2753 
L 1863 2753 
Q 2328 2753 2575 2939 
Q 2822 3125 2822 3475 
Q 2822 3834 2567 4026 
Q 2313 4219 1838 4219 
Q 1578 4219 1281 4162 
Q 984 4106 628 3988 
L 628 4550 
Q 988 4650 1302 4700 
Q 1616 4750 1894 4750 
Q 2613 4750 3031 4423 
Q 3450 4097 3450 3541 
Q 3450 3153 3228 2886 
Q 3006 2619 2597 2516 
z
" transform="scale(0.015625)"/>
       </defs>
       <use xlink:href="#DejaVuSans-33"/>
      </g>
     </g>
    </g>
    <g id="ytick_5">
     <g id="line2d_23">
      <g>
       <use xlink:href="#m8075e2fc6d" x="90" y="97.56" style="stroke: #000000; stroke-width: 0.8"/>
      </g>
     </g>
     <g id="text_9">
      <!-- 4 -->
      <g transform="translate(76.6375 101.359219)scale(0.1 -0.1)">
       <defs>
        <path id="DejaVuSans-34" d="M 2419 4116 
L 825 1625 
L 2419 1625 
L 2419 4116 
z
M 2253 4666 
L 3047 4666 
L 3047 1625 
L 3713 1625 
L 3713 1100 
L 3047 1100 
L 3047 0 
L 2419 0 
L 2419 1100 
L 313 1100 
L 313 1709 
L 2253 4666 
z
" transform="scale(0.015625)"/>
       </defs>
       <use xlink:href="#DejaVuSans-34"/>
      </g>
     </g>
    </g>
    <g id="ytick_6">
     <g id="line2d_24">
      <g>
       <use xlink:href="#m8075e2fc6d" x="90" y="43.2" style="stroke: #000000; stroke-width: 0.8"/>
      </g>
     </g>
     <g id="text_10">
      <!-- 5 -->
      <g transform="translate(76.6375 46.999219)scale(0.1 -0.1)">
       <defs>
        <path id="DejaVuSans-35" d="M 691 4666 
L 3169 4666 
L 3169 4134 
L 1269 4134 
L 1269 2991 
Q 1406 3038 1543 3061 
Q 1681 3084 1819 3084 
Q 2600 3084 3056 2656 
Q 3513 2228 3513 1497 
Q 3513 744 3044 326 
Q 2575 -91 1722 -91 
Q 1428 -91 1123 -41 
Q 819 9 494 109 
L 494 744 
Q 775 591 1075 516 
Q 1375 441 1709 441 
Q 2250 441 2565 725 
Q 2881 1009 2881 1497 
Q 2881 1984 2565 2268 
Q 2250 2553 1709 2553 
Q 1456 2553 1204 2497 
Q 953 2441 691 2322 
L 691 4666 
z
" transform="scale(0.015625)"/>
       </defs>
       <use xlink:href="#DejaVuSans-35"/>
      </g>
     </g>
    </g>
    <g id="text_11">
     <!-- Number of pip-installs per month -->
     <g transform="translate(70.557812 262.00625)rotate(-90)scale(0.1 -0.1)">
      <defs>
       <path id="DejaVuSans-4e" d="M 628 4666 
L 1478 4666 
L 3547 763 
L 3547 4666 
L 4159 4666 
L 4159 0 
L 3309 0 
L 1241 3903 
L 1241 0 
L 628 0 
L 628 4666 
z
" transform="scale(0.015625)"/>
       <path id="DejaVuSans-75" d="M 544 1381 
L 544 3500 
L 1119 3500 
L 1119 1403 
Q 1119 906 1312 657 
Q 1506 409 1894 409 
Q 2359 409 2629 706 
Q 2900 1003 2900 1516 
L 2900 3500 
L 3475 3500 
L 3475 0 
L 2900 0 
L 2900 538 
Q 2691 219 2414 64 
Q 2138 -91 1772 -91 
Q 1169 -91 856 284 
Q 544 659 544 1381 
z
M 1991 3584 
L 1991 3584 
z
" transform="scale(0.015625)"/>
       <path id="DejaVuSans-6d" d="M 3328 2828 
Q 3544 3216 3844 3400 
Q 4144 3584 4550 3584 
Q 5097 3584 5394 3201 
Q 5691 2819 5691 2113 
L 5691 0 
L 5113 0 
L 5113 2094 
Q 5113 2597 4934 2840 
Q 4756 3084 4391 3084 
Q 3944 3084 3684 2787 
Q 3425 2491 3425 1978 
L 3425 0 
L 2847 0 
L 2847 2094 
Q 2847 2600 2669 2842 
Q 2491 3084 2119 3084 
Q 1678 3084 1418 2786 
Q 1159 2488 1159 1978 
L 1159 0 
L 581 0 
L 581 3500 
L 1159 3500 
L 1159 2956 
Q 1356 3278 1631 3431 
Q 1906 3584 2284 3584 
Q 2666 3584 2933 3390 
Q 3200 3197 3328 2828 
z
" transform="scale(0.015625)"/>
       <path id="DejaVuSans-62" d="M 3116 1747 
Q 3116 2381 2855 2742 
Q 2594 3103 2138 3103 
Q 1681 3103 1420 2742 
Q 1159 2381 1159 1747 
Q 1159 1113 1420 752 
Q 1681 391 2138 391 
Q 2594 391 2855 752 
Q 3116 1113 3116 1747 
z
M 1159 2969 
Q 1341 3281 1617 3432 
Q 1894 3584 2278 3584 
Q 2916 3584 3314 3078 
Q 3713 2572 3713 1747 
Q 3713 922 3314 415 
Q 2916 -91 2278 -91 
Q 1894 -91 1617 61 
Q 1341 213 1159 525 
L 1159 0 
L 581 0 
L 581 4863 
L 1159 4863 
L 1159 2969 
z
" transform="scale(0.015625)"/>
       <path id="DejaVuSans-65" d="M 3597 1894 
L 3597 1613 
L 953 1613 
Q 991 1019 1311 708 
Q 1631 397 2203 397 
Q 2534 397 2845 478 
Q 3156 559 3463 722 
L 3463 178 
Q 3153 47 2828 -22 
Q 2503 -91 2169 -91 
Q 1331 -91 842 396 
Q 353 884 353 1716 
Q 353 2575 817 3079 
Q 1281 3584 2069 3584 
Q 2775 3584 3186 3129 
Q 3597 2675 3597 1894 
z
M 3022 2063 
Q 3016 2534 2758 2815 
Q 2500 3097 2075 3097 
Q 1594 3097 1305 2825 
Q 1016 2553 972 2059 
L 3022 2063 
z
" transform="scale(0.015625)"/>
       <path id="DejaVuSans-72" d="M 2631 2963 
Q 2534 3019 2420 3045 
Q 2306 3072 2169 3072 
Q 1681 3072 1420 2755 
Q 1159 2438 1159 1844 
L 1159 0 
L 581 0 
L 581 3500 
L 1159 3500 
L 1159 2956 
Q 1341 3275 1631 3429 
Q 1922 3584 2338 3584 
Q 2397 3584 2469 3576 
Q 2541 3569 2628 3553 
L 2631 2963 
z
" transform="scale(0.015625)"/>
       <path id="DejaVuSans-20" transform="scale(0.015625)"/>
       <path id="DejaVuSans-6f" d="M 1959 3097 
Q 1497 3097 1228 2736 
Q 959 2375 959 1747 
Q 959 1119 1226 758 
Q 1494 397 1959 397 
Q 2419 397 2687 759 
Q 2956 1122 2956 1747 
Q 2956 2369 2687 2733 
Q 2419 3097 1959 3097 
z
M 1959 3584 
Q 2709 3584 3137 3096 
Q 3566 2609 3566 1747 
Q 3566 888 3137 398 
Q 2709 -91 1959 -91 
Q 1206 -91 779 398 
Q 353 888 353 1747 
Q 353 2609 779 3096 
Q 1206 3584 1959 3584 
z
" transform="scale(0.015625)"/>
       <path id="DejaVuSans-66" d="M 2375 4863 
L 2375 4384 
L 1825 4384 
Q 1516 4384 1395 4259 
Q 1275 4134 1275 3809 
L 1275 3500 
L 2222 3500 
L 2222 3053 
L 1275 3053 
L 1275 0 
L 697 0 
L 697 3053 
L 147 3053 
L 147 3500 
L 697 3500 
L 697 3744 
Q 697 4328 969 4595 
Q 1241 4863 1831 4863 
L 2375 4863 
z
" transform="scale(0.015625)"/>
       <path id="DejaVuSans-70" d="M 1159 525 
L 1159 -1331 
L 581 -1331 
L 581 3500 
L 1159 3500 
L 1159 2969 
Q 1341 3281 1617 3432 
Q 1894 3584 2278 3584 
Q 2916 3584 3314 3078 
Q 3713 2572 3713 1747 
Q 3713 922 3314 415 
Q 2916 -91 2278 -91 
Q 1894 -91 1617 61 
Q 1341 213 1159 525 
z
M 3116 1747 
Q 3116 2381 2855 2742 
Q 2594 3103 2138 3103 
Q 1681 3103 1420 2742 
Q 1159 2381 1159 1747 
Q 1159 1113 1420 752 
Q 1681 391 2138 391 
Q 2594 391 2855 752 
Q 3116 1113 3116 1747 
z
" transform="scale(0.015625)"/>
       <path id="DejaVuSans-69" d="M 603 3500 
L 1178 3500 
L 1178 0 
L 603 0 
L 603 3500 
z
M 603 4863 
L 1178 4863 
L 1178 4134 
L 603 4134 
L 603 4863 
z
" transform="scale(0.015625)"/>
       <path id="DejaVuSans-2d" d="M 313 2009 
L 1997 2009 
L 1997 1497 
L 313 1497 
L 313 2009 
z
" transform="scale(0.015625)"/>
       <path id="DejaVuSans-6e" d="M 3513 2113 
L 3513 0 
L 2938 0 
L 2938 2094 
Q 2938 2591 2744 2837 
Q 2550 3084 2163 3084 
Q 1697 3084 1428 2787 
Q 1159 2491 1159 1978 
L 1159 0 
L 581 0 
L 581 3500 
L 1159 3500 
L 1159 2956 
Q 1366 3272 1645 3428 
Q 1925 3584 2291 3584 
Q 2894 3584 3203 3211 
Q 3513 2838 3513 2113 
z
" transform="scale(0.015625)"/>
       <path id="DejaVuSans-73" d="M 2834 3397 
L 2834 2853 
Q 2591 2978 2328 3040 
Q 2066 3103 1784 3103 
Q 1356 3103 1142 2972 
Q 928 2841 928 2578 
Q 928 2378 1081 2264 
Q 1234 2150 1697 2047 
L 1894 2003 
Q 2506 1872 2764 1633 
Q 3022 1394 3022 966 
Q 3022 478 2636 193 
Q 2250 -91 1575 -91 
Q 1294 -91 989 -36 
Q 684 19 347 128 
L 347 722 
Q 666 556 975 473 
Q 1284 391 1588 391 
Q 1994 391 2212 530 
Q 2431 669 2431 922 
Q 2431 1156 2273 1281 
Q 2116 1406 1581 1522 
L 1381 1569 
Q 847 1681 609 1914 
Q 372 2147 372 2553 
Q 372 3047 722 3315 
Q 1072 3584 1716 3584 
Q 2034 3584 2315 3537 
Q 2597 3491 2834 3397 
z
" transform="scale(0.015625)"/>
       <path id="DejaVuSans-74" d="M 1172 4494 
L 1172 3500 
L 2356 3500 
L 2356 3053 
L 1172 3053 
L 1172 1153 
Q 1172 725 1289 603 
Q 1406 481 1766 481 
L 2356 481 
L 2356 0 
L 1766 0 
Q 1100 0 847 248 
Q 594 497 594 1153 
L 594 3053 
L 172 3053 
L 172 3500 
L 594 3500 
L 594 4494 
L 1172 4494 
z
" transform="scale(0.015625)"/>
       <path id="DejaVuSans-61" d="M 2194 1759 
Q 1497 1759 1228 1600 
Q 959 1441 959 1056 
Q 959 750 1161 570 
Q 1363 391 1709 391 
Q 2188 391 2477 730 
Q 2766 1069 2766 1631 
L 2766 1759 
L 2194 1759 
z
M 3341 1997 
L 3341 0 
L 2766 0 
L 2766 531 
Q 2569 213 2275 61 
Q 1981 -91 1556 -91 
Q 1019 -91 701 211 
Q 384 513 384 1019 
Q 384 1609 779 1909 
Q 1175 2209 1959 2209 
L 2766 2209 
L 2766 2266 
Q 2766 2663 2505 2880 
Q 2244 3097 1772 3097 
Q 1472 3097 1187 3025 
Q 903 2953 641 2809 
L 641 3341 
Q 956 3463 1253 3523 
Q 1550 3584 1831 3584 
Q 2591 3584 2966 3190 
Q 3341 2797 3341 1997 
z
" transform="scale(0.015625)"/>
       <path id="DejaVuSans-6c" d="M 603 4863 
L 1178 4863 
L 1178 0 
L 603 0 
L 603 4863 
z
" transform="scale(0.015625)"/>
       <path id="DejaVuSans-68" d="M 3513 2113 
L 3513 0 
L 2938 0 
L 2938 2094 
Q 2938 2591 2744 2837 
Q 2550 3084 2163 3084 
Q 1697 3084 1428 2787 
Q 1159 2491 1159 1978 
L 1159 0 
L 581 0 
L 581 4863 
L 1159 4863 
L 1159 2956 
Q 1366 3272 1645 3428 
Q 1925 3584 2291 3584 
Q 2894 3584 3203 3211 
Q 3513 2838 3513 2113 
z
" transform="scale(0.015625)"/>
      </defs>
      <use xlink:href="#DejaVuSans-4e"/>
      <use xlink:href="#DejaVuSans-75" x="74.804688"/>
      <use xlink:href="#DejaVuSans-6d" x="138.183594"/>
      <use xlink:href="#DejaVuSans-62" x="235.595703"/>
      <use xlink:href="#DejaVuSans-65" x="299.072266"/>
      <use xlink:href="#DejaVuSans-72" x="360.595703"/>
      <use xlink:href="#DejaVuSans-20" x="401.708984"/>
      <use xlink:href="#DejaVuSans-6f" x="433.496094"/>
      <use xlink:href="#DejaVuSans-66" x="494.677734"/>
      <use xlink:href="#DejaVuSans-20" x="529.882812"/>
      <use xlink:href="#DejaVuSans-70" x="561.669922"/>
      <use xlink:href="#DejaVuSans-69" x="625.146484"/>
      <use xlink:href="#DejaVuSans-70" x="652.929688"/>
      <use xlink:href="#DejaVuSans-2d" x="716.40625"/>
      <use xlink:href="#DejaVuSans-69" x="752.490234"/>
      <use xlink:href="#DejaVuSans-6e" x="780.273438"/>
      <use xlink:href="#DejaVuSans-73" x="843.652344"/>
      <use xlink:href="#DejaVuSans-74" x="895.751953"/>
      <use xlink:href="#DejaVuSans-61" x="934.960938"/>
      <use xlink:href="#DejaVuSans-6c" x="996.240234"/>
      <use xlink:href="#DejaVuSans-6c" x="1024.023438"/>
      <use xlink:href="#DejaVuSans-73" x="1051.806641"/>
      <use xlink:href="#DejaVuSans-20" x="1103.90625"/>
      <use xlink:href="#DejaVuSans-70" x="1135.693359"/>
      <use xlink:href="#DejaVuSans-65" x="1199.169922"/>
      <use xlink:href="#DejaVuSans-72" x="1260.693359"/>
      <use xlink:href="#DejaVuSans-20" x="1301.806641"/>
      <use xlink:href="#DejaVuSans-6d" x="1333.59375"/>
      <use xlink:href="#DejaVuSans-6f" x="1431.005859"/>
      <use xlink:href="#DejaVuSans-6e" x="1492.1875"/>
      <use xlink:href="#DejaVuSans-74" x="1555.566406"/>
      <use xlink:href="#DejaVuSans-68" x="1594.775391"/>
     </g>
    </g>
    <g id="text_12">
     <!-- 1e7 -->
     <g transform="translate(90 40.2)scale(0.1 -0.1)">
      <defs>
       <path id="DejaVuSans-37" d="M 525 4666 
L 3525 4666 
L 3525 4397 
L 1831 0 
L 1172 0 
L 2766 4134 
L 525 4134 
L 525 4666 
z
" transform="scale(0.015625)"/>
      </defs>
      <use xlink:href="#DejaVuSans-31"/>
      <use xlink:href="#DejaVuSans-65" x="63.623047"/>
      <use xlink:href="#DejaVuSans-37" x="125.146484"/>
     </g>
    </g>
   </g>
   <g id="line2d_25">
    <path d="M 97.540541 315 
L 451.945946 314.930599 
L 455.716216 314.342168 
L 459.486486 313.22806 
L 463.256757 311.80086 
L 467.027027 310.885492 
L 470.797297 310.340321 
L 474.567568 310.231084 
L 478.337838 309.884343 
L 485.878378 309.58501 
L 489.648649 309.092449 
L 493.418919 308.434171 
L 497.189189 307.370639 
L 504.72973 305.684827 
L 508.5 305.016438 
L 516.040541 304.496898 
L 519.810811 304.131566 
L 523.581081 303.048204 
L 527.351351 302.556268 
L 531.121622 301.689595 
L 534.891892 302.150258 
L 538.662162 301.245659 
L 542.432432 301.069956 
L 546.202703 299.862637 
L 549.972973 299.029114 
L 553.743243 298.548598 
L 557.513514 297.762857 
L 561.283784 298.349277 
L 565.054054 297.376086 
L 568.824324 297.515264 
L 576.364865 295.399572 
L 580.135135 294.577916 
L 583.905405 293.134728 
L 587.675676 293.397776 
L 591.445946 291.699592 
L 595.216216 291.699804 
L 598.986486 290.216868 
L 602.756757 289.818893 
L 606.527027 289.263823 
L 610.297297 288.349646 
L 614.067568 289.019698 
L 617.837838 287.358647 
L 621.608108 288.650691 
L 625.378378 290.081822 
L 629.148649 289.82334 
L 632.918919 288.594293 
L 636.689189 283.918958 
L 640.459459 281.833121 
L 644.22973 275.689147 
L 648 272.418312 
L 648 272.418312 
" clip-path="url(#pbfd522c332)" style="fill: none; stroke: #1f77b4; stroke-width: 1.5; stroke-linecap: square"/>
   </g>
   <g id="line2d_26">
    <path d="M 97.540541 314.99994 
L 316.216216 314.965878 
L 319.986486 314.815698 
L 323.756757 314.273142 
L 327.527027 313.554475 
L 331.297297 312.956205 
L 338.837838 312.435572 
L 346.378378 312.101296 
L 350.148649 312.217779 
L 357.689189 311.446106 
L 361.459459 310.764595 
L 369 309.77807 
L 372.77027 307.805497 
L 376.540541 307.490302 
L 380.310811 305.882186 
L 384.081081 306.43817 
L 387.851351 305.696645 
L 391.621622 305.722564 
L 395.391892 305.081328 
L 399.162162 303.614613 
L 402.932432 303.117855 
L 406.702703 302.181879 
L 414.243243 299.747122 
L 418.013514 298.871062 
L 421.783784 299.859495 
L 425.554054 299.265917 
L 429.324324 294.844144 
L 433.094595 288.975357 
L 436.864865 284.274744 
L 440.635135 280.418179 
L 444.405405 278.230314 
L 448.175676 275.537005 
L 451.945946 274.693006 
L 455.716216 274.510449 
L 459.486486 273.892968 
L 463.256757 274.329816 
L 467.027027 271.709838 
L 470.797297 270.25181 
L 474.567568 270.534585 
L 478.337838 269.832107 
L 482.108108 270.6423 
L 485.878378 270.489467 
L 489.648649 271.788258 
L 493.418919 272.20702 
L 497.189189 267.854001 
L 504.72973 263.396416 
L 508.5 268.524211 
L 512.27027 271.633125 
L 516.040541 272.430679 
L 519.810811 269.124204 
L 523.581081 267.965483 
L 527.351351 269.866985 
L 531.121622 270.065839 
L 534.891892 269.385426 
L 538.662162 264.377723 
L 542.432432 263.128655 
L 546.202703 260.293406 
L 549.972973 258.829703 
L 553.743243 258.908808 
L 557.513514 258.135417 
L 561.283784 262.464517 
L 565.054054 262.937438 
L 568.824324 266.59198 
L 572.594595 263.535545 
L 576.364865 262.021097 
L 580.135135 261.691279 
L 583.905405 260.583118 
L 587.675676 261.488157 
L 591.445946 257.054822 
L 595.216216 257.315022 
L 598.986486 252.529597 
L 602.756757 249.13526 
L 606.527027 247.878484 
L 610.297297 246.136583 
L 614.067568 247.100174 
L 617.837838 241.518625 
L 621.608108 243.871989 
L 625.378378 246.555308 
L 629.148649 240.731966 
L 632.918919 232.45746 
L 636.689189 217.365869 
L 640.459459 219.898262 
L 644.22973 217.202093 
L 648 220.509736 
L 648 220.509736 
" clip-path="url(#pbfd522c332)" style="fill: none; stroke-dasharray: 1.5,2.475; stroke-dashoffset: 0; stroke: #ff7f0e; stroke-width: 1.5"/>
   </g>
   <g id="line2d_27">
    <path d="M 97.540541 314.977511 
L 142.783784 314.914182 
L 150.324324 314.774939 
L 154.094595 314.383259 
L 157.864865 313.87671 
L 161.635135 313.256077 
L 184.256757 311.713204 
L 188.027027 311.327813 
L 195.567568 310.672275 
L 206.878378 310.737535 
L 210.648649 311.178367 
L 214.418919 311.122436 
L 218.189189 310.828033 
L 221.959459 309.701743 
L 240.810811 306.520313 
L 244.581081 306.649434 
L 248.351351 306.142723 
L 252.121622 306.274426 
L 255.891892 306.745352 
L 259.662162 305.867449 
L 263.432432 305.192526 
L 267.202703 303.375728 
L 270.972973 303.618228 
L 274.743243 302.843723 
L 278.513514 302.693363 
L 286.054054 301.800087 
L 289.824324 301.583289 
L 293.594595 300.637131 
L 297.364865 300.839628 
L 301.135135 299.255931 
L 304.905405 298.857793 
L 308.675676 296.814955 
L 312.445946 295.34101 
L 316.216216 294.83911 
L 319.986486 294.069655 
L 323.756757 292.613351 
L 327.527027 287.829274 
L 331.297297 285.667947 
L 335.067568 285.008561 
L 338.837838 285.942705 
L 342.608108 286.329492 
L 346.378378 286.014824 
L 350.148649 288.97079 
L 353.918919 285.654086 
L 357.689189 284.002944 
L 361.459459 279.793692 
L 365.22973 279.424892 
L 369 278.101769 
L 372.77027 275.91316 
L 376.540541 275.699682 
L 380.310811 272.985411 
L 384.081081 271.124016 
L 387.851351 267.163369 
L 391.621622 264.499642 
L 395.391892 264.031009 
L 399.162162 262.398106 
L 402.932432 262.927909 
L 406.702703 260.024069 
L 410.472973 258.171192 
L 414.243243 254.047872 
L 418.013514 252.038106 
L 421.783784 252.83261 
L 425.554054 251.492196 
L 429.324324 235.826568 
L 433.094595 211.696724 
L 436.864865 193.507091 
L 440.635135 189.605657 
L 444.405405 192.615793 
L 448.175676 194.933812 
L 451.945946 192.107859 
L 455.716216 183.179783 
L 459.486486 178.258513 
L 463.256757 179.882066 
L 467.027027 187.743718 
L 470.797297 187.613352 
L 474.567568 188.178745 
L 478.337838 184.729973 
L 482.108108 185.5363 
L 485.878378 188.673133 
L 489.648649 195.53112 
L 493.418919 196.22059 
L 497.189189 188.199114 
L 500.959459 182.748779 
L 504.72973 180.191864 
L 508.5 181.847224 
L 512.27027 171.130482 
L 516.040541 161.149741 
L 519.810811 155.962563 
L 523.581081 160.800032 
L 527.351351 168.632085 
L 531.121622 161.164652 
L 534.891892 156.204552 
L 538.662162 145.558217 
L 542.432432 144.979821 
L 549.972973 136.63088 
L 553.743243 134.566037 
L 557.513514 127.861802 
L 561.283784 130.621214 
L 565.054054 124.872753 
L 568.824324 119.361915 
L 572.594595 105.395347 
L 576.364865 93.537572 
L 580.135135 95.976026 
L 583.905405 91.954158 
L 587.675676 95.242242 
L 591.445946 83.981106 
L 595.216216 65.824686 
L 598.986486 58.737795 
L 602.756757 57.105734 
L 606.527027 76.185566 
L 610.297297 83.147294 
L 614.067568 97.490974 
L 617.837838 93.565899 
L 621.608108 100.260203 
L 625.378378 107.194114 
L 629.148649 105.288318 
L 632.918919 101.865486 
L 636.689189 93.417339 
L 640.459459 106.692882 
L 644.22973 93.147387 
L 648 86.687614 
L 648 86.687614 
" clip-path="url(#pbfd522c332)" style="fill: none; stroke-dasharray: 5.55,2.4; stroke-dashoffset: 0; stroke: #2ca02c; stroke-width: 1.5"/>
   </g>
   <g id="line2d_28">
    <path d="M 97.540541 312.325689 
L 105.081081 312.159418 
L 108.851351 312.182766 
L 112.621622 311.845696 
L 116.391892 311.924202 
L 120.162162 311.802224 
L 123.932432 311.874153 
L 131.472973 311.660377 
L 139.013514 311.531283 
L 142.783784 311.448433 
L 146.554054 311.928709 
L 150.324324 312.579741 
L 154.094595 310.818134 
L 157.864865 308.184365 
L 161.635135 304.57285 
L 165.405405 304.082419 
L 169.175676 303.46365 
L 172.945946 303.083402 
L 176.716216 302.313338 
L 180.486486 301.858519 
L 184.256757 301.8594 
L 188.027027 300.641491 
L 191.797297 300.096733 
L 195.567568 298.751839 
L 199.337838 298.736314 
L 203.108108 297.767646 
L 206.878378 297.389953 
L 210.648649 298.73732 
L 214.418919 299.18972 
L 218.189189 298.140083 
L 221.959459 294.055918 
L 225.72973 291.018347 
L 229.5 287.789906 
L 233.27027 284.408421 
L 237.040541 283.130053 
L 240.810811 284.105494 
L 244.581081 287.440377 
L 248.351351 287.600244 
L 252.121622 287.976165 
L 255.891892 290.124935 
L 259.662162 290.142112 
L 263.432432 288.755601 
L 267.202703 283.56272 
L 270.972973 282.942435 
L 274.743243 281.564762 
L 278.513514 281.6224 
L 282.283784 279.81717 
L 289.824324 276.470654 
L 293.594595 272.836851 
L 297.364865 272.526841 
L 301.135135 270.986344 
L 304.905405 273.382598 
L 308.675676 270.904772 
L 312.445946 268.044348 
L 316.216216 266.475448 
L 319.986486 266.572258 
L 323.756757 269.135957 
L 327.527027 268.55898 
L 331.297297 265.285062 
L 335.067568 254.868148 
L 338.837838 243.2021 
L 342.608108 238.288228 
L 346.378378 237.725401 
L 350.148649 238.496661 
L 353.918919 236.884316 
L 357.689189 236.589119 
L 361.459459 237.618828 
L 365.22973 239.913076 
L 369 241.494538 
L 372.77027 239.452206 
L 376.540541 239.589291 
L 380.310811 236.412835 
L 384.081081 238.104415 
L 387.851351 235.797572 
L 391.621622 236.184703 
L 395.391892 236.294461 
L 399.162162 233.514431 
L 402.932432 237.728391 
L 406.702703 240.559459 
L 410.472973 245.916306 
L 414.243243 246.679602 
L 418.013514 244.274243 
L 421.783784 244.961902 
L 425.554054 242.62533 
L 429.324324 241.489864 
L 433.094595 227.830141 
L 440.635135 201.985799 
L 444.405405 199.778174 
L 448.175676 200.798256 
L 451.945946 201.456632 
L 455.716216 214.498134 
L 463.256757 232.071069 
L 467.027027 225.983163 
L 470.797297 225.306234 
L 474.567568 229.690156 
L 478.337838 231.696616 
L 482.108108 233.213178 
L 485.878378 232.954713 
L 489.648649 236.159224 
L 493.418919 234.083917 
L 497.189189 224.588584 
L 500.959459 217.456742 
L 504.72973 213.393794 
L 508.5 215.998046 
L 512.27027 214.12654 
L 516.040541 211.533111 
L 519.810811 205.105541 
L 523.581081 203.629173 
L 527.351351 204.365435 
L 534.891892 207.691909 
L 538.662162 203.174549 
L 546.202703 201.788076 
L 549.972973 203.234351 
L 553.743243 204.491214 
L 557.513514 200.936472 
L 561.283784 202.375381 
L 565.054054 202.815637 
L 568.824324 208.419832 
L 572.594595 211.424848 
L 580.135135 208.142151 
L 583.905405 210.891429 
L 587.675676 216.598371 
L 591.445946 221.217231 
L 595.216216 223.064531 
L 598.986486 223.13378 
L 602.756757 223.747151 
L 606.527027 223.686681 
L 610.297297 222.761653 
L 614.067568 219.225241 
L 617.837838 215.499092 
L 621.608108 221.384785 
L 625.378378 229.865478 
L 629.148649 232.120537 
L 632.918919 231.583922 
L 636.689189 225.671805 
L 640.459459 222.133431 
L 644.22973 217.074108 
L 648 217.43645 
L 648 217.43645 
" clip-path="url(#pbfd522c332)" style="fill: none; stroke: #d62728; stroke-width: 1.5; stroke-linecap: square"/>
   </g>
   <g id="line2d_29">
    <path d="M 97.540541 311.694885 
L 101.310811 311.665302 
L 105.081081 312.229836 
L 108.851351 312.395977 
L 112.621622 312.096306 
L 116.391892 312.247547 
L 120.162162 312.287431 
L 123.932432 312.489079 
L 127.702703 312.210712 
L 131.472973 309.83175 
L 135.243243 308.901036 
L 139.013514 307.039451 
L 142.783784 307.273503 
L 146.554054 307.201873 
L 150.324324 308.684423 
L 154.094595 306.447677 
L 157.864865 302.95309 
L 161.635135 298.599126 
L 165.405405 297.043283 
L 169.175676 296.022179 
L 172.945946 294.552062 
L 176.716216 293.247427 
L 184.256757 288.523418 
L 188.027027 289.713283 
L 191.797297 292.86345 
L 195.567568 296.165168 
L 203.108108 296.519715 
L 206.878378 296.897696 
L 210.648649 299.447811 
L 214.418919 300.389331 
L 218.189189 301.882894 
L 221.959459 301.04058 
L 225.72973 300.966879 
L 229.5 298.429718 
L 233.27027 294.052956 
L 237.040541 290.627911 
L 240.810811 288.724893 
L 244.581081 291.159514 
L 248.351351 293.277684 
L 252.121622 296.907753 
L 255.891892 300.724803 
L 259.662162 300.940759 
L 263.432432 300.776152 
L 267.202703 298.410676 
L 270.972973 299.031799 
L 274.743243 298.373407 
L 278.513514 298.070317 
L 286.054054 296.975588 
L 289.824324 296.69751 
L 293.594595 295.475019 
L 297.364865 295.92762 
L 301.135135 294.849525 
L 304.905405 294.53963 
L 308.675676 293.279837 
L 312.445946 292.268746 
L 316.216216 292.012053 
L 327.527027 288.955727 
L 331.297297 289.117079 
L 335.067568 289.851689 
L 342.608108 289.51912 
L 346.378378 289.653052 
L 350.148649 291.437174 
L 357.689189 291.894369 
L 365.22973 289.324223 
L 369 289.091437 
L 372.77027 286.60376 
L 376.540541 287.904622 
L 380.310811 284.845856 
L 384.081081 284.074373 
L 387.851351 281.478998 
L 391.621622 282.377433 
L 395.391892 284.283713 
L 399.162162 287.240713 
L 402.932432 289.860642 
L 406.702703 291.536941 
L 410.472973 291.785393 
L 414.243243 291.268664 
L 418.013514 289.784396 
L 421.783784 289.199119 
L 425.554054 285.684984 
L 429.324324 286.293647 
L 433.094595 286.532831 
L 436.864865 290.016807 
L 440.635135 290.880501 
L 444.405405 291.517823 
L 448.175676 293.556317 
L 451.945946 294.834228 
L 455.716216 296.368088 
L 459.486486 296.553798 
L 463.256757 297.048996 
L 467.027027 295.721503 
L 470.797297 295.34867 
L 474.567568 295.80936 
L 478.337838 296.965352 
L 482.108108 297.531702 
L 485.878378 297.639509 
L 489.648649 298.138072 
L 493.418919 298.801824 
L 497.189189 298.862223 
L 500.959459 298.158413 
L 504.72973 297.909896 
L 508.5 297.937684 
L 512.27027 298.374244 
L 523.581081 297.555659 
L 531.121622 297.867076 
L 534.891892 298.447097 
L 538.662162 298.336399 
L 542.432432 298.574849 
L 546.202703 298.376723 
L 553.743243 299.773432 
L 557.513514 300.902685 
L 561.283784 302.323368 
L 565.054054 303.097769 
L 568.824324 303.429327 
L 572.594595 303.104401 
L 576.364865 303.147677 
L 580.135135 303.808831 
L 583.905405 304.678368 
L 587.675676 305.005789 
L 595.216216 303.594995 
L 598.986486 303.89379 
L 606.527027 302.947404 
L 610.297297 302.018593 
L 614.067568 302.134874 
L 617.837838 301.603484 
L 625.378378 301.260238 
L 632.918919 301.908878 
L 636.689189 301.814911 
L 640.459459 301.97772 
L 644.22973 302.303499 
L 648 303.070502 
L 648 303.070502 
" clip-path="url(#pbfd522c332)" style="fill: none; stroke-dasharray: 5.55,2.4; stroke-dashoffset: 0; stroke: #9467bd; stroke-width: 1.5"/>
   </g>
   <g id="line2d_30">
    <path d="M 97.540541 305.555086 
L 101.310811 306.568345 
L 105.081081 306.62339 
L 108.851351 307.414883 
L 112.621622 306.751908 
L 116.391892 307.220573 
L 120.162162 306.976431 
L 123.932432 307.556752 
L 127.702703 307.60268 
L 131.472973 307.953324 
L 135.243243 307.927302 
L 139.013514 307.663993 
L 142.783784 307.081455 
L 146.554054 307.670549 
L 150.324324 308.942366 
L 154.094595 305.842884 
L 157.864865 300.651939 
L 161.635135 292.745098 
L 165.405405 290.281046 
L 169.175676 288.947312 
L 172.945946 289.53907 
L 176.716216 288.381028 
L 180.486486 287.589655 
L 184.256757 287.774865 
L 188.027027 286.300127 
L 191.797297 285.475953 
L 195.567568 282.819255 
L 199.337838 284.824971 
L 203.108108 285.426605 
L 206.878378 287.271823 
L 210.648649 290.842307 
L 214.418919 292.052638 
L 218.189189 290.275338 
L 221.959459 284.252266 
L 225.72973 281.094983 
L 229.5 280.546034 
L 233.27027 278.797637 
L 237.040541 278.017359 
L 240.810811 275.346163 
L 244.581081 277.208901 
L 248.351351 277.33413 
L 252.121622 281.245234 
L 255.891892 285.474127 
L 259.662162 285.426931 
L 263.432432 283.238599 
L 267.202703 277.122969 
L 270.972973 269.140871 
L 274.743243 266.270538 
L 278.513514 265.965307 
L 282.283784 271.951838 
L 286.054054 273.607382 
L 289.824324 274.281316 
L 293.594595 273.036336 
L 297.364865 271.628281 
L 301.135135 266.056632 
L 304.905405 262.511919 
L 308.675676 257.242669 
L 312.445946 255.18019 
L 316.216216 253.974616 
L 319.986486 253.44833 
L 323.756757 253.10235 
L 327.527027 249.688575 
L 331.297297 243.465665 
L 335.067568 236.020987 
L 338.837838 229.218653 
L 342.608108 221.223618 
L 346.378378 215.244203 
L 350.148649 213.60782 
L 353.918919 210.848648 
L 357.689189 205.585431 
L 361.459459 197.232631 
L 365.22973 213.628233 
L 369 235.547978 
L 372.77027 260.553008 
L 376.540541 266.224859 
L 380.310811 271.249827 
L 387.851351 277.791645 
L 395.391892 279.875226 
L 399.162162 280.861382 
L 402.932432 282.587355 
L 406.702703 283.473951 
L 410.472973 284.911392 
L 421.783784 285.930555 
L 425.554054 285.560304 
L 429.324324 286.000391 
L 433.094595 285.558075 
L 436.864865 286.253155 
L 440.635135 286.496666 
L 444.405405 287.522651 
L 448.175676 288.423728 
L 451.945946 287.876317 
L 455.716216 288.538308 
L 459.486486 287.658714 
L 463.256757 288.778867 
L 467.027027 288.56334 
L 470.797297 288.961022 
L 474.567568 289.614125 
L 478.337838 289.331469 
L 482.108108 290.634065 
L 485.878378 291.497264 
L 489.648649 292.864912 
L 493.418919 292.211348 
L 497.189189 290.846411 
L 500.959459 290.220853 
L 504.72973 290.608309 
L 508.5 291.747129 
L 512.27027 291.557419 
L 516.040541 291.822315 
L 519.810811 291.090743 
L 527.351351 291.311086 
L 531.121622 290.192944 
L 534.891892 292.218757 
L 538.662162 293.246465 
L 542.432432 295.615512 
L 546.202703 295.481732 
L 549.972973 295.464174 
L 553.743243 296.298312 
L 557.513514 295.896477 
L 561.283784 296.143929 
L 565.054054 295.76853 
L 568.824324 296.307564 
L 576.364865 296.821543 
L 580.135135 297.453668 
L 583.905405 297.173312 
L 587.675676 297.340583 
L 591.445946 296.649543 
L 595.216216 296.686404 
L 598.986486 296.326117 
L 602.756757 296.193489 
L 606.527027 296.284901 
L 610.297297 295.912802 
L 614.067568 296.417273 
L 617.837838 295.786186 
L 621.608108 296.32135 
L 625.378378 296.489202 
L 629.148649 296.406238 
L 632.918919 296.147245 
L 636.689189 295.616866 
L 640.459459 296.561115 
L 648 297.216474 
L 648 297.216474 
" clip-path="url(#pbfd522c332)" style="fill: none; stroke-dasharray: 9.6,2.4,1.5,2.4; stroke-dashoffset: 0; stroke: #8c564b; stroke-width: 1.5"/>
   </g>
   <g id="patch_3">
    <path d="M 90 315 
L 90 43.2 
" style="fill: none; stroke: #000000; stroke-width: 0.8; stroke-linejoin: miter; stroke-linecap: square"/>
   </g>
   <g id="patch_4">
    <path d="M 648 315 
L 648 43.2 
" style="fill: none; stroke: #000000; stroke-width: 0.8; stroke-linejoin: miter; stroke-linecap: square"/>
   </g>
   <g id="patch_5">
    <path d="M 90 315 
L 648 315 
" style="fill: none; stroke: #000000; stroke-width: 0.8; stroke-linejoin: miter; stroke-linecap: square"/>
   </g>
   <g id="patch_6">
    <path d="M 90 43.2 
L 648 43.2 
" style="fill: none; stroke: #000000; stroke-width: 0.8; stroke-linejoin: miter; stroke-linecap: square"/>
   </g>
   <g id="text_13">
    <!-- Python version of NumPy users, all operating systems -->
    <g transform="translate(206.897813 37.2)scale(0.12 -0.12)">
     <defs>
      <path id="DejaVuSans-50" d="M 1259 4147 
L 1259 2394 
L 2053 2394 
Q 2494 2394 2734 2622 
Q 2975 2850 2975 3272 
Q 2975 3691 2734 3919 
Q 2494 4147 2053 4147 
L 1259 4147 
z
M 628 4666 
L 2053 4666 
Q 2838 4666 3239 4311 
Q 3641 3956 3641 3272 
Q 3641 2581 3239 2228 
Q 2838 1875 2053 1875 
L 1259 1875 
L 1259 0 
L 628 0 
L 628 4666 
z
" transform="scale(0.015625)"/>
      <path id="DejaVuSans-79" d="M 2059 -325 
Q 1816 -950 1584 -1140 
Q 1353 -1331 966 -1331 
L 506 -1331 
L 506 -850 
L 844 -850 
Q 1081 -850 1212 -737 
Q 1344 -625 1503 -206 
L 1606 56 
L 191 3500 
L 800 3500 
L 1894 763 
L 2988 3500 
L 3597 3500 
L 2059 -325 
z
" transform="scale(0.015625)"/>
      <path id="DejaVuSans-76" d="M 191 3500 
L 800 3500 
L 1894 563 
L 2988 3500 
L 3597 3500 
L 2284 0 
L 1503 0 
L 191 3500 
z
" transform="scale(0.015625)"/>
      <path id="DejaVuSans-2c" d="M 750 794 
L 1409 794 
L 1409 256 
L 897 -744 
L 494 -744 
L 750 256 
L 750 794 
z
" transform="scale(0.015625)"/>
      <path id="DejaVuSans-67" d="M 2906 1791 
Q 2906 2416 2648 2759 
Q 2391 3103 1925 3103 
Q 1463 3103 1205 2759 
Q 947 2416 947 1791 
Q 947 1169 1205 825 
Q 1463 481 1925 481 
Q 2391 481 2648 825 
Q 2906 1169 2906 1791 
z
M 3481 434 
Q 3481 -459 3084 -895 
Q 2688 -1331 1869 -1331 
Q 1566 -1331 1297 -1286 
Q 1028 -1241 775 -1147 
L 775 -588 
Q 1028 -725 1275 -790 
Q 1522 -856 1778 -856 
Q 2344 -856 2625 -561 
Q 2906 -266 2906 331 
L 2906 616 
Q 2728 306 2450 153 
Q 2172 0 1784 0 
Q 1141 0 747 490 
Q 353 981 353 1791 
Q 353 2603 747 3093 
Q 1141 3584 1784 3584 
Q 2172 3584 2450 3431 
Q 2728 3278 2906 2969 
L 2906 3500 
L 3481 3500 
L 3481 434 
z
" transform="scale(0.015625)"/>
     </defs>
     <use xlink:href="#DejaVuSans-50"/>
     <use xlink:href="#DejaVuSans-79" x="60.302734"/>
     <use xlink:href="#DejaVuSans-74" x="119.482422"/>
     <use xlink:href="#DejaVuSans-68" x="158.691406"/>
     <use xlink:href="#DejaVuSans-6f" x="222.070312"/>
     <use xlink:href="#DejaVuSans-6e" x="283.251953"/>
     <use xlink:href="#DejaVuSans-20" x="346.630859"/>
     <use xlink:href="#DejaVuSans-76" x="378.417969"/>
     <use xlink:href="#DejaVuSans-65" x="437.597656"/>
     <use xlink:href="#DejaVuSans-72" x="499.121094"/>
     <use xlink:href="#DejaVuSans-73" x="540.234375"/>
     <use xlink:href="#DejaVuSans-69" x="592.333984"/>
     <use xlink:href="#DejaVuSans-6f" x="620.117188"/>
     <use xlink:href="#DejaVuSans-6e" x="681.298828"/>
     <use xlink:href="#DejaVuSans-20" x="744.677734"/>
     <use xlink:href="#DejaVuSans-6f" x="776.464844"/>
     <use xlink:href="#DejaVuSans-66" x="837.646484"/>
     <use xlink:href="#DejaVuSans-20" x="872.851562"/>
     <use xlink:href="#DejaVuSans-4e" x="904.638672"/>
     <use xlink:href="#DejaVuSans-75" x="979.443359"/>
     <use xlink:href="#DejaVuSans-6d" x="1042.822266"/>
     <use xlink:href="#DejaVuSans-50" x="1140.234375"/>
     <use xlink:href="#DejaVuSans-79" x="1200.537109"/>
     <use xlink:href="#DejaVuSans-20" x="1259.716797"/>
     <use xlink:href="#DejaVuSans-75" x="1291.503906"/>
     <use xlink:href="#DejaVuSans-73" x="1354.882812"/>
     <use xlink:href="#DejaVuSans-65" x="1406.982422"/>
     <use xlink:href="#DejaVuSans-72" x="1468.505859"/>
     <use xlink:href="#DejaVuSans-73" x="1509.619141"/>
     <use xlink:href="#DejaVuSans-2c" x="1561.71875"/>
     <use xlink:href="#DejaVuSans-20" x="1593.505859"/>
     <use xlink:href="#DejaVuSans-61" x="1625.292969"/>
     <use xlink:href="#DejaVuSans-6c" x="1686.572266"/>
     <use xlink:href="#DejaVuSans-6c" x="1714.355469"/>
     <use xlink:href="#DejaVuSans-20" x="1742.138672"/>
     <use xlink:href="#DejaVuSans-6f" x="1773.925781"/>
     <use xlink:href="#DejaVuSans-70" x="1835.107422"/>
     <use xlink:href="#DejaVuSans-65" x="1898.583984"/>
     <use xlink:href="#DejaVuSans-72" x="1960.107422"/>
     <use xlink:href="#DejaVuSans-61" x="2001.220703"/>
     <use xlink:href="#DejaVuSans-74" x="2062.5"/>
     <use xlink:href="#DejaVuSans-69" x="2101.708984"/>
     <use xlink:href="#DejaVuSans-6e" x="2129.492188"/>
     <use xlink:href="#DejaVuSans-67" x="2192.871094"/>
     <use xlink:href="#DejaVuSans-20" x="2256.347656"/>
     <use xlink:href="#DejaVuSans-73" x="2288.134766"/>
     <use xlink:href="#DejaVuSans-79" x="2340.234375"/>
     <use xlink:href="#DejaVuSans-73" x="2399.414062"/>
     <use xlink:href="#DejaVuSans-74" x="2451.513672"/>
     <use xlink:href="#DejaVuSans-65" x="2490.722656"/>
     <use xlink:href="#DejaVuSans-6d" x="2552.246094"/>
     <use xlink:href="#DejaVuSans-73" x="2649.658203"/>
    </g>
   </g>
   <g id="legend_1">
    <g id="patch_7">
     <path d="M 97 139.26875 
L 189.421875 139.26875 
Q 191.421875 139.26875 191.421875 137.26875 
L 191.421875 50.2 
Q 191.421875 48.2 189.421875 48.2 
L 97 48.2 
Q 95 48.2 95 50.2 
L 95 137.26875 
Q 95 139.26875 97 139.26875 
z
" style="fill: #ffffff; opacity: 0.8; stroke: #cccccc; stroke-linejoin: miter"/>
    </g>
    <g id="line2d_31">
     <path d="M 99 56.298437 
L 109 56.298437 
L 119 56.298437 
" style="fill: none; stroke: #1f77b4; stroke-width: 1.5; stroke-linecap: square"/>
    </g>
    <g id="text_14">
     <!-- 3.9 -->
     <g transform="translate(127 59.798437)scale(0.1 -0.1)">
      <defs>
       <path id="DejaVuSans-2e" d="M 684 794 
L 1344 794 
L 1344 0 
L 684 0 
L 684 794 
z
" transform="scale(0.015625)"/>
      </defs>
      <use xlink:href="#DejaVuSans-33"/>
      <use xlink:href="#DejaVuSans-2e" x="63.623047"/>
      <use xlink:href="#DejaVuSans-39" x="95.410156"/>
     </g>
    </g>
    <g id="line2d_32">
     <path d="M 99 70.976562 
L 109 70.976562 
L 119 70.976562 
" style="fill: none; stroke-dasharray: 1.5,2.475; stroke-dashoffset: 0; stroke: #ff7f0e; stroke-width: 1.5"/>
    </g>
    <g id="text_15">
     <!-- 3.8 -->
     <g transform="translate(127 74.476562)scale(0.1 -0.1)">
      <defs>
       <path id="DejaVuSans-38" d="M 2034 2216 
Q 1584 2216 1326 1975 
Q 1069 1734 1069 1313 
Q 1069 891 1326 650 
Q 1584 409 2034 409 
Q 2484 409 2743 651 
Q 3003 894 3003 1313 
Q 3003 1734 2745 1975 
Q 2488 2216 2034 2216 
z
M 1403 2484 
Q 997 2584 770 2862 
Q 544 3141 544 3541 
Q 544 4100 942 4425 
Q 1341 4750 2034 4750 
Q 2731 4750 3128 4425 
Q 3525 4100 3525 3541 
Q 3525 3141 3298 2862 
Q 3072 2584 2669 2484 
Q 3125 2378 3379 2068 
Q 3634 1759 3634 1313 
Q 3634 634 3220 271 
Q 2806 -91 2034 -91 
Q 1263 -91 848 271 
Q 434 634 434 1313 
Q 434 1759 690 2068 
Q 947 2378 1403 2484 
z
M 1172 3481 
Q 1172 3119 1398 2916 
Q 1625 2713 2034 2713 
Q 2441 2713 2670 2916 
Q 2900 3119 2900 3481 
Q 2900 3844 2670 4047 
Q 2441 4250 2034 4250 
Q 1625 4250 1398 4047 
Q 1172 3844 1172 3481 
z
" transform="scale(0.015625)"/>
      </defs>
      <use xlink:href="#DejaVuSans-33"/>
      <use xlink:href="#DejaVuSans-2e" x="63.623047"/>
      <use xlink:href="#DejaVuSans-38" x="95.410156"/>
     </g>
    </g>
    <g id="line2d_33">
     <path d="M 99 85.654687 
L 109 85.654687 
L 119 85.654687 
" style="fill: none; stroke-dasharray: 5.55,2.4; stroke-dashoffset: 0; stroke: #2ca02c; stroke-width: 1.5"/>
    </g>
    <g id="text_16">
     <!-- 3.7 -->
     <g transform="translate(127 89.154687)scale(0.1 -0.1)">
      <use xlink:href="#DejaVuSans-33"/>
      <use xlink:href="#DejaVuSans-2e" x="63.623047"/>
      <use xlink:href="#DejaVuSans-37" x="95.410156"/>
     </g>
    </g>
    <g id="line2d_34">
     <path d="M 99 100.332812 
L 109 100.332812 
L 119 100.332812 
" style="fill: none; stroke: #d62728; stroke-width: 1.5; stroke-linecap: square"/>
    </g>
    <g id="text_17">
     <!-- 3.6 -->
     <g transform="translate(127 103.832812)scale(0.1 -0.1)">
      <defs>
       <path id="DejaVuSans-36" d="M 2113 2584 
Q 1688 2584 1439 2293 
Q 1191 2003 1191 1497 
Q 1191 994 1439 701 
Q 1688 409 2113 409 
Q 2538 409 2786 701 
Q 3034 994 3034 1497 
Q 3034 2003 2786 2293 
Q 2538 2584 2113 2584 
z
M 3366 4563 
L 3366 3988 
Q 3128 4100 2886 4159 
Q 2644 4219 2406 4219 
Q 1781 4219 1451 3797 
Q 1122 3375 1075 2522 
Q 1259 2794 1537 2939 
Q 1816 3084 2150 3084 
Q 2853 3084 3261 2657 
Q 3669 2231 3669 1497 
Q 3669 778 3244 343 
Q 2819 -91 2113 -91 
Q 1303 -91 875 529 
Q 447 1150 447 2328 
Q 447 3434 972 4092 
Q 1497 4750 2381 4750 
Q 2619 4750 2861 4703 
Q 3103 4656 3366 4563 
z
" transform="scale(0.015625)"/>
      </defs>
      <use xlink:href="#DejaVuSans-33"/>
      <use xlink:href="#DejaVuSans-2e" x="63.623047"/>
      <use xlink:href="#DejaVuSans-36" x="95.410156"/>
     </g>
    </g>
    <g id="line2d_35">
     <path d="M 99 115.010937 
L 109 115.010937 
L 119 115.010937 
" style="fill: none; stroke-dasharray: 5.55,2.4; stroke-dashoffset: 0; stroke: #9467bd; stroke-width: 1.5"/>
    </g>
    <g id="text_18">
     <!-- 3.3, 3.4, 3.5 -->
     <g transform="translate(127 118.510937)scale(0.1 -0.1)">
      <use xlink:href="#DejaVuSans-33"/>
      <use xlink:href="#DejaVuSans-2e" x="63.623047"/>
      <use xlink:href="#DejaVuSans-33" x="95.410156"/>
      <use xlink:href="#DejaVuSans-2c" x="159.033203"/>
      <use xlink:href="#DejaVuSans-20" x="190.820312"/>
      <use xlink:href="#DejaVuSans-33" x="222.607422"/>
      <use xlink:href="#DejaVuSans-2e" x="286.230469"/>
      <use xlink:href="#DejaVuSans-34" x="318.017578"/>
      <use xlink:href="#DejaVuSans-2c" x="381.640625"/>
      <use xlink:href="#DejaVuSans-20" x="413.427734"/>
      <use xlink:href="#DejaVuSans-33" x="445.214844"/>
      <use xlink:href="#DejaVuSans-2e" x="508.837891"/>
      <use xlink:href="#DejaVuSans-35" x="540.625"/>
     </g>
    </g>
    <g id="line2d_36">
     <path d="M 99 129.689062 
L 109 129.689062 
L 119 129.689062 
" style="fill: none; stroke-dasharray: 9.6,2.4,1.5,2.4; stroke-dashoffset: 0; stroke: #8c564b; stroke-width: 1.5"/>
    </g>
    <g id="text_19">
     <!-- 2.7 -->
     <g transform="translate(127 133.189062)scale(0.1 -0.1)">
      <use xlink:href="#DejaVuSans-32"/>
      <use xlink:href="#DejaVuSans-2e" x="63.623047"/>
      <use xlink:href="#DejaVuSans-37" x="95.410156"/>
     </g>
    </g>
   </g>
  </g>
 </g>
 <defs>
  <clipPath id="pbfd522c332">
   <rect x="90" y="43.2" width="558" height="271.8"/>
  </clipPath>
 </defs>
</svg>
