<?xml version="1.0" encoding="utf-8" standalone="no"?>
<!DOCTYPE svg PUBLIC "-//W3C//DTD SVG 1.1//EN"
  "http://www.w3.org/Graphics/SVG/1.1/DTD/svg11.dtd">
<svg xmlns:xlink="http://www.w3.org/1999/xlink" width="720pt" height="360pt" viewBox="0 0 720 360" xmlns="http://www.w3.org/2000/svg" version="1.1">
 <metadata>
  <rdf:RDF xmlns:dc="http://purl.org/dc/elements/1.1/" xmlns:cc="http://creativecommons.org/ns#" xmlns:rdf="http://www.w3.org/1999/02/22-rdf-syntax-ns#">
   <cc:Work>
    <dc:type rdf:resource="http://purl.org/dc/dcmitype/StillImage"/>
    <dc:date>2022-07-17T13:25:45.432482</dc:date>
    <dc:format>image/svg+xml</dc:format>
    <dc:creator>
     <cc:Agent>
      <dc:title>Matplotlib v3.5.2, https://matplotlib.org/</dc:title>
     </cc:Agent>
    </dc:creator>
   </cc:Work>
  </rdf:RDF>
 </metadata>
 <defs>
  <style type="text/css">*{stroke-linejoin: round; stroke-linecap: butt}</style>
 </defs>
 <g id="figure_1">
  <g id="patch_1">
   <path d="M 0 360 
L 720 360 
L 720 0 
L 0 0 
L 0 360 
z
" style="fill: none"/>
  </g>
  <g id="axes_1">
   <g id="patch_2">
    <path d="M 90 315 
L 648 315 
L 648 43.2 
L 90 43.2 
z
" style="fill: #ffffff"/>
   </g>
   <g id="matplotlib.axis_1">
    <g id="xtick_1">
     <g id="line2d_1">
      <defs>
       <path id="mb8861fb51d" d="M 0 0 
L 0 3.5 
" style="stroke: #000000; stroke-width: 0.8"/>
      </defs>
      <g>
       <use xlink:href="#mb8861fb51d" x="90" y="315" style="stroke: #000000; stroke-width: 0.8"/>
      </g>
     </g>
    </g>
    <g id="xtick_2">
     <g id="line2d_2">
      <g>
       <use xlink:href="#mb8861fb51d" x="206.544304" y="315" style="stroke: #000000; stroke-width: 0.8"/>
      </g>
     </g>
     <g id="text_1">
      <!-- 2019 -->
      <g transform="translate(193.819304 329.598437)scale(0.1 -0.1)">
       <defs>
        <path id="DejaVuSans-32" d="M 1228 531 
L 3431 531 
L 3431 0 
L 469 0 
L 469 531 
Q 828 903 1448 1529 
Q 2069 2156 2228 2338 
Q 2531 2678 2651 2914 
Q 2772 3150 2772 3378 
Q 2772 3750 2511 3984 
Q 2250 4219 1831 4219 
Q 1534 4219 1204 4116 
Q 875 4013 500 3803 
L 500 4441 
Q 881 4594 1212 4672 
Q 1544 4750 1819 4750 
Q 2544 4750 2975 4387 
Q 3406 4025 3406 3419 
Q 3406 3131 3298 2873 
Q 3191 2616 2906 2266 
Q 2828 2175 2409 1742 
Q 1991 1309 1228 531 
z
" transform="scale(0.015625)"/>
        <path id="DejaVuSans-30" d="M 2034 4250 
Q 1547 4250 1301 3770 
Q 1056 3291 1056 2328 
Q 1056 1369 1301 889 
Q 1547 409 2034 409 
Q 2525 409 2770 889 
Q 3016 1369 3016 2328 
Q 3016 3291 2770 3770 
Q 2525 4250 2034 4250 
z
M 2034 4750 
Q 2819 4750 3233 4129 
Q 3647 3509 3647 2328 
Q 3647 1150 3233 529 
Q 2819 -91 2034 -91 
Q 1250 -91 836 529 
Q 422 1150 422 2328 
Q 422 3509 836 4129 
Q 1250 4750 2034 4750 
z
" transform="scale(0.015625)"/>
        <path id="DejaVuSans-31" d="M 794 531 
L 1825 531 
L 1825 4091 
L 703 3866 
L 703 4441 
L 1819 4666 
L 2450 4666 
L 2450 531 
L 3481 531 
L 3481 0 
L 794 0 
L 794 531 
z
" transform="scale(0.015625)"/>
        <path id="DejaVuSans-39" d="M 703 97 
L 703 672 
Q 941 559 1184 500 
Q 1428 441 1663 441 
Q 2288 441 2617 861 
Q 2947 1281 2994 2138 
Q 2813 1869 2534 1725 
Q 2256 1581 1919 1581 
Q 1219 1581 811 2004 
Q 403 2428 403 3163 
Q 403 3881 828 4315 
Q 1253 4750 1959 4750 
Q 2769 4750 3195 4129 
Q 3622 3509 3622 2328 
Q 3622 1225 3098 567 
Q 2575 -91 1691 -91 
Q 1453 -91 1209 -44 
Q 966 3 703 97 
z
M 1959 2075 
Q 2384 2075 2632 2365 
Q 2881 2656 2881 3163 
Q 2881 3666 2632 3958 
Q 2384 4250 1959 4250 
Q 1534 4250 1286 3958 
Q 1038 3666 1038 3163 
Q 1038 2656 1286 2365 
Q 1534 2075 1959 2075 
z
" transform="scale(0.015625)"/>
       </defs>
       <use xlink:href="#DejaVuSans-32"/>
       <use xlink:href="#DejaVuSans-30" x="63.623047"/>
       <use xlink:href="#DejaVuSans-31" x="127.246094"/>
       <use xlink:href="#DejaVuSans-39" x="190.869141"/>
      </g>
     </g>
    </g>
    <g id="xtick_3">
     <g id="line2d_3">
      <g>
       <use xlink:href="#mb8861fb51d" x="335.449367" y="315" style="stroke: #000000; stroke-width: 0.8"/>
      </g>
     </g>
     <g id="text_2">
      <!-- 2020 -->
      <g transform="translate(322.724367 329.598437)scale(0.1 -0.1)">
       <use xlink:href="#DejaVuSans-32"/>
       <use xlink:href="#DejaVuSans-30" x="63.623047"/>
       <use xlink:href="#DejaVuSans-32" x="127.246094"/>
       <use xlink:href="#DejaVuSans-30" x="190.869141"/>
      </g>
     </g>
    </g>
    <g id="xtick_4">
     <g id="line2d_4">
      <g>
       <use xlink:href="#mb8861fb51d" x="464.707595" y="315" style="stroke: #000000; stroke-width: 0.8"/>
      </g>
     </g>
     <g id="text_3">
      <!-- 2021 -->
      <g transform="translate(451.982595 329.598437)scale(0.1 -0.1)">
       <use xlink:href="#DejaVuSans-32"/>
       <use xlink:href="#DejaVuSans-30" x="63.623047"/>
       <use xlink:href="#DejaVuSans-32" x="127.246094"/>
       <use xlink:href="#DejaVuSans-31" x="190.869141"/>
      </g>
     </g>
    </g>
    <g id="xtick_5">
     <g id="line2d_5">
      <g>
       <use xlink:href="#mb8861fb51d" x="593.612658" y="315" style="stroke: #000000; stroke-width: 0.8"/>
      </g>
     </g>
     <g id="text_4">
      <!-- 2022 -->
      <g transform="translate(580.887658 329.598437)scale(0.1 -0.1)">
       <use xlink:href="#DejaVuSans-32"/>
       <use xlink:href="#DejaVuSans-30" x="63.623047"/>
       <use xlink:href="#DejaVuSans-32" x="127.246094"/>
       <use xlink:href="#DejaVuSans-32" x="190.869141"/>
      </g>
     </g>
    </g>
    <g id="xtick_6">
     <g id="line2d_6">
      <g>
       <use xlink:href="#mb8861fb51d" x="648" y="315" style="stroke: #000000; stroke-width: 0.8"/>
      </g>
     </g>
    </g>
    <g id="xtick_7">
     <g id="line2d_7">
      <defs>
       <path id="md0fbbbb4e0" d="M 0 0 
L 0 2 
" style="stroke: #000000; stroke-width: 0.6"/>
      </defs>
      <g>
       <use xlink:href="#md0fbbbb4e0" x="109.424051" y="315" style="stroke: #000000; stroke-width: 0.6"/>
      </g>
     </g>
    </g>
    <g id="xtick_8">
     <g id="line2d_8">
      <g>
       <use xlink:href="#md0fbbbb4e0" x="141.562025" y="315" style="stroke: #000000; stroke-width: 0.6"/>
      </g>
     </g>
    </g>
    <g id="xtick_9">
     <g id="line2d_9">
      <g>
       <use xlink:href="#md0fbbbb4e0" x="174.053165" y="315" style="stroke: #000000; stroke-width: 0.6"/>
      </g>
     </g>
    </g>
    <g id="xtick_10">
     <g id="line2d_10">
      <g>
       <use xlink:href="#md0fbbbb4e0" x="238.329114" y="315" style="stroke: #000000; stroke-width: 0.6"/>
      </g>
     </g>
    </g>
    <g id="xtick_11">
     <g id="line2d_11">
      <g>
       <use xlink:href="#md0fbbbb4e0" x="270.467089" y="315" style="stroke: #000000; stroke-width: 0.6"/>
      </g>
     </g>
    </g>
    <g id="xtick_12">
     <g id="line2d_12">
      <g>
       <use xlink:href="#md0fbbbb4e0" x="302.958228" y="315" style="stroke: #000000; stroke-width: 0.6"/>
      </g>
     </g>
    </g>
    <g id="xtick_13">
     <g id="line2d_13">
      <g>
       <use xlink:href="#md0fbbbb4e0" x="367.587342" y="315" style="stroke: #000000; stroke-width: 0.6"/>
      </g>
     </g>
    </g>
    <g id="xtick_14">
     <g id="line2d_14">
      <g>
       <use xlink:href="#md0fbbbb4e0" x="399.725316" y="315" style="stroke: #000000; stroke-width: 0.6"/>
      </g>
     </g>
    </g>
    <g id="xtick_15">
     <g id="line2d_15">
      <g>
       <use xlink:href="#md0fbbbb4e0" x="432.216456" y="315" style="stroke: #000000; stroke-width: 0.6"/>
      </g>
     </g>
    </g>
    <g id="xtick_16">
     <g id="line2d_16">
      <g>
       <use xlink:href="#md0fbbbb4e0" x="496.492405" y="315" style="stroke: #000000; stroke-width: 0.6"/>
      </g>
     </g>
    </g>
    <g id="xtick_17">
     <g id="line2d_17">
      <g>
       <use xlink:href="#md0fbbbb4e0" x="528.63038" y="315" style="stroke: #000000; stroke-width: 0.6"/>
      </g>
     </g>
    </g>
    <g id="xtick_18">
     <g id="line2d_18">
      <g>
       <use xlink:href="#md0fbbbb4e0" x="561.121519" y="315" style="stroke: #000000; stroke-width: 0.6"/>
      </g>
     </g>
    </g>
    <g id="xtick_19">
     <g id="line2d_19">
      <g>
       <use xlink:href="#md0fbbbb4e0" x="625.397468" y="315" style="stroke: #000000; stroke-width: 0.6"/>
      </g>
     </g>
    </g>
   </g>
   <g id="matplotlib.axis_2">
    <g id="ytick_1">
     <g id="line2d_20">
      <defs>
       <path id="m480910cd9d" d="M 0 0 
L -3.5 0 
" style="stroke: #000000; stroke-width: 0.8"/>
      </defs>
      <g>
       <use xlink:href="#m480910cd9d" x="90" y="292.285233" style="stroke: #000000; stroke-width: 0.8"/>
      </g>
     </g>
     <g id="text_5">
      <!-- $\mathdefault{10^{5}}$ -->
      <g transform="translate(65.4 296.084452)scale(0.1 -0.1)">
       <defs>
        <path id="DejaVuSans-35" d="M 691 4666 
L 3169 4666 
L 3169 4134 
L 1269 4134 
L 1269 2991 
Q 1406 3038 1543 3061 
Q 1681 3084 1819 3084 
Q 2600 3084 3056 2656 
Q 3513 2228 3513 1497 
Q 3513 744 3044 326 
Q 2575 -91 1722 -91 
Q 1428 -91 1123 -41 
Q 819 9 494 109 
L 494 744 
Q 775 591 1075 516 
Q 1375 441 1709 441 
Q 2250 441 2565 725 
Q 2881 1009 2881 1497 
Q 2881 1984 2565 2268 
Q 2250 2553 1709 2553 
Q 1456 2553 1204 2497 
Q 953 2441 691 2322 
L 691 4666 
z
" transform="scale(0.015625)"/>
       </defs>
       <use xlink:href="#DejaVuSans-31" transform="translate(0 0.684375)"/>
       <use xlink:href="#DejaVuSans-30" transform="translate(63.623047 0.684375)"/>
       <use xlink:href="#DejaVuSans-35" transform="translate(128.203125 38.965625)scale(0.7)"/>
      </g>
     </g>
    </g>
    <g id="ytick_2">
     <g id="line2d_21">
      <g>
       <use xlink:href="#m480910cd9d" x="90" y="216.828411" style="stroke: #000000; stroke-width: 0.8"/>
      </g>
     </g>
     <g id="text_6">
      <!-- $\mathdefault{10^{6}}$ -->
      <g transform="translate(65.4 220.62763)scale(0.1 -0.1)">
       <defs>
        <path id="DejaVuSans-36" d="M 2113 2584 
Q 1688 2584 1439 2293 
Q 1191 2003 1191 1497 
Q 1191 994 1439 701 
Q 1688 409 2113 409 
Q 2538 409 2786 701 
Q 3034 994 3034 1497 
Q 3034 2003 2786 2293 
Q 2538 2584 2113 2584 
z
M 3366 4563 
L 3366 3988 
Q 3128 4100 2886 4159 
Q 2644 4219 2406 4219 
Q 1781 4219 1451 3797 
Q 1122 3375 1075 2522 
Q 1259 2794 1537 2939 
Q 1816 3084 2150 3084 
Q 2853 3084 3261 2657 
Q 3669 2231 3669 1497 
Q 3669 778 3244 343 
Q 2819 -91 2113 -91 
Q 1303 -91 875 529 
Q 447 1150 447 2328 
Q 447 3434 972 4092 
Q 1497 4750 2381 4750 
Q 2619 4750 2861 4703 
Q 3103 4656 3366 4563 
z
" transform="scale(0.015625)"/>
       </defs>
       <use xlink:href="#DejaVuSans-31" transform="translate(0 0.765625)"/>
       <use xlink:href="#DejaVuSans-30" transform="translate(63.623047 0.765625)"/>
       <use xlink:href="#DejaVuSans-36" transform="translate(128.203125 39.046875)scale(0.7)"/>
      </g>
     </g>
    </g>
    <g id="ytick_3">
     <g id="line2d_22">
      <g>
       <use xlink:href="#m480910cd9d" x="90" y="141.371589" style="stroke: #000000; stroke-width: 0.8"/>
      </g>
     </g>
     <g id="text_7">
      <!-- $\mathdefault{10^{7}}$ -->
      <g transform="translate(65.4 145.170808)scale(0.1 -0.1)">
       <defs>
        <path id="DejaVuSans-37" d="M 525 4666 
L 3525 4666 
L 3525 4397 
L 1831 0 
L 1172 0 
L 2766 4134 
L 525 4134 
L 525 4666 
z
" transform="scale(0.015625)"/>
       </defs>
       <use xlink:href="#DejaVuSans-31" transform="translate(0 0.684375)"/>
       <use xlink:href="#DejaVuSans-30" transform="translate(63.623047 0.684375)"/>
       <use xlink:href="#DejaVuSans-37" transform="translate(128.203125 38.965625)scale(0.7)"/>
      </g>
     </g>
    </g>
    <g id="ytick_4">
     <g id="line2d_23">
      <g>
       <use xlink:href="#m480910cd9d" x="90" y="65.914767" style="stroke: #000000; stroke-width: 0.8"/>
      </g>
     </g>
     <g id="text_8">
      <!-- $\mathdefault{10^{8}}$ -->
      <g transform="translate(65.4 69.713986)scale(0.1 -0.1)">
       <defs>
        <path id="DejaVuSans-38" d="M 2034 2216 
Q 1584 2216 1326 1975 
Q 1069 1734 1069 1313 
Q 1069 891 1326 650 
Q 1584 409 2034 409 
Q 2484 409 2743 651 
Q 3003 894 3003 1313 
Q 3003 1734 2745 1975 
Q 2488 2216 2034 2216 
z
M 1403 2484 
Q 997 2584 770 2862 
Q 544 3141 544 3541 
Q 544 4100 942 4425 
Q 1341 4750 2034 4750 
Q 2731 4750 3128 4425 
Q 3525 4100 3525 3541 
Q 3525 3141 3298 2862 
Q 3072 2584 2669 2484 
Q 3125 2378 3379 2068 
Q 3634 1759 3634 1313 
Q 3634 634 3220 271 
Q 2806 -91 2034 -91 
Q 1263 -91 848 271 
Q 434 634 434 1313 
Q 434 1759 690 2068 
Q 947 2378 1403 2484 
z
M 1172 3481 
Q 1172 3119 1398 2916 
Q 1625 2713 2034 2713 
Q 2441 2713 2670 2916 
Q 2900 3119 2900 3481 
Q 2900 3844 2670 4047 
Q 2441 4250 2034 4250 
Q 1625 4250 1398 4047 
Q 1172 3844 1172 3481 
z
" transform="scale(0.015625)"/>
       </defs>
       <use xlink:href="#DejaVuSans-31" transform="translate(0 0.765625)"/>
       <use xlink:href="#DejaVuSans-30" transform="translate(63.623047 0.765625)"/>
       <use xlink:href="#DejaVuSans-38" transform="translate(128.203125 39.046875)scale(0.7)"/>
      </g>
     </g>
    </g>
    <g id="ytick_5">
     <g id="line2d_24">
      <defs>
       <path id="maaa4183e21" d="M 0 0 
L -2 0 
" style="stroke: #000000; stroke-width: 0.6"/>
      </defs>
      <g>
       <use xlink:href="#maaa4183e21" x="90" y="315" style="stroke: #000000; stroke-width: 0.6"/>
      </g>
     </g>
    </g>
    <g id="ytick_6">
     <g id="line2d_25">
      <g>
       <use xlink:href="#maaa4183e21" x="90" y="309.025235" style="stroke: #000000; stroke-width: 0.6"/>
      </g>
     </g>
    </g>
    <g id="ytick_7">
     <g id="line2d_26">
      <g>
       <use xlink:href="#maaa4183e21" x="90" y="303.973643" style="stroke: #000000; stroke-width: 0.6"/>
      </g>
     </g>
    </g>
    <g id="ytick_8">
     <g id="line2d_27">
      <g>
       <use xlink:href="#maaa4183e21" x="90" y="299.597755" style="stroke: #000000; stroke-width: 0.6"/>
      </g>
     </g>
    </g>
    <g id="ytick_9">
     <g id="line2d_28">
      <g>
       <use xlink:href="#maaa4183e21" x="90" y="295.737948" style="stroke: #000000; stroke-width: 0.6"/>
      </g>
     </g>
    </g>
    <g id="ytick_10">
     <g id="line2d_29">
      <g>
       <use xlink:href="#maaa4183e21" x="90" y="269.570466" style="stroke: #000000; stroke-width: 0.6"/>
      </g>
     </g>
    </g>
    <g id="ytick_11">
     <g id="line2d_30">
      <g>
       <use xlink:href="#maaa4183e21" x="90" y="256.28318" style="stroke: #000000; stroke-width: 0.6"/>
      </g>
     </g>
    </g>
    <g id="ytick_12">
     <g id="line2d_31">
      <g>
       <use xlink:href="#maaa4183e21" x="90" y="246.8557" style="stroke: #000000; stroke-width: 0.6"/>
      </g>
     </g>
    </g>
    <g id="ytick_13">
     <g id="line2d_32">
      <g>
       <use xlink:href="#maaa4183e21" x="90" y="239.543178" style="stroke: #000000; stroke-width: 0.6"/>
      </g>
     </g>
    </g>
    <g id="ytick_14">
     <g id="line2d_33">
      <g>
       <use xlink:href="#maaa4183e21" x="90" y="233.568413" style="stroke: #000000; stroke-width: 0.6"/>
      </g>
     </g>
    </g>
    <g id="ytick_15">
     <g id="line2d_34">
      <g>
       <use xlink:href="#maaa4183e21" x="90" y="228.516821" style="stroke: #000000; stroke-width: 0.6"/>
      </g>
     </g>
    </g>
    <g id="ytick_16">
     <g id="line2d_35">
      <g>
       <use xlink:href="#maaa4183e21" x="90" y="224.140933" style="stroke: #000000; stroke-width: 0.6"/>
      </g>
     </g>
    </g>
    <g id="ytick_17">
     <g id="line2d_36">
      <g>
       <use xlink:href="#maaa4183e21" x="90" y="220.281126" style="stroke: #000000; stroke-width: 0.6"/>
      </g>
     </g>
    </g>
    <g id="ytick_18">
     <g id="line2d_37">
      <g>
       <use xlink:href="#maaa4183e21" x="90" y="194.113644" style="stroke: #000000; stroke-width: 0.6"/>
      </g>
     </g>
    </g>
    <g id="ytick_19">
     <g id="line2d_38">
      <g>
       <use xlink:href="#maaa4183e21" x="90" y="180.826357" style="stroke: #000000; stroke-width: 0.6"/>
      </g>
     </g>
    </g>
    <g id="ytick_20">
     <g id="line2d_39">
      <g>
       <use xlink:href="#maaa4183e21" x="90" y="171.398877" style="stroke: #000000; stroke-width: 0.6"/>
      </g>
     </g>
    </g>
    <g id="ytick_21">
     <g id="line2d_40">
      <g>
       <use xlink:href="#maaa4183e21" x="90" y="164.086356" style="stroke: #000000; stroke-width: 0.6"/>
      </g>
     </g>
    </g>
    <g id="ytick_22">
     <g id="line2d_41">
      <g>
       <use xlink:href="#maaa4183e21" x="90" y="158.111591" style="stroke: #000000; stroke-width: 0.6"/>
      </g>
     </g>
    </g>
    <g id="ytick_23">
     <g id="line2d_42">
      <g>
       <use xlink:href="#maaa4183e21" x="90" y="153.059999" style="stroke: #000000; stroke-width: 0.6"/>
      </g>
     </g>
    </g>
    <g id="ytick_24">
     <g id="line2d_43">
      <g>
       <use xlink:href="#maaa4183e21" x="90" y="148.684111" style="stroke: #000000; stroke-width: 0.6"/>
      </g>
     </g>
    </g>
    <g id="ytick_25">
     <g id="line2d_44">
      <g>
       <use xlink:href="#maaa4183e21" x="90" y="144.824304" style="stroke: #000000; stroke-width: 0.6"/>
      </g>
     </g>
    </g>
    <g id="ytick_26">
     <g id="line2d_45">
      <g>
       <use xlink:href="#maaa4183e21" x="90" y="118.656822" style="stroke: #000000; stroke-width: 0.6"/>
      </g>
     </g>
    </g>
    <g id="ytick_27">
     <g id="line2d_46">
      <g>
       <use xlink:href="#maaa4183e21" x="90" y="105.369535" style="stroke: #000000; stroke-width: 0.6"/>
      </g>
     </g>
    </g>
    <g id="ytick_28">
     <g id="line2d_47">
      <g>
       <use xlink:href="#maaa4183e21" x="90" y="95.942055" style="stroke: #000000; stroke-width: 0.6"/>
      </g>
     </g>
    </g>
    <g id="ytick_29">
     <g id="line2d_48">
      <g>
       <use xlink:href="#maaa4183e21" x="90" y="88.629534" style="stroke: #000000; stroke-width: 0.6"/>
      </g>
     </g>
    </g>
    <g id="ytick_30">
     <g id="line2d_49">
      <g>
       <use xlink:href="#maaa4183e21" x="90" y="82.654768" style="stroke: #000000; stroke-width: 0.6"/>
      </g>
     </g>
    </g>
    <g id="ytick_31">
     <g id="line2d_50">
      <g>
       <use xlink:href="#maaa4183e21" x="90" y="77.603176" style="stroke: #000000; stroke-width: 0.6"/>
      </g>
     </g>
    </g>
    <g id="ytick_32">
     <g id="line2d_51">
      <g>
       <use xlink:href="#maaa4183e21" x="90" y="73.227288" style="stroke: #000000; stroke-width: 0.6"/>
      </g>
     </g>
    </g>
    <g id="ytick_33">
     <g id="line2d_52">
      <g>
       <use xlink:href="#maaa4183e21" x="90" y="69.367482" style="stroke: #000000; stroke-width: 0.6"/>
      </g>
     </g>
    </g>
    <g id="ytick_34">
     <g id="line2d_53">
      <g>
       <use xlink:href="#maaa4183e21" x="90" y="43.2" style="stroke: #000000; stroke-width: 0.6"/>
      </g>
     </g>
    </g>
    <g id="text_9">
     <!-- Number of pip-installs per month -->
     <g transform="translate(59.320312 262.00625)rotate(-90)scale(0.1 -0.1)">
      <defs>
       <path id="DejaVuSans-4e" d="M 628 4666 
L 1478 4666 
L 3547 763 
L 3547 4666 
L 4159 4666 
L 4159 0 
L 3309 0 
L 1241 3903 
L 1241 0 
L 628 0 
L 628 4666 
z
" transform="scale(0.015625)"/>
       <path id="DejaVuSans-75" d="M 544 1381 
L 544 3500 
L 1119 3500 
L 1119 1403 
Q 1119 906 1312 657 
Q 1506 409 1894 409 
Q 2359 409 2629 706 
Q 2900 1003 2900 1516 
L 2900 3500 
L 3475 3500 
L 3475 0 
L 2900 0 
L 2900 538 
Q 2691 219 2414 64 
Q 2138 -91 1772 -91 
Q 1169 -91 856 284 
Q 544 659 544 1381 
z
M 1991 3584 
L 1991 3584 
z
" transform="scale(0.015625)"/>
       <path id="DejaVuSans-6d" d="M 3328 2828 
Q 3544 3216 3844 3400 
Q 4144 3584 4550 3584 
Q 5097 3584 5394 3201 
Q 5691 2819 5691 2113 
L 5691 0 
L 5113 0 
L 5113 2094 
Q 5113 2597 4934 2840 
Q 4756 3084 4391 3084 
Q 3944 3084 3684 2787 
Q 3425 2491 3425 1978 
L 3425 0 
L 2847 0 
L 2847 2094 
Q 2847 2600 2669 2842 
Q 2491 3084 2119 3084 
Q 1678 3084 1418 2786 
Q 1159 2488 1159 1978 
L 1159 0 
L 581 0 
L 581 3500 
L 1159 3500 
L 1159 2956 
Q 1356 3278 1631 3431 
Q 1906 3584 2284 3584 
Q 2666 3584 2933 3390 
Q 3200 3197 3328 2828 
z
" transform="scale(0.015625)"/>
       <path id="DejaVuSans-62" d="M 3116 1747 
Q 3116 2381 2855 2742 
Q 2594 3103 2138 3103 
Q 1681 3103 1420 2742 
Q 1159 2381 1159 1747 
Q 1159 1113 1420 752 
Q 1681 391 2138 391 
Q 2594 391 2855 752 
Q 3116 1113 3116 1747 
z
M 1159 2969 
Q 1341 3281 1617 3432 
Q 1894 3584 2278 3584 
Q 2916 3584 3314 3078 
Q 3713 2572 3713 1747 
Q 3713 922 3314 415 
Q 2916 -91 2278 -91 
Q 1894 -91 1617 61 
Q 1341 213 1159 525 
L 1159 0 
L 581 0 
L 581 4863 
L 1159 4863 
L 1159 2969 
z
" transform="scale(0.015625)"/>
       <path id="DejaVuSans-65" d="M 3597 1894 
L 3597 1613 
L 953 1613 
Q 991 1019 1311 708 
Q 1631 397 2203 397 
Q 2534 397 2845 478 
Q 3156 559 3463 722 
L 3463 178 
Q 3153 47 2828 -22 
Q 2503 -91 2169 -91 
Q 1331 -91 842 396 
Q 353 884 353 1716 
Q 353 2575 817 3079 
Q 1281 3584 2069 3584 
Q 2775 3584 3186 3129 
Q 3597 2675 3597 1894 
z
M 3022 2063 
Q 3016 2534 2758 2815 
Q 2500 3097 2075 3097 
Q 1594 3097 1305 2825 
Q 1016 2553 972 2059 
L 3022 2063 
z
" transform="scale(0.015625)"/>
       <path id="DejaVuSans-72" d="M 2631 2963 
Q 2534 3019 2420 3045 
Q 2306 3072 2169 3072 
Q 1681 3072 1420 2755 
Q 1159 2438 1159 1844 
L 1159 0 
L 581 0 
L 581 3500 
L 1159 3500 
L 1159 2956 
Q 1341 3275 1631 3429 
Q 1922 3584 2338 3584 
Q 2397 3584 2469 3576 
Q 2541 3569 2628 3553 
L 2631 2963 
z
" transform="scale(0.015625)"/>
       <path id="DejaVuSans-20" transform="scale(0.015625)"/>
       <path id="DejaVuSans-6f" d="M 1959 3097 
Q 1497 3097 1228 2736 
Q 959 2375 959 1747 
Q 959 1119 1226 758 
Q 1494 397 1959 397 
Q 2419 397 2687 759 
Q 2956 1122 2956 1747 
Q 2956 2369 2687 2733 
Q 2419 3097 1959 3097 
z
M 1959 3584 
Q 2709 3584 3137 3096 
Q 3566 2609 3566 1747 
Q 3566 888 3137 398 
Q 2709 -91 1959 -91 
Q 1206 -91 779 398 
Q 353 888 353 1747 
Q 353 2609 779 3096 
Q 1206 3584 1959 3584 
z
" transform="scale(0.015625)"/>
       <path id="DejaVuSans-66" d="M 2375 4863 
L 2375 4384 
L 1825 4384 
Q 1516 4384 1395 4259 
Q 1275 4134 1275 3809 
L 1275 3500 
L 2222 3500 
L 2222 3053 
L 1275 3053 
L 1275 0 
L 697 0 
L 697 3053 
L 147 3053 
L 147 3500 
L 697 3500 
L 697 3744 
Q 697 4328 969 4595 
Q 1241 4863 1831 4863 
L 2375 4863 
z
" transform="scale(0.015625)"/>
       <path id="DejaVuSans-70" d="M 1159 525 
L 1159 -1331 
L 581 -1331 
L 581 3500 
L 1159 3500 
L 1159 2969 
Q 1341 3281 1617 3432 
Q 1894 3584 2278 3584 
Q 2916 3584 3314 3078 
Q 3713 2572 3713 1747 
Q 3713 922 3314 415 
Q 2916 -91 2278 -91 
Q 1894 -91 1617 61 
Q 1341 213 1159 525 
z
M 3116 1747 
Q 3116 2381 2855 2742 
Q 2594 3103 2138 3103 
Q 1681 3103 1420 2742 
Q 1159 2381 1159 1747 
Q 1159 1113 1420 752 
Q 1681 391 2138 391 
Q 2594 391 2855 752 
Q 3116 1113 3116 1747 
z
" transform="scale(0.015625)"/>
       <path id="DejaVuSans-69" d="M 603 3500 
L 1178 3500 
L 1178 0 
L 603 0 
L 603 3500 
z
M 603 4863 
L 1178 4863 
L 1178 4134 
L 603 4134 
L 603 4863 
z
" transform="scale(0.015625)"/>
       <path id="DejaVuSans-2d" d="M 313 2009 
L 1997 2009 
L 1997 1497 
L 313 1497 
L 313 2009 
z
" transform="scale(0.015625)"/>
       <path id="DejaVuSans-6e" d="M 3513 2113 
L 3513 0 
L 2938 0 
L 2938 2094 
Q 2938 2591 2744 2837 
Q 2550 3084 2163 3084 
Q 1697 3084 1428 2787 
Q 1159 2491 1159 1978 
L 1159 0 
L 581 0 
L 581 3500 
L 1159 3500 
L 1159 2956 
Q 1366 3272 1645 3428 
Q 1925 3584 2291 3584 
Q 2894 3584 3203 3211 
Q 3513 2838 3513 2113 
z
" transform="scale(0.015625)"/>
       <path id="DejaVuSans-73" d="M 2834 3397 
L 2834 2853 
Q 2591 2978 2328 3040 
Q 2066 3103 1784 3103 
Q 1356 3103 1142 2972 
Q 928 2841 928 2578 
Q 928 2378 1081 2264 
Q 1234 2150 1697 2047 
L 1894 2003 
Q 2506 1872 2764 1633 
Q 3022 1394 3022 966 
Q 3022 478 2636 193 
Q 2250 -91 1575 -91 
Q 1294 -91 989 -36 
Q 684 19 347 128 
L 347 722 
Q 666 556 975 473 
Q 1284 391 1588 391 
Q 1994 391 2212 530 
Q 2431 669 2431 922 
Q 2431 1156 2273 1281 
Q 2116 1406 1581 1522 
L 1381 1569 
Q 847 1681 609 1914 
Q 372 2147 372 2553 
Q 372 3047 722 3315 
Q 1072 3584 1716 3584 
Q 2034 3584 2315 3537 
Q 2597 3491 2834 3397 
z
" transform="scale(0.015625)"/>
       <path id="DejaVuSans-74" d="M 1172 4494 
L 1172 3500 
L 2356 3500 
L 2356 3053 
L 1172 3053 
L 1172 1153 
Q 1172 725 1289 603 
Q 1406 481 1766 481 
L 2356 481 
L 2356 0 
L 1766 0 
Q 1100 0 847 248 
Q 594 497 594 1153 
L 594 3053 
L 172 3053 
L 172 3500 
L 594 3500 
L 594 4494 
L 1172 4494 
z
" transform="scale(0.015625)"/>
       <path id="DejaVuSans-61" d="M 2194 1759 
Q 1497 1759 1228 1600 
Q 959 1441 959 1056 
Q 959 750 1161 570 
Q 1363 391 1709 391 
Q 2188 391 2477 730 
Q 2766 1069 2766 1631 
L 2766 1759 
L 2194 1759 
z
M 3341 1997 
L 3341 0 
L 2766 0 
L 2766 531 
Q 2569 213 2275 61 
Q 1981 -91 1556 -91 
Q 1019 -91 701 211 
Q 384 513 384 1019 
Q 384 1609 779 1909 
Q 1175 2209 1959 2209 
L 2766 2209 
L 2766 2266 
Q 2766 2663 2505 2880 
Q 2244 3097 1772 3097 
Q 1472 3097 1187 3025 
Q 903 2953 641 2809 
L 641 3341 
Q 956 3463 1253 3523 
Q 1550 3584 1831 3584 
Q 2591 3584 2966 3190 
Q 3341 2797 3341 1997 
z
" transform="scale(0.015625)"/>
       <path id="DejaVuSans-6c" d="M 603 4863 
L 1178 4863 
L 1178 0 
L 603 0 
L 603 4863 
z
" transform="scale(0.015625)"/>
       <path id="DejaVuSans-68" d="M 3513 2113 
L 3513 0 
L 2938 0 
L 2938 2094 
Q 2938 2591 2744 2837 
Q 2550 3084 2163 3084 
Q 1697 3084 1428 2787 
Q 1159 2491 1159 1978 
L 1159 0 
L 581 0 
L 581 4863 
L 1159 4863 
L 1159 2956 
Q 1366 3272 1645 3428 
Q 1925 3584 2291 3584 
Q 2894 3584 3203 3211 
Q 3513 2838 3513 2113 
z
" transform="scale(0.015625)"/>
      </defs>
      <use xlink:href="#DejaVuSans-4e"/>
      <use xlink:href="#DejaVuSans-75" x="74.804688"/>
      <use xlink:href="#DejaVuSans-6d" x="138.183594"/>
      <use xlink:href="#DejaVuSans-62" x="235.595703"/>
      <use xlink:href="#DejaVuSans-65" x="299.072266"/>
      <use xlink:href="#DejaVuSans-72" x="360.595703"/>
      <use xlink:href="#DejaVuSans-20" x="401.708984"/>
      <use xlink:href="#DejaVuSans-6f" x="433.496094"/>
      <use xlink:href="#DejaVuSans-66" x="494.677734"/>
      <use xlink:href="#DejaVuSans-20" x="529.882812"/>
      <use xlink:href="#DejaVuSans-70" x="561.669922"/>
      <use xlink:href="#DejaVuSans-69" x="625.146484"/>
      <use xlink:href="#DejaVuSans-70" x="652.929688"/>
      <use xlink:href="#DejaVuSans-2d" x="716.40625"/>
      <use xlink:href="#DejaVuSans-69" x="752.490234"/>
      <use xlink:href="#DejaVuSans-6e" x="780.273438"/>
      <use xlink:href="#DejaVuSans-73" x="843.652344"/>
      <use xlink:href="#DejaVuSans-74" x="895.751953"/>
      <use xlink:href="#DejaVuSans-61" x="934.960938"/>
      <use xlink:href="#DejaVuSans-6c" x="996.240234"/>
      <use xlink:href="#DejaVuSans-6c" x="1024.023438"/>
      <use xlink:href="#DejaVuSans-73" x="1051.806641"/>
      <use xlink:href="#DejaVuSans-20" x="1103.90625"/>
      <use xlink:href="#DejaVuSans-70" x="1135.693359"/>
      <use xlink:href="#DejaVuSans-65" x="1199.169922"/>
      <use xlink:href="#DejaVuSans-72" x="1260.693359"/>
      <use xlink:href="#DejaVuSans-20" x="1301.806641"/>
      <use xlink:href="#DejaVuSans-6d" x="1333.59375"/>
      <use xlink:href="#DejaVuSans-6f" x="1431.005859"/>
      <use xlink:href="#DejaVuSans-6e" x="1492.1875"/>
      <use xlink:href="#DejaVuSans-74" x="1555.566406"/>
      <use xlink:href="#DejaVuSans-68" x="1594.775391"/>
     </g>
    </g>
   </g>
   <g id="line2d_54">
    <path d="M 431.380535 361 
L 432.56962 341.911873 
L 436.101266 311.142718 
L 439.632911 292.215561 
L 443.164557 279.812166 
L 446.696203 270.033797 
L 450.227848 263.013895 
L 453.759494 258.195443 
L 457.291139 255.849001 
L 460.822785 254.973067 
L 464.35443 252.377833 
L 467.886076 250.086751 
L 478.481013 240.412652 
L 482.012658 237.020602 
L 489.075949 233.154614 
L 492.607595 231.488394 
L 496.139241 229.467335 
L 499.670886 228.351265 
L 503.202532 226.63744 
L 506.734177 225.804157 
L 510.265823 224.008983 
L 513.797468 222.730376 
L 517.329114 221.844232 
L 520.860759 219.869737 
L 524.392405 219.154162 
L 527.924051 217.071952 
L 531.455696 216.822775 
L 534.987342 215.394038 
L 538.518987 214.778059 
L 542.050633 214.363303 
L 545.582278 212.497466 
L 549.113924 211.902087 
L 552.64557 209.831953 
L 556.177215 209.169961 
L 559.708861 207.224703 
L 563.240506 206.160641 
L 566.772152 205.287276 
L 570.303797 203.83886 
L 573.835443 203.46594 
L 577.367089 201.9019 
L 580.898734 202.075712 
L 584.43038 200.686101 
L 587.962025 200.918913 
L 591.493671 202.24456 
L 595.025316 201.031422 
L 598.556962 201.070532 
L 602.088608 199.114825 
L 605.620253 197.77088 
L 612.683544 190.076568 
L 616.21519 187.557599 
L 619.746835 184.690902 
L 623.278481 182.74375 
L 626.810127 179.742823 
L 630.341772 179.831241 
L 633.873418 178.53931 
L 644.468354 170.825573 
L 648 171.116908 
L 651.531646 170.780634 
L 655.063291 171.30474 
L 658.594937 172.638302 
L 662.126582 178.344558 
L 662.126582 178.344558 
" clip-path="url(#pcc8d6d813b)" style="fill: none; stroke: #1f77b4; stroke-width: 1.5; stroke-linecap: square"/>
   </g>
   <g id="line2d_55">
    <path d="M 307.16083 361 
L 308.962025 339.949958 
L 312.493671 318.1875 
L 316.025316 304.773084 
L 319.556962 294.235849 
L 323.088608 285.516114 
L 326.620253 279.508942 
L 330.151899 276.717574 
L 333.683544 276.088356 
L 337.21519 272.525679 
L 340.746835 269.927086 
L 344.278481 267.176257 
L 351.341772 259.849574 
L 354.873418 251.190541 
L 358.405063 249.100891 
L 361.936709 243.758144 
L 365.468354 240.670922 
L 369 238.543685 
L 372.531646 235.596409 
L 376.063291 235.444885 
L 379.594937 231.745969 
L 383.126582 231.008531 
L 386.658228 228.652608 
L 390.189873 225.059996 
L 397.253165 220.739056 
L 400.78481 220.536765 
L 404.316456 218.507454 
L 407.848101 213.335215 
L 414.911392 205.235049 
L 418.443038 199.861517 
L 421.974684 195.36172 
L 425.506329 191.713836 
L 429.037975 189.589535 
L 432.56962 188.568343 
L 436.101266 187.193287 
L 439.632911 187.028102 
L 443.164557 185.913134 
L 446.696203 185.111191 
L 450.227848 185.387025 
L 453.759494 184.132466 
L 457.291139 183.893341 
L 460.822785 183.941164 
L 464.35443 184.16153 
L 467.886076 184.620415 
L 471.417722 182.968466 
L 474.949367 182.624877 
L 478.481013 182.003164 
L 485.544304 182.570036 
L 489.075949 182.080901 
L 496.139241 183.420324 
L 499.670886 184.413634 
L 503.202532 183.272553 
L 506.734177 182.615498 
L 510.265823 181.534834 
L 513.797468 181.177375 
L 517.329114 180.008358 
L 520.860759 177.959821 
L 524.392405 177.602757 
L 527.924051 176.525314 
L 531.455696 177.377929 
L 534.987342 177.544767 
L 538.518987 178.429592 
L 542.050633 178.828176 
L 545.582278 178.501622 
L 549.113924 179.555628 
L 552.64557 178.240643 
L 556.177215 178.052571 
L 559.708861 176.618637 
L 563.240506 176.369812 
L 566.772152 175.254659 
L 570.303797 173.114408 
L 573.835443 172.851686 
L 577.367089 171.181118 
L 580.898734 170.580141 
L 584.43038 168.946262 
L 587.962025 169.089087 
L 591.493671 169.954106 
L 595.025316 167.321563 
L 598.556962 166.033901 
L 602.088608 163.489224 
L 605.620253 162.846208 
L 612.683544 158.661294 
L 616.21519 158.384908 
L 619.746835 157.3304 
L 623.278481 157.578075 
L 626.810127 156.15247 
L 630.341772 156.159173 
L 633.873418 155.118909 
L 637.405063 154.225999 
L 640.936709 153.155372 
L 644.468354 151.533991 
L 648 151.211876 
L 651.531646 147.069705 
L 655.063291 146.590445 
L 658.594937 145.415093 
L 662.126582 148.592215 
L 662.126582 148.592215 
" clip-path="url(#pcc8d6d813b)" style="fill: none; stroke-dasharray: 1.5,2.475; stroke-dashoffset: 0; stroke: #ff7f0e; stroke-width: 1.5"/>
   </g>
   <g id="line2d_56">
    <path d="M 148.119479 361 
L 150.037975 342.595887 
L 153.56962 322.69129 
L 157.101266 308.824494 
L 160.632911 299.548568 
L 164.164557 291.183644 
L 167.696203 284.124499 
L 171.227848 279.96088 
L 174.759494 276.460425 
L 178.291139 273.837581 
L 181.822785 270.060092 
L 188.886076 264.501136 
L 192.417722 263.024628 
L 199.481013 260.550201 
L 203.012658 262.41549 
L 206.544304 262.073269 
L 210.075949 261.14985 
L 213.607595 258.589317 
L 217.139241 256.171259 
L 220.670886 253.330421 
L 224.202532 248.06979 
L 231.265823 242.249973 
L 234.797468 240.946883 
L 238.329114 238.815649 
L 241.860759 237.78801 
L 245.392405 238.951313 
L 248.924051 236.326733 
L 252.455696 235.351843 
L 255.987342 233.05449 
L 259.518987 232.023417 
L 263.050633 229.786174 
L 266.582278 226.975204 
L 270.113924 226.687844 
L 273.64557 225.079366 
L 277.177215 224.608252 
L 280.708861 222.872244 
L 284.240506 222.586527 
L 287.772152 220.497994 
L 291.303797 219.02108 
L 294.835443 217.101409 
L 298.367089 214.141387 
L 301.898734 213.318689 
L 308.962025 208.506259 
L 312.493671 204.625486 
L 316.025316 202.656676 
L 319.556962 201.305513 
L 323.088608 198.981205 
L 326.620253 197.962963 
L 330.151899 197.417208 
L 333.683544 199.653343 
L 337.21519 197.955132 
L 340.746835 196.863145 
L 344.278481 196.185485 
L 347.810127 194.270243 
L 351.341772 192.802285 
L 354.873418 189.851234 
L 358.405063 189.595394 
L 365.468354 186.234229 
L 369 184.625578 
L 372.531646 182.66298 
L 376.063291 181.847864 
L 379.594937 179.970045 
L 383.126582 179.281094 
L 393.721519 176.101284 
L 397.253165 174.706721 
L 400.78481 174.413951 
L 404.316456 172.942809 
L 407.848101 168.591028 
L 411.379747 163.609445 
L 414.911392 159.953382 
L 421.974684 153.438887 
L 425.506329 151.211709 
L 429.037975 150.311534 
L 432.56962 149.539608 
L 436.101266 149.20572 
L 443.164557 148.917473 
L 446.696203 148.284644 
L 450.227848 148.557359 
L 453.759494 149.114145 
L 457.291139 149.200275 
L 464.35443 150.120392 
L 467.886076 150.317259 
L 471.417722 149.678701 
L 474.949367 149.861447 
L 478.481013 149.619229 
L 482.012658 148.806709 
L 485.544304 146.829507 
L 489.075949 145.37431 
L 492.607595 144.975787 
L 496.139241 144.322945 
L 499.670886 144.087561 
L 503.202532 142.734559 
L 506.734177 142.721717 
L 510.265823 142.42838 
L 517.329114 140.692594 
L 520.860759 139.265401 
L 524.392405 139.017298 
L 527.924051 138.015666 
L 531.455696 137.887429 
L 534.987342 137.189073 
L 538.518987 136.126259 
L 542.050633 135.180563 
L 545.582278 133.747901 
L 549.113924 133.504189 
L 552.64557 132.112546 
L 559.708861 130.820976 
L 563.240506 129.244565 
L 566.772152 128.981996 
L 570.303797 128.106202 
L 577.367089 128.15975 
L 580.898734 129.024477 
L 587.962025 131.073187 
L 591.493671 132.672933 
L 595.025316 132.226717 
L 598.556962 132.476323 
L 602.088608 132.360553 
L 605.620253 133.239976 
L 609.151899 131.936037 
L 612.683544 130.759932 
L 616.21519 131.032003 
L 619.746835 130.078614 
L 623.278481 129.422628 
L 626.810127 128.45241 
L 630.341772 128.477151 
L 633.873418 127.943578 
L 637.405063 127.687555 
L 640.936709 127.925022 
L 644.468354 127.677584 
L 648 128.126125 
L 651.531646 128.445932 
L 655.063291 128.227872 
L 658.594937 127.092032 
L 662.126582 130.22581 
L 662.126582 130.22581 
" clip-path="url(#pcc8d6d813b)" style="fill: none; stroke-dasharray: 5.55,2.4; stroke-dashoffset: 0; stroke: #2ca02c; stroke-width: 1.5"/>
   </g>
   <g id="line2d_57">
    <path d="M 107.658228 275.212082 
L 111.189873 272.679864 
L 114.721519 272.770189 
L 118.253165 272.228383 
L 121.78481 270.814795 
L 125.316456 270.416168 
L 128.848101 269.499213 
L 132.379747 269.304334 
L 135.911392 268.450794 
L 139.443038 267.772064 
L 142.974684 269.577322 
L 146.506329 272.922325 
L 150.037975 263.993329 
L 153.56962 255.942919 
L 157.101266 247.359382 
L 160.632911 242.066429 
L 167.696203 229.224055 
L 171.227848 227.425614 
L 174.759494 225.968022 
L 178.291139 225.46808 
L 181.822785 222.966142 
L 185.35443 221.776806 
L 188.886076 220.242789 
L 192.417722 218.895504 
L 195.949367 217.314655 
L 199.481013 215.603501 
L 203.012658 216.918594 
L 206.544304 216.402536 
L 210.075949 215.016683 
L 213.607595 212.512947 
L 217.139241 210.311632 
L 220.670886 206.965264 
L 224.202532 201.836865 
L 227.734177 199.201326 
L 231.265823 197.905363 
L 234.797468 197.87909 
L 238.329114 197.254757 
L 241.860759 198.010581 
L 245.392405 201.27012 
L 248.924051 201.380957 
L 252.455696 200.753271 
L 255.987342 198.932097 
L 259.518987 198.582989 
L 263.050633 197.028882 
L 266.582278 194.323865 
L 270.113924 193.119911 
L 273.64557 191.677298 
L 277.177215 190.921055 
L 280.708861 188.531571 
L 284.240506 187.712115 
L 287.772152 186.400481 
L 291.303797 185.912807 
L 294.835443 184.840104 
L 298.367089 183.215099 
L 301.898734 183.514506 
L 305.43038 182.660138 
L 308.962025 182.55521 
L 312.493671 181.806222 
L 316.025316 180.727814 
L 319.556962 178.205207 
L 323.088608 174.623165 
L 326.620253 172.429003 
L 330.151899 169.699859 
L 333.683544 167.199397 
L 337.21519 165.788113 
L 340.746835 165.607006 
L 344.278481 165.988305 
L 347.810127 166.133842 
L 351.341772 166.41014 
L 354.873418 166.192427 
L 358.405063 166.717613 
L 361.936709 166.372135 
L 365.468354 166.296647 
L 369 165.833507 
L 372.531646 165.247574 
L 376.063291 165.624767 
L 379.594937 164.570582 
L 383.126582 165.522618 
L 390.189873 166.702019 
L 393.721519 167.803598 
L 397.253165 167.899559 
L 400.78481 169.293294 
L 404.316456 168.924785 
L 407.848101 168.110268 
L 411.379747 165.288095 
L 414.911392 162.22899 
L 421.974684 157.009112 
L 429.037975 153.312791 
L 436.101266 156.422571 
L 439.632911 157.981852 
L 443.164557 159.162694 
L 446.696203 160.572422 
L 450.227848 163.065773 
L 453.759494 162.280256 
L 457.291139 162.440321 
L 460.822785 163.238347 
L 464.35443 164.274952 
L 467.886076 164.16222 
L 471.417722 162.254311 
L 474.949367 161.516404 
L 482.012658 159.180913 
L 485.544304 157.659128 
L 489.075949 156.5778 
L 496.139241 155.451431 
L 499.670886 155.165932 
L 503.202532 154.439685 
L 506.734177 154.472688 
L 510.265823 153.910908 
L 517.329114 154.197942 
L 520.860759 153.744711 
L 524.392405 153.832817 
L 527.924051 153.209117 
L 531.455696 153.62779 
L 538.518987 154.179568 
L 542.050633 154.846326 
L 545.582278 154.661838 
L 549.113924 155.267636 
L 552.64557 156.163257 
L 556.177215 156.807994 
L 559.708861 157.293872 
L 563.240506 158.053361 
L 570.303797 159.9472 
L 573.835443 160.265191 
L 577.367089 160.112508 
L 580.898734 159.596296 
L 584.43038 158.939442 
L 591.493671 160.68626 
L 595.025316 160.42086 
L 598.556962 161.39637 
L 602.088608 161.875325 
L 605.620253 161.635154 
L 612.683544 159.547396 
L 616.21519 159.108207 
L 619.746835 158.448793 
L 623.278481 158.56848 
L 626.810127 158.876567 
L 630.341772 158.909868 
L 633.873418 158.229731 
L 637.405063 158.211302 
L 640.936709 157.691997 
L 644.468354 156.959165 
L 648 156.467234 
L 651.531646 155.845201 
L 655.063291 155.693029 
L 658.594937 155.030627 
L 662.126582 158.551111 
L 662.126582 158.551111 
" clip-path="url(#pcc8d6d813b)" style="fill: none; stroke: #d62728; stroke-width: 1.5; stroke-linecap: square"/>
   </g>
   <g id="line2d_58">
    <path d="M 107.658228 272.81032 
L 111.189873 271.033428 
L 114.721519 275.027183 
L 118.253165 276.273092 
L 121.78481 275.674405 
L 125.316456 274.913901 
L 128.848101 263.374656 
L 132.379747 260.475154 
L 135.911392 253.200775 
L 139.443038 247.23886 
L 142.974684 244.785678 
L 146.506329 243.903851 
L 150.037975 239.601868 
L 153.56962 233.110393 
L 157.101266 228.681939 
L 164.164557 218.467535 
L 167.696203 212.829743 
L 171.227848 210.379764 
L 178.291139 204.908562 
L 181.822785 204.828508 
L 185.35443 205.357959 
L 188.886076 206.054919 
L 192.417722 207.054922 
L 195.949367 209.639233 
L 199.481013 212.751289 
L 203.012658 215.259905 
L 206.544304 216.354648 
L 213.607595 220.10609 
L 217.139241 221.084192 
L 220.670886 219.91148 
L 224.202532 214.604309 
L 227.734177 211.474037 
L 231.265823 207.888786 
L 234.797468 206.436013 
L 238.329114 205.493475 
L 241.860759 206.744902 
L 245.392405 211.722021 
L 248.924051 213.792894 
L 252.455696 217.13113 
L 255.987342 218.637199 
L 259.518987 219.538244 
L 263.050633 218.652151 
L 266.582278 215.93346 
L 270.113924 215.998794 
L 273.64557 214.845018 
L 277.177215 214.299949 
L 280.708861 212.687569 
L 284.240506 212.609948 
L 291.303797 210.152729 
L 294.835443 209.497775 
L 298.367089 207.861003 
L 301.898734 207.430848 
L 305.43038 205.771034 
L 308.962025 204.384969 
L 312.493671 203.468716 
L 316.025316 202.914569 
L 319.556962 202.76447 
L 323.088608 201.976249 
L 326.620253 201.946329 
L 330.151899 202.505204 
L 333.683544 203.600471 
L 337.21519 203.63526 
L 344.278481 204.161586 
L 347.810127 203.504598 
L 351.341772 203.480766 
L 354.873418 201.017894 
L 358.405063 201.060508 
L 361.936709 199.077694 
L 365.468354 197.225928 
L 369 196.518506 
L 372.531646 195.370916 
L 376.063291 195.968719 
L 379.594937 196.161534 
L 383.126582 198.099201 
L 390.189873 202.196042 
L 393.721519 203.576849 
L 397.253165 203.705871 
L 400.78481 203.479901 
L 404.316456 200.890057 
L 407.848101 200.35355 
L 411.379747 200.143888 
L 414.911392 200.125681 
L 418.443038 201.026559 
L 421.974684 201.574861 
L 425.506329 205.257956 
L 432.56962 208.452952 
L 436.101266 210.231064 
L 439.632911 211.721082 
L 443.164557 211.898985 
L 446.696203 211.73763 
L 450.227848 212.570351 
L 453.759494 212.419382 
L 457.291139 212.589781 
L 460.822785 213.095553 
L 464.35443 214.613594 
L 467.886076 215.789601 
L 471.417722 215.953741 
L 474.949367 215.753566 
L 478.481013 216.159813 
L 482.012658 216.246745 
L 485.544304 215.984009 
L 489.075949 215.472864 
L 492.607595 215.166379 
L 496.139241 215.399057 
L 503.202532 215.099014 
L 506.734177 215.469206 
L 510.265823 215.480804 
L 517.329114 216.270357 
L 520.860759 216.860017 
L 527.924051 218.790373 
L 531.455696 221.137092 
L 538.518987 224.678854 
L 542.050633 226.108552 
L 545.582278 227.217595 
L 549.113924 228.616524 
L 552.64557 229.41014 
L 556.177215 229.961532 
L 559.708861 229.872202 
L 563.240506 230.141876 
L 566.772152 231.100282 
L 570.303797 229.286949 
L 573.835443 227.629836 
L 577.367089 226.76131 
L 580.898734 226.270583 
L 584.43038 224.959492 
L 587.962025 223.504128 
L 591.493671 223.504021 
L 595.025316 223.282399 
L 598.556962 223.369265 
L 602.088608 223.112259 
L 605.620253 223.743484 
L 612.683544 225.312995 
L 616.21519 226.20667 
L 619.746835 226.202075 
L 623.278481 226.902015 
L 626.810127 226.817831 
L 630.341772 226.333737 
L 633.873418 224.419502 
L 637.405063 222.795673 
L 640.936709 222.066079 
L 644.468354 225.638371 
L 648 228.588643 
L 651.531646 232.791655 
L 655.063291 238.201248 
L 658.594937 246.3075 
L 662.126582 259.07456 
L 662.126582 259.07456 
" clip-path="url(#pcc8d6d813b)" style="fill: none; stroke-dasharray: 5.55,2.4; stroke-dashoffset: 0; stroke: #9467bd; stroke-width: 1.5"/>
   </g>
   <g id="line2d_59">
    <path d="M 107.658228 238.123477 
L 111.189873 238.804551 
L 118.253165 240.979451 
L 121.78481 240.806375 
L 125.316456 241.899092 
L 128.848101 242.129868 
L 132.379747 243.357923 
L 139.443038 242.359043 
L 142.974684 243.615839 
L 146.506329 245.994891 
L 153.56962 230.216055 
L 157.101266 221.465378 
L 164.164557 209.814042 
L 167.696203 204.360544 
L 171.227848 201.962842 
L 174.759494 200.63365 
L 178.291139 201.113391 
L 181.822785 199.515416 
L 185.35443 198.572087 
L 188.886076 197.17955 
L 192.417722 197.473774 
L 195.949367 197.350139 
L 199.481013 196.903222 
L 203.012658 200.104858 
L 206.544304 201.216374 
L 210.075949 201.258778 
L 213.607595 199.761242 
L 217.139241 198.619326 
L 220.670886 197.305151 
L 224.202532 193.261698 
L 227.734177 191.388903 
L 231.265823 189.933091 
L 234.797468 189.983692 
L 238.329114 189.694858 
L 241.860759 190.243746 
L 245.392405 193.082611 
L 248.924051 193.120621 
L 252.455696 193.971198 
L 255.987342 193.040805 
L 259.518987 189.352616 
L 263.050633 187.225501 
L 266.582278 184.710391 
L 270.113924 183.966461 
L 273.64557 183.521732 
L 277.177215 183.656075 
L 280.708861 185.434702 
L 284.240506 185.530244 
L 287.772152 183.689436 
L 291.303797 181.984014 
L 294.835443 179.745516 
L 298.367089 177.36063 
L 301.898734 175.959737 
L 305.43038 174.327921 
L 308.962025 173.672981 
L 312.493671 172.452314 
L 316.025316 170.746802 
L 319.556962 168.882516 
L 323.088608 166.588279 
L 326.620253 163.641137 
L 330.151899 161.082537 
L 333.683544 159.570739 
L 340.746835 155.929515 
L 344.278481 154.400741 
L 347.810127 156.505965 
L 351.341772 159.275649 
L 354.873418 162.300394 
L 358.405063 166.794072 
L 361.936709 173.275658 
L 365.468354 181.80532 
L 369 185.062266 
L 372.531646 187.471841 
L 376.063291 189.259877 
L 379.594937 191.177253 
L 383.126582 192.487535 
L 386.658228 193.408514 
L 390.189873 194.622339 
L 393.721519 195.689972 
L 397.253165 196.323711 
L 400.78481 197.316547 
L 404.316456 197.295794 
L 407.848101 197.710392 
L 411.379747 197.676748 
L 414.911392 197.859181 
L 421.974684 198.580789 
L 425.506329 199.512885 
L 429.037975 199.333364 
L 432.56962 200.343168 
L 436.101266 200.356223 
L 443.164557 200.981615 
L 446.696203 200.684422 
L 450.227848 201.791527 
L 453.759494 201.476699 
L 460.822785 203.564837 
L 464.35443 204.300309 
L 467.886076 204.748283 
L 471.417722 204.401438 
L 474.949367 204.915745 
L 482.012658 204.573709 
L 485.544304 204.014931 
L 489.075949 204.461283 
L 492.607595 204.743044 
L 496.139241 204.695987 
L 499.670886 204.949037 
L 503.202532 203.680535 
L 506.734177 205.1581 
L 513.797468 206.875017 
L 517.329114 208.308985 
L 520.860759 209.101069 
L 524.392405 211.7474 
L 527.924051 211.289752 
L 531.455696 211.485399 
L 534.987342 211.879326 
L 538.518987 211.998067 
L 542.050633 212.39834 
L 545.582278 212.334492 
L 549.113924 213.37681 
L 552.64557 213.314509 
L 556.177215 213.741357 
L 559.708861 213.687528 
L 566.772152 213.291437 
L 570.303797 212.556833 
L 573.835443 212.670159 
L 577.367089 212.028321 
L 580.898734 212.352621 
L 584.43038 211.882994 
L 587.962025 212.024184 
L 591.493671 212.612834 
L 595.025316 211.987997 
L 598.556962 212.228252 
L 602.088608 211.913231 
L 605.620253 212.666661 
L 609.151899 212.767666 
L 612.683544 212.485907 
L 616.21519 212.706265 
L 619.746835 212.571694 
L 623.278481 213.085378 
L 626.810127 213.158875 
L 630.341772 213.858447 
L 633.873418 214.323281 
L 637.405063 215.491619 
L 640.936709 216.834895 
L 644.468354 217.076629 
L 648 217.776848 
L 651.531646 217.868561 
L 655.063291 218.756671 
L 658.594937 219.519146 
L 662.126582 223.651028 
L 662.126582 223.651028 
" clip-path="url(#pcc8d6d813b)" style="fill: none; stroke-dasharray: 9.6,2.4,1.5,2.4; stroke-dashoffset: 0; stroke: #8c564b; stroke-width: 1.5"/>
   </g>
   <g id="patch_3">
    <path d="M 90 315 
L 90 43.2 
" style="fill: none; stroke: #000000; stroke-width: 0.8; stroke-linejoin: miter; stroke-linecap: square"/>
   </g>
   <g id="patch_4">
    <path d="M 648 315 
L 648 43.2 
" style="fill: none; stroke: #000000; stroke-width: 0.8; stroke-linejoin: miter; stroke-linecap: square"/>
   </g>
   <g id="patch_5">
    <path d="M 90 315 
L 648 315 
" style="fill: none; stroke: #000000; stroke-width: 0.8; stroke-linejoin: miter; stroke-linecap: square"/>
   </g>
   <g id="patch_6">
    <path d="M 90 43.2 
L 648 43.2 
" style="fill: none; stroke: #000000; stroke-width: 0.8; stroke-linejoin: miter; stroke-linecap: square"/>
   </g>
   <g id="text_10">
    <!-- Python version of NumPy users, all operating systems -->
    <g transform="translate(206.897813 37.2)scale(0.12 -0.12)">
     <defs>
      <path id="DejaVuSans-50" d="M 1259 4147 
L 1259 2394 
L 2053 2394 
Q 2494 2394 2734 2622 
Q 2975 2850 2975 3272 
Q 2975 3691 2734 3919 
Q 2494 4147 2053 4147 
L 1259 4147 
z
M 628 4666 
L 2053 4666 
Q 2838 4666 3239 4311 
Q 3641 3956 3641 3272 
Q 3641 2581 3239 2228 
Q 2838 1875 2053 1875 
L 1259 1875 
L 1259 0 
L 628 0 
L 628 4666 
z
" transform="scale(0.015625)"/>
      <path id="DejaVuSans-79" d="M 2059 -325 
Q 1816 -950 1584 -1140 
Q 1353 -1331 966 -1331 
L 506 -1331 
L 506 -850 
L 844 -850 
Q 1081 -850 1212 -737 
Q 1344 -625 1503 -206 
L 1606 56 
L 191 3500 
L 800 3500 
L 1894 763 
L 2988 3500 
L 3597 3500 
L 2059 -325 
z
" transform="scale(0.015625)"/>
      <path id="DejaVuSans-76" d="M 191 3500 
L 800 3500 
L 1894 563 
L 2988 3500 
L 3597 3500 
L 2284 0 
L 1503 0 
L 191 3500 
z
" transform="scale(0.015625)"/>
      <path id="DejaVuSans-2c" d="M 750 794 
L 1409 794 
L 1409 256 
L 897 -744 
L 494 -744 
L 750 256 
L 750 794 
z
" transform="scale(0.015625)"/>
      <path id="DejaVuSans-67" d="M 2906 1791 
Q 2906 2416 2648 2759 
Q 2391 3103 1925 3103 
Q 1463 3103 1205 2759 
Q 947 2416 947 1791 
Q 947 1169 1205 825 
Q 1463 481 1925 481 
Q 2391 481 2648 825 
Q 2906 1169 2906 1791 
z
M 3481 434 
Q 3481 -459 3084 -895 
Q 2688 -1331 1869 -1331 
Q 1566 -1331 1297 -1286 
Q 1028 -1241 775 -1147 
L 775 -588 
Q 1028 -725 1275 -790 
Q 1522 -856 1778 -856 
Q 2344 -856 2625 -561 
Q 2906 -266 2906 331 
L 2906 616 
Q 2728 306 2450 153 
Q 2172 0 1784 0 
Q 1141 0 747 490 
Q 353 981 353 1791 
Q 353 2603 747 3093 
Q 1141 3584 1784 3584 
Q 2172 3584 2450 3431 
Q 2728 3278 2906 2969 
L 2906 3500 
L 3481 3500 
L 3481 434 
z
" transform="scale(0.015625)"/>
     </defs>
     <use xlink:href="#DejaVuSans-50"/>
     <use xlink:href="#DejaVuSans-79" x="60.302734"/>
     <use xlink:href="#DejaVuSans-74" x="119.482422"/>
     <use xlink:href="#DejaVuSans-68" x="158.691406"/>
     <use xlink:href="#DejaVuSans-6f" x="222.070312"/>
     <use xlink:href="#DejaVuSans-6e" x="283.251953"/>
     <use xlink:href="#DejaVuSans-20" x="346.630859"/>
     <use xlink:href="#DejaVuSans-76" x="378.417969"/>
     <use xlink:href="#DejaVuSans-65" x="437.597656"/>
     <use xlink:href="#DejaVuSans-72" x="499.121094"/>
     <use xlink:href="#DejaVuSans-73" x="540.234375"/>
     <use xlink:href="#DejaVuSans-69" x="592.333984"/>
     <use xlink:href="#DejaVuSans-6f" x="620.117188"/>
     <use xlink:href="#DejaVuSans-6e" x="681.298828"/>
     <use xlink:href="#DejaVuSans-20" x="744.677734"/>
     <use xlink:href="#DejaVuSans-6f" x="776.464844"/>
     <use xlink:href="#DejaVuSans-66" x="837.646484"/>
     <use xlink:href="#DejaVuSans-20" x="872.851562"/>
     <use xlink:href="#DejaVuSans-4e" x="904.638672"/>
     <use xlink:href="#DejaVuSans-75" x="979.443359"/>
     <use xlink:href="#DejaVuSans-6d" x="1042.822266"/>
     <use xlink:href="#DejaVuSans-50" x="1140.234375"/>
     <use xlink:href="#DejaVuSans-79" x="1200.537109"/>
     <use xlink:href="#DejaVuSans-20" x="1259.716797"/>
     <use xlink:href="#DejaVuSans-75" x="1291.503906"/>
     <use xlink:href="#DejaVuSans-73" x="1354.882812"/>
     <use xlink:href="#DejaVuSans-65" x="1406.982422"/>
     <use xlink:href="#DejaVuSans-72" x="1468.505859"/>
     <use xlink:href="#DejaVuSans-73" x="1509.619141"/>
     <use xlink:href="#DejaVuSans-2c" x="1561.71875"/>
     <use xlink:href="#DejaVuSans-20" x="1593.505859"/>
     <use xlink:href="#DejaVuSans-61" x="1625.292969"/>
     <use xlink:href="#DejaVuSans-6c" x="1686.572266"/>
     <use xlink:href="#DejaVuSans-6c" x="1714.355469"/>
     <use xlink:href="#DejaVuSans-20" x="1742.138672"/>
     <use xlink:href="#DejaVuSans-6f" x="1773.925781"/>
     <use xlink:href="#DejaVuSans-70" x="1835.107422"/>
     <use xlink:href="#DejaVuSans-65" x="1898.583984"/>
     <use xlink:href="#DejaVuSans-72" x="1960.107422"/>
     <use xlink:href="#DejaVuSans-61" x="2001.220703"/>
     <use xlink:href="#DejaVuSans-74" x="2062.5"/>
     <use xlink:href="#DejaVuSans-69" x="2101.708984"/>
     <use xlink:href="#DejaVuSans-6e" x="2129.492188"/>
     <use xlink:href="#DejaVuSans-67" x="2192.871094"/>
     <use xlink:href="#DejaVuSans-20" x="2256.347656"/>
     <use xlink:href="#DejaVuSans-73" x="2288.134766"/>
     <use xlink:href="#DejaVuSans-79" x="2340.234375"/>
     <use xlink:href="#DejaVuSans-73" x="2399.414062"/>
     <use xlink:href="#DejaVuSans-74" x="2451.513672"/>
     <use xlink:href="#DejaVuSans-65" x="2490.722656"/>
     <use xlink:href="#DejaVuSans-6d" x="2552.246094"/>
     <use xlink:href="#DejaVuSans-73" x="2649.658203"/>
    </g>
   </g>
   <g id="legend_1">
    <g id="patch_7">
     <path d="M 97 139.26875 
L 189.421875 139.26875 
Q 191.421875 139.26875 191.421875 137.26875 
L 191.421875 50.2 
Q 191.421875 48.2 189.421875 48.2 
L 97 48.2 
Q 95 48.2 95 50.2 
L 95 137.26875 
Q 95 139.26875 97 139.26875 
z
" style="fill: #ffffff; opacity: 0.8; stroke: #cccccc; stroke-linejoin: miter"/>
    </g>
    <g id="line2d_60">
     <path d="M 99 56.298437 
L 109 56.298437 
L 119 56.298437 
" style="fill: none; stroke: #1f77b4; stroke-width: 1.5; stroke-linecap: square"/>
    </g>
    <g id="text_11">
     <!-- 3.9 -->
     <g transform="translate(127 59.798437)scale(0.1 -0.1)">
      <defs>
       <path id="DejaVuSans-33" d="M 2597 2516 
Q 3050 2419 3304 2112 
Q 3559 1806 3559 1356 
Q 3559 666 3084 287 
Q 2609 -91 1734 -91 
Q 1441 -91 1130 -33 
Q 819 25 488 141 
L 488 750 
Q 750 597 1062 519 
Q 1375 441 1716 441 
Q 2309 441 2620 675 
Q 2931 909 2931 1356 
Q 2931 1769 2642 2001 
Q 2353 2234 1838 2234 
L 1294 2234 
L 1294 2753 
L 1863 2753 
Q 2328 2753 2575 2939 
Q 2822 3125 2822 3475 
Q 2822 3834 2567 4026 
Q 2313 4219 1838 4219 
Q 1578 4219 1281 4162 
Q 984 4106 628 3988 
L 628 4550 
Q 988 4650 1302 4700 
Q 1616 4750 1894 4750 
Q 2613 4750 3031 4423 
Q 3450 4097 3450 3541 
Q 3450 3153 3228 2886 
Q 3006 2619 2597 2516 
z
" transform="scale(0.015625)"/>
       <path id="DejaVuSans-2e" d="M 684 794 
L 1344 794 
L 1344 0 
L 684 0 
L 684 794 
z
" transform="scale(0.015625)"/>
      </defs>
      <use xlink:href="#DejaVuSans-33"/>
      <use xlink:href="#DejaVuSans-2e" x="63.623047"/>
      <use xlink:href="#DejaVuSans-39" x="95.410156"/>
     </g>
    </g>
    <g id="line2d_61">
     <path d="M 99 70.976562 
L 109 70.976562 
L 119 70.976562 
" style="fill: none; stroke-dasharray: 1.5,2.475; stroke-dashoffset: 0; stroke: #ff7f0e; stroke-width: 1.5"/>
    </g>
    <g id="text_12">
     <!-- 3.8 -->
     <g transform="translate(127 74.476562)scale(0.1 -0.1)">
      <use xlink:href="#DejaVuSans-33"/>
      <use xlink:href="#DejaVuSans-2e" x="63.623047"/>
      <use xlink:href="#DejaVuSans-38" x="95.410156"/>
     </g>
    </g>
    <g id="line2d_62">
     <path d="M 99 85.654687 
L 109 85.654687 
L 119 85.654687 
" style="fill: none; stroke-dasharray: 5.55,2.4; stroke-dashoffset: 0; stroke: #2ca02c; stroke-width: 1.5"/>
    </g>
    <g id="text_13">
     <!-- 3.7 -->
     <g transform="translate(127 89.154687)scale(0.1 -0.1)">
      <use xlink:href="#DejaVuSans-33"/>
      <use xlink:href="#DejaVuSans-2e" x="63.623047"/>
      <use xlink:href="#DejaVuSans-37" x="95.410156"/>
     </g>
    </g>
    <g id="line2d_63">
     <path d="M 99 100.332812 
L 109 100.332812 
L 119 100.332812 
" style="fill: none; stroke: #d62728; stroke-width: 1.5; stroke-linecap: square"/>
    </g>
    <g id="text_14">
     <!-- 3.6 -->
     <g transform="translate(127 103.832812)scale(0.1 -0.1)">
      <use xlink:href="#DejaVuSans-33"/>
      <use xlink:href="#DejaVuSans-2e" x="63.623047"/>
      <use xlink:href="#DejaVuSans-36" x="95.410156"/>
     </g>
    </g>
    <g id="line2d_64">
     <path d="M 99 115.010937 
L 109 115.010937 
L 119 115.010937 
" style="fill: none; stroke-dasharray: 5.55,2.4; stroke-dashoffset: 0; stroke: #9467bd; stroke-width: 1.5"/>
    </g>
    <g id="text_15">
     <!-- 3.3, 3.4, 3.5 -->
     <g transform="translate(127 118.510937)scale(0.1 -0.1)">
      <defs>
       <path id="DejaVuSans-34" d="M 2419 4116 
L 825 1625 
L 2419 1625 
L 2419 4116 
z
M 2253 4666 
L 3047 4666 
L 3047 1625 
L 3713 1625 
L 3713 1100 
L 3047 1100 
L 3047 0 
L 2419 0 
L 2419 1100 
L 313 1100 
L 313 1709 
L 2253 4666 
z
" transform="scale(0.015625)"/>
      </defs>
      <use xlink:href="#DejaVuSans-33"/>
      <use xlink:href="#DejaVuSans-2e" x="63.623047"/>
      <use xlink:href="#DejaVuSans-33" x="95.410156"/>
      <use xlink:href="#DejaVuSans-2c" x="159.033203"/>
      <use xlink:href="#DejaVuSans-20" x="190.820312"/>
      <use xlink:href="#DejaVuSans-33" x="222.607422"/>
      <use xlink:href="#DejaVuSans-2e" x="286.230469"/>
      <use xlink:href="#DejaVuSans-34" x="318.017578"/>
      <use xlink:href="#DejaVuSans-2c" x="381.640625"/>
      <use xlink:href="#DejaVuSans-20" x="413.427734"/>
      <use xlink:href="#DejaVuSans-33" x="445.214844"/>
      <use xlink:href="#DejaVuSans-2e" x="508.837891"/>
      <use xlink:href="#DejaVuSans-35" x="540.625"/>
     </g>
    </g>
    <g id="line2d_65">
     <path d="M 99 129.689062 
L 109 129.689062 
L 119 129.689062 
" style="fill: none; stroke-dasharray: 9.6,2.4,1.5,2.4; stroke-dashoffset: 0; stroke: #8c564b; stroke-width: 1.5"/>
    </g>
    <g id="text_16">
     <!-- 2.7 -->
     <g transform="translate(127 133.189062)scale(0.1 -0.1)">
      <use xlink:href="#DejaVuSans-32"/>
      <use xlink:href="#DejaVuSans-2e" x="63.623047"/>
      <use xlink:href="#DejaVuSans-37" x="95.410156"/>
     </g>
    </g>
   </g>
  </g>
 </g>
 <defs>
  <clipPath id="pcc8d6d813b">
   <rect x="90" y="43.2" width="558" height="271.8"/>
  </clipPath>
 </defs>
</svg>
