<?xml version="1.0" encoding="utf-8" standalone="no"?>
<!DOCTYPE svg PUBLIC "-//W3C//DTD SVG 1.1//EN"
  "http://www.w3.org/Graphics/SVG/1.1/DTD/svg11.dtd">
<svg xmlns:xlink="http://www.w3.org/1999/xlink" width="720pt" height="360pt" viewBox="0 0 720 360" xmlns="http://www.w3.org/2000/svg" version="1.1">
 <metadata>
  <rdf:RDF xmlns:dc="http://purl.org/dc/elements/1.1/" xmlns:cc="http://creativecommons.org/ns#" xmlns:rdf="http://www.w3.org/1999/02/22-rdf-syntax-ns#">
   <cc:Work>
    <dc:type rdf:resource="http://purl.org/dc/dcmitype/StillImage"/>
    <dc:date>2022-07-17T13:25:45.759140</dc:date>
    <dc:format>image/svg+xml</dc:format>
    <dc:creator>
     <cc:Agent>
      <dc:title>Matplotlib v3.5.2, https://matplotlib.org/</dc:title>
     </cc:Agent>
    </dc:creator>
   </cc:Work>
  </rdf:RDF>
 </metadata>
 <defs>
  <style type="text/css">*{stroke-linejoin: round; stroke-linecap: butt}</style>
 </defs>
 <g id="figure_1">
  <g id="patch_1">
   <path d="M 0 360 
L 720 360 
L 720 0 
L 0 0 
L 0 360 
z
" style="fill: none"/>
  </g>
  <g id="axes_1">
   <g id="patch_2">
    <path d="M 90 315 
L 648 315 
L 648 43.2 
L 90 43.2 
z
" style="fill: #ffffff"/>
   </g>
   <g id="matplotlib.axis_1">
    <g id="xtick_1">
     <g id="line2d_1">
      <defs>
       <path id="mec1497611a" d="M 0 0 
L 0 3.5 
" style="stroke: #000000; stroke-width: 0.8"/>
      </defs>
      <g>
       <use xlink:href="#mec1497611a" x="90" y="315" style="stroke: #000000; stroke-width: 0.8"/>
      </g>
     </g>
    </g>
    <g id="xtick_2">
     <g id="line2d_2">
      <g>
       <use xlink:href="#mec1497611a" x="206.544304" y="315" style="stroke: #000000; stroke-width: 0.8"/>
      </g>
     </g>
     <g id="text_1">
      <!-- 2019 -->
      <g transform="translate(193.819304 329.598437)scale(0.1 -0.1)">
       <defs>
        <path id="DejaVuSans-32" d="M 1228 531 
L 3431 531 
L 3431 0 
L 469 0 
L 469 531 
Q 828 903 1448 1529 
Q 2069 2156 2228 2338 
Q 2531 2678 2651 2914 
Q 2772 3150 2772 3378 
Q 2772 3750 2511 3984 
Q 2250 4219 1831 4219 
Q 1534 4219 1204 4116 
Q 875 4013 500 3803 
L 500 4441 
Q 881 4594 1212 4672 
Q 1544 4750 1819 4750 
Q 2544 4750 2975 4387 
Q 3406 4025 3406 3419 
Q 3406 3131 3298 2873 
Q 3191 2616 2906 2266 
Q 2828 2175 2409 1742 
Q 1991 1309 1228 531 
z
" transform="scale(0.015625)"/>
        <path id="DejaVuSans-30" d="M 2034 4250 
Q 1547 4250 1301 3770 
Q 1056 3291 1056 2328 
Q 1056 1369 1301 889 
Q 1547 409 2034 409 
Q 2525 409 2770 889 
Q 3016 1369 3016 2328 
Q 3016 3291 2770 3770 
Q 2525 4250 2034 4250 
z
M 2034 4750 
Q 2819 4750 3233 4129 
Q 3647 3509 3647 2328 
Q 3647 1150 3233 529 
Q 2819 -91 2034 -91 
Q 1250 -91 836 529 
Q 422 1150 422 2328 
Q 422 3509 836 4129 
Q 1250 4750 2034 4750 
z
" transform="scale(0.015625)"/>
        <path id="DejaVuSans-31" d="M 794 531 
L 1825 531 
L 1825 4091 
L 703 3866 
L 703 4441 
L 1819 4666 
L 2450 4666 
L 2450 531 
L 3481 531 
L 3481 0 
L 794 0 
L 794 531 
z
" transform="scale(0.015625)"/>
        <path id="DejaVuSans-39" d="M 703 97 
L 703 672 
Q 941 559 1184 500 
Q 1428 441 1663 441 
Q 2288 441 2617 861 
Q 2947 1281 2994 2138 
Q 2813 1869 2534 1725 
Q 2256 1581 1919 1581 
Q 1219 1581 811 2004 
Q 403 2428 403 3163 
Q 403 3881 828 4315 
Q 1253 4750 1959 4750 
Q 2769 4750 3195 4129 
Q 3622 3509 3622 2328 
Q 3622 1225 3098 567 
Q 2575 -91 1691 -91 
Q 1453 -91 1209 -44 
Q 966 3 703 97 
z
M 1959 2075 
Q 2384 2075 2632 2365 
Q 2881 2656 2881 3163 
Q 2881 3666 2632 3958 
Q 2384 4250 1959 4250 
Q 1534 4250 1286 3958 
Q 1038 3666 1038 3163 
Q 1038 2656 1286 2365 
Q 1534 2075 1959 2075 
z
" transform="scale(0.015625)"/>
       </defs>
       <use xlink:href="#DejaVuSans-32"/>
       <use xlink:href="#DejaVuSans-30" x="63.623047"/>
       <use xlink:href="#DejaVuSans-31" x="127.246094"/>
       <use xlink:href="#DejaVuSans-39" x="190.869141"/>
      </g>
     </g>
    </g>
    <g id="xtick_3">
     <g id="line2d_3">
      <g>
       <use xlink:href="#mec1497611a" x="335.449367" y="315" style="stroke: #000000; stroke-width: 0.8"/>
      </g>
     </g>
     <g id="text_2">
      <!-- 2020 -->
      <g transform="translate(322.724367 329.598437)scale(0.1 -0.1)">
       <use xlink:href="#DejaVuSans-32"/>
       <use xlink:href="#DejaVuSans-30" x="63.623047"/>
       <use xlink:href="#DejaVuSans-32" x="127.246094"/>
       <use xlink:href="#DejaVuSans-30" x="190.869141"/>
      </g>
     </g>
    </g>
    <g id="xtick_4">
     <g id="line2d_4">
      <g>
       <use xlink:href="#mec1497611a" x="464.707595" y="315" style="stroke: #000000; stroke-width: 0.8"/>
      </g>
     </g>
     <g id="text_3">
      <!-- 2021 -->
      <g transform="translate(451.982595 329.598437)scale(0.1 -0.1)">
       <use xlink:href="#DejaVuSans-32"/>
       <use xlink:href="#DejaVuSans-30" x="63.623047"/>
       <use xlink:href="#DejaVuSans-32" x="127.246094"/>
       <use xlink:href="#DejaVuSans-31" x="190.869141"/>
      </g>
     </g>
    </g>
    <g id="xtick_5">
     <g id="line2d_5">
      <g>
       <use xlink:href="#mec1497611a" x="593.612658" y="315" style="stroke: #000000; stroke-width: 0.8"/>
      </g>
     </g>
     <g id="text_4">
      <!-- 2022 -->
      <g transform="translate(580.887658 329.598437)scale(0.1 -0.1)">
       <use xlink:href="#DejaVuSans-32"/>
       <use xlink:href="#DejaVuSans-30" x="63.623047"/>
       <use xlink:href="#DejaVuSans-32" x="127.246094"/>
       <use xlink:href="#DejaVuSans-32" x="190.869141"/>
      </g>
     </g>
    </g>
    <g id="xtick_6">
     <g id="line2d_6">
      <g>
       <use xlink:href="#mec1497611a" x="648" y="315" style="stroke: #000000; stroke-width: 0.8"/>
      </g>
     </g>
    </g>
    <g id="xtick_7">
     <g id="line2d_7">
      <defs>
       <path id="m8b16f25a60" d="M 0 0 
L 0 2 
" style="stroke: #000000; stroke-width: 0.6"/>
      </defs>
      <g>
       <use xlink:href="#m8b16f25a60" x="109.424051" y="315" style="stroke: #000000; stroke-width: 0.6"/>
      </g>
     </g>
    </g>
    <g id="xtick_8">
     <g id="line2d_8">
      <g>
       <use xlink:href="#m8b16f25a60" x="141.562025" y="315" style="stroke: #000000; stroke-width: 0.6"/>
      </g>
     </g>
    </g>
    <g id="xtick_9">
     <g id="line2d_9">
      <g>
       <use xlink:href="#m8b16f25a60" x="174.053165" y="315" style="stroke: #000000; stroke-width: 0.6"/>
      </g>
     </g>
    </g>
    <g id="xtick_10">
     <g id="line2d_10">
      <g>
       <use xlink:href="#m8b16f25a60" x="238.329114" y="315" style="stroke: #000000; stroke-width: 0.6"/>
      </g>
     </g>
    </g>
    <g id="xtick_11">
     <g id="line2d_11">
      <g>
       <use xlink:href="#m8b16f25a60" x="270.467089" y="315" style="stroke: #000000; stroke-width: 0.6"/>
      </g>
     </g>
    </g>
    <g id="xtick_12">
     <g id="line2d_12">
      <g>
       <use xlink:href="#m8b16f25a60" x="302.958228" y="315" style="stroke: #000000; stroke-width: 0.6"/>
      </g>
     </g>
    </g>
    <g id="xtick_13">
     <g id="line2d_13">
      <g>
       <use xlink:href="#m8b16f25a60" x="367.587342" y="315" style="stroke: #000000; stroke-width: 0.6"/>
      </g>
     </g>
    </g>
    <g id="xtick_14">
     <g id="line2d_14">
      <g>
       <use xlink:href="#m8b16f25a60" x="399.725316" y="315" style="stroke: #000000; stroke-width: 0.6"/>
      </g>
     </g>
    </g>
    <g id="xtick_15">
     <g id="line2d_15">
      <g>
       <use xlink:href="#m8b16f25a60" x="432.216456" y="315" style="stroke: #000000; stroke-width: 0.6"/>
      </g>
     </g>
    </g>
    <g id="xtick_16">
     <g id="line2d_16">
      <g>
       <use xlink:href="#m8b16f25a60" x="496.492405" y="315" style="stroke: #000000; stroke-width: 0.6"/>
      </g>
     </g>
    </g>
    <g id="xtick_17">
     <g id="line2d_17">
      <g>
       <use xlink:href="#m8b16f25a60" x="528.63038" y="315" style="stroke: #000000; stroke-width: 0.6"/>
      </g>
     </g>
    </g>
    <g id="xtick_18">
     <g id="line2d_18">
      <g>
       <use xlink:href="#m8b16f25a60" x="561.121519" y="315" style="stroke: #000000; stroke-width: 0.6"/>
      </g>
     </g>
    </g>
    <g id="xtick_19">
     <g id="line2d_19">
      <g>
       <use xlink:href="#m8b16f25a60" x="625.397468" y="315" style="stroke: #000000; stroke-width: 0.6"/>
      </g>
     </g>
    </g>
   </g>
   <g id="matplotlib.axis_2">
    <g id="ytick_1">
     <g id="line2d_20">
      <defs>
       <path id="m19e1c2357d" d="M 0 0 
L -3.5 0 
" style="stroke: #000000; stroke-width: 0.8"/>
      </defs>
      <g>
       <use xlink:href="#m19e1c2357d" x="90" y="315" style="stroke: #000000; stroke-width: 0.8"/>
      </g>
     </g>
     <g id="text_5">
      <!-- 0.00 -->
      <g transform="translate(60.734375 318.799219)scale(0.1 -0.1)">
       <defs>
        <path id="DejaVuSans-2e" d="M 684 794 
L 1344 794 
L 1344 0 
L 684 0 
L 684 794 
z
" transform="scale(0.015625)"/>
       </defs>
       <use xlink:href="#DejaVuSans-30"/>
       <use xlink:href="#DejaVuSans-2e" x="63.623047"/>
       <use xlink:href="#DejaVuSans-30" x="95.410156"/>
       <use xlink:href="#DejaVuSans-30" x="159.033203"/>
      </g>
     </g>
    </g>
    <g id="ytick_2">
     <g id="line2d_21">
      <g>
       <use xlink:href="#m19e1c2357d" x="90" y="281.025" style="stroke: #000000; stroke-width: 0.8"/>
      </g>
     </g>
     <g id="text_6">
      <!-- 0.25 -->
      <g transform="translate(60.734375 284.824219)scale(0.1 -0.1)">
       <defs>
        <path id="DejaVuSans-35" d="M 691 4666 
L 3169 4666 
L 3169 4134 
L 1269 4134 
L 1269 2991 
Q 1406 3038 1543 3061 
Q 1681 3084 1819 3084 
Q 2600 3084 3056 2656 
Q 3513 2228 3513 1497 
Q 3513 744 3044 326 
Q 2575 -91 1722 -91 
Q 1428 -91 1123 -41 
Q 819 9 494 109 
L 494 744 
Q 775 591 1075 516 
Q 1375 441 1709 441 
Q 2250 441 2565 725 
Q 2881 1009 2881 1497 
Q 2881 1984 2565 2268 
Q 2250 2553 1709 2553 
Q 1456 2553 1204 2497 
Q 953 2441 691 2322 
L 691 4666 
z
" transform="scale(0.015625)"/>
       </defs>
       <use xlink:href="#DejaVuSans-30"/>
       <use xlink:href="#DejaVuSans-2e" x="63.623047"/>
       <use xlink:href="#DejaVuSans-32" x="95.410156"/>
       <use xlink:href="#DejaVuSans-35" x="159.033203"/>
      </g>
     </g>
    </g>
    <g id="ytick_3">
     <g id="line2d_22">
      <g>
       <use xlink:href="#m19e1c2357d" x="90" y="247.05" style="stroke: #000000; stroke-width: 0.8"/>
      </g>
     </g>
     <g id="text_7">
      <!-- 0.50 -->
      <g transform="translate(60.734375 250.849219)scale(0.1 -0.1)">
       <use xlink:href="#DejaVuSans-30"/>
       <use xlink:href="#DejaVuSans-2e" x="63.623047"/>
       <use xlink:href="#DejaVuSans-35" x="95.410156"/>
       <use xlink:href="#DejaVuSans-30" x="159.033203"/>
      </g>
     </g>
    </g>
    <g id="ytick_4">
     <g id="line2d_23">
      <g>
       <use xlink:href="#m19e1c2357d" x="90" y="213.075" style="stroke: #000000; stroke-width: 0.8"/>
      </g>
     </g>
     <g id="text_8">
      <!-- 0.75 -->
      <g transform="translate(60.734375 216.874219)scale(0.1 -0.1)">
       <defs>
        <path id="DejaVuSans-37" d="M 525 4666 
L 3525 4666 
L 3525 4397 
L 1831 0 
L 1172 0 
L 2766 4134 
L 525 4134 
L 525 4666 
z
" transform="scale(0.015625)"/>
       </defs>
       <use xlink:href="#DejaVuSans-30"/>
       <use xlink:href="#DejaVuSans-2e" x="63.623047"/>
       <use xlink:href="#DejaVuSans-37" x="95.410156"/>
       <use xlink:href="#DejaVuSans-35" x="159.033203"/>
      </g>
     </g>
    </g>
    <g id="ytick_5">
     <g id="line2d_24">
      <g>
       <use xlink:href="#m19e1c2357d" x="90" y="179.1" style="stroke: #000000; stroke-width: 0.8"/>
      </g>
     </g>
     <g id="text_9">
      <!-- 1.00 -->
      <g transform="translate(60.734375 182.899219)scale(0.1 -0.1)">
       <use xlink:href="#DejaVuSans-31"/>
       <use xlink:href="#DejaVuSans-2e" x="63.623047"/>
       <use xlink:href="#DejaVuSans-30" x="95.410156"/>
       <use xlink:href="#DejaVuSans-30" x="159.033203"/>
      </g>
     </g>
    </g>
    <g id="ytick_6">
     <g id="line2d_25">
      <g>
       <use xlink:href="#m19e1c2357d" x="90" y="145.125" style="stroke: #000000; stroke-width: 0.8"/>
      </g>
     </g>
     <g id="text_10">
      <!-- 1.25 -->
      <g transform="translate(60.734375 148.924219)scale(0.1 -0.1)">
       <use xlink:href="#DejaVuSans-31"/>
       <use xlink:href="#DejaVuSans-2e" x="63.623047"/>
       <use xlink:href="#DejaVuSans-32" x="95.410156"/>
       <use xlink:href="#DejaVuSans-35" x="159.033203"/>
      </g>
     </g>
    </g>
    <g id="ytick_7">
     <g id="line2d_26">
      <g>
       <use xlink:href="#m19e1c2357d" x="90" y="111.15" style="stroke: #000000; stroke-width: 0.8"/>
      </g>
     </g>
     <g id="text_11">
      <!-- 1.50 -->
      <g transform="translate(60.734375 114.949219)scale(0.1 -0.1)">
       <use xlink:href="#DejaVuSans-31"/>
       <use xlink:href="#DejaVuSans-2e" x="63.623047"/>
       <use xlink:href="#DejaVuSans-35" x="95.410156"/>
       <use xlink:href="#DejaVuSans-30" x="159.033203"/>
      </g>
     </g>
    </g>
    <g id="ytick_8">
     <g id="line2d_27">
      <g>
       <use xlink:href="#m19e1c2357d" x="90" y="77.175" style="stroke: #000000; stroke-width: 0.8"/>
      </g>
     </g>
     <g id="text_12">
      <!-- 1.75 -->
      <g transform="translate(60.734375 80.974219)scale(0.1 -0.1)">
       <use xlink:href="#DejaVuSans-31"/>
       <use xlink:href="#DejaVuSans-2e" x="63.623047"/>
       <use xlink:href="#DejaVuSans-37" x="95.410156"/>
       <use xlink:href="#DejaVuSans-35" x="159.033203"/>
      </g>
     </g>
    </g>
    <g id="ytick_9">
     <g id="line2d_28">
      <g>
       <use xlink:href="#m19e1c2357d" x="90" y="43.2" style="stroke: #000000; stroke-width: 0.8"/>
      </g>
     </g>
     <g id="text_13">
      <!-- 2.00 -->
      <g transform="translate(60.734375 46.999219)scale(0.1 -0.1)">
       <use xlink:href="#DejaVuSans-32"/>
       <use xlink:href="#DejaVuSans-2e" x="63.623047"/>
       <use xlink:href="#DejaVuSans-30" x="95.410156"/>
       <use xlink:href="#DejaVuSans-30" x="159.033203"/>
      </g>
     </g>
    </g>
    <g id="text_14">
     <!-- Number of pip-installs per month -->
     <g transform="translate(54.654687 262.00625)rotate(-90)scale(0.1 -0.1)">
      <defs>
       <path id="DejaVuSans-4e" d="M 628 4666 
L 1478 4666 
L 3547 763 
L 3547 4666 
L 4159 4666 
L 4159 0 
L 3309 0 
L 1241 3903 
L 1241 0 
L 628 0 
L 628 4666 
z
" transform="scale(0.015625)"/>
       <path id="DejaVuSans-75" d="M 544 1381 
L 544 3500 
L 1119 3500 
L 1119 1403 
Q 1119 906 1312 657 
Q 1506 409 1894 409 
Q 2359 409 2629 706 
Q 2900 1003 2900 1516 
L 2900 3500 
L 3475 3500 
L 3475 0 
L 2900 0 
L 2900 538 
Q 2691 219 2414 64 
Q 2138 -91 1772 -91 
Q 1169 -91 856 284 
Q 544 659 544 1381 
z
M 1991 3584 
L 1991 3584 
z
" transform="scale(0.015625)"/>
       <path id="DejaVuSans-6d" d="M 3328 2828 
Q 3544 3216 3844 3400 
Q 4144 3584 4550 3584 
Q 5097 3584 5394 3201 
Q 5691 2819 5691 2113 
L 5691 0 
L 5113 0 
L 5113 2094 
Q 5113 2597 4934 2840 
Q 4756 3084 4391 3084 
Q 3944 3084 3684 2787 
Q 3425 2491 3425 1978 
L 3425 0 
L 2847 0 
L 2847 2094 
Q 2847 2600 2669 2842 
Q 2491 3084 2119 3084 
Q 1678 3084 1418 2786 
Q 1159 2488 1159 1978 
L 1159 0 
L 581 0 
L 581 3500 
L 1159 3500 
L 1159 2956 
Q 1356 3278 1631 3431 
Q 1906 3584 2284 3584 
Q 2666 3584 2933 3390 
Q 3200 3197 3328 2828 
z
" transform="scale(0.015625)"/>
       <path id="DejaVuSans-62" d="M 3116 1747 
Q 3116 2381 2855 2742 
Q 2594 3103 2138 3103 
Q 1681 3103 1420 2742 
Q 1159 2381 1159 1747 
Q 1159 1113 1420 752 
Q 1681 391 2138 391 
Q 2594 391 2855 752 
Q 3116 1113 3116 1747 
z
M 1159 2969 
Q 1341 3281 1617 3432 
Q 1894 3584 2278 3584 
Q 2916 3584 3314 3078 
Q 3713 2572 3713 1747 
Q 3713 922 3314 415 
Q 2916 -91 2278 -91 
Q 1894 -91 1617 61 
Q 1341 213 1159 525 
L 1159 0 
L 581 0 
L 581 4863 
L 1159 4863 
L 1159 2969 
z
" transform="scale(0.015625)"/>
       <path id="DejaVuSans-65" d="M 3597 1894 
L 3597 1613 
L 953 1613 
Q 991 1019 1311 708 
Q 1631 397 2203 397 
Q 2534 397 2845 478 
Q 3156 559 3463 722 
L 3463 178 
Q 3153 47 2828 -22 
Q 2503 -91 2169 -91 
Q 1331 -91 842 396 
Q 353 884 353 1716 
Q 353 2575 817 3079 
Q 1281 3584 2069 3584 
Q 2775 3584 3186 3129 
Q 3597 2675 3597 1894 
z
M 3022 2063 
Q 3016 2534 2758 2815 
Q 2500 3097 2075 3097 
Q 1594 3097 1305 2825 
Q 1016 2553 972 2059 
L 3022 2063 
z
" transform="scale(0.015625)"/>
       <path id="DejaVuSans-72" d="M 2631 2963 
Q 2534 3019 2420 3045 
Q 2306 3072 2169 3072 
Q 1681 3072 1420 2755 
Q 1159 2438 1159 1844 
L 1159 0 
L 581 0 
L 581 3500 
L 1159 3500 
L 1159 2956 
Q 1341 3275 1631 3429 
Q 1922 3584 2338 3584 
Q 2397 3584 2469 3576 
Q 2541 3569 2628 3553 
L 2631 2963 
z
" transform="scale(0.015625)"/>
       <path id="DejaVuSans-20" transform="scale(0.015625)"/>
       <path id="DejaVuSans-6f" d="M 1959 3097 
Q 1497 3097 1228 2736 
Q 959 2375 959 1747 
Q 959 1119 1226 758 
Q 1494 397 1959 397 
Q 2419 397 2687 759 
Q 2956 1122 2956 1747 
Q 2956 2369 2687 2733 
Q 2419 3097 1959 3097 
z
M 1959 3584 
Q 2709 3584 3137 3096 
Q 3566 2609 3566 1747 
Q 3566 888 3137 398 
Q 2709 -91 1959 -91 
Q 1206 -91 779 398 
Q 353 888 353 1747 
Q 353 2609 779 3096 
Q 1206 3584 1959 3584 
z
" transform="scale(0.015625)"/>
       <path id="DejaVuSans-66" d="M 2375 4863 
L 2375 4384 
L 1825 4384 
Q 1516 4384 1395 4259 
Q 1275 4134 1275 3809 
L 1275 3500 
L 2222 3500 
L 2222 3053 
L 1275 3053 
L 1275 0 
L 697 0 
L 697 3053 
L 147 3053 
L 147 3500 
L 697 3500 
L 697 3744 
Q 697 4328 969 4595 
Q 1241 4863 1831 4863 
L 2375 4863 
z
" transform="scale(0.015625)"/>
       <path id="DejaVuSans-70" d="M 1159 525 
L 1159 -1331 
L 581 -1331 
L 581 3500 
L 1159 3500 
L 1159 2969 
Q 1341 3281 1617 3432 
Q 1894 3584 2278 3584 
Q 2916 3584 3314 3078 
Q 3713 2572 3713 1747 
Q 3713 922 3314 415 
Q 2916 -91 2278 -91 
Q 1894 -91 1617 61 
Q 1341 213 1159 525 
z
M 3116 1747 
Q 3116 2381 2855 2742 
Q 2594 3103 2138 3103 
Q 1681 3103 1420 2742 
Q 1159 2381 1159 1747 
Q 1159 1113 1420 752 
Q 1681 391 2138 391 
Q 2594 391 2855 752 
Q 3116 1113 3116 1747 
z
" transform="scale(0.015625)"/>
       <path id="DejaVuSans-69" d="M 603 3500 
L 1178 3500 
L 1178 0 
L 603 0 
L 603 3500 
z
M 603 4863 
L 1178 4863 
L 1178 4134 
L 603 4134 
L 603 4863 
z
" transform="scale(0.015625)"/>
       <path id="DejaVuSans-2d" d="M 313 2009 
L 1997 2009 
L 1997 1497 
L 313 1497 
L 313 2009 
z
" transform="scale(0.015625)"/>
       <path id="DejaVuSans-6e" d="M 3513 2113 
L 3513 0 
L 2938 0 
L 2938 2094 
Q 2938 2591 2744 2837 
Q 2550 3084 2163 3084 
Q 1697 3084 1428 2787 
Q 1159 2491 1159 1978 
L 1159 0 
L 581 0 
L 581 3500 
L 1159 3500 
L 1159 2956 
Q 1366 3272 1645 3428 
Q 1925 3584 2291 3584 
Q 2894 3584 3203 3211 
Q 3513 2838 3513 2113 
z
" transform="scale(0.015625)"/>
       <path id="DejaVuSans-73" d="M 2834 3397 
L 2834 2853 
Q 2591 2978 2328 3040 
Q 2066 3103 1784 3103 
Q 1356 3103 1142 2972 
Q 928 2841 928 2578 
Q 928 2378 1081 2264 
Q 1234 2150 1697 2047 
L 1894 2003 
Q 2506 1872 2764 1633 
Q 3022 1394 3022 966 
Q 3022 478 2636 193 
Q 2250 -91 1575 -91 
Q 1294 -91 989 -36 
Q 684 19 347 128 
L 347 722 
Q 666 556 975 473 
Q 1284 391 1588 391 
Q 1994 391 2212 530 
Q 2431 669 2431 922 
Q 2431 1156 2273 1281 
Q 2116 1406 1581 1522 
L 1381 1569 
Q 847 1681 609 1914 
Q 372 2147 372 2553 
Q 372 3047 722 3315 
Q 1072 3584 1716 3584 
Q 2034 3584 2315 3537 
Q 2597 3491 2834 3397 
z
" transform="scale(0.015625)"/>
       <path id="DejaVuSans-74" d="M 1172 4494 
L 1172 3500 
L 2356 3500 
L 2356 3053 
L 1172 3053 
L 1172 1153 
Q 1172 725 1289 603 
Q 1406 481 1766 481 
L 2356 481 
L 2356 0 
L 1766 0 
Q 1100 0 847 248 
Q 594 497 594 1153 
L 594 3053 
L 172 3053 
L 172 3500 
L 594 3500 
L 594 4494 
L 1172 4494 
z
" transform="scale(0.015625)"/>
       <path id="DejaVuSans-61" d="M 2194 1759 
Q 1497 1759 1228 1600 
Q 959 1441 959 1056 
Q 959 750 1161 570 
Q 1363 391 1709 391 
Q 2188 391 2477 730 
Q 2766 1069 2766 1631 
L 2766 1759 
L 2194 1759 
z
M 3341 1997 
L 3341 0 
L 2766 0 
L 2766 531 
Q 2569 213 2275 61 
Q 1981 -91 1556 -91 
Q 1019 -91 701 211 
Q 384 513 384 1019 
Q 384 1609 779 1909 
Q 1175 2209 1959 2209 
L 2766 2209 
L 2766 2266 
Q 2766 2663 2505 2880 
Q 2244 3097 1772 3097 
Q 1472 3097 1187 3025 
Q 903 2953 641 2809 
L 641 3341 
Q 956 3463 1253 3523 
Q 1550 3584 1831 3584 
Q 2591 3584 2966 3190 
Q 3341 2797 3341 1997 
z
" transform="scale(0.015625)"/>
       <path id="DejaVuSans-6c" d="M 603 4863 
L 1178 4863 
L 1178 0 
L 603 0 
L 603 4863 
z
" transform="scale(0.015625)"/>
       <path id="DejaVuSans-68" d="M 3513 2113 
L 3513 0 
L 2938 0 
L 2938 2094 
Q 2938 2591 2744 2837 
Q 2550 3084 2163 3084 
Q 1697 3084 1428 2787 
Q 1159 2491 1159 1978 
L 1159 0 
L 581 0 
L 581 4863 
L 1159 4863 
L 1159 2956 
Q 1366 3272 1645 3428 
Q 1925 3584 2291 3584 
Q 2894 3584 3203 3211 
Q 3513 2838 3513 2113 
z
" transform="scale(0.015625)"/>
      </defs>
      <use xlink:href="#DejaVuSans-4e"/>
      <use xlink:href="#DejaVuSans-75" x="74.804688"/>
      <use xlink:href="#DejaVuSans-6d" x="138.183594"/>
      <use xlink:href="#DejaVuSans-62" x="235.595703"/>
      <use xlink:href="#DejaVuSans-65" x="299.072266"/>
      <use xlink:href="#DejaVuSans-72" x="360.595703"/>
      <use xlink:href="#DejaVuSans-20" x="401.708984"/>
      <use xlink:href="#DejaVuSans-6f" x="433.496094"/>
      <use xlink:href="#DejaVuSans-66" x="494.677734"/>
      <use xlink:href="#DejaVuSans-20" x="529.882812"/>
      <use xlink:href="#DejaVuSans-70" x="561.669922"/>
      <use xlink:href="#DejaVuSans-69" x="625.146484"/>
      <use xlink:href="#DejaVuSans-70" x="652.929688"/>
      <use xlink:href="#DejaVuSans-2d" x="716.40625"/>
      <use xlink:href="#DejaVuSans-69" x="752.490234"/>
      <use xlink:href="#DejaVuSans-6e" x="780.273438"/>
      <use xlink:href="#DejaVuSans-73" x="843.652344"/>
      <use xlink:href="#DejaVuSans-74" x="895.751953"/>
      <use xlink:href="#DejaVuSans-61" x="934.960938"/>
      <use xlink:href="#DejaVuSans-6c" x="996.240234"/>
      <use xlink:href="#DejaVuSans-6c" x="1024.023438"/>
      <use xlink:href="#DejaVuSans-73" x="1051.806641"/>
      <use xlink:href="#DejaVuSans-20" x="1103.90625"/>
      <use xlink:href="#DejaVuSans-70" x="1135.693359"/>
      <use xlink:href="#DejaVuSans-65" x="1199.169922"/>
      <use xlink:href="#DejaVuSans-72" x="1260.693359"/>
      <use xlink:href="#DejaVuSans-20" x="1301.806641"/>
      <use xlink:href="#DejaVuSans-6d" x="1333.59375"/>
      <use xlink:href="#DejaVuSans-6f" x="1431.005859"/>
      <use xlink:href="#DejaVuSans-6e" x="1492.1875"/>
      <use xlink:href="#DejaVuSans-74" x="1555.566406"/>
      <use xlink:href="#DejaVuSans-68" x="1594.775391"/>
     </g>
    </g>
    <g id="text_15">
     <!-- 1e7 -->
     <g transform="translate(90 40.2)scale(0.1 -0.1)">
      <use xlink:href="#DejaVuSans-31"/>
      <use xlink:href="#DejaVuSans-65" x="63.623047"/>
      <use xlink:href="#DejaVuSans-37" x="125.146484"/>
     </g>
    </g>
   </g>
   <g id="line2d_29">
    <path d="M 107.658228 315 
L 429.037975 314.947008 
L 432.56962 314.701092 
L 436.101266 314.235621 
L 443.164557 313.011525 
L 450.227848 311.679977 
L 453.759494 311.154098 
L 457.291139 310.868624 
L 460.822785 310.756706 
L 467.886076 310.074395 
L 474.949367 309.010425 
L 485.544304 307.210783 
L 503.202532 304.925484 
L 506.734177 304.666026 
L 510.265823 304.084136 
L 513.797468 303.649813 
L 517.329114 303.338706 
L 520.860759 302.614488 
L 524.392405 302.341064 
L 527.924051 301.510623 
L 531.455696 301.407663 
L 534.987342 300.801952 
L 542.050633 300.348281 
L 545.582278 299.489858 
L 549.113924 299.205491 
L 552.64557 298.175553 
L 556.177215 297.832229 
L 559.708861 296.782295 
L 566.772152 295.672769 
L 570.303797 294.799369 
L 573.835443 294.568178 
L 577.367089 293.569381 
L 580.898734 293.682746 
L 584.43038 292.759363 
L 587.962025 292.916807 
L 591.493671 293.7923 
L 595.025316 292.992494 
L 598.556962 293.018744 
L 602.088608 291.666992 
L 605.620253 290.690192 
L 609.151899 287.6181 
L 612.683544 284.256645 
L 616.21519 281.800298 
L 619.746835 278.765239 
L 623.278481 276.546998 
L 626.810127 272.859433 
L 630.341772 272.972979 
L 633.873418 271.283029 
L 640.936709 263.932377 
L 644.468354 259.68063 
L 648 260.170248 
L 651.531646 259.604716 
L 655.063291 260.48362 
L 658.594937 262.657576 
L 662.126582 271.02245 
L 662.126582 271.02245 
" clip-path="url(#p0f30ec9160)" style="fill: none; stroke: #1f77b4; stroke-width: 1.5; stroke-linecap: square"/>
   </g>
   <g id="line2d_30">
    <path d="M 107.658228 314.999937 
L 305.43038 314.909935 
L 312.493671 314.383481 
L 319.556962 313.719532 
L 326.620253 312.99304 
L 330.151899 312.814597 
L 333.683544 312.77223 
L 347.810127 311.724762 
L 351.341772 311.343407 
L 354.873418 310.237539 
L 358.405063 309.923963 
L 361.936709 309.025107 
L 365.468354 308.434861 
L 369 307.994561 
L 372.531646 307.335312 
L 376.063291 307.29979 
L 379.594937 306.379691 
L 383.126582 306.183508 
L 386.658228 305.526336 
L 390.189873 304.428674 
L 397.253165 302.938726 
L 400.78481 302.864042 
L 404.316456 302.088766 
L 407.848101 299.881336 
L 411.379747 297.847855 
L 414.911392 295.641942 
L 421.974684 288.835696 
L 425.506329 285.754895 
L 429.037975 283.796327 
L 432.56962 282.808651 
L 436.101266 281.429155 
L 439.632911 281.259509 
L 443.164557 280.091786 
L 446.696203 279.226991 
L 450.227848 279.526834 
L 453.759494 278.142477 
L 457.291139 277.872546 
L 460.822785 277.926688 
L 464.35443 278.175152 
L 467.886076 278.687216 
L 471.417722 276.809778 
L 474.949367 276.407258 
L 478.481013 275.668098 
L 485.544304 276.34262 
L 489.075949 275.761289 
L 496.139241 277.332753 
L 499.670886 278.45736 
L 503.202532 277.162518 
L 506.734177 276.396212 
L 510.265823 275.101962 
L 513.797468 274.664373 
L 517.329114 273.199513 
L 520.860759 270.503094 
L 524.392405 270.01561 
L 527.924051 268.51201 
L 531.455696 269.705925 
L 534.987342 269.935936 
L 538.518987 271.136415 
L 542.050633 271.666693 
L 545.582278 271.232723 
L 549.113924 272.618024 
L 552.64557 270.882776 
L 556.177215 270.628856 
L 559.708861 268.644209 
L 563.240506 268.290891 
L 566.772152 266.674064 
L 570.303797 263.412534 
L 573.835443 262.997294 
L 577.367089 260.277575 
L 580.898734 259.264764 
L 584.43038 256.415462 
L 587.962025 256.670239 
L 591.493671 258.189784 
L 595.025316 253.437746 
L 598.556962 250.970604 
L 602.088608 245.80049 
L 605.620253 244.429261 
L 609.151899 239.858147 
L 612.683544 234.816373 
L 616.21519 234.137244 
L 619.746835 231.492877 
L 623.278481 232.121634 
L 626.810127 228.436626 
L 630.341772 228.454332 
L 633.873418 225.662962 
L 637.405063 223.195294 
L 640.936709 220.146459 
L 644.468354 215.335364 
L 648 214.350888 
L 651.531646 200.789894 
L 655.063291 199.107327 
L 658.594937 194.875258 
L 662.126582 205.974698 
L 662.126582 205.974698 
" clip-path="url(#p0f30ec9160)" style="fill: none; stroke-dasharray: 1.5,2.475; stroke-dashoffset: 0; stroke: #ff7f0e; stroke-width: 1.5"/>
   </g>
   <g id="line2d_31">
    <path d="M 107.658228 314.983003 
L 146.506329 314.895892 
L 153.56962 314.462647 
L 174.759494 312.79738 
L 181.822785 312.322308 
L 192.417722 311.681064 
L 199.481013 311.420754 
L 203.012658 311.618794 
L 210.075949 311.485653 
L 220.670886 310.538586 
L 224.202532 309.76171 
L 231.265823 308.743703 
L 234.797468 308.489914 
L 238.329114 308.052459 
L 241.860759 307.831141 
L 245.392405 308.081161 
L 248.924051 307.504238 
L 252.455696 307.277897 
L 255.987342 306.717117 
L 259.518987 306.452366 
L 263.050633 305.848437 
L 266.582278 305.028788 
L 270.113924 304.940967 
L 273.64557 304.434921 
L 277.177215 304.281938 
L 280.708861 303.698844 
L 284.240506 303.599881 
L 287.772152 302.849675 
L 291.303797 302.289552 
L 294.835443 301.522743 
L 298.367089 300.248725 
L 301.898734 299.873709 
L 308.962025 297.480984 
L 312.493671 295.278493 
L 316.025316 294.057334 
L 319.556962 293.175796 
L 323.088608 291.571658 
L 326.620253 290.832267 
L 330.151899 290.42641 
L 333.683544 292.04729 
L 337.21519 290.826491 
L 340.746835 290.007403 
L 344.278481 289.485201 
L 347.810127 287.949574 
L 351.341772 286.710297 
L 354.873418 284.044521 
L 358.405063 283.801906 
L 369 278.692938 
L 372.531646 276.452105 
L 376.063291 275.481261 
L 379.594937 273.150614 
L 383.126582 272.261479 
L 390.189873 269.403874 
L 393.721519 267.906575 
L 397.253165 265.85924 
L 400.78481 265.418251 
L 404.316456 263.141695 
L 407.848101 255.776948 
L 411.379747 246.053889 
L 418.443038 229.763427 
L 421.974684 220.963549 
L 425.506329 214.350376 
L 429.037975 211.547298 
L 432.56962 209.08149 
L 436.101266 207.996802 
L 443.164557 207.051459 
L 446.696203 204.94661 
L 450.227848 205.858671 
L 453.759494 207.697371 
L 457.291139 207.979022 
L 460.822785 209.521616 
L 464.35443 210.942122 
L 467.886076 211.565371 
L 471.417722 209.530103 
L 474.949367 210.116625 
L 478.481013 209.338522 
L 482.012658 206.685974 
L 485.544304 199.949692 
L 489.075949 194.725669 
L 492.607595 193.254078 
L 496.139241 190.804381 
L 499.670886 189.909094 
L 503.202532 184.636339 
L 506.734177 184.585243 
L 510.265823 183.412626 
L 513.797468 180.060197 
L 517.329114 176.254818 
L 520.860759 170.07879 
L 524.392405 168.977441 
L 527.924051 164.445339 
L 531.455696 163.855039 
L 534.987342 160.599496 
L 538.518987 155.509882 
L 542.050633 150.840234 
L 545.582278 143.504302 
L 549.113924 142.224142 
L 552.64557 134.72896 
L 559.708861 127.482138 
L 563.240506 118.241185 
L 566.772152 116.658349 
L 570.303797 111.286183 
L 573.835443 111.670939 
L 577.367089 111.618787 
L 580.898734 116.915295 
L 584.43038 123.229777 
L 587.962025 128.91979 
L 591.493671 137.785453 
L 595.025316 135.355924 
L 598.556962 136.719037 
L 602.088608 136.088105 
L 605.620253 140.8255 
L 609.151899 133.755364 
L 612.683544 127.132513 
L 616.21519 128.685789 
L 619.746835 123.18575 
L 623.278481 119.307402 
L 626.810127 113.427014 
L 630.341772 113.579142 
L 633.873418 110.272736 
L 637.405063 108.667016 
L 640.936709 110.156782 
L 644.468354 108.604231 
L 648 111.409993 
L 651.531646 113.387168 
L 655.063291 112.04113 
L 658.594937 104.88315 
L 662.126582 124.045392 
L 662.126582 124.045392 
" clip-path="url(#p0f30ec9160)" style="fill: none; stroke-dasharray: 5.55,2.4; stroke-dashoffset: 0; stroke: #2ca02c; stroke-width: 1.5"/>
   </g>
   <g id="line2d_32">
    <path d="M 107.658228 312.711856 
L 111.189873 312.528038 
L 118.253165 312.493746 
L 125.316456 312.351246 
L 139.443038 312.128671 
L 146.506329 312.54626 
L 150.037975 311.777736 
L 153.56962 310.880447 
L 157.101266 309.646913 
L 160.632911 308.708564 
L 164.164557 307.35334 
L 167.696203 305.690105 
L 174.759494 304.71757 
L 178.291139 304.559501 
L 181.822785 303.731179 
L 185.35443 303.314688 
L 195.949367 301.610158 
L 199.481013 300.892414 
L 203.012658 301.447348 
L 206.544304 301.232236 
L 210.075949 300.637515 
L 217.139241 298.420028 
L 220.670886 296.637496 
L 224.202532 293.526808 
L 227.734177 291.7285 
L 231.265823 290.78975 
L 234.797468 290.770332 
L 238.329114 290.304291 
L 241.860759 290.867358 
L 245.392405 293.152213 
L 248.924051 293.225982 
L 252.455696 292.804903 
L 255.987342 291.536523 
L 259.518987 291.285228 
L 263.050633 290.133485 
L 266.582278 287.9938 
L 270.113924 286.983169 
L 273.64557 285.72227 
L 277.177215 285.038773 
L 280.708861 282.772509 
L 284.240506 281.95647 
L 287.772152 280.607083 
L 291.303797 280.091437 
L 294.835443 278.929839 
L 298.367089 277.096122 
L 301.898734 277.440853 
L 305.43038 276.448762 
L 308.962025 276.325127 
L 312.493671 275.431012 
L 316.025316 274.107217 
L 319.556962 270.835044 
L 323.088608 265.733783 
L 326.620253 262.322204 
L 333.683544 253.207817 
L 337.21519 250.48856 
L 340.746835 250.13105 
L 344.278481 250.881454 
L 347.810127 251.16558 
L 351.341772 251.701524 
L 354.873418 251.279598 
L 358.405063 252.292653 
L 361.936709 251.628072 
L 365.468354 251.481925 
L 369 250.57786 
L 372.531646 249.415641 
L 376.063291 250.166198 
L 379.594937 248.046668 
L 383.126582 249.963789 
L 386.658228 251.189133 
L 390.189873 252.262807 
L 393.721519 254.336664 
L 397.253165 254.514042 
L 400.78481 257.032587 
L 404.316456 256.377055 
L 407.848101 254.901711 
L 411.379747 249.496685 
L 414.911392 243.087496 
L 418.443038 237.281526 
L 421.974684 230.670132 
L 429.037975 220.601013 
L 432.56962 225.115128 
L 439.632911 233.136542 
L 443.164557 236.033874 
L 446.696203 239.358826 
L 450.227848 244.90051 
L 453.759494 243.199908 
L 457.291139 243.549755 
L 460.822785 245.268695 
L 464.35443 247.439933 
L 467.886076 247.207123 
L 471.417722 243.14304 
L 474.949367 241.506653 
L 478.481013 238.949046 
L 482.012658 236.077762 
L 485.544304 232.326368 
L 489.075949 229.552877 
L 492.607595 227.959828 
L 496.139241 226.56488 
L 499.670886 225.791061 
L 503.202532 223.791977 
L 506.734177 223.883784 
L 510.265823 222.308327 
L 517.329114 223.11666 
L 520.860759 221.837042 
L 524.392405 222.087181 
L 527.924051 220.301895 
L 531.455696 221.504055 
L 534.987342 222.211188 
L 538.518987 223.065127 
L 542.050633 224.916762 
L 545.582278 224.408188 
L 549.113924 226.067493 
L 552.64557 228.465116 
L 556.177215 230.150994 
L 559.708861 231.399742 
L 563.240506 233.314983 
L 566.772152 235.721729 
L 570.303797 237.901826 
L 573.835443 238.646338 
L 577.367089 238.289764 
L 580.898734 237.07183 
L 584.43038 235.494072 
L 591.493671 239.621133 
L 595.025316 239.008179 
L 598.556962 241.236961 
L 602.088608 242.307201 
L 605.620253 241.772487 
L 609.151899 239.440846 
L 612.683544 236.955459 
L 616.21519 235.902467 
L 619.746835 234.29473 
L 623.278481 234.588951 
L 626.810127 235.341381 
L 630.341772 235.422287 
L 633.873418 233.753428 
L 637.405063 233.707725 
L 640.936709 232.409248 
L 644.468354 230.541502 
L 648 229.264097 
L 651.531646 227.621156 
L 655.063291 227.214464 
L 658.594937 225.421968 
L 662.126582 234.546321 
L 662.126582 234.546321 
" clip-path="url(#p0f30ec9160)" style="fill: none; stroke: #d62728; stroke-width: 1.5; stroke-linecap: square"/>
   </g>
   <g id="line2d_33">
    <path d="M 107.658228 312.537859 
L 111.189873 312.40067 
L 114.721519 312.698909 
L 118.253165 312.784753 
L 125.316456 312.690941 
L 128.848101 311.716325 
L 132.379747 311.412548 
L 139.443038 309.627189 
L 142.974684 309.209546 
L 146.506329 309.051614 
L 150.037975 308.217159 
L 153.56962 306.731235 
L 157.101266 305.534812 
L 160.632911 303.954567 
L 164.164557 302.073029 
L 167.696203 299.646328 
L 171.227848 298.454463 
L 174.759494 297.030548 
L 178.291139 295.448117 
L 181.822785 295.400296 
L 188.886076 296.120244 
L 192.417722 296.687665 
L 195.949367 298.076319 
L 199.481013 299.609527 
L 203.012658 300.743719 
L 206.544304 301.212102 
L 213.607595 302.703496 
L 217.139241 303.065088 
L 220.670886 302.630255 
L 224.202532 300.45564 
L 227.734177 298.997829 
L 231.265823 297.147755 
L 234.797468 296.338529 
L 238.329114 295.793998 
L 241.860759 296.513602 
L 245.392405 299.118466 
L 248.924051 300.091018 
L 252.455696 301.53496 
L 255.987342 302.139783 
L 259.518987 302.488566 
L 263.050633 302.145649 
L 266.582278 301.033747 
L 270.113924 301.061564 
L 273.64557 300.562081 
L 277.177215 300.319928 
L 280.708861 299.579572 
L 284.240506 299.543004 
L 291.303797 298.339437 
L 294.835443 298.003107 
L 298.367089 297.132613 
L 301.898734 296.896534 
L 305.43038 295.955982 
L 308.962025 295.133216 
L 312.493671 294.569908 
L 316.025316 294.221499 
L 319.556962 294.126109 
L 323.088608 293.617947 
L 326.620253 293.598416 
L 330.151899 293.960309 
L 333.683544 294.651883 
L 337.21519 294.673473 
L 344.278481 294.99733 
L 347.810127 294.592266 
L 351.341772 294.577419 
L 354.873418 292.983407 
L 358.405063 293.012019 
L 365.468354 290.282556 
L 369 289.743175 
L 372.531646 288.843037 
L 376.063291 289.315869 
L 379.594937 289.466546 
L 390.189873 293.760878 
L 393.721519 294.637211 
L 397.253165 294.717224 
L 400.78481 294.57688 
L 404.316456 292.897353 
L 407.848101 292.532518 
L 411.379747 292.388312 
L 414.911392 292.375746 
L 418.443038 292.989228 
L 421.974684 293.354439 
L 425.506329 295.655469 
L 439.632911 299.11801 
L 443.164557 299.203996 
L 446.696203 299.126028 
L 450.227848 299.524315 
L 453.759494 299.452857 
L 457.291139 299.533488 
L 460.822785 299.770362 
L 464.35443 300.45976 
L 467.886076 300.972302 
L 471.417722 301.042388 
L 474.949367 300.956869 
L 478.481013 301.129883 
L 482.012658 301.166628 
L 489.075949 300.836063 
L 492.607595 300.702973 
L 496.139241 300.804126 
L 503.202532 300.673553 
L 506.734177 300.834482 
L 510.265823 300.839494 
L 520.860759 301.423101 
L 527.924051 302.199753 
L 531.455696 303.084338 
L 538.518987 304.305005 
L 542.050633 304.76157 
L 552.64557 305.74282 
L 556.177215 305.897278 
L 563.240506 305.947234 
L 566.772152 306.208158 
L 573.835443 305.226 
L 584.43038 304.396203 
L 587.962025 303.914666 
L 598.556962 303.868952 
L 602.088608 303.781312 
L 612.683544 304.509974 
L 616.21519 304.79218 
L 619.746835 304.790748 
L 623.278481 305.006494 
L 626.810127 304.980788 
L 630.341772 304.831683 
L 637.405063 303.672407 
L 640.936709 303.417383 
L 644.468354 304.613614 
L 648 305.507827 
L 651.531646 306.650417 
L 655.063291 307.920974 
L 658.594937 309.472299 
L 662.126582 311.255898 
L 662.126582 311.255898 
" clip-path="url(#p0f30ec9160)" style="fill: none; stroke-dasharray: 5.55,2.4; stroke-dashoffset: 0; stroke: #9467bd; stroke-width: 1.5"/>
   </g>
   <g id="line2d_34">
    <path d="M 107.658228 307.904154 
L 114.721519 308.268318 
L 118.253165 308.496381 
L 121.78481 308.461942 
L 125.316456 308.676356 
L 128.848101 308.720731 
L 132.379747 308.951689 
L 139.443038 308.764491 
L 142.974684 308.999104 
L 146.506329 309.419316 
L 150.037975 307.885141 
L 153.56962 305.967703 
L 157.101266 303.20311 
L 160.632911 300.884971 
L 164.164557 298.166355 
L 167.696203 295.118403 
L 171.227848 293.609197 
L 174.759494 292.723736 
L 178.291139 293.047473 
L 181.822785 291.950481 
L 185.35443 291.277337 
L 188.886076 290.24755 
L 192.417722 290.468791 
L 195.949367 290.376066 
L 199.481013 290.037949 
L 203.012658 292.361366 
L 206.544304 293.116351 
L 210.075949 293.14465 
L 213.607595 292.122739 
L 217.139241 291.311509 
L 220.670886 290.342238 
L 224.202532 287.104126 
L 227.734177 285.463476 
L 231.265823 284.121749 
L 234.797468 284.169391 
L 238.329114 283.896454 
L 241.860759 284.413082 
L 245.392405 286.951262 
L 248.924051 286.983776 
L 252.455696 287.701597 
L 255.987342 286.915456 
L 259.518987 283.569918 
L 263.050633 281.46214 
L 266.582278 278.786781 
L 270.113924 277.955295 
L 273.64557 277.449134 
L 277.177215 277.602759 
L 280.708861 279.578406 
L 284.240506 279.681527 
L 291.303797 275.645106 
L 294.835443 272.862896 
L 298.367089 269.682009 
L 301.898734 267.702723 
L 305.43038 265.287916 
L 308.962025 264.284392 
L 312.493671 262.359663 
L 316.025316 259.547498 
L 319.556962 256.30139 
L 323.088608 252.044678 
L 326.620253 246.120535 
L 330.151899 240.527162 
L 333.683544 237.011031 
L 337.21519 232.530111 
L 340.746835 227.845681 
L 344.278481 223.683522 
L 347.810127 229.365367 
L 354.873418 243.244016 
L 358.405063 252.438788 
L 361.936709 263.665752 
L 365.468354 275.429922 
L 369 279.173544 
L 372.531646 281.713304 
L 379.594937 285.272095 
L 383.126582 286.437274 
L 386.658228 287.228824 
L 390.189873 288.238656 
L 393.721519 289.096468 
L 397.253165 289.592596 
L 400.78481 290.350811 
L 404.316456 290.335196 
L 407.848101 290.645279 
L 411.379747 290.620263 
L 414.911392 290.755608 
L 421.974684 291.283636 
L 425.506329 291.948701 
L 429.037975 291.822076 
L 432.56962 292.525399 
L 436.101266 292.534351 
L 443.164557 292.95902 
L 446.696203 292.758223 
L 450.227848 293.49708 
L 453.759494 293.289504 
L 460.822785 294.629745 
L 464.35443 295.081826 
L 467.886076 295.352255 
L 471.417722 295.143198 
L 474.949367 295.452402 
L 482.012658 295.247309 
L 485.544304 294.907613 
L 492.607595 295.349114 
L 496.139241 295.320876 
L 499.670886 295.47225 
L 503.202532 294.701537 
L 506.734177 295.596434 
L 513.797468 296.586857 
L 517.329114 297.375204 
L 520.860759 297.7961 
L 524.392405 299.13076 
L 527.924051 298.907587 
L 538.518987 299.251684 
L 542.050633 299.44287 
L 545.582278 299.41253 
L 549.113924 299.900513 
L 552.64557 299.87178 
L 556.177215 300.067553 
L 563.240506 299.941548 
L 566.772152 299.861125 
L 570.303797 299.51793 
L 573.835443 299.571377 
L 577.367089 299.266216 
L 580.898734 299.421151 
L 584.43038 299.196286 
L 587.962025 299.26423 
L 591.493671 299.544365 
L 595.025316 299.246843 
L 598.556962 299.361915 
L 602.088608 299.210862 
L 605.620253 299.569731 
L 609.151899 299.617216 
L 612.683544 299.484385 
L 616.21519 299.588367 
L 619.746835 299.524949 
L 623.278481 299.765633 
L 626.810127 299.799762 
L 637.405063 300.844167 
L 640.936709 301.412689 
L 644.468354 301.512548 
L 648 301.797682 
L 651.531646 301.834579 
L 658.594937 302.481273 
L 662.126582 303.964247 
L 662.126582 303.964247 
" clip-path="url(#p0f30ec9160)" style="fill: none; stroke-dasharray: 9.6,2.4,1.5,2.4; stroke-dashoffset: 0; stroke: #8c564b; stroke-width: 1.5"/>
   </g>
   <g id="patch_3">
    <path d="M 90 315 
L 90 43.2 
" style="fill: none; stroke: #000000; stroke-width: 0.8; stroke-linejoin: miter; stroke-linecap: square"/>
   </g>
   <g id="patch_4">
    <path d="M 648 315 
L 648 43.2 
" style="fill: none; stroke: #000000; stroke-width: 0.8; stroke-linejoin: miter; stroke-linecap: square"/>
   </g>
   <g id="patch_5">
    <path d="M 90 315 
L 648 315 
" style="fill: none; stroke: #000000; stroke-width: 0.8; stroke-linejoin: miter; stroke-linecap: square"/>
   </g>
   <g id="patch_6">
    <path d="M 90 43.2 
L 648 43.2 
" style="fill: none; stroke: #000000; stroke-width: 0.8; stroke-linejoin: miter; stroke-linecap: square"/>
   </g>
   <g id="text_16">
    <!-- Python version of NumPy users, all operating systems -->
    <g transform="translate(206.897813 37.2)scale(0.12 -0.12)">
     <defs>
      <path id="DejaVuSans-50" d="M 1259 4147 
L 1259 2394 
L 2053 2394 
Q 2494 2394 2734 2622 
Q 2975 2850 2975 3272 
Q 2975 3691 2734 3919 
Q 2494 4147 2053 4147 
L 1259 4147 
z
M 628 4666 
L 2053 4666 
Q 2838 4666 3239 4311 
Q 3641 3956 3641 3272 
Q 3641 2581 3239 2228 
Q 2838 1875 2053 1875 
L 1259 1875 
L 1259 0 
L 628 0 
L 628 4666 
z
" transform="scale(0.015625)"/>
      <path id="DejaVuSans-79" d="M 2059 -325 
Q 1816 -950 1584 -1140 
Q 1353 -1331 966 -1331 
L 506 -1331 
L 506 -850 
L 844 -850 
Q 1081 -850 1212 -737 
Q 1344 -625 1503 -206 
L 1606 56 
L 191 3500 
L 800 3500 
L 1894 763 
L 2988 3500 
L 3597 3500 
L 2059 -325 
z
" transform="scale(0.015625)"/>
      <path id="DejaVuSans-76" d="M 191 3500 
L 800 3500 
L 1894 563 
L 2988 3500 
L 3597 3500 
L 2284 0 
L 1503 0 
L 191 3500 
z
" transform="scale(0.015625)"/>
      <path id="DejaVuSans-2c" d="M 750 794 
L 1409 794 
L 1409 256 
L 897 -744 
L 494 -744 
L 750 256 
L 750 794 
z
" transform="scale(0.015625)"/>
      <path id="DejaVuSans-67" d="M 2906 1791 
Q 2906 2416 2648 2759 
Q 2391 3103 1925 3103 
Q 1463 3103 1205 2759 
Q 947 2416 947 1791 
Q 947 1169 1205 825 
Q 1463 481 1925 481 
Q 2391 481 2648 825 
Q 2906 1169 2906 1791 
z
M 3481 434 
Q 3481 -459 3084 -895 
Q 2688 -1331 1869 -1331 
Q 1566 -1331 1297 -1286 
Q 1028 -1241 775 -1147 
L 775 -588 
Q 1028 -725 1275 -790 
Q 1522 -856 1778 -856 
Q 2344 -856 2625 -561 
Q 2906 -266 2906 331 
L 2906 616 
Q 2728 306 2450 153 
Q 2172 0 1784 0 
Q 1141 0 747 490 
Q 353 981 353 1791 
Q 353 2603 747 3093 
Q 1141 3584 1784 3584 
Q 2172 3584 2450 3431 
Q 2728 3278 2906 2969 
L 2906 3500 
L 3481 3500 
L 3481 434 
z
" transform="scale(0.015625)"/>
     </defs>
     <use xlink:href="#DejaVuSans-50"/>
     <use xlink:href="#DejaVuSans-79" x="60.302734"/>
     <use xlink:href="#DejaVuSans-74" x="119.482422"/>
     <use xlink:href="#DejaVuSans-68" x="158.691406"/>
     <use xlink:href="#DejaVuSans-6f" x="222.070312"/>
     <use xlink:href="#DejaVuSans-6e" x="283.251953"/>
     <use xlink:href="#DejaVuSans-20" x="346.630859"/>
     <use xlink:href="#DejaVuSans-76" x="378.417969"/>
     <use xlink:href="#DejaVuSans-65" x="437.597656"/>
     <use xlink:href="#DejaVuSans-72" x="499.121094"/>
     <use xlink:href="#DejaVuSans-73" x="540.234375"/>
     <use xlink:href="#DejaVuSans-69" x="592.333984"/>
     <use xlink:href="#DejaVuSans-6f" x="620.117188"/>
     <use xlink:href="#DejaVuSans-6e" x="681.298828"/>
     <use xlink:href="#DejaVuSans-20" x="744.677734"/>
     <use xlink:href="#DejaVuSans-6f" x="776.464844"/>
     <use xlink:href="#DejaVuSans-66" x="837.646484"/>
     <use xlink:href="#DejaVuSans-20" x="872.851562"/>
     <use xlink:href="#DejaVuSans-4e" x="904.638672"/>
     <use xlink:href="#DejaVuSans-75" x="979.443359"/>
     <use xlink:href="#DejaVuSans-6d" x="1042.822266"/>
     <use xlink:href="#DejaVuSans-50" x="1140.234375"/>
     <use xlink:href="#DejaVuSans-79" x="1200.537109"/>
     <use xlink:href="#DejaVuSans-20" x="1259.716797"/>
     <use xlink:href="#DejaVuSans-75" x="1291.503906"/>
     <use xlink:href="#DejaVuSans-73" x="1354.882812"/>
     <use xlink:href="#DejaVuSans-65" x="1406.982422"/>
     <use xlink:href="#DejaVuSans-72" x="1468.505859"/>
     <use xlink:href="#DejaVuSans-73" x="1509.619141"/>
     <use xlink:href="#DejaVuSans-2c" x="1561.71875"/>
     <use xlink:href="#DejaVuSans-20" x="1593.505859"/>
     <use xlink:href="#DejaVuSans-61" x="1625.292969"/>
     <use xlink:href="#DejaVuSans-6c" x="1686.572266"/>
     <use xlink:href="#DejaVuSans-6c" x="1714.355469"/>
     <use xlink:href="#DejaVuSans-20" x="1742.138672"/>
     <use xlink:href="#DejaVuSans-6f" x="1773.925781"/>
     <use xlink:href="#DejaVuSans-70" x="1835.107422"/>
     <use xlink:href="#DejaVuSans-65" x="1898.583984"/>
     <use xlink:href="#DejaVuSans-72" x="1960.107422"/>
     <use xlink:href="#DejaVuSans-61" x="2001.220703"/>
     <use xlink:href="#DejaVuSans-74" x="2062.5"/>
     <use xlink:href="#DejaVuSans-69" x="2101.708984"/>
     <use xlink:href="#DejaVuSans-6e" x="2129.492188"/>
     <use xlink:href="#DejaVuSans-67" x="2192.871094"/>
     <use xlink:href="#DejaVuSans-20" x="2256.347656"/>
     <use xlink:href="#DejaVuSans-73" x="2288.134766"/>
     <use xlink:href="#DejaVuSans-79" x="2340.234375"/>
     <use xlink:href="#DejaVuSans-73" x="2399.414062"/>
     <use xlink:href="#DejaVuSans-74" x="2451.513672"/>
     <use xlink:href="#DejaVuSans-65" x="2490.722656"/>
     <use xlink:href="#DejaVuSans-6d" x="2552.246094"/>
     <use xlink:href="#DejaVuSans-73" x="2649.658203"/>
    </g>
   </g>
   <g id="legend_1">
    <g id="patch_7">
     <path d="M 97 139.26875 
L 189.421875 139.26875 
Q 191.421875 139.26875 191.421875 137.26875 
L 191.421875 50.2 
Q 191.421875 48.2 189.421875 48.2 
L 97 48.2 
Q 95 48.2 95 50.2 
L 95 137.26875 
Q 95 139.26875 97 139.26875 
z
" style="fill: #ffffff; opacity: 0.8; stroke: #cccccc; stroke-linejoin: miter"/>
    </g>
    <g id="line2d_35">
     <path d="M 99 56.298437 
L 109 56.298437 
L 119 56.298437 
" style="fill: none; stroke: #1f77b4; stroke-width: 1.5; stroke-linecap: square"/>
    </g>
    <g id="text_17">
     <!-- 3.9 -->
     <g transform="translate(127 59.798437)scale(0.1 -0.1)">
      <defs>
       <path id="DejaVuSans-33" d="M 2597 2516 
Q 3050 2419 3304 2112 
Q 3559 1806 3559 1356 
Q 3559 666 3084 287 
Q 2609 -91 1734 -91 
Q 1441 -91 1130 -33 
Q 819 25 488 141 
L 488 750 
Q 750 597 1062 519 
Q 1375 441 1716 441 
Q 2309 441 2620 675 
Q 2931 909 2931 1356 
Q 2931 1769 2642 2001 
Q 2353 2234 1838 2234 
L 1294 2234 
L 1294 2753 
L 1863 2753 
Q 2328 2753 2575 2939 
Q 2822 3125 2822 3475 
Q 2822 3834 2567 4026 
Q 2313 4219 1838 4219 
Q 1578 4219 1281 4162 
Q 984 4106 628 3988 
L 628 4550 
Q 988 4650 1302 4700 
Q 1616 4750 1894 4750 
Q 2613 4750 3031 4423 
Q 3450 4097 3450 3541 
Q 3450 3153 3228 2886 
Q 3006 2619 2597 2516 
z
" transform="scale(0.015625)"/>
      </defs>
      <use xlink:href="#DejaVuSans-33"/>
      <use xlink:href="#DejaVuSans-2e" x="63.623047"/>
      <use xlink:href="#DejaVuSans-39" x="95.410156"/>
     </g>
    </g>
    <g id="line2d_36">
     <path d="M 99 70.976562 
L 109 70.976562 
L 119 70.976562 
" style="fill: none; stroke-dasharray: 1.5,2.475; stroke-dashoffset: 0; stroke: #ff7f0e; stroke-width: 1.5"/>
    </g>
    <g id="text_18">
     <!-- 3.8 -->
     <g transform="translate(127 74.476562)scale(0.1 -0.1)">
      <defs>
       <path id="DejaVuSans-38" d="M 2034 2216 
Q 1584 2216 1326 1975 
Q 1069 1734 1069 1313 
Q 1069 891 1326 650 
Q 1584 409 2034 409 
Q 2484 409 2743 651 
Q 3003 894 3003 1313 
Q 3003 1734 2745 1975 
Q 2488 2216 2034 2216 
z
M 1403 2484 
Q 997 2584 770 2862 
Q 544 3141 544 3541 
Q 544 4100 942 4425 
Q 1341 4750 2034 4750 
Q 2731 4750 3128 4425 
Q 3525 4100 3525 3541 
Q 3525 3141 3298 2862 
Q 3072 2584 2669 2484 
Q 3125 2378 3379 2068 
Q 3634 1759 3634 1313 
Q 3634 634 3220 271 
Q 2806 -91 2034 -91 
Q 1263 -91 848 271 
Q 434 634 434 1313 
Q 434 1759 690 2068 
Q 947 2378 1403 2484 
z
M 1172 3481 
Q 1172 3119 1398 2916 
Q 1625 2713 2034 2713 
Q 2441 2713 2670 2916 
Q 2900 3119 2900 3481 
Q 2900 3844 2670 4047 
Q 2441 4250 2034 4250 
Q 1625 4250 1398 4047 
Q 1172 3844 1172 3481 
z
" transform="scale(0.015625)"/>
      </defs>
      <use xlink:href="#DejaVuSans-33"/>
      <use xlink:href="#DejaVuSans-2e" x="63.623047"/>
      <use xlink:href="#DejaVuSans-38" x="95.410156"/>
     </g>
    </g>
    <g id="line2d_37">
     <path d="M 99 85.654687 
L 109 85.654687 
L 119 85.654687 
" style="fill: none; stroke-dasharray: 5.55,2.4; stroke-dashoffset: 0; stroke: #2ca02c; stroke-width: 1.5"/>
    </g>
    <g id="text_19">
     <!-- 3.7 -->
     <g transform="translate(127 89.154687)scale(0.1 -0.1)">
      <use xlink:href="#DejaVuSans-33"/>
      <use xlink:href="#DejaVuSans-2e" x="63.623047"/>
      <use xlink:href="#DejaVuSans-37" x="95.410156"/>
     </g>
    </g>
    <g id="line2d_38">
     <path d="M 99 100.332812 
L 109 100.332812 
L 119 100.332812 
" style="fill: none; stroke: #d62728; stroke-width: 1.5; stroke-linecap: square"/>
    </g>
    <g id="text_20">
     <!-- 3.6 -->
     <g transform="translate(127 103.832812)scale(0.1 -0.1)">
      <defs>
       <path id="DejaVuSans-36" d="M 2113 2584 
Q 1688 2584 1439 2293 
Q 1191 2003 1191 1497 
Q 1191 994 1439 701 
Q 1688 409 2113 409 
Q 2538 409 2786 701 
Q 3034 994 3034 1497 
Q 3034 2003 2786 2293 
Q 2538 2584 2113 2584 
z
M 3366 4563 
L 3366 3988 
Q 3128 4100 2886 4159 
Q 2644 4219 2406 4219 
Q 1781 4219 1451 3797 
Q 1122 3375 1075 2522 
Q 1259 2794 1537 2939 
Q 1816 3084 2150 3084 
Q 2853 3084 3261 2657 
Q 3669 2231 3669 1497 
Q 3669 778 3244 343 
Q 2819 -91 2113 -91 
Q 1303 -91 875 529 
Q 447 1150 447 2328 
Q 447 3434 972 4092 
Q 1497 4750 2381 4750 
Q 2619 4750 2861 4703 
Q 3103 4656 3366 4563 
z
" transform="scale(0.015625)"/>
      </defs>
      <use xlink:href="#DejaVuSans-33"/>
      <use xlink:href="#DejaVuSans-2e" x="63.623047"/>
      <use xlink:href="#DejaVuSans-36" x="95.410156"/>
     </g>
    </g>
    <g id="line2d_39">
     <path d="M 99 115.010937 
L 109 115.010937 
L 119 115.010937 
" style="fill: none; stroke-dasharray: 5.55,2.4; stroke-dashoffset: 0; stroke: #9467bd; stroke-width: 1.5"/>
    </g>
    <g id="text_21">
     <!-- 3.3, 3.4, 3.5 -->
     <g transform="translate(127 118.510937)scale(0.1 -0.1)">
      <defs>
       <path id="DejaVuSans-34" d="M 2419 4116 
L 825 1625 
L 2419 1625 
L 2419 4116 
z
M 2253 4666 
L 3047 4666 
L 3047 1625 
L 3713 1625 
L 3713 1100 
L 3047 1100 
L 3047 0 
L 2419 0 
L 2419 1100 
L 313 1100 
L 313 1709 
L 2253 4666 
z
" transform="scale(0.015625)"/>
      </defs>
      <use xlink:href="#DejaVuSans-33"/>
      <use xlink:href="#DejaVuSans-2e" x="63.623047"/>
      <use xlink:href="#DejaVuSans-33" x="95.410156"/>
      <use xlink:href="#DejaVuSans-2c" x="159.033203"/>
      <use xlink:href="#DejaVuSans-20" x="190.820312"/>
      <use xlink:href="#DejaVuSans-33" x="222.607422"/>
      <use xlink:href="#DejaVuSans-2e" x="286.230469"/>
      <use xlink:href="#DejaVuSans-34" x="318.017578"/>
      <use xlink:href="#DejaVuSans-2c" x="381.640625"/>
      <use xlink:href="#DejaVuSans-20" x="413.427734"/>
      <use xlink:href="#DejaVuSans-33" x="445.214844"/>
      <use xlink:href="#DejaVuSans-2e" x="508.837891"/>
      <use xlink:href="#DejaVuSans-35" x="540.625"/>
     </g>
    </g>
    <g id="line2d_40">
     <path d="M 99 129.689062 
L 109 129.689062 
L 119 129.689062 
" style="fill: none; stroke-dasharray: 9.6,2.4,1.5,2.4; stroke-dashoffset: 0; stroke: #8c564b; stroke-width: 1.5"/>
    </g>
    <g id="text_22">
     <!-- 2.7 -->
     <g transform="translate(127 133.189062)scale(0.1 -0.1)">
      <use xlink:href="#DejaVuSans-32"/>
      <use xlink:href="#DejaVuSans-2e" x="63.623047"/>
      <use xlink:href="#DejaVuSans-37" x="95.410156"/>
     </g>
    </g>
   </g>
  </g>
 </g>
 <defs>
  <clipPath id="p0f30ec9160">
   <rect x="90" y="43.2" width="558" height="271.8"/>
  </clipPath>
 </defs>
</svg>
