<?xml version="1.0" encoding="utf-8" standalone="no"?>
<!DOCTYPE svg PUBLIC "-//W3C//DTD SVG 1.1//EN"
  "http://www.w3.org/Graphics/SVG/1.1/DTD/svg11.dtd">
<svg xmlns:xlink="http://www.w3.org/1999/xlink" width="720pt" height="360pt" viewBox="0 0 720 360" xmlns="http://www.w3.org/2000/svg" version="1.1">
 <metadata>
  <rdf:RDF xmlns:dc="http://purl.org/dc/elements/1.1/" xmlns:cc="http://creativecommons.org/ns#" xmlns:rdf="http://www.w3.org/1999/02/22-rdf-syntax-ns#">
   <cc:Work>
    <dc:type rdf:resource="http://purl.org/dc/dcmitype/StillImage"/>
    <dc:date>2022-03-05T15:00:57.467435</dc:date>
    <dc:format>image/svg+xml</dc:format>
    <dc:creator>
     <cc:Agent>
      <dc:title>Matplotlib v3.5.1, https://matplotlib.org/</dc:title>
     </cc:Agent>
    </dc:creator>
   </cc:Work>
  </rdf:RDF>
 </metadata>
 <defs>
  <style type="text/css">*{stroke-linejoin: round; stroke-linecap: butt}</style>
 </defs>
 <g id="figure_1">
  <g id="patch_1">
   <path d="M 0 360 
L 720 360 
L 720 0 
L 0 0 
L 0 360 
z
" style="fill: none"/>
  </g>
  <g id="axes_1">
   <g id="patch_2">
    <path d="M 90 315 
L 648 315 
L 648 43.2 
L 90 43.2 
z
" style="fill: #ffffff"/>
   </g>
   <g id="matplotlib.axis_1">
    <g id="xtick_1">
     <g id="line2d_1">
      <defs>
       <path id="mddd3ce3c64" d="M 0 0 
L 0 3.5 
" style="stroke: #000000; stroke-width: 0.8"/>
      </defs>
      <g>
       <use xlink:href="#mddd3ce3c64" x="90" y="315" style="stroke: #000000; stroke-width: 0.8"/>
      </g>
     </g>
    </g>
    <g id="xtick_2">
     <g id="line2d_2">
      <g>
       <use xlink:href="#mddd3ce3c64" x="211.469388" y="315" style="stroke: #000000; stroke-width: 0.8"/>
      </g>
     </g>
     <g id="text_1">
      <!-- 2019 -->
      <g transform="translate(198.744388 329.598437)scale(0.1 -0.1)">
       <defs>
        <path id="DejaVuSans-32" d="M 1228 531 
L 3431 531 
L 3431 0 
L 469 0 
L 469 531 
Q 828 903 1448 1529 
Q 2069 2156 2228 2338 
Q 2531 2678 2651 2914 
Q 2772 3150 2772 3378 
Q 2772 3750 2511 3984 
Q 2250 4219 1831 4219 
Q 1534 4219 1204 4116 
Q 875 4013 500 3803 
L 500 4441 
Q 881 4594 1212 4672 
Q 1544 4750 1819 4750 
Q 2544 4750 2975 4387 
Q 3406 4025 3406 3419 
Q 3406 3131 3298 2873 
Q 3191 2616 2906 2266 
Q 2828 2175 2409 1742 
Q 1991 1309 1228 531 
z
" transform="scale(0.015625)"/>
        <path id="DejaVuSans-30" d="M 2034 4250 
Q 1547 4250 1301 3770 
Q 1056 3291 1056 2328 
Q 1056 1369 1301 889 
Q 1547 409 2034 409 
Q 2525 409 2770 889 
Q 3016 1369 3016 2328 
Q 3016 3291 2770 3770 
Q 2525 4250 2034 4250 
z
M 2034 4750 
Q 2819 4750 3233 4129 
Q 3647 3509 3647 2328 
Q 3647 1150 3233 529 
Q 2819 -91 2034 -91 
Q 1250 -91 836 529 
Q 422 1150 422 2328 
Q 422 3509 836 4129 
Q 1250 4750 2034 4750 
z
" transform="scale(0.015625)"/>
        <path id="DejaVuSans-31" d="M 794 531 
L 1825 531 
L 1825 4091 
L 703 3866 
L 703 4441 
L 1819 4666 
L 2450 4666 
L 2450 531 
L 3481 531 
L 3481 0 
L 794 0 
L 794 531 
z
" transform="scale(0.015625)"/>
        <path id="DejaVuSans-39" d="M 703 97 
L 703 672 
Q 941 559 1184 500 
Q 1428 441 1663 441 
Q 2288 441 2617 861 
Q 2947 1281 2994 2138 
Q 2813 1869 2534 1725 
Q 2256 1581 1919 1581 
Q 1219 1581 811 2004 
Q 403 2428 403 3163 
Q 403 3881 828 4315 
Q 1253 4750 1959 4750 
Q 2769 4750 3195 4129 
Q 3622 3509 3622 2328 
Q 3622 1225 3098 567 
Q 2575 -91 1691 -91 
Q 1453 -91 1209 -44 
Q 966 3 703 97 
z
M 1959 2075 
Q 2384 2075 2632 2365 
Q 2881 2656 2881 3163 
Q 2881 3666 2632 3958 
Q 2384 4250 1959 4250 
Q 1534 4250 1286 3958 
Q 1038 3666 1038 3163 
Q 1038 2656 1286 2365 
Q 1534 2075 1959 2075 
z
" transform="scale(0.015625)"/>
       </defs>
       <use xlink:href="#DejaVuSans-32"/>
       <use xlink:href="#DejaVuSans-30" x="63.623047"/>
       <use xlink:href="#DejaVuSans-31" x="127.246094"/>
       <use xlink:href="#DejaVuSans-39" x="190.869141"/>
      </g>
     </g>
    </g>
    <g id="xtick_3">
     <g id="line2d_3">
      <g>
       <use xlink:href="#mddd3ce3c64" x="350.020408" y="315" style="stroke: #000000; stroke-width: 0.8"/>
      </g>
     </g>
     <g id="text_2">
      <!-- 2020 -->
      <g transform="translate(337.295408 329.598437)scale(0.1 -0.1)">
       <use xlink:href="#DejaVuSans-32"/>
       <use xlink:href="#DejaVuSans-30" x="63.623047"/>
       <use xlink:href="#DejaVuSans-32" x="127.246094"/>
       <use xlink:href="#DejaVuSans-30" x="190.869141"/>
      </g>
     </g>
    </g>
    <g id="xtick_4">
     <g id="line2d_4">
      <g>
       <use xlink:href="#mddd3ce3c64" x="488.95102" y="315" style="stroke: #000000; stroke-width: 0.8"/>
      </g>
     </g>
     <g id="text_3">
      <!-- 2021 -->
      <g transform="translate(476.22602 329.598437)scale(0.1 -0.1)">
       <use xlink:href="#DejaVuSans-32"/>
       <use xlink:href="#DejaVuSans-30" x="63.623047"/>
       <use xlink:href="#DejaVuSans-32" x="127.246094"/>
       <use xlink:href="#DejaVuSans-31" x="190.869141"/>
      </g>
     </g>
    </g>
    <g id="xtick_5">
     <g id="line2d_5">
      <g>
       <use xlink:href="#mddd3ce3c64" x="627.502041" y="315" style="stroke: #000000; stroke-width: 0.8"/>
      </g>
     </g>
     <g id="text_4">
      <!-- 2022 -->
      <g transform="translate(614.777041 329.598437)scale(0.1 -0.1)">
       <use xlink:href="#DejaVuSans-32"/>
       <use xlink:href="#DejaVuSans-30" x="63.623047"/>
       <use xlink:href="#DejaVuSans-32" x="127.246094"/>
       <use xlink:href="#DejaVuSans-32" x="190.869141"/>
      </g>
     </g>
    </g>
    <g id="xtick_6">
     <g id="line2d_6">
      <g>
       <use xlink:href="#mddd3ce3c64" x="648" y="315" style="stroke: #000000; stroke-width: 0.8"/>
      </g>
     </g>
    </g>
    <g id="xtick_7">
     <g id="line2d_7">
      <defs>
       <path id="mbeb3847d57" d="M 0 0 
L 0 2 
" style="stroke: #000000; stroke-width: 0.6"/>
      </defs>
      <g>
       <use xlink:href="#mbeb3847d57" x="107.081633" y="315" style="stroke: #000000; stroke-width: 0.6"/>
      </g>
     </g>
    </g>
    <g id="xtick_8">
     <g id="line2d_8">
      <g>
       <use xlink:href="#mbeb3847d57" x="141.62449" y="315" style="stroke: #000000; stroke-width: 0.6"/>
      </g>
     </g>
    </g>
    <g id="xtick_9">
     <g id="line2d_9">
      <g>
       <use xlink:href="#mbeb3847d57" x="176.546939" y="315" style="stroke: #000000; stroke-width: 0.6"/>
      </g>
     </g>
    </g>
    <g id="xtick_10">
     <g id="line2d_10">
      <g>
       <use xlink:href="#mbeb3847d57" x="245.632653" y="315" style="stroke: #000000; stroke-width: 0.6"/>
      </g>
     </g>
    </g>
    <g id="xtick_11">
     <g id="line2d_11">
      <g>
       <use xlink:href="#mbeb3847d57" x="280.17551" y="315" style="stroke: #000000; stroke-width: 0.6"/>
      </g>
     </g>
    </g>
    <g id="xtick_12">
     <g id="line2d_12">
      <g>
       <use xlink:href="#mbeb3847d57" x="315.097959" y="315" style="stroke: #000000; stroke-width: 0.6"/>
      </g>
     </g>
    </g>
    <g id="xtick_13">
     <g id="line2d_13">
      <g>
       <use xlink:href="#mbeb3847d57" x="384.563265" y="315" style="stroke: #000000; stroke-width: 0.6"/>
      </g>
     </g>
    </g>
    <g id="xtick_14">
     <g id="line2d_14">
      <g>
       <use xlink:href="#mbeb3847d57" x="419.106122" y="315" style="stroke: #000000; stroke-width: 0.6"/>
      </g>
     </g>
    </g>
    <g id="xtick_15">
     <g id="line2d_15">
      <g>
       <use xlink:href="#mbeb3847d57" x="454.028571" y="315" style="stroke: #000000; stroke-width: 0.6"/>
      </g>
     </g>
    </g>
    <g id="xtick_16">
     <g id="line2d_16">
      <g>
       <use xlink:href="#mbeb3847d57" x="523.114286" y="315" style="stroke: #000000; stroke-width: 0.6"/>
      </g>
     </g>
    </g>
    <g id="xtick_17">
     <g id="line2d_17">
      <g>
       <use xlink:href="#mbeb3847d57" x="557.657143" y="315" style="stroke: #000000; stroke-width: 0.6"/>
      </g>
     </g>
    </g>
    <g id="xtick_18">
     <g id="line2d_18">
      <g>
       <use xlink:href="#mbeb3847d57" x="592.579592" y="315" style="stroke: #000000; stroke-width: 0.6"/>
      </g>
     </g>
    </g>
   </g>
   <g id="matplotlib.axis_2">
    <g id="ytick_1">
     <g id="line2d_19">
      <defs>
       <path id="m8f4dd289a6" d="M 0 0 
L -3.5 0 
" style="stroke: #000000; stroke-width: 0.8"/>
      </defs>
      <g>
       <use xlink:href="#m8f4dd289a6" x="90" y="243.940779" style="stroke: #000000; stroke-width: 0.8"/>
      </g>
     </g>
     <g id="text_5">
      <!-- $\mathdefault{10^{5}}$ -->
      <g transform="translate(65.4 247.739997)scale(0.1 -0.1)">
       <defs>
        <path id="DejaVuSans-35" d="M 691 4666 
L 3169 4666 
L 3169 4134 
L 1269 4134 
L 1269 2991 
Q 1406 3038 1543 3061 
Q 1681 3084 1819 3084 
Q 2600 3084 3056 2656 
Q 3513 2228 3513 1497 
Q 3513 744 3044 326 
Q 2575 -91 1722 -91 
Q 1428 -91 1123 -41 
Q 819 9 494 109 
L 494 744 
Q 775 591 1075 516 
Q 1375 441 1709 441 
Q 2250 441 2565 725 
Q 2881 1009 2881 1497 
Q 2881 1984 2565 2268 
Q 2250 2553 1709 2553 
Q 1456 2553 1204 2497 
Q 953 2441 691 2322 
L 691 4666 
z
" transform="scale(0.015625)"/>
       </defs>
       <use xlink:href="#DejaVuSans-31" transform="translate(0 0.684375)"/>
       <use xlink:href="#DejaVuSans-30" transform="translate(63.623047 0.684375)"/>
       <use xlink:href="#DejaVuSans-35" transform="translate(128.203125 38.965625)scale(0.7)"/>
      </g>
     </g>
    </g>
    <g id="ytick_2">
     <g id="line2d_20">
      <g>
       <use xlink:href="#m8f4dd289a6" x="90" y="108.040779" style="stroke: #000000; stroke-width: 0.8"/>
      </g>
     </g>
     <g id="text_6">
      <!-- $\mathdefault{10^{6}}$ -->
      <g transform="translate(65.4 111.839997)scale(0.1 -0.1)">
       <defs>
        <path id="DejaVuSans-36" d="M 2113 2584 
Q 1688 2584 1439 2293 
Q 1191 2003 1191 1497 
Q 1191 994 1439 701 
Q 1688 409 2113 409 
Q 2538 409 2786 701 
Q 3034 994 3034 1497 
Q 3034 2003 2786 2293 
Q 2538 2584 2113 2584 
z
M 3366 4563 
L 3366 3988 
Q 3128 4100 2886 4159 
Q 2644 4219 2406 4219 
Q 1781 4219 1451 3797 
Q 1122 3375 1075 2522 
Q 1259 2794 1537 2939 
Q 1816 3084 2150 3084 
Q 2853 3084 3261 2657 
Q 3669 2231 3669 1497 
Q 3669 778 3244 343 
Q 2819 -91 2113 -91 
Q 1303 -91 875 529 
Q 447 1150 447 2328 
Q 447 3434 972 4092 
Q 1497 4750 2381 4750 
Q 2619 4750 2861 4703 
Q 3103 4656 3366 4563 
z
" transform="scale(0.015625)"/>
       </defs>
       <use xlink:href="#DejaVuSans-31" transform="translate(0 0.765625)"/>
       <use xlink:href="#DejaVuSans-30" transform="translate(63.623047 0.765625)"/>
       <use xlink:href="#DejaVuSans-36" transform="translate(128.203125 39.046875)scale(0.7)"/>
      </g>
     </g>
    </g>
    <g id="ytick_3">
     <g id="line2d_21">
      <defs>
       <path id="m022115fd71" d="M 0 0 
L -2 0 
" style="stroke: #000000; stroke-width: 0.6"/>
      </defs>
      <g>
       <use xlink:href="#m022115fd71" x="90" y="315" style="stroke: #000000; stroke-width: 0.6"/>
      </g>
     </g>
    </g>
    <g id="ytick_4">
     <g id="line2d_22">
      <g>
       <use xlink:href="#m022115fd71" x="90" y="298.020826" style="stroke: #000000; stroke-width: 0.6"/>
      </g>
     </g>
    </g>
    <g id="ytick_5">
     <g id="line2d_23">
      <g>
       <use xlink:href="#m022115fd71" x="90" y="284.850755" style="stroke: #000000; stroke-width: 0.6"/>
      </g>
     </g>
    </g>
    <g id="ytick_6">
     <g id="line2d_24">
      <g>
       <use xlink:href="#m022115fd71" x="90" y="274.090024" style="stroke: #000000; stroke-width: 0.6"/>
      </g>
     </g>
    </g>
    <g id="ytick_7">
     <g id="line2d_25">
      <g>
       <use xlink:href="#m022115fd71" x="90" y="264.991955" style="stroke: #000000; stroke-width: 0.6"/>
      </g>
     </g>
    </g>
    <g id="ytick_8">
     <g id="line2d_26">
      <g>
       <use xlink:href="#m022115fd71" x="90" y="257.110849" style="stroke: #000000; stroke-width: 0.6"/>
      </g>
     </g>
    </g>
    <g id="ytick_9">
     <g id="line2d_27">
      <g>
       <use xlink:href="#m022115fd71" x="90" y="250.159221" style="stroke: #000000; stroke-width: 0.6"/>
      </g>
     </g>
    </g>
    <g id="ytick_10">
     <g id="line2d_28">
      <g>
       <use xlink:href="#m022115fd71" x="90" y="203.030802" style="stroke: #000000; stroke-width: 0.6"/>
      </g>
     </g>
    </g>
    <g id="ytick_11">
     <g id="line2d_29">
      <g>
       <use xlink:href="#m022115fd71" x="90" y="179.1" style="stroke: #000000; stroke-width: 0.6"/>
      </g>
     </g>
    </g>
    <g id="ytick_12">
     <g id="line2d_30">
      <g>
       <use xlink:href="#m022115fd71" x="90" y="162.120826" style="stroke: #000000; stroke-width: 0.6"/>
      </g>
     </g>
    </g>
    <g id="ytick_13">
     <g id="line2d_31">
      <g>
       <use xlink:href="#m022115fd71" x="90" y="148.950755" style="stroke: #000000; stroke-width: 0.6"/>
      </g>
     </g>
    </g>
    <g id="ytick_14">
     <g id="line2d_32">
      <g>
       <use xlink:href="#m022115fd71" x="90" y="138.190024" style="stroke: #000000; stroke-width: 0.6"/>
      </g>
     </g>
    </g>
    <g id="ytick_15">
     <g id="line2d_33">
      <g>
       <use xlink:href="#m022115fd71" x="90" y="129.091955" style="stroke: #000000; stroke-width: 0.6"/>
      </g>
     </g>
    </g>
    <g id="ytick_16">
     <g id="line2d_34">
      <g>
       <use xlink:href="#m022115fd71" x="90" y="121.210849" style="stroke: #000000; stroke-width: 0.6"/>
      </g>
     </g>
    </g>
    <g id="ytick_17">
     <g id="line2d_35">
      <g>
       <use xlink:href="#m022115fd71" x="90" y="114.259221" style="stroke: #000000; stroke-width: 0.6"/>
      </g>
     </g>
    </g>
    <g id="ytick_18">
     <g id="line2d_36">
      <g>
       <use xlink:href="#m022115fd71" x="90" y="67.130802" style="stroke: #000000; stroke-width: 0.6"/>
      </g>
     </g>
    </g>
    <g id="ytick_19">
     <g id="line2d_37">
      <g>
       <use xlink:href="#m022115fd71" x="90" y="43.2" style="stroke: #000000; stroke-width: 0.6"/>
      </g>
     </g>
    </g>
    <g id="text_7">
     <!-- Number of pip-installs per month -->
     <g transform="translate(59.320312 262.00625)rotate(-90)scale(0.1 -0.1)">
      <defs>
       <path id="DejaVuSans-4e" d="M 628 4666 
L 1478 4666 
L 3547 763 
L 3547 4666 
L 4159 4666 
L 4159 0 
L 3309 0 
L 1241 3903 
L 1241 0 
L 628 0 
L 628 4666 
z
" transform="scale(0.015625)"/>
       <path id="DejaVuSans-75" d="M 544 1381 
L 544 3500 
L 1119 3500 
L 1119 1403 
Q 1119 906 1312 657 
Q 1506 409 1894 409 
Q 2359 409 2629 706 
Q 2900 1003 2900 1516 
L 2900 3500 
L 3475 3500 
L 3475 0 
L 2900 0 
L 2900 538 
Q 2691 219 2414 64 
Q 2138 -91 1772 -91 
Q 1169 -91 856 284 
Q 544 659 544 1381 
z
M 1991 3584 
L 1991 3584 
z
" transform="scale(0.015625)"/>
       <path id="DejaVuSans-6d" d="M 3328 2828 
Q 3544 3216 3844 3400 
Q 4144 3584 4550 3584 
Q 5097 3584 5394 3201 
Q 5691 2819 5691 2113 
L 5691 0 
L 5113 0 
L 5113 2094 
Q 5113 2597 4934 2840 
Q 4756 3084 4391 3084 
Q 3944 3084 3684 2787 
Q 3425 2491 3425 1978 
L 3425 0 
L 2847 0 
L 2847 2094 
Q 2847 2600 2669 2842 
Q 2491 3084 2119 3084 
Q 1678 3084 1418 2786 
Q 1159 2488 1159 1978 
L 1159 0 
L 581 0 
L 581 3500 
L 1159 3500 
L 1159 2956 
Q 1356 3278 1631 3431 
Q 1906 3584 2284 3584 
Q 2666 3584 2933 3390 
Q 3200 3197 3328 2828 
z
" transform="scale(0.015625)"/>
       <path id="DejaVuSans-62" d="M 3116 1747 
Q 3116 2381 2855 2742 
Q 2594 3103 2138 3103 
Q 1681 3103 1420 2742 
Q 1159 2381 1159 1747 
Q 1159 1113 1420 752 
Q 1681 391 2138 391 
Q 2594 391 2855 752 
Q 3116 1113 3116 1747 
z
M 1159 2969 
Q 1341 3281 1617 3432 
Q 1894 3584 2278 3584 
Q 2916 3584 3314 3078 
Q 3713 2572 3713 1747 
Q 3713 922 3314 415 
Q 2916 -91 2278 -91 
Q 1894 -91 1617 61 
Q 1341 213 1159 525 
L 1159 0 
L 581 0 
L 581 4863 
L 1159 4863 
L 1159 2969 
z
" transform="scale(0.015625)"/>
       <path id="DejaVuSans-65" d="M 3597 1894 
L 3597 1613 
L 953 1613 
Q 991 1019 1311 708 
Q 1631 397 2203 397 
Q 2534 397 2845 478 
Q 3156 559 3463 722 
L 3463 178 
Q 3153 47 2828 -22 
Q 2503 -91 2169 -91 
Q 1331 -91 842 396 
Q 353 884 353 1716 
Q 353 2575 817 3079 
Q 1281 3584 2069 3584 
Q 2775 3584 3186 3129 
Q 3597 2675 3597 1894 
z
M 3022 2063 
Q 3016 2534 2758 2815 
Q 2500 3097 2075 3097 
Q 1594 3097 1305 2825 
Q 1016 2553 972 2059 
L 3022 2063 
z
" transform="scale(0.015625)"/>
       <path id="DejaVuSans-72" d="M 2631 2963 
Q 2534 3019 2420 3045 
Q 2306 3072 2169 3072 
Q 1681 3072 1420 2755 
Q 1159 2438 1159 1844 
L 1159 0 
L 581 0 
L 581 3500 
L 1159 3500 
L 1159 2956 
Q 1341 3275 1631 3429 
Q 1922 3584 2338 3584 
Q 2397 3584 2469 3576 
Q 2541 3569 2628 3553 
L 2631 2963 
z
" transform="scale(0.015625)"/>
       <path id="DejaVuSans-20" transform="scale(0.015625)"/>
       <path id="DejaVuSans-6f" d="M 1959 3097 
Q 1497 3097 1228 2736 
Q 959 2375 959 1747 
Q 959 1119 1226 758 
Q 1494 397 1959 397 
Q 2419 397 2687 759 
Q 2956 1122 2956 1747 
Q 2956 2369 2687 2733 
Q 2419 3097 1959 3097 
z
M 1959 3584 
Q 2709 3584 3137 3096 
Q 3566 2609 3566 1747 
Q 3566 888 3137 398 
Q 2709 -91 1959 -91 
Q 1206 -91 779 398 
Q 353 888 353 1747 
Q 353 2609 779 3096 
Q 1206 3584 1959 3584 
z
" transform="scale(0.015625)"/>
       <path id="DejaVuSans-66" d="M 2375 4863 
L 2375 4384 
L 1825 4384 
Q 1516 4384 1395 4259 
Q 1275 4134 1275 3809 
L 1275 3500 
L 2222 3500 
L 2222 3053 
L 1275 3053 
L 1275 0 
L 697 0 
L 697 3053 
L 147 3053 
L 147 3500 
L 697 3500 
L 697 3744 
Q 697 4328 969 4595 
Q 1241 4863 1831 4863 
L 2375 4863 
z
" transform="scale(0.015625)"/>
       <path id="DejaVuSans-70" d="M 1159 525 
L 1159 -1331 
L 581 -1331 
L 581 3500 
L 1159 3500 
L 1159 2969 
Q 1341 3281 1617 3432 
Q 1894 3584 2278 3584 
Q 2916 3584 3314 3078 
Q 3713 2572 3713 1747 
Q 3713 922 3314 415 
Q 2916 -91 2278 -91 
Q 1894 -91 1617 61 
Q 1341 213 1159 525 
z
M 3116 1747 
Q 3116 2381 2855 2742 
Q 2594 3103 2138 3103 
Q 1681 3103 1420 2742 
Q 1159 2381 1159 1747 
Q 1159 1113 1420 752 
Q 1681 391 2138 391 
Q 2594 391 2855 752 
Q 3116 1113 3116 1747 
z
" transform="scale(0.015625)"/>
       <path id="DejaVuSans-69" d="M 603 3500 
L 1178 3500 
L 1178 0 
L 603 0 
L 603 3500 
z
M 603 4863 
L 1178 4863 
L 1178 4134 
L 603 4134 
L 603 4863 
z
" transform="scale(0.015625)"/>
       <path id="DejaVuSans-2d" d="M 313 2009 
L 1997 2009 
L 1997 1497 
L 313 1497 
L 313 2009 
z
" transform="scale(0.015625)"/>
       <path id="DejaVuSans-6e" d="M 3513 2113 
L 3513 0 
L 2938 0 
L 2938 2094 
Q 2938 2591 2744 2837 
Q 2550 3084 2163 3084 
Q 1697 3084 1428 2787 
Q 1159 2491 1159 1978 
L 1159 0 
L 581 0 
L 581 3500 
L 1159 3500 
L 1159 2956 
Q 1366 3272 1645 3428 
Q 1925 3584 2291 3584 
Q 2894 3584 3203 3211 
Q 3513 2838 3513 2113 
z
" transform="scale(0.015625)"/>
       <path id="DejaVuSans-73" d="M 2834 3397 
L 2834 2853 
Q 2591 2978 2328 3040 
Q 2066 3103 1784 3103 
Q 1356 3103 1142 2972 
Q 928 2841 928 2578 
Q 928 2378 1081 2264 
Q 1234 2150 1697 2047 
L 1894 2003 
Q 2506 1872 2764 1633 
Q 3022 1394 3022 966 
Q 3022 478 2636 193 
Q 2250 -91 1575 -91 
Q 1294 -91 989 -36 
Q 684 19 347 128 
L 347 722 
Q 666 556 975 473 
Q 1284 391 1588 391 
Q 1994 391 2212 530 
Q 2431 669 2431 922 
Q 2431 1156 2273 1281 
Q 2116 1406 1581 1522 
L 1381 1569 
Q 847 1681 609 1914 
Q 372 2147 372 2553 
Q 372 3047 722 3315 
Q 1072 3584 1716 3584 
Q 2034 3584 2315 3537 
Q 2597 3491 2834 3397 
z
" transform="scale(0.015625)"/>
       <path id="DejaVuSans-74" d="M 1172 4494 
L 1172 3500 
L 2356 3500 
L 2356 3053 
L 1172 3053 
L 1172 1153 
Q 1172 725 1289 603 
Q 1406 481 1766 481 
L 2356 481 
L 2356 0 
L 1766 0 
Q 1100 0 847 248 
Q 594 497 594 1153 
L 594 3053 
L 172 3053 
L 172 3500 
L 594 3500 
L 594 4494 
L 1172 4494 
z
" transform="scale(0.015625)"/>
       <path id="DejaVuSans-61" d="M 2194 1759 
Q 1497 1759 1228 1600 
Q 959 1441 959 1056 
Q 959 750 1161 570 
Q 1363 391 1709 391 
Q 2188 391 2477 730 
Q 2766 1069 2766 1631 
L 2766 1759 
L 2194 1759 
z
M 3341 1997 
L 3341 0 
L 2766 0 
L 2766 531 
Q 2569 213 2275 61 
Q 1981 -91 1556 -91 
Q 1019 -91 701 211 
Q 384 513 384 1019 
Q 384 1609 779 1909 
Q 1175 2209 1959 2209 
L 2766 2209 
L 2766 2266 
Q 2766 2663 2505 2880 
Q 2244 3097 1772 3097 
Q 1472 3097 1187 3025 
Q 903 2953 641 2809 
L 641 3341 
Q 956 3463 1253 3523 
Q 1550 3584 1831 3584 
Q 2591 3584 2966 3190 
Q 3341 2797 3341 1997 
z
" transform="scale(0.015625)"/>
       <path id="DejaVuSans-6c" d="M 603 4863 
L 1178 4863 
L 1178 0 
L 603 0 
L 603 4863 
z
" transform="scale(0.015625)"/>
       <path id="DejaVuSans-68" d="M 3513 2113 
L 3513 0 
L 2938 0 
L 2938 2094 
Q 2938 2591 2744 2837 
Q 2550 3084 2163 3084 
Q 1697 3084 1428 2787 
Q 1159 2491 1159 1978 
L 1159 0 
L 581 0 
L 581 4863 
L 1159 4863 
L 1159 2956 
Q 1366 3272 1645 3428 
Q 1925 3584 2291 3584 
Q 2894 3584 3203 3211 
Q 3513 2838 3513 2113 
z
" transform="scale(0.015625)"/>
      </defs>
      <use xlink:href="#DejaVuSans-4e"/>
      <use xlink:href="#DejaVuSans-75" x="74.804688"/>
      <use xlink:href="#DejaVuSans-6d" x="138.183594"/>
      <use xlink:href="#DejaVuSans-62" x="235.595703"/>
      <use xlink:href="#DejaVuSans-65" x="299.072266"/>
      <use xlink:href="#DejaVuSans-72" x="360.595703"/>
      <use xlink:href="#DejaVuSans-20" x="401.708984"/>
      <use xlink:href="#DejaVuSans-6f" x="433.496094"/>
      <use xlink:href="#DejaVuSans-66" x="494.677734"/>
      <use xlink:href="#DejaVuSans-20" x="529.882812"/>
      <use xlink:href="#DejaVuSans-70" x="561.669922"/>
      <use xlink:href="#DejaVuSans-69" x="625.146484"/>
      <use xlink:href="#DejaVuSans-70" x="652.929688"/>
      <use xlink:href="#DejaVuSans-2d" x="716.40625"/>
      <use xlink:href="#DejaVuSans-69" x="752.490234"/>
      <use xlink:href="#DejaVuSans-6e" x="780.273438"/>
      <use xlink:href="#DejaVuSans-73" x="843.652344"/>
      <use xlink:href="#DejaVuSans-74" x="895.751953"/>
      <use xlink:href="#DejaVuSans-61" x="934.960938"/>
      <use xlink:href="#DejaVuSans-6c" x="996.240234"/>
      <use xlink:href="#DejaVuSans-6c" x="1024.023438"/>
      <use xlink:href="#DejaVuSans-73" x="1051.806641"/>
      <use xlink:href="#DejaVuSans-20" x="1103.90625"/>
      <use xlink:href="#DejaVuSans-70" x="1135.693359"/>
      <use xlink:href="#DejaVuSans-65" x="1199.169922"/>
      <use xlink:href="#DejaVuSans-72" x="1260.693359"/>
      <use xlink:href="#DejaVuSans-20" x="1301.806641"/>
      <use xlink:href="#DejaVuSans-6d" x="1333.59375"/>
      <use xlink:href="#DejaVuSans-6f" x="1431.005859"/>
      <use xlink:href="#DejaVuSans-6e" x="1492.1875"/>
      <use xlink:href="#DejaVuSans-74" x="1555.566406"/>
      <use xlink:href="#DejaVuSans-68" x="1594.775391"/>
     </g>
    </g>
   </g>
   <g id="line2d_38">
    <path d="M 452.096381 361 
L 454.408163 273.649021 
L 458.204082 210.075054 
L 462 176.016497 
L 465.795918 157.540569 
L 469.591837 149.75308 
L 473.387755 145.222639 
L 477.183673 142.134216 
L 480.979592 139.992816 
L 484.77551 141.345506 
L 488.571429 143.947506 
L 492.367347 144.557079 
L 496.163265 139.735268 
L 499.959184 134.355842 
L 503.755102 130.513286 
L 507.55102 128.877342 
L 511.346939 125.371502 
L 515.142857 123.191468 
L 518.938776 119.461042 
L 522.734694 117.20415 
L 526.530612 114.277193 
L 530.326531 110.973597 
L 534.122449 112.196459 
L 537.918367 109.087169 
L 541.714286 108.370324 
L 545.510204 106.046949 
L 549.306122 107.515011 
L 553.102041 108.660968 
L 556.897959 107.442519 
L 560.693878 108.578121 
L 564.489796 106.511703 
L 568.285714 107.572424 
L 572.081633 105.094806 
L 575.877551 103.409753 
L 579.673469 101.526999 
L 583.469388 98.100603 
L 587.265306 99.107946 
L 591.061224 97.080649 
L 594.857143 100.910471 
L 598.653061 99.623742 
L 602.44898 99.997589 
L 606.244898 98.422157 
L 610.040816 98.497975 
L 613.836735 101.54291 
L 617.632653 101.460388 
L 621.428571 105.482254 
L 625.22449 108.790179 
L 629.020408 108.903681 
L 632.816327 107.291041 
L 636.612245 103.793949 
L 640.408163 105.475416 
L 644.204082 104.219319 
L 648 104.224409 
L 648 104.224409 
" clip-path="url(#pf446b5d7a9)" style="fill: none; stroke: #1f77b4; stroke-width: 1.5; stroke-linecap: square"/>
   </g>
   <g id="line2d_39">
    <path d="M 317.136008 361 
L 317.755102 339.443551 
L 321.55102 251.813116 
L 325.346939 210.81351 
L 329.142857 190.663176 
L 332.938776 184.769922 
L 336.734694 182.163821 
L 340.530612 179.955676 
L 344.326531 178.949885 
L 348.122449 181.290876 
L 351.918367 174.154147 
L 355.714286 168.995077 
L 359.510204 161.170757 
L 363.306122 157.351091 
L 367.102041 152.559623 
L 370.897959 147.056808 
L 374.693878 145.947933 
L 378.489796 140.587273 
L 382.285714 137.310029 
L 389.877551 129.618229 
L 393.673469 126.899833 
L 397.469388 122.216597 
L 401.265306 123.226955 
L 405.061224 122.848535 
L 408.857143 122.08025 
L 412.653061 119.90915 
L 416.44898 119.478592 
L 420.244898 122.435982 
L 424.040816 120.430685 
L 427.836735 117.849437 
L 431.632653 112.327881 
L 435.428571 112.091116 
L 439.22449 110.220875 
L 443.020408 107.771786 
L 446.816327 102.236041 
L 450.612245 95.524582 
L 454.408163 96.600758 
L 458.204082 98.678804 
L 462 103.399386 
L 465.795918 99.131743 
L 469.591837 98.655289 
L 473.387755 100.082782 
L 477.183673 102.231922 
L 480.979592 104.686517 
L 484.77551 109.274423 
L 488.571429 115.570294 
L 492.367347 116.223422 
L 496.163265 110.593417 
L 499.959184 107.318903 
L 503.755102 106.897654 
L 507.55102 110.371353 
L 511.346939 110.31238 
L 515.142857 110.403535 
L 518.938776 107.680673 
L 522.734694 107.310159 
L 530.326531 105.194607 
L 534.122449 108.78474 
L 537.918367 106.321246 
L 541.714286 107.584371 
L 545.510204 105.744395 
L 549.306122 108.941843 
L 553.102041 109.832963 
L 556.897959 109.037027 
L 560.693878 111.769731 
L 564.489796 111.343632 
L 568.285714 115.302962 
L 572.081633 115.520227 
L 575.877551 115.310372 
L 579.673469 114.551374 
L 583.469388 110.066382 
L 587.265306 112.621065 
L 591.061224 110.324955 
L 594.857143 112.079738 
L 598.653061 107.234657 
L 602.44898 102.596231 
L 606.244898 99.767056 
L 610.040816 98.639181 
L 613.836735 102.983385 
L 617.632653 104.23387 
L 621.428571 109.939652 
L 625.22449 115.397821 
L 629.020408 113.482334 
L 632.816327 111.009274 
L 636.612245 104.767313 
L 640.408163 107.680849 
L 644.204082 104.496848 
L 648 104.125957 
L 648 104.125957 
" clip-path="url(#pf446b5d7a9)" style="fill: none; stroke-dasharray: 1.5,2.475; stroke-dashoffset: 0; stroke: #ff7f0e; stroke-width: 1.5"/>
   </g>
   <g id="line2d_40">
    <path d="M 139.473681 361 
L 143.142857 326.306234 
L 146.938776 307.887705 
L 150.734694 252.46482 
L 154.530612 217.896385 
L 158.326531 194.439614 
L 162.122449 187.644047 
L 165.918367 183.669232 
L 169.714286 180.230979 
L 173.510204 175.217167 
L 177.306122 172.956206 
L 181.102041 170.111812 
L 184.897959 165.76349 
L 188.693878 160.575275 
L 192.489796 155.988291 
L 196.285714 156.731442 
L 200.081633 157.881521 
L 203.877551 160.434293 
L 207.673469 167.178542 
L 211.469388 168.244747 
L 215.265306 163.449015 
L 219.061224 152.416744 
L 222.857143 147.361208 
L 226.653061 144.651607 
L 230.44898 139.374872 
L 234.244898 134.661195 
L 238.040816 130.438882 
L 241.836735 132.26256 
L 245.632653 131.107646 
L 249.428571 134.059764 
L 253.22449 136.611854 
L 257.020408 134.659249 
L 260.816327 131.551729 
L 264.612245 122.640689 
L 268.408163 121.821914 
L 272.204082 118.855101 
L 276 121.334849 
L 283.591837 122.047167 
L 287.387755 121.535839 
L 291.183673 118.701614 
L 294.979592 120.957678 
L 298.77551 117.078687 
L 302.571429 115.876169 
L 306.367347 108.079332 
L 310.163265 103.945071 
L 313.959184 104.252576 
L 317.755102 103.396331 
L 321.55102 103.611448 
L 325.346939 101.347043 
L 329.142857 101.29727 
L 332.938776 103.070452 
L 336.734694 105.040481 
L 340.530612 110.822258 
L 344.326531 115.301093 
L 348.122449 122.476671 
L 351.918367 116.161284 
L 355.714286 115.640001 
L 359.510204 112.289242 
L 363.306122 116.981364 
L 367.102041 117.523278 
L 370.897959 115.015045 
L 374.693878 116.466979 
L 378.489796 109.672077 
L 382.285714 104.624545 
L 386.081633 100.201784 
L 389.877551 97.337473 
L 393.673469 96.966792 
L 397.469388 92.195726 
L 401.265306 95.322262 
L 405.061224 95.733634 
L 408.857143 97.443219 
L 412.653061 92.066317 
L 416.44898 84.802678 
L 420.244898 83.16739 
L 424.040816 87.092541 
L 427.836735 96.951432 
L 431.632653 102.141329 
L 435.428571 106.299409 
L 439.22449 107.069195 
L 443.020408 108.04975 
L 446.816327 105.638106 
L 450.612245 103.980487 
L 454.408163 106.875024 
L 458.204082 107.334122 
L 462 106.407527 
L 465.795918 99.811448 
L 469.591837 99.342789 
L 473.387755 102.432363 
L 477.183673 104.795182 
L 480.979592 105.910164 
L 484.77551 108.783126 
L 488.571429 113.989067 
L 492.367347 113.221761 
L 496.163265 106.688584 
L 499.959184 103.011996 
L 503.755102 104.066611 
L 507.55102 107.729911 
L 511.346939 108.191177 
L 515.142857 108.409805 
L 518.938776 107.131872 
L 526.530612 108.890986 
L 530.326531 108.646596 
L 534.122449 113.741267 
L 537.918367 112.757719 
L 541.714286 116.054644 
L 545.510204 113.385849 
L 549.306122 111.223289 
L 553.102041 111.539449 
L 556.897959 113.115988 
L 560.693878 121.368867 
L 564.489796 121.913301 
L 568.285714 123.499121 
L 572.081633 123.439561 
L 575.877551 123.662548 
L 579.673469 125.136929 
L 583.469388 121.292945 
L 587.265306 123.298758 
L 591.061224 120.824719 
L 594.857143 122.435831 
L 598.653061 119.064382 
L 602.44898 114.731236 
L 606.244898 109.91223 
L 610.040816 105.716414 
L 613.836735 108.59629 
L 617.632653 103.122776 
L 621.428571 103.448016 
L 625.22449 107.324384 
L 629.020408 117.583606 
L 632.816327 124.871957 
L 636.612245 119.321547 
L 640.408163 120.919418 
L 644.204082 119.442352 
L 648 121.013828 
L 648 121.013828 
" clip-path="url(#pf446b5d7a9)" style="fill: none; stroke-dasharray: 5.55,2.4; stroke-dashoffset: 0; stroke: #2ca02c; stroke-width: 1.5"/>
   </g>
   <g id="line2d_41">
    <path d="M 97.591837 205.922883 
L 101.387755 200.261733 
L 105.183673 199.579765 
L 108.979592 193.16783 
L 112.77551 196.695938 
L 116.571429 196.646655 
L 120.367347 200.823896 
L 124.163265 201.20062 
L 127.959184 203.353641 
L 131.755102 203.906942 
L 135.55102 205.324673 
L 139.346939 208.24111 
L 143.142857 221.060392 
L 146.938776 237.852679 
L 150.734694 208.572112 
L 154.530612 183.022322 
L 158.326531 159.017067 
L 162.122449 156.009174 
L 165.918367 152.317059 
L 169.714286 153.616701 
L 173.510204 151.421483 
L 177.306122 151.574063 
L 181.102041 151.570361 
L 184.897959 147.828416 
L 188.693878 144.689263 
L 192.489796 139.624801 
L 200.081633 145.897807 
L 203.877551 152.490647 
L 207.673469 162.515961 
L 211.469388 166.434939 
L 215.265306 162.854418 
L 219.061224 152.475984 
L 222.857143 148.268306 
L 226.653061 149.735732 
L 230.44898 148.702094 
L 234.244898 149.957328 
L 238.040816 148.418553 
L 241.836735 153.080288 
L 245.632653 153.58592 
L 249.428571 158.74276 
L 253.22449 164.223717 
L 257.020408 165.901292 
L 260.816327 165.380222 
L 264.612245 158.311261 
L 268.408163 160.201021 
L 272.204082 158.863694 
L 276 161.789325 
L 279.795918 162.084392 
L 283.591837 162.916301 
L 287.387755 164.551687 
L 291.183673 161.813539 
L 294.979592 165.191537 
L 298.77551 162.239872 
L 302.571429 165.328787 
L 306.367347 161.218545 
L 310.163265 159.684673 
L 313.959184 161.552107 
L 317.755102 161.123732 
L 321.55102 159.942496 
L 325.346939 153.804795 
L 329.142857 150.720494 
L 332.938776 150.307654 
L 336.734694 150.403274 
L 340.530612 155.22024 
L 344.326531 159.729715 
L 348.122449 168.571545 
L 351.918367 162.387907 
L 355.714286 161.555469 
L 359.510204 157.016428 
L 363.306122 160.080596 
L 367.102041 158.8947 
L 370.897959 154.922745 
L 374.693878 156.807718 
L 378.489796 153.248647 
L 382.285714 154.370892 
L 386.081633 152.791974 
L 389.877551 153.302375 
L 393.673469 154.717 
L 397.469388 152.158062 
L 401.265306 155.585908 
L 405.061224 155.406544 
L 408.857143 156.674906 
L 412.653061 155.441583 
L 416.44898 154.432775 
L 420.244898 157.068146 
L 424.040816 154.698391 
L 427.836735 154.418399 
L 431.632653 150.36953 
L 435.428571 153.496226 
L 439.22449 154.514565 
L 443.020408 155.194123 
L 446.816327 152.915058 
L 450.612245 149.629365 
L 454.408163 152.342058 
L 458.204082 147.644091 
L 462 144.634269 
L 465.795918 139.064666 
L 469.591837 141.562472 
L 473.387755 145.924827 
L 477.183673 144.069635 
L 480.979592 142.739064 
L 484.77551 145.497658 
L 488.571429 153.976908 
L 492.367347 158.167436 
L 496.163265 150.436554 
L 499.959184 150.315869 
L 503.755102 152.359939 
L 507.55102 161.816475 
L 511.346939 159.433047 
L 515.142857 158.707795 
L 518.938776 156.586172 
L 522.734694 159.658911 
L 526.530612 161.752508 
L 530.326531 161.528438 
L 534.122449 165.072131 
L 537.918367 162.523091 
L 541.714286 164.467182 
L 545.510204 162.74367 
L 549.306122 166.011513 
L 553.102041 170.002437 
L 556.897959 171.399084 
L 560.693878 173.61261 
L 564.489796 171.100947 
L 572.081633 177.089188 
L 575.877551 181.062438 
L 579.673469 183.87472 
L 583.469388 181.662212 
L 587.265306 182.574711 
L 591.061224 179.162201 
L 594.857143 179.656226 
L 598.653061 177.524512 
L 602.44898 176.106004 
L 606.244898 177.695625 
L 610.040816 176.970277 
L 613.836735 179.600645 
L 617.632653 176.927406 
L 621.428571 181.526761 
L 625.22449 187.753518 
L 629.020408 191.766127 
L 632.816327 192.219679 
L 636.612245 186.73497 
L 640.408163 189.189135 
L 644.204082 188.208365 
L 648 187.987022 
L 648 187.987022 
" clip-path="url(#pf446b5d7a9)" style="fill: none; stroke: #d62728; stroke-width: 1.5; stroke-linecap: square"/>
   </g>
   <g id="line2d_42">
    <path d="M 97.591837 281.428394 
L 101.387755 278.62759 
L 105.183673 281.64489 
L 108.979592 279.769909 
L 112.77551 286.809329 
L 116.571429 290.687457 
L 120.367347 296.560573 
L 124.163265 284.283352 
L 127.959184 179.052802 
L 131.755102 156.343777 
L 135.55102 132.774743 
L 139.346939 129.867842 
L 143.142857 133.358533 
L 146.938776 140.21697 
L 150.734694 120.407828 
L 154.530612 96.796393 
L 158.326531 83.709213 
L 162.122449 77.209399 
L 165.918367 74.991473 
L 169.714286 66.377364 
L 173.510204 62.723076 
L 177.306122 53.787065 
L 181.102041 46.21235 
L 184.897959 53.649664 
L 188.693878 71.362143 
L 192.489796 103.240729 
L 196.285714 106.933382 
L 200.081633 110.46672 
L 203.877551 114.811145 
L 207.673469 127.818304 
L 211.469388 133.769363 
L 215.265306 146.418742 
L 219.061224 167.375311 
L 222.857143 182.754855 
L 230.44898 94.371621 
L 234.244898 72.686506 
L 238.040816 65.158374 
L 241.836735 75.786189 
L 245.632653 93.759419 
L 249.428571 127.946672 
L 253.22449 175.65054 
L 257.020408 206.913925 
L 260.816327 241.142714 
L 264.612245 231.822566 
L 268.408163 234.000204 
L 272.204082 230.735778 
L 276 234.418112 
L 279.795918 236.00223 
L 283.591837 236.27527 
L 287.387755 234.892139 
L 291.183673 229.511284 
L 294.979592 230.73389 
L 298.77551 231.467948 
L 302.571429 236.857092 
L 306.367347 237.719739 
L 310.163265 236.890079 
L 313.959184 230.107281 
L 317.755102 213.914069 
L 321.55102 213.543343 
L 325.346939 167.216814 
L 329.142857 149.719825 
L 332.938776 135.19154 
L 336.734694 132.848289 
L 340.530612 135.624133 
L 344.326531 140.678828 
L 348.122449 168.900659 
L 351.918367 184.151823 
L 355.714286 195.694827 
L 359.510204 188.978507 
L 363.306122 187.54068 
L 367.102041 175.419406 
L 370.897959 174.523839 
L 374.693878 182.429241 
L 378.489796 205.705099 
L 382.285714 206.104156 
L 386.081633 211.339412 
L 389.877551 215.378496 
L 393.673469 241.38751 
L 397.469388 243.375129 
L 401.265306 239.812537 
L 405.061224 231.718835 
L 408.857143 228.975725 
L 412.653061 205.675463 
L 416.44898 180.827182 
L 420.244898 167.196871 
L 424.040816 170.175369 
L 427.836735 188.561572 
L 431.632653 199.404669 
L 435.428571 178.984629 
L 439.22449 162.015273 
L 443.020408 148.456584 
L 446.816327 165.972597 
L 450.612245 185.512217 
L 454.408163 237.11099 
L 458.204082 239.613651 
L 462 225.787199 
L 465.795918 171.121738 
L 469.591837 147.192082 
L 473.387755 131.40941 
L 477.183673 136.720176 
L 480.979592 132.389209 
L 484.77551 126.047062 
L 488.571429 122.132683 
L 492.367347 123.552983 
L 496.163265 124.673615 
L 499.959184 112.734581 
L 503.755102 110.061251 
L 507.55102 109.046151 
L 511.346939 114.340201 
L 515.142857 112.109197 
L 518.938776 113.315912 
L 522.734694 117.157156 
L 526.530612 119.773993 
L 530.326531 120.616928 
L 534.122449 120.174017 
L 537.918367 118.229711 
L 541.714286 121.924277 
L 545.510204 121.969546 
L 549.306122 126.365097 
L 553.102041 123.731187 
L 556.897959 127.256991 
L 560.693878 136.906994 
L 564.489796 141.524469 
L 568.285714 139.6847 
L 572.081633 130.306533 
L 575.877551 131.047217 
L 579.673469 137.882052 
L 583.469388 152.951175 
L 587.265306 158.12826 
L 591.061224 155.113351 
L 594.857143 145.675391 
L 598.653061 152.093288 
L 602.44898 153.09105 
L 606.244898 158.231914 
L 610.040816 151.69191 
L 613.836735 146.479387 
L 617.632653 136.072542 
L 621.428571 129.075684 
L 625.22449 124.984079 
L 629.020408 127.313251 
L 632.816327 135.277056 
L 636.612245 136.744264 
L 640.408163 140.650003 
L 644.204082 151.344235 
L 648 182.209012 
L 648 182.209012 
" clip-path="url(#pf446b5d7a9)" style="fill: none; stroke-dasharray: 5.55,2.4; stroke-dashoffset: 0; stroke: #9467bd; stroke-width: 1.5"/>
   </g>
   <g id="line2d_43">
    <path d="M 97.591837 189.359303 
L 101.387755 190.686394 
L 105.183673 218.320815 
L 108.979592 222.916108 
L 112.77551 229.291688 
L 116.571429 223.939237 
L 120.367347 226.405309 
L 124.163265 230.443932 
L 127.959184 243.474005 
L 131.755102 248.701208 
L 135.55102 252.67796 
L 139.346939 258.029086 
L 146.938776 289.99824 
L 150.734694 250.0963 
L 154.530612 219.996993 
L 158.326531 193.575226 
L 162.122449 180.140003 
L 165.918367 173.432362 
L 169.714286 171.537381 
L 173.510204 178.508635 
L 177.306122 181.551571 
L 181.102041 184.32546 
L 184.897959 182.583266 
L 188.693878 184.40117 
L 192.489796 183.031784 
L 196.285714 185.481521 
L 200.081633 184.500041 
L 203.877551 185.712791 
L 207.673469 190.613898 
L 211.469388 193.196801 
L 215.265306 193.34262 
L 219.061224 185.636919 
L 222.857143 184.495729 
L 226.653061 185.248097 
L 230.44898 184.715804 
L 234.244898 184.468789 
L 238.040816 181.416987 
L 241.836735 184.748052 
L 245.632653 183.062704 
L 249.428571 187.501878 
L 253.22449 195.028828 
L 257.020408 200.605694 
L 260.816327 203.847667 
L 264.612245 196.204957 
L 268.408163 197.528803 
L 272.204082 196.580481 
L 276 199.840311 
L 279.795918 201.144286 
L 283.591837 198.591343 
L 287.387755 195.578969 
L 291.183673 189.639465 
L 294.979592 190.192888 
L 298.77551 180.760167 
L 302.571429 174.620409 
L 306.367347 175.300673 
L 310.163265 183.205738 
L 313.959184 196.215735 
L 317.755102 195.299763 
L 321.55102 198.103949 
L 325.346939 194.693757 
L 329.142857 194.329248 
L 332.938776 191.433023 
L 336.734694 190.851818 
L 340.530612 192.684916 
L 344.326531 196.738629 
L 348.122449 205.460433 
L 351.918367 204.10225 
L 355.714286 198.605578 
L 359.510204 188.970135 
L 363.306122 178.592252 
L 367.102041 180.780405 
L 370.897959 179.872897 
L 374.693878 192.404989 
L 378.489796 190.697408 
L 382.285714 192.043523 
L 386.081633 186.42701 
L 389.877551 181.773267 
L 393.673469 188.118445 
L 397.469388 174.071886 
L 401.265306 181.470005 
L 405.061224 179.370935 
L 408.857143 204.810577 
L 412.653061 208.415754 
L 416.44898 213.253834 
L 420.244898 217.192589 
L 424.040816 214.221467 
L 427.836735 213.032123 
L 431.632653 209.315517 
L 435.428571 211.72078 
L 439.22449 211.543593 
L 443.020408 215.186372 
L 446.816327 219.817882 
L 450.612245 222.394319 
L 454.408163 221.241311 
L 458.204082 215.088553 
L 462 214.505737 
L 469.591837 215.807486 
L 473.387755 217.841365 
L 477.183673 214.630964 
L 480.979592 219.341337 
L 484.77551 226.068188 
L 488.571429 235.741746 
L 492.367347 232.888616 
L 496.163265 221.183887 
L 499.959184 216.045779 
L 503.755102 217.211349 
L 507.55102 220.197172 
L 511.346939 215.084933 
L 515.142857 210.724688 
L 518.938776 208.340151 
L 522.734694 211.174543 
L 526.530612 214.989089 
L 530.326531 216.2518 
L 534.122449 221.312064 
L 537.918367 219.307889 
L 541.714286 220.160868 
L 545.510204 219.63423 
L 549.306122 218.97097 
L 553.102041 221.903913 
L 556.897959 221.284718 
L 560.693878 226.347455 
L 564.489796 226.788927 
L 568.285714 228.830711 
L 572.081633 229.347432 
L 575.877551 226.887875 
L 579.673469 226.428993 
L 583.469388 220.914777 
L 587.265306 219.32461 
L 591.061224 214.666535 
L 594.857143 213.4873 
L 602.44898 216.01525 
L 606.244898 218.110886 
L 610.040816 216.865633 
L 613.836735 220.412687 
L 617.632653 223.411282 
L 621.428571 229.462774 
L 625.22449 237.177267 
L 629.020408 237.875042 
L 632.816327 235.381746 
L 636.612245 227.476586 
L 640.408163 231.22526 
L 644.204082 234.557907 
L 648 243.728686 
L 648 243.728686 
" clip-path="url(#pf446b5d7a9)" style="fill: none; stroke-dasharray: 9.6,2.4,1.5,2.4; stroke-dashoffset: 0; stroke: #8c564b; stroke-width: 1.5"/>
   </g>
   <g id="patch_3">
    <path d="M 90 315 
L 90 43.2 
" style="fill: none; stroke: #000000; stroke-width: 0.8; stroke-linejoin: miter; stroke-linecap: square"/>
   </g>
   <g id="patch_4">
    <path d="M 648 315 
L 648 43.2 
" style="fill: none; stroke: #000000; stroke-width: 0.8; stroke-linejoin: miter; stroke-linecap: square"/>
   </g>
   <g id="patch_5">
    <path d="M 90 315 
L 648 315 
" style="fill: none; stroke: #000000; stroke-width: 0.8; stroke-linejoin: miter; stroke-linecap: square"/>
   </g>
   <g id="patch_6">
    <path d="M 90 43.2 
L 648 43.2 
" style="fill: none; stroke: #000000; stroke-width: 0.8; stroke-linejoin: miter; stroke-linecap: square"/>
   </g>
   <g id="text_8">
    <!-- Python version of NumPy users, MacOS and Windows (i.e. no batch jobs) -->
    <g transform="translate(150.75 37.2)scale(0.12 -0.12)">
     <defs>
      <path id="DejaVuSans-50" d="M 1259 4147 
L 1259 2394 
L 2053 2394 
Q 2494 2394 2734 2622 
Q 2975 2850 2975 3272 
Q 2975 3691 2734 3919 
Q 2494 4147 2053 4147 
L 1259 4147 
z
M 628 4666 
L 2053 4666 
Q 2838 4666 3239 4311 
Q 3641 3956 3641 3272 
Q 3641 2581 3239 2228 
Q 2838 1875 2053 1875 
L 1259 1875 
L 1259 0 
L 628 0 
L 628 4666 
z
" transform="scale(0.015625)"/>
      <path id="DejaVuSans-79" d="M 2059 -325 
Q 1816 -950 1584 -1140 
Q 1353 -1331 966 -1331 
L 506 -1331 
L 506 -850 
L 844 -850 
Q 1081 -850 1212 -737 
Q 1344 -625 1503 -206 
L 1606 56 
L 191 3500 
L 800 3500 
L 1894 763 
L 2988 3500 
L 3597 3500 
L 2059 -325 
z
" transform="scale(0.015625)"/>
      <path id="DejaVuSans-76" d="M 191 3500 
L 800 3500 
L 1894 563 
L 2988 3500 
L 3597 3500 
L 2284 0 
L 1503 0 
L 191 3500 
z
" transform="scale(0.015625)"/>
      <path id="DejaVuSans-2c" d="M 750 794 
L 1409 794 
L 1409 256 
L 897 -744 
L 494 -744 
L 750 256 
L 750 794 
z
" transform="scale(0.015625)"/>
      <path id="DejaVuSans-4d" d="M 628 4666 
L 1569 4666 
L 2759 1491 
L 3956 4666 
L 4897 4666 
L 4897 0 
L 4281 0 
L 4281 4097 
L 3078 897 
L 2444 897 
L 1241 4097 
L 1241 0 
L 628 0 
L 628 4666 
z
" transform="scale(0.015625)"/>
      <path id="DejaVuSans-63" d="M 3122 3366 
L 3122 2828 
Q 2878 2963 2633 3030 
Q 2388 3097 2138 3097 
Q 1578 3097 1268 2742 
Q 959 2388 959 1747 
Q 959 1106 1268 751 
Q 1578 397 2138 397 
Q 2388 397 2633 464 
Q 2878 531 3122 666 
L 3122 134 
Q 2881 22 2623 -34 
Q 2366 -91 2075 -91 
Q 1284 -91 818 406 
Q 353 903 353 1747 
Q 353 2603 823 3093 
Q 1294 3584 2113 3584 
Q 2378 3584 2631 3529 
Q 2884 3475 3122 3366 
z
" transform="scale(0.015625)"/>
      <path id="DejaVuSans-4f" d="M 2522 4238 
Q 1834 4238 1429 3725 
Q 1025 3213 1025 2328 
Q 1025 1447 1429 934 
Q 1834 422 2522 422 
Q 3209 422 3611 934 
Q 4013 1447 4013 2328 
Q 4013 3213 3611 3725 
Q 3209 4238 2522 4238 
z
M 2522 4750 
Q 3503 4750 4090 4092 
Q 4678 3434 4678 2328 
Q 4678 1225 4090 567 
Q 3503 -91 2522 -91 
Q 1538 -91 948 565 
Q 359 1222 359 2328 
Q 359 3434 948 4092 
Q 1538 4750 2522 4750 
z
" transform="scale(0.015625)"/>
      <path id="DejaVuSans-53" d="M 3425 4513 
L 3425 3897 
Q 3066 4069 2747 4153 
Q 2428 4238 2131 4238 
Q 1616 4238 1336 4038 
Q 1056 3838 1056 3469 
Q 1056 3159 1242 3001 
Q 1428 2844 1947 2747 
L 2328 2669 
Q 3034 2534 3370 2195 
Q 3706 1856 3706 1288 
Q 3706 609 3251 259 
Q 2797 -91 1919 -91 
Q 1588 -91 1214 -16 
Q 841 59 441 206 
L 441 856 
Q 825 641 1194 531 
Q 1563 422 1919 422 
Q 2459 422 2753 634 
Q 3047 847 3047 1241 
Q 3047 1584 2836 1778 
Q 2625 1972 2144 2069 
L 1759 2144 
Q 1053 2284 737 2584 
Q 422 2884 422 3419 
Q 422 4038 858 4394 
Q 1294 4750 2059 4750 
Q 2388 4750 2728 4690 
Q 3069 4631 3425 4513 
z
" transform="scale(0.015625)"/>
      <path id="DejaVuSans-64" d="M 2906 2969 
L 2906 4863 
L 3481 4863 
L 3481 0 
L 2906 0 
L 2906 525 
Q 2725 213 2448 61 
Q 2172 -91 1784 -91 
Q 1150 -91 751 415 
Q 353 922 353 1747 
Q 353 2572 751 3078 
Q 1150 3584 1784 3584 
Q 2172 3584 2448 3432 
Q 2725 3281 2906 2969 
z
M 947 1747 
Q 947 1113 1208 752 
Q 1469 391 1925 391 
Q 2381 391 2643 752 
Q 2906 1113 2906 1747 
Q 2906 2381 2643 2742 
Q 2381 3103 1925 3103 
Q 1469 3103 1208 2742 
Q 947 2381 947 1747 
z
" transform="scale(0.015625)"/>
      <path id="DejaVuSans-57" d="M 213 4666 
L 850 4666 
L 1831 722 
L 2809 4666 
L 3519 4666 
L 4500 722 
L 5478 4666 
L 6119 4666 
L 4947 0 
L 4153 0 
L 3169 4050 
L 2175 0 
L 1381 0 
L 213 4666 
z
" transform="scale(0.015625)"/>
      <path id="DejaVuSans-77" d="M 269 3500 
L 844 3500 
L 1563 769 
L 2278 3500 
L 2956 3500 
L 3675 769 
L 4391 3500 
L 4966 3500 
L 4050 0 
L 3372 0 
L 2619 2869 
L 1863 0 
L 1184 0 
L 269 3500 
z
" transform="scale(0.015625)"/>
      <path id="DejaVuSans-28" d="M 1984 4856 
Q 1566 4138 1362 3434 
Q 1159 2731 1159 2009 
Q 1159 1288 1364 580 
Q 1569 -128 1984 -844 
L 1484 -844 
Q 1016 -109 783 600 
Q 550 1309 550 2009 
Q 550 2706 781 3412 
Q 1013 4119 1484 4856 
L 1984 4856 
z
" transform="scale(0.015625)"/>
      <path id="DejaVuSans-2e" d="M 684 794 
L 1344 794 
L 1344 0 
L 684 0 
L 684 794 
z
" transform="scale(0.015625)"/>
      <path id="DejaVuSans-6a" d="M 603 3500 
L 1178 3500 
L 1178 -63 
Q 1178 -731 923 -1031 
Q 669 -1331 103 -1331 
L -116 -1331 
L -116 -844 
L 38 -844 
Q 366 -844 484 -692 
Q 603 -541 603 -63 
L 603 3500 
z
M 603 4863 
L 1178 4863 
L 1178 4134 
L 603 4134 
L 603 4863 
z
" transform="scale(0.015625)"/>
      <path id="DejaVuSans-29" d="M 513 4856 
L 1013 4856 
Q 1481 4119 1714 3412 
Q 1947 2706 1947 2009 
Q 1947 1309 1714 600 
Q 1481 -109 1013 -844 
L 513 -844 
Q 928 -128 1133 580 
Q 1338 1288 1338 2009 
Q 1338 2731 1133 3434 
Q 928 4138 513 4856 
z
" transform="scale(0.015625)"/>
     </defs>
     <use xlink:href="#DejaVuSans-50"/>
     <use xlink:href="#DejaVuSans-79" x="60.302734"/>
     <use xlink:href="#DejaVuSans-74" x="119.482422"/>
     <use xlink:href="#DejaVuSans-68" x="158.691406"/>
     <use xlink:href="#DejaVuSans-6f" x="222.070312"/>
     <use xlink:href="#DejaVuSans-6e" x="283.251953"/>
     <use xlink:href="#DejaVuSans-20" x="346.630859"/>
     <use xlink:href="#DejaVuSans-76" x="378.417969"/>
     <use xlink:href="#DejaVuSans-65" x="437.597656"/>
     <use xlink:href="#DejaVuSans-72" x="499.121094"/>
     <use xlink:href="#DejaVuSans-73" x="540.234375"/>
     <use xlink:href="#DejaVuSans-69" x="592.333984"/>
     <use xlink:href="#DejaVuSans-6f" x="620.117188"/>
     <use xlink:href="#DejaVuSans-6e" x="681.298828"/>
     <use xlink:href="#DejaVuSans-20" x="744.677734"/>
     <use xlink:href="#DejaVuSans-6f" x="776.464844"/>
     <use xlink:href="#DejaVuSans-66" x="837.646484"/>
     <use xlink:href="#DejaVuSans-20" x="872.851562"/>
     <use xlink:href="#DejaVuSans-4e" x="904.638672"/>
     <use xlink:href="#DejaVuSans-75" x="979.443359"/>
     <use xlink:href="#DejaVuSans-6d" x="1042.822266"/>
     <use xlink:href="#DejaVuSans-50" x="1140.234375"/>
     <use xlink:href="#DejaVuSans-79" x="1200.537109"/>
     <use xlink:href="#DejaVuSans-20" x="1259.716797"/>
     <use xlink:href="#DejaVuSans-75" x="1291.503906"/>
     <use xlink:href="#DejaVuSans-73" x="1354.882812"/>
     <use xlink:href="#DejaVuSans-65" x="1406.982422"/>
     <use xlink:href="#DejaVuSans-72" x="1468.505859"/>
     <use xlink:href="#DejaVuSans-73" x="1509.619141"/>
     <use xlink:href="#DejaVuSans-2c" x="1561.71875"/>
     <use xlink:href="#DejaVuSans-20" x="1593.505859"/>
     <use xlink:href="#DejaVuSans-4d" x="1625.292969"/>
     <use xlink:href="#DejaVuSans-61" x="1711.572266"/>
     <use xlink:href="#DejaVuSans-63" x="1772.851562"/>
     <use xlink:href="#DejaVuSans-4f" x="1827.832031"/>
     <use xlink:href="#DejaVuSans-53" x="1906.542969"/>
     <use xlink:href="#DejaVuSans-20" x="1970.019531"/>
     <use xlink:href="#DejaVuSans-61" x="2001.806641"/>
     <use xlink:href="#DejaVuSans-6e" x="2063.085938"/>
     <use xlink:href="#DejaVuSans-64" x="2126.464844"/>
     <use xlink:href="#DejaVuSans-20" x="2189.941406"/>
     <use xlink:href="#DejaVuSans-57" x="2221.728516"/>
     <use xlink:href="#DejaVuSans-69" x="2318.355469"/>
     <use xlink:href="#DejaVuSans-6e" x="2346.138672"/>
     <use xlink:href="#DejaVuSans-64" x="2409.517578"/>
     <use xlink:href="#DejaVuSans-6f" x="2472.994141"/>
     <use xlink:href="#DejaVuSans-77" x="2534.175781"/>
     <use xlink:href="#DejaVuSans-73" x="2615.962891"/>
     <use xlink:href="#DejaVuSans-20" x="2668.0625"/>
     <use xlink:href="#DejaVuSans-28" x="2699.849609"/>
     <use xlink:href="#DejaVuSans-69" x="2738.863281"/>
     <use xlink:href="#DejaVuSans-2e" x="2766.646484"/>
     <use xlink:href="#DejaVuSans-65" x="2798.433594"/>
     <use xlink:href="#DejaVuSans-2e" x="2859.957031"/>
     <use xlink:href="#DejaVuSans-20" x="2891.744141"/>
     <use xlink:href="#DejaVuSans-6e" x="2923.53125"/>
     <use xlink:href="#DejaVuSans-6f" x="2986.910156"/>
     <use xlink:href="#DejaVuSans-20" x="3048.091797"/>
     <use xlink:href="#DejaVuSans-62" x="3079.878906"/>
     <use xlink:href="#DejaVuSans-61" x="3143.355469"/>
     <use xlink:href="#DejaVuSans-74" x="3204.634766"/>
     <use xlink:href="#DejaVuSans-63" x="3243.84375"/>
     <use xlink:href="#DejaVuSans-68" x="3298.824219"/>
     <use xlink:href="#DejaVuSans-20" x="3362.203125"/>
     <use xlink:href="#DejaVuSans-6a" x="3393.990234"/>
     <use xlink:href="#DejaVuSans-6f" x="3421.773438"/>
     <use xlink:href="#DejaVuSans-62" x="3482.955078"/>
     <use xlink:href="#DejaVuSans-73" x="3546.431641"/>
     <use xlink:href="#DejaVuSans-29" x="3598.53125"/>
    </g>
   </g>
   <g id="legend_1">
    <g id="patch_7">
     <path d="M 97 139.26875 
L 189.421875 139.26875 
Q 191.421875 139.26875 191.421875 137.26875 
L 191.421875 50.2 
Q 191.421875 48.2 189.421875 48.2 
L 97 48.2 
Q 95 48.2 95 50.2 
L 95 137.26875 
Q 95 139.26875 97 139.26875 
z
" style="fill: #ffffff; opacity: 0.8; stroke: #cccccc; stroke-linejoin: miter"/>
    </g>
    <g id="line2d_44">
     <path d="M 99 56.298437 
L 109 56.298437 
L 119 56.298437 
" style="fill: none; stroke: #1f77b4; stroke-width: 1.5; stroke-linecap: square"/>
    </g>
    <g id="text_9">
     <!-- 3.9 -->
     <g transform="translate(127 59.798437)scale(0.1 -0.1)">
      <defs>
       <path id="DejaVuSans-33" d="M 2597 2516 
Q 3050 2419 3304 2112 
Q 3559 1806 3559 1356 
Q 3559 666 3084 287 
Q 2609 -91 1734 -91 
Q 1441 -91 1130 -33 
Q 819 25 488 141 
L 488 750 
Q 750 597 1062 519 
Q 1375 441 1716 441 
Q 2309 441 2620 675 
Q 2931 909 2931 1356 
Q 2931 1769 2642 2001 
Q 2353 2234 1838 2234 
L 1294 2234 
L 1294 2753 
L 1863 2753 
Q 2328 2753 2575 2939 
Q 2822 3125 2822 3475 
Q 2822 3834 2567 4026 
Q 2313 4219 1838 4219 
Q 1578 4219 1281 4162 
Q 984 4106 628 3988 
L 628 4550 
Q 988 4650 1302 4700 
Q 1616 4750 1894 4750 
Q 2613 4750 3031 4423 
Q 3450 4097 3450 3541 
Q 3450 3153 3228 2886 
Q 3006 2619 2597 2516 
z
" transform="scale(0.015625)"/>
      </defs>
      <use xlink:href="#DejaVuSans-33"/>
      <use xlink:href="#DejaVuSans-2e" x="63.623047"/>
      <use xlink:href="#DejaVuSans-39" x="95.410156"/>
     </g>
    </g>
    <g id="line2d_45">
     <path d="M 99 70.976562 
L 109 70.976562 
L 119 70.976562 
" style="fill: none; stroke-dasharray: 1.5,2.475; stroke-dashoffset: 0; stroke: #ff7f0e; stroke-width: 1.5"/>
    </g>
    <g id="text_10">
     <!-- 3.8 -->
     <g transform="translate(127 74.476562)scale(0.1 -0.1)">
      <defs>
       <path id="DejaVuSans-38" d="M 2034 2216 
Q 1584 2216 1326 1975 
Q 1069 1734 1069 1313 
Q 1069 891 1326 650 
Q 1584 409 2034 409 
Q 2484 409 2743 651 
Q 3003 894 3003 1313 
Q 3003 1734 2745 1975 
Q 2488 2216 2034 2216 
z
M 1403 2484 
Q 997 2584 770 2862 
Q 544 3141 544 3541 
Q 544 4100 942 4425 
Q 1341 4750 2034 4750 
Q 2731 4750 3128 4425 
Q 3525 4100 3525 3541 
Q 3525 3141 3298 2862 
Q 3072 2584 2669 2484 
Q 3125 2378 3379 2068 
Q 3634 1759 3634 1313 
Q 3634 634 3220 271 
Q 2806 -91 2034 -91 
Q 1263 -91 848 271 
Q 434 634 434 1313 
Q 434 1759 690 2068 
Q 947 2378 1403 2484 
z
M 1172 3481 
Q 1172 3119 1398 2916 
Q 1625 2713 2034 2713 
Q 2441 2713 2670 2916 
Q 2900 3119 2900 3481 
Q 2900 3844 2670 4047 
Q 2441 4250 2034 4250 
Q 1625 4250 1398 4047 
Q 1172 3844 1172 3481 
z
" transform="scale(0.015625)"/>
      </defs>
      <use xlink:href="#DejaVuSans-33"/>
      <use xlink:href="#DejaVuSans-2e" x="63.623047"/>
      <use xlink:href="#DejaVuSans-38" x="95.410156"/>
     </g>
    </g>
    <g id="line2d_46">
     <path d="M 99 85.654687 
L 109 85.654687 
L 119 85.654687 
" style="fill: none; stroke-dasharray: 5.55,2.4; stroke-dashoffset: 0; stroke: #2ca02c; stroke-width: 1.5"/>
    </g>
    <g id="text_11">
     <!-- 3.7 -->
     <g transform="translate(127 89.154687)scale(0.1 -0.1)">
      <defs>
       <path id="DejaVuSans-37" d="M 525 4666 
L 3525 4666 
L 3525 4397 
L 1831 0 
L 1172 0 
L 2766 4134 
L 525 4134 
L 525 4666 
z
" transform="scale(0.015625)"/>
      </defs>
      <use xlink:href="#DejaVuSans-33"/>
      <use xlink:href="#DejaVuSans-2e" x="63.623047"/>
      <use xlink:href="#DejaVuSans-37" x="95.410156"/>
     </g>
    </g>
    <g id="line2d_47">
     <path d="M 99 100.332812 
L 109 100.332812 
L 119 100.332812 
" style="fill: none; stroke: #d62728; stroke-width: 1.5; stroke-linecap: square"/>
    </g>
    <g id="text_12">
     <!-- 3.6 -->
     <g transform="translate(127 103.832812)scale(0.1 -0.1)">
      <use xlink:href="#DejaVuSans-33"/>
      <use xlink:href="#DejaVuSans-2e" x="63.623047"/>
      <use xlink:href="#DejaVuSans-36" x="95.410156"/>
     </g>
    </g>
    <g id="line2d_48">
     <path d="M 99 115.010937 
L 109 115.010937 
L 119 115.010937 
" style="fill: none; stroke-dasharray: 5.55,2.4; stroke-dashoffset: 0; stroke: #9467bd; stroke-width: 1.5"/>
    </g>
    <g id="text_13">
     <!-- 3.3, 3.4, 3.5 -->
     <g transform="translate(127 118.510937)scale(0.1 -0.1)">
      <defs>
       <path id="DejaVuSans-34" d="M 2419 4116 
L 825 1625 
L 2419 1625 
L 2419 4116 
z
M 2253 4666 
L 3047 4666 
L 3047 1625 
L 3713 1625 
L 3713 1100 
L 3047 1100 
L 3047 0 
L 2419 0 
L 2419 1100 
L 313 1100 
L 313 1709 
L 2253 4666 
z
" transform="scale(0.015625)"/>
      </defs>
      <use xlink:href="#DejaVuSans-33"/>
      <use xlink:href="#DejaVuSans-2e" x="63.623047"/>
      <use xlink:href="#DejaVuSans-33" x="95.410156"/>
      <use xlink:href="#DejaVuSans-2c" x="159.033203"/>
      <use xlink:href="#DejaVuSans-20" x="190.820312"/>
      <use xlink:href="#DejaVuSans-33" x="222.607422"/>
      <use xlink:href="#DejaVuSans-2e" x="286.230469"/>
      <use xlink:href="#DejaVuSans-34" x="318.017578"/>
      <use xlink:href="#DejaVuSans-2c" x="381.640625"/>
      <use xlink:href="#DejaVuSans-20" x="413.427734"/>
      <use xlink:href="#DejaVuSans-33" x="445.214844"/>
      <use xlink:href="#DejaVuSans-2e" x="508.837891"/>
      <use xlink:href="#DejaVuSans-35" x="540.625"/>
     </g>
    </g>
    <g id="line2d_49">
     <path d="M 99 129.689062 
L 109 129.689062 
L 119 129.689062 
" style="fill: none; stroke-dasharray: 9.6,2.4,1.5,2.4; stroke-dashoffset: 0; stroke: #8c564b; stroke-width: 1.5"/>
    </g>
    <g id="text_14">
     <!-- 2.7 -->
     <g transform="translate(127 133.189062)scale(0.1 -0.1)">
      <use xlink:href="#DejaVuSans-32"/>
      <use xlink:href="#DejaVuSans-2e" x="63.623047"/>
      <use xlink:href="#DejaVuSans-37" x="95.410156"/>
     </g>
    </g>
   </g>
  </g>
 </g>
 <defs>
  <clipPath id="pf446b5d7a9">
   <rect x="90" y="43.2" width="558" height="271.8"/>
  </clipPath>
 </defs>
</svg>
