<?xml version="1.0" encoding="utf-8" standalone="no"?>
<!DOCTYPE svg PUBLIC "-//W3C//DTD SVG 1.1//EN"
  "http://www.w3.org/Graphics/SVG/1.1/DTD/svg11.dtd">
<svg xmlns:xlink="http://www.w3.org/1999/xlink" width="720pt" height="360pt" viewBox="0 0 720 360" xmlns="http://www.w3.org/2000/svg" version="1.1">
 <metadata>
  <rdf:RDF xmlns:dc="http://purl.org/dc/elements/1.1/" xmlns:cc="http://creativecommons.org/ns#" xmlns:rdf="http://www.w3.org/1999/02/22-rdf-syntax-ns#">
   <cc:Work>
    <dc:type rdf:resource="http://purl.org/dc/dcmitype/StillImage"/>
    <dc:date>2023-04-05T16:17:02.208896</dc:date>
    <dc:format>image/svg+xml</dc:format>
    <dc:creator>
     <cc:Agent>
      <dc:title>Matplotlib v3.7.1, https://matplotlib.org/</dc:title>
     </cc:Agent>
    </dc:creator>
   </cc:Work>
  </rdf:RDF>
 </metadata>
 <defs>
  <style type="text/css">*{stroke-linejoin: round; stroke-linecap: butt}</style>
 </defs>
 <g id="figure_1">
  <g id="patch_1">
   <path d="M 0 360 
L 720 360 
L 720 0 
L 0 0 
z
" style="fill: #ffffff"/>
  </g>
  <g id="axes_1">
   <g id="patch_2">
    <path d="M 90 320.4 
L 648 320.4 
L 648 43.2 
L 90 43.2 
z
" style="fill: #ffffff"/>
   </g>
   <g id="matplotlib.axis_1">
    <g id="xtick_1">
     <g id="line2d_1">
      <defs>
       <path id="meddd0054ce" d="M 0 0 
L 0 3.5 
" style="stroke: #000000; stroke-width: 0.8"/>
      </defs>
      <g>
       <use xlink:href="#meddd0054ce" x="90" y="320.4" style="stroke: #000000; stroke-width: 0.8"/>
      </g>
     </g>
    </g>
    <g id="xtick_2">
     <g id="line2d_2">
      <g>
       <use xlink:href="#meddd0054ce" x="162.136882" y="320.4" style="stroke: #000000; stroke-width: 0.8"/>
      </g>
     </g>
     <g id="text_1">
      <!-- Jan -->
      <g transform="translate(154.42907 334.998438) scale(0.1 -0.1)">
       <defs>
        <path id="DejaVuSans-4a" d="M 628 4666 
L 1259 4666 
L 1259 325 
Q 1259 -519 939 -900 
Q 619 -1281 -91 -1281 
L -331 -1281 
L -331 -750 
L -134 -750 
Q 284 -750 456 -515 
Q 628 -281 628 325 
L 628 4666 
z
" transform="scale(0.015625)"/>
        <path id="DejaVuSans-61" d="M 2194 1759 
Q 1497 1759 1228 1600 
Q 959 1441 959 1056 
Q 959 750 1161 570 
Q 1363 391 1709 391 
Q 2188 391 2477 730 
Q 2766 1069 2766 1631 
L 2766 1759 
L 2194 1759 
z
M 3341 1997 
L 3341 0 
L 2766 0 
L 2766 531 
Q 2569 213 2275 61 
Q 1981 -91 1556 -91 
Q 1019 -91 701 211 
Q 384 513 384 1019 
Q 384 1609 779 1909 
Q 1175 2209 1959 2209 
L 2766 2209 
L 2766 2266 
Q 2766 2663 2505 2880 
Q 2244 3097 1772 3097 
Q 1472 3097 1187 3025 
Q 903 2953 641 2809 
L 641 3341 
Q 956 3463 1253 3523 
Q 1550 3584 1831 3584 
Q 2591 3584 2966 3190 
Q 3341 2797 3341 1997 
z
" transform="scale(0.015625)"/>
        <path id="DejaVuSans-6e" d="M 3513 2113 
L 3513 0 
L 2938 0 
L 2938 2094 
Q 2938 2591 2744 2837 
Q 2550 3084 2163 3084 
Q 1697 3084 1428 2787 
Q 1159 2491 1159 1978 
L 1159 0 
L 581 0 
L 581 3500 
L 1159 3500 
L 1159 2956 
Q 1366 3272 1645 3428 
Q 1925 3584 2291 3584 
Q 2894 3584 3203 3211 
Q 3513 2838 3513 2113 
z
" transform="scale(0.015625)"/>
       </defs>
       <use xlink:href="#DejaVuSans-4a"/>
       <use xlink:href="#DejaVuSans-61" x="29.492188"/>
       <use xlink:href="#DejaVuSans-6e" x="90.771484"/>
      </g>
      <!-- 2020 -->
      <g transform="translate(149.411882 346.19625) scale(0.1 -0.1)">
       <defs>
        <path id="DejaVuSans-32" d="M 1228 531 
L 3431 531 
L 3431 0 
L 469 0 
L 469 531 
Q 828 903 1448 1529 
Q 2069 2156 2228 2338 
Q 2531 2678 2651 2914 
Q 2772 3150 2772 3378 
Q 2772 3750 2511 3984 
Q 2250 4219 1831 4219 
Q 1534 4219 1204 4116 
Q 875 4013 500 3803 
L 500 4441 
Q 881 4594 1212 4672 
Q 1544 4750 1819 4750 
Q 2544 4750 2975 4387 
Q 3406 4025 3406 3419 
Q 3406 3131 3298 2873 
Q 3191 2616 2906 2266 
Q 2828 2175 2409 1742 
Q 1991 1309 1228 531 
z
" transform="scale(0.015625)"/>
        <path id="DejaVuSans-30" d="M 2034 4250 
Q 1547 4250 1301 3770 
Q 1056 3291 1056 2328 
Q 1056 1369 1301 889 
Q 1547 409 2034 409 
Q 2525 409 2770 889 
Q 3016 1369 3016 2328 
Q 3016 3291 2770 3770 
Q 2525 4250 2034 4250 
z
M 2034 4750 
Q 2819 4750 3233 4129 
Q 3647 3509 3647 2328 
Q 3647 1150 3233 529 
Q 2819 -91 2034 -91 
Q 1250 -91 836 529 
Q 422 1150 422 2328 
Q 422 3509 836 4129 
Q 1250 4750 2034 4750 
z
" transform="scale(0.015625)"/>
       </defs>
       <use xlink:href="#DejaVuSans-32"/>
       <use xlink:href="#DejaVuSans-30" x="63.623047"/>
       <use xlink:href="#DejaVuSans-32" x="127.246094"/>
       <use xlink:href="#DejaVuSans-30" x="190.869141"/>
      </g>
     </g>
    </g>
    <g id="xtick_3">
     <g id="line2d_3">
      <g>
       <use xlink:href="#meddd0054ce" x="317.443346" y="320.4" style="stroke: #000000; stroke-width: 0.8"/>
      </g>
     </g>
     <g id="text_2">
      <!-- Jan -->
      <g transform="translate(309.735534 334.998438) scale(0.1 -0.1)">
       <use xlink:href="#DejaVuSans-4a"/>
       <use xlink:href="#DejaVuSans-61" x="29.492188"/>
       <use xlink:href="#DejaVuSans-6e" x="90.771484"/>
      </g>
      <!-- 2021 -->
      <g transform="translate(304.718346 346.19625) scale(0.1 -0.1)">
       <defs>
        <path id="DejaVuSans-31" d="M 794 531 
L 1825 531 
L 1825 4091 
L 703 3866 
L 703 4441 
L 1819 4666 
L 2450 4666 
L 2450 531 
L 3481 531 
L 3481 0 
L 794 0 
L 794 531 
z
" transform="scale(0.015625)"/>
       </defs>
       <use xlink:href="#DejaVuSans-32"/>
       <use xlink:href="#DejaVuSans-30" x="63.623047"/>
       <use xlink:href="#DejaVuSans-32" x="127.246094"/>
       <use xlink:href="#DejaVuSans-31" x="190.869141"/>
      </g>
     </g>
    </g>
    <g id="xtick_4">
     <g id="line2d_4">
      <g>
       <use xlink:href="#meddd0054ce" x="472.325475" y="320.4" style="stroke: #000000; stroke-width: 0.8"/>
      </g>
     </g>
     <g id="text_3">
      <!-- Jan -->
      <g transform="translate(464.617663 334.998438) scale(0.1 -0.1)">
       <use xlink:href="#DejaVuSans-4a"/>
       <use xlink:href="#DejaVuSans-61" x="29.492188"/>
       <use xlink:href="#DejaVuSans-6e" x="90.771484"/>
      </g>
      <!-- 2022 -->
      <g transform="translate(459.600475 346.19625) scale(0.1 -0.1)">
       <use xlink:href="#DejaVuSans-32"/>
       <use xlink:href="#DejaVuSans-30" x="63.623047"/>
       <use xlink:href="#DejaVuSans-32" x="127.246094"/>
       <use xlink:href="#DejaVuSans-32" x="190.869141"/>
      </g>
     </g>
    </g>
    <g id="xtick_5">
     <g id="line2d_5">
      <g>
       <use xlink:href="#meddd0054ce" x="627.207605" y="320.4" style="stroke: #000000; stroke-width: 0.8"/>
      </g>
     </g>
     <g id="text_4">
      <!-- Jan -->
      <g transform="translate(619.499792 334.998438) scale(0.1 -0.1)">
       <use xlink:href="#DejaVuSans-4a"/>
       <use xlink:href="#DejaVuSans-61" x="29.492188"/>
       <use xlink:href="#DejaVuSans-6e" x="90.771484"/>
      </g>
      <!-- 2023 -->
      <g transform="translate(614.482605 346.19625) scale(0.1 -0.1)">
       <defs>
        <path id="DejaVuSans-33" d="M 2597 2516 
Q 3050 2419 3304 2112 
Q 3559 1806 3559 1356 
Q 3559 666 3084 287 
Q 2609 -91 1734 -91 
Q 1441 -91 1130 -33 
Q 819 25 488 141 
L 488 750 
Q 750 597 1062 519 
Q 1375 441 1716 441 
Q 2309 441 2620 675 
Q 2931 909 2931 1356 
Q 2931 1769 2642 2001 
Q 2353 2234 1838 2234 
L 1294 2234 
L 1294 2753 
L 1863 2753 
Q 2328 2753 2575 2939 
Q 2822 3125 2822 3475 
Q 2822 3834 2567 4026 
Q 2313 4219 1838 4219 
Q 1578 4219 1281 4162 
Q 984 4106 628 3988 
L 628 4550 
Q 988 4650 1302 4700 
Q 1616 4750 1894 4750 
Q 2613 4750 3031 4423 
Q 3450 4097 3450 3541 
Q 3450 3153 3228 2886 
Q 3006 2619 2597 2516 
z
" transform="scale(0.015625)"/>
       </defs>
       <use xlink:href="#DejaVuSans-32"/>
       <use xlink:href="#DejaVuSans-30" x="63.623047"/>
       <use xlink:href="#DejaVuSans-32" x="127.246094"/>
       <use xlink:href="#DejaVuSans-33" x="190.869141"/>
      </g>
     </g>
    </g>
    <g id="xtick_6">
     <g id="line2d_6">
      <g>
       <use xlink:href="#meddd0054ce" x="648" y="320.4" style="stroke: #000000; stroke-width: 0.8"/>
      </g>
     </g>
    </g>
    <g id="xtick_7">
     <g id="line2d_7">
      <defs>
       <path id="me9a119b674" d="M 0 0 
L 0 2 
" style="stroke: #000000; stroke-width: 0.6"/>
      </defs>
      <g>
       <use xlink:href="#me9a119b674" x="97.213688" y="320.4" style="stroke: #000000; stroke-width: 0.6"/>
      </g>
     </g>
    </g>
    <g id="xtick_8">
     <g id="line2d_8">
      <g>
       <use xlink:href="#me9a119b674" x="110.368061" y="320.4" style="stroke: #000000; stroke-width: 0.6"/>
      </g>
     </g>
    </g>
    <g id="xtick_9">
     <g id="line2d_9">
      <g>
       <use xlink:href="#me9a119b674" x="123.098099" y="320.4" style="stroke: #000000; stroke-width: 0.6"/>
      </g>
     </g>
    </g>
    <g id="xtick_10">
     <g id="line2d_10">
      <g>
       <use xlink:href="#me9a119b674" x="136.252471" y="320.4" style="stroke: #000000; stroke-width: 0.6"/>
      </g>
     </g>
    </g>
    <g id="xtick_11">
     <g id="line2d_11">
      <g>
       <use xlink:href="#me9a119b674" x="148.98251" y="320.4" style="stroke: #000000; stroke-width: 0.6"/>
      </g>
     </g>
    </g>
    <g id="xtick_12">
     <g id="line2d_12">
      <g>
       <use xlink:href="#me9a119b674" x="175.291255" y="320.4" style="stroke: #000000; stroke-width: 0.6"/>
      </g>
     </g>
    </g>
    <g id="xtick_13">
     <g id="line2d_13">
      <g>
       <use xlink:href="#me9a119b674" x="187.596958" y="320.4" style="stroke: #000000; stroke-width: 0.6"/>
      </g>
     </g>
    </g>
    <g id="xtick_14">
     <g id="line2d_14">
      <g>
       <use xlink:href="#me9a119b674" x="200.751331" y="320.4" style="stroke: #000000; stroke-width: 0.6"/>
      </g>
     </g>
    </g>
    <g id="xtick_15">
     <g id="line2d_15">
      <g>
       <use xlink:href="#me9a119b674" x="213.481369" y="320.4" style="stroke: #000000; stroke-width: 0.6"/>
      </g>
     </g>
    </g>
    <g id="xtick_16">
     <g id="line2d_16">
      <g>
       <use xlink:href="#me9a119b674" x="226.635741" y="320.4" style="stroke: #000000; stroke-width: 0.6"/>
      </g>
     </g>
    </g>
    <g id="xtick_17">
     <g id="line2d_17">
      <g>
       <use xlink:href="#me9a119b674" x="239.365779" y="320.4" style="stroke: #000000; stroke-width: 0.6"/>
      </g>
     </g>
     <g id="text_5">
      <!-- Jul -->
      <g transform="translate(233.332967 333.398438) scale(0.1 -0.1)">
       <defs>
        <path id="DejaVuSans-75" d="M 544 1381 
L 544 3500 
L 1119 3500 
L 1119 1403 
Q 1119 906 1312 657 
Q 1506 409 1894 409 
Q 2359 409 2629 706 
Q 2900 1003 2900 1516 
L 2900 3500 
L 3475 3500 
L 3475 0 
L 2900 0 
L 2900 538 
Q 2691 219 2414 64 
Q 2138 -91 1772 -91 
Q 1169 -91 856 284 
Q 544 659 544 1381 
z
M 1991 3584 
L 1991 3584 
z
" transform="scale(0.015625)"/>
        <path id="DejaVuSans-6c" d="M 603 4863 
L 1178 4863 
L 1178 0 
L 603 0 
L 603 4863 
z
" transform="scale(0.015625)"/>
       </defs>
       <use xlink:href="#DejaVuSans-4a"/>
       <use xlink:href="#DejaVuSans-75" x="29.492188"/>
       <use xlink:href="#DejaVuSans-6c" x="92.871094"/>
      </g>
     </g>
    </g>
    <g id="xtick_18">
     <g id="line2d_18">
      <g>
       <use xlink:href="#me9a119b674" x="252.520152" y="320.4" style="stroke: #000000; stroke-width: 0.6"/>
      </g>
     </g>
    </g>
    <g id="xtick_19">
     <g id="line2d_19">
      <g>
       <use xlink:href="#me9a119b674" x="265.674525" y="320.4" style="stroke: #000000; stroke-width: 0.6"/>
      </g>
     </g>
    </g>
    <g id="xtick_20">
     <g id="line2d_20">
      <g>
       <use xlink:href="#me9a119b674" x="278.404563" y="320.4" style="stroke: #000000; stroke-width: 0.6"/>
      </g>
     </g>
    </g>
    <g id="xtick_21">
     <g id="line2d_21">
      <g>
       <use xlink:href="#me9a119b674" x="291.558935" y="320.4" style="stroke: #000000; stroke-width: 0.6"/>
      </g>
     </g>
    </g>
    <g id="xtick_22">
     <g id="line2d_22">
      <g>
       <use xlink:href="#me9a119b674" x="304.288973" y="320.4" style="stroke: #000000; stroke-width: 0.6"/>
      </g>
     </g>
    </g>
    <g id="xtick_23">
     <g id="line2d_23">
      <g>
       <use xlink:href="#me9a119b674" x="330.597719" y="320.4" style="stroke: #000000; stroke-width: 0.6"/>
      </g>
     </g>
    </g>
    <g id="xtick_24">
     <g id="line2d_24">
      <g>
       <use xlink:href="#me9a119b674" x="342.479087" y="320.4" style="stroke: #000000; stroke-width: 0.6"/>
      </g>
     </g>
    </g>
    <g id="xtick_25">
     <g id="line2d_25">
      <g>
       <use xlink:href="#me9a119b674" x="355.63346" y="320.4" style="stroke: #000000; stroke-width: 0.6"/>
      </g>
     </g>
    </g>
    <g id="xtick_26">
     <g id="line2d_26">
      <g>
       <use xlink:href="#me9a119b674" x="368.363498" y="320.4" style="stroke: #000000; stroke-width: 0.6"/>
      </g>
     </g>
    </g>
    <g id="xtick_27">
     <g id="line2d_27">
      <g>
       <use xlink:href="#me9a119b674" x="381.517871" y="320.4" style="stroke: #000000; stroke-width: 0.6"/>
      </g>
     </g>
    </g>
    <g id="xtick_28">
     <g id="line2d_28">
      <g>
       <use xlink:href="#me9a119b674" x="394.247909" y="320.4" style="stroke: #000000; stroke-width: 0.6"/>
      </g>
     </g>
     <g id="text_6">
      <!-- Jul -->
      <g transform="translate(388.215096 333.398438) scale(0.1 -0.1)">
       <use xlink:href="#DejaVuSans-4a"/>
       <use xlink:href="#DejaVuSans-75" x="29.492188"/>
       <use xlink:href="#DejaVuSans-6c" x="92.871094"/>
      </g>
     </g>
    </g>
    <g id="xtick_29">
     <g id="line2d_29">
      <g>
       <use xlink:href="#me9a119b674" x="407.402281" y="320.4" style="stroke: #000000; stroke-width: 0.6"/>
      </g>
     </g>
    </g>
    <g id="xtick_30">
     <g id="line2d_30">
      <g>
       <use xlink:href="#me9a119b674" x="420.556654" y="320.4" style="stroke: #000000; stroke-width: 0.6"/>
      </g>
     </g>
    </g>
    <g id="xtick_31">
     <g id="line2d_31">
      <g>
       <use xlink:href="#me9a119b674" x="433.286692" y="320.4" style="stroke: #000000; stroke-width: 0.6"/>
      </g>
     </g>
    </g>
    <g id="xtick_32">
     <g id="line2d_32">
      <g>
       <use xlink:href="#me9a119b674" x="446.441065" y="320.4" style="stroke: #000000; stroke-width: 0.6"/>
      </g>
     </g>
    </g>
    <g id="xtick_33">
     <g id="line2d_33">
      <g>
       <use xlink:href="#me9a119b674" x="459.171103" y="320.4" style="stroke: #000000; stroke-width: 0.6"/>
      </g>
     </g>
    </g>
    <g id="xtick_34">
     <g id="line2d_34">
      <g>
       <use xlink:href="#me9a119b674" x="485.479848" y="320.4" style="stroke: #000000; stroke-width: 0.6"/>
      </g>
     </g>
    </g>
    <g id="xtick_35">
     <g id="line2d_35">
      <g>
       <use xlink:href="#me9a119b674" x="497.361217" y="320.4" style="stroke: #000000; stroke-width: 0.6"/>
      </g>
     </g>
    </g>
    <g id="xtick_36">
     <g id="line2d_36">
      <g>
       <use xlink:href="#me9a119b674" x="510.515589" y="320.4" style="stroke: #000000; stroke-width: 0.6"/>
      </g>
     </g>
    </g>
    <g id="xtick_37">
     <g id="line2d_37">
      <g>
       <use xlink:href="#me9a119b674" x="523.245627" y="320.4" style="stroke: #000000; stroke-width: 0.6"/>
      </g>
     </g>
    </g>
    <g id="xtick_38">
     <g id="line2d_38">
      <g>
       <use xlink:href="#me9a119b674" x="536.4" y="320.4" style="stroke: #000000; stroke-width: 0.6"/>
      </g>
     </g>
    </g>
    <g id="xtick_39">
     <g id="line2d_39">
      <g>
       <use xlink:href="#me9a119b674" x="549.130038" y="320.4" style="stroke: #000000; stroke-width: 0.6"/>
      </g>
     </g>
     <g id="text_7">
      <!-- Jul -->
      <g transform="translate(543.097226 333.398438) scale(0.1 -0.1)">
       <use xlink:href="#DejaVuSans-4a"/>
       <use xlink:href="#DejaVuSans-75" x="29.492188"/>
       <use xlink:href="#DejaVuSans-6c" x="92.871094"/>
      </g>
     </g>
    </g>
    <g id="xtick_40">
     <g id="line2d_40">
      <g>
       <use xlink:href="#me9a119b674" x="562.284411" y="320.4" style="stroke: #000000; stroke-width: 0.6"/>
      </g>
     </g>
    </g>
    <g id="xtick_41">
     <g id="line2d_41">
      <g>
       <use xlink:href="#me9a119b674" x="575.438783" y="320.4" style="stroke: #000000; stroke-width: 0.6"/>
      </g>
     </g>
    </g>
    <g id="xtick_42">
     <g id="line2d_42">
      <g>
       <use xlink:href="#me9a119b674" x="588.168821" y="320.4" style="stroke: #000000; stroke-width: 0.6"/>
      </g>
     </g>
    </g>
    <g id="xtick_43">
     <g id="line2d_43">
      <g>
       <use xlink:href="#me9a119b674" x="601.323194" y="320.4" style="stroke: #000000; stroke-width: 0.6"/>
      </g>
     </g>
    </g>
    <g id="xtick_44">
     <g id="line2d_44">
      <g>
       <use xlink:href="#me9a119b674" x="614.053232" y="320.4" style="stroke: #000000; stroke-width: 0.6"/>
      </g>
     </g>
    </g>
    <g id="xtick_45">
     <g id="line2d_45">
      <g>
       <use xlink:href="#me9a119b674" x="640.361977" y="320.4" style="stroke: #000000; stroke-width: 0.6"/>
      </g>
     </g>
    </g>
   </g>
   <g id="matplotlib.axis_2">
    <g id="ytick_1">
     <g id="line2d_46">
      <defs>
       <path id="mb39c54a786" d="M 0 0 
L -3.5 0 
" style="stroke: #000000; stroke-width: 0.8"/>
      </defs>
      <g>
       <use xlink:href="#mb39c54a786" x="90" y="292.584828" style="stroke: #000000; stroke-width: 0.8"/>
      </g>
     </g>
     <g id="text_8">
      <!-- $\mathdefault{10^{1}}$ -->
      <g transform="translate(65.4 296.384047) scale(0.1 -0.1)">
       <use xlink:href="#DejaVuSans-31" transform="translate(0 0.684375)"/>
       <use xlink:href="#DejaVuSans-30" transform="translate(63.623047 0.684375)"/>
       <use xlink:href="#DejaVuSans-31" transform="translate(128.203125 38.965625) scale(0.7)"/>
      </g>
     </g>
    </g>
    <g id="ytick_2">
     <g id="line2d_47">
      <g>
       <use xlink:href="#mb39c54a786" x="90" y="200.184828" style="stroke: #000000; stroke-width: 0.8"/>
      </g>
     </g>
     <g id="text_9">
      <!-- $\mathdefault{10^{2}}$ -->
      <g transform="translate(65.4 203.984047) scale(0.1 -0.1)">
       <use xlink:href="#DejaVuSans-31" transform="translate(0 0.765625)"/>
       <use xlink:href="#DejaVuSans-30" transform="translate(63.623047 0.765625)"/>
       <use xlink:href="#DejaVuSans-32" transform="translate(128.203125 39.046875) scale(0.7)"/>
      </g>
     </g>
    </g>
    <g id="ytick_3">
     <g id="line2d_48">
      <g>
       <use xlink:href="#mb39c54a786" x="90" y="107.784828" style="stroke: #000000; stroke-width: 0.8"/>
      </g>
     </g>
     <g id="text_10">
      <!-- $\mathdefault{10^{3}}$ -->
      <g transform="translate(65.4 111.584047) scale(0.1 -0.1)">
       <use xlink:href="#DejaVuSans-31" transform="translate(0 0.765625)"/>
       <use xlink:href="#DejaVuSans-30" transform="translate(63.623047 0.765625)"/>
       <use xlink:href="#DejaVuSans-33" transform="translate(128.203125 39.046875) scale(0.7)"/>
      </g>
     </g>
    </g>
    <g id="ytick_4">
     <g id="line2d_49">
      <defs>
       <path id="mf5a35fd64f" d="M 0 0 
L -2 0 
" style="stroke: #000000; stroke-width: 0.6"/>
      </defs>
      <g>
       <use xlink:href="#mf5a35fd64f" x="90" y="320.4" style="stroke: #000000; stroke-width: 0.6"/>
      </g>
     </g>
    </g>
    <g id="ytick_5">
     <g id="line2d_50">
      <g>
       <use xlink:href="#mf5a35fd64f" x="90" y="313.083653" style="stroke: #000000; stroke-width: 0.6"/>
      </g>
     </g>
    </g>
    <g id="ytick_6">
     <g id="line2d_51">
      <g>
       <use xlink:href="#mf5a35fd64f" x="90" y="306.89777" style="stroke: #000000; stroke-width: 0.6"/>
      </g>
     </g>
    </g>
    <g id="ytick_7">
     <g id="line2d_52">
      <g>
       <use xlink:href="#mf5a35fd64f" x="90" y="301.539314" style="stroke: #000000; stroke-width: 0.6"/>
      </g>
     </g>
    </g>
    <g id="ytick_8">
     <g id="line2d_53">
      <g>
       <use xlink:href="#mf5a35fd64f" x="90" y="296.812821" style="stroke: #000000; stroke-width: 0.6"/>
      </g>
     </g>
    </g>
    <g id="ytick_9">
     <g id="line2d_54">
      <g>
       <use xlink:href="#mf5a35fd64f" x="90" y="264.769657" style="stroke: #000000; stroke-width: 0.6"/>
      </g>
     </g>
    </g>
    <g id="ytick_10">
     <g id="line2d_55">
      <g>
       <use xlink:href="#mf5a35fd64f" x="90" y="248.498824" style="stroke: #000000; stroke-width: 0.6"/>
      </g>
     </g>
    </g>
    <g id="ytick_11">
     <g id="line2d_56">
      <g>
       <use xlink:href="#mf5a35fd64f" x="90" y="236.954485" style="stroke: #000000; stroke-width: 0.6"/>
      </g>
     </g>
    </g>
    <g id="ytick_12">
     <g id="line2d_57">
      <g>
       <use xlink:href="#mf5a35fd64f" x="90" y="228" style="stroke: #000000; stroke-width: 0.6"/>
      </g>
     </g>
    </g>
    <g id="ytick_13">
     <g id="line2d_58">
      <g>
       <use xlink:href="#mf5a35fd64f" x="90" y="220.683653" style="stroke: #000000; stroke-width: 0.6"/>
      </g>
     </g>
    </g>
    <g id="ytick_14">
     <g id="line2d_59">
      <g>
       <use xlink:href="#mf5a35fd64f" x="90" y="214.49777" style="stroke: #000000; stroke-width: 0.6"/>
      </g>
     </g>
    </g>
    <g id="ytick_15">
     <g id="line2d_60">
      <g>
       <use xlink:href="#mf5a35fd64f" x="90" y="209.139314" style="stroke: #000000; stroke-width: 0.6"/>
      </g>
     </g>
    </g>
    <g id="ytick_16">
     <g id="line2d_61">
      <g>
       <use xlink:href="#mf5a35fd64f" x="90" y="204.412821" style="stroke: #000000; stroke-width: 0.6"/>
      </g>
     </g>
    </g>
    <g id="ytick_17">
     <g id="line2d_62">
      <g>
       <use xlink:href="#mf5a35fd64f" x="90" y="172.369657" style="stroke: #000000; stroke-width: 0.6"/>
      </g>
     </g>
    </g>
    <g id="ytick_18">
     <g id="line2d_63">
      <g>
       <use xlink:href="#mf5a35fd64f" x="90" y="156.098824" style="stroke: #000000; stroke-width: 0.6"/>
      </g>
     </g>
    </g>
    <g id="ytick_19">
     <g id="line2d_64">
      <g>
       <use xlink:href="#mf5a35fd64f" x="90" y="144.554485" style="stroke: #000000; stroke-width: 0.6"/>
      </g>
     </g>
    </g>
    <g id="ytick_20">
     <g id="line2d_65">
      <g>
       <use xlink:href="#mf5a35fd64f" x="90" y="135.6" style="stroke: #000000; stroke-width: 0.6"/>
      </g>
     </g>
    </g>
    <g id="ytick_21">
     <g id="line2d_66">
      <g>
       <use xlink:href="#mf5a35fd64f" x="90" y="128.283653" style="stroke: #000000; stroke-width: 0.6"/>
      </g>
     </g>
    </g>
    <g id="ytick_22">
     <g id="line2d_67">
      <g>
       <use xlink:href="#mf5a35fd64f" x="90" y="122.09777" style="stroke: #000000; stroke-width: 0.6"/>
      </g>
     </g>
    </g>
    <g id="ytick_23">
     <g id="line2d_68">
      <g>
       <use xlink:href="#mf5a35fd64f" x="90" y="116.739314" style="stroke: #000000; stroke-width: 0.6"/>
      </g>
     </g>
    </g>
    <g id="ytick_24">
     <g id="line2d_69">
      <g>
       <use xlink:href="#mf5a35fd64f" x="90" y="112.012821" style="stroke: #000000; stroke-width: 0.6"/>
      </g>
     </g>
    </g>
    <g id="ytick_25">
     <g id="line2d_70">
      <g>
       <use xlink:href="#mf5a35fd64f" x="90" y="79.969657" style="stroke: #000000; stroke-width: 0.6"/>
      </g>
     </g>
    </g>
    <g id="ytick_26">
     <g id="line2d_71">
      <g>
       <use xlink:href="#mf5a35fd64f" x="90" y="63.698824" style="stroke: #000000; stroke-width: 0.6"/>
      </g>
     </g>
    </g>
    <g id="ytick_27">
     <g id="line2d_72">
      <g>
       <use xlink:href="#mf5a35fd64f" x="90" y="52.154485" style="stroke: #000000; stroke-width: 0.6"/>
      </g>
     </g>
    </g>
    <g id="ytick_28">
     <g id="line2d_73">
      <g>
       <use xlink:href="#mf5a35fd64f" x="90" y="43.2" style="stroke: #000000; stroke-width: 0.6"/>
      </g>
     </g>
    </g>
    <g id="text_11">
     <!-- Number of pip-installs per month -->
     <g transform="translate(59.320312 264.70625) rotate(-90) scale(0.1 -0.1)">
      <defs>
       <path id="DejaVuSans-4e" d="M 628 4666 
L 1478 4666 
L 3547 763 
L 3547 4666 
L 4159 4666 
L 4159 0 
L 3309 0 
L 1241 3903 
L 1241 0 
L 628 0 
L 628 4666 
z
" transform="scale(0.015625)"/>
       <path id="DejaVuSans-6d" d="M 3328 2828 
Q 3544 3216 3844 3400 
Q 4144 3584 4550 3584 
Q 5097 3584 5394 3201 
Q 5691 2819 5691 2113 
L 5691 0 
L 5113 0 
L 5113 2094 
Q 5113 2597 4934 2840 
Q 4756 3084 4391 3084 
Q 3944 3084 3684 2787 
Q 3425 2491 3425 1978 
L 3425 0 
L 2847 0 
L 2847 2094 
Q 2847 2600 2669 2842 
Q 2491 3084 2119 3084 
Q 1678 3084 1418 2786 
Q 1159 2488 1159 1978 
L 1159 0 
L 581 0 
L 581 3500 
L 1159 3500 
L 1159 2956 
Q 1356 3278 1631 3431 
Q 1906 3584 2284 3584 
Q 2666 3584 2933 3390 
Q 3200 3197 3328 2828 
z
" transform="scale(0.015625)"/>
       <path id="DejaVuSans-62" d="M 3116 1747 
Q 3116 2381 2855 2742 
Q 2594 3103 2138 3103 
Q 1681 3103 1420 2742 
Q 1159 2381 1159 1747 
Q 1159 1113 1420 752 
Q 1681 391 2138 391 
Q 2594 391 2855 752 
Q 3116 1113 3116 1747 
z
M 1159 2969 
Q 1341 3281 1617 3432 
Q 1894 3584 2278 3584 
Q 2916 3584 3314 3078 
Q 3713 2572 3713 1747 
Q 3713 922 3314 415 
Q 2916 -91 2278 -91 
Q 1894 -91 1617 61 
Q 1341 213 1159 525 
L 1159 0 
L 581 0 
L 581 4863 
L 1159 4863 
L 1159 2969 
z
" transform="scale(0.015625)"/>
       <path id="DejaVuSans-65" d="M 3597 1894 
L 3597 1613 
L 953 1613 
Q 991 1019 1311 708 
Q 1631 397 2203 397 
Q 2534 397 2845 478 
Q 3156 559 3463 722 
L 3463 178 
Q 3153 47 2828 -22 
Q 2503 -91 2169 -91 
Q 1331 -91 842 396 
Q 353 884 353 1716 
Q 353 2575 817 3079 
Q 1281 3584 2069 3584 
Q 2775 3584 3186 3129 
Q 3597 2675 3597 1894 
z
M 3022 2063 
Q 3016 2534 2758 2815 
Q 2500 3097 2075 3097 
Q 1594 3097 1305 2825 
Q 1016 2553 972 2059 
L 3022 2063 
z
" transform="scale(0.015625)"/>
       <path id="DejaVuSans-72" d="M 2631 2963 
Q 2534 3019 2420 3045 
Q 2306 3072 2169 3072 
Q 1681 3072 1420 2755 
Q 1159 2438 1159 1844 
L 1159 0 
L 581 0 
L 581 3500 
L 1159 3500 
L 1159 2956 
Q 1341 3275 1631 3429 
Q 1922 3584 2338 3584 
Q 2397 3584 2469 3576 
Q 2541 3569 2628 3553 
L 2631 2963 
z
" transform="scale(0.015625)"/>
       <path id="DejaVuSans-20" transform="scale(0.015625)"/>
       <path id="DejaVuSans-6f" d="M 1959 3097 
Q 1497 3097 1228 2736 
Q 959 2375 959 1747 
Q 959 1119 1226 758 
Q 1494 397 1959 397 
Q 2419 397 2687 759 
Q 2956 1122 2956 1747 
Q 2956 2369 2687 2733 
Q 2419 3097 1959 3097 
z
M 1959 3584 
Q 2709 3584 3137 3096 
Q 3566 2609 3566 1747 
Q 3566 888 3137 398 
Q 2709 -91 1959 -91 
Q 1206 -91 779 398 
Q 353 888 353 1747 
Q 353 2609 779 3096 
Q 1206 3584 1959 3584 
z
" transform="scale(0.015625)"/>
       <path id="DejaVuSans-66" d="M 2375 4863 
L 2375 4384 
L 1825 4384 
Q 1516 4384 1395 4259 
Q 1275 4134 1275 3809 
L 1275 3500 
L 2222 3500 
L 2222 3053 
L 1275 3053 
L 1275 0 
L 697 0 
L 697 3053 
L 147 3053 
L 147 3500 
L 697 3500 
L 697 3744 
Q 697 4328 969 4595 
Q 1241 4863 1831 4863 
L 2375 4863 
z
" transform="scale(0.015625)"/>
       <path id="DejaVuSans-70" d="M 1159 525 
L 1159 -1331 
L 581 -1331 
L 581 3500 
L 1159 3500 
L 1159 2969 
Q 1341 3281 1617 3432 
Q 1894 3584 2278 3584 
Q 2916 3584 3314 3078 
Q 3713 2572 3713 1747 
Q 3713 922 3314 415 
Q 2916 -91 2278 -91 
Q 1894 -91 1617 61 
Q 1341 213 1159 525 
z
M 3116 1747 
Q 3116 2381 2855 2742 
Q 2594 3103 2138 3103 
Q 1681 3103 1420 2742 
Q 1159 2381 1159 1747 
Q 1159 1113 1420 752 
Q 1681 391 2138 391 
Q 2594 391 2855 752 
Q 3116 1113 3116 1747 
z
" transform="scale(0.015625)"/>
       <path id="DejaVuSans-69" d="M 603 3500 
L 1178 3500 
L 1178 0 
L 603 0 
L 603 3500 
z
M 603 4863 
L 1178 4863 
L 1178 4134 
L 603 4134 
L 603 4863 
z
" transform="scale(0.015625)"/>
       <path id="DejaVuSans-2d" d="M 313 2009 
L 1997 2009 
L 1997 1497 
L 313 1497 
L 313 2009 
z
" transform="scale(0.015625)"/>
       <path id="DejaVuSans-73" d="M 2834 3397 
L 2834 2853 
Q 2591 2978 2328 3040 
Q 2066 3103 1784 3103 
Q 1356 3103 1142 2972 
Q 928 2841 928 2578 
Q 928 2378 1081 2264 
Q 1234 2150 1697 2047 
L 1894 2003 
Q 2506 1872 2764 1633 
Q 3022 1394 3022 966 
Q 3022 478 2636 193 
Q 2250 -91 1575 -91 
Q 1294 -91 989 -36 
Q 684 19 347 128 
L 347 722 
Q 666 556 975 473 
Q 1284 391 1588 391 
Q 1994 391 2212 530 
Q 2431 669 2431 922 
Q 2431 1156 2273 1281 
Q 2116 1406 1581 1522 
L 1381 1569 
Q 847 1681 609 1914 
Q 372 2147 372 2553 
Q 372 3047 722 3315 
Q 1072 3584 1716 3584 
Q 2034 3584 2315 3537 
Q 2597 3491 2834 3397 
z
" transform="scale(0.015625)"/>
       <path id="DejaVuSans-74" d="M 1172 4494 
L 1172 3500 
L 2356 3500 
L 2356 3053 
L 1172 3053 
L 1172 1153 
Q 1172 725 1289 603 
Q 1406 481 1766 481 
L 2356 481 
L 2356 0 
L 1766 0 
Q 1100 0 847 248 
Q 594 497 594 1153 
L 594 3053 
L 172 3053 
L 172 3500 
L 594 3500 
L 594 4494 
L 1172 4494 
z
" transform="scale(0.015625)"/>
       <path id="DejaVuSans-68" d="M 3513 2113 
L 3513 0 
L 2938 0 
L 2938 2094 
Q 2938 2591 2744 2837 
Q 2550 3084 2163 3084 
Q 1697 3084 1428 2787 
Q 1159 2491 1159 1978 
L 1159 0 
L 581 0 
L 581 4863 
L 1159 4863 
L 1159 2956 
Q 1366 3272 1645 3428 
Q 1925 3584 2291 3584 
Q 2894 3584 3203 3211 
Q 3513 2838 3513 2113 
z
" transform="scale(0.015625)"/>
      </defs>
      <use xlink:href="#DejaVuSans-4e"/>
      <use xlink:href="#DejaVuSans-75" x="74.804688"/>
      <use xlink:href="#DejaVuSans-6d" x="138.183594"/>
      <use xlink:href="#DejaVuSans-62" x="235.595703"/>
      <use xlink:href="#DejaVuSans-65" x="299.072266"/>
      <use xlink:href="#DejaVuSans-72" x="360.595703"/>
      <use xlink:href="#DejaVuSans-20" x="401.708984"/>
      <use xlink:href="#DejaVuSans-6f" x="433.496094"/>
      <use xlink:href="#DejaVuSans-66" x="494.677734"/>
      <use xlink:href="#DejaVuSans-20" x="529.882812"/>
      <use xlink:href="#DejaVuSans-70" x="561.669922"/>
      <use xlink:href="#DejaVuSans-69" x="625.146484"/>
      <use xlink:href="#DejaVuSans-70" x="652.929688"/>
      <use xlink:href="#DejaVuSans-2d" x="716.40625"/>
      <use xlink:href="#DejaVuSans-69" x="752.490234"/>
      <use xlink:href="#DejaVuSans-6e" x="780.273438"/>
      <use xlink:href="#DejaVuSans-73" x="843.652344"/>
      <use xlink:href="#DejaVuSans-74" x="895.751953"/>
      <use xlink:href="#DejaVuSans-61" x="934.960938"/>
      <use xlink:href="#DejaVuSans-6c" x="996.240234"/>
      <use xlink:href="#DejaVuSans-6c" x="1024.023438"/>
      <use xlink:href="#DejaVuSans-73" x="1051.806641"/>
      <use xlink:href="#DejaVuSans-20" x="1103.90625"/>
      <use xlink:href="#DejaVuSans-70" x="1135.693359"/>
      <use xlink:href="#DejaVuSans-65" x="1199.169922"/>
      <use xlink:href="#DejaVuSans-72" x="1260.693359"/>
      <use xlink:href="#DejaVuSans-20" x="1301.806641"/>
      <use xlink:href="#DejaVuSans-6d" x="1333.59375"/>
      <use xlink:href="#DejaVuSans-6f" x="1431.005859"/>
      <use xlink:href="#DejaVuSans-6e" x="1492.1875"/>
      <use xlink:href="#DejaVuSans-74" x="1555.566406"/>
      <use xlink:href="#DejaVuSans-68" x="1594.775391"/>
     </g>
    </g>
   </g>
   <g id="line2d_74">
    <path d="M 591.604262 361 
L 592.836502 321.760429 
L 597.079848 285.829733 
L 601.323194 255.548534 
L 605.56654 238.662352 
L 609.809886 217.062153 
L 614.053232 191.498764 
L 618.296578 184.362367 
L 626.78327 178.422 
L 631.026616 173.799333 
L 635.269962 172.169513 
L 639.513308 173.317093 
L 643.756654 168.94214 
L 648 165.389118 
L 652.243346 163.65667 
L 656.486692 163.791466 
L 660.730038 163.522325 
L 664.973384 166.703061 
L 664.973384 166.703061 
" clip-path="url(#pfc031ad922)" style="fill: none; stroke: #1f77b4; stroke-width: 1.5; stroke-linecap: square"/>
   </g>
   <g id="line2d_75">
    <path d="M 441.821264 361 
L 444.319392 343.192524 
L 448.562738 326.142467 
L 452.806084 307.864776 
L 457.04943 300.711886 
L 461.292776 280.541988 
L 465.536122 274.144343 
L 469.779468 271.291348 
L 474.022814 266.827996 
L 478.26616 263.131519 
L 482.509506 257.732954 
L 486.752852 260.642112 
L 490.996198 249.400633 
L 495.239544 246.118521 
L 499.48289 222.977352 
L 503.726236 202.172828 
L 507.969582 195.637083 
L 512.212928 189.4512 
L 516.456274 188.390465 
L 520.69962 184.182417 
L 524.942966 188.141988 
L 529.186312 197.846566 
L 533.429658 198.54669 
L 537.673004 201.822966 
L 541.91635 200.995539 
L 546.159696 199.128746 
L 550.403042 197.78352 
L 554.646388 195.996985 
L 558.889734 189.811102 
L 563.13308 176.67203 
L 571.619772 162.673006 
L 575.863118 156.188099 
L 580.106464 151.750626 
L 584.34981 148.726782 
L 588.593156 150.354872 
L 592.836502 151.174652 
L 597.079848 153.634569 
L 601.323194 154.460686 
L 605.56654 154.718336 
L 609.809886 154.013742 
L 614.053232 146.349683 
L 618.296578 141.839424 
L 622.539924 141.745775 
L 631.026616 137.405691 
L 635.269962 137.700602 
L 639.513308 140.036609 
L 643.756654 139.004205 
L 648 136.288055 
L 652.243346 136.465345 
L 656.486692 136.260849 
L 660.730038 137.461697 
L 664.973384 142.310978 
L 664.973384 142.310978 
" clip-path="url(#pfc031ad922)" style="fill: none; stroke-dasharray: 5.55,2.4; stroke-dashoffset: 0; stroke: #ff7f0e; stroke-width: 1.5"/>
   </g>
   <g id="line2d_76">
    <path d="M 285.551555 361 
L 287.315589 338.729171 
L 291.558935 309.871634 
L 295.802281 284.714972 
L 300.045627 272.489312 
L 304.288973 250.323175 
L 308.532319 240.446148 
L 312.775665 221.699626 
L 317.019011 215.759481 
L 321.262357 210.327145 
L 325.505703 204.412821 
L 329.749049 195.696843 
L 333.992395 189.811102 
L 338.235741 191.176874 
L 342.479087 189.400048 
L 346.722433 183.82492 
L 350.965779 182.041124 
L 355.209125 168.484217 
L 359.452471 158.368925 
L 363.695817 153.7816 
L 367.939163 149.798451 
L 376.425856 145.365196 
L 380.669202 147.430719 
L 384.912548 152.213385 
L 389.155894 149.494731 
L 393.39924 145.382261 
L 397.642586 145.519044 
L 401.885932 142.405958 
L 406.129278 140.745004 
L 410.372624 137.61612 
L 414.61597 137.827659 
L 418.859316 139.605671 
L 423.102662 138.22554 
L 427.346008 140.411858 
L 431.589354 143.044965 
L 435.8327 140.366642 
L 440.076046 138.139947 
L 444.319392 137.757022 
L 448.562738 138.584156 
L 452.806084 138.097219 
L 457.04943 139.517087 
L 461.292776 144.271241 
L 465.536122 150.239115 
L 469.779468 148.009684 
L 474.022814 146.01883 
L 478.26616 144.571209 
L 482.509506 141.683463 
L 486.752852 139.458139 
L 490.996198 136.808504 
L 495.239544 138.612984 
L 499.48289 137.92676 
L 503.726236 136.822292 
L 507.969582 137.587999 
L 512.212928 139.355188 
L 516.456274 141.823801 
L 520.69962 144.006473 
L 524.942966 148.15574 
L 529.186312 150.879947 
L 533.429658 153.093124 
L 537.673004 155.042742 
L 541.91635 154.718336 
L 546.159696 155.151463 
L 550.403042 155.435523 
L 554.646388 158.939149 
L 558.889734 161.867023 
L 563.13308 164.609893 
L 567.376426 168.272296 
L 571.619772 173.38563 
L 575.863118 179.167691 
L 580.106464 182.254462 
L 584.34981 185.505716 
L 588.593156 187.895041 
L 592.836502 188.241194 
L 597.079848 183.426506 
L 601.323194 175.066664 
L 605.56654 167.76224 
L 609.809886 161.279325 
L 614.053232 150.529135 
L 618.296578 147.019688 
L 622.539924 147.287274 
L 626.78327 147.019688 
L 631.026616 147.233614 
L 635.269962 147.88232 
L 639.513308 150.743155 
L 643.756654 147.538641 
L 648 143.433312 
L 652.243346 139.590894 
L 656.486692 139.738916 
L 660.730038 140.912621 
L 664.973384 145.707886 
L 664.973384 145.707886 
" clip-path="url(#pfc031ad922)" style="fill: none; stroke-dasharray: 1.5,2.475; stroke-dashoffset: 0; stroke: #2ca02c; stroke-width: 1.5"/>
   </g>
   <g id="line2d_77">
    <path d="M 147.285171 319.084183 
L 151.528517 299.901176 
L 155.771863 300.711886 
L 160.015209 300.711886 
L 164.258555 292.584828 
L 168.501901 283.098828 
L 172.745247 277.215805 
L 176.988593 271.686709 
L 181.231939 260.944973 
L 185.475285 246.753819 
L 193.961977 213.181953 
L 198.205323 198.226937 
L 202.448669 188.892081 
L 206.692015 183.82492 
L 210.935361 180.619746 
L 215.178707 177.728113 
L 219.422053 175.679329 
L 223.665399 171.021491 
L 227.908745 168.60582 
L 232.152091 157.829961 
L 236.395437 153.760563 
L 240.638783 150.142906 
L 244.882129 143.061072 
L 249.125475 138.297007 
L 253.368821 134.923544 
L 257.612167 136.342522 
L 261.855513 134.792232 
L 266.098859 134.01326 
L 270.342205 135.533174 
L 274.585551 135.559891 
L 278.828897 136.152209 
L 283.072243 133.274359 
L 287.315589 132.375636 
L 291.558935 131.811813 
L 295.802281 130.814101 
L 300.045627 133.974705 
L 304.288973 134.517869 
L 308.532319 135.895362 
L 312.775665 133.502221 
L 317.019011 132.190909 
L 321.262357 131.171864 
L 325.505703 129.311061 
L 329.749049 126.763399 
L 333.992395 122.107325 
L 338.235741 124.015552 
L 342.479087 124.115899 
L 346.722433 126.23033 
L 350.965779 123.300366 
L 355.209125 121.237597 
L 359.452471 122.183852 
L 363.695817 117.567089 
L 367.939163 115.961054 
L 372.18251 112.020252 
L 376.425856 115.326528 
L 380.669202 116.697535 
L 384.912548 121.116207 
L 389.155894 123.765776 
L 393.39924 124.105853 
L 397.642586 130.154692 
L 401.885932 128.473599 
L 406.129278 129.368281 
L 410.372624 127.129973 
L 414.61597 128.608222 
L 418.859316 131.207816 
L 423.102662 132.375636 
L 427.346008 136.342522 
L 435.8327 147.144339 
L 444.319392 161.406355 
L 452.806084 170.699429 
L 457.04943 174.923857 
L 461.292776 181.407831 
L 465.536122 189.348961 
L 469.779468 196.542964 
L 474.022814 203.025153 
L 478.26616 205.543284 
L 482.509506 205.011769 
L 486.752852 210.155287 
L 490.996198 207.101881 
L 495.239544 201.476129 
L 503.726236 188.841636 
L 507.969582 190.698828 
L 512.212928 186.539536 
L 516.456274 187.260001 
L 520.69962 189.862781 
L 524.942966 193.998945 
L 529.186312 201.40712 
L 533.429658 203.097004 
L 537.673004 209.898872 
L 541.91635 209.223002 
L 546.159696 212.087463 
L 550.403042 212.630977 
L 554.646388 216.155818 
L 558.889734 218.619741 
L 567.376426 215.56277 
L 571.619772 215.075172 
L 575.863118 218.619741 
L 580.106464 217.781511 
L 584.34981 218.198437 
L 588.593156 218.408536 
L 592.836502 219.801665 
L 597.079848 214.49777 
L 601.323194 199.918191 
L 609.809886 183.382481 
L 614.053232 170.284574 
L 618.296578 164.775601 
L 622.539924 164.444867 
L 626.78327 162.910066 
L 631.026616 160.326817 
L 635.269962 160.277305 
L 639.513308 161.50827 
L 648 156.210448 
L 652.243346 156.977839 
L 660.730038 160.450862 
L 664.973384 166.732108 
L 664.973384 166.732108 
" clip-path="url(#pfc031ad922)" style="fill: none; stroke-dasharray: 9.6,2.4,1.5,2.4; stroke-dashoffset: 0; stroke: #d62728; stroke-width: 1.5"/>
   </g>
   <g id="line2d_78">
    <path d="M 147.285171 157.783435 
L 151.528517 152.620168 
L 155.771863 147.646853 
L 160.015209 144.705251 
L 164.258555 140.366642 
L 168.501901 140.366642 
L 172.745247 139.340502 
L 176.988593 141.034965 
L 181.231939 143.48212 
L 185.475285 140.502442 
L 189.718631 140.684226 
L 193.961977 136.822292 
L 198.205323 136.315279 
L 202.448669 135.174226 
L 206.692015 131.436265 
L 210.935361 133.808062 
L 215.178707 135.042093 
L 219.422053 139.384575 
L 223.665399 141.590176 
L 227.908745 142.48528 
L 232.152091 141.435179 
L 236.395437 140.608383 
L 240.638783 138.757436 
L 244.882129 130.944911 
L 249.125475 127.434393 
L 253.368821 125.123114 
L 257.612167 126.709772 
L 261.855513 126.315147 
L 266.098859 126.656217 
L 270.342205 130.506599 
L 274.585551 130.754783 
L 278.828897 131.29183 
L 283.072243 128.552074 
L 287.315589 127.752138 
L 295.802281 127.043419 
L 300.045627 130.754783 
L 304.288973 132.772586 
L 308.532319 137.672422 
L 312.775665 140.457124 
L 317.019011 143.547291 
L 321.262357 147.466661 
L 325.505703 150.393531 
L 329.749049 152.4977 
L 333.992395 148.119176 
L 338.235741 149.970309 
L 342.479087 153.051775 
L 346.722433 155.457458 
L 350.965779 152.477325 
L 355.209125 145.570459 
L 359.452471 145.042328 
L 363.695817 141.435179 
L 367.939163 137.405691 
L 372.18251 135.573256 
L 376.425856 136.670888 
L 380.669202 138.111457 
L 384.912548 143.1417 
L 389.155894 143.891184 
L 393.39924 142.058793 
L 397.642586 143.303445 
L 401.885932 141.019651 
L 406.129278 141.6679 
L 410.372624 138.989647 
L 414.61597 141.173049 
L 418.859316 145.949523 
L 423.102662 146.419686 
L 427.346008 149.912941 
L 431.589354 152.702022 
L 435.8327 156.569746 
L 440.076046 159.541876 
L 444.319392 160.401198 
L 452.806084 168.972854 
L 457.04943 175.64303 
L 461.292776 182.857914 
L 465.536122 189.145261 
L 469.779468 197.034594 
L 474.022814 200.859278 
L 478.26616 202.172828 
L 482.509506 203.025153 
L 486.752852 206.54946 
L 490.996198 202.525766 
L 495.239544 199.984684 
L 499.48289 190.751664 
L 503.726236 183.075651 
L 507.969582 183.206862 
L 512.212928 180.701977 
L 516.456274 181.956105 
L 520.69962 183.032009 
L 524.942966 190.174261 
L 529.186312 200.051288 
L 533.429658 202.810368 
L 537.673004 204.93641 
L 541.91635 205.543284 
L 546.159696 205.773249 
L 550.403042 201.132264 
L 554.646388 203.82268 
L 558.889734 204.412821 
L 563.13308 203.969404 
L 567.376426 195.16218 
L 571.619772 191.39118 
L 575.863118 192.150397 
L 580.106464 189.348961 
L 584.34981 189.145261 
L 588.593156 188.290889 
L 592.836502 191.714802 
L 597.079848 191.070148 
L 601.323194 185.645133 
L 605.56654 179.967893 
L 609.809886 172.772965 
L 614.053232 161.559324 
L 618.296578 155.413601 
L 622.539924 154.247235 
L 626.78327 150.958324 
L 631.026616 148.523222 
L 635.269962 148.046148 
L 639.513308 149.306067 
L 643.756654 149.98945 
L 648 148.082646 
L 652.243346 149.400288 
L 656.486692 150.258385 
L 660.730038 152.193154 
L 664.973384 156.909535 
L 664.973384 156.909535 
" clip-path="url(#pfc031ad922)" style="fill: none; stroke: #9467bd; stroke-width: 1.5; stroke-linecap: square"/>
   </g>
   <g id="line2d_79">
    <path d="M 147.285171 180.496715 
L 151.528517 172.976149 
L 155.771863 166.819376 
L 160.015209 161.764194 
L 164.258555 157.04626 
L 168.501901 156.143437 
L 172.745247 154.739882 
L 181.231939 160.700111 
L 185.475285 158.227627 
L 189.718631 158.70057 
L 193.961977 154.119707 
L 198.205323 153.676523 
L 202.448669 150.684673 
L 206.692015 146.630428 
L 210.935361 147.556656 
L 215.178707 148.046148 
L 219.422053 151.850773 
L 223.665399 153.50897 
L 227.908745 153.446318 
L 232.152091 149.66529 
L 236.395437 151.05651 
L 240.638783 151.431826 
L 244.882129 146.64804 
L 249.125475 142.644395 
L 253.368821 141.004344 
L 257.612167 145.467696 
L 261.855513 144.454288 
L 266.098859 144.304461 
L 270.342205 145.553313 
L 274.585551 145.160978 
L 278.828897 145.707886 
L 283.072243 142.804143 
L 287.315589 141.948959 
L 291.558935 139.961978 
L 295.802281 138.670702 
L 300.045627 142.105958 
L 304.288973 141.917633 
L 308.532319 143.891184 
L 312.775665 146.966384 
L 317.019011 150.567963 
L 321.262357 156.434632 
L 325.505703 160.725121 
L 329.749049 165.501681 
L 333.992395 163.415172 
L 338.235741 165.248856 
L 342.479087 168.181814 
L 346.722433 166.732108 
L 350.965779 164.692661 
L 355.209125 160.426023 
L 359.452471 162.073474 
L 367.939163 153.446318 
L 376.425856 153.802648 
L 380.669202 156.660076 
L 384.912548 161.001266 
L 389.155894 161.304699 
L 393.39924 162.725565 
L 397.642586 164.858712 
L 401.885932 162.280992 
L 406.129278 161.07691 
L 410.372624 160.178466 
L 414.61597 164.637463 
L 418.859316 167.524439 
L 423.102662 167.229156 
L 431.589354 179.445951 
L 435.8327 181.074117 
L 440.076046 183.206862 
L 444.319392 186.019297 
L 448.562738 187.45433 
L 452.806084 190.383266 
L 457.04943 191.016892 
L 461.292776 195.103211 
L 469.779468 200.385976 
L 474.022814 205.619793 
L 478.26616 206.471159 
L 482.509506 210.241124 
L 486.752852 213.64695 
L 490.996198 211.907915 
L 495.239544 210.413351 
L 499.48289 206.627913 
L 503.726236 206.159478 
L 507.969582 204.711177 
L 512.212928 204.487202 
L 516.456274 205.619793 
L 520.69962 209.055799 
L 524.942966 215.269501 
L 529.186312 214.307133 
L 533.429658 215.464776 
L 537.673004 214.212154 
L 541.91635 210.069633 
L 546.159696 206.237172 
L 550.403042 207.261122 
L 554.646388 211.285751 
L 558.889734 210.069633 
L 563.13308 211.109747 
L 567.376426 217.164132 
L 571.619772 219.475855 
L 575.863118 218.832063 
L 580.106464 220.795277 
L 584.34981 228.133986 
L 588.593156 231.931837 
L 592.836502 238.314914 
L 597.079848 252.726817 
L 601.323194 269.370943 
L 605.56654 280.541988 
L 609.809886 288.156692 
L 614.053232 327.716347 
L 618.296578 336.670832 
L 622.539924 340.898824 
L 626.78327 336.670832 
L 631.026616 343.192524 
L 632.565312 361 
L 632.565312 361 
" clip-path="url(#pfc031ad922)" style="fill: none; stroke-dasharray: 5.55,2.4; stroke-dashoffset: 0; stroke: #8c564b; stroke-width: 1.5"/>
   </g>
   <g id="line2d_80">
    <path d="M 0 0 
" clip-path="url(#pfc031ad922)" style="fill: none; stroke-dasharray: 1.5,2.475; stroke-dashoffset: 0; stroke: #e377c2; stroke-width: 1.5"/>
   </g>
   <g id="line2d_81">
    <path d="M 147.285171 298.327295 
L 151.528517 237.122038 
L 155.771863 212.813796 
L 160.015209 202.739028 
L 164.258555 194.634548 
L 168.501901 194.460201 
L 172.745247 194.113763 
L 176.988593 206.943268 
L 185.475285 246.967839 
L 189.718631 298.327295 
L 193.961977 309.871634 
L 198.205323 317.810146 
L 202.448669 320.4 
L 206.692015 324.627992 
L 210.935361 334.712941 
L 219.422053 331.062352 
L 223.665399 327.716347 
L 227.908745 323.168602 
L 232.152091 319.084183 
L 236.395437 316.575316 
L 240.638783 317.810146 
L 244.882129 320.4 
L 249.125475 324.627992 
L 253.368821 327.716347 
L 257.612167 334.712941 
L 261.855513 332.846148 
L 266.098859 338.729171 
L 270.342205 340.898824 
L 274.585551 336.670832 
L 278.828897 332.846148 
L 283.072243 336.670832 
L 287.315589 336.670832 
L 291.558935 331.062352 
L 295.802281 326.142467 
L 300.045627 321.760429 
L 304.288973 319.084183 
L 308.532319 316.575316 
L 312.775665 321.760429 
L 317.019011 310.914 
L 321.262357 307.864776 
L 325.505703 293.259278 
L 329.749049 298.327295 
L 333.992395 291.269012 
L 338.235741 287.56218 
L 342.479087 293.259278 
L 346.722433 292.584828 
L 350.965779 308.855661 
L 355.209125 306.89777 
L 359.452471 317.810146 
L 363.695817 324.627992 
L 367.939163 323.168602 
L 372.18251 326.142467 
L 376.425856 334.712941 
L 380.669202 338.729171 
L 389.155894 323.168602 
L 393.39924 308.855661 
L 397.642586 314.214117 
L 401.885932 310.914 
L 406.129278 306.89777 
L 410.372624 309.871634 
L 414.61597 317.810146 
L 418.859316 348.215172 
L 423.102662 348.215172 
L 427.346008 357.169657 
L 431.589354 357.169657 
L 433.810882 361 
M 442.097863 361 
L 444.319392 357.169657 
L 448.562738 357.169657 
L 452.806084 350.983773 
L 455.203251 361 
M 549.818703 361 
L 550.403042 357.169657 
L 554.646388 357.169657 
L 558.889734 353.957638 
L 563.13308 353.957638 
L 567.376426 360.66132 
L 567.752179 361 
L 567.752179 361 
" clip-path="url(#pfc031ad922)" style="fill: none; stroke-dasharray: 9.6,2.4,1.5,2.4; stroke-dashoffset: 0; stroke: #7f7f7f; stroke-width: 1.5"/>
   </g>
   <g id="patch_3">
    <path d="M 90 320.4 
L 90 43.2 
" style="fill: none; stroke: #000000; stroke-width: 0.8; stroke-linejoin: miter; stroke-linecap: square"/>
   </g>
   <g id="patch_4">
    <path d="M 648 320.4 
L 648 43.2 
" style="fill: none; stroke: #000000; stroke-width: 0.8; stroke-linejoin: miter; stroke-linecap: square"/>
   </g>
   <g id="patch_5">
    <path d="M 90 320.4 
L 648 320.4 
" style="fill: none; stroke: #000000; stroke-width: 0.8; stroke-linejoin: miter; stroke-linecap: square"/>
   </g>
   <g id="patch_6">
    <path d="M 90 43.2 
L 648 43.2 
" style="fill: none; stroke: #000000; stroke-width: 0.8; stroke-linejoin: miter; stroke-linecap: square"/>
   </g>
   <g id="text_12">
    <!-- Python version of Uproot users, MacOS and Windows (i.e. no batch jobs) -->
    <g transform="translate(151.828125 37.2) scale(0.12 -0.12)">
     <defs>
      <path id="DejaVuSans-50" d="M 1259 4147 
L 1259 2394 
L 2053 2394 
Q 2494 2394 2734 2622 
Q 2975 2850 2975 3272 
Q 2975 3691 2734 3919 
Q 2494 4147 2053 4147 
L 1259 4147 
z
M 628 4666 
L 2053 4666 
Q 2838 4666 3239 4311 
Q 3641 3956 3641 3272 
Q 3641 2581 3239 2228 
Q 2838 1875 2053 1875 
L 1259 1875 
L 1259 0 
L 628 0 
L 628 4666 
z
" transform="scale(0.015625)"/>
      <path id="DejaVuSans-79" d="M 2059 -325 
Q 1816 -950 1584 -1140 
Q 1353 -1331 966 -1331 
L 506 -1331 
L 506 -850 
L 844 -850 
Q 1081 -850 1212 -737 
Q 1344 -625 1503 -206 
L 1606 56 
L 191 3500 
L 800 3500 
L 1894 763 
L 2988 3500 
L 3597 3500 
L 2059 -325 
z
" transform="scale(0.015625)"/>
      <path id="DejaVuSans-76" d="M 191 3500 
L 800 3500 
L 1894 563 
L 2988 3500 
L 3597 3500 
L 2284 0 
L 1503 0 
L 191 3500 
z
" transform="scale(0.015625)"/>
      <path id="DejaVuSans-55" d="M 556 4666 
L 1191 4666 
L 1191 1831 
Q 1191 1081 1462 751 
Q 1734 422 2344 422 
Q 2950 422 3222 751 
Q 3494 1081 3494 1831 
L 3494 4666 
L 4128 4666 
L 4128 1753 
Q 4128 841 3676 375 
Q 3225 -91 2344 -91 
Q 1459 -91 1007 375 
Q 556 841 556 1753 
L 556 4666 
z
" transform="scale(0.015625)"/>
      <path id="DejaVuSans-2c" d="M 750 794 
L 1409 794 
L 1409 256 
L 897 -744 
L 494 -744 
L 750 256 
L 750 794 
z
" transform="scale(0.015625)"/>
      <path id="DejaVuSans-4d" d="M 628 4666 
L 1569 4666 
L 2759 1491 
L 3956 4666 
L 4897 4666 
L 4897 0 
L 4281 0 
L 4281 4097 
L 3078 897 
L 2444 897 
L 1241 4097 
L 1241 0 
L 628 0 
L 628 4666 
z
" transform="scale(0.015625)"/>
      <path id="DejaVuSans-63" d="M 3122 3366 
L 3122 2828 
Q 2878 2963 2633 3030 
Q 2388 3097 2138 3097 
Q 1578 3097 1268 2742 
Q 959 2388 959 1747 
Q 959 1106 1268 751 
Q 1578 397 2138 397 
Q 2388 397 2633 464 
Q 2878 531 3122 666 
L 3122 134 
Q 2881 22 2623 -34 
Q 2366 -91 2075 -91 
Q 1284 -91 818 406 
Q 353 903 353 1747 
Q 353 2603 823 3093 
Q 1294 3584 2113 3584 
Q 2378 3584 2631 3529 
Q 2884 3475 3122 3366 
z
" transform="scale(0.015625)"/>
      <path id="DejaVuSans-4f" d="M 2522 4238 
Q 1834 4238 1429 3725 
Q 1025 3213 1025 2328 
Q 1025 1447 1429 934 
Q 1834 422 2522 422 
Q 3209 422 3611 934 
Q 4013 1447 4013 2328 
Q 4013 3213 3611 3725 
Q 3209 4238 2522 4238 
z
M 2522 4750 
Q 3503 4750 4090 4092 
Q 4678 3434 4678 2328 
Q 4678 1225 4090 567 
Q 3503 -91 2522 -91 
Q 1538 -91 948 565 
Q 359 1222 359 2328 
Q 359 3434 948 4092 
Q 1538 4750 2522 4750 
z
" transform="scale(0.015625)"/>
      <path id="DejaVuSans-53" d="M 3425 4513 
L 3425 3897 
Q 3066 4069 2747 4153 
Q 2428 4238 2131 4238 
Q 1616 4238 1336 4038 
Q 1056 3838 1056 3469 
Q 1056 3159 1242 3001 
Q 1428 2844 1947 2747 
L 2328 2669 
Q 3034 2534 3370 2195 
Q 3706 1856 3706 1288 
Q 3706 609 3251 259 
Q 2797 -91 1919 -91 
Q 1588 -91 1214 -16 
Q 841 59 441 206 
L 441 856 
Q 825 641 1194 531 
Q 1563 422 1919 422 
Q 2459 422 2753 634 
Q 3047 847 3047 1241 
Q 3047 1584 2836 1778 
Q 2625 1972 2144 2069 
L 1759 2144 
Q 1053 2284 737 2584 
Q 422 2884 422 3419 
Q 422 4038 858 4394 
Q 1294 4750 2059 4750 
Q 2388 4750 2728 4690 
Q 3069 4631 3425 4513 
z
" transform="scale(0.015625)"/>
      <path id="DejaVuSans-64" d="M 2906 2969 
L 2906 4863 
L 3481 4863 
L 3481 0 
L 2906 0 
L 2906 525 
Q 2725 213 2448 61 
Q 2172 -91 1784 -91 
Q 1150 -91 751 415 
Q 353 922 353 1747 
Q 353 2572 751 3078 
Q 1150 3584 1784 3584 
Q 2172 3584 2448 3432 
Q 2725 3281 2906 2969 
z
M 947 1747 
Q 947 1113 1208 752 
Q 1469 391 1925 391 
Q 2381 391 2643 752 
Q 2906 1113 2906 1747 
Q 2906 2381 2643 2742 
Q 2381 3103 1925 3103 
Q 1469 3103 1208 2742 
Q 947 2381 947 1747 
z
" transform="scale(0.015625)"/>
      <path id="DejaVuSans-57" d="M 213 4666 
L 850 4666 
L 1831 722 
L 2809 4666 
L 3519 4666 
L 4500 722 
L 5478 4666 
L 6119 4666 
L 4947 0 
L 4153 0 
L 3169 4050 
L 2175 0 
L 1381 0 
L 213 4666 
z
" transform="scale(0.015625)"/>
      <path id="DejaVuSans-77" d="M 269 3500 
L 844 3500 
L 1563 769 
L 2278 3500 
L 2956 3500 
L 3675 769 
L 4391 3500 
L 4966 3500 
L 4050 0 
L 3372 0 
L 2619 2869 
L 1863 0 
L 1184 0 
L 269 3500 
z
" transform="scale(0.015625)"/>
      <path id="DejaVuSans-28" d="M 1984 4856 
Q 1566 4138 1362 3434 
Q 1159 2731 1159 2009 
Q 1159 1288 1364 580 
Q 1569 -128 1984 -844 
L 1484 -844 
Q 1016 -109 783 600 
Q 550 1309 550 2009 
Q 550 2706 781 3412 
Q 1013 4119 1484 4856 
L 1984 4856 
z
" transform="scale(0.015625)"/>
      <path id="DejaVuSans-2e" d="M 684 794 
L 1344 794 
L 1344 0 
L 684 0 
L 684 794 
z
" transform="scale(0.015625)"/>
      <path id="DejaVuSans-6a" d="M 603 3500 
L 1178 3500 
L 1178 -63 
Q 1178 -731 923 -1031 
Q 669 -1331 103 -1331 
L -116 -1331 
L -116 -844 
L 38 -844 
Q 366 -844 484 -692 
Q 603 -541 603 -63 
L 603 3500 
z
M 603 4863 
L 1178 4863 
L 1178 4134 
L 603 4134 
L 603 4863 
z
" transform="scale(0.015625)"/>
      <path id="DejaVuSans-29" d="M 513 4856 
L 1013 4856 
Q 1481 4119 1714 3412 
Q 1947 2706 1947 2009 
Q 1947 1309 1714 600 
Q 1481 -109 1013 -844 
L 513 -844 
Q 928 -128 1133 580 
Q 1338 1288 1338 2009 
Q 1338 2731 1133 3434 
Q 928 4138 513 4856 
z
" transform="scale(0.015625)"/>
     </defs>
     <use xlink:href="#DejaVuSans-50"/>
     <use xlink:href="#DejaVuSans-79" x="60.302734"/>
     <use xlink:href="#DejaVuSans-74" x="119.482422"/>
     <use xlink:href="#DejaVuSans-68" x="158.691406"/>
     <use xlink:href="#DejaVuSans-6f" x="222.070312"/>
     <use xlink:href="#DejaVuSans-6e" x="283.251953"/>
     <use xlink:href="#DejaVuSans-20" x="346.630859"/>
     <use xlink:href="#DejaVuSans-76" x="378.417969"/>
     <use xlink:href="#DejaVuSans-65" x="437.597656"/>
     <use xlink:href="#DejaVuSans-72" x="499.121094"/>
     <use xlink:href="#DejaVuSans-73" x="540.234375"/>
     <use xlink:href="#DejaVuSans-69" x="592.333984"/>
     <use xlink:href="#DejaVuSans-6f" x="620.117188"/>
     <use xlink:href="#DejaVuSans-6e" x="681.298828"/>
     <use xlink:href="#DejaVuSans-20" x="744.677734"/>
     <use xlink:href="#DejaVuSans-6f" x="776.464844"/>
     <use xlink:href="#DejaVuSans-66" x="837.646484"/>
     <use xlink:href="#DejaVuSans-20" x="872.851562"/>
     <use xlink:href="#DejaVuSans-55" x="904.638672"/>
     <use xlink:href="#DejaVuSans-70" x="977.832031"/>
     <use xlink:href="#DejaVuSans-72" x="1041.308594"/>
     <use xlink:href="#DejaVuSans-6f" x="1080.171875"/>
     <use xlink:href="#DejaVuSans-6f" x="1141.353516"/>
     <use xlink:href="#DejaVuSans-74" x="1202.535156"/>
     <use xlink:href="#DejaVuSans-20" x="1241.744141"/>
     <use xlink:href="#DejaVuSans-75" x="1273.53125"/>
     <use xlink:href="#DejaVuSans-73" x="1336.910156"/>
     <use xlink:href="#DejaVuSans-65" x="1389.009766"/>
     <use xlink:href="#DejaVuSans-72" x="1450.533203"/>
     <use xlink:href="#DejaVuSans-73" x="1491.646484"/>
     <use xlink:href="#DejaVuSans-2c" x="1543.746094"/>
     <use xlink:href="#DejaVuSans-20" x="1575.533203"/>
     <use xlink:href="#DejaVuSans-4d" x="1607.320312"/>
     <use xlink:href="#DejaVuSans-61" x="1693.599609"/>
     <use xlink:href="#DejaVuSans-63" x="1754.878906"/>
     <use xlink:href="#DejaVuSans-4f" x="1809.859375"/>
     <use xlink:href="#DejaVuSans-53" x="1888.570312"/>
     <use xlink:href="#DejaVuSans-20" x="1952.046875"/>
     <use xlink:href="#DejaVuSans-61" x="1983.833984"/>
     <use xlink:href="#DejaVuSans-6e" x="2045.113281"/>
     <use xlink:href="#DejaVuSans-64" x="2108.492188"/>
     <use xlink:href="#DejaVuSans-20" x="2171.96875"/>
     <use xlink:href="#DejaVuSans-57" x="2203.755859"/>
     <use xlink:href="#DejaVuSans-69" x="2300.382812"/>
     <use xlink:href="#DejaVuSans-6e" x="2328.166016"/>
     <use xlink:href="#DejaVuSans-64" x="2391.544922"/>
     <use xlink:href="#DejaVuSans-6f" x="2455.021484"/>
     <use xlink:href="#DejaVuSans-77" x="2516.203125"/>
     <use xlink:href="#DejaVuSans-73" x="2597.990234"/>
     <use xlink:href="#DejaVuSans-20" x="2650.089844"/>
     <use xlink:href="#DejaVuSans-28" x="2681.876953"/>
     <use xlink:href="#DejaVuSans-69" x="2720.890625"/>
     <use xlink:href="#DejaVuSans-2e" x="2748.673828"/>
     <use xlink:href="#DejaVuSans-65" x="2780.460938"/>
     <use xlink:href="#DejaVuSans-2e" x="2841.984375"/>
     <use xlink:href="#DejaVuSans-20" x="2873.771484"/>
     <use xlink:href="#DejaVuSans-6e" x="2905.558594"/>
     <use xlink:href="#DejaVuSans-6f" x="2968.9375"/>
     <use xlink:href="#DejaVuSans-20" x="3030.119141"/>
     <use xlink:href="#DejaVuSans-62" x="3061.90625"/>
     <use xlink:href="#DejaVuSans-61" x="3125.382812"/>
     <use xlink:href="#DejaVuSans-74" x="3186.662109"/>
     <use xlink:href="#DejaVuSans-63" x="3225.871094"/>
     <use xlink:href="#DejaVuSans-68" x="3280.851562"/>
     <use xlink:href="#DejaVuSans-20" x="3344.230469"/>
     <use xlink:href="#DejaVuSans-6a" x="3376.017578"/>
     <use xlink:href="#DejaVuSans-6f" x="3403.800781"/>
     <use xlink:href="#DejaVuSans-62" x="3464.982422"/>
     <use xlink:href="#DejaVuSans-73" x="3528.458984"/>
     <use xlink:href="#DejaVuSans-29" x="3580.558594"/>
    </g>
   </g>
   <g id="legend_1">
    <g id="patch_7">
     <path d="M 97 168.625 
L 189.421875 168.625 
Q 191.421875 168.625 191.421875 166.625 
L 191.421875 50.2 
Q 191.421875 48.2 189.421875 48.2 
L 97 48.2 
Q 95 48.2 95 50.2 
L 95 166.625 
Q 95 168.625 97 168.625 
z
" style="fill: #ffffff; opacity: 0.8; stroke: #cccccc; stroke-linejoin: miter"/>
    </g>
    <g id="line2d_82">
     <path d="M 99 56.298437 
L 109 56.298437 
L 119 56.298437 
" style="fill: none; stroke: #1f77b4; stroke-width: 1.5; stroke-linecap: square"/>
    </g>
    <g id="text_13">
     <!-- 3.11 -->
     <g transform="translate(127 59.798437) scale(0.1 -0.1)">
      <use xlink:href="#DejaVuSans-33"/>
      <use xlink:href="#DejaVuSans-2e" x="63.623047"/>
      <use xlink:href="#DejaVuSans-31" x="95.410156"/>
      <use xlink:href="#DejaVuSans-31" x="159.033203"/>
     </g>
    </g>
    <g id="line2d_83">
     <path d="M 99 70.976562 
L 109 70.976562 
L 119 70.976562 
" style="fill: none; stroke-dasharray: 5.55,2.4; stroke-dashoffset: 0; stroke: #ff7f0e; stroke-width: 1.5"/>
    </g>
    <g id="text_14">
     <!-- 3.10 -->
     <g transform="translate(127 74.476562) scale(0.1 -0.1)">
      <use xlink:href="#DejaVuSans-33"/>
      <use xlink:href="#DejaVuSans-2e" x="63.623047"/>
      <use xlink:href="#DejaVuSans-31" x="95.410156"/>
      <use xlink:href="#DejaVuSans-30" x="159.033203"/>
     </g>
    </g>
    <g id="line2d_84">
     <path d="M 99 85.654687 
L 109 85.654687 
L 119 85.654687 
" style="fill: none; stroke-dasharray: 1.5,2.475; stroke-dashoffset: 0; stroke: #2ca02c; stroke-width: 1.5"/>
    </g>
    <g id="text_15">
     <!-- 3.9 -->
     <g transform="translate(127 89.154687) scale(0.1 -0.1)">
      <defs>
       <path id="DejaVuSans-39" d="M 703 97 
L 703 672 
Q 941 559 1184 500 
Q 1428 441 1663 441 
Q 2288 441 2617 861 
Q 2947 1281 2994 2138 
Q 2813 1869 2534 1725 
Q 2256 1581 1919 1581 
Q 1219 1581 811 2004 
Q 403 2428 403 3163 
Q 403 3881 828 4315 
Q 1253 4750 1959 4750 
Q 2769 4750 3195 4129 
Q 3622 3509 3622 2328 
Q 3622 1225 3098 567 
Q 2575 -91 1691 -91 
Q 1453 -91 1209 -44 
Q 966 3 703 97 
z
M 1959 2075 
Q 2384 2075 2632 2365 
Q 2881 2656 2881 3163 
Q 2881 3666 2632 3958 
Q 2384 4250 1959 4250 
Q 1534 4250 1286 3958 
Q 1038 3666 1038 3163 
Q 1038 2656 1286 2365 
Q 1534 2075 1959 2075 
z
" transform="scale(0.015625)"/>
      </defs>
      <use xlink:href="#DejaVuSans-33"/>
      <use xlink:href="#DejaVuSans-2e" x="63.623047"/>
      <use xlink:href="#DejaVuSans-39" x="95.410156"/>
     </g>
    </g>
    <g id="line2d_85">
     <path d="M 99 100.332812 
L 109 100.332812 
L 119 100.332812 
" style="fill: none; stroke-dasharray: 9.6,2.4,1.5,2.4; stroke-dashoffset: 0; stroke: #d62728; stroke-width: 1.5"/>
    </g>
    <g id="text_16">
     <!-- 3.8 -->
     <g transform="translate(127 103.832812) scale(0.1 -0.1)">
      <defs>
       <path id="DejaVuSans-38" d="M 2034 2216 
Q 1584 2216 1326 1975 
Q 1069 1734 1069 1313 
Q 1069 891 1326 650 
Q 1584 409 2034 409 
Q 2484 409 2743 651 
Q 3003 894 3003 1313 
Q 3003 1734 2745 1975 
Q 2488 2216 2034 2216 
z
M 1403 2484 
Q 997 2584 770 2862 
Q 544 3141 544 3541 
Q 544 4100 942 4425 
Q 1341 4750 2034 4750 
Q 2731 4750 3128 4425 
Q 3525 4100 3525 3541 
Q 3525 3141 3298 2862 
Q 3072 2584 2669 2484 
Q 3125 2378 3379 2068 
Q 3634 1759 3634 1313 
Q 3634 634 3220 271 
Q 2806 -91 2034 -91 
Q 1263 -91 848 271 
Q 434 634 434 1313 
Q 434 1759 690 2068 
Q 947 2378 1403 2484 
z
M 1172 3481 
Q 1172 3119 1398 2916 
Q 1625 2713 2034 2713 
Q 2441 2713 2670 2916 
Q 2900 3119 2900 3481 
Q 2900 3844 2670 4047 
Q 2441 4250 2034 4250 
Q 1625 4250 1398 4047 
Q 1172 3844 1172 3481 
z
" transform="scale(0.015625)"/>
      </defs>
      <use xlink:href="#DejaVuSans-33"/>
      <use xlink:href="#DejaVuSans-2e" x="63.623047"/>
      <use xlink:href="#DejaVuSans-38" x="95.410156"/>
     </g>
    </g>
    <g id="line2d_86">
     <path d="M 99 115.010937 
L 109 115.010937 
L 119 115.010937 
" style="fill: none; stroke: #9467bd; stroke-width: 1.5; stroke-linecap: square"/>
    </g>
    <g id="text_17">
     <!-- 3.7 -->
     <g transform="translate(127 118.510937) scale(0.1 -0.1)">
      <defs>
       <path id="DejaVuSans-37" d="M 525 4666 
L 3525 4666 
L 3525 4397 
L 1831 0 
L 1172 0 
L 2766 4134 
L 525 4134 
L 525 4666 
z
" transform="scale(0.015625)"/>
      </defs>
      <use xlink:href="#DejaVuSans-33"/>
      <use xlink:href="#DejaVuSans-2e" x="63.623047"/>
      <use xlink:href="#DejaVuSans-37" x="95.410156"/>
     </g>
    </g>
    <g id="line2d_87">
     <path d="M 99 129.689062 
L 109 129.689062 
L 119 129.689062 
" style="fill: none; stroke-dasharray: 5.55,2.4; stroke-dashoffset: 0; stroke: #8c564b; stroke-width: 1.5"/>
    </g>
    <g id="text_18">
     <!-- 3.6 -->
     <g transform="translate(127 133.189062) scale(0.1 -0.1)">
      <defs>
       <path id="DejaVuSans-36" d="M 2113 2584 
Q 1688 2584 1439 2293 
Q 1191 2003 1191 1497 
Q 1191 994 1439 701 
Q 1688 409 2113 409 
Q 2538 409 2786 701 
Q 3034 994 3034 1497 
Q 3034 2003 2786 2293 
Q 2538 2584 2113 2584 
z
M 3366 4563 
L 3366 3988 
Q 3128 4100 2886 4159 
Q 2644 4219 2406 4219 
Q 1781 4219 1451 3797 
Q 1122 3375 1075 2522 
Q 1259 2794 1537 2939 
Q 1816 3084 2150 3084 
Q 2853 3084 3261 2657 
Q 3669 2231 3669 1497 
Q 3669 778 3244 343 
Q 2819 -91 2113 -91 
Q 1303 -91 875 529 
Q 447 1150 447 2328 
Q 447 3434 972 4092 
Q 1497 4750 2381 4750 
Q 2619 4750 2861 4703 
Q 3103 4656 3366 4563 
z
" transform="scale(0.015625)"/>
      </defs>
      <use xlink:href="#DejaVuSans-33"/>
      <use xlink:href="#DejaVuSans-2e" x="63.623047"/>
      <use xlink:href="#DejaVuSans-36" x="95.410156"/>
     </g>
    </g>
    <g id="line2d_88">
     <path d="M 99 144.367187 
L 109 144.367187 
L 119 144.367187 
" style="fill: none; stroke-dasharray: 1.5,2.475; stroke-dashoffset: 0; stroke: #e377c2; stroke-width: 1.5"/>
    </g>
    <g id="text_19">
     <!-- 3.3, 3.4, 3.5 -->
     <g transform="translate(127 147.867187) scale(0.1 -0.1)">
      <defs>
       <path id="DejaVuSans-34" d="M 2419 4116 
L 825 1625 
L 2419 1625 
L 2419 4116 
z
M 2253 4666 
L 3047 4666 
L 3047 1625 
L 3713 1625 
L 3713 1100 
L 3047 1100 
L 3047 0 
L 2419 0 
L 2419 1100 
L 313 1100 
L 313 1709 
L 2253 4666 
z
" transform="scale(0.015625)"/>
       <path id="DejaVuSans-35" d="M 691 4666 
L 3169 4666 
L 3169 4134 
L 1269 4134 
L 1269 2991 
Q 1406 3038 1543 3061 
Q 1681 3084 1819 3084 
Q 2600 3084 3056 2656 
Q 3513 2228 3513 1497 
Q 3513 744 3044 326 
Q 2575 -91 1722 -91 
Q 1428 -91 1123 -41 
Q 819 9 494 109 
L 494 744 
Q 775 591 1075 516 
Q 1375 441 1709 441 
Q 2250 441 2565 725 
Q 2881 1009 2881 1497 
Q 2881 1984 2565 2268 
Q 2250 2553 1709 2553 
Q 1456 2553 1204 2497 
Q 953 2441 691 2322 
L 691 4666 
z
" transform="scale(0.015625)"/>
      </defs>
      <use xlink:href="#DejaVuSans-33"/>
      <use xlink:href="#DejaVuSans-2e" x="63.623047"/>
      <use xlink:href="#DejaVuSans-33" x="95.410156"/>
      <use xlink:href="#DejaVuSans-2c" x="159.033203"/>
      <use xlink:href="#DejaVuSans-20" x="190.820312"/>
      <use xlink:href="#DejaVuSans-33" x="222.607422"/>
      <use xlink:href="#DejaVuSans-2e" x="286.230469"/>
      <use xlink:href="#DejaVuSans-34" x="318.017578"/>
      <use xlink:href="#DejaVuSans-2c" x="381.640625"/>
      <use xlink:href="#DejaVuSans-20" x="413.427734"/>
      <use xlink:href="#DejaVuSans-33" x="445.214844"/>
      <use xlink:href="#DejaVuSans-2e" x="508.837891"/>
      <use xlink:href="#DejaVuSans-35" x="540.625"/>
     </g>
    </g>
    <g id="line2d_89">
     <path d="M 99 159.045312 
L 109 159.045312 
L 119 159.045312 
" style="fill: none; stroke-dasharray: 9.6,2.4,1.5,2.4; stroke-dashoffset: 0; stroke: #7f7f7f; stroke-width: 1.5"/>
    </g>
    <g id="text_20">
     <!-- 2.7 -->
     <g transform="translate(127 162.545312) scale(0.1 -0.1)">
      <use xlink:href="#DejaVuSans-32"/>
      <use xlink:href="#DejaVuSans-2e" x="63.623047"/>
      <use xlink:href="#DejaVuSans-37" x="95.410156"/>
     </g>
    </g>
   </g>
  </g>
 </g>
 <defs>
  <clipPath id="pfc031ad922">
   <rect x="90" y="43.2" width="558" height="277.2"/>
  </clipPath>
 </defs>
</svg>
