<?xml version="1.0" encoding="utf-8" standalone="no"?>
<!DOCTYPE svg PUBLIC "-//W3C//DTD SVG 1.1//EN"
  "http://www.w3.org/Graphics/SVG/1.1/DTD/svg11.dtd">
<svg xmlns:xlink="http://www.w3.org/1999/xlink" width="720pt" height="360pt" viewBox="0 0 720 360" xmlns="http://www.w3.org/2000/svg" version="1.1">
 <metadata>
  <rdf:RDF xmlns:dc="http://purl.org/dc/elements/1.1/" xmlns:cc="http://creativecommons.org/ns#" xmlns:rdf="http://www.w3.org/1999/02/22-rdf-syntax-ns#">
   <cc:Work>
    <dc:type rdf:resource="http://purl.org/dc/dcmitype/StillImage"/>
    <dc:date>2022-07-17T13:25:43.112135</dc:date>
    <dc:format>image/svg+xml</dc:format>
    <dc:creator>
     <cc:Agent>
      <dc:title>Matplotlib v3.5.2, https://matplotlib.org/</dc:title>
     </cc:Agent>
    </dc:creator>
   </cc:Work>
  </rdf:RDF>
 </metadata>
 <defs>
  <style type="text/css">*{stroke-linejoin: round; stroke-linecap: butt}</style>
 </defs>
 <g id="figure_1">
  <g id="patch_1">
   <path d="M 0 360 
L 720 360 
L 720 0 
L 0 0 
L 0 360 
z
" style="fill: none"/>
  </g>
  <g id="axes_1">
   <g id="patch_2">
    <path d="M 90 315 
L 648 315 
L 648 43.2 
L 90 43.2 
z
" style="fill: #ffffff"/>
   </g>
   <g id="matplotlib.axis_1">
    <g id="xtick_1">
     <g id="line2d_1">
      <defs>
       <path id="m37a6c89447" d="M 0 0 
L 0 3.5 
" style="stroke: #000000; stroke-width: 0.8"/>
      </defs>
      <g>
       <use xlink:href="#m37a6c89447" x="90" y="315" style="stroke: #000000; stroke-width: 0.8"/>
      </g>
     </g>
    </g>
    <g id="xtick_2">
     <g id="line2d_2">
      <g>
       <use xlink:href="#m37a6c89447" x="138.896907" y="315" style="stroke: #000000; stroke-width: 0.8"/>
      </g>
     </g>
     <g id="text_1">
      <!-- Jan -->
      <g transform="translate(131.189095 329.598437)scale(0.1 -0.1)">
       <defs>
        <path id="DejaVuSans-4a" d="M 628 4666 
L 1259 4666 
L 1259 325 
Q 1259 -519 939 -900 
Q 619 -1281 -91 -1281 
L -331 -1281 
L -331 -750 
L -134 -750 
Q 284 -750 456 -515 
Q 628 -281 628 325 
L 628 4666 
z
" transform="scale(0.015625)"/>
        <path id="DejaVuSans-61" d="M 2194 1759 
Q 1497 1759 1228 1600 
Q 959 1441 959 1056 
Q 959 750 1161 570 
Q 1363 391 1709 391 
Q 2188 391 2477 730 
Q 2766 1069 2766 1631 
L 2766 1759 
L 2194 1759 
z
M 3341 1997 
L 3341 0 
L 2766 0 
L 2766 531 
Q 2569 213 2275 61 
Q 1981 -91 1556 -91 
Q 1019 -91 701 211 
Q 384 513 384 1019 
Q 384 1609 779 1909 
Q 1175 2209 1959 2209 
L 2766 2209 
L 2766 2266 
Q 2766 2663 2505 2880 
Q 2244 3097 1772 3097 
Q 1472 3097 1187 3025 
Q 903 2953 641 2809 
L 641 3341 
Q 956 3463 1253 3523 
Q 1550 3584 1831 3584 
Q 2591 3584 2966 3190 
Q 3341 2797 3341 1997 
z
" transform="scale(0.015625)"/>
        <path id="DejaVuSans-6e" d="M 3513 2113 
L 3513 0 
L 2938 0 
L 2938 2094 
Q 2938 2591 2744 2837 
Q 2550 3084 2163 3084 
Q 1697 3084 1428 2787 
Q 1159 2491 1159 1978 
L 1159 0 
L 581 0 
L 581 3500 
L 1159 3500 
L 1159 2956 
Q 1366 3272 1645 3428 
Q 1925 3584 2291 3584 
Q 2894 3584 3203 3211 
Q 3513 2838 3513 2113 
z
" transform="scale(0.015625)"/>
       </defs>
       <use xlink:href="#DejaVuSans-4a"/>
       <use xlink:href="#DejaVuSans-61" x="29.492188"/>
       <use xlink:href="#DejaVuSans-6e" x="90.771484"/>
      </g>
      <!-- 2020 -->
      <g transform="translate(126.171907 340.79625)scale(0.1 -0.1)">
       <defs>
        <path id="DejaVuSans-32" d="M 1228 531 
L 3431 531 
L 3431 0 
L 469 0 
L 469 531 
Q 828 903 1448 1529 
Q 2069 2156 2228 2338 
Q 2531 2678 2651 2914 
Q 2772 3150 2772 3378 
Q 2772 3750 2511 3984 
Q 2250 4219 1831 4219 
Q 1534 4219 1204 4116 
Q 875 4013 500 3803 
L 500 4441 
Q 881 4594 1212 4672 
Q 1544 4750 1819 4750 
Q 2544 4750 2975 4387 
Q 3406 4025 3406 3419 
Q 3406 3131 3298 2873 
Q 3191 2616 2906 2266 
Q 2828 2175 2409 1742 
Q 1991 1309 1228 531 
z
" transform="scale(0.015625)"/>
        <path id="DejaVuSans-30" d="M 2034 4250 
Q 1547 4250 1301 3770 
Q 1056 3291 1056 2328 
Q 1056 1369 1301 889 
Q 1547 409 2034 409 
Q 2525 409 2770 889 
Q 3016 1369 3016 2328 
Q 3016 3291 2770 3770 
Q 2525 4250 2034 4250 
z
M 2034 4750 
Q 2819 4750 3233 4129 
Q 3647 3509 3647 2328 
Q 3647 1150 3233 529 
Q 2819 -91 2034 -91 
Q 1250 -91 836 529 
Q 422 1150 422 2328 
Q 422 3509 836 4129 
Q 1250 4750 2034 4750 
z
" transform="scale(0.015625)"/>
       </defs>
       <use xlink:href="#DejaVuSans-32"/>
       <use xlink:href="#DejaVuSans-30" x="63.623047"/>
       <use xlink:href="#DejaVuSans-32" x="127.246094"/>
       <use xlink:href="#DejaVuSans-30" x="190.869141"/>
      </g>
     </g>
    </g>
    <g id="xtick_3">
     <g id="line2d_3">
      <g>
       <use xlink:href="#m37a6c89447" x="349.441237" y="315" style="stroke: #000000; stroke-width: 0.8"/>
      </g>
     </g>
     <g id="text_2">
      <!-- Jan -->
      <g transform="translate(341.733425 329.598437)scale(0.1 -0.1)">
       <use xlink:href="#DejaVuSans-4a"/>
       <use xlink:href="#DejaVuSans-61" x="29.492188"/>
       <use xlink:href="#DejaVuSans-6e" x="90.771484"/>
      </g>
      <!-- 2021 -->
      <g transform="translate(336.716237 340.79625)scale(0.1 -0.1)">
       <defs>
        <path id="DejaVuSans-31" d="M 794 531 
L 1825 531 
L 1825 4091 
L 703 3866 
L 703 4441 
L 1819 4666 
L 2450 4666 
L 2450 531 
L 3481 531 
L 3481 0 
L 794 0 
L 794 531 
z
" transform="scale(0.015625)"/>
       </defs>
       <use xlink:href="#DejaVuSans-32"/>
       <use xlink:href="#DejaVuSans-30" x="63.623047"/>
       <use xlink:href="#DejaVuSans-32" x="127.246094"/>
       <use xlink:href="#DejaVuSans-31" x="190.869141"/>
      </g>
     </g>
    </g>
    <g id="xtick_4">
     <g id="line2d_4">
      <g>
       <use xlink:href="#m37a6c89447" x="559.410309" y="315" style="stroke: #000000; stroke-width: 0.8"/>
      </g>
     </g>
     <g id="text_3">
      <!-- Jan -->
      <g transform="translate(551.702497 329.598437)scale(0.1 -0.1)">
       <use xlink:href="#DejaVuSans-4a"/>
       <use xlink:href="#DejaVuSans-61" x="29.492188"/>
       <use xlink:href="#DejaVuSans-6e" x="90.771484"/>
      </g>
      <!-- 2022 -->
      <g transform="translate(546.685309 340.79625)scale(0.1 -0.1)">
       <use xlink:href="#DejaVuSans-32"/>
       <use xlink:href="#DejaVuSans-30" x="63.623047"/>
       <use xlink:href="#DejaVuSans-32" x="127.246094"/>
       <use xlink:href="#DejaVuSans-32" x="190.869141"/>
      </g>
     </g>
    </g>
    <g id="xtick_5">
     <g id="line2d_5">
      <g>
       <use xlink:href="#m37a6c89447" x="648" y="315" style="stroke: #000000; stroke-width: 0.8"/>
      </g>
     </g>
    </g>
    <g id="xtick_6">
     <g id="line2d_6">
      <defs>
       <path id="me5290e2312" d="M 0 0 
L 0 2 
" style="stroke: #000000; stroke-width: 0.6"/>
      </defs>
      <g>
       <use xlink:href="#me5290e2312" x="103.806186" y="315" style="stroke: #000000; stroke-width: 0.6"/>
      </g>
     </g>
    </g>
    <g id="xtick_7">
     <g id="line2d_7">
      <g>
       <use xlink:href="#me5290e2312" x="121.063918" y="315" style="stroke: #000000; stroke-width: 0.6"/>
      </g>
     </g>
    </g>
    <g id="xtick_8">
     <g id="line2d_8">
      <g>
       <use xlink:href="#me5290e2312" x="156.729897" y="315" style="stroke: #000000; stroke-width: 0.6"/>
      </g>
     </g>
    </g>
    <g id="xtick_9">
     <g id="line2d_9">
      <g>
       <use xlink:href="#me5290e2312" x="173.412371" y="315" style="stroke: #000000; stroke-width: 0.6"/>
      </g>
     </g>
    </g>
    <g id="xtick_10">
     <g id="line2d_10">
      <g>
       <use xlink:href="#me5290e2312" x="191.245361" y="315" style="stroke: #000000; stroke-width: 0.6"/>
      </g>
     </g>
    </g>
    <g id="xtick_11">
     <g id="line2d_11">
      <g>
       <use xlink:href="#me5290e2312" x="208.503093" y="315" style="stroke: #000000; stroke-width: 0.6"/>
      </g>
     </g>
    </g>
    <g id="xtick_12">
     <g id="line2d_12">
      <g>
       <use xlink:href="#me5290e2312" x="226.336082" y="315" style="stroke: #000000; stroke-width: 0.6"/>
      </g>
     </g>
    </g>
    <g id="xtick_13">
     <g id="line2d_13">
      <g>
       <use xlink:href="#me5290e2312" x="243.593814" y="315" style="stroke: #000000; stroke-width: 0.6"/>
      </g>
     </g>
     <g id="text_4">
      <!-- Jul -->
      <g transform="translate(237.561002 327.998438)scale(0.1 -0.1)">
       <defs>
        <path id="DejaVuSans-75" d="M 544 1381 
L 544 3500 
L 1119 3500 
L 1119 1403 
Q 1119 906 1312 657 
Q 1506 409 1894 409 
Q 2359 409 2629 706 
Q 2900 1003 2900 1516 
L 2900 3500 
L 3475 3500 
L 3475 0 
L 2900 0 
L 2900 538 
Q 2691 219 2414 64 
Q 2138 -91 1772 -91 
Q 1169 -91 856 284 
Q 544 659 544 1381 
z
M 1991 3584 
L 1991 3584 
z
" transform="scale(0.015625)"/>
        <path id="DejaVuSans-6c" d="M 603 4863 
L 1178 4863 
L 1178 0 
L 603 0 
L 603 4863 
z
" transform="scale(0.015625)"/>
       </defs>
       <use xlink:href="#DejaVuSans-4a"/>
       <use xlink:href="#DejaVuSans-75" x="29.492188"/>
       <use xlink:href="#DejaVuSans-6c" x="92.871094"/>
      </g>
     </g>
    </g>
    <g id="xtick_14">
     <g id="line2d_14">
      <g>
       <use xlink:href="#me5290e2312" x="261.426804" y="315" style="stroke: #000000; stroke-width: 0.6"/>
      </g>
     </g>
    </g>
    <g id="xtick_15">
     <g id="line2d_15">
      <g>
       <use xlink:href="#me5290e2312" x="279.259794" y="315" style="stroke: #000000; stroke-width: 0.6"/>
      </g>
     </g>
    </g>
    <g id="xtick_16">
     <g id="line2d_16">
      <g>
       <use xlink:href="#me5290e2312" x="296.517526" y="315" style="stroke: #000000; stroke-width: 0.6"/>
      </g>
     </g>
    </g>
    <g id="xtick_17">
     <g id="line2d_17">
      <g>
       <use xlink:href="#me5290e2312" x="314.350515" y="315" style="stroke: #000000; stroke-width: 0.6"/>
      </g>
     </g>
    </g>
    <g id="xtick_18">
     <g id="line2d_18">
      <g>
       <use xlink:href="#me5290e2312" x="331.608247" y="315" style="stroke: #000000; stroke-width: 0.6"/>
      </g>
     </g>
    </g>
    <g id="xtick_19">
     <g id="line2d_19">
      <g>
       <use xlink:href="#me5290e2312" x="367.274227" y="315" style="stroke: #000000; stroke-width: 0.6"/>
      </g>
     </g>
    </g>
    <g id="xtick_20">
     <g id="line2d_20">
      <g>
       <use xlink:href="#me5290e2312" x="383.381443" y="315" style="stroke: #000000; stroke-width: 0.6"/>
      </g>
     </g>
    </g>
    <g id="xtick_21">
     <g id="line2d_21">
      <g>
       <use xlink:href="#me5290e2312" x="401.214433" y="315" style="stroke: #000000; stroke-width: 0.6"/>
      </g>
     </g>
    </g>
    <g id="xtick_22">
     <g id="line2d_22">
      <g>
       <use xlink:href="#me5290e2312" x="418.472165" y="315" style="stroke: #000000; stroke-width: 0.6"/>
      </g>
     </g>
    </g>
    <g id="xtick_23">
     <g id="line2d_23">
      <g>
       <use xlink:href="#me5290e2312" x="436.305155" y="315" style="stroke: #000000; stroke-width: 0.6"/>
      </g>
     </g>
    </g>
    <g id="xtick_24">
     <g id="line2d_24">
      <g>
       <use xlink:href="#me5290e2312" x="453.562887" y="315" style="stroke: #000000; stroke-width: 0.6"/>
      </g>
     </g>
     <g id="text_5">
      <!-- Jul -->
      <g transform="translate(447.530074 327.998438)scale(0.1 -0.1)">
       <use xlink:href="#DejaVuSans-4a"/>
       <use xlink:href="#DejaVuSans-75" x="29.492188"/>
       <use xlink:href="#DejaVuSans-6c" x="92.871094"/>
      </g>
     </g>
    </g>
    <g id="xtick_25">
     <g id="line2d_25">
      <g>
       <use xlink:href="#me5290e2312" x="471.395876" y="315" style="stroke: #000000; stroke-width: 0.6"/>
      </g>
     </g>
    </g>
    <g id="xtick_26">
     <g id="line2d_26">
      <g>
       <use xlink:href="#me5290e2312" x="489.228866" y="315" style="stroke: #000000; stroke-width: 0.6"/>
      </g>
     </g>
    </g>
    <g id="xtick_27">
     <g id="line2d_27">
      <g>
       <use xlink:href="#me5290e2312" x="506.486598" y="315" style="stroke: #000000; stroke-width: 0.6"/>
      </g>
     </g>
    </g>
    <g id="xtick_28">
     <g id="line2d_28">
      <g>
       <use xlink:href="#me5290e2312" x="524.319588" y="315" style="stroke: #000000; stroke-width: 0.6"/>
      </g>
     </g>
    </g>
    <g id="xtick_29">
     <g id="line2d_29">
      <g>
       <use xlink:href="#me5290e2312" x="541.57732" y="315" style="stroke: #000000; stroke-width: 0.6"/>
      </g>
     </g>
    </g>
    <g id="xtick_30">
     <g id="line2d_30">
      <g>
       <use xlink:href="#me5290e2312" x="577.243299" y="315" style="stroke: #000000; stroke-width: 0.6"/>
      </g>
     </g>
    </g>
    <g id="xtick_31">
     <g id="line2d_31">
      <g>
       <use xlink:href="#me5290e2312" x="593.350515" y="315" style="stroke: #000000; stroke-width: 0.6"/>
      </g>
     </g>
    </g>
    <g id="xtick_32">
     <g id="line2d_32">
      <g>
       <use xlink:href="#me5290e2312" x="611.183505" y="315" style="stroke: #000000; stroke-width: 0.6"/>
      </g>
     </g>
    </g>
    <g id="xtick_33">
     <g id="line2d_33">
      <g>
       <use xlink:href="#me5290e2312" x="628.441237" y="315" style="stroke: #000000; stroke-width: 0.6"/>
      </g>
     </g>
    </g>
    <g id="xtick_34">
     <g id="line2d_34">
      <g>
       <use xlink:href="#me5290e2312" x="646.274227" y="315" style="stroke: #000000; stroke-width: 0.6"/>
      </g>
     </g>
    </g>
   </g>
   <g id="matplotlib.axis_2">
    <g id="ytick_1">
     <g id="line2d_35">
      <defs>
       <path id="mac1f56a971" d="M 0 0 
L -3.5 0 
" style="stroke: #000000; stroke-width: 0.8"/>
      </defs>
      <g>
       <use xlink:href="#mac1f56a971" x="90" y="315" style="stroke: #000000; stroke-width: 0.8"/>
      </g>
     </g>
     <g id="text_6">
      <!-- 0 -->
      <g transform="translate(76.6375 318.799219)scale(0.1 -0.1)">
       <use xlink:href="#DejaVuSans-30"/>
      </g>
     </g>
    </g>
    <g id="ytick_2">
     <g id="line2d_36">
      <g>
       <use xlink:href="#mac1f56a971" x="90" y="276.171429" style="stroke: #000000; stroke-width: 0.8"/>
      </g>
     </g>
     <g id="text_7">
      <!-- 5000 -->
      <g transform="translate(57.55 279.970647)scale(0.1 -0.1)">
       <defs>
        <path id="DejaVuSans-35" d="M 691 4666 
L 3169 4666 
L 3169 4134 
L 1269 4134 
L 1269 2991 
Q 1406 3038 1543 3061 
Q 1681 3084 1819 3084 
Q 2600 3084 3056 2656 
Q 3513 2228 3513 1497 
Q 3513 744 3044 326 
Q 2575 -91 1722 -91 
Q 1428 -91 1123 -41 
Q 819 9 494 109 
L 494 744 
Q 775 591 1075 516 
Q 1375 441 1709 441 
Q 2250 441 2565 725 
Q 2881 1009 2881 1497 
Q 2881 1984 2565 2268 
Q 2250 2553 1709 2553 
Q 1456 2553 1204 2497 
Q 953 2441 691 2322 
L 691 4666 
z
" transform="scale(0.015625)"/>
       </defs>
       <use xlink:href="#DejaVuSans-35"/>
       <use xlink:href="#DejaVuSans-30" x="63.623047"/>
       <use xlink:href="#DejaVuSans-30" x="127.246094"/>
       <use xlink:href="#DejaVuSans-30" x="190.869141"/>
      </g>
     </g>
    </g>
    <g id="ytick_3">
     <g id="line2d_37">
      <g>
       <use xlink:href="#mac1f56a971" x="90" y="237.342857" style="stroke: #000000; stroke-width: 0.8"/>
      </g>
     </g>
     <g id="text_8">
      <!-- 10000 -->
      <g transform="translate(51.1875 241.142076)scale(0.1 -0.1)">
       <use xlink:href="#DejaVuSans-31"/>
       <use xlink:href="#DejaVuSans-30" x="63.623047"/>
       <use xlink:href="#DejaVuSans-30" x="127.246094"/>
       <use xlink:href="#DejaVuSans-30" x="190.869141"/>
       <use xlink:href="#DejaVuSans-30" x="254.492188"/>
      </g>
     </g>
    </g>
    <g id="ytick_4">
     <g id="line2d_38">
      <g>
       <use xlink:href="#mac1f56a971" x="90" y="198.514286" style="stroke: #000000; stroke-width: 0.8"/>
      </g>
     </g>
     <g id="text_9">
      <!-- 15000 -->
      <g transform="translate(51.1875 202.313504)scale(0.1 -0.1)">
       <use xlink:href="#DejaVuSans-31"/>
       <use xlink:href="#DejaVuSans-35" x="63.623047"/>
       <use xlink:href="#DejaVuSans-30" x="127.246094"/>
       <use xlink:href="#DejaVuSans-30" x="190.869141"/>
       <use xlink:href="#DejaVuSans-30" x="254.492188"/>
      </g>
     </g>
    </g>
    <g id="ytick_5">
     <g id="line2d_39">
      <g>
       <use xlink:href="#mac1f56a971" x="90" y="159.685714" style="stroke: #000000; stroke-width: 0.8"/>
      </g>
     </g>
     <g id="text_10">
      <!-- 20000 -->
      <g transform="translate(51.1875 163.484933)scale(0.1 -0.1)">
       <use xlink:href="#DejaVuSans-32"/>
       <use xlink:href="#DejaVuSans-30" x="63.623047"/>
       <use xlink:href="#DejaVuSans-30" x="127.246094"/>
       <use xlink:href="#DejaVuSans-30" x="190.869141"/>
       <use xlink:href="#DejaVuSans-30" x="254.492188"/>
      </g>
     </g>
    </g>
    <g id="ytick_6">
     <g id="line2d_40">
      <g>
       <use xlink:href="#mac1f56a971" x="90" y="120.857143" style="stroke: #000000; stroke-width: 0.8"/>
      </g>
     </g>
     <g id="text_11">
      <!-- 25000 -->
      <g transform="translate(51.1875 124.656362)scale(0.1 -0.1)">
       <use xlink:href="#DejaVuSans-32"/>
       <use xlink:href="#DejaVuSans-35" x="63.623047"/>
       <use xlink:href="#DejaVuSans-30" x="127.246094"/>
       <use xlink:href="#DejaVuSans-30" x="190.869141"/>
       <use xlink:href="#DejaVuSans-30" x="254.492188"/>
      </g>
     </g>
    </g>
    <g id="ytick_7">
     <g id="line2d_41">
      <g>
       <use xlink:href="#mac1f56a971" x="90" y="82.028571" style="stroke: #000000; stroke-width: 0.8"/>
      </g>
     </g>
     <g id="text_12">
      <!-- 30000 -->
      <g transform="translate(51.1875 85.82779)scale(0.1 -0.1)">
       <defs>
        <path id="DejaVuSans-33" d="M 2597 2516 
Q 3050 2419 3304 2112 
Q 3559 1806 3559 1356 
Q 3559 666 3084 287 
Q 2609 -91 1734 -91 
Q 1441 -91 1130 -33 
Q 819 25 488 141 
L 488 750 
Q 750 597 1062 519 
Q 1375 441 1716 441 
Q 2309 441 2620 675 
Q 2931 909 2931 1356 
Q 2931 1769 2642 2001 
Q 2353 2234 1838 2234 
L 1294 2234 
L 1294 2753 
L 1863 2753 
Q 2328 2753 2575 2939 
Q 2822 3125 2822 3475 
Q 2822 3834 2567 4026 
Q 2313 4219 1838 4219 
Q 1578 4219 1281 4162 
Q 984 4106 628 3988 
L 628 4550 
Q 988 4650 1302 4700 
Q 1616 4750 1894 4750 
Q 2613 4750 3031 4423 
Q 3450 4097 3450 3541 
Q 3450 3153 3228 2886 
Q 3006 2619 2597 2516 
z
" transform="scale(0.015625)"/>
       </defs>
       <use xlink:href="#DejaVuSans-33"/>
       <use xlink:href="#DejaVuSans-30" x="63.623047"/>
       <use xlink:href="#DejaVuSans-30" x="127.246094"/>
       <use xlink:href="#DejaVuSans-30" x="190.869141"/>
       <use xlink:href="#DejaVuSans-30" x="254.492188"/>
      </g>
     </g>
    </g>
    <g id="ytick_8">
     <g id="line2d_42">
      <g>
       <use xlink:href="#mac1f56a971" x="90" y="43.2" style="stroke: #000000; stroke-width: 0.8"/>
      </g>
     </g>
     <g id="text_13">
      <!-- 35000 -->
      <g transform="translate(51.1875 46.999219)scale(0.1 -0.1)">
       <use xlink:href="#DejaVuSans-33"/>
       <use xlink:href="#DejaVuSans-35" x="63.623047"/>
       <use xlink:href="#DejaVuSans-30" x="127.246094"/>
       <use xlink:href="#DejaVuSans-30" x="190.869141"/>
       <use xlink:href="#DejaVuSans-30" x="254.492188"/>
      </g>
     </g>
    </g>
    <g id="text_14">
     <!-- Number of pip-installs per month -->
     <g transform="translate(45.107812 262.00625)rotate(-90)scale(0.1 -0.1)">
      <defs>
       <path id="DejaVuSans-4e" d="M 628 4666 
L 1478 4666 
L 3547 763 
L 3547 4666 
L 4159 4666 
L 4159 0 
L 3309 0 
L 1241 3903 
L 1241 0 
L 628 0 
L 628 4666 
z
" transform="scale(0.015625)"/>
       <path id="DejaVuSans-6d" d="M 3328 2828 
Q 3544 3216 3844 3400 
Q 4144 3584 4550 3584 
Q 5097 3584 5394 3201 
Q 5691 2819 5691 2113 
L 5691 0 
L 5113 0 
L 5113 2094 
Q 5113 2597 4934 2840 
Q 4756 3084 4391 3084 
Q 3944 3084 3684 2787 
Q 3425 2491 3425 1978 
L 3425 0 
L 2847 0 
L 2847 2094 
Q 2847 2600 2669 2842 
Q 2491 3084 2119 3084 
Q 1678 3084 1418 2786 
Q 1159 2488 1159 1978 
L 1159 0 
L 581 0 
L 581 3500 
L 1159 3500 
L 1159 2956 
Q 1356 3278 1631 3431 
Q 1906 3584 2284 3584 
Q 2666 3584 2933 3390 
Q 3200 3197 3328 2828 
z
" transform="scale(0.015625)"/>
       <path id="DejaVuSans-62" d="M 3116 1747 
Q 3116 2381 2855 2742 
Q 2594 3103 2138 3103 
Q 1681 3103 1420 2742 
Q 1159 2381 1159 1747 
Q 1159 1113 1420 752 
Q 1681 391 2138 391 
Q 2594 391 2855 752 
Q 3116 1113 3116 1747 
z
M 1159 2969 
Q 1341 3281 1617 3432 
Q 1894 3584 2278 3584 
Q 2916 3584 3314 3078 
Q 3713 2572 3713 1747 
Q 3713 922 3314 415 
Q 2916 -91 2278 -91 
Q 1894 -91 1617 61 
Q 1341 213 1159 525 
L 1159 0 
L 581 0 
L 581 4863 
L 1159 4863 
L 1159 2969 
z
" transform="scale(0.015625)"/>
       <path id="DejaVuSans-65" d="M 3597 1894 
L 3597 1613 
L 953 1613 
Q 991 1019 1311 708 
Q 1631 397 2203 397 
Q 2534 397 2845 478 
Q 3156 559 3463 722 
L 3463 178 
Q 3153 47 2828 -22 
Q 2503 -91 2169 -91 
Q 1331 -91 842 396 
Q 353 884 353 1716 
Q 353 2575 817 3079 
Q 1281 3584 2069 3584 
Q 2775 3584 3186 3129 
Q 3597 2675 3597 1894 
z
M 3022 2063 
Q 3016 2534 2758 2815 
Q 2500 3097 2075 3097 
Q 1594 3097 1305 2825 
Q 1016 2553 972 2059 
L 3022 2063 
z
" transform="scale(0.015625)"/>
       <path id="DejaVuSans-72" d="M 2631 2963 
Q 2534 3019 2420 3045 
Q 2306 3072 2169 3072 
Q 1681 3072 1420 2755 
Q 1159 2438 1159 1844 
L 1159 0 
L 581 0 
L 581 3500 
L 1159 3500 
L 1159 2956 
Q 1341 3275 1631 3429 
Q 1922 3584 2338 3584 
Q 2397 3584 2469 3576 
Q 2541 3569 2628 3553 
L 2631 2963 
z
" transform="scale(0.015625)"/>
       <path id="DejaVuSans-20" transform="scale(0.015625)"/>
       <path id="DejaVuSans-6f" d="M 1959 3097 
Q 1497 3097 1228 2736 
Q 959 2375 959 1747 
Q 959 1119 1226 758 
Q 1494 397 1959 397 
Q 2419 397 2687 759 
Q 2956 1122 2956 1747 
Q 2956 2369 2687 2733 
Q 2419 3097 1959 3097 
z
M 1959 3584 
Q 2709 3584 3137 3096 
Q 3566 2609 3566 1747 
Q 3566 888 3137 398 
Q 2709 -91 1959 -91 
Q 1206 -91 779 398 
Q 353 888 353 1747 
Q 353 2609 779 3096 
Q 1206 3584 1959 3584 
z
" transform="scale(0.015625)"/>
       <path id="DejaVuSans-66" d="M 2375 4863 
L 2375 4384 
L 1825 4384 
Q 1516 4384 1395 4259 
Q 1275 4134 1275 3809 
L 1275 3500 
L 2222 3500 
L 2222 3053 
L 1275 3053 
L 1275 0 
L 697 0 
L 697 3053 
L 147 3053 
L 147 3500 
L 697 3500 
L 697 3744 
Q 697 4328 969 4595 
Q 1241 4863 1831 4863 
L 2375 4863 
z
" transform="scale(0.015625)"/>
       <path id="DejaVuSans-70" d="M 1159 525 
L 1159 -1331 
L 581 -1331 
L 581 3500 
L 1159 3500 
L 1159 2969 
Q 1341 3281 1617 3432 
Q 1894 3584 2278 3584 
Q 2916 3584 3314 3078 
Q 3713 2572 3713 1747 
Q 3713 922 3314 415 
Q 2916 -91 2278 -91 
Q 1894 -91 1617 61 
Q 1341 213 1159 525 
z
M 3116 1747 
Q 3116 2381 2855 2742 
Q 2594 3103 2138 3103 
Q 1681 3103 1420 2742 
Q 1159 2381 1159 1747 
Q 1159 1113 1420 752 
Q 1681 391 2138 391 
Q 2594 391 2855 752 
Q 3116 1113 3116 1747 
z
" transform="scale(0.015625)"/>
       <path id="DejaVuSans-69" d="M 603 3500 
L 1178 3500 
L 1178 0 
L 603 0 
L 603 3500 
z
M 603 4863 
L 1178 4863 
L 1178 4134 
L 603 4134 
L 603 4863 
z
" transform="scale(0.015625)"/>
       <path id="DejaVuSans-2d" d="M 313 2009 
L 1997 2009 
L 1997 1497 
L 313 1497 
L 313 2009 
z
" transform="scale(0.015625)"/>
       <path id="DejaVuSans-73" d="M 2834 3397 
L 2834 2853 
Q 2591 2978 2328 3040 
Q 2066 3103 1784 3103 
Q 1356 3103 1142 2972 
Q 928 2841 928 2578 
Q 928 2378 1081 2264 
Q 1234 2150 1697 2047 
L 1894 2003 
Q 2506 1872 2764 1633 
Q 3022 1394 3022 966 
Q 3022 478 2636 193 
Q 2250 -91 1575 -91 
Q 1294 -91 989 -36 
Q 684 19 347 128 
L 347 722 
Q 666 556 975 473 
Q 1284 391 1588 391 
Q 1994 391 2212 530 
Q 2431 669 2431 922 
Q 2431 1156 2273 1281 
Q 2116 1406 1581 1522 
L 1381 1569 
Q 847 1681 609 1914 
Q 372 2147 372 2553 
Q 372 3047 722 3315 
Q 1072 3584 1716 3584 
Q 2034 3584 2315 3537 
Q 2597 3491 2834 3397 
z
" transform="scale(0.015625)"/>
       <path id="DejaVuSans-74" d="M 1172 4494 
L 1172 3500 
L 2356 3500 
L 2356 3053 
L 1172 3053 
L 1172 1153 
Q 1172 725 1289 603 
Q 1406 481 1766 481 
L 2356 481 
L 2356 0 
L 1766 0 
Q 1100 0 847 248 
Q 594 497 594 1153 
L 594 3053 
L 172 3053 
L 172 3500 
L 594 3500 
L 594 4494 
L 1172 4494 
z
" transform="scale(0.015625)"/>
       <path id="DejaVuSans-68" d="M 3513 2113 
L 3513 0 
L 2938 0 
L 2938 2094 
Q 2938 2591 2744 2837 
Q 2550 3084 2163 3084 
Q 1697 3084 1428 2787 
Q 1159 2491 1159 1978 
L 1159 0 
L 581 0 
L 581 4863 
L 1159 4863 
L 1159 2956 
Q 1366 3272 1645 3428 
Q 1925 3584 2291 3584 
Q 2894 3584 3203 3211 
Q 3513 2838 3513 2113 
z
" transform="scale(0.015625)"/>
      </defs>
      <use xlink:href="#DejaVuSans-4e"/>
      <use xlink:href="#DejaVuSans-75" x="74.804688"/>
      <use xlink:href="#DejaVuSans-6d" x="138.183594"/>
      <use xlink:href="#DejaVuSans-62" x="235.595703"/>
      <use xlink:href="#DejaVuSans-65" x="299.072266"/>
      <use xlink:href="#DejaVuSans-72" x="360.595703"/>
      <use xlink:href="#DejaVuSans-20" x="401.708984"/>
      <use xlink:href="#DejaVuSans-6f" x="433.496094"/>
      <use xlink:href="#DejaVuSans-66" x="494.677734"/>
      <use xlink:href="#DejaVuSans-20" x="529.882812"/>
      <use xlink:href="#DejaVuSans-70" x="561.669922"/>
      <use xlink:href="#DejaVuSans-69" x="625.146484"/>
      <use xlink:href="#DejaVuSans-70" x="652.929688"/>
      <use xlink:href="#DejaVuSans-2d" x="716.40625"/>
      <use xlink:href="#DejaVuSans-69" x="752.490234"/>
      <use xlink:href="#DejaVuSans-6e" x="780.273438"/>
      <use xlink:href="#DejaVuSans-73" x="843.652344"/>
      <use xlink:href="#DejaVuSans-74" x="895.751953"/>
      <use xlink:href="#DejaVuSans-61" x="934.960938"/>
      <use xlink:href="#DejaVuSans-6c" x="996.240234"/>
      <use xlink:href="#DejaVuSans-6c" x="1024.023438"/>
      <use xlink:href="#DejaVuSans-73" x="1051.806641"/>
      <use xlink:href="#DejaVuSans-20" x="1103.90625"/>
      <use xlink:href="#DejaVuSans-70" x="1135.693359"/>
      <use xlink:href="#DejaVuSans-65" x="1199.169922"/>
      <use xlink:href="#DejaVuSans-72" x="1260.693359"/>
      <use xlink:href="#DejaVuSans-20" x="1301.806641"/>
      <use xlink:href="#DejaVuSans-6d" x="1333.59375"/>
      <use xlink:href="#DejaVuSans-6f" x="1431.005859"/>
      <use xlink:href="#DejaVuSans-6e" x="1492.1875"/>
      <use xlink:href="#DejaVuSans-74" x="1555.566406"/>
      <use xlink:href="#DejaVuSans-68" x="1594.775391"/>
     </g>
    </g>
   </g>
   <g id="line2d_43">
    <path d="M 118.762887 315 
L 124.515464 315 
L 130.268041 315 
L 136.020619 315 
L 141.773196 315 
L 147.525773 315 
L 153.278351 315 
L 159.030928 315 
L 164.783505 315 
L 170.536082 315 
L 176.28866 315 
L 182.041237 315 
L 187.793814 315 
L 193.546392 315 
L 199.298969 315 
L 205.051546 315 
L 210.804124 315 
L 216.556701 315 
L 222.309278 315 
L 228.061856 315 
L 233.814433 315 
L 239.56701 315 
L 245.319588 315 
L 251.072165 315 
L 256.824742 315 
L 262.57732 315 
L 268.329897 315 
L 274.082474 315 
L 279.835052 314.997411 
L 285.587629 314.997411 
L 291.340206 314.996117 
L 297.092784 314.988351 
L 302.845361 314.949523 
L 308.597938 314.869277 
L 314.350515 314.78256 
L 320.103093 314.408511 
L 325.85567 314.262257 
L 331.608247 314.015049 
L 337.360825 313.880443 
L 343.113402 313.65006 
L 348.865979 313.562049 
L 354.618557 313.585346 
L 360.371134 313.449446 
L 366.123711 313.140111 
L 371.876289 312.829483 
L 377.628866 312.838543 
L 383.381443 312.483909 
L 389.134021 312.089151 
L 394.886598 311.878183 
L 400.639175 311.174091 
L 406.391753 310.367751 
L 412.14433 309.610594 
L 417.896907 309.324557 
L 423.649485 308.963451 
L 429.402062 308.45868 
L 435.154639 308.202411 
L 440.907216 308.379729 
L 446.659794 308.12346 
L 452.412371 307.210989 
L 458.164948 307.020729 
L 463.917526 300.729206 
L 469.670103 298.189817 
L 475.42268 297.43266 
L 481.175258 297.026254 
L 486.927835 297.235929 
L 492.680412 296.371346 
L 498.43299 301.751691 
L 504.185567 292.913014 
L 509.938144 279.119811 
L 515.690722 275.970814 
L 521.443299 272.090546 
L 527.195876 269.489031 
L 532.948454 263.23116 
L 538.701031 265.953043 
L 544.453608 269.952386 
L 550.206186 270.514106 
L 555.958763 265.190709 
L 561.71134 261.952406 
L 567.463918 256.682074 
L 573.216495 250.00356 
L 578.969072 249.104031 
L 584.721649 235.658991 
L 590.474227 240.841311 
L 596.226804 244.761703 
L 601.979381 254.916669 
L 607.731959 261.093 
L 613.484536 265.975046 
L 619.237113 263.128911 
L 624.989691 247.871871 
L 630.742268 145.86792 
L 636.494845 96.585403 
L 642.247423 89.635089 
L 648 82.675714 
L 653.752577 98.111366 
L 659.505155 114.476314 
L 665.257732 210.922603 
L 671.010309 258.4656 
" clip-path="url(#p11dd94d96f)" style="fill: none; stroke: #1f77b4; stroke-width: 1.5; stroke-linecap: square"/>
   </g>
   <g id="line2d_44">
    <path d="M 118.762887 314.188483 
L 124.515464 314.10306 
L 130.268041 313.965866 
L 136.020619 314.090117 
L 141.773196 314.3658 
L 147.525773 314.279083 
L 153.278351 314.268729 
L 159.030928 314.161303 
L 164.783505 314.336031 
L 170.536082 314.070703 
L 176.28866 313.807963 
L 182.041237 313.454623 
L 187.793814 312.854074 
L 193.546392 312.549917 
L 199.298969 312.275529 
L 205.051546 312.04644 
L 210.804124 311.672391 
L 216.556701 311.420006 
L 222.309278 310.956651 
L 228.061856 310.476471 
L 233.814433 309.218426 
L 239.56701 308.459974 
L 245.319588 307.872369 
L 251.072165 305.439111 
L 256.824742 303.961037 
L 262.57732 302.328943 
L 268.329897 302.441546 
L 274.082474 302.075263 
L 279.835052 301.62744 
L 285.587629 302.763823 
L 291.340206 302.776766 
L 297.092784 303.044683 
L 302.845361 301.287043 
L 308.597938 300.740854 
L 314.350515 300.342214 
L 320.103093 299.047929 
L 325.85567 299.284783 
L 331.608247 297.159566 
L 337.360825 296.935654 
L 343.113402 296.235446 
L 348.865979 295.298383 
L 354.618557 294.582643 
L 360.371134 292.22316 
L 366.123711 292.634743 
L 371.876289 289.742014 
L 377.628866 287.836826 
L 383.381443 284.392731 
L 389.134021 284.093751 
L 394.886598 283.094563 
L 400.639175 279.43044 
L 406.391753 278.50632 
L 412.14433 274.93668 
L 417.896907 272.247154 
L 423.649485 250.579517 
L 429.402062 251.19948 
L 435.154639 255.568989 
L 440.907216 260.049806 
L 446.659794 264.792069 
L 452.412371 270.648711 
L 458.164948 294.055869 
L 463.917526 296.131903 
L 469.670103 296.078837 
L 475.42268 295.9287 
L 481.175258 295.660783 
L 486.927835 295.184486 
L 492.680412 295.699611 
L 498.43299 297.118149 
L 504.185567 298.615637 
L 509.938144 298.708826 
L 515.690722 299.759786 
L 521.443299 299.728723 
L 527.195876 299.585057 
L 532.948454 298.723063 
L 538.701031 298.874494 
L 544.453608 299.590234 
L 550.206186 301.010066 
L 555.958763 303.795369 
L 561.71134 304.253546 
L 567.463918 304.903277 
L 573.216495 298.57422 
L 578.969072 292.756406 
L 584.721649 284.89362 
L 590.474227 283.038909 
L 596.226804 281.28774 
L 601.979381 274.684294 
L 607.731959 276.918231 
L 613.484536 279.069334 
L 619.237113 284.606289 
L 624.989691 285.105883 
L 630.742268 284.935037 
L 636.494845 289.09746 
L 642.247423 291.605786 
L 648 293.813837 
L 653.752577 288.274294 
L 659.505155 287.150854 
L 665.257732 287.344997 
L 671.010309 291.147609 
" clip-path="url(#p11dd94d96f)" style="fill: none; stroke-dasharray: 1.5,2.475; stroke-dashoffset: 0; stroke: #ff7f0e; stroke-width: 1.5"/>
   </g>
   <g id="line2d_45">
    <path d="M 118.762887 305.071534 
L 124.515464 303.501566 
L 130.268041 302.21634 
L 136.020619 301.407411 
L 141.773196 300.013466 
L 147.525773 300.044529 
L 153.278351 299.931926 
L 159.030928 300.682611 
L 164.783505 301.195149 
L 170.536082 299.689894 
L 176.28866 300.255497 
L 182.041237 299.170886 
L 187.793814 299.412917 
L 193.546392 299.881449 
L 199.298969 298.178169 
L 205.051546 299.240777 
L 210.804124 298.930149 
L 216.556701 300.366806 
L 222.309278 299.962989 
L 228.061856 299.500929 
L 233.814433 300.061354 
L 239.56701 299.829677 
L 245.319588 299.744254 
L 251.072165 296.047774 
L 256.824742 294.06234 
L 262.57732 292.551909 
L 268.329897 292.809471 
L 274.082474 293.395783 
L 279.835052 292.835357 
L 285.587629 295.165071 
L 291.340206 296.313103 
L 297.092784 297.184157 
L 302.845361 296.074954 
L 308.597938 295.7022 
L 314.350515 296.302749 
L 320.103093 295.64784 
L 325.85567 296.960246 
L 331.608247 293.086449 
L 337.360825 293.492854 
L 343.113402 294.015746 
L 348.865979 294.299194 
L 354.618557 294.287546 
L 360.371134 293.7996 
L 366.123711 296.890354 
L 371.876289 292.171389 
L 377.628866 290.261023 
L 383.381443 289.655297 
L 389.134021 290.431869 
L 394.886598 289.41456 
L 400.639175 286.516654 
L 406.391753 290.724377 
L 412.14433 282.741223 
L 417.896907 272.383054 
L 423.649485 245.94468 
L 429.402062 239.026723 
L 435.154639 238.459826 
L 440.907216 235.066209 
L 446.659794 240.377957 
L 452.412371 249.87672 
L 458.164948 277.231449 
L 463.917526 284.744777 
L 469.670103 289.10652 
L 475.42268 293.77242 
L 481.175258 297.824829 
L 486.927835 299.239483 
L 492.680412 298.345131 
L 498.43299 299.852974 
L 504.185567 300.091123 
L 509.938144 300.278794 
L 515.690722 300.219257 
L 521.443299 299.728723 
L 527.195876 301.064426 
L 532.948454 300.843103 
L 538.701031 301.494129 
L 544.453608 302.398834 
L 550.206186 303.967509 
L 555.958763 305.90376 
L 561.71134 306.03966 
L 567.463918 305.798923 
L 573.216495 299.139823 
L 578.969072 299.537169 
L 584.721649 299.071226 
L 590.474227 298.641523 
L 596.226804 298.198877 
L 601.979381 298.576809 
L 607.731959 305.092243 
L 613.484536 304.337674 
L 619.237113 304.773849 
L 624.989691 304.681954 
L 630.742268 305.266971 
L 636.494845 305.729031 
L 642.247423 306.17556 
L 648 306.593614 
L 653.752577 306.104374 
L 659.505155 306.255806 
L 665.257732 306.00342 
L 671.010309 306.99096 
" clip-path="url(#p11dd94d96f)" style="fill: none; stroke-dasharray: 5.55,2.4; stroke-dashoffset: 0; stroke: #2ca02c; stroke-width: 1.5"/>
   </g>
   <g id="line2d_46">
    <path d="M 118.762887 246.42486 
L 124.515464 252.291857 
L 130.268041 256.015517 
L 136.020619 264.25494 
L 141.773196 275.077757 
L 147.525773 268.365591 
L 153.278351 253.021834 
L 159.030928 250.844846 
L 164.783505 250.024269 
L 170.536082 244.231046 
L 176.28866 244.825123 
L 182.041237 252.405754 
L 187.793814 261.372566 
L 193.546392 255.042214 
L 199.298969 246.740666 
L 205.051546 247.062943 
L 210.804124 241.060046 
L 216.556701 245.952446 
L 222.309278 252.680143 
L 228.061856 259.686111 
L 233.814433 263.341174 
L 239.56701 256.595357 
L 245.319588 252.40446 
L 251.072165 248.990134 
L 256.824742 242.328446 
L 262.57732 248.79858 
L 268.329897 259.309474 
L 274.082474 264.860666 
L 279.835052 271.313974 
L 285.587629 270.436449 
L 291.340206 267.266743 
L 297.092784 259.994151 
L 302.845361 245.947269 
L 308.597938 233.48718 
L 314.350515 227.137414 
L 320.103093 218.11236 
L 325.85567 213.617306 
L 331.608247 210.244397 
L 337.360825 219.101194 
L 343.113402 234.778877 
L 348.865979 229.529254 
L 354.618557 223.622134 
L 360.371134 223.268794 
L 366.123711 216.374134 
L 371.876289 193.15206 
L 377.628866 189.551357 
L 383.381443 186.31176 
L 389.134021 187.439083 
L 394.886598 185.105486 
L 400.639175 178.617231 
L 406.391753 185.366931 
L 412.14433 182.489734 
L 417.896907 196.176806 
L 423.649485 207.096694 
L 429.402062 218.531709 
L 435.154639 241.711071 
L 440.907216 250.997571 
L 446.659794 251.646009 
L 452.412371 251.220189 
L 458.164948 254.964557 
L 463.917526 257.182963 
L 469.670103 253.966663 
L 475.42268 261.830743 
L 481.175258 262.745803 
L 486.927835 270.312197 
L 492.680412 263.053843 
L 498.43299 253.417886 
L 504.185567 253.030894 
L 509.938144 251.9424 
L 515.690722 258.416417 
L 521.443299 260.611526 
L 527.195876 272.740277 
L 532.948454 288.50856 
L 538.701031 295.875634 
L 544.453608 301.694743 
L 550.206186 304.160357 
L 555.958763 305.862343 
L 561.71134 308.273597 
L 567.463918 308.080749 
L 573.216495 303.743597 
L 578.969072 303.177994 
L 584.721649 300.76674 
L 590.474227 300.08724 
L 596.226804 298.251943 
L 601.979381 288.024497 
L 607.731959 291.38964 
L 613.484536 290.915931 
L 619.237113 291.953949 
L 624.989691 291.037594 
L 630.742268 292.164917 
L 636.494845 301.279277 
L 642.247423 301.31034 
L 648 301.521309 
L 653.752577 301.444946 
L 659.505155 300.964766 
L 665.257732 300.215374 
L 671.010309 302.59686 
" clip-path="url(#p11dd94d96f)" style="fill: none; stroke: #d62728; stroke-width: 1.5; stroke-linecap: square"/>
   </g>
   <g id="line2d_47">
    <path d="M 118.762887 314.640189 
L 124.515464 314.633717 
L 130.268041 314.6829 
L 136.020619 314.786443 
L 141.773196 314.805857 
L 147.525773 314.786443 
L 153.278351 314.785149 
L 159.030928 314.752791 
L 164.783505 314.716551 
L 170.536082 314.650543 
L 176.28866 314.633717 
L 182.041237 314.622069 
L 187.793814 314.584534 
L 193.546392 314.609126 
L 199.298969 314.614303 
L 205.051546 314.623363 
L 210.804124 314.618186 
L 216.556701 314.666074 
L 222.309278 314.732083 
L 228.061856 314.732083 
L 233.814433 314.747614 
L 239.56701 314.772206 
L 245.319588 314.779971 
L 251.072165 314.767029 
L 256.824742 314.765734 
L 262.57732 314.786443 
L 268.329897 314.748909 
L 274.082474 314.716551 
L 279.835052 314.7282 
L 285.587629 314.743731 
L 291.340206 314.73726 
L 297.092784 314.708786 
L 302.845361 314.759263 
L 308.597938 314.812329 
L 314.350515 314.80974 
L 320.103093 314.783854 
L 325.85567 314.756674 
L 331.608247 314.748909 
L 337.360825 314.774794 
L 343.113402 314.783854 
L 348.865979 314.814917 
L 354.618557 314.857629 
L 360.371134 314.906811 
L 366.123711 314.93658 
L 371.876289 314.93658 
L 377.628866 314.937874 
L 383.381443 314.93658 
L 389.134021 314.946934 
L 394.886598 314.952111 
L 400.639175 314.968937 
L 406.391753 314.961171 
L 412.14433 314.955994 
L 417.896907 314.96376 
L 423.649485 314.944346 
L 429.402062 314.941757 
L 435.154639 314.939169 
L 440.907216 314.944346 
L 446.659794 314.941757 
L 452.412371 314.939169 
L 458.164948 314.961171 
L 463.917526 314.949523 
L 469.670103 314.948229 
L 475.42268 314.955994 
L 481.175258 314.946934 
L 486.927835 314.94564 
L 492.680412 314.939169 
L 498.43299 314.9547 
L 504.185567 314.955994 
L 509.938144 314.949523 
L 515.690722 314.965054 
L 521.443299 314.966349 
L 527.195876 314.971526 
L 532.948454 314.97282 
L 538.701031 314.97282 
L 544.453608 314.97282 
L 550.206186 314.975409 
L 555.958763 314.979291 
L 561.71134 314.970231 
L 567.463918 314.97282 
L 573.216495 314.977997 
L 578.969072 314.974114 
L 584.721649 314.97282 
L 590.474227 314.971526 
L 596.226804 314.979291 
L 601.979381 314.977997 
L 607.731959 314.975409 
L 613.484536 314.976703 
L 619.237113 314.979291 
L 624.989691 314.980586 
L 630.742268 314.983174 
L 636.494845 314.983174 
L 642.247423 314.983174 
L 648 314.99094 
L 653.752577 314.99094 
L 659.505155 314.989646 
L 665.257732 314.989646 
L 671.010309 314.99094 
" clip-path="url(#p11dd94d96f)" style="fill: none; stroke-dasharray: 5.55,2.4; stroke-dashoffset: 0; stroke: #9467bd; stroke-width: 1.5"/>
   </g>
   <g id="line2d_48">
    <path d="M 118.762887 311.954546 
L 124.515464 311.199977 
L 130.268041 310.831106 
L 136.020619 310.906174 
L 141.773196 310.50624 
L 147.525773 310.402697 
L 153.278351 310.169726 
L 159.030928 309.024283 
L 164.783505 308.724009 
L 170.536082 306.957309 
L 176.28866 301.631323 
L 182.041237 298.567749 
L 187.793814 295.105534 
L 193.546392 296.5629 
L 199.298969 294.929511 
L 205.051546 287.225923 
L 210.804124 291.264094 
L 216.556701 292.834063 
L 222.309278 294.739251 
L 228.061856 294.809143 
L 233.814433 296.810109 
L 239.56701 305.84034 
L 245.319588 306.478423 
L 251.072165 307.499614 
L 256.824742 308.655411 
L 262.57732 308.230886 
L 268.329897 307.7973 
L 274.082474 307.745529 
L 279.835052 308.425029 
L 285.587629 307.9332 
L 291.340206 306.708806 
L 297.092784 304.9887 
L 302.845361 304.873509 
L 308.597938 305.155663 
L 314.350515 305.55042 
L 320.103093 306.757989 
L 325.85567 308.31372 
L 331.608247 310.77804 
L 337.360825 311.734517 
L 343.113402 312.212109 
L 348.865979 311.432949 
L 354.618557 309.01134 
L 360.371134 309.417746 
L 366.123711 309.369857 
L 371.876289 308.602346 
L 377.628866 308.462563 
L 383.381443 309.280551 
L 389.134021 311.461423 
L 394.886598 311.742283 
L 400.639175 310.445409 
L 406.391753 310.586486 
L 412.14433 310.020883 
L 417.896907 309.608006 
L 423.649485 309.822857 
L 429.402062 309.650717 
L 435.154639 310.822046 
L 440.907216 310.963123 
L 446.659794 311.115849 
L 452.412371 311.192211 
L 458.164948 311.106789 
L 463.917526 311.121026 
L 469.670103 311.387649 
L 475.42268 311.772051 
L 481.175258 312.287177 
L 486.927835 312.904551 
L 492.680412 312.59004 
L 498.43299 312.718174 
L 504.185567 312.931731 
L 509.938144 313.352374 
L 515.690722 313.470154 
L 521.443299 312.982209 
L 527.195876 313.445563 
L 532.948454 313.542634 
L 538.701031 313.587934 
L 544.453608 313.518043 
L 550.206186 313.521926 
L 555.958763 314.020226 
L 561.71134 314.22084 
L 567.463918 314.299791 
L 573.216495 314.355446 
L 578.969072 314.471931 
L 584.721649 314.49264 
L 590.474227 314.51982 
L 596.226804 314.51982 
L 601.979381 314.51982 
L 607.731959 314.553471 
L 613.484536 314.55606 
L 619.237113 314.629834 
L 624.989691 314.635011 
L 630.742268 314.707491 
L 636.494845 314.750203 
L 642.247423 314.754086 
L 648 314.804563 
L 653.752577 314.768323 
L 659.505155 314.774794 
L 665.257732 314.742437 
L 671.010309 314.778677 
" clip-path="url(#p11dd94d96f)" style="fill: none; stroke-dasharray: 9.6,2.4,1.5,2.4; stroke-dashoffset: 0; stroke: #8c564b; stroke-width: 1.5"/>
   </g>
   <g id="patch_3">
    <path d="M 90 315 
L 90 43.2 
" style="fill: none; stroke: #000000; stroke-width: 0.8; stroke-linejoin: miter; stroke-linecap: square"/>
   </g>
   <g id="patch_4">
    <path d="M 648 315 
L 648 43.2 
" style="fill: none; stroke: #000000; stroke-width: 0.8; stroke-linejoin: miter; stroke-linecap: square"/>
   </g>
   <g id="patch_5">
    <path d="M 90 315 
L 648 315 
" style="fill: none; stroke: #000000; stroke-width: 0.8; stroke-linejoin: miter; stroke-linecap: square"/>
   </g>
   <g id="patch_6">
    <path d="M 90 43.2 
L 648 43.2 
" style="fill: none; stroke: #000000; stroke-width: 0.8; stroke-linejoin: miter; stroke-linecap: square"/>
   </g>
   <g id="text_15">
    <!-- Python version of Uproot users, all operating systems -->
    <g transform="translate(207.975938 37.2)scale(0.12 -0.12)">
     <defs>
      <path id="DejaVuSans-50" d="M 1259 4147 
L 1259 2394 
L 2053 2394 
Q 2494 2394 2734 2622 
Q 2975 2850 2975 3272 
Q 2975 3691 2734 3919 
Q 2494 4147 2053 4147 
L 1259 4147 
z
M 628 4666 
L 2053 4666 
Q 2838 4666 3239 4311 
Q 3641 3956 3641 3272 
Q 3641 2581 3239 2228 
Q 2838 1875 2053 1875 
L 1259 1875 
L 1259 0 
L 628 0 
L 628 4666 
z
" transform="scale(0.015625)"/>
      <path id="DejaVuSans-79" d="M 2059 -325 
Q 1816 -950 1584 -1140 
Q 1353 -1331 966 -1331 
L 506 -1331 
L 506 -850 
L 844 -850 
Q 1081 -850 1212 -737 
Q 1344 -625 1503 -206 
L 1606 56 
L 191 3500 
L 800 3500 
L 1894 763 
L 2988 3500 
L 3597 3500 
L 2059 -325 
z
" transform="scale(0.015625)"/>
      <path id="DejaVuSans-76" d="M 191 3500 
L 800 3500 
L 1894 563 
L 2988 3500 
L 3597 3500 
L 2284 0 
L 1503 0 
L 191 3500 
z
" transform="scale(0.015625)"/>
      <path id="DejaVuSans-55" d="M 556 4666 
L 1191 4666 
L 1191 1831 
Q 1191 1081 1462 751 
Q 1734 422 2344 422 
Q 2950 422 3222 751 
Q 3494 1081 3494 1831 
L 3494 4666 
L 4128 4666 
L 4128 1753 
Q 4128 841 3676 375 
Q 3225 -91 2344 -91 
Q 1459 -91 1007 375 
Q 556 841 556 1753 
L 556 4666 
z
" transform="scale(0.015625)"/>
      <path id="DejaVuSans-2c" d="M 750 794 
L 1409 794 
L 1409 256 
L 897 -744 
L 494 -744 
L 750 256 
L 750 794 
z
" transform="scale(0.015625)"/>
      <path id="DejaVuSans-67" d="M 2906 1791 
Q 2906 2416 2648 2759 
Q 2391 3103 1925 3103 
Q 1463 3103 1205 2759 
Q 947 2416 947 1791 
Q 947 1169 1205 825 
Q 1463 481 1925 481 
Q 2391 481 2648 825 
Q 2906 1169 2906 1791 
z
M 3481 434 
Q 3481 -459 3084 -895 
Q 2688 -1331 1869 -1331 
Q 1566 -1331 1297 -1286 
Q 1028 -1241 775 -1147 
L 775 -588 
Q 1028 -725 1275 -790 
Q 1522 -856 1778 -856 
Q 2344 -856 2625 -561 
Q 2906 -266 2906 331 
L 2906 616 
Q 2728 306 2450 153 
Q 2172 0 1784 0 
Q 1141 0 747 490 
Q 353 981 353 1791 
Q 353 2603 747 3093 
Q 1141 3584 1784 3584 
Q 2172 3584 2450 3431 
Q 2728 3278 2906 2969 
L 2906 3500 
L 3481 3500 
L 3481 434 
z
" transform="scale(0.015625)"/>
     </defs>
     <use xlink:href="#DejaVuSans-50"/>
     <use xlink:href="#DejaVuSans-79" x="60.302734"/>
     <use xlink:href="#DejaVuSans-74" x="119.482422"/>
     <use xlink:href="#DejaVuSans-68" x="158.691406"/>
     <use xlink:href="#DejaVuSans-6f" x="222.070312"/>
     <use xlink:href="#DejaVuSans-6e" x="283.251953"/>
     <use xlink:href="#DejaVuSans-20" x="346.630859"/>
     <use xlink:href="#DejaVuSans-76" x="378.417969"/>
     <use xlink:href="#DejaVuSans-65" x="437.597656"/>
     <use xlink:href="#DejaVuSans-72" x="499.121094"/>
     <use xlink:href="#DejaVuSans-73" x="540.234375"/>
     <use xlink:href="#DejaVuSans-69" x="592.333984"/>
     <use xlink:href="#DejaVuSans-6f" x="620.117188"/>
     <use xlink:href="#DejaVuSans-6e" x="681.298828"/>
     <use xlink:href="#DejaVuSans-20" x="744.677734"/>
     <use xlink:href="#DejaVuSans-6f" x="776.464844"/>
     <use xlink:href="#DejaVuSans-66" x="837.646484"/>
     <use xlink:href="#DejaVuSans-20" x="872.851562"/>
     <use xlink:href="#DejaVuSans-55" x="904.638672"/>
     <use xlink:href="#DejaVuSans-70" x="977.832031"/>
     <use xlink:href="#DejaVuSans-72" x="1041.308594"/>
     <use xlink:href="#DejaVuSans-6f" x="1080.171875"/>
     <use xlink:href="#DejaVuSans-6f" x="1141.353516"/>
     <use xlink:href="#DejaVuSans-74" x="1202.535156"/>
     <use xlink:href="#DejaVuSans-20" x="1241.744141"/>
     <use xlink:href="#DejaVuSans-75" x="1273.53125"/>
     <use xlink:href="#DejaVuSans-73" x="1336.910156"/>
     <use xlink:href="#DejaVuSans-65" x="1389.009766"/>
     <use xlink:href="#DejaVuSans-72" x="1450.533203"/>
     <use xlink:href="#DejaVuSans-73" x="1491.646484"/>
     <use xlink:href="#DejaVuSans-2c" x="1543.746094"/>
     <use xlink:href="#DejaVuSans-20" x="1575.533203"/>
     <use xlink:href="#DejaVuSans-61" x="1607.320312"/>
     <use xlink:href="#DejaVuSans-6c" x="1668.599609"/>
     <use xlink:href="#DejaVuSans-6c" x="1696.382812"/>
     <use xlink:href="#DejaVuSans-20" x="1724.166016"/>
     <use xlink:href="#DejaVuSans-6f" x="1755.953125"/>
     <use xlink:href="#DejaVuSans-70" x="1817.134766"/>
     <use xlink:href="#DejaVuSans-65" x="1880.611328"/>
     <use xlink:href="#DejaVuSans-72" x="1942.134766"/>
     <use xlink:href="#DejaVuSans-61" x="1983.248047"/>
     <use xlink:href="#DejaVuSans-74" x="2044.527344"/>
     <use xlink:href="#DejaVuSans-69" x="2083.736328"/>
     <use xlink:href="#DejaVuSans-6e" x="2111.519531"/>
     <use xlink:href="#DejaVuSans-67" x="2174.898438"/>
     <use xlink:href="#DejaVuSans-20" x="2238.375"/>
     <use xlink:href="#DejaVuSans-73" x="2270.162109"/>
     <use xlink:href="#DejaVuSans-79" x="2322.261719"/>
     <use xlink:href="#DejaVuSans-73" x="2381.441406"/>
     <use xlink:href="#DejaVuSans-74" x="2433.541016"/>
     <use xlink:href="#DejaVuSans-65" x="2472.75"/>
     <use xlink:href="#DejaVuSans-6d" x="2534.273438"/>
     <use xlink:href="#DejaVuSans-73" x="2631.685547"/>
    </g>
   </g>
   <g id="legend_1">
    <g id="patch_7">
     <path d="M 97 139.26875 
L 189.421875 139.26875 
Q 191.421875 139.26875 191.421875 137.26875 
L 191.421875 50.2 
Q 191.421875 48.2 189.421875 48.2 
L 97 48.2 
Q 95 48.2 95 50.2 
L 95 137.26875 
Q 95 139.26875 97 139.26875 
z
" style="fill: #ffffff; opacity: 0.8; stroke: #cccccc; stroke-linejoin: miter"/>
    </g>
    <g id="line2d_49">
     <path d="M 99 56.298437 
L 109 56.298437 
L 119 56.298437 
" style="fill: none; stroke: #1f77b4; stroke-width: 1.5; stroke-linecap: square"/>
    </g>
    <g id="text_16">
     <!-- 3.9 -->
     <g transform="translate(127 59.798437)scale(0.1 -0.1)">
      <defs>
       <path id="DejaVuSans-2e" d="M 684 794 
L 1344 794 
L 1344 0 
L 684 0 
L 684 794 
z
" transform="scale(0.015625)"/>
       <path id="DejaVuSans-39" d="M 703 97 
L 703 672 
Q 941 559 1184 500 
Q 1428 441 1663 441 
Q 2288 441 2617 861 
Q 2947 1281 2994 2138 
Q 2813 1869 2534 1725 
Q 2256 1581 1919 1581 
Q 1219 1581 811 2004 
Q 403 2428 403 3163 
Q 403 3881 828 4315 
Q 1253 4750 1959 4750 
Q 2769 4750 3195 4129 
Q 3622 3509 3622 2328 
Q 3622 1225 3098 567 
Q 2575 -91 1691 -91 
Q 1453 -91 1209 -44 
Q 966 3 703 97 
z
M 1959 2075 
Q 2384 2075 2632 2365 
Q 2881 2656 2881 3163 
Q 2881 3666 2632 3958 
Q 2384 4250 1959 4250 
Q 1534 4250 1286 3958 
Q 1038 3666 1038 3163 
Q 1038 2656 1286 2365 
Q 1534 2075 1959 2075 
z
" transform="scale(0.015625)"/>
      </defs>
      <use xlink:href="#DejaVuSans-33"/>
      <use xlink:href="#DejaVuSans-2e" x="63.623047"/>
      <use xlink:href="#DejaVuSans-39" x="95.410156"/>
     </g>
    </g>
    <g id="line2d_50">
     <path d="M 99 70.976562 
L 109 70.976562 
L 119 70.976562 
" style="fill: none; stroke-dasharray: 1.5,2.475; stroke-dashoffset: 0; stroke: #ff7f0e; stroke-width: 1.5"/>
    </g>
    <g id="text_17">
     <!-- 3.8 -->
     <g transform="translate(127 74.476562)scale(0.1 -0.1)">
      <defs>
       <path id="DejaVuSans-38" d="M 2034 2216 
Q 1584 2216 1326 1975 
Q 1069 1734 1069 1313 
Q 1069 891 1326 650 
Q 1584 409 2034 409 
Q 2484 409 2743 651 
Q 3003 894 3003 1313 
Q 3003 1734 2745 1975 
Q 2488 2216 2034 2216 
z
M 1403 2484 
Q 997 2584 770 2862 
Q 544 3141 544 3541 
Q 544 4100 942 4425 
Q 1341 4750 2034 4750 
Q 2731 4750 3128 4425 
Q 3525 4100 3525 3541 
Q 3525 3141 3298 2862 
Q 3072 2584 2669 2484 
Q 3125 2378 3379 2068 
Q 3634 1759 3634 1313 
Q 3634 634 3220 271 
Q 2806 -91 2034 -91 
Q 1263 -91 848 271 
Q 434 634 434 1313 
Q 434 1759 690 2068 
Q 947 2378 1403 2484 
z
M 1172 3481 
Q 1172 3119 1398 2916 
Q 1625 2713 2034 2713 
Q 2441 2713 2670 2916 
Q 2900 3119 2900 3481 
Q 2900 3844 2670 4047 
Q 2441 4250 2034 4250 
Q 1625 4250 1398 4047 
Q 1172 3844 1172 3481 
z
" transform="scale(0.015625)"/>
      </defs>
      <use xlink:href="#DejaVuSans-33"/>
      <use xlink:href="#DejaVuSans-2e" x="63.623047"/>
      <use xlink:href="#DejaVuSans-38" x="95.410156"/>
     </g>
    </g>
    <g id="line2d_51">
     <path d="M 99 85.654687 
L 109 85.654687 
L 119 85.654687 
" style="fill: none; stroke-dasharray: 5.55,2.4; stroke-dashoffset: 0; stroke: #2ca02c; stroke-width: 1.5"/>
    </g>
    <g id="text_18">
     <!-- 3.7 -->
     <g transform="translate(127 89.154687)scale(0.1 -0.1)">
      <defs>
       <path id="DejaVuSans-37" d="M 525 4666 
L 3525 4666 
L 3525 4397 
L 1831 0 
L 1172 0 
L 2766 4134 
L 525 4134 
L 525 4666 
z
" transform="scale(0.015625)"/>
      </defs>
      <use xlink:href="#DejaVuSans-33"/>
      <use xlink:href="#DejaVuSans-2e" x="63.623047"/>
      <use xlink:href="#DejaVuSans-37" x="95.410156"/>
     </g>
    </g>
    <g id="line2d_52">
     <path d="M 99 100.332812 
L 109 100.332812 
L 119 100.332812 
" style="fill: none; stroke: #d62728; stroke-width: 1.5; stroke-linecap: square"/>
    </g>
    <g id="text_19">
     <!-- 3.6 -->
     <g transform="translate(127 103.832812)scale(0.1 -0.1)">
      <defs>
       <path id="DejaVuSans-36" d="M 2113 2584 
Q 1688 2584 1439 2293 
Q 1191 2003 1191 1497 
Q 1191 994 1439 701 
Q 1688 409 2113 409 
Q 2538 409 2786 701 
Q 3034 994 3034 1497 
Q 3034 2003 2786 2293 
Q 2538 2584 2113 2584 
z
M 3366 4563 
L 3366 3988 
Q 3128 4100 2886 4159 
Q 2644 4219 2406 4219 
Q 1781 4219 1451 3797 
Q 1122 3375 1075 2522 
Q 1259 2794 1537 2939 
Q 1816 3084 2150 3084 
Q 2853 3084 3261 2657 
Q 3669 2231 3669 1497 
Q 3669 778 3244 343 
Q 2819 -91 2113 -91 
Q 1303 -91 875 529 
Q 447 1150 447 2328 
Q 447 3434 972 4092 
Q 1497 4750 2381 4750 
Q 2619 4750 2861 4703 
Q 3103 4656 3366 4563 
z
" transform="scale(0.015625)"/>
      </defs>
      <use xlink:href="#DejaVuSans-33"/>
      <use xlink:href="#DejaVuSans-2e" x="63.623047"/>
      <use xlink:href="#DejaVuSans-36" x="95.410156"/>
     </g>
    </g>
    <g id="line2d_53">
     <path d="M 99 115.010937 
L 109 115.010937 
L 119 115.010937 
" style="fill: none; stroke-dasharray: 5.55,2.4; stroke-dashoffset: 0; stroke: #9467bd; stroke-width: 1.5"/>
    </g>
    <g id="text_20">
     <!-- 3.3, 3.4, 3.5 -->
     <g transform="translate(127 118.510937)scale(0.1 -0.1)">
      <defs>
       <path id="DejaVuSans-34" d="M 2419 4116 
L 825 1625 
L 2419 1625 
L 2419 4116 
z
M 2253 4666 
L 3047 4666 
L 3047 1625 
L 3713 1625 
L 3713 1100 
L 3047 1100 
L 3047 0 
L 2419 0 
L 2419 1100 
L 313 1100 
L 313 1709 
L 2253 4666 
z
" transform="scale(0.015625)"/>
      </defs>
      <use xlink:href="#DejaVuSans-33"/>
      <use xlink:href="#DejaVuSans-2e" x="63.623047"/>
      <use xlink:href="#DejaVuSans-33" x="95.410156"/>
      <use xlink:href="#DejaVuSans-2c" x="159.033203"/>
      <use xlink:href="#DejaVuSans-20" x="190.820312"/>
      <use xlink:href="#DejaVuSans-33" x="222.607422"/>
      <use xlink:href="#DejaVuSans-2e" x="286.230469"/>
      <use xlink:href="#DejaVuSans-34" x="318.017578"/>
      <use xlink:href="#DejaVuSans-2c" x="381.640625"/>
      <use xlink:href="#DejaVuSans-20" x="413.427734"/>
      <use xlink:href="#DejaVuSans-33" x="445.214844"/>
      <use xlink:href="#DejaVuSans-2e" x="508.837891"/>
      <use xlink:href="#DejaVuSans-35" x="540.625"/>
     </g>
    </g>
    <g id="line2d_54">
     <path d="M 99 129.689062 
L 109 129.689062 
L 119 129.689062 
" style="fill: none; stroke-dasharray: 9.6,2.4,1.5,2.4; stroke-dashoffset: 0; stroke: #8c564b; stroke-width: 1.5"/>
    </g>
    <g id="text_21">
     <!-- 2.7 -->
     <g transform="translate(127 133.189062)scale(0.1 -0.1)">
      <use xlink:href="#DejaVuSans-32"/>
      <use xlink:href="#DejaVuSans-2e" x="63.623047"/>
      <use xlink:href="#DejaVuSans-37" x="95.410156"/>
     </g>
    </g>
   </g>
  </g>
 </g>
 <defs>
  <clipPath id="p11dd94d96f">
   <rect x="90" y="43.2" width="558" height="271.8"/>
  </clipPath>
 </defs>
</svg>
