<?xml version="1.0" encoding="utf-8" standalone="no"?>
<!DOCTYPE svg PUBLIC "-//W3C//DTD SVG 1.1//EN"
  "http://www.w3.org/Graphics/SVG/1.1/DTD/svg11.dtd">
<svg xmlns:xlink="http://www.w3.org/1999/xlink" width="720pt" height="360pt" viewBox="0 0 720 360" xmlns="http://www.w3.org/2000/svg" version="1.1">
 <metadata>
  <rdf:RDF xmlns:dc="http://purl.org/dc/elements/1.1/" xmlns:cc="http://creativecommons.org/ns#" xmlns:rdf="http://www.w3.org/1999/02/22-rdf-syntax-ns#">
   <cc:Work>
    <dc:type rdf:resource="http://purl.org/dc/dcmitype/StillImage"/>
    <dc:date>2022-07-17T13:25:46.904562</dc:date>
    <dc:format>image/svg+xml</dc:format>
    <dc:creator>
     <cc:Agent>
      <dc:title>Matplotlib v3.5.2, https://matplotlib.org/</dc:title>
     </cc:Agent>
    </dc:creator>
   </cc:Work>
  </rdf:RDF>
 </metadata>
 <defs>
  <style type="text/css">*{stroke-linejoin: round; stroke-linecap: butt}</style>
 </defs>
 <g id="figure_1">
  <g id="patch_1">
   <path d="M 0 360 
L 720 360 
L 720 0 
L 0 0 
L 0 360 
z
" style="fill: none"/>
  </g>
  <g id="axes_1">
   <g id="patch_2">
    <path d="M 90 315 
L 648 315 
L 648 43.2 
L 90 43.2 
z
" style="fill: #ffffff"/>
   </g>
   <g id="matplotlib.axis_1">
    <g id="xtick_1">
     <g id="line2d_1">
      <defs>
       <path id="m147b0d1f07" d="M 0 0 
L 0 3.5 
" style="stroke: #000000; stroke-width: 0.8"/>
      </defs>
      <g>
       <use xlink:href="#m147b0d1f07" x="90" y="315" style="stroke: #000000; stroke-width: 0.8"/>
      </g>
     </g>
    </g>
    <g id="xtick_2">
     <g id="line2d_2">
      <g>
       <use xlink:href="#m147b0d1f07" x="203.732484" y="315" style="stroke: #000000; stroke-width: 0.8"/>
      </g>
     </g>
     <g id="text_1">
      <!-- 2019 -->
      <g transform="translate(191.007484 329.598437)scale(0.1 -0.1)">
       <defs>
        <path id="DejaVuSans-32" d="M 1228 531 
L 3431 531 
L 3431 0 
L 469 0 
L 469 531 
Q 828 903 1448 1529 
Q 2069 2156 2228 2338 
Q 2531 2678 2651 2914 
Q 2772 3150 2772 3378 
Q 2772 3750 2511 3984 
Q 2250 4219 1831 4219 
Q 1534 4219 1204 4116 
Q 875 4013 500 3803 
L 500 4441 
Q 881 4594 1212 4672 
Q 1544 4750 1819 4750 
Q 2544 4750 2975 4387 
Q 3406 4025 3406 3419 
Q 3406 3131 3298 2873 
Q 3191 2616 2906 2266 
Q 2828 2175 2409 1742 
Q 1991 1309 1228 531 
z
" transform="scale(0.015625)"/>
        <path id="DejaVuSans-30" d="M 2034 4250 
Q 1547 4250 1301 3770 
Q 1056 3291 1056 2328 
Q 1056 1369 1301 889 
Q 1547 409 2034 409 
Q 2525 409 2770 889 
Q 3016 1369 3016 2328 
Q 3016 3291 2770 3770 
Q 2525 4250 2034 4250 
z
M 2034 4750 
Q 2819 4750 3233 4129 
Q 3647 3509 3647 2328 
Q 3647 1150 3233 529 
Q 2819 -91 2034 -91 
Q 1250 -91 836 529 
Q 422 1150 422 2328 
Q 422 3509 836 4129 
Q 1250 4750 2034 4750 
z
" transform="scale(0.015625)"/>
        <path id="DejaVuSans-31" d="M 794 531 
L 1825 531 
L 1825 4091 
L 703 3866 
L 703 4441 
L 1819 4666 
L 2450 4666 
L 2450 531 
L 3481 531 
L 3481 0 
L 794 0 
L 794 531 
z
" transform="scale(0.015625)"/>
        <path id="DejaVuSans-39" d="M 703 97 
L 703 672 
Q 941 559 1184 500 
Q 1428 441 1663 441 
Q 2288 441 2617 861 
Q 2947 1281 2994 2138 
Q 2813 1869 2534 1725 
Q 2256 1581 1919 1581 
Q 1219 1581 811 2004 
Q 403 2428 403 3163 
Q 403 3881 828 4315 
Q 1253 4750 1959 4750 
Q 2769 4750 3195 4129 
Q 3622 3509 3622 2328 
Q 3622 1225 3098 567 
Q 2575 -91 1691 -91 
Q 1453 -91 1209 -44 
Q 966 3 703 97 
z
M 1959 2075 
Q 2384 2075 2632 2365 
Q 2881 2656 2881 3163 
Q 2881 3666 2632 3958 
Q 2384 4250 1959 4250 
Q 1534 4250 1286 3958 
Q 1038 3666 1038 3163 
Q 1038 2656 1286 2365 
Q 1534 2075 1959 2075 
z
" transform="scale(0.015625)"/>
       </defs>
       <use xlink:href="#DejaVuSans-32"/>
       <use xlink:href="#DejaVuSans-30" x="63.623047"/>
       <use xlink:href="#DejaVuSans-31" x="127.246094"/>
       <use xlink:href="#DejaVuSans-39" x="190.869141"/>
      </g>
     </g>
    </g>
    <g id="xtick_3">
     <g id="line2d_3">
      <g>
       <use xlink:href="#m147b0d1f07" x="333.458599" y="315" style="stroke: #000000; stroke-width: 0.8"/>
      </g>
     </g>
     <g id="text_2">
      <!-- 2020 -->
      <g transform="translate(320.733599 329.598437)scale(0.1 -0.1)">
       <use xlink:href="#DejaVuSans-32"/>
       <use xlink:href="#DejaVuSans-30" x="63.623047"/>
       <use xlink:href="#DejaVuSans-32" x="127.246094"/>
       <use xlink:href="#DejaVuSans-30" x="190.869141"/>
      </g>
     </g>
    </g>
    <g id="xtick_4">
     <g id="line2d_4">
      <g>
       <use xlink:href="#m147b0d1f07" x="463.540127" y="315" style="stroke: #000000; stroke-width: 0.8"/>
      </g>
     </g>
     <g id="text_3">
      <!-- 2021 -->
      <g transform="translate(450.815127 329.598437)scale(0.1 -0.1)">
       <use xlink:href="#DejaVuSans-32"/>
       <use xlink:href="#DejaVuSans-30" x="63.623047"/>
       <use xlink:href="#DejaVuSans-32" x="127.246094"/>
       <use xlink:href="#DejaVuSans-31" x="190.869141"/>
      </g>
     </g>
    </g>
    <g id="xtick_5">
     <g id="line2d_5">
      <g>
       <use xlink:href="#m147b0d1f07" x="593.266242" y="315" style="stroke: #000000; stroke-width: 0.8"/>
      </g>
     </g>
     <g id="text_4">
      <!-- 2022 -->
      <g transform="translate(580.541242 329.598437)scale(0.1 -0.1)">
       <use xlink:href="#DejaVuSans-32"/>
       <use xlink:href="#DejaVuSans-30" x="63.623047"/>
       <use xlink:href="#DejaVuSans-32" x="127.246094"/>
       <use xlink:href="#DejaVuSans-32" x="190.869141"/>
      </g>
     </g>
    </g>
    <g id="xtick_6">
     <g id="line2d_6">
      <g>
       <use xlink:href="#m147b0d1f07" x="648" y="315" style="stroke: #000000; stroke-width: 0.8"/>
      </g>
     </g>
    </g>
    <g id="xtick_7">
     <g id="line2d_7">
      <defs>
       <path id="m01ecec6d62" d="M 0 0 
L 0 2 
" style="stroke: #000000; stroke-width: 0.6"/>
      </defs>
      <g>
       <use xlink:href="#m01ecec6d62" x="105.993631" y="315" style="stroke: #000000; stroke-width: 0.6"/>
      </g>
     </g>
    </g>
    <g id="xtick_8">
     <g id="line2d_8">
      <g>
       <use xlink:href="#m01ecec6d62" x="138.336306" y="315" style="stroke: #000000; stroke-width: 0.6"/>
      </g>
     </g>
    </g>
    <g id="xtick_9">
     <g id="line2d_9">
      <g>
       <use xlink:href="#m01ecec6d62" x="171.034395" y="315" style="stroke: #000000; stroke-width: 0.6"/>
      </g>
     </g>
    </g>
    <g id="xtick_10">
     <g id="line2d_10">
      <g>
       <use xlink:href="#m01ecec6d62" x="235.719745" y="315" style="stroke: #000000; stroke-width: 0.6"/>
      </g>
     </g>
    </g>
    <g id="xtick_11">
     <g id="line2d_11">
      <g>
       <use xlink:href="#m01ecec6d62" x="268.06242" y="315" style="stroke: #000000; stroke-width: 0.6"/>
      </g>
     </g>
    </g>
    <g id="xtick_12">
     <g id="line2d_12">
      <g>
       <use xlink:href="#m01ecec6d62" x="300.76051" y="315" style="stroke: #000000; stroke-width: 0.6"/>
      </g>
     </g>
    </g>
    <g id="xtick_13">
     <g id="line2d_13">
      <g>
       <use xlink:href="#m01ecec6d62" x="365.801274" y="315" style="stroke: #000000; stroke-width: 0.6"/>
      </g>
     </g>
    </g>
    <g id="xtick_14">
     <g id="line2d_14">
      <g>
       <use xlink:href="#m01ecec6d62" x="398.143949" y="315" style="stroke: #000000; stroke-width: 0.6"/>
      </g>
     </g>
    </g>
    <g id="xtick_15">
     <g id="line2d_15">
      <g>
       <use xlink:href="#m01ecec6d62" x="430.842038" y="315" style="stroke: #000000; stroke-width: 0.6"/>
      </g>
     </g>
    </g>
    <g id="xtick_16">
     <g id="line2d_16">
      <g>
       <use xlink:href="#m01ecec6d62" x="495.527389" y="315" style="stroke: #000000; stroke-width: 0.6"/>
      </g>
     </g>
    </g>
    <g id="xtick_17">
     <g id="line2d_17">
      <g>
       <use xlink:href="#m01ecec6d62" x="527.870064" y="315" style="stroke: #000000; stroke-width: 0.6"/>
      </g>
     </g>
    </g>
    <g id="xtick_18">
     <g id="line2d_18">
      <g>
       <use xlink:href="#m01ecec6d62" x="560.568153" y="315" style="stroke: #000000; stroke-width: 0.6"/>
      </g>
     </g>
    </g>
    <g id="xtick_19">
     <g id="line2d_19">
      <g>
       <use xlink:href="#m01ecec6d62" x="625.253503" y="315" style="stroke: #000000; stroke-width: 0.6"/>
      </g>
     </g>
    </g>
   </g>
   <g id="matplotlib.axis_2">
    <g id="ytick_1">
     <g id="line2d_20">
      <defs>
       <path id="m33258779d2" d="M 0 0 
L -3.5 0 
" style="stroke: #000000; stroke-width: 0.8"/>
      </defs>
      <g>
       <use xlink:href="#m33258779d2" x="90" y="243.940779" style="stroke: #000000; stroke-width: 0.8"/>
      </g>
     </g>
     <g id="text_5">
      <!-- $\mathdefault{10^{5}}$ -->
      <g transform="translate(65.4 247.739997)scale(0.1 -0.1)">
       <defs>
        <path id="DejaVuSans-35" d="M 691 4666 
L 3169 4666 
L 3169 4134 
L 1269 4134 
L 1269 2991 
Q 1406 3038 1543 3061 
Q 1681 3084 1819 3084 
Q 2600 3084 3056 2656 
Q 3513 2228 3513 1497 
Q 3513 744 3044 326 
Q 2575 -91 1722 -91 
Q 1428 -91 1123 -41 
Q 819 9 494 109 
L 494 744 
Q 775 591 1075 516 
Q 1375 441 1709 441 
Q 2250 441 2565 725 
Q 2881 1009 2881 1497 
Q 2881 1984 2565 2268 
Q 2250 2553 1709 2553 
Q 1456 2553 1204 2497 
Q 953 2441 691 2322 
L 691 4666 
z
" transform="scale(0.015625)"/>
       </defs>
       <use xlink:href="#DejaVuSans-31" transform="translate(0 0.684375)"/>
       <use xlink:href="#DejaVuSans-30" transform="translate(63.623047 0.684375)"/>
       <use xlink:href="#DejaVuSans-35" transform="translate(128.203125 38.965625)scale(0.7)"/>
      </g>
     </g>
    </g>
    <g id="ytick_2">
     <g id="line2d_21">
      <g>
       <use xlink:href="#m33258779d2" x="90" y="108.040779" style="stroke: #000000; stroke-width: 0.8"/>
      </g>
     </g>
     <g id="text_6">
      <!-- $\mathdefault{10^{6}}$ -->
      <g transform="translate(65.4 111.839997)scale(0.1 -0.1)">
       <defs>
        <path id="DejaVuSans-36" d="M 2113 2584 
Q 1688 2584 1439 2293 
Q 1191 2003 1191 1497 
Q 1191 994 1439 701 
Q 1688 409 2113 409 
Q 2538 409 2786 701 
Q 3034 994 3034 1497 
Q 3034 2003 2786 2293 
Q 2538 2584 2113 2584 
z
M 3366 4563 
L 3366 3988 
Q 3128 4100 2886 4159 
Q 2644 4219 2406 4219 
Q 1781 4219 1451 3797 
Q 1122 3375 1075 2522 
Q 1259 2794 1537 2939 
Q 1816 3084 2150 3084 
Q 2853 3084 3261 2657 
Q 3669 2231 3669 1497 
Q 3669 778 3244 343 
Q 2819 -91 2113 -91 
Q 1303 -91 875 529 
Q 447 1150 447 2328 
Q 447 3434 972 4092 
Q 1497 4750 2381 4750 
Q 2619 4750 2861 4703 
Q 3103 4656 3366 4563 
z
" transform="scale(0.015625)"/>
       </defs>
       <use xlink:href="#DejaVuSans-31" transform="translate(0 0.765625)"/>
       <use xlink:href="#DejaVuSans-30" transform="translate(63.623047 0.765625)"/>
       <use xlink:href="#DejaVuSans-36" transform="translate(128.203125 39.046875)scale(0.7)"/>
      </g>
     </g>
    </g>
    <g id="ytick_3">
     <g id="line2d_22">
      <defs>
       <path id="mcaf489f945" d="M 0 0 
L -2 0 
" style="stroke: #000000; stroke-width: 0.6"/>
      </defs>
      <g>
       <use xlink:href="#mcaf489f945" x="90" y="315" style="stroke: #000000; stroke-width: 0.6"/>
      </g>
     </g>
    </g>
    <g id="ytick_4">
     <g id="line2d_23">
      <g>
       <use xlink:href="#mcaf489f945" x="90" y="298.020826" style="stroke: #000000; stroke-width: 0.6"/>
      </g>
     </g>
    </g>
    <g id="ytick_5">
     <g id="line2d_24">
      <g>
       <use xlink:href="#mcaf489f945" x="90" y="284.850755" style="stroke: #000000; stroke-width: 0.6"/>
      </g>
     </g>
    </g>
    <g id="ytick_6">
     <g id="line2d_25">
      <g>
       <use xlink:href="#mcaf489f945" x="90" y="274.090024" style="stroke: #000000; stroke-width: 0.6"/>
      </g>
     </g>
    </g>
    <g id="ytick_7">
     <g id="line2d_26">
      <g>
       <use xlink:href="#mcaf489f945" x="90" y="264.991955" style="stroke: #000000; stroke-width: 0.6"/>
      </g>
     </g>
    </g>
    <g id="ytick_8">
     <g id="line2d_27">
      <g>
       <use xlink:href="#mcaf489f945" x="90" y="257.110849" style="stroke: #000000; stroke-width: 0.6"/>
      </g>
     </g>
    </g>
    <g id="ytick_9">
     <g id="line2d_28">
      <g>
       <use xlink:href="#mcaf489f945" x="90" y="250.159221" style="stroke: #000000; stroke-width: 0.6"/>
      </g>
     </g>
    </g>
    <g id="ytick_10">
     <g id="line2d_29">
      <g>
       <use xlink:href="#mcaf489f945" x="90" y="203.030802" style="stroke: #000000; stroke-width: 0.6"/>
      </g>
     </g>
    </g>
    <g id="ytick_11">
     <g id="line2d_30">
      <g>
       <use xlink:href="#mcaf489f945" x="90" y="179.1" style="stroke: #000000; stroke-width: 0.6"/>
      </g>
     </g>
    </g>
    <g id="ytick_12">
     <g id="line2d_31">
      <g>
       <use xlink:href="#mcaf489f945" x="90" y="162.120826" style="stroke: #000000; stroke-width: 0.6"/>
      </g>
     </g>
    </g>
    <g id="ytick_13">
     <g id="line2d_32">
      <g>
       <use xlink:href="#mcaf489f945" x="90" y="148.950755" style="stroke: #000000; stroke-width: 0.6"/>
      </g>
     </g>
    </g>
    <g id="ytick_14">
     <g id="line2d_33">
      <g>
       <use xlink:href="#mcaf489f945" x="90" y="138.190024" style="stroke: #000000; stroke-width: 0.6"/>
      </g>
     </g>
    </g>
    <g id="ytick_15">
     <g id="line2d_34">
      <g>
       <use xlink:href="#mcaf489f945" x="90" y="129.091955" style="stroke: #000000; stroke-width: 0.6"/>
      </g>
     </g>
    </g>
    <g id="ytick_16">
     <g id="line2d_35">
      <g>
       <use xlink:href="#mcaf489f945" x="90" y="121.210849" style="stroke: #000000; stroke-width: 0.6"/>
      </g>
     </g>
    </g>
    <g id="ytick_17">
     <g id="line2d_36">
      <g>
       <use xlink:href="#mcaf489f945" x="90" y="114.259221" style="stroke: #000000; stroke-width: 0.6"/>
      </g>
     </g>
    </g>
    <g id="ytick_18">
     <g id="line2d_37">
      <g>
       <use xlink:href="#mcaf489f945" x="90" y="67.130802" style="stroke: #000000; stroke-width: 0.6"/>
      </g>
     </g>
    </g>
    <g id="ytick_19">
     <g id="line2d_38">
      <g>
       <use xlink:href="#mcaf489f945" x="90" y="43.2" style="stroke: #000000; stroke-width: 0.6"/>
      </g>
     </g>
    </g>
    <g id="text_7">
     <!-- Number of pip-installs per month -->
     <g transform="translate(59.320312 262.00625)rotate(-90)scale(0.1 -0.1)">
      <defs>
       <path id="DejaVuSans-4e" d="M 628 4666 
L 1478 4666 
L 3547 763 
L 3547 4666 
L 4159 4666 
L 4159 0 
L 3309 0 
L 1241 3903 
L 1241 0 
L 628 0 
L 628 4666 
z
" transform="scale(0.015625)"/>
       <path id="DejaVuSans-75" d="M 544 1381 
L 544 3500 
L 1119 3500 
L 1119 1403 
Q 1119 906 1312 657 
Q 1506 409 1894 409 
Q 2359 409 2629 706 
Q 2900 1003 2900 1516 
L 2900 3500 
L 3475 3500 
L 3475 0 
L 2900 0 
L 2900 538 
Q 2691 219 2414 64 
Q 2138 -91 1772 -91 
Q 1169 -91 856 284 
Q 544 659 544 1381 
z
M 1991 3584 
L 1991 3584 
z
" transform="scale(0.015625)"/>
       <path id="DejaVuSans-6d" d="M 3328 2828 
Q 3544 3216 3844 3400 
Q 4144 3584 4550 3584 
Q 5097 3584 5394 3201 
Q 5691 2819 5691 2113 
L 5691 0 
L 5113 0 
L 5113 2094 
Q 5113 2597 4934 2840 
Q 4756 3084 4391 3084 
Q 3944 3084 3684 2787 
Q 3425 2491 3425 1978 
L 3425 0 
L 2847 0 
L 2847 2094 
Q 2847 2600 2669 2842 
Q 2491 3084 2119 3084 
Q 1678 3084 1418 2786 
Q 1159 2488 1159 1978 
L 1159 0 
L 581 0 
L 581 3500 
L 1159 3500 
L 1159 2956 
Q 1356 3278 1631 3431 
Q 1906 3584 2284 3584 
Q 2666 3584 2933 3390 
Q 3200 3197 3328 2828 
z
" transform="scale(0.015625)"/>
       <path id="DejaVuSans-62" d="M 3116 1747 
Q 3116 2381 2855 2742 
Q 2594 3103 2138 3103 
Q 1681 3103 1420 2742 
Q 1159 2381 1159 1747 
Q 1159 1113 1420 752 
Q 1681 391 2138 391 
Q 2594 391 2855 752 
Q 3116 1113 3116 1747 
z
M 1159 2969 
Q 1341 3281 1617 3432 
Q 1894 3584 2278 3584 
Q 2916 3584 3314 3078 
Q 3713 2572 3713 1747 
Q 3713 922 3314 415 
Q 2916 -91 2278 -91 
Q 1894 -91 1617 61 
Q 1341 213 1159 525 
L 1159 0 
L 581 0 
L 581 4863 
L 1159 4863 
L 1159 2969 
z
" transform="scale(0.015625)"/>
       <path id="DejaVuSans-65" d="M 3597 1894 
L 3597 1613 
L 953 1613 
Q 991 1019 1311 708 
Q 1631 397 2203 397 
Q 2534 397 2845 478 
Q 3156 559 3463 722 
L 3463 178 
Q 3153 47 2828 -22 
Q 2503 -91 2169 -91 
Q 1331 -91 842 396 
Q 353 884 353 1716 
Q 353 2575 817 3079 
Q 1281 3584 2069 3584 
Q 2775 3584 3186 3129 
Q 3597 2675 3597 1894 
z
M 3022 2063 
Q 3016 2534 2758 2815 
Q 2500 3097 2075 3097 
Q 1594 3097 1305 2825 
Q 1016 2553 972 2059 
L 3022 2063 
z
" transform="scale(0.015625)"/>
       <path id="DejaVuSans-72" d="M 2631 2963 
Q 2534 3019 2420 3045 
Q 2306 3072 2169 3072 
Q 1681 3072 1420 2755 
Q 1159 2438 1159 1844 
L 1159 0 
L 581 0 
L 581 3500 
L 1159 3500 
L 1159 2956 
Q 1341 3275 1631 3429 
Q 1922 3584 2338 3584 
Q 2397 3584 2469 3576 
Q 2541 3569 2628 3553 
L 2631 2963 
z
" transform="scale(0.015625)"/>
       <path id="DejaVuSans-20" transform="scale(0.015625)"/>
       <path id="DejaVuSans-6f" d="M 1959 3097 
Q 1497 3097 1228 2736 
Q 959 2375 959 1747 
Q 959 1119 1226 758 
Q 1494 397 1959 397 
Q 2419 397 2687 759 
Q 2956 1122 2956 1747 
Q 2956 2369 2687 2733 
Q 2419 3097 1959 3097 
z
M 1959 3584 
Q 2709 3584 3137 3096 
Q 3566 2609 3566 1747 
Q 3566 888 3137 398 
Q 2709 -91 1959 -91 
Q 1206 -91 779 398 
Q 353 888 353 1747 
Q 353 2609 779 3096 
Q 1206 3584 1959 3584 
z
" transform="scale(0.015625)"/>
       <path id="DejaVuSans-66" d="M 2375 4863 
L 2375 4384 
L 1825 4384 
Q 1516 4384 1395 4259 
Q 1275 4134 1275 3809 
L 1275 3500 
L 2222 3500 
L 2222 3053 
L 1275 3053 
L 1275 0 
L 697 0 
L 697 3053 
L 147 3053 
L 147 3500 
L 697 3500 
L 697 3744 
Q 697 4328 969 4595 
Q 1241 4863 1831 4863 
L 2375 4863 
z
" transform="scale(0.015625)"/>
       <path id="DejaVuSans-70" d="M 1159 525 
L 1159 -1331 
L 581 -1331 
L 581 3500 
L 1159 3500 
L 1159 2969 
Q 1341 3281 1617 3432 
Q 1894 3584 2278 3584 
Q 2916 3584 3314 3078 
Q 3713 2572 3713 1747 
Q 3713 922 3314 415 
Q 2916 -91 2278 -91 
Q 1894 -91 1617 61 
Q 1341 213 1159 525 
z
M 3116 1747 
Q 3116 2381 2855 2742 
Q 2594 3103 2138 3103 
Q 1681 3103 1420 2742 
Q 1159 2381 1159 1747 
Q 1159 1113 1420 752 
Q 1681 391 2138 391 
Q 2594 391 2855 752 
Q 3116 1113 3116 1747 
z
" transform="scale(0.015625)"/>
       <path id="DejaVuSans-69" d="M 603 3500 
L 1178 3500 
L 1178 0 
L 603 0 
L 603 3500 
z
M 603 4863 
L 1178 4863 
L 1178 4134 
L 603 4134 
L 603 4863 
z
" transform="scale(0.015625)"/>
       <path id="DejaVuSans-2d" d="M 313 2009 
L 1997 2009 
L 1997 1497 
L 313 1497 
L 313 2009 
z
" transform="scale(0.015625)"/>
       <path id="DejaVuSans-6e" d="M 3513 2113 
L 3513 0 
L 2938 0 
L 2938 2094 
Q 2938 2591 2744 2837 
Q 2550 3084 2163 3084 
Q 1697 3084 1428 2787 
Q 1159 2491 1159 1978 
L 1159 0 
L 581 0 
L 581 3500 
L 1159 3500 
L 1159 2956 
Q 1366 3272 1645 3428 
Q 1925 3584 2291 3584 
Q 2894 3584 3203 3211 
Q 3513 2838 3513 2113 
z
" transform="scale(0.015625)"/>
       <path id="DejaVuSans-73" d="M 2834 3397 
L 2834 2853 
Q 2591 2978 2328 3040 
Q 2066 3103 1784 3103 
Q 1356 3103 1142 2972 
Q 928 2841 928 2578 
Q 928 2378 1081 2264 
Q 1234 2150 1697 2047 
L 1894 2003 
Q 2506 1872 2764 1633 
Q 3022 1394 3022 966 
Q 3022 478 2636 193 
Q 2250 -91 1575 -91 
Q 1294 -91 989 -36 
Q 684 19 347 128 
L 347 722 
Q 666 556 975 473 
Q 1284 391 1588 391 
Q 1994 391 2212 530 
Q 2431 669 2431 922 
Q 2431 1156 2273 1281 
Q 2116 1406 1581 1522 
L 1381 1569 
Q 847 1681 609 1914 
Q 372 2147 372 2553 
Q 372 3047 722 3315 
Q 1072 3584 1716 3584 
Q 2034 3584 2315 3537 
Q 2597 3491 2834 3397 
z
" transform="scale(0.015625)"/>
       <path id="DejaVuSans-74" d="M 1172 4494 
L 1172 3500 
L 2356 3500 
L 2356 3053 
L 1172 3053 
L 1172 1153 
Q 1172 725 1289 603 
Q 1406 481 1766 481 
L 2356 481 
L 2356 0 
L 1766 0 
Q 1100 0 847 248 
Q 594 497 594 1153 
L 594 3053 
L 172 3053 
L 172 3500 
L 594 3500 
L 594 4494 
L 1172 4494 
z
" transform="scale(0.015625)"/>
       <path id="DejaVuSans-61" d="M 2194 1759 
Q 1497 1759 1228 1600 
Q 959 1441 959 1056 
Q 959 750 1161 570 
Q 1363 391 1709 391 
Q 2188 391 2477 730 
Q 2766 1069 2766 1631 
L 2766 1759 
L 2194 1759 
z
M 3341 1997 
L 3341 0 
L 2766 0 
L 2766 531 
Q 2569 213 2275 61 
Q 1981 -91 1556 -91 
Q 1019 -91 701 211 
Q 384 513 384 1019 
Q 384 1609 779 1909 
Q 1175 2209 1959 2209 
L 2766 2209 
L 2766 2266 
Q 2766 2663 2505 2880 
Q 2244 3097 1772 3097 
Q 1472 3097 1187 3025 
Q 903 2953 641 2809 
L 641 3341 
Q 956 3463 1253 3523 
Q 1550 3584 1831 3584 
Q 2591 3584 2966 3190 
Q 3341 2797 3341 1997 
z
" transform="scale(0.015625)"/>
       <path id="DejaVuSans-6c" d="M 603 4863 
L 1178 4863 
L 1178 0 
L 603 0 
L 603 4863 
z
" transform="scale(0.015625)"/>
       <path id="DejaVuSans-68" d="M 3513 2113 
L 3513 0 
L 2938 0 
L 2938 2094 
Q 2938 2591 2744 2837 
Q 2550 3084 2163 3084 
Q 1697 3084 1428 2787 
Q 1159 2491 1159 1978 
L 1159 0 
L 581 0 
L 581 4863 
L 1159 4863 
L 1159 2956 
Q 1366 3272 1645 3428 
Q 1925 3584 2291 3584 
Q 2894 3584 3203 3211 
Q 3513 2838 3513 2113 
z
" transform="scale(0.015625)"/>
      </defs>
      <use xlink:href="#DejaVuSans-4e"/>
      <use xlink:href="#DejaVuSans-75" x="74.804688"/>
      <use xlink:href="#DejaVuSans-6d" x="138.183594"/>
      <use xlink:href="#DejaVuSans-62" x="235.595703"/>
      <use xlink:href="#DejaVuSans-65" x="299.072266"/>
      <use xlink:href="#DejaVuSans-72" x="360.595703"/>
      <use xlink:href="#DejaVuSans-20" x="401.708984"/>
      <use xlink:href="#DejaVuSans-6f" x="433.496094"/>
      <use xlink:href="#DejaVuSans-66" x="494.677734"/>
      <use xlink:href="#DejaVuSans-20" x="529.882812"/>
      <use xlink:href="#DejaVuSans-70" x="561.669922"/>
      <use xlink:href="#DejaVuSans-69" x="625.146484"/>
      <use xlink:href="#DejaVuSans-70" x="652.929688"/>
      <use xlink:href="#DejaVuSans-2d" x="716.40625"/>
      <use xlink:href="#DejaVuSans-69" x="752.490234"/>
      <use xlink:href="#DejaVuSans-6e" x="780.273438"/>
      <use xlink:href="#DejaVuSans-73" x="843.652344"/>
      <use xlink:href="#DejaVuSans-74" x="895.751953"/>
      <use xlink:href="#DejaVuSans-61" x="934.960938"/>
      <use xlink:href="#DejaVuSans-6c" x="996.240234"/>
      <use xlink:href="#DejaVuSans-6c" x="1024.023438"/>
      <use xlink:href="#DejaVuSans-73" x="1051.806641"/>
      <use xlink:href="#DejaVuSans-20" x="1103.90625"/>
      <use xlink:href="#DejaVuSans-70" x="1135.693359"/>
      <use xlink:href="#DejaVuSans-65" x="1199.169922"/>
      <use xlink:href="#DejaVuSans-72" x="1260.693359"/>
      <use xlink:href="#DejaVuSans-20" x="1301.806641"/>
      <use xlink:href="#DejaVuSans-6d" x="1333.59375"/>
      <use xlink:href="#DejaVuSans-6f" x="1431.005859"/>
      <use xlink:href="#DejaVuSans-6e" x="1492.1875"/>
      <use xlink:href="#DejaVuSans-74" x="1555.566406"/>
      <use xlink:href="#DejaVuSans-68" x="1594.775391"/>
     </g>
    </g>
   </g>
   <g id="line2d_39">
    <path d="M 432.03911 361 
L 434.751592 314.36048 
L 438.305732 280.781979 
L 441.859873 255.566209 
L 445.414013 237.362113 
L 448.968153 223.474394 
L 452.522293 214.176895 
L 456.076433 209.512198 
L 459.630573 208.09302 
L 463.184713 207.874676 
L 466.738854 207.071616 
L 477.401274 201.959233 
L 480.955414 198.897745 
L 484.509554 194.533661 
L 488.063694 191.579689 
L 498.726115 183.406971 
L 502.280255 179.905662 
L 505.834395 179.487989 
L 509.388535 176.465929 
L 512.942675 174.498387 
L 516.496815 173.882427 
L 520.050955 173.136634 
L 523.605096 173.356246 
L 527.159236 171.581388 
L 530.713376 172.884951 
L 534.267516 172.417331 
L 537.821656 172.348214 
L 541.375796 171.651548 
L 544.929936 169.78113 
L 548.484076 169.313121 
L 552.038217 166.334938 
L 555.592357 166.060443 
L 559.146497 164.102741 
L 562.700637 164.329595 
L 566.254777 164.206059 
L 569.808917 163.361879 
L 573.363057 164.49398 
L 576.917197 163.898953 
L 580.471338 165.60597 
L 584.025478 164.762503 
L 587.579618 166.727641 
L 591.133758 169.896154 
L 594.687898 169.905553 
L 598.242038 171.220497 
L 601.796178 171.079991 
L 605.350318 172.005439 
L 608.904459 170.575977 
L 612.458599 168.762314 
L 616.012739 168.226827 
L 619.566879 166.905572 
L 623.121019 166.559205 
L 626.675159 165.504758 
L 630.229299 165.99024 
L 633.783439 165.20203 
L 637.33758 165.554235 
L 640.89172 165.159734 
L 644.44586 163.618478 
L 648 163.822235 
L 651.55414 162.53785 
L 655.10828 162.769945 
L 658.66242 162.21999 
L 662.216561 169.842959 
L 662.216561 169.842959 
" clip-path="url(#p73c230ba4f)" style="fill: none; stroke: #1f77b4; stroke-width: 1.5; stroke-linecap: square"/>
   </g>
   <g id="line2d_40">
    <path d="M 306.592958 361 
L 306.802548 356.09454 
L 310.356688 315.857406 
L 313.910828 291.850135 
L 317.464968 274.08445 
L 321.019108 259.607863 
L 324.573248 249.907718 
L 328.127389 246.628972 
L 331.681529 246.566513 
L 335.235669 241.824435 
L 338.789809 238.603627 
L 342.343949 235.218346 
L 345.898089 229.997432 
L 349.452229 225.04787 
L 353.006369 218.533668 
L 356.56051 216.215322 
L 360.11465 211.111171 
L 363.66879 206.823225 
L 367.22293 204.190515 
L 370.77707 199.689069 
L 374.33121 196.716484 
L 377.88535 192.391639 
L 381.43949 191.1769 
L 384.993631 189.680208 
L 388.547771 186.989163 
L 392.101911 186.385521 
L 395.656051 185.980293 
L 399.210191 187.098627 
L 402.764331 185.01012 
L 409.872611 182.00658 
L 413.426752 180.954504 
L 416.980892 178.752769 
L 420.535032 174.846659 
L 424.089172 171.798899 
L 427.643312 167.257257 
L 431.197452 166.763147 
L 434.751592 165.271405 
L 438.305732 164.171523 
L 441.859873 162.693463 
L 445.414013 163.507824 
L 448.968153 166.558569 
L 452.522293 165.502258 
L 456.076433 166.434675 
L 459.630573 169.340628 
L 463.184713 173.365885 
L 466.738854 175.014302 
L 470.292994 174.771014 
L 473.847134 176.141296 
L 477.401274 176.217314 
L 480.955414 175.323059 
L 484.509554 173.637444 
L 488.063694 173.465345 
L 491.617834 173.85146 
L 495.171975 173.63296 
L 498.726115 173.154627 
L 502.280255 171.26533 
L 505.834395 172.883623 
L 509.388535 171.149213 
L 512.942675 171.218173 
L 516.496815 172.085771 
L 520.050955 172.457779 
L 523.605096 173.538738 
L 527.159236 172.208531 
L 530.713376 175.179631 
L 534.267516 175.424243 
L 541.375796 178.455972 
L 544.929936 178.134461 
L 548.484076 179.76675 
L 552.038217 177.57111 
L 555.592357 178.791181 
L 559.146497 177.24112 
L 562.700637 175.905254 
L 566.254777 174.707213 
L 569.808917 171.174953 
L 573.363057 170.443677 
L 576.917197 167.62136 
L 580.471338 167.630269 
L 584.025478 166.798994 
L 587.579618 168.860149 
L 591.133758 173.705574 
L 594.687898 173.517912 
L 598.242038 175.312818 
L 601.796178 174.684329 
L 605.350318 175.351116 
L 608.904459 172.504061 
L 612.458599 169.223074 
L 616.012739 168.845403 
L 619.566879 166.46262 
L 623.121019 165.985802 
L 626.675159 163.272765 
L 630.229299 165.025408 
L 633.783439 164.78501 
L 637.33758 166.567451 
L 640.89172 167.56195 
L 644.44586 167.658003 
L 648 170.968923 
L 651.55414 169.726415 
L 655.10828 170.447302 
L 658.66242 168.8416 
L 662.216561 175.78306 
L 662.216561 175.78306 
" clip-path="url(#p73c230ba4f)" style="fill: none; stroke-dasharray: 1.5,2.475; stroke-dashoffset: 0; stroke: #ff7f0e; stroke-width: 1.5"/>
   </g>
   <g id="line2d_41">
    <path d="M 146.166105 361 
L 146.866242 349.67029 
L 150.420382 314.921686 
L 153.974522 292.132343 
L 157.528662 276.410626 
L 161.082803 263.176474 
L 164.636943 251.74953 
L 168.191083 245.944926 
L 175.299363 239.795571 
L 178.853503 235.142028 
L 185.961783 227.469368 
L 189.515924 225.915639 
L 193.070064 224.05381 
L 196.624204 223.010216 
L 200.178344 226.56492 
L 203.732484 227.676749 
L 207.286624 226.763186 
L 214.394904 221.72487 
L 217.949045 218.145886 
L 221.503185 210.377082 
L 225.057325 205.51104 
L 228.611465 201.959233 
L 232.165605 200.552425 
L 235.719745 197.698459 
L 239.273885 197.062338 
L 242.828025 199.237931 
L 246.382166 197.697515 
L 249.936306 197.633204 
L 253.490446 194.05461 
L 257.044586 192.733021 
L 260.598726 189.703435 
L 264.152866 186.824936 
L 267.707006 186.604056 
L 271.261146 185.270335 
L 274.815287 186.276037 
L 278.369427 185.024836 
L 281.923567 186.340687 
L 285.477707 184.105977 
L 289.031847 182.112764 
L 292.585987 179.00872 
L 296.140127 174.988087 
L 299.694268 174.619467 
L 303.248408 170.532175 
L 306.802548 168.618802 
L 310.356688 167.62271 
L 313.910828 167.178248 
L 317.464968 168.181109 
L 321.019108 168.005654 
L 324.573248 170.708603 
L 328.127389 173.710302 
L 331.681529 177.957795 
L 335.235669 178.272199 
L 338.789809 180.311083 
L 342.343949 182.004203 
L 345.898089 181.410679 
L 349.452229 181.414907 
L 353.006369 178.477187 
L 356.56051 181.56439 
L 360.11465 178.308002 
L 363.66879 174.432214 
L 367.22293 172.616619 
L 370.77707 168.023915 
L 374.33121 165.512337 
L 377.88535 160.903887 
L 381.43949 161.162045 
L 384.993631 161.187771 
L 388.547771 159.601951 
L 392.101911 158.512619 
L 395.656051 154.856236 
L 399.210191 154.715504 
L 402.764331 154.367829 
L 406.318471 155.405798 
L 409.872611 156.735932 
L 413.426752 160.758874 
L 416.980892 166.634549 
L 420.535032 169.862414 
L 424.089172 170.80861 
L 427.643312 170.345417 
L 431.197452 172.300243 
L 434.751592 171.320801 
L 438.305732 170.022311 
L 441.859873 168.078407 
L 445.414013 168.044085 
L 448.968153 169.227263 
L 452.522293 167.091505 
L 456.076433 167.375956 
L 459.630573 170.363144 
L 463.184713 174.054062 
L 466.738854 174.293591 
L 470.292994 172.567343 
L 473.847134 173.086478 
L 477.401274 173.307627 
L 480.955414 172.04773 
L 484.509554 170.385573 
L 488.063694 171.039045 
L 491.617834 172.270912 
L 495.171975 172.950386 
L 498.726115 173.490684 
L 502.280255 172.725153 
L 505.834395 175.656386 
L 509.388535 175.633471 
L 516.496815 178.404069 
L 520.050955 176.826296 
L 523.605096 178.594658 
L 527.159236 178.091543 
L 530.713376 180.919123 
L 534.267516 181.339524 
L 537.821656 182.920297 
L 541.375796 187.235912 
L 544.929936 187.622223 
L 548.484076 189.153123 
L 552.038217 187.197273 
L 555.592357 188.321151 
L 559.146497 187.782229 
L 562.700637 186.7024 
L 566.254777 185.984383 
L 569.808917 182.540152 
L 573.363057 180.683257 
L 576.917197 176.854635 
L 580.471338 176.424864 
L 584.025478 171.260707 
L 587.579618 169.412097 
L 591.133758 172.797689 
L 594.687898 174.752186 
L 598.242038 178.033969 
L 601.796178 177.859433 
L 605.350318 184.068726 
L 608.904459 186.935518 
L 612.458599 184.951653 
L 616.012739 186.140077 
L 619.566879 185.086751 
L 623.121019 186.869279 
L 626.675159 186.270742 
L 630.229299 185.555511 
L 633.783439 184.349933 
L 637.33758 183.671712 
L 640.89172 184.291544 
L 644.44586 181.321647 
L 648 181.171622 
L 651.55414 182.627735 
L 655.10828 185.778148 
L 658.66242 187.167605 
L 662.216561 194.866194 
L 662.216561 194.866194 
" clip-path="url(#p73c230ba4f)" style="fill: none; stroke-dasharray: 5.55,2.4; stroke-dashoffset: 0; stroke: #2ca02c; stroke-width: 1.5"/>
   </g>
   <g id="line2d_42">
    <path d="M 107.770701 264.042238 
L 111.324841 263.292689 
L 114.878981 262.93577 
L 118.433121 261.712587 
L 121.987261 263.746091 
L 125.541401 264.745707 
L 129.095541 267.186069 
L 132.649682 268.067411 
L 136.203822 270.587577 
L 139.757962 276.703453 
L 143.312102 284.21636 
L 146.866242 273.247158 
L 150.420382 263.869363 
L 153.974522 250.988688 
L 157.528662 241.463675 
L 161.082803 230.535802 
L 164.636943 221.095917 
L 168.191083 218.511543 
L 171.745223 216.78517 
L 175.299363 217.425441 
L 178.853503 214.43839 
L 182.407643 212.872108 
L 185.961783 210.136657 
L 189.515924 210.064969 
L 193.070064 210.13122 
L 196.624204 210.548618 
L 200.178344 216.638506 
L 203.732484 220.118346 
L 207.286624 222.286123 
L 210.840764 222.123521 
L 217.949045 220.772111 
L 221.503185 215.399659 
L 225.057325 213.947554 
L 228.611465 213.914247 
L 232.165605 215.691382 
L 235.719745 216.584522 
L 239.273885 218.195976 
L 242.828025 223.230178 
L 246.382166 224.263746 
L 249.936306 226.809012 
L 253.490446 226.034262 
L 257.044586 227.823144 
L 260.598726 226.872845 
L 264.152866 224.865455 
L 267.707006 225.975973 
L 271.261146 225.695999 
L 274.815287 227.995125 
L 278.369427 226.789589 
L 281.923567 228.883735 
L 285.477707 228.22524 
L 289.031847 228.385775 
L 292.585987 228.012396 
L 296.140127 225.789225 
L 299.694268 228.251023 
L 303.248408 226.011898 
L 306.802548 224.654222 
L 310.356688 222.392203 
L 313.910828 220.533972 
L 317.464968 219.769466 
L 321.019108 216.920312 
L 324.573248 217.768273 
L 328.127389 219.671645 
L 331.681529 223.63184 
L 335.235669 223.536111 
L 342.343949 227.352431 
L 345.898089 226.063756 
L 349.452229 225.05087 
L 353.006369 220.801082 
L 356.56051 223.262252 
L 360.11465 220.844964 
L 363.66879 219.486952 
L 367.22293 219.606477 
L 370.77707 218.116284 
L 374.33121 219.384471 
L 377.88535 217.314946 
L 381.43949 219.273877 
L 384.993631 219.901544 
L 388.547771 219.214064 
L 392.101911 220.35448 
L 395.656051 219.75843 
L 399.210191 221.711977 
L 402.764331 219.909596 
L 406.318471 219.266365 
L 409.872611 218.464634 
L 416.980892 219.307241 
L 420.535032 217.573321 
L 424.089172 218.045705 
L 427.643312 216.862214 
L 431.197452 218.591643 
L 434.751592 215.061531 
L 438.305732 211.919768 
L 441.859873 210.171562 
L 445.414013 209.365762 
L 448.968153 210.116799 
L 452.522293 206.354892 
L 456.076433 206.988615 
L 459.630573 210.551635 
L 463.184713 213.656413 
L 466.738854 214.791323 
L 470.292994 212.756238 
L 473.847134 216.958785 
L 477.401274 220.033065 
L 480.955414 220.693443 
L 484.509554 219.539365 
L 488.063694 220.289345 
L 491.617834 223.984184 
L 495.171975 224.386649 
L 498.726115 225.051299 
L 502.280255 223.846367 
L 505.834395 227.14426 
L 509.388535 226.977321 
L 516.496815 228.737197 
L 520.050955 229.082311 
L 523.605096 232.010721 
L 527.159236 231.753632 
L 530.713376 234.530559 
L 534.267516 235.389915 
L 537.821656 237.562812 
L 541.375796 240.166083 
L 544.929936 240.712557 
L 548.484076 243.612652 
L 552.038217 244.172199 
L 555.592357 246.654509 
L 559.146497 246.312218 
L 562.700637 245.491476 
L 566.254777 244.83639 
L 569.808917 242.455101 
L 573.363057 243.508563 
L 576.917197 242.087522 
L 580.471338 242.668242 
L 584.025478 242.151044 
L 587.579618 244.045338 
L 591.133758 248.377196 
L 594.687898 248.722432 
L 598.242038 251.472171 
L 601.796178 252.082825 
L 605.350318 255.304346 
L 608.904459 255.020729 
L 612.458599 252.039029 
L 616.012739 251.542172 
L 619.566879 250.528928 
L 623.121019 251.590976 
L 626.675159 250.785749 
L 630.229299 252.837635 
L 633.783439 255.337865 
L 637.33758 258.388355 
L 640.89172 261.25918 
L 644.44586 263.325194 
L 648 267.526142 
L 651.55414 268.544101 
L 655.10828 271.672343 
L 658.66242 273.148328 
L 662.216561 281.868728 
L 662.216561 281.868728 
" clip-path="url(#p73c230ba4f)" style="fill: none; stroke: #d62728; stroke-width: 1.5; stroke-linecap: square"/>
   </g>
   <g id="line2d_43">
    <path d="M 107.770701 345.434105 
L 111.324841 347.417577 
L 114.878981 350.833944 
L 118.433121 352.410929 
L 121.987261 350.373606 
L 125.541401 276.510977 
L 129.095541 256.848913 
L 132.649682 234.160427 
L 136.203822 214.319288 
L 139.757962 208.58 
L 143.312102 201.219409 
L 146.866242 189.789281 
L 150.420382 177.131194 
L 153.974522 170.28467 
L 157.528662 159.782354 
L 161.082803 149.73342 
L 164.636943 139.250137 
L 168.191083 134.363677 
L 171.745223 128.282859 
L 175.299363 120.278593 
L 178.853503 122.852959 
L 182.407643 126.7636 
L 189.515924 139.312998 
L 193.070064 152.574139 
L 196.624204 173.583635 
L 200.178344 181.297614 
L 203.732484 185.816163 
L 207.286624 193.364662 
L 210.840764 209.183812 
L 214.394904 218.160311 
L 217.949045 207.251016 
L 221.503185 185.080545 
L 225.057325 169.936988 
L 228.611465 155.978229 
L 232.165605 149.191123 
L 235.719745 147.128202 
L 239.273885 153.410104 
L 242.828025 171.561155 
L 246.382166 191.4146 
L 249.936306 225.607175 
L 253.490446 262.132675 
L 257.044586 283.757455 
L 260.598726 300.550943 
L 264.152866 297.94685 
L 267.707006 299.833507 
L 271.261146 298.281336 
L 274.815287 299.495428 
L 278.369427 297.508348 
L 281.923567 298.280348 
L 285.477707 297.995993 
L 289.031847 297.910757 
L 292.585987 298.964295 
L 296.140127 298.957549 
L 299.694268 298.226526 
L 303.248408 289.465494 
L 306.802548 288.910533 
L 310.356688 255.494742 
L 313.910828 238.329107 
L 317.464968 227.062099 
L 321.019108 212.406238 
L 324.573248 207.092951 
L 328.127389 202.712214 
L 331.681529 213.00422 
L 338.789809 226.836687 
L 342.343949 242.930677 
L 345.898089 250.66271 
L 349.452229 249.531488 
L 353.006369 246.150544 
L 360.11465 253.481386 
L 363.66879 253.067282 
L 367.22293 259.972384 
L 370.77707 275.184615 
L 374.33121 285.988352 
L 377.88535 290.050642 
L 381.43949 291.180787 
L 384.993631 301.196184 
L 388.547771 300.578158 
L 392.101911 285.150355 
L 395.656051 265.790457 
L 399.210191 255.18795 
L 402.764331 250.136383 
L 406.318471 249.408552 
L 409.872611 245.971289 
L 413.426752 239.256574 
L 416.980892 238.649115 
L 420.535032 233.436606 
L 424.089172 236.961527 
L 427.643312 237.442857 
L 431.197452 242.342308 
L 434.751592 256.824312 
L 438.305732 267.119745 
L 441.859873 260.178349 
L 445.414013 241.746192 
L 448.968153 226.296952 
L 452.522293 216.289963 
L 456.076433 204.168549 
L 459.630573 193.508135 
L 463.184713 193.817671 
L 466.738854 192.646665 
L 470.292994 190.197122 
L 473.847134 182.087545 
L 477.401274 181.263217 
L 480.955414 181.184936 
L 484.509554 178.372709 
L 488.063694 175.91712 
L 491.617834 175.983208 
L 495.171975 180.572653 
L 498.726115 180.658036 
L 502.280255 181.694376 
L 505.834395 183.487091 
L 509.388535 183.83758 
L 512.942675 186.107761 
L 516.496815 185.905732 
L 520.050955 186.998121 
L 523.605096 187.661596 
L 527.159236 189.394856 
L 530.713376 196.24177 
L 534.267516 196.8006 
L 537.821656 197.98512 
L 541.375796 198.355321 
L 544.929936 200.894438 
L 548.484076 203.617273 
L 552.038217 205.39021 
L 555.592357 207.888719 
L 559.146497 210.711858 
L 562.700637 214.042017 
L 566.254777 219.87445 
L 569.808917 218.934318 
L 573.363057 216.461137 
L 576.917197 216.733036 
L 580.471338 214.533463 
L 584.025478 210.959087 
L 587.579618 204.147845 
L 591.133758 199.599299 
L 594.687898 196.371327 
L 598.242038 196.935738 
L 601.796178 195.412523 
L 605.350318 198.446495 
L 608.904459 207.606358 
L 616.012739 232.382452 
L 619.566879 241.751121 
L 623.121019 265.711029 
L 626.675159 288.527591 
L 630.229299 290.950184 
L 633.783439 292.851822 
L 640.89172 294.047109 
L 644.44586 294.345361 
L 648 295.225575 
L 651.55414 297.297843 
L 658.66242 301.940204 
L 662.216561 311.62469 
L 662.216561 311.62469 
" clip-path="url(#p73c230ba4f)" style="fill: none; stroke-dasharray: 5.55,2.4; stroke-dashoffset: 0; stroke: #9467bd; stroke-width: 1.5"/>
   </g>
   <g id="line2d_44">
    <path d="M 107.770701 268.625046 
L 111.324841 271.728077 
L 114.878981 285.903975 
L 118.433121 289.475706 
L 121.987261 294.705776 
L 125.541401 297.742855 
L 129.095541 301.347413 
L 132.649682 305.360867 
L 139.757962 324.865329 
L 143.312102 333.276927 
L 146.866242 318.770294 
L 150.420382 305.880856 
L 153.974522 288.801678 
L 157.528662 270.1495 
L 161.082803 257.07766 
L 164.636943 246.374407 
L 168.191083 244.159461 
L 171.745223 242.193239 
L 175.299363 242.426523 
L 178.853503 245.351573 
L 182.407643 247.799953 
L 185.961783 248.515856 
L 193.070064 249.291363 
L 196.624204 249.197844 
L 200.178344 252.832717 
L 207.286624 254.245278 
L 210.840764 252.913741 
L 214.394904 253.526845 
L 217.949045 253.997478 
L 221.503185 250.015343 
L 225.057325 249.323036 
L 228.611465 248.142241 
L 232.165605 249.572704 
L 235.719745 248.602338 
L 239.273885 249.221829 
L 242.828025 254.505651 
L 246.382166 256.025565 
L 249.936306 259.951479 
L 253.490446 260.454741 
L 257.044586 263.887979 
L 260.598726 264.943072 
L 264.152866 262.835427 
L 267.707006 264.149643 
L 271.261146 262.418127 
L 274.815287 262.511968 
L 278.369427 259.952769 
L 281.923567 259.083635 
L 285.477707 252.546478 
L 289.031847 246.494259 
L 292.585987 247.119095 
L 296.140127 246.811065 
L 299.694268 249.27661 
L 303.248408 249.297933 
L 306.802548 255.026782 
L 310.356688 260.290619 
L 313.910828 259.653289 
L 317.464968 259.515066 
L 321.019108 257.58231 
L 324.573248 258.342134 
L 328.127389 258.867007 
L 331.681529 262.546068 
L 335.235669 262.95871 
L 338.789809 262.505501 
L 342.343949 261.482005 
L 345.898089 254.820379 
L 349.452229 253.863376 
L 353.006369 249.087191 
L 356.56051 249.936239 
L 360.11465 250.37164 
L 363.66879 250.48583 
L 367.22293 254.181124 
L 370.77707 250.907606 
L 374.33121 254.889139 
L 377.88535 244.767519 
L 381.43949 246.46222 
L 384.993631 248.423557 
L 388.547771 252.303088 
L 392.101911 258.259077 
L 395.656051 258.754375 
L 399.210191 275.51825 
L 402.764331 276.088031 
L 406.318471 277.983653 
L 409.872611 277.963517 
L 413.426752 277.798659 
L 416.980892 277.123944 
L 420.535032 277.018755 
L 424.089172 280.471362 
L 427.643312 281.560727 
L 431.197452 282.977007 
L 434.751592 282.246639 
L 438.305732 283.159108 
L 441.859873 282.964239 
L 445.414013 280.287704 
L 448.968153 280.990768 
L 452.522293 279.736705 
L 456.076433 282.388745 
L 459.630573 286.65233 
L 463.184713 289.088247 
L 466.738854 290.567909 
L 470.292994 288.416305 
L 473.847134 289.916724 
L 477.401274 289.371752 
L 480.955414 285.529246 
L 484.509554 280.404179 
L 488.063694 278.719727 
L 491.617834 278.812186 
L 495.171975 277.938137 
L 498.726115 277.659161 
L 502.280255 277.004285 
L 505.834395 280.866693 
L 512.942675 283.014755 
L 516.496815 285.307964 
L 520.050955 283.979967 
L 523.605096 285.866735 
L 527.159236 285.294483 
L 530.713376 287.384825 
L 534.267516 289.136672 
L 537.821656 289.777977 
L 541.375796 292.669163 
L 544.929936 291.679158 
L 548.484076 292.458414 
L 552.038217 289.821408 
L 555.592357 287.825953 
L 559.146497 285.096003 
L 562.700637 281.925055 
L 566.254777 281.840492 
L 569.808917 280.177819 
L 573.363057 280.594608 
L 576.917197 280.6457 
L 580.471338 283.013802 
L 584.025478 285.542382 
L 587.579618 287.669532 
L 591.133758 293.042507 
L 594.687898 295.041979 
L 598.242038 297.18887 
L 601.796178 296.968627 
L 605.350318 299.297326 
L 608.904459 299.809167 
L 612.458599 299.847202 
L 616.012739 302.169816 
L 619.566879 303.739443 
L 623.121019 307.036978 
L 626.675159 306.141027 
L 630.229299 307.382657 
L 633.783439 303.24247 
L 637.33758 304.18601 
L 640.89172 306.689039 
L 644.44586 308.449616 
L 648 312.590346 
L 651.55414 316.088746 
L 655.10828 324.560345 
L 658.66242 328.400454 
L 662.216561 337.679641 
L 662.216561 337.679641 
" clip-path="url(#p73c230ba4f)" style="fill: none; stroke-dasharray: 9.6,2.4,1.5,2.4; stroke-dashoffset: 0; stroke: #8c564b; stroke-width: 1.5"/>
   </g>
   <g id="patch_3">
    <path d="M 90 315 
L 90 43.2 
" style="fill: none; stroke: #000000; stroke-width: 0.8; stroke-linejoin: miter; stroke-linecap: square"/>
   </g>
   <g id="patch_4">
    <path d="M 648 315 
L 648 43.2 
" style="fill: none; stroke: #000000; stroke-width: 0.8; stroke-linejoin: miter; stroke-linecap: square"/>
   </g>
   <g id="patch_5">
    <path d="M 90 315 
L 648 315 
" style="fill: none; stroke: #000000; stroke-width: 0.8; stroke-linejoin: miter; stroke-linecap: square"/>
   </g>
   <g id="patch_6">
    <path d="M 90 43.2 
L 648 43.2 
" style="fill: none; stroke: #000000; stroke-width: 0.8; stroke-linejoin: miter; stroke-linecap: square"/>
   </g>
   <g id="text_8">
    <!-- Python version of NumPy users, MacOS and Windows (i.e. no batch jobs) -->
    <g transform="translate(150.75 37.2)scale(0.12 -0.12)">
     <defs>
      <path id="DejaVuSans-50" d="M 1259 4147 
L 1259 2394 
L 2053 2394 
Q 2494 2394 2734 2622 
Q 2975 2850 2975 3272 
Q 2975 3691 2734 3919 
Q 2494 4147 2053 4147 
L 1259 4147 
z
M 628 4666 
L 2053 4666 
Q 2838 4666 3239 4311 
Q 3641 3956 3641 3272 
Q 3641 2581 3239 2228 
Q 2838 1875 2053 1875 
L 1259 1875 
L 1259 0 
L 628 0 
L 628 4666 
z
" transform="scale(0.015625)"/>
      <path id="DejaVuSans-79" d="M 2059 -325 
Q 1816 -950 1584 -1140 
Q 1353 -1331 966 -1331 
L 506 -1331 
L 506 -850 
L 844 -850 
Q 1081 -850 1212 -737 
Q 1344 -625 1503 -206 
L 1606 56 
L 191 3500 
L 800 3500 
L 1894 763 
L 2988 3500 
L 3597 3500 
L 2059 -325 
z
" transform="scale(0.015625)"/>
      <path id="DejaVuSans-76" d="M 191 3500 
L 800 3500 
L 1894 563 
L 2988 3500 
L 3597 3500 
L 2284 0 
L 1503 0 
L 191 3500 
z
" transform="scale(0.015625)"/>
      <path id="DejaVuSans-2c" d="M 750 794 
L 1409 794 
L 1409 256 
L 897 -744 
L 494 -744 
L 750 256 
L 750 794 
z
" transform="scale(0.015625)"/>
      <path id="DejaVuSans-4d" d="M 628 4666 
L 1569 4666 
L 2759 1491 
L 3956 4666 
L 4897 4666 
L 4897 0 
L 4281 0 
L 4281 4097 
L 3078 897 
L 2444 897 
L 1241 4097 
L 1241 0 
L 628 0 
L 628 4666 
z
" transform="scale(0.015625)"/>
      <path id="DejaVuSans-63" d="M 3122 3366 
L 3122 2828 
Q 2878 2963 2633 3030 
Q 2388 3097 2138 3097 
Q 1578 3097 1268 2742 
Q 959 2388 959 1747 
Q 959 1106 1268 751 
Q 1578 397 2138 397 
Q 2388 397 2633 464 
Q 2878 531 3122 666 
L 3122 134 
Q 2881 22 2623 -34 
Q 2366 -91 2075 -91 
Q 1284 -91 818 406 
Q 353 903 353 1747 
Q 353 2603 823 3093 
Q 1294 3584 2113 3584 
Q 2378 3584 2631 3529 
Q 2884 3475 3122 3366 
z
" transform="scale(0.015625)"/>
      <path id="DejaVuSans-4f" d="M 2522 4238 
Q 1834 4238 1429 3725 
Q 1025 3213 1025 2328 
Q 1025 1447 1429 934 
Q 1834 422 2522 422 
Q 3209 422 3611 934 
Q 4013 1447 4013 2328 
Q 4013 3213 3611 3725 
Q 3209 4238 2522 4238 
z
M 2522 4750 
Q 3503 4750 4090 4092 
Q 4678 3434 4678 2328 
Q 4678 1225 4090 567 
Q 3503 -91 2522 -91 
Q 1538 -91 948 565 
Q 359 1222 359 2328 
Q 359 3434 948 4092 
Q 1538 4750 2522 4750 
z
" transform="scale(0.015625)"/>
      <path id="DejaVuSans-53" d="M 3425 4513 
L 3425 3897 
Q 3066 4069 2747 4153 
Q 2428 4238 2131 4238 
Q 1616 4238 1336 4038 
Q 1056 3838 1056 3469 
Q 1056 3159 1242 3001 
Q 1428 2844 1947 2747 
L 2328 2669 
Q 3034 2534 3370 2195 
Q 3706 1856 3706 1288 
Q 3706 609 3251 259 
Q 2797 -91 1919 -91 
Q 1588 -91 1214 -16 
Q 841 59 441 206 
L 441 856 
Q 825 641 1194 531 
Q 1563 422 1919 422 
Q 2459 422 2753 634 
Q 3047 847 3047 1241 
Q 3047 1584 2836 1778 
Q 2625 1972 2144 2069 
L 1759 2144 
Q 1053 2284 737 2584 
Q 422 2884 422 3419 
Q 422 4038 858 4394 
Q 1294 4750 2059 4750 
Q 2388 4750 2728 4690 
Q 3069 4631 3425 4513 
z
" transform="scale(0.015625)"/>
      <path id="DejaVuSans-64" d="M 2906 2969 
L 2906 4863 
L 3481 4863 
L 3481 0 
L 2906 0 
L 2906 525 
Q 2725 213 2448 61 
Q 2172 -91 1784 -91 
Q 1150 -91 751 415 
Q 353 922 353 1747 
Q 353 2572 751 3078 
Q 1150 3584 1784 3584 
Q 2172 3584 2448 3432 
Q 2725 3281 2906 2969 
z
M 947 1747 
Q 947 1113 1208 752 
Q 1469 391 1925 391 
Q 2381 391 2643 752 
Q 2906 1113 2906 1747 
Q 2906 2381 2643 2742 
Q 2381 3103 1925 3103 
Q 1469 3103 1208 2742 
Q 947 2381 947 1747 
z
" transform="scale(0.015625)"/>
      <path id="DejaVuSans-57" d="M 213 4666 
L 850 4666 
L 1831 722 
L 2809 4666 
L 3519 4666 
L 4500 722 
L 5478 4666 
L 6119 4666 
L 4947 0 
L 4153 0 
L 3169 4050 
L 2175 0 
L 1381 0 
L 213 4666 
z
" transform="scale(0.015625)"/>
      <path id="DejaVuSans-77" d="M 269 3500 
L 844 3500 
L 1563 769 
L 2278 3500 
L 2956 3500 
L 3675 769 
L 4391 3500 
L 4966 3500 
L 4050 0 
L 3372 0 
L 2619 2869 
L 1863 0 
L 1184 0 
L 269 3500 
z
" transform="scale(0.015625)"/>
      <path id="DejaVuSans-28" d="M 1984 4856 
Q 1566 4138 1362 3434 
Q 1159 2731 1159 2009 
Q 1159 1288 1364 580 
Q 1569 -128 1984 -844 
L 1484 -844 
Q 1016 -109 783 600 
Q 550 1309 550 2009 
Q 550 2706 781 3412 
Q 1013 4119 1484 4856 
L 1984 4856 
z
" transform="scale(0.015625)"/>
      <path id="DejaVuSans-2e" d="M 684 794 
L 1344 794 
L 1344 0 
L 684 0 
L 684 794 
z
" transform="scale(0.015625)"/>
      <path id="DejaVuSans-6a" d="M 603 3500 
L 1178 3500 
L 1178 -63 
Q 1178 -731 923 -1031 
Q 669 -1331 103 -1331 
L -116 -1331 
L -116 -844 
L 38 -844 
Q 366 -844 484 -692 
Q 603 -541 603 -63 
L 603 3500 
z
M 603 4863 
L 1178 4863 
L 1178 4134 
L 603 4134 
L 603 4863 
z
" transform="scale(0.015625)"/>
      <path id="DejaVuSans-29" d="M 513 4856 
L 1013 4856 
Q 1481 4119 1714 3412 
Q 1947 2706 1947 2009 
Q 1947 1309 1714 600 
Q 1481 -109 1013 -844 
L 513 -844 
Q 928 -128 1133 580 
Q 1338 1288 1338 2009 
Q 1338 2731 1133 3434 
Q 928 4138 513 4856 
z
" transform="scale(0.015625)"/>
     </defs>
     <use xlink:href="#DejaVuSans-50"/>
     <use xlink:href="#DejaVuSans-79" x="60.302734"/>
     <use xlink:href="#DejaVuSans-74" x="119.482422"/>
     <use xlink:href="#DejaVuSans-68" x="158.691406"/>
     <use xlink:href="#DejaVuSans-6f" x="222.070312"/>
     <use xlink:href="#DejaVuSans-6e" x="283.251953"/>
     <use xlink:href="#DejaVuSans-20" x="346.630859"/>
     <use xlink:href="#DejaVuSans-76" x="378.417969"/>
     <use xlink:href="#DejaVuSans-65" x="437.597656"/>
     <use xlink:href="#DejaVuSans-72" x="499.121094"/>
     <use xlink:href="#DejaVuSans-73" x="540.234375"/>
     <use xlink:href="#DejaVuSans-69" x="592.333984"/>
     <use xlink:href="#DejaVuSans-6f" x="620.117188"/>
     <use xlink:href="#DejaVuSans-6e" x="681.298828"/>
     <use xlink:href="#DejaVuSans-20" x="744.677734"/>
     <use xlink:href="#DejaVuSans-6f" x="776.464844"/>
     <use xlink:href="#DejaVuSans-66" x="837.646484"/>
     <use xlink:href="#DejaVuSans-20" x="872.851562"/>
     <use xlink:href="#DejaVuSans-4e" x="904.638672"/>
     <use xlink:href="#DejaVuSans-75" x="979.443359"/>
     <use xlink:href="#DejaVuSans-6d" x="1042.822266"/>
     <use xlink:href="#DejaVuSans-50" x="1140.234375"/>
     <use xlink:href="#DejaVuSans-79" x="1200.537109"/>
     <use xlink:href="#DejaVuSans-20" x="1259.716797"/>
     <use xlink:href="#DejaVuSans-75" x="1291.503906"/>
     <use xlink:href="#DejaVuSans-73" x="1354.882812"/>
     <use xlink:href="#DejaVuSans-65" x="1406.982422"/>
     <use xlink:href="#DejaVuSans-72" x="1468.505859"/>
     <use xlink:href="#DejaVuSans-73" x="1509.619141"/>
     <use xlink:href="#DejaVuSans-2c" x="1561.71875"/>
     <use xlink:href="#DejaVuSans-20" x="1593.505859"/>
     <use xlink:href="#DejaVuSans-4d" x="1625.292969"/>
     <use xlink:href="#DejaVuSans-61" x="1711.572266"/>
     <use xlink:href="#DejaVuSans-63" x="1772.851562"/>
     <use xlink:href="#DejaVuSans-4f" x="1827.832031"/>
     <use xlink:href="#DejaVuSans-53" x="1906.542969"/>
     <use xlink:href="#DejaVuSans-20" x="1970.019531"/>
     <use xlink:href="#DejaVuSans-61" x="2001.806641"/>
     <use xlink:href="#DejaVuSans-6e" x="2063.085938"/>
     <use xlink:href="#DejaVuSans-64" x="2126.464844"/>
     <use xlink:href="#DejaVuSans-20" x="2189.941406"/>
     <use xlink:href="#DejaVuSans-57" x="2221.728516"/>
     <use xlink:href="#DejaVuSans-69" x="2318.355469"/>
     <use xlink:href="#DejaVuSans-6e" x="2346.138672"/>
     <use xlink:href="#DejaVuSans-64" x="2409.517578"/>
     <use xlink:href="#DejaVuSans-6f" x="2472.994141"/>
     <use xlink:href="#DejaVuSans-77" x="2534.175781"/>
     <use xlink:href="#DejaVuSans-73" x="2615.962891"/>
     <use xlink:href="#DejaVuSans-20" x="2668.0625"/>
     <use xlink:href="#DejaVuSans-28" x="2699.849609"/>
     <use xlink:href="#DejaVuSans-69" x="2738.863281"/>
     <use xlink:href="#DejaVuSans-2e" x="2766.646484"/>
     <use xlink:href="#DejaVuSans-65" x="2798.433594"/>
     <use xlink:href="#DejaVuSans-2e" x="2859.957031"/>
     <use xlink:href="#DejaVuSans-20" x="2891.744141"/>
     <use xlink:href="#DejaVuSans-6e" x="2923.53125"/>
     <use xlink:href="#DejaVuSans-6f" x="2986.910156"/>
     <use xlink:href="#DejaVuSans-20" x="3048.091797"/>
     <use xlink:href="#DejaVuSans-62" x="3079.878906"/>
     <use xlink:href="#DejaVuSans-61" x="3143.355469"/>
     <use xlink:href="#DejaVuSans-74" x="3204.634766"/>
     <use xlink:href="#DejaVuSans-63" x="3243.84375"/>
     <use xlink:href="#DejaVuSans-68" x="3298.824219"/>
     <use xlink:href="#DejaVuSans-20" x="3362.203125"/>
     <use xlink:href="#DejaVuSans-6a" x="3393.990234"/>
     <use xlink:href="#DejaVuSans-6f" x="3421.773438"/>
     <use xlink:href="#DejaVuSans-62" x="3482.955078"/>
     <use xlink:href="#DejaVuSans-73" x="3546.431641"/>
     <use xlink:href="#DejaVuSans-29" x="3598.53125"/>
    </g>
   </g>
   <g id="legend_1">
    <g id="patch_7">
     <path d="M 97 139.26875 
L 189.421875 139.26875 
Q 191.421875 139.26875 191.421875 137.26875 
L 191.421875 50.2 
Q 191.421875 48.2 189.421875 48.2 
L 97 48.2 
Q 95 48.2 95 50.2 
L 95 137.26875 
Q 95 139.26875 97 139.26875 
z
" style="fill: #ffffff; opacity: 0.8; stroke: #cccccc; stroke-linejoin: miter"/>
    </g>
    <g id="line2d_45">
     <path d="M 99 56.298437 
L 109 56.298437 
L 119 56.298437 
" style="fill: none; stroke: #1f77b4; stroke-width: 1.5; stroke-linecap: square"/>
    </g>
    <g id="text_9">
     <!-- 3.9 -->
     <g transform="translate(127 59.798437)scale(0.1 -0.1)">
      <defs>
       <path id="DejaVuSans-33" d="M 2597 2516 
Q 3050 2419 3304 2112 
Q 3559 1806 3559 1356 
Q 3559 666 3084 287 
Q 2609 -91 1734 -91 
Q 1441 -91 1130 -33 
Q 819 25 488 141 
L 488 750 
Q 750 597 1062 519 
Q 1375 441 1716 441 
Q 2309 441 2620 675 
Q 2931 909 2931 1356 
Q 2931 1769 2642 2001 
Q 2353 2234 1838 2234 
L 1294 2234 
L 1294 2753 
L 1863 2753 
Q 2328 2753 2575 2939 
Q 2822 3125 2822 3475 
Q 2822 3834 2567 4026 
Q 2313 4219 1838 4219 
Q 1578 4219 1281 4162 
Q 984 4106 628 3988 
L 628 4550 
Q 988 4650 1302 4700 
Q 1616 4750 1894 4750 
Q 2613 4750 3031 4423 
Q 3450 4097 3450 3541 
Q 3450 3153 3228 2886 
Q 3006 2619 2597 2516 
z
" transform="scale(0.015625)"/>
      </defs>
      <use xlink:href="#DejaVuSans-33"/>
      <use xlink:href="#DejaVuSans-2e" x="63.623047"/>
      <use xlink:href="#DejaVuSans-39" x="95.410156"/>
     </g>
    </g>
    <g id="line2d_46">
     <path d="M 99 70.976562 
L 109 70.976562 
L 119 70.976562 
" style="fill: none; stroke-dasharray: 1.5,2.475; stroke-dashoffset: 0; stroke: #ff7f0e; stroke-width: 1.5"/>
    </g>
    <g id="text_10">
     <!-- 3.8 -->
     <g transform="translate(127 74.476562)scale(0.1 -0.1)">
      <defs>
       <path id="DejaVuSans-38" d="M 2034 2216 
Q 1584 2216 1326 1975 
Q 1069 1734 1069 1313 
Q 1069 891 1326 650 
Q 1584 409 2034 409 
Q 2484 409 2743 651 
Q 3003 894 3003 1313 
Q 3003 1734 2745 1975 
Q 2488 2216 2034 2216 
z
M 1403 2484 
Q 997 2584 770 2862 
Q 544 3141 544 3541 
Q 544 4100 942 4425 
Q 1341 4750 2034 4750 
Q 2731 4750 3128 4425 
Q 3525 4100 3525 3541 
Q 3525 3141 3298 2862 
Q 3072 2584 2669 2484 
Q 3125 2378 3379 2068 
Q 3634 1759 3634 1313 
Q 3634 634 3220 271 
Q 2806 -91 2034 -91 
Q 1263 -91 848 271 
Q 434 634 434 1313 
Q 434 1759 690 2068 
Q 947 2378 1403 2484 
z
M 1172 3481 
Q 1172 3119 1398 2916 
Q 1625 2713 2034 2713 
Q 2441 2713 2670 2916 
Q 2900 3119 2900 3481 
Q 2900 3844 2670 4047 
Q 2441 4250 2034 4250 
Q 1625 4250 1398 4047 
Q 1172 3844 1172 3481 
z
" transform="scale(0.015625)"/>
      </defs>
      <use xlink:href="#DejaVuSans-33"/>
      <use xlink:href="#DejaVuSans-2e" x="63.623047"/>
      <use xlink:href="#DejaVuSans-38" x="95.410156"/>
     </g>
    </g>
    <g id="line2d_47">
     <path d="M 99 85.654687 
L 109 85.654687 
L 119 85.654687 
" style="fill: none; stroke-dasharray: 5.55,2.4; stroke-dashoffset: 0; stroke: #2ca02c; stroke-width: 1.5"/>
    </g>
    <g id="text_11">
     <!-- 3.7 -->
     <g transform="translate(127 89.154687)scale(0.1 -0.1)">
      <defs>
       <path id="DejaVuSans-37" d="M 525 4666 
L 3525 4666 
L 3525 4397 
L 1831 0 
L 1172 0 
L 2766 4134 
L 525 4134 
L 525 4666 
z
" transform="scale(0.015625)"/>
      </defs>
      <use xlink:href="#DejaVuSans-33"/>
      <use xlink:href="#DejaVuSans-2e" x="63.623047"/>
      <use xlink:href="#DejaVuSans-37" x="95.410156"/>
     </g>
    </g>
    <g id="line2d_48">
     <path d="M 99 100.332812 
L 109 100.332812 
L 119 100.332812 
" style="fill: none; stroke: #d62728; stroke-width: 1.5; stroke-linecap: square"/>
    </g>
    <g id="text_12">
     <!-- 3.6 -->
     <g transform="translate(127 103.832812)scale(0.1 -0.1)">
      <use xlink:href="#DejaVuSans-33"/>
      <use xlink:href="#DejaVuSans-2e" x="63.623047"/>
      <use xlink:href="#DejaVuSans-36" x="95.410156"/>
     </g>
    </g>
    <g id="line2d_49">
     <path d="M 99 115.010937 
L 109 115.010937 
L 119 115.010937 
" style="fill: none; stroke-dasharray: 5.55,2.4; stroke-dashoffset: 0; stroke: #9467bd; stroke-width: 1.5"/>
    </g>
    <g id="text_13">
     <!-- 3.3, 3.4, 3.5 -->
     <g transform="translate(127 118.510937)scale(0.1 -0.1)">
      <defs>
       <path id="DejaVuSans-34" d="M 2419 4116 
L 825 1625 
L 2419 1625 
L 2419 4116 
z
M 2253 4666 
L 3047 4666 
L 3047 1625 
L 3713 1625 
L 3713 1100 
L 3047 1100 
L 3047 0 
L 2419 0 
L 2419 1100 
L 313 1100 
L 313 1709 
L 2253 4666 
z
" transform="scale(0.015625)"/>
      </defs>
      <use xlink:href="#DejaVuSans-33"/>
      <use xlink:href="#DejaVuSans-2e" x="63.623047"/>
      <use xlink:href="#DejaVuSans-33" x="95.410156"/>
      <use xlink:href="#DejaVuSans-2c" x="159.033203"/>
      <use xlink:href="#DejaVuSans-20" x="190.820312"/>
      <use xlink:href="#DejaVuSans-33" x="222.607422"/>
      <use xlink:href="#DejaVuSans-2e" x="286.230469"/>
      <use xlink:href="#DejaVuSans-34" x="318.017578"/>
      <use xlink:href="#DejaVuSans-2c" x="381.640625"/>
      <use xlink:href="#DejaVuSans-20" x="413.427734"/>
      <use xlink:href="#DejaVuSans-33" x="445.214844"/>
      <use xlink:href="#DejaVuSans-2e" x="508.837891"/>
      <use xlink:href="#DejaVuSans-35" x="540.625"/>
     </g>
    </g>
    <g id="line2d_50">
     <path d="M 99 129.689062 
L 109 129.689062 
L 119 129.689062 
" style="fill: none; stroke-dasharray: 9.6,2.4,1.5,2.4; stroke-dashoffset: 0; stroke: #8c564b; stroke-width: 1.5"/>
    </g>
    <g id="text_14">
     <!-- 2.7 -->
     <g transform="translate(127 133.189062)scale(0.1 -0.1)">
      <use xlink:href="#DejaVuSans-32"/>
      <use xlink:href="#DejaVuSans-2e" x="63.623047"/>
      <use xlink:href="#DejaVuSans-37" x="95.410156"/>
     </g>
    </g>
   </g>
  </g>
 </g>
 <defs>
  <clipPath id="p73c230ba4f">
   <rect x="90" y="43.2" width="558" height="271.8"/>
  </clipPath>
 </defs>
</svg>
