<?xml version="1.0" encoding="utf-8" standalone="no"?>
<!DOCTYPE svg PUBLIC "-//W3C//DTD SVG 1.1//EN"
  "http://www.w3.org/Graphics/SVG/1.1/DTD/svg11.dtd">
<svg xmlns:xlink="http://www.w3.org/1999/xlink" width="720pt" height="360pt" viewBox="0 0 720 360" xmlns="http://www.w3.org/2000/svg" version="1.1">
 <metadata>
  <rdf:RDF xmlns:dc="http://purl.org/dc/elements/1.1/" xmlns:cc="http://creativecommons.org/ns#" xmlns:rdf="http://www.w3.org/1999/02/22-rdf-syntax-ns#">
   <cc:Work>
    <dc:type rdf:resource="http://purl.org/dc/dcmitype/StillImage"/>
    <dc:date>2022-03-05T14:45:50.127723</dc:date>
    <dc:format>image/svg+xml</dc:format>
    <dc:creator>
     <cc:Agent>
      <dc:title>Matplotlib v3.5.1, https://matplotlib.org/</dc:title>
     </cc:Agent>
    </dc:creator>
   </cc:Work>
  </rdf:RDF>
 </metadata>
 <defs>
  <style type="text/css">*{stroke-linejoin: round; stroke-linecap: butt}</style>
 </defs>
 <g id="figure_1">
  <g id="patch_1">
   <path d="M 0 360 
L 720 360 
L 720 0 
L 0 0 
L 0 360 
z
" style="fill: none"/>
  </g>
  <g id="axes_1">
   <g id="patch_2">
    <path d="M 90 315 
L 648 315 
L 648 43.2 
L 90 43.2 
z
" style="fill: #ffffff"/>
   </g>
   <g id="matplotlib.axis_1">
    <g id="xtick_1">
     <g id="line2d_1">
      <defs>
       <path id="m4659f7b552" d="M 0 0 
L 0 3.5 
" style="stroke: #000000; stroke-width: 0.8"/>
      </defs>
      <g>
       <use xlink:href="#m4659f7b552" x="90" y="315" style="stroke: #000000; stroke-width: 0.8"/>
      </g>
     </g>
    </g>
    <g id="xtick_2">
     <g id="line2d_2">
      <g>
       <use xlink:href="#m4659f7b552" x="189.329843" y="315" style="stroke: #000000; stroke-width: 0.8"/>
      </g>
     </g>
     <g id="text_1">
      <!-- Jan -->
      <g transform="translate(181.62203 329.598437)scale(0.1 -0.1)">
       <defs>
        <path id="DejaVuSans-4a" d="M 628 4666 
L 1259 4666 
L 1259 325 
Q 1259 -519 939 -900 
Q 619 -1281 -91 -1281 
L -331 -1281 
L -331 -750 
L -134 -750 
Q 284 -750 456 -515 
Q 628 -281 628 325 
L 628 4666 
z
" transform="scale(0.015625)"/>
        <path id="DejaVuSans-61" d="M 2194 1759 
Q 1497 1759 1228 1600 
Q 959 1441 959 1056 
Q 959 750 1161 570 
Q 1363 391 1709 391 
Q 2188 391 2477 730 
Q 2766 1069 2766 1631 
L 2766 1759 
L 2194 1759 
z
M 3341 1997 
L 3341 0 
L 2766 0 
L 2766 531 
Q 2569 213 2275 61 
Q 1981 -91 1556 -91 
Q 1019 -91 701 211 
Q 384 513 384 1019 
Q 384 1609 779 1909 
Q 1175 2209 1959 2209 
L 2766 2209 
L 2766 2266 
Q 2766 2663 2505 2880 
Q 2244 3097 1772 3097 
Q 1472 3097 1187 3025 
Q 903 2953 641 2809 
L 641 3341 
Q 956 3463 1253 3523 
Q 1550 3584 1831 3584 
Q 2591 3584 2966 3190 
Q 3341 2797 3341 1997 
z
" transform="scale(0.015625)"/>
        <path id="DejaVuSans-6e" d="M 3513 2113 
L 3513 0 
L 2938 0 
L 2938 2094 
Q 2938 2591 2744 2837 
Q 2550 3084 2163 3084 
Q 1697 3084 1428 2787 
Q 1159 2491 1159 1978 
L 1159 0 
L 581 0 
L 581 3500 
L 1159 3500 
L 1159 2956 
Q 1366 3272 1645 3428 
Q 1925 3584 2291 3584 
Q 2894 3584 3203 3211 
Q 3513 2838 3513 2113 
z
" transform="scale(0.015625)"/>
       </defs>
       <use xlink:href="#DejaVuSans-4a"/>
       <use xlink:href="#DejaVuSans-61" x="29.492188"/>
       <use xlink:href="#DejaVuSans-6e" x="90.771484"/>
      </g>
      <!-- 2020 -->
      <g transform="translate(176.604843 340.79625)scale(0.1 -0.1)">
       <defs>
        <path id="DejaVuSans-32" d="M 1228 531 
L 3431 531 
L 3431 0 
L 469 0 
L 469 531 
Q 828 903 1448 1529 
Q 2069 2156 2228 2338 
Q 2531 2678 2651 2914 
Q 2772 3150 2772 3378 
Q 2772 3750 2511 3984 
Q 2250 4219 1831 4219 
Q 1534 4219 1204 4116 
Q 875 4013 500 3803 
L 500 4441 
Q 881 4594 1212 4672 
Q 1544 4750 1819 4750 
Q 2544 4750 2975 4387 
Q 3406 4025 3406 3419 
Q 3406 3131 3298 2873 
Q 3191 2616 2906 2266 
Q 2828 2175 2409 1742 
Q 1991 1309 1228 531 
z
" transform="scale(0.015625)"/>
        <path id="DejaVuSans-30" d="M 2034 4250 
Q 1547 4250 1301 3770 
Q 1056 3291 1056 2328 
Q 1056 1369 1301 889 
Q 1547 409 2034 409 
Q 2525 409 2770 889 
Q 3016 1369 3016 2328 
Q 3016 3291 2770 3770 
Q 2525 4250 2034 4250 
z
M 2034 4750 
Q 2819 4750 3233 4129 
Q 3647 3509 3647 2328 
Q 3647 1150 3233 529 
Q 2819 -91 2034 -91 
Q 1250 -91 836 529 
Q 422 1150 422 2328 
Q 422 3509 836 4129 
Q 1250 4750 2034 4750 
z
" transform="scale(0.015625)"/>
       </defs>
       <use xlink:href="#DejaVuSans-32"/>
       <use xlink:href="#DejaVuSans-30" x="63.623047"/>
       <use xlink:href="#DejaVuSans-32" x="127.246094"/>
       <use xlink:href="#DejaVuSans-30" x="190.869141"/>
      </g>
     </g>
    </g>
    <g id="xtick_3">
     <g id="line2d_3">
      <g>
       <use xlink:href="#m4659f7b552" x="403.181152" y="315" style="stroke: #000000; stroke-width: 0.8"/>
      </g>
     </g>
     <g id="text_2">
      <!-- Jan -->
      <g transform="translate(395.473339 329.598437)scale(0.1 -0.1)">
       <use xlink:href="#DejaVuSans-4a"/>
       <use xlink:href="#DejaVuSans-61" x="29.492188"/>
       <use xlink:href="#DejaVuSans-6e" x="90.771484"/>
      </g>
      <!-- 2021 -->
      <g transform="translate(390.456152 340.79625)scale(0.1 -0.1)">
       <defs>
        <path id="DejaVuSans-31" d="M 794 531 
L 1825 531 
L 1825 4091 
L 703 3866 
L 703 4441 
L 1819 4666 
L 2450 4666 
L 2450 531 
L 3481 531 
L 3481 0 
L 794 0 
L 794 531 
z
" transform="scale(0.015625)"/>
       </defs>
       <use xlink:href="#DejaVuSans-32"/>
       <use xlink:href="#DejaVuSans-30" x="63.623047"/>
       <use xlink:href="#DejaVuSans-32" x="127.246094"/>
       <use xlink:href="#DejaVuSans-31" x="190.869141"/>
      </g>
     </g>
    </g>
    <g id="xtick_4">
     <g id="line2d_4">
      <g>
       <use xlink:href="#m4659f7b552" x="616.448168" y="315" style="stroke: #000000; stroke-width: 0.8"/>
      </g>
     </g>
     <g id="text_3">
      <!-- Jan -->
      <g transform="translate(608.740355 329.598437)scale(0.1 -0.1)">
       <use xlink:href="#DejaVuSans-4a"/>
       <use xlink:href="#DejaVuSans-61" x="29.492188"/>
       <use xlink:href="#DejaVuSans-6e" x="90.771484"/>
      </g>
      <!-- 2022 -->
      <g transform="translate(603.723168 340.79625)scale(0.1 -0.1)">
       <use xlink:href="#DejaVuSans-32"/>
       <use xlink:href="#DejaVuSans-30" x="63.623047"/>
       <use xlink:href="#DejaVuSans-32" x="127.246094"/>
       <use xlink:href="#DejaVuSans-32" x="190.869141"/>
      </g>
     </g>
    </g>
    <g id="xtick_5">
     <g id="line2d_5">
      <g>
       <use xlink:href="#m4659f7b552" x="648" y="315" style="stroke: #000000; stroke-width: 0.8"/>
      </g>
     </g>
    </g>
    <g id="xtick_6">
     <g id="line2d_6">
      <defs>
       <path id="m3054c1ba41" d="M 0 0 
L 0 2 
" style="stroke: #000000; stroke-width: 0.6"/>
      </defs>
      <g>
       <use xlink:href="#m3054c1ba41" x="99.932984" y="315" style="stroke: #000000; stroke-width: 0.6"/>
      </g>
     </g>
    </g>
    <g id="xtick_7">
     <g id="line2d_7">
      <g>
       <use xlink:href="#m3054c1ba41" x="118.046073" y="315" style="stroke: #000000; stroke-width: 0.6"/>
      </g>
     </g>
    </g>
    <g id="xtick_8">
     <g id="line2d_8">
      <g>
       <use xlink:href="#m3054c1ba41" x="135.574869" y="315" style="stroke: #000000; stroke-width: 0.6"/>
      </g>
     </g>
    </g>
    <g id="xtick_9">
     <g id="line2d_9">
      <g>
       <use xlink:href="#m3054c1ba41" x="153.687958" y="315" style="stroke: #000000; stroke-width: 0.6"/>
      </g>
     </g>
    </g>
    <g id="xtick_10">
     <g id="line2d_10">
      <g>
       <use xlink:href="#m3054c1ba41" x="171.216754" y="315" style="stroke: #000000; stroke-width: 0.6"/>
      </g>
     </g>
    </g>
    <g id="xtick_11">
     <g id="line2d_11">
      <g>
       <use xlink:href="#m3054c1ba41" x="207.442932" y="315" style="stroke: #000000; stroke-width: 0.6"/>
      </g>
     </g>
    </g>
    <g id="xtick_12">
     <g id="line2d_12">
      <g>
       <use xlink:href="#m3054c1ba41" x="224.387435" y="315" style="stroke: #000000; stroke-width: 0.6"/>
      </g>
     </g>
    </g>
    <g id="xtick_13">
     <g id="line2d_13">
      <g>
       <use xlink:href="#m3054c1ba41" x="242.500524" y="315" style="stroke: #000000; stroke-width: 0.6"/>
      </g>
     </g>
    </g>
    <g id="xtick_14">
     <g id="line2d_14">
      <g>
       <use xlink:href="#m3054c1ba41" x="260.029319" y="315" style="stroke: #000000; stroke-width: 0.6"/>
      </g>
     </g>
    </g>
    <g id="xtick_15">
     <g id="line2d_15">
      <g>
       <use xlink:href="#m3054c1ba41" x="278.142408" y="315" style="stroke: #000000; stroke-width: 0.6"/>
      </g>
     </g>
    </g>
    <g id="xtick_16">
     <g id="line2d_16">
      <g>
       <use xlink:href="#m3054c1ba41" x="295.671204" y="315" style="stroke: #000000; stroke-width: 0.6"/>
      </g>
     </g>
     <g id="text_4">
      <!-- Jul -->
      <g transform="translate(289.638392 327.998438)scale(0.1 -0.1)">
       <defs>
        <path id="DejaVuSans-75" d="M 544 1381 
L 544 3500 
L 1119 3500 
L 1119 1403 
Q 1119 906 1312 657 
Q 1506 409 1894 409 
Q 2359 409 2629 706 
Q 2900 1003 2900 1516 
L 2900 3500 
L 3475 3500 
L 3475 0 
L 2900 0 
L 2900 538 
Q 2691 219 2414 64 
Q 2138 -91 1772 -91 
Q 1169 -91 856 284 
Q 544 659 544 1381 
z
M 1991 3584 
L 1991 3584 
z
" transform="scale(0.015625)"/>
        <path id="DejaVuSans-6c" d="M 603 4863 
L 1178 4863 
L 1178 0 
L 603 0 
L 603 4863 
z
" transform="scale(0.015625)"/>
       </defs>
       <use xlink:href="#DejaVuSans-4a"/>
       <use xlink:href="#DejaVuSans-75" x="29.492188"/>
       <use xlink:href="#DejaVuSans-6c" x="92.871094"/>
      </g>
     </g>
    </g>
    <g id="xtick_17">
     <g id="line2d_17">
      <g>
       <use xlink:href="#m3054c1ba41" x="313.784293" y="315" style="stroke: #000000; stroke-width: 0.6"/>
      </g>
     </g>
    </g>
    <g id="xtick_18">
     <g id="line2d_18">
      <g>
       <use xlink:href="#m3054c1ba41" x="331.897382" y="315" style="stroke: #000000; stroke-width: 0.6"/>
      </g>
     </g>
    </g>
    <g id="xtick_19">
     <g id="line2d_19">
      <g>
       <use xlink:href="#m3054c1ba41" x="349.426178" y="315" style="stroke: #000000; stroke-width: 0.6"/>
      </g>
     </g>
    </g>
    <g id="xtick_20">
     <g id="line2d_20">
      <g>
       <use xlink:href="#m3054c1ba41" x="367.539267" y="315" style="stroke: #000000; stroke-width: 0.6"/>
      </g>
     </g>
    </g>
    <g id="xtick_21">
     <g id="line2d_21">
      <g>
       <use xlink:href="#m3054c1ba41" x="385.068063" y="315" style="stroke: #000000; stroke-width: 0.6"/>
      </g>
     </g>
    </g>
    <g id="xtick_22">
     <g id="line2d_22">
      <g>
       <use xlink:href="#m3054c1ba41" x="421.294241" y="315" style="stroke: #000000; stroke-width: 0.6"/>
      </g>
     </g>
    </g>
    <g id="xtick_23">
     <g id="line2d_23">
      <g>
       <use xlink:href="#m3054c1ba41" x="437.65445" y="315" style="stroke: #000000; stroke-width: 0.6"/>
      </g>
     </g>
    </g>
    <g id="xtick_24">
     <g id="line2d_24">
      <g>
       <use xlink:href="#m3054c1ba41" x="455.767539" y="315" style="stroke: #000000; stroke-width: 0.6"/>
      </g>
     </g>
    </g>
    <g id="xtick_25">
     <g id="line2d_25">
      <g>
       <use xlink:href="#m3054c1ba41" x="473.296335" y="315" style="stroke: #000000; stroke-width: 0.6"/>
      </g>
     </g>
    </g>
    <g id="xtick_26">
     <g id="line2d_26">
      <g>
       <use xlink:href="#m3054c1ba41" x="491.409424" y="315" style="stroke: #000000; stroke-width: 0.6"/>
      </g>
     </g>
    </g>
    <g id="xtick_27">
     <g id="line2d_27">
      <g>
       <use xlink:href="#m3054c1ba41" x="508.93822" y="315" style="stroke: #000000; stroke-width: 0.6"/>
      </g>
     </g>
     <g id="text_5">
      <!-- Jul -->
      <g transform="translate(502.905407 327.998438)scale(0.1 -0.1)">
       <use xlink:href="#DejaVuSans-4a"/>
       <use xlink:href="#DejaVuSans-75" x="29.492188"/>
       <use xlink:href="#DejaVuSans-6c" x="92.871094"/>
      </g>
     </g>
    </g>
    <g id="xtick_28">
     <g id="line2d_28">
      <g>
       <use xlink:href="#m3054c1ba41" x="527.051309" y="315" style="stroke: #000000; stroke-width: 0.6"/>
      </g>
     </g>
    </g>
    <g id="xtick_29">
     <g id="line2d_29">
      <g>
       <use xlink:href="#m3054c1ba41" x="545.164398" y="315" style="stroke: #000000; stroke-width: 0.6"/>
      </g>
     </g>
    </g>
    <g id="xtick_30">
     <g id="line2d_30">
      <g>
       <use xlink:href="#m3054c1ba41" x="562.693194" y="315" style="stroke: #000000; stroke-width: 0.6"/>
      </g>
     </g>
    </g>
    <g id="xtick_31">
     <g id="line2d_31">
      <g>
       <use xlink:href="#m3054c1ba41" x="580.806283" y="315" style="stroke: #000000; stroke-width: 0.6"/>
      </g>
     </g>
    </g>
    <g id="xtick_32">
     <g id="line2d_32">
      <g>
       <use xlink:href="#m3054c1ba41" x="598.335079" y="315" style="stroke: #000000; stroke-width: 0.6"/>
      </g>
     </g>
    </g>
    <g id="xtick_33">
     <g id="line2d_33">
      <g>
       <use xlink:href="#m3054c1ba41" x="634.561257" y="315" style="stroke: #000000; stroke-width: 0.6"/>
      </g>
     </g>
    </g>
   </g>
   <g id="matplotlib.axis_2">
    <g id="ytick_1">
     <g id="line2d_34">
      <defs>
       <path id="m616596f6e4" d="M 0 0 
L -3.5 0 
" style="stroke: #000000; stroke-width: 0.8"/>
      </defs>
      <g>
       <use xlink:href="#m616596f6e4" x="90" y="297.221016" style="stroke: #000000; stroke-width: 0.8"/>
      </g>
     </g>
     <g id="text_6">
      <!-- $\mathdefault{10^{1}}$ -->
      <g transform="translate(65.4 301.020234)scale(0.1 -0.1)">
       <use xlink:href="#DejaVuSans-31" transform="translate(0 0.684375)"/>
       <use xlink:href="#DejaVuSans-30" transform="translate(63.623047 0.684375)"/>
       <use xlink:href="#DejaVuSans-31" transform="translate(128.203125 38.965625)scale(0.7)"/>
      </g>
     </g>
    </g>
    <g id="ytick_2">
     <g id="line2d_35">
      <g>
       <use xlink:href="#m616596f6e4" x="90" y="238.160508" style="stroke: #000000; stroke-width: 0.8"/>
      </g>
     </g>
     <g id="text_7">
      <!-- $\mathdefault{10^{2}}$ -->
      <g transform="translate(65.4 241.959727)scale(0.1 -0.1)">
       <use xlink:href="#DejaVuSans-31" transform="translate(0 0.765625)"/>
       <use xlink:href="#DejaVuSans-30" transform="translate(63.623047 0.765625)"/>
       <use xlink:href="#DejaVuSans-32" transform="translate(128.203125 39.046875)scale(0.7)"/>
      </g>
     </g>
    </g>
    <g id="ytick_3">
     <g id="line2d_36">
      <g>
       <use xlink:href="#m616596f6e4" x="90" y="179.1" style="stroke: #000000; stroke-width: 0.8"/>
      </g>
     </g>
     <g id="text_8">
      <!-- $\mathdefault{10^{3}}$ -->
      <g transform="translate(65.4 182.899219)scale(0.1 -0.1)">
       <defs>
        <path id="DejaVuSans-33" d="M 2597 2516 
Q 3050 2419 3304 2112 
Q 3559 1806 3559 1356 
Q 3559 666 3084 287 
Q 2609 -91 1734 -91 
Q 1441 -91 1130 -33 
Q 819 25 488 141 
L 488 750 
Q 750 597 1062 519 
Q 1375 441 1716 441 
Q 2309 441 2620 675 
Q 2931 909 2931 1356 
Q 2931 1769 2642 2001 
Q 2353 2234 1838 2234 
L 1294 2234 
L 1294 2753 
L 1863 2753 
Q 2328 2753 2575 2939 
Q 2822 3125 2822 3475 
Q 2822 3834 2567 4026 
Q 2313 4219 1838 4219 
Q 1578 4219 1281 4162 
Q 984 4106 628 3988 
L 628 4550 
Q 988 4650 1302 4700 
Q 1616 4750 1894 4750 
Q 2613 4750 3031 4423 
Q 3450 4097 3450 3541 
Q 3450 3153 3228 2886 
Q 3006 2619 2597 2516 
z
" transform="scale(0.015625)"/>
       </defs>
       <use xlink:href="#DejaVuSans-31" transform="translate(0 0.765625)"/>
       <use xlink:href="#DejaVuSans-30" transform="translate(63.623047 0.765625)"/>
       <use xlink:href="#DejaVuSans-33" transform="translate(128.203125 39.046875)scale(0.7)"/>
      </g>
     </g>
    </g>
    <g id="ytick_4">
     <g id="line2d_37">
      <g>
       <use xlink:href="#m616596f6e4" x="90" y="120.039492" style="stroke: #000000; stroke-width: 0.8"/>
      </g>
     </g>
     <g id="text_9">
      <!-- $\mathdefault{10^{4}}$ -->
      <g transform="translate(65.4 123.838711)scale(0.1 -0.1)">
       <defs>
        <path id="DejaVuSans-34" d="M 2419 4116 
L 825 1625 
L 2419 1625 
L 2419 4116 
z
M 2253 4666 
L 3047 4666 
L 3047 1625 
L 3713 1625 
L 3713 1100 
L 3047 1100 
L 3047 0 
L 2419 0 
L 2419 1100 
L 313 1100 
L 313 1709 
L 2253 4666 
z
" transform="scale(0.015625)"/>
       </defs>
       <use xlink:href="#DejaVuSans-31" transform="translate(0 0.684375)"/>
       <use xlink:href="#DejaVuSans-30" transform="translate(63.623047 0.684375)"/>
       <use xlink:href="#DejaVuSans-34" transform="translate(128.203125 38.965625)scale(0.7)"/>
      </g>
     </g>
    </g>
    <g id="ytick_5">
     <g id="line2d_38">
      <g>
       <use xlink:href="#m616596f6e4" x="90" y="60.978984" style="stroke: #000000; stroke-width: 0.8"/>
      </g>
     </g>
     <g id="text_10">
      <!-- $\mathdefault{10^{5}}$ -->
      <g transform="translate(65.4 64.778203)scale(0.1 -0.1)">
       <defs>
        <path id="DejaVuSans-35" d="M 691 4666 
L 3169 4666 
L 3169 4134 
L 1269 4134 
L 1269 2991 
Q 1406 3038 1543 3061 
Q 1681 3084 1819 3084 
Q 2600 3084 3056 2656 
Q 3513 2228 3513 1497 
Q 3513 744 3044 326 
Q 2575 -91 1722 -91 
Q 1428 -91 1123 -41 
Q 819 9 494 109 
L 494 744 
Q 775 591 1075 516 
Q 1375 441 1709 441 
Q 2250 441 2565 725 
Q 2881 1009 2881 1497 
Q 2881 1984 2565 2268 
Q 2250 2553 1709 2553 
Q 1456 2553 1204 2497 
Q 953 2441 691 2322 
L 691 4666 
z
" transform="scale(0.015625)"/>
       </defs>
       <use xlink:href="#DejaVuSans-31" transform="translate(0 0.684375)"/>
       <use xlink:href="#DejaVuSans-30" transform="translate(63.623047 0.684375)"/>
       <use xlink:href="#DejaVuSans-35" transform="translate(128.203125 38.965625)scale(0.7)"/>
      </g>
     </g>
    </g>
    <g id="ytick_6">
     <g id="line2d_39">
      <defs>
       <path id="m87d5b6f08a" d="M 0 0 
L -2 0 
" style="stroke: #000000; stroke-width: 0.6"/>
      </defs>
      <g>
       <use xlink:href="#m87d5b6f08a" x="90" y="315" style="stroke: #000000; stroke-width: 0.6"/>
      </g>
     </g>
    </g>
    <g id="ytick_7">
     <g id="line2d_40">
      <g>
       <use xlink:href="#m87d5b6f08a" x="90" y="310.323515" style="stroke: #000000; stroke-width: 0.6"/>
      </g>
     </g>
    </g>
    <g id="ytick_8">
     <g id="line2d_41">
      <g>
       <use xlink:href="#m87d5b6f08a" x="90" y="306.369604" style="stroke: #000000; stroke-width: 0.6"/>
      </g>
     </g>
    </g>
    <g id="ytick_9">
     <g id="line2d_42">
      <g>
       <use xlink:href="#m87d5b6f08a" x="90" y="302.94457" style="stroke: #000000; stroke-width: 0.6"/>
      </g>
     </g>
    </g>
    <g id="ytick_10">
     <g id="line2d_43">
      <g>
       <use xlink:href="#m87d5b6f08a" x="90" y="299.923476" style="stroke: #000000; stroke-width: 0.6"/>
      </g>
     </g>
    </g>
    <g id="ytick_11">
     <g id="line2d_44">
      <g>
       <use xlink:href="#m87d5b6f08a" x="90" y="279.442031" style="stroke: #000000; stroke-width: 0.6"/>
      </g>
     </g>
    </g>
    <g id="ytick_12">
     <g id="line2d_45">
      <g>
       <use xlink:href="#m87d5b6f08a" x="90" y="269.041992" style="stroke: #000000; stroke-width: 0.6"/>
      </g>
     </g>
    </g>
    <g id="ytick_13">
     <g id="line2d_46">
      <g>
       <use xlink:href="#m87d5b6f08a" x="90" y="261.663047" style="stroke: #000000; stroke-width: 0.6"/>
      </g>
     </g>
    </g>
    <g id="ytick_14">
     <g id="line2d_47">
      <g>
       <use xlink:href="#m87d5b6f08a" x="90" y="255.939492" style="stroke: #000000; stroke-width: 0.6"/>
      </g>
     </g>
    </g>
    <g id="ytick_15">
     <g id="line2d_48">
      <g>
       <use xlink:href="#m87d5b6f08a" x="90" y="251.263008" style="stroke: #000000; stroke-width: 0.6"/>
      </g>
     </g>
    </g>
    <g id="ytick_16">
     <g id="line2d_49">
      <g>
       <use xlink:href="#m87d5b6f08a" x="90" y="247.309096" style="stroke: #000000; stroke-width: 0.6"/>
      </g>
     </g>
    </g>
    <g id="ytick_17">
     <g id="line2d_50">
      <g>
       <use xlink:href="#m87d5b6f08a" x="90" y="243.884062" style="stroke: #000000; stroke-width: 0.6"/>
      </g>
     </g>
    </g>
    <g id="ytick_18">
     <g id="line2d_51">
      <g>
       <use xlink:href="#m87d5b6f08a" x="90" y="240.862968" style="stroke: #000000; stroke-width: 0.6"/>
      </g>
     </g>
    </g>
    <g id="ytick_19">
     <g id="line2d_52">
      <g>
       <use xlink:href="#m87d5b6f08a" x="90" y="220.381523" style="stroke: #000000; stroke-width: 0.6"/>
      </g>
     </g>
    </g>
    <g id="ytick_20">
     <g id="line2d_53">
      <g>
       <use xlink:href="#m87d5b6f08a" x="90" y="209.981484" style="stroke: #000000; stroke-width: 0.6"/>
      </g>
     </g>
    </g>
    <g id="ytick_21">
     <g id="line2d_54">
      <g>
       <use xlink:href="#m87d5b6f08a" x="90" y="202.602539" style="stroke: #000000; stroke-width: 0.6"/>
      </g>
     </g>
    </g>
    <g id="ytick_22">
     <g id="line2d_55">
      <g>
       <use xlink:href="#m87d5b6f08a" x="90" y="196.878984" style="stroke: #000000; stroke-width: 0.6"/>
      </g>
     </g>
    </g>
    <g id="ytick_23">
     <g id="line2d_56">
      <g>
       <use xlink:href="#m87d5b6f08a" x="90" y="192.2025" style="stroke: #000000; stroke-width: 0.6"/>
      </g>
     </g>
    </g>
    <g id="ytick_24">
     <g id="line2d_57">
      <g>
       <use xlink:href="#m87d5b6f08a" x="90" y="188.248588" style="stroke: #000000; stroke-width: 0.6"/>
      </g>
     </g>
    </g>
    <g id="ytick_25">
     <g id="line2d_58">
      <g>
       <use xlink:href="#m87d5b6f08a" x="90" y="184.823555" style="stroke: #000000; stroke-width: 0.6"/>
      </g>
     </g>
    </g>
    <g id="ytick_26">
     <g id="line2d_59">
      <g>
       <use xlink:href="#m87d5b6f08a" x="90" y="181.802461" style="stroke: #000000; stroke-width: 0.6"/>
      </g>
     </g>
    </g>
    <g id="ytick_27">
     <g id="line2d_60">
      <g>
       <use xlink:href="#m87d5b6f08a" x="90" y="161.321016" style="stroke: #000000; stroke-width: 0.6"/>
      </g>
     </g>
    </g>
    <g id="ytick_28">
     <g id="line2d_61">
      <g>
       <use xlink:href="#m87d5b6f08a" x="90" y="150.920976" style="stroke: #000000; stroke-width: 0.6"/>
      </g>
     </g>
    </g>
    <g id="ytick_29">
     <g id="line2d_62">
      <g>
       <use xlink:href="#m87d5b6f08a" x="90" y="143.542031" style="stroke: #000000; stroke-width: 0.6"/>
      </g>
     </g>
    </g>
    <g id="ytick_30">
     <g id="line2d_63">
      <g>
       <use xlink:href="#m87d5b6f08a" x="90" y="137.818477" style="stroke: #000000; stroke-width: 0.6"/>
      </g>
     </g>
    </g>
    <g id="ytick_31">
     <g id="line2d_64">
      <g>
       <use xlink:href="#m87d5b6f08a" x="90" y="133.141992" style="stroke: #000000; stroke-width: 0.6"/>
      </g>
     </g>
    </g>
    <g id="ytick_32">
     <g id="line2d_65">
      <g>
       <use xlink:href="#m87d5b6f08a" x="90" y="129.188081" style="stroke: #000000; stroke-width: 0.6"/>
      </g>
     </g>
    </g>
    <g id="ytick_33">
     <g id="line2d_66">
      <g>
       <use xlink:href="#m87d5b6f08a" x="90" y="125.763047" style="stroke: #000000; stroke-width: 0.6"/>
      </g>
     </g>
    </g>
    <g id="ytick_34">
     <g id="line2d_67">
      <g>
       <use xlink:href="#m87d5b6f08a" x="90" y="122.741953" style="stroke: #000000; stroke-width: 0.6"/>
      </g>
     </g>
    </g>
    <g id="ytick_35">
     <g id="line2d_68">
      <g>
       <use xlink:href="#m87d5b6f08a" x="90" y="102.260508" style="stroke: #000000; stroke-width: 0.6"/>
      </g>
     </g>
    </g>
    <g id="ytick_36">
     <g id="line2d_69">
      <g>
       <use xlink:href="#m87d5b6f08a" x="90" y="91.860469" style="stroke: #000000; stroke-width: 0.6"/>
      </g>
     </g>
    </g>
    <g id="ytick_37">
     <g id="line2d_70">
      <g>
       <use xlink:href="#m87d5b6f08a" x="90" y="84.481523" style="stroke: #000000; stroke-width: 0.6"/>
      </g>
     </g>
    </g>
    <g id="ytick_38">
     <g id="line2d_71">
      <g>
       <use xlink:href="#m87d5b6f08a" x="90" y="78.757969" style="stroke: #000000; stroke-width: 0.6"/>
      </g>
     </g>
    </g>
    <g id="ytick_39">
     <g id="line2d_72">
      <g>
       <use xlink:href="#m87d5b6f08a" x="90" y="74.081484" style="stroke: #000000; stroke-width: 0.6"/>
      </g>
     </g>
    </g>
    <g id="ytick_40">
     <g id="line2d_73">
      <g>
       <use xlink:href="#m87d5b6f08a" x="90" y="70.127573" style="stroke: #000000; stroke-width: 0.6"/>
      </g>
     </g>
    </g>
    <g id="ytick_41">
     <g id="line2d_74">
      <g>
       <use xlink:href="#m87d5b6f08a" x="90" y="66.702539" style="stroke: #000000; stroke-width: 0.6"/>
      </g>
     </g>
    </g>
    <g id="ytick_42">
     <g id="line2d_75">
      <g>
       <use xlink:href="#m87d5b6f08a" x="90" y="63.681445" style="stroke: #000000; stroke-width: 0.6"/>
      </g>
     </g>
    </g>
    <g id="ytick_43">
     <g id="line2d_76">
      <g>
       <use xlink:href="#m87d5b6f08a" x="90" y="43.2" style="stroke: #000000; stroke-width: 0.6"/>
      </g>
     </g>
    </g>
    <g id="text_11">
     <!-- Number of pip-installs per month -->
     <g transform="translate(59.320312 262.00625)rotate(-90)scale(0.1 -0.1)">
      <defs>
       <path id="DejaVuSans-4e" d="M 628 4666 
L 1478 4666 
L 3547 763 
L 3547 4666 
L 4159 4666 
L 4159 0 
L 3309 0 
L 1241 3903 
L 1241 0 
L 628 0 
L 628 4666 
z
" transform="scale(0.015625)"/>
       <path id="DejaVuSans-6d" d="M 3328 2828 
Q 3544 3216 3844 3400 
Q 4144 3584 4550 3584 
Q 5097 3584 5394 3201 
Q 5691 2819 5691 2113 
L 5691 0 
L 5113 0 
L 5113 2094 
Q 5113 2597 4934 2840 
Q 4756 3084 4391 3084 
Q 3944 3084 3684 2787 
Q 3425 2491 3425 1978 
L 3425 0 
L 2847 0 
L 2847 2094 
Q 2847 2600 2669 2842 
Q 2491 3084 2119 3084 
Q 1678 3084 1418 2786 
Q 1159 2488 1159 1978 
L 1159 0 
L 581 0 
L 581 3500 
L 1159 3500 
L 1159 2956 
Q 1356 3278 1631 3431 
Q 1906 3584 2284 3584 
Q 2666 3584 2933 3390 
Q 3200 3197 3328 2828 
z
" transform="scale(0.015625)"/>
       <path id="DejaVuSans-62" d="M 3116 1747 
Q 3116 2381 2855 2742 
Q 2594 3103 2138 3103 
Q 1681 3103 1420 2742 
Q 1159 2381 1159 1747 
Q 1159 1113 1420 752 
Q 1681 391 2138 391 
Q 2594 391 2855 752 
Q 3116 1113 3116 1747 
z
M 1159 2969 
Q 1341 3281 1617 3432 
Q 1894 3584 2278 3584 
Q 2916 3584 3314 3078 
Q 3713 2572 3713 1747 
Q 3713 922 3314 415 
Q 2916 -91 2278 -91 
Q 1894 -91 1617 61 
Q 1341 213 1159 525 
L 1159 0 
L 581 0 
L 581 4863 
L 1159 4863 
L 1159 2969 
z
" transform="scale(0.015625)"/>
       <path id="DejaVuSans-65" d="M 3597 1894 
L 3597 1613 
L 953 1613 
Q 991 1019 1311 708 
Q 1631 397 2203 397 
Q 2534 397 2845 478 
Q 3156 559 3463 722 
L 3463 178 
Q 3153 47 2828 -22 
Q 2503 -91 2169 -91 
Q 1331 -91 842 396 
Q 353 884 353 1716 
Q 353 2575 817 3079 
Q 1281 3584 2069 3584 
Q 2775 3584 3186 3129 
Q 3597 2675 3597 1894 
z
M 3022 2063 
Q 3016 2534 2758 2815 
Q 2500 3097 2075 3097 
Q 1594 3097 1305 2825 
Q 1016 2553 972 2059 
L 3022 2063 
z
" transform="scale(0.015625)"/>
       <path id="DejaVuSans-72" d="M 2631 2963 
Q 2534 3019 2420 3045 
Q 2306 3072 2169 3072 
Q 1681 3072 1420 2755 
Q 1159 2438 1159 1844 
L 1159 0 
L 581 0 
L 581 3500 
L 1159 3500 
L 1159 2956 
Q 1341 3275 1631 3429 
Q 1922 3584 2338 3584 
Q 2397 3584 2469 3576 
Q 2541 3569 2628 3553 
L 2631 2963 
z
" transform="scale(0.015625)"/>
       <path id="DejaVuSans-20" transform="scale(0.015625)"/>
       <path id="DejaVuSans-6f" d="M 1959 3097 
Q 1497 3097 1228 2736 
Q 959 2375 959 1747 
Q 959 1119 1226 758 
Q 1494 397 1959 397 
Q 2419 397 2687 759 
Q 2956 1122 2956 1747 
Q 2956 2369 2687 2733 
Q 2419 3097 1959 3097 
z
M 1959 3584 
Q 2709 3584 3137 3096 
Q 3566 2609 3566 1747 
Q 3566 888 3137 398 
Q 2709 -91 1959 -91 
Q 1206 -91 779 398 
Q 353 888 353 1747 
Q 353 2609 779 3096 
Q 1206 3584 1959 3584 
z
" transform="scale(0.015625)"/>
       <path id="DejaVuSans-66" d="M 2375 4863 
L 2375 4384 
L 1825 4384 
Q 1516 4384 1395 4259 
Q 1275 4134 1275 3809 
L 1275 3500 
L 2222 3500 
L 2222 3053 
L 1275 3053 
L 1275 0 
L 697 0 
L 697 3053 
L 147 3053 
L 147 3500 
L 697 3500 
L 697 3744 
Q 697 4328 969 4595 
Q 1241 4863 1831 4863 
L 2375 4863 
z
" transform="scale(0.015625)"/>
       <path id="DejaVuSans-70" d="M 1159 525 
L 1159 -1331 
L 581 -1331 
L 581 3500 
L 1159 3500 
L 1159 2969 
Q 1341 3281 1617 3432 
Q 1894 3584 2278 3584 
Q 2916 3584 3314 3078 
Q 3713 2572 3713 1747 
Q 3713 922 3314 415 
Q 2916 -91 2278 -91 
Q 1894 -91 1617 61 
Q 1341 213 1159 525 
z
M 3116 1747 
Q 3116 2381 2855 2742 
Q 2594 3103 2138 3103 
Q 1681 3103 1420 2742 
Q 1159 2381 1159 1747 
Q 1159 1113 1420 752 
Q 1681 391 2138 391 
Q 2594 391 2855 752 
Q 3116 1113 3116 1747 
z
" transform="scale(0.015625)"/>
       <path id="DejaVuSans-69" d="M 603 3500 
L 1178 3500 
L 1178 0 
L 603 0 
L 603 3500 
z
M 603 4863 
L 1178 4863 
L 1178 4134 
L 603 4134 
L 603 4863 
z
" transform="scale(0.015625)"/>
       <path id="DejaVuSans-2d" d="M 313 2009 
L 1997 2009 
L 1997 1497 
L 313 1497 
L 313 2009 
z
" transform="scale(0.015625)"/>
       <path id="DejaVuSans-73" d="M 2834 3397 
L 2834 2853 
Q 2591 2978 2328 3040 
Q 2066 3103 1784 3103 
Q 1356 3103 1142 2972 
Q 928 2841 928 2578 
Q 928 2378 1081 2264 
Q 1234 2150 1697 2047 
L 1894 2003 
Q 2506 1872 2764 1633 
Q 3022 1394 3022 966 
Q 3022 478 2636 193 
Q 2250 -91 1575 -91 
Q 1294 -91 989 -36 
Q 684 19 347 128 
L 347 722 
Q 666 556 975 473 
Q 1284 391 1588 391 
Q 1994 391 2212 530 
Q 2431 669 2431 922 
Q 2431 1156 2273 1281 
Q 2116 1406 1581 1522 
L 1381 1569 
Q 847 1681 609 1914 
Q 372 2147 372 2553 
Q 372 3047 722 3315 
Q 1072 3584 1716 3584 
Q 2034 3584 2315 3537 
Q 2597 3491 2834 3397 
z
" transform="scale(0.015625)"/>
       <path id="DejaVuSans-74" d="M 1172 4494 
L 1172 3500 
L 2356 3500 
L 2356 3053 
L 1172 3053 
L 1172 1153 
Q 1172 725 1289 603 
Q 1406 481 1766 481 
L 2356 481 
L 2356 0 
L 1766 0 
Q 1100 0 847 248 
Q 594 497 594 1153 
L 594 3053 
L 172 3053 
L 172 3500 
L 594 3500 
L 594 4494 
L 1172 4494 
z
" transform="scale(0.015625)"/>
       <path id="DejaVuSans-68" d="M 3513 2113 
L 3513 0 
L 2938 0 
L 2938 2094 
Q 2938 2591 2744 2837 
Q 2550 3084 2163 3084 
Q 1697 3084 1428 2787 
Q 1159 2491 1159 1978 
L 1159 0 
L 581 0 
L 581 4863 
L 1159 4863 
L 1159 2956 
Q 1366 3272 1645 3428 
Q 1925 3584 2291 3584 
Q 2894 3584 3203 3211 
Q 3513 2838 3513 2113 
z
" transform="scale(0.015625)"/>
      </defs>
      <use xlink:href="#DejaVuSans-4e"/>
      <use xlink:href="#DejaVuSans-75" x="74.804688"/>
      <use xlink:href="#DejaVuSans-6d" x="138.183594"/>
      <use xlink:href="#DejaVuSans-62" x="235.595703"/>
      <use xlink:href="#DejaVuSans-65" x="299.072266"/>
      <use xlink:href="#DejaVuSans-72" x="360.595703"/>
      <use xlink:href="#DejaVuSans-20" x="401.708984"/>
      <use xlink:href="#DejaVuSans-6f" x="433.496094"/>
      <use xlink:href="#DejaVuSans-66" x="494.677734"/>
      <use xlink:href="#DejaVuSans-20" x="529.882812"/>
      <use xlink:href="#DejaVuSans-70" x="561.669922"/>
      <use xlink:href="#DejaVuSans-69" x="625.146484"/>
      <use xlink:href="#DejaVuSans-70" x="652.929688"/>
      <use xlink:href="#DejaVuSans-2d" x="716.40625"/>
      <use xlink:href="#DejaVuSans-69" x="752.490234"/>
      <use xlink:href="#DejaVuSans-6e" x="780.273438"/>
      <use xlink:href="#DejaVuSans-73" x="843.652344"/>
      <use xlink:href="#DejaVuSans-74" x="895.751953"/>
      <use xlink:href="#DejaVuSans-61" x="934.960938"/>
      <use xlink:href="#DejaVuSans-6c" x="996.240234"/>
      <use xlink:href="#DejaVuSans-6c" x="1024.023438"/>
      <use xlink:href="#DejaVuSans-73" x="1051.806641"/>
      <use xlink:href="#DejaVuSans-20" x="1103.90625"/>
      <use xlink:href="#DejaVuSans-70" x="1135.693359"/>
      <use xlink:href="#DejaVuSans-65" x="1199.169922"/>
      <use xlink:href="#DejaVuSans-72" x="1260.693359"/>
      <use xlink:href="#DejaVuSans-20" x="1301.806641"/>
      <use xlink:href="#DejaVuSans-6d" x="1333.59375"/>
      <use xlink:href="#DejaVuSans-6f" x="1431.005859"/>
      <use xlink:href="#DejaVuSans-6e" x="1492.1875"/>
      <use xlink:href="#DejaVuSans-74" x="1555.566406"/>
      <use xlink:href="#DejaVuSans-68" x="1594.775391"/>
     </g>
    </g>
   </g>
   <g id="line2d_77">
    <path d="M 332.47945 361 
L 332.481675 338.502539 
L 338.324607 338.502539 
L 344.167539 328.1025 
L 350.010471 306.369604 
L 355.853403 263.662733 
L 361.696335 238.6787 
L 367.539267 225.945267 
L 373.382199 201.351088 
L 379.225131 198.357151 
L 385.068063 192.2025 
L 390.910995 199.868036 
L 396.753927 193.473195 
L 402.596859 196.32081 
L 408.439791 190.228476 
L 414.282723 191.073482 
L 420.125654 181.071972 
L 425.968586 178.366742 
L 431.811518 178.020119 
L 437.65445 178.642412 
L 443.497382 173.999545 
L 449.340314 171.043943 
L 455.183246 162.12874 
L 461.026178 157.086499 
L 466.86911 152.736463 
L 472.712042 156.14708 
L 478.554974 157.680471 
L 484.397906 158.197528 
L 490.240838 152.644857 
L 496.08377 152.599177 
L 501.926702 150.463389 
L 507.769634 149.161595 
L 513.612565 148.052333 
L 519.455497 125.852978 
L 525.298429 120.623201 
L 531.141361 119.486337 
L 536.984293 133.507961 
L 542.827225 143.864673 
L 548.670157 142.443713 
L 554.513089 141.56207 
L 560.356021 113.084037 
L 566.198953 98.072788 
L 572.041885 95.695244 
L 577.884817 102.21182 
L 583.727749 116.197216 
L 589.570681 111.110375 
L 595.413613 105.167554 
L 601.256545 98.465751 
L 607.099476 101.996398 
L 612.942408 101.468738 
L 618.78534 105.253883 
L 624.628272 96.690283 
L 630.471204 92.212564 
L 636.314136 89.325791 
L 642.157068 86.865351 
L 648 93.913821 
" clip-path="url(#p88ece42730)" style="fill: none; stroke: #1f77b4; stroke-width: 1.5; stroke-linecap: square"/>
   </g>
   <g id="line2d_78">
    <path d="M 151.350785 214.049648 
L 157.193717 195.774523 
L 163.036649 201.906698 
L 168.879581 204.532996 
L 174.722513 224.399639 
L 180.565445 203.383807 
L 186.408377 207.381828 
L 192.251309 208.406374 
L 198.094241 224.701403 
L 203.937173 216.464281 
L 209.780105 207.614655 
L 215.623037 206.471094 
L 221.465969 197.660252 
L 227.308901 192.546796 
L 233.151832 183.268554 
L 238.994764 175.007224 
L 244.837696 172.350725 
L 250.680628 173.274051 
L 256.52356 176.44632 
L 262.366492 172.9693 
L 268.209424 168.51255 
L 274.052356 161.129361 
L 279.895288 158.586513 
L 285.73822 151.299957 
L 291.581152 150.598121 
L 297.424084 148.616594 
L 303.267016 140.917278 
L 309.109948 135.41581 
L 314.95288 131.057375 
L 320.795812 136.459766 
L 326.638743 140.549453 
L 332.481675 144.696198 
L 338.324607 142.400744 
L 344.167539 138.081447 
L 350.010471 135.782778 
L 355.853403 131.434553 
L 361.696335 132.852931 
L 367.539267 133.520973 
L 373.382199 133.520973 
L 379.225131 132.827581 
L 385.068063 126.17676 
L 390.910995 125.619172 
L 396.753927 124.438416 
L 402.596859 127.93663 
L 408.439791 126.643668 
L 414.282723 122.250792 
L 420.125654 120.219671 
L 425.968586 115.826731 
L 431.811518 115.765862 
L 437.65445 111.931028 
L 443.497382 115.162868 
L 449.340314 113.631582 
L 455.183246 111.845162 
L 461.026178 107.821065 
L 466.86911 104.798201 
L 472.712042 103.216896 
L 478.554974 88.899484 
L 484.397906 90.872564 
L 490.240838 94.897599 
L 496.08377 123.362132 
L 501.926702 127.031496 
L 507.769634 127.021392 
L 513.612565 127.773134 
L 519.455497 129.320333 
L 525.298429 129.180753 
L 531.141361 127.978541 
L 536.984293 125.83368 
L 542.827225 124.794071 
L 548.670157 127.166601 
L 554.513089 133.844054 
L 560.356021 141.384604 
L 566.198953 137.751874 
L 572.041885 133.412737 
L 577.884817 127.596894 
L 583.727749 129.568301 
L 589.570681 130.546199 
L 595.413613 137.762109 
L 601.256545 137.772349 
L 607.099476 142.47445 
L 612.942408 145.918823 
L 618.78534 148.522982 
L 624.628272 146.024565 
L 630.471204 122.614024 
L 636.314136 111.607732 
L 642.157068 102.739471 
L 648 108.577613 
" clip-path="url(#p88ece42730)" style="fill: none; stroke-dasharray: 1.5,2.475; stroke-dashoffset: 0; stroke: #ff7f0e; stroke-width: 1.5"/>
   </g>
   <g id="line2d_79">
    <path d="M 151.350785 151.649413 
L 157.193717 150.187718 
L 163.036649 145.170077 
L 168.879581 139.107146 
L 174.722513 134.024826 
L 180.565445 132.621491 
L 186.408377 134.247017 
L 192.251309 134.091281 
L 198.094241 135.692903 
L 203.937173 133.594835 
L 209.780105 136.420874 
L 215.623037 136.645316 
L 221.465969 133.425701 
L 227.308901 132.667612 
L 233.151832 129.202742 
L 238.994764 132.680205 
L 244.837696 135.054019 
L 250.680628 133.137717 
L 256.52356 132.857158 
L 262.366492 129.754926 
L 268.209424 136.299713 
L 274.052356 135.137057 
L 279.895288 137.17011 
L 285.73822 132.148329 
L 291.581152 132.425357 
L 297.424084 130.469045 
L 303.267016 124.493281 
L 309.109948 120.021544 
L 314.95288 118.340054 
L 320.795812 123.496792 
L 326.638743 130.369092 
L 332.481675 131.32679 
L 338.324607 130.751785 
L 344.167539 126.567463 
L 350.010471 128.024022 
L 355.853403 125.647882 
L 361.696335 128.619152 
L 367.539267 128.748496 
L 373.382199 129.497738 
L 379.225131 130.003369 
L 385.068063 120.531525 
L 390.910995 120.818116 
L 396.753927 121.539405 
L 402.596859 132.367223 
L 408.439791 131.8824 
L 414.282723 129.379332 
L 420.125654 126.386146 
L 425.968586 116.823067 
L 431.811518 115.010619 
L 437.65445 115.850683 
L 443.497382 126.923922 
L 449.340314 127.071953 
L 455.183246 119.448711 
L 461.026178 117.339597 
L 466.86911 105.947771 
L 472.712042 99.019205 
L 478.554974 83.081492 
L 484.397906 83.613393 
L 490.240838 86.870277 
L 496.08377 102.890178 
L 501.926702 107.542227 
L 507.769634 111.642837 
L 513.612565 120.910824 
L 519.455497 128.831476 
L 525.298429 132.579635 
L 531.141361 130.177961 
L 536.984293 132.417044 
L 542.827225 132.954581 
L 548.670157 132.579635 
L 554.513089 135.229639 
L 560.356021 135.490659 
L 566.198953 136.611034 
L 572.041885 133.620955 
L 577.884817 131.793014 
L 583.727749 135.252836 
L 589.570681 137.568334 
L 595.413613 142.83995 
L 601.256545 142.229582 
L 607.099476 147.150934 
L 612.942408 151.640618 
L 618.78534 153.500235 
L 624.628272 146.003382 
L 630.471204 121.799061 
L 636.314136 122.083584 
L 642.157068 123.691242 
L 648 148.53856 
" clip-path="url(#p88ece42730)" style="fill: none; stroke-dasharray: 5.55,2.4; stroke-dashoffset: 0; stroke: #2ca02c; stroke-width: 1.5"/>
   </g>
   <g id="line2d_80">
    <path d="M 151.350785 94.266354 
L 157.193717 92.292435 
L 163.036649 92.406594 
L 168.879581 95.859592 
L 174.722513 103.642398 
L 180.565445 107.657514 
L 186.408377 112.269816 
L 192.251309 115.590586 
L 198.094241 102.484636 
L 203.937173 88.38888 
L 209.780105 86.018175 
L 215.623037 91.540991 
L 221.465969 101.840742 
L 227.308901 107.124922 
L 233.151832 104.982926 
L 238.994764 100.882344 
L 244.837696 92.049259 
L 250.680628 88.088212 
L 256.52356 90.702014 
L 262.366492 94.234446 
L 268.209424 104.128817 
L 274.052356 106.787634 
L 279.895288 108.982751 
L 285.73822 100.623559 
L 291.581152 93.301528 
L 297.424084 89.436012 
L 303.267016 92.132942 
L 309.109948 93.825978 
L 314.95288 104.714801 
L 320.795812 112.638113 
L 326.638743 117.70699 
L 332.481675 108.669653 
L 338.324607 100.90423 
L 344.167539 95.602084 
L 350.010471 94.638088 
L 355.853403 89.992747 
L 361.696335 86.445879 
L 367.539267 83.870698 
L 373.382199 82.871059 
L 379.225131 83.673594 
L 385.068063 84.498843 
L 390.910995 90.607389 
L 396.753927 101.376884 
L 402.596859 95.467896 
L 408.439791 85.065888 
L 414.282723 78.669374 
L 420.125654 78.687785 
L 425.968586 76.292784 
L 431.811518 80.480753 
L 437.65445 79.124284 
L 443.497382 82.322328 
L 449.340314 76.970821 
L 455.183246 75.813596 
L 461.026178 75.557387 
L 466.86911 79.395263 
L 472.712042 87.381389 
L 478.554974 94.826475 
L 484.397906 95.767825 
L 490.240838 101.130263 
L 496.08377 98.983063 
L 501.926702 98.466857 
L 507.769634 93.287062 
L 513.612565 97.951076 
L 519.455497 100.425797 
L 525.298429 103.876258 
L 531.141361 105.801594 
L 536.984293 103.725092 
L 542.827225 108.39126 
L 548.670157 98.99661 
L 554.513089 93.005694 
L 560.356021 90.100289 
L 566.198953 95.525037 
L 572.041885 109.591618 
L 577.884817 120.320608 
L 583.727749 130.523029 
L 589.570681 135.655155 
L 595.413613 138.415309 
L 601.256545 145.996325 
L 607.099476 151.482828 
L 612.942408 159.169485 
L 618.78534 167.6611 
L 624.628272 156.527239 
L 630.471204 131.002257 
L 636.314136 127.173375 
L 642.157068 123.949836 
L 648 137.844139 
" clip-path="url(#p88ece42730)" style="fill: none; stroke: #d62728; stroke-width: 1.5; stroke-linecap: square"/>
   </g>
   <g id="line2d_81">
    <path d="M 151.350785 227.252538 
L 157.193717 223.226879 
L 163.036649 226.590575 
L 168.879581 237.652577 
L 174.722513 243.884062 
L 180.565445 248.818335 
L 186.408377 259.808047 
L 192.251309 256.986562 
L 198.094241 244.533455 
L 203.937173 233.91512 
L 209.780105 230.085722 
L 215.623037 232.029807 
L 221.465969 229.713981 
L 227.308901 231.03935 
L 233.151832 228.630032 
L 238.994764 226.265891 
L 244.837696 228.453745 
L 250.680628 230.085722 
L 256.52356 234.353586 
L 262.366492 230.273632 
L 268.209424 234.799678 
L 274.052356 242.029063 
L 279.895288 249.607617 
L 285.73822 245.539453 
L 291.581152 243.884062 
L 297.424084 240.021921 
L 303.267016 240.579544 
L 309.109948 241.439389 
L 314.95288 250.42196 
L 320.795812 240.021921 
L 326.638743 232.436953 
L 332.481675 228.986283 
L 338.324607 238.160508 
L 344.167539 246.232729 
L 350.010471 244.206704 
L 355.853403 242.939797 
L 361.696335 247.678162 
L 367.539267 249.20994 
L 373.382199 243.250705 
L 379.225131 234.133416 
L 385.068063 232.850666 
L 390.910995 242.632612 
L 396.753927 260.411596 
L 402.596859 288.59062 
L 408.439791 279.442031 
L 414.282723 276.997358 
L 420.125654 268.200944 
L 425.968586 271.744453 
L 431.811518 275.857186 
L 437.65445 286.820976 
L 443.497382 297.221016 
L 449.340314 292.544531 
L 455.183246 306.369604 
L 461.026178 283.610585 
L 466.86911 282.144492 
L 472.712042 285.165586 
L 478.554974 280.757686 
L 484.397906 283.610585 
L 490.240838 279.442031 
L 496.08377 288.59062 
L 501.926702 279.442031 
L 507.769634 279.442031 
L 513.612565 292.544531 
L 519.455497 282.144492 
L 525.298429 279.442031 
L 531.141361 276.997358 
L 536.984293 278.19058 
L 542.827225 283.610585 
L 548.670157 282.144492 
L 554.513089 310.323515 
L 560.356021 306.369604 
L 566.198953 306.369604 
L 572.041885 299.923476 
L 577.884817 297.221016 
L 583.727749 302.94457 
L 589.570681 310.323515 
L 595.413613 310.323515 
L 601.256545 299.923476 
L 607.099476 299.923476 
L 612.942408 310.323515 
L 618.78534 338.502539 
L 618.787565 361 
M 642.153815 361 
L 642.157068 328.1025 
L 648 320.723555 
" clip-path="url(#p88ece42730)" style="fill: none; stroke-dasharray: 5.55,2.4; stroke-dashoffset: 0; stroke: #9467bd; stroke-width: 1.5"/>
   </g>
   <g id="line2d_82">
    <path d="M 151.350785 174.811175 
L 157.193717 174.854612 
L 163.036649 176.239002 
L 168.879581 175.050995 
L 174.722513 164.658258 
L 180.565445 160.032949 
L 186.408377 161.42382 
L 192.251309 165.24929 
L 198.094241 169.587219 
L 203.937173 164.893039 
L 209.780105 151.781696 
L 215.623037 147.710585 
L 221.465969 140.669565 
L 227.308901 127.665864 
L 233.151832 121.91194 
L 238.994764 117.836125 
L 244.837696 129.867557 
L 250.680628 132.255477 
L 256.52356 118.637032 
L 262.366492 116.405625 
L 268.209424 117.793791 
L 274.052356 137.350812 
L 279.895288 143.046677 
L 285.73822 149.759253 
L 291.581152 161.514113 
L 297.424084 155.535976 
L 303.267016 154.044875 
L 309.109948 151.640618 
L 314.95288 153.396447 
L 320.795812 151.71106 
L 326.638743 153.73769 
L 332.481675 157.119139 
L 338.324607 155.079474 
L 344.167539 145.417238 
L 350.010471 135.944396 
L 355.853403 136.454901 
L 361.696335 144.270468 
L 367.539267 162.341381 
L 373.382199 176.772182 
L 379.225131 172.808234 
L 385.068063 171.593126 
L 390.910995 169.961673 
L 396.753927 182.495737 
L 402.596859 170.178128 
L 408.439791 149.273603 
L 414.282723 147.432965 
L 420.125654 151.491569 
L 425.968586 164.834142 
L 431.811518 166.821112 
L 437.65445 168.957748 
L 443.497382 179.357788 
L 449.340314 181.717104 
L 455.183246 160.888636 
L 461.026178 156.43167 
L 466.86911 151.404295 
L 472.712042 159.681661 
L 478.554974 167.367212 
L 484.397906 174.659721 
L 490.240838 176.748768 
L 496.08377 168.041592 
L 501.926702 163.853046 
L 507.769634 163.376221 
L 513.612565 169.235608 
L 519.455497 174.746157 
L 525.298429 180.55101 
L 531.141361 178.466643 
L 536.984293 181.490865 
L 542.827225 189.219434 
L 548.670157 183.663874 
L 554.513089 183.208273 
L 560.356021 181.127431 
L 566.198953 200.392111 
L 572.041885 207.536811 
L 577.884817 190.748284 
L 583.727749 185.971015 
L 589.570681 184.952125 
L 595.413613 199.24171 
L 601.256545 203.918194 
L 607.099476 206.3224 
L 612.942408 209.896128 
L 618.78534 217.704725 
L 624.628272 221.030916 
L 630.471204 220.769183 
L 636.314136 222.242936 
L 642.157068 220.769183 
L 648 224.101384 
" clip-path="url(#p88ece42730)" style="fill: none; stroke-dasharray: 9.6,2.4,1.5,2.4; stroke-dashoffset: 0; stroke: #8c564b; stroke-width: 1.5"/>
   </g>
   <g id="patch_3">
    <path d="M 90 315 
L 90 43.2 
" style="fill: none; stroke: #000000; stroke-width: 0.8; stroke-linejoin: miter; stroke-linecap: square"/>
   </g>
   <g id="patch_4">
    <path d="M 648 315 
L 648 43.2 
" style="fill: none; stroke: #000000; stroke-width: 0.8; stroke-linejoin: miter; stroke-linecap: square"/>
   </g>
   <g id="patch_5">
    <path d="M 90 315 
L 648 315 
" style="fill: none; stroke: #000000; stroke-width: 0.8; stroke-linejoin: miter; stroke-linecap: square"/>
   </g>
   <g id="patch_6">
    <path d="M 90 43.2 
L 648 43.2 
" style="fill: none; stroke: #000000; stroke-width: 0.8; stroke-linejoin: miter; stroke-linecap: square"/>
   </g>
   <g id="text_12">
    <!-- Python version of Uproot users, all operating systems -->
    <g transform="translate(207.975938 37.2)scale(0.12 -0.12)">
     <defs>
      <path id="DejaVuSans-50" d="M 1259 4147 
L 1259 2394 
L 2053 2394 
Q 2494 2394 2734 2622 
Q 2975 2850 2975 3272 
Q 2975 3691 2734 3919 
Q 2494 4147 2053 4147 
L 1259 4147 
z
M 628 4666 
L 2053 4666 
Q 2838 4666 3239 4311 
Q 3641 3956 3641 3272 
Q 3641 2581 3239 2228 
Q 2838 1875 2053 1875 
L 1259 1875 
L 1259 0 
L 628 0 
L 628 4666 
z
" transform="scale(0.015625)"/>
      <path id="DejaVuSans-79" d="M 2059 -325 
Q 1816 -950 1584 -1140 
Q 1353 -1331 966 -1331 
L 506 -1331 
L 506 -850 
L 844 -850 
Q 1081 -850 1212 -737 
Q 1344 -625 1503 -206 
L 1606 56 
L 191 3500 
L 800 3500 
L 1894 763 
L 2988 3500 
L 3597 3500 
L 2059 -325 
z
" transform="scale(0.015625)"/>
      <path id="DejaVuSans-76" d="M 191 3500 
L 800 3500 
L 1894 563 
L 2988 3500 
L 3597 3500 
L 2284 0 
L 1503 0 
L 191 3500 
z
" transform="scale(0.015625)"/>
      <path id="DejaVuSans-55" d="M 556 4666 
L 1191 4666 
L 1191 1831 
Q 1191 1081 1462 751 
Q 1734 422 2344 422 
Q 2950 422 3222 751 
Q 3494 1081 3494 1831 
L 3494 4666 
L 4128 4666 
L 4128 1753 
Q 4128 841 3676 375 
Q 3225 -91 2344 -91 
Q 1459 -91 1007 375 
Q 556 841 556 1753 
L 556 4666 
z
" transform="scale(0.015625)"/>
      <path id="DejaVuSans-2c" d="M 750 794 
L 1409 794 
L 1409 256 
L 897 -744 
L 494 -744 
L 750 256 
L 750 794 
z
" transform="scale(0.015625)"/>
      <path id="DejaVuSans-67" d="M 2906 1791 
Q 2906 2416 2648 2759 
Q 2391 3103 1925 3103 
Q 1463 3103 1205 2759 
Q 947 2416 947 1791 
Q 947 1169 1205 825 
Q 1463 481 1925 481 
Q 2391 481 2648 825 
Q 2906 1169 2906 1791 
z
M 3481 434 
Q 3481 -459 3084 -895 
Q 2688 -1331 1869 -1331 
Q 1566 -1331 1297 -1286 
Q 1028 -1241 775 -1147 
L 775 -588 
Q 1028 -725 1275 -790 
Q 1522 -856 1778 -856 
Q 2344 -856 2625 -561 
Q 2906 -266 2906 331 
L 2906 616 
Q 2728 306 2450 153 
Q 2172 0 1784 0 
Q 1141 0 747 490 
Q 353 981 353 1791 
Q 353 2603 747 3093 
Q 1141 3584 1784 3584 
Q 2172 3584 2450 3431 
Q 2728 3278 2906 2969 
L 2906 3500 
L 3481 3500 
L 3481 434 
z
" transform="scale(0.015625)"/>
     </defs>
     <use xlink:href="#DejaVuSans-50"/>
     <use xlink:href="#DejaVuSans-79" x="60.302734"/>
     <use xlink:href="#DejaVuSans-74" x="119.482422"/>
     <use xlink:href="#DejaVuSans-68" x="158.691406"/>
     <use xlink:href="#DejaVuSans-6f" x="222.070312"/>
     <use xlink:href="#DejaVuSans-6e" x="283.251953"/>
     <use xlink:href="#DejaVuSans-20" x="346.630859"/>
     <use xlink:href="#DejaVuSans-76" x="378.417969"/>
     <use xlink:href="#DejaVuSans-65" x="437.597656"/>
     <use xlink:href="#DejaVuSans-72" x="499.121094"/>
     <use xlink:href="#DejaVuSans-73" x="540.234375"/>
     <use xlink:href="#DejaVuSans-69" x="592.333984"/>
     <use xlink:href="#DejaVuSans-6f" x="620.117188"/>
     <use xlink:href="#DejaVuSans-6e" x="681.298828"/>
     <use xlink:href="#DejaVuSans-20" x="744.677734"/>
     <use xlink:href="#DejaVuSans-6f" x="776.464844"/>
     <use xlink:href="#DejaVuSans-66" x="837.646484"/>
     <use xlink:href="#DejaVuSans-20" x="872.851562"/>
     <use xlink:href="#DejaVuSans-55" x="904.638672"/>
     <use xlink:href="#DejaVuSans-70" x="977.832031"/>
     <use xlink:href="#DejaVuSans-72" x="1041.308594"/>
     <use xlink:href="#DejaVuSans-6f" x="1080.171875"/>
     <use xlink:href="#DejaVuSans-6f" x="1141.353516"/>
     <use xlink:href="#DejaVuSans-74" x="1202.535156"/>
     <use xlink:href="#DejaVuSans-20" x="1241.744141"/>
     <use xlink:href="#DejaVuSans-75" x="1273.53125"/>
     <use xlink:href="#DejaVuSans-73" x="1336.910156"/>
     <use xlink:href="#DejaVuSans-65" x="1389.009766"/>
     <use xlink:href="#DejaVuSans-72" x="1450.533203"/>
     <use xlink:href="#DejaVuSans-73" x="1491.646484"/>
     <use xlink:href="#DejaVuSans-2c" x="1543.746094"/>
     <use xlink:href="#DejaVuSans-20" x="1575.533203"/>
     <use xlink:href="#DejaVuSans-61" x="1607.320312"/>
     <use xlink:href="#DejaVuSans-6c" x="1668.599609"/>
     <use xlink:href="#DejaVuSans-6c" x="1696.382812"/>
     <use xlink:href="#DejaVuSans-20" x="1724.166016"/>
     <use xlink:href="#DejaVuSans-6f" x="1755.953125"/>
     <use xlink:href="#DejaVuSans-70" x="1817.134766"/>
     <use xlink:href="#DejaVuSans-65" x="1880.611328"/>
     <use xlink:href="#DejaVuSans-72" x="1942.134766"/>
     <use xlink:href="#DejaVuSans-61" x="1983.248047"/>
     <use xlink:href="#DejaVuSans-74" x="2044.527344"/>
     <use xlink:href="#DejaVuSans-69" x="2083.736328"/>
     <use xlink:href="#DejaVuSans-6e" x="2111.519531"/>
     <use xlink:href="#DejaVuSans-67" x="2174.898438"/>
     <use xlink:href="#DejaVuSans-20" x="2238.375"/>
     <use xlink:href="#DejaVuSans-73" x="2270.162109"/>
     <use xlink:href="#DejaVuSans-79" x="2322.261719"/>
     <use xlink:href="#DejaVuSans-73" x="2381.441406"/>
     <use xlink:href="#DejaVuSans-74" x="2433.541016"/>
     <use xlink:href="#DejaVuSans-65" x="2472.75"/>
     <use xlink:href="#DejaVuSans-6d" x="2534.273438"/>
     <use xlink:href="#DejaVuSans-73" x="2631.685547"/>
    </g>
   </g>
   <g id="legend_1">
    <g id="patch_7">
     <path d="M 97 139.26875 
L 144.903125 139.26875 
Q 146.903125 139.26875 146.903125 137.26875 
L 146.903125 50.2 
Q 146.903125 48.2 144.903125 48.2 
L 97 48.2 
Q 95 48.2 95 50.2 
L 95 137.26875 
Q 95 139.26875 97 139.26875 
z
" style="fill: #ffffff; opacity: 0.8; stroke: #cccccc; stroke-linejoin: miter"/>
    </g>
    <g id="line2d_83">
     <path d="M 99 56.298437 
L 109 56.298437 
L 119 56.298437 
" style="fill: none; stroke: #1f77b4; stroke-width: 1.5; stroke-linecap: square"/>
    </g>
    <g id="text_13">
     <!-- 3.9 -->
     <g transform="translate(127 59.798437)scale(0.1 -0.1)">
      <defs>
       <path id="DejaVuSans-2e" d="M 684 794 
L 1344 794 
L 1344 0 
L 684 0 
L 684 794 
z
" transform="scale(0.015625)"/>
       <path id="DejaVuSans-39" d="M 703 97 
L 703 672 
Q 941 559 1184 500 
Q 1428 441 1663 441 
Q 2288 441 2617 861 
Q 2947 1281 2994 2138 
Q 2813 1869 2534 1725 
Q 2256 1581 1919 1581 
Q 1219 1581 811 2004 
Q 403 2428 403 3163 
Q 403 3881 828 4315 
Q 1253 4750 1959 4750 
Q 2769 4750 3195 4129 
Q 3622 3509 3622 2328 
Q 3622 1225 3098 567 
Q 2575 -91 1691 -91 
Q 1453 -91 1209 -44 
Q 966 3 703 97 
z
M 1959 2075 
Q 2384 2075 2632 2365 
Q 2881 2656 2881 3163 
Q 2881 3666 2632 3958 
Q 2384 4250 1959 4250 
Q 1534 4250 1286 3958 
Q 1038 3666 1038 3163 
Q 1038 2656 1286 2365 
Q 1534 2075 1959 2075 
z
" transform="scale(0.015625)"/>
      </defs>
      <use xlink:href="#DejaVuSans-33"/>
      <use xlink:href="#DejaVuSans-2e" x="63.623047"/>
      <use xlink:href="#DejaVuSans-39" x="95.410156"/>
     </g>
    </g>
    <g id="line2d_84">
     <path d="M 99 70.976562 
L 109 70.976562 
L 119 70.976562 
" style="fill: none; stroke-dasharray: 1.5,2.475; stroke-dashoffset: 0; stroke: #ff7f0e; stroke-width: 1.5"/>
    </g>
    <g id="text_14">
     <!-- 3.8 -->
     <g transform="translate(127 74.476562)scale(0.1 -0.1)">
      <defs>
       <path id="DejaVuSans-38" d="M 2034 2216 
Q 1584 2216 1326 1975 
Q 1069 1734 1069 1313 
Q 1069 891 1326 650 
Q 1584 409 2034 409 
Q 2484 409 2743 651 
Q 3003 894 3003 1313 
Q 3003 1734 2745 1975 
Q 2488 2216 2034 2216 
z
M 1403 2484 
Q 997 2584 770 2862 
Q 544 3141 544 3541 
Q 544 4100 942 4425 
Q 1341 4750 2034 4750 
Q 2731 4750 3128 4425 
Q 3525 4100 3525 3541 
Q 3525 3141 3298 2862 
Q 3072 2584 2669 2484 
Q 3125 2378 3379 2068 
Q 3634 1759 3634 1313 
Q 3634 634 3220 271 
Q 2806 -91 2034 -91 
Q 1263 -91 848 271 
Q 434 634 434 1313 
Q 434 1759 690 2068 
Q 947 2378 1403 2484 
z
M 1172 3481 
Q 1172 3119 1398 2916 
Q 1625 2713 2034 2713 
Q 2441 2713 2670 2916 
Q 2900 3119 2900 3481 
Q 2900 3844 2670 4047 
Q 2441 4250 2034 4250 
Q 1625 4250 1398 4047 
Q 1172 3844 1172 3481 
z
" transform="scale(0.015625)"/>
      </defs>
      <use xlink:href="#DejaVuSans-33"/>
      <use xlink:href="#DejaVuSans-2e" x="63.623047"/>
      <use xlink:href="#DejaVuSans-38" x="95.410156"/>
     </g>
    </g>
    <g id="line2d_85">
     <path d="M 99 85.654687 
L 109 85.654687 
L 119 85.654687 
" style="fill: none; stroke-dasharray: 5.55,2.4; stroke-dashoffset: 0; stroke: #2ca02c; stroke-width: 1.5"/>
    </g>
    <g id="text_15">
     <!-- 3.7 -->
     <g transform="translate(127 89.154687)scale(0.1 -0.1)">
      <defs>
       <path id="DejaVuSans-37" d="M 525 4666 
L 3525 4666 
L 3525 4397 
L 1831 0 
L 1172 0 
L 2766 4134 
L 525 4134 
L 525 4666 
z
" transform="scale(0.015625)"/>
      </defs>
      <use xlink:href="#DejaVuSans-33"/>
      <use xlink:href="#DejaVuSans-2e" x="63.623047"/>
      <use xlink:href="#DejaVuSans-37" x="95.410156"/>
     </g>
    </g>
    <g id="line2d_86">
     <path d="M 99 100.332812 
L 109 100.332812 
L 119 100.332812 
" style="fill: none; stroke: #d62728; stroke-width: 1.5; stroke-linecap: square"/>
    </g>
    <g id="text_16">
     <!-- 3.6 -->
     <g transform="translate(127 103.832812)scale(0.1 -0.1)">
      <defs>
       <path id="DejaVuSans-36" d="M 2113 2584 
Q 1688 2584 1439 2293 
Q 1191 2003 1191 1497 
Q 1191 994 1439 701 
Q 1688 409 2113 409 
Q 2538 409 2786 701 
Q 3034 994 3034 1497 
Q 3034 2003 2786 2293 
Q 2538 2584 2113 2584 
z
M 3366 4563 
L 3366 3988 
Q 3128 4100 2886 4159 
Q 2644 4219 2406 4219 
Q 1781 4219 1451 3797 
Q 1122 3375 1075 2522 
Q 1259 2794 1537 2939 
Q 1816 3084 2150 3084 
Q 2853 3084 3261 2657 
Q 3669 2231 3669 1497 
Q 3669 778 3244 343 
Q 2819 -91 2113 -91 
Q 1303 -91 875 529 
Q 447 1150 447 2328 
Q 447 3434 972 4092 
Q 1497 4750 2381 4750 
Q 2619 4750 2861 4703 
Q 3103 4656 3366 4563 
z
" transform="scale(0.015625)"/>
      </defs>
      <use xlink:href="#DejaVuSans-33"/>
      <use xlink:href="#DejaVuSans-2e" x="63.623047"/>
      <use xlink:href="#DejaVuSans-36" x="95.410156"/>
     </g>
    </g>
    <g id="line2d_87">
     <path d="M 99 115.010937 
L 109 115.010937 
L 119 115.010937 
" style="fill: none; stroke-dasharray: 5.55,2.4; stroke-dashoffset: 0; stroke: #9467bd; stroke-width: 1.5"/>
    </g>
    <g id="text_17">
     <!-- 3.5 -->
     <g transform="translate(127 118.510937)scale(0.1 -0.1)">
      <use xlink:href="#DejaVuSans-33"/>
      <use xlink:href="#DejaVuSans-2e" x="63.623047"/>
      <use xlink:href="#DejaVuSans-35" x="95.410156"/>
     </g>
    </g>
    <g id="line2d_88">
     <path d="M 99 129.689062 
L 109 129.689062 
L 119 129.689062 
" style="fill: none; stroke-dasharray: 9.6,2.4,1.5,2.4; stroke-dashoffset: 0; stroke: #8c564b; stroke-width: 1.5"/>
    </g>
    <g id="text_18">
     <!-- 2.7 -->
     <g transform="translate(127 133.189062)scale(0.1 -0.1)">
      <use xlink:href="#DejaVuSans-32"/>
      <use xlink:href="#DejaVuSans-2e" x="63.623047"/>
      <use xlink:href="#DejaVuSans-37" x="95.410156"/>
     </g>
    </g>
   </g>
  </g>
 </g>
 <defs>
  <clipPath id="p88ece42730">
   <rect x="90" y="43.2" width="558" height="271.8"/>
  </clipPath>
 </defs>
</svg>
