<?xml version="1.0" encoding="utf-8" standalone="no"?>
<!DOCTYPE svg PUBLIC "-//W3C//DTD SVG 1.1//EN"
  "http://www.w3.org/Graphics/SVG/1.1/DTD/svg11.dtd">
<svg xmlns:xlink="http://www.w3.org/1999/xlink" width="720pt" height="360pt" viewBox="0 0 720 360" xmlns="http://www.w3.org/2000/svg" version="1.1">
 <metadata>
  <rdf:RDF xmlns:dc="http://purl.org/dc/elements/1.1/" xmlns:cc="http://creativecommons.org/ns#" xmlns:rdf="http://www.w3.org/1999/02/22-rdf-syntax-ns#">
   <cc:Work>
    <dc:type rdf:resource="http://purl.org/dc/dcmitype/StillImage"/>
    <dc:date>2022-03-05T16:20:15.544623</dc:date>
    <dc:format>image/svg+xml</dc:format>
    <dc:creator>
     <cc:Agent>
      <dc:title>Matplotlib v3.5.1, https://matplotlib.org/</dc:title>
     </cc:Agent>
    </dc:creator>
   </cc:Work>
  </rdf:RDF>
 </metadata>
 <defs>
  <style type="text/css">*{stroke-linejoin: round; stroke-linecap: butt}</style>
 </defs>
 <g id="figure_1">
  <g id="patch_1">
   <path d="M 0 360 
L 720 360 
L 720 0 
L 0 0 
L 0 360 
z
" style="fill: none"/>
  </g>
  <g id="axes_1">
   <g id="patch_2">
    <path d="M 90 315 
L 648 315 
L 648 43.2 
L 90 43.2 
z
" style="fill: #ffffff"/>
   </g>
   <g id="matplotlib.axis_1">
    <g id="xtick_1">
     <g id="line2d_1">
      <defs>
       <path id="ma5b1b2c880" d="M 0 0 
L 0 3.5 
" style="stroke: #000000; stroke-width: 0.8"/>
      </defs>
      <g>
       <use xlink:href="#ma5b1b2c880" x="90" y="315" style="stroke: #000000; stroke-width: 0.8"/>
      </g>
     </g>
     <g id="text_1">
      <!-- 2017 -->
      <g transform="translate(77.275 329.598437)scale(0.1 -0.1)">
       <defs>
        <path id="DejaVuSans-32" d="M 1228 531 
L 3431 531 
L 3431 0 
L 469 0 
L 469 531 
Q 828 903 1448 1529 
Q 2069 2156 2228 2338 
Q 2531 2678 2651 2914 
Q 2772 3150 2772 3378 
Q 2772 3750 2511 3984 
Q 2250 4219 1831 4219 
Q 1534 4219 1204 4116 
Q 875 4013 500 3803 
L 500 4441 
Q 881 4594 1212 4672 
Q 1544 4750 1819 4750 
Q 2544 4750 2975 4387 
Q 3406 4025 3406 3419 
Q 3406 3131 3298 2873 
Q 3191 2616 2906 2266 
Q 2828 2175 2409 1742 
Q 1991 1309 1228 531 
z
" transform="scale(0.015625)"/>
        <path id="DejaVuSans-30" d="M 2034 4250 
Q 1547 4250 1301 3770 
Q 1056 3291 1056 2328 
Q 1056 1369 1301 889 
Q 1547 409 2034 409 
Q 2525 409 2770 889 
Q 3016 1369 3016 2328 
Q 3016 3291 2770 3770 
Q 2525 4250 2034 4250 
z
M 2034 4750 
Q 2819 4750 3233 4129 
Q 3647 3509 3647 2328 
Q 3647 1150 3233 529 
Q 2819 -91 2034 -91 
Q 1250 -91 836 529 
Q 422 1150 422 2328 
Q 422 3509 836 4129 
Q 1250 4750 2034 4750 
z
" transform="scale(0.015625)"/>
        <path id="DejaVuSans-31" d="M 794 531 
L 1825 531 
L 1825 4091 
L 703 3866 
L 703 4441 
L 1819 4666 
L 2450 4666 
L 2450 531 
L 3481 531 
L 3481 0 
L 794 0 
L 794 531 
z
" transform="scale(0.015625)"/>
        <path id="DejaVuSans-37" d="M 525 4666 
L 3525 4666 
L 3525 4397 
L 1831 0 
L 1172 0 
L 2766 4134 
L 525 4134 
L 525 4666 
z
" transform="scale(0.015625)"/>
       </defs>
       <use xlink:href="#DejaVuSans-32"/>
       <use xlink:href="#DejaVuSans-30" x="63.623047"/>
       <use xlink:href="#DejaVuSans-31" x="127.246094"/>
       <use xlink:href="#DejaVuSans-37" x="190.869141"/>
      </g>
     </g>
    </g>
    <g id="xtick_2">
     <g id="line2d_2">
      <g>
       <use xlink:href="#ma5b1b2c880" x="198.335106" y="315" style="stroke: #000000; stroke-width: 0.8"/>
      </g>
     </g>
     <g id="text_2">
      <!-- 2018 -->
      <g transform="translate(185.610106 329.598437)scale(0.1 -0.1)">
       <defs>
        <path id="DejaVuSans-38" d="M 2034 2216 
Q 1584 2216 1326 1975 
Q 1069 1734 1069 1313 
Q 1069 891 1326 650 
Q 1584 409 2034 409 
Q 2484 409 2743 651 
Q 3003 894 3003 1313 
Q 3003 1734 2745 1975 
Q 2488 2216 2034 2216 
z
M 1403 2484 
Q 997 2584 770 2862 
Q 544 3141 544 3541 
Q 544 4100 942 4425 
Q 1341 4750 2034 4750 
Q 2731 4750 3128 4425 
Q 3525 4100 3525 3541 
Q 3525 3141 3298 2862 
Q 3072 2584 2669 2484 
Q 3125 2378 3379 2068 
Q 3634 1759 3634 1313 
Q 3634 634 3220 271 
Q 2806 -91 2034 -91 
Q 1263 -91 848 271 
Q 434 634 434 1313 
Q 434 1759 690 2068 
Q 947 2378 1403 2484 
z
M 1172 3481 
Q 1172 3119 1398 2916 
Q 1625 2713 2034 2713 
Q 2441 2713 2670 2916 
Q 2900 3119 2900 3481 
Q 2900 3844 2670 4047 
Q 2441 4250 2034 4250 
Q 1625 4250 1398 4047 
Q 1172 3844 1172 3481 
z
" transform="scale(0.015625)"/>
       </defs>
       <use xlink:href="#DejaVuSans-32"/>
       <use xlink:href="#DejaVuSans-30" x="63.623047"/>
       <use xlink:href="#DejaVuSans-31" x="127.246094"/>
       <use xlink:href="#DejaVuSans-38" x="190.869141"/>
      </g>
     </g>
    </g>
    <g id="xtick_3">
     <g id="line2d_3">
      <g>
       <use xlink:href="#ma5b1b2c880" x="306.670213" y="315" style="stroke: #000000; stroke-width: 0.8"/>
      </g>
     </g>
     <g id="text_3">
      <!-- 2019 -->
      <g transform="translate(293.945213 329.598437)scale(0.1 -0.1)">
       <defs>
        <path id="DejaVuSans-39" d="M 703 97 
L 703 672 
Q 941 559 1184 500 
Q 1428 441 1663 441 
Q 2288 441 2617 861 
Q 2947 1281 2994 2138 
Q 2813 1869 2534 1725 
Q 2256 1581 1919 1581 
Q 1219 1581 811 2004 
Q 403 2428 403 3163 
Q 403 3881 828 4315 
Q 1253 4750 1959 4750 
Q 2769 4750 3195 4129 
Q 3622 3509 3622 2328 
Q 3622 1225 3098 567 
Q 2575 -91 1691 -91 
Q 1453 -91 1209 -44 
Q 966 3 703 97 
z
M 1959 2075 
Q 2384 2075 2632 2365 
Q 2881 2656 2881 3163 
Q 2881 3666 2632 3958 
Q 2384 4250 1959 4250 
Q 1534 4250 1286 3958 
Q 1038 3666 1038 3163 
Q 1038 2656 1286 2365 
Q 1534 2075 1959 2075 
z
" transform="scale(0.015625)"/>
       </defs>
       <use xlink:href="#DejaVuSans-32"/>
       <use xlink:href="#DejaVuSans-30" x="63.623047"/>
       <use xlink:href="#DejaVuSans-31" x="127.246094"/>
       <use xlink:href="#DejaVuSans-39" x="190.869141"/>
      </g>
     </g>
    </g>
    <g id="xtick_4">
     <g id="line2d_4">
      <g>
       <use xlink:href="#ma5b1b2c880" x="415.005319" y="315" style="stroke: #000000; stroke-width: 0.8"/>
      </g>
     </g>
     <g id="text_4">
      <!-- 2020 -->
      <g transform="translate(402.280319 329.598437)scale(0.1 -0.1)">
       <use xlink:href="#DejaVuSans-32"/>
       <use xlink:href="#DejaVuSans-30" x="63.623047"/>
       <use xlink:href="#DejaVuSans-32" x="127.246094"/>
       <use xlink:href="#DejaVuSans-30" x="190.869141"/>
      </g>
     </g>
    </g>
    <g id="xtick_5">
     <g id="line2d_5">
      <g>
       <use xlink:href="#ma5b1b2c880" x="523.637234" y="315" style="stroke: #000000; stroke-width: 0.8"/>
      </g>
     </g>
     <g id="text_5">
      <!-- 2021 -->
      <g transform="translate(510.912234 329.598437)scale(0.1 -0.1)">
       <use xlink:href="#DejaVuSans-32"/>
       <use xlink:href="#DejaVuSans-30" x="63.623047"/>
       <use xlink:href="#DejaVuSans-32" x="127.246094"/>
       <use xlink:href="#DejaVuSans-31" x="190.869141"/>
      </g>
     </g>
    </g>
    <g id="xtick_6">
     <g id="line2d_6">
      <g>
       <use xlink:href="#ma5b1b2c880" x="631.97234" y="315" style="stroke: #000000; stroke-width: 0.8"/>
      </g>
     </g>
     <g id="text_6">
      <!-- 2022 -->
      <g transform="translate(619.24734 329.598437)scale(0.1 -0.1)">
       <use xlink:href="#DejaVuSans-32"/>
       <use xlink:href="#DejaVuSans-30" x="63.623047"/>
       <use xlink:href="#DejaVuSans-32" x="127.246094"/>
       <use xlink:href="#DejaVuSans-32" x="190.869141"/>
      </g>
     </g>
    </g>
    <g id="xtick_7">
     <g id="line2d_7">
      <g>
       <use xlink:href="#ma5b1b2c880" x="648" y="315" style="stroke: #000000; stroke-width: 0.8"/>
      </g>
     </g>
    </g>
    <g id="xtick_8">
     <g id="line2d_8">
      <defs>
       <path id="m352fc1d30d" d="M 0 0 
L 0 2 
" style="stroke: #000000; stroke-width: 0.6"/>
      </defs>
      <g>
       <use xlink:href="#m352fc1d30d" x="116.712766" y="315" style="stroke: #000000; stroke-width: 0.6"/>
      </g>
     </g>
    </g>
    <g id="xtick_9">
     <g id="line2d_9">
      <g>
       <use xlink:href="#m352fc1d30d" x="143.72234" y="315" style="stroke: #000000; stroke-width: 0.6"/>
      </g>
     </g>
    </g>
    <g id="xtick_10">
     <g id="line2d_10">
      <g>
       <use xlink:href="#m352fc1d30d" x="171.028723" y="315" style="stroke: #000000; stroke-width: 0.6"/>
      </g>
     </g>
    </g>
    <g id="xtick_11">
     <g id="line2d_11">
      <g>
       <use xlink:href="#m352fc1d30d" x="225.047872" y="315" style="stroke: #000000; stroke-width: 0.6"/>
      </g>
     </g>
    </g>
    <g id="xtick_12">
     <g id="line2d_12">
      <g>
       <use xlink:href="#m352fc1d30d" x="252.057447" y="315" style="stroke: #000000; stroke-width: 0.6"/>
      </g>
     </g>
    </g>
    <g id="xtick_13">
     <g id="line2d_13">
      <g>
       <use xlink:href="#m352fc1d30d" x="279.36383" y="315" style="stroke: #000000; stroke-width: 0.6"/>
      </g>
     </g>
    </g>
    <g id="xtick_14">
     <g id="line2d_14">
      <g>
       <use xlink:href="#m352fc1d30d" x="333.382979" y="315" style="stroke: #000000; stroke-width: 0.6"/>
      </g>
     </g>
    </g>
    <g id="xtick_15">
     <g id="line2d_15">
      <g>
       <use xlink:href="#m352fc1d30d" x="360.392553" y="315" style="stroke: #000000; stroke-width: 0.6"/>
      </g>
     </g>
    </g>
    <g id="xtick_16">
     <g id="line2d_16">
      <g>
       <use xlink:href="#m352fc1d30d" x="387.698936" y="315" style="stroke: #000000; stroke-width: 0.6"/>
      </g>
     </g>
    </g>
    <g id="xtick_17">
     <g id="line2d_17">
      <g>
       <use xlink:href="#m352fc1d30d" x="442.014894" y="315" style="stroke: #000000; stroke-width: 0.6"/>
      </g>
     </g>
    </g>
    <g id="xtick_18">
     <g id="line2d_18">
      <g>
       <use xlink:href="#m352fc1d30d" x="469.024468" y="315" style="stroke: #000000; stroke-width: 0.6"/>
      </g>
     </g>
    </g>
    <g id="xtick_19">
     <g id="line2d_19">
      <g>
       <use xlink:href="#m352fc1d30d" x="496.330851" y="315" style="stroke: #000000; stroke-width: 0.6"/>
      </g>
     </g>
    </g>
    <g id="xtick_20">
     <g id="line2d_20">
      <g>
       <use xlink:href="#m352fc1d30d" x="550.35" y="315" style="stroke: #000000; stroke-width: 0.6"/>
      </g>
     </g>
    </g>
    <g id="xtick_21">
     <g id="line2d_21">
      <g>
       <use xlink:href="#m352fc1d30d" x="577.359574" y="315" style="stroke: #000000; stroke-width: 0.6"/>
      </g>
     </g>
    </g>
    <g id="xtick_22">
     <g id="line2d_22">
      <g>
       <use xlink:href="#m352fc1d30d" x="604.665957" y="315" style="stroke: #000000; stroke-width: 0.6"/>
      </g>
     </g>
    </g>
   </g>
   <g id="matplotlib.axis_2">
    <g id="ytick_1">
     <g id="line2d_23">
      <defs>
       <path id="m5cf20fe303" d="M 0 0 
L -3.5 0 
" style="stroke: #000000; stroke-width: 0.8"/>
      </defs>
      <g>
       <use xlink:href="#m5cf20fe303" x="90" y="290.213811" style="stroke: #000000; stroke-width: 0.8"/>
      </g>
     </g>
     <g id="text_7">
      <!-- $\mathdefault{10^{1}}$ -->
      <g transform="translate(65.4 294.01303)scale(0.1 -0.1)">
       <use xlink:href="#DejaVuSans-31" transform="translate(0 0.684375)"/>
       <use xlink:href="#DejaVuSans-30" transform="translate(63.623047 0.684375)"/>
       <use xlink:href="#DejaVuSans-31" transform="translate(128.203125 38.965625)scale(0.7)"/>
      </g>
     </g>
    </g>
    <g id="ytick_2">
     <g id="line2d_24">
      <g>
       <use xlink:href="#m5cf20fe303" x="90" y="207.875874" style="stroke: #000000; stroke-width: 0.8"/>
      </g>
     </g>
     <g id="text_8">
      <!-- $\mathdefault{10^{2}}$ -->
      <g transform="translate(65.4 211.675093)scale(0.1 -0.1)">
       <use xlink:href="#DejaVuSans-31" transform="translate(0 0.765625)"/>
       <use xlink:href="#DejaVuSans-30" transform="translate(63.623047 0.765625)"/>
       <use xlink:href="#DejaVuSans-32" transform="translate(128.203125 39.046875)scale(0.7)"/>
      </g>
     </g>
    </g>
    <g id="ytick_3">
     <g id="line2d_25">
      <g>
       <use xlink:href="#m5cf20fe303" x="90" y="125.537937" style="stroke: #000000; stroke-width: 0.8"/>
      </g>
     </g>
     <g id="text_9">
      <!-- $\mathdefault{10^{3}}$ -->
      <g transform="translate(65.4 129.337156)scale(0.1 -0.1)">
       <defs>
        <path id="DejaVuSans-33" d="M 2597 2516 
Q 3050 2419 3304 2112 
Q 3559 1806 3559 1356 
Q 3559 666 3084 287 
Q 2609 -91 1734 -91 
Q 1441 -91 1130 -33 
Q 819 25 488 141 
L 488 750 
Q 750 597 1062 519 
Q 1375 441 1716 441 
Q 2309 441 2620 675 
Q 2931 909 2931 1356 
Q 2931 1769 2642 2001 
Q 2353 2234 1838 2234 
L 1294 2234 
L 1294 2753 
L 1863 2753 
Q 2328 2753 2575 2939 
Q 2822 3125 2822 3475 
Q 2822 3834 2567 4026 
Q 2313 4219 1838 4219 
Q 1578 4219 1281 4162 
Q 984 4106 628 3988 
L 628 4550 
Q 988 4650 1302 4700 
Q 1616 4750 1894 4750 
Q 2613 4750 3031 4423 
Q 3450 4097 3450 3541 
Q 3450 3153 3228 2886 
Q 3006 2619 2597 2516 
z
" transform="scale(0.015625)"/>
       </defs>
       <use xlink:href="#DejaVuSans-31" transform="translate(0 0.765625)"/>
       <use xlink:href="#DejaVuSans-30" transform="translate(63.623047 0.765625)"/>
       <use xlink:href="#DejaVuSans-33" transform="translate(128.203125 39.046875)scale(0.7)"/>
      </g>
     </g>
    </g>
    <g id="ytick_4">
     <g id="line2d_26">
      <g>
       <use xlink:href="#m5cf20fe303" x="90" y="43.2" style="stroke: #000000; stroke-width: 0.8"/>
      </g>
     </g>
     <g id="text_10">
      <!-- $\mathdefault{10^{4}}$ -->
      <g transform="translate(65.4 46.999219)scale(0.1 -0.1)">
       <defs>
        <path id="DejaVuSans-34" d="M 2419 4116 
L 825 1625 
L 2419 1625 
L 2419 4116 
z
M 2253 4666 
L 3047 4666 
L 3047 1625 
L 3713 1625 
L 3713 1100 
L 3047 1100 
L 3047 0 
L 2419 0 
L 2419 1100 
L 313 1100 
L 313 1709 
L 2253 4666 
z
" transform="scale(0.015625)"/>
       </defs>
       <use xlink:href="#DejaVuSans-31" transform="translate(0 0.684375)"/>
       <use xlink:href="#DejaVuSans-30" transform="translate(63.623047 0.684375)"/>
       <use xlink:href="#DejaVuSans-34" transform="translate(128.203125 38.965625)scale(0.7)"/>
      </g>
     </g>
    </g>
    <g id="ytick_5">
     <g id="line2d_27">
      <defs>
       <path id="m96019567bf" d="M 0 0 
L -2 0 
" style="stroke: #000000; stroke-width: 0.6"/>
      </defs>
      <g>
       <use xlink:href="#m96019567bf" x="90" y="315" style="stroke: #000000; stroke-width: 0.6"/>
      </g>
     </g>
    </g>
    <g id="ytick_6">
     <g id="line2d_28">
      <g>
       <use xlink:href="#m96019567bf" x="90" y="308.48038" style="stroke: #000000; stroke-width: 0.6"/>
      </g>
     </g>
    </g>
    <g id="ytick_7">
     <g id="line2d_29">
      <g>
       <use xlink:href="#m96019567bf" x="90" y="302.968119" style="stroke: #000000; stroke-width: 0.6"/>
      </g>
     </g>
    </g>
    <g id="ytick_8">
     <g id="line2d_30">
      <g>
       <use xlink:href="#m96019567bf" x="90" y="298.193182" style="stroke: #000000; stroke-width: 0.6"/>
      </g>
     </g>
    </g>
    <g id="ytick_9">
     <g id="line2d_31">
      <g>
       <use xlink:href="#m96019567bf" x="90" y="293.981389" style="stroke: #000000; stroke-width: 0.6"/>
      </g>
     </g>
    </g>
    <g id="ytick_10">
     <g id="line2d_32">
      <g>
       <use xlink:href="#m96019567bf" x="90" y="265.427622" style="stroke: #000000; stroke-width: 0.6"/>
      </g>
     </g>
    </g>
    <g id="ytick_11">
     <g id="line2d_33">
      <g>
       <use xlink:href="#m96019567bf" x="90" y="250.928631" style="stroke: #000000; stroke-width: 0.6"/>
      </g>
     </g>
    </g>
    <g id="ytick_12">
     <g id="line2d_34">
      <g>
       <use xlink:href="#m96019567bf" x="90" y="240.641433" style="stroke: #000000; stroke-width: 0.6"/>
      </g>
     </g>
    </g>
    <g id="ytick_13">
     <g id="line2d_35">
      <g>
       <use xlink:href="#m96019567bf" x="90" y="232.662063" style="stroke: #000000; stroke-width: 0.6"/>
      </g>
     </g>
    </g>
    <g id="ytick_14">
     <g id="line2d_36">
      <g>
       <use xlink:href="#m96019567bf" x="90" y="226.142442" style="stroke: #000000; stroke-width: 0.6"/>
      </g>
     </g>
    </g>
    <g id="ytick_15">
     <g id="line2d_37">
      <g>
       <use xlink:href="#m96019567bf" x="90" y="220.630182" style="stroke: #000000; stroke-width: 0.6"/>
      </g>
     </g>
    </g>
    <g id="ytick_16">
     <g id="line2d_38">
      <g>
       <use xlink:href="#m96019567bf" x="90" y="215.855245" style="stroke: #000000; stroke-width: 0.6"/>
      </g>
     </g>
    </g>
    <g id="ytick_17">
     <g id="line2d_39">
      <g>
       <use xlink:href="#m96019567bf" x="90" y="211.643451" style="stroke: #000000; stroke-width: 0.6"/>
      </g>
     </g>
    </g>
    <g id="ytick_18">
     <g id="line2d_40">
      <g>
       <use xlink:href="#m96019567bf" x="90" y="183.089685" style="stroke: #000000; stroke-width: 0.6"/>
      </g>
     </g>
    </g>
    <g id="ytick_19">
     <g id="line2d_41">
      <g>
       <use xlink:href="#m96019567bf" x="90" y="168.590694" style="stroke: #000000; stroke-width: 0.6"/>
      </g>
     </g>
    </g>
    <g id="ytick_20">
     <g id="line2d_42">
      <g>
       <use xlink:href="#m96019567bf" x="90" y="158.303496" style="stroke: #000000; stroke-width: 0.6"/>
      </g>
     </g>
    </g>
    <g id="ytick_21">
     <g id="line2d_43">
      <g>
       <use xlink:href="#m96019567bf" x="90" y="150.324126" style="stroke: #000000; stroke-width: 0.6"/>
      </g>
     </g>
    </g>
    <g id="ytick_22">
     <g id="line2d_44">
      <g>
       <use xlink:href="#m96019567bf" x="90" y="143.804505" style="stroke: #000000; stroke-width: 0.6"/>
      </g>
     </g>
    </g>
    <g id="ytick_23">
     <g id="line2d_45">
      <g>
       <use xlink:href="#m96019567bf" x="90" y="138.292245" style="stroke: #000000; stroke-width: 0.6"/>
      </g>
     </g>
    </g>
    <g id="ytick_24">
     <g id="line2d_46">
      <g>
       <use xlink:href="#m96019567bf" x="90" y="133.517308" style="stroke: #000000; stroke-width: 0.6"/>
      </g>
     </g>
    </g>
    <g id="ytick_25">
     <g id="line2d_47">
      <g>
       <use xlink:href="#m96019567bf" x="90" y="129.305514" style="stroke: #000000; stroke-width: 0.6"/>
      </g>
     </g>
    </g>
    <g id="ytick_26">
     <g id="line2d_48">
      <g>
       <use xlink:href="#m96019567bf" x="90" y="100.751748" style="stroke: #000000; stroke-width: 0.6"/>
      </g>
     </g>
    </g>
    <g id="ytick_27">
     <g id="line2d_49">
      <g>
       <use xlink:href="#m96019567bf" x="90" y="86.252757" style="stroke: #000000; stroke-width: 0.6"/>
      </g>
     </g>
    </g>
    <g id="ytick_28">
     <g id="line2d_50">
      <g>
       <use xlink:href="#m96019567bf" x="90" y="75.965559" style="stroke: #000000; stroke-width: 0.6"/>
      </g>
     </g>
    </g>
    <g id="ytick_29">
     <g id="line2d_51">
      <g>
       <use xlink:href="#m96019567bf" x="90" y="67.986189" style="stroke: #000000; stroke-width: 0.6"/>
      </g>
     </g>
    </g>
    <g id="ytick_30">
     <g id="line2d_52">
      <g>
       <use xlink:href="#m96019567bf" x="90" y="61.466568" style="stroke: #000000; stroke-width: 0.6"/>
      </g>
     </g>
    </g>
    <g id="ytick_31">
     <g id="line2d_53">
      <g>
       <use xlink:href="#m96019567bf" x="90" y="55.954308" style="stroke: #000000; stroke-width: 0.6"/>
      </g>
     </g>
    </g>
    <g id="ytick_32">
     <g id="line2d_54">
      <g>
       <use xlink:href="#m96019567bf" x="90" y="51.179371" style="stroke: #000000; stroke-width: 0.6"/>
      </g>
     </g>
    </g>
    <g id="ytick_33">
     <g id="line2d_55">
      <g>
       <use xlink:href="#m96019567bf" x="90" y="46.967577" style="stroke: #000000; stroke-width: 0.6"/>
      </g>
     </g>
    </g>
    <g id="text_11">
     <!-- Number of pip-installs per month -->
     <g transform="translate(59.320312 262.00625)rotate(-90)scale(0.1 -0.1)">
      <defs>
       <path id="DejaVuSans-4e" d="M 628 4666 
L 1478 4666 
L 3547 763 
L 3547 4666 
L 4159 4666 
L 4159 0 
L 3309 0 
L 1241 3903 
L 1241 0 
L 628 0 
L 628 4666 
z
" transform="scale(0.015625)"/>
       <path id="DejaVuSans-75" d="M 544 1381 
L 544 3500 
L 1119 3500 
L 1119 1403 
Q 1119 906 1312 657 
Q 1506 409 1894 409 
Q 2359 409 2629 706 
Q 2900 1003 2900 1516 
L 2900 3500 
L 3475 3500 
L 3475 0 
L 2900 0 
L 2900 538 
Q 2691 219 2414 64 
Q 2138 -91 1772 -91 
Q 1169 -91 856 284 
Q 544 659 544 1381 
z
M 1991 3584 
L 1991 3584 
z
" transform="scale(0.015625)"/>
       <path id="DejaVuSans-6d" d="M 3328 2828 
Q 3544 3216 3844 3400 
Q 4144 3584 4550 3584 
Q 5097 3584 5394 3201 
Q 5691 2819 5691 2113 
L 5691 0 
L 5113 0 
L 5113 2094 
Q 5113 2597 4934 2840 
Q 4756 3084 4391 3084 
Q 3944 3084 3684 2787 
Q 3425 2491 3425 1978 
L 3425 0 
L 2847 0 
L 2847 2094 
Q 2847 2600 2669 2842 
Q 2491 3084 2119 3084 
Q 1678 3084 1418 2786 
Q 1159 2488 1159 1978 
L 1159 0 
L 581 0 
L 581 3500 
L 1159 3500 
L 1159 2956 
Q 1356 3278 1631 3431 
Q 1906 3584 2284 3584 
Q 2666 3584 2933 3390 
Q 3200 3197 3328 2828 
z
" transform="scale(0.015625)"/>
       <path id="DejaVuSans-62" d="M 3116 1747 
Q 3116 2381 2855 2742 
Q 2594 3103 2138 3103 
Q 1681 3103 1420 2742 
Q 1159 2381 1159 1747 
Q 1159 1113 1420 752 
Q 1681 391 2138 391 
Q 2594 391 2855 752 
Q 3116 1113 3116 1747 
z
M 1159 2969 
Q 1341 3281 1617 3432 
Q 1894 3584 2278 3584 
Q 2916 3584 3314 3078 
Q 3713 2572 3713 1747 
Q 3713 922 3314 415 
Q 2916 -91 2278 -91 
Q 1894 -91 1617 61 
Q 1341 213 1159 525 
L 1159 0 
L 581 0 
L 581 4863 
L 1159 4863 
L 1159 2969 
z
" transform="scale(0.015625)"/>
       <path id="DejaVuSans-65" d="M 3597 1894 
L 3597 1613 
L 953 1613 
Q 991 1019 1311 708 
Q 1631 397 2203 397 
Q 2534 397 2845 478 
Q 3156 559 3463 722 
L 3463 178 
Q 3153 47 2828 -22 
Q 2503 -91 2169 -91 
Q 1331 -91 842 396 
Q 353 884 353 1716 
Q 353 2575 817 3079 
Q 1281 3584 2069 3584 
Q 2775 3584 3186 3129 
Q 3597 2675 3597 1894 
z
M 3022 2063 
Q 3016 2534 2758 2815 
Q 2500 3097 2075 3097 
Q 1594 3097 1305 2825 
Q 1016 2553 972 2059 
L 3022 2063 
z
" transform="scale(0.015625)"/>
       <path id="DejaVuSans-72" d="M 2631 2963 
Q 2534 3019 2420 3045 
Q 2306 3072 2169 3072 
Q 1681 3072 1420 2755 
Q 1159 2438 1159 1844 
L 1159 0 
L 581 0 
L 581 3500 
L 1159 3500 
L 1159 2956 
Q 1341 3275 1631 3429 
Q 1922 3584 2338 3584 
Q 2397 3584 2469 3576 
Q 2541 3569 2628 3553 
L 2631 2963 
z
" transform="scale(0.015625)"/>
       <path id="DejaVuSans-20" transform="scale(0.015625)"/>
       <path id="DejaVuSans-6f" d="M 1959 3097 
Q 1497 3097 1228 2736 
Q 959 2375 959 1747 
Q 959 1119 1226 758 
Q 1494 397 1959 397 
Q 2419 397 2687 759 
Q 2956 1122 2956 1747 
Q 2956 2369 2687 2733 
Q 2419 3097 1959 3097 
z
M 1959 3584 
Q 2709 3584 3137 3096 
Q 3566 2609 3566 1747 
Q 3566 888 3137 398 
Q 2709 -91 1959 -91 
Q 1206 -91 779 398 
Q 353 888 353 1747 
Q 353 2609 779 3096 
Q 1206 3584 1959 3584 
z
" transform="scale(0.015625)"/>
       <path id="DejaVuSans-66" d="M 2375 4863 
L 2375 4384 
L 1825 4384 
Q 1516 4384 1395 4259 
Q 1275 4134 1275 3809 
L 1275 3500 
L 2222 3500 
L 2222 3053 
L 1275 3053 
L 1275 0 
L 697 0 
L 697 3053 
L 147 3053 
L 147 3500 
L 697 3500 
L 697 3744 
Q 697 4328 969 4595 
Q 1241 4863 1831 4863 
L 2375 4863 
z
" transform="scale(0.015625)"/>
       <path id="DejaVuSans-70" d="M 1159 525 
L 1159 -1331 
L 581 -1331 
L 581 3500 
L 1159 3500 
L 1159 2969 
Q 1341 3281 1617 3432 
Q 1894 3584 2278 3584 
Q 2916 3584 3314 3078 
Q 3713 2572 3713 1747 
Q 3713 922 3314 415 
Q 2916 -91 2278 -91 
Q 1894 -91 1617 61 
Q 1341 213 1159 525 
z
M 3116 1747 
Q 3116 2381 2855 2742 
Q 2594 3103 2138 3103 
Q 1681 3103 1420 2742 
Q 1159 2381 1159 1747 
Q 1159 1113 1420 752 
Q 1681 391 2138 391 
Q 2594 391 2855 752 
Q 3116 1113 3116 1747 
z
" transform="scale(0.015625)"/>
       <path id="DejaVuSans-69" d="M 603 3500 
L 1178 3500 
L 1178 0 
L 603 0 
L 603 3500 
z
M 603 4863 
L 1178 4863 
L 1178 4134 
L 603 4134 
L 603 4863 
z
" transform="scale(0.015625)"/>
       <path id="DejaVuSans-2d" d="M 313 2009 
L 1997 2009 
L 1997 1497 
L 313 1497 
L 313 2009 
z
" transform="scale(0.015625)"/>
       <path id="DejaVuSans-6e" d="M 3513 2113 
L 3513 0 
L 2938 0 
L 2938 2094 
Q 2938 2591 2744 2837 
Q 2550 3084 2163 3084 
Q 1697 3084 1428 2787 
Q 1159 2491 1159 1978 
L 1159 0 
L 581 0 
L 581 3500 
L 1159 3500 
L 1159 2956 
Q 1366 3272 1645 3428 
Q 1925 3584 2291 3584 
Q 2894 3584 3203 3211 
Q 3513 2838 3513 2113 
z
" transform="scale(0.015625)"/>
       <path id="DejaVuSans-73" d="M 2834 3397 
L 2834 2853 
Q 2591 2978 2328 3040 
Q 2066 3103 1784 3103 
Q 1356 3103 1142 2972 
Q 928 2841 928 2578 
Q 928 2378 1081 2264 
Q 1234 2150 1697 2047 
L 1894 2003 
Q 2506 1872 2764 1633 
Q 3022 1394 3022 966 
Q 3022 478 2636 193 
Q 2250 -91 1575 -91 
Q 1294 -91 989 -36 
Q 684 19 347 128 
L 347 722 
Q 666 556 975 473 
Q 1284 391 1588 391 
Q 1994 391 2212 530 
Q 2431 669 2431 922 
Q 2431 1156 2273 1281 
Q 2116 1406 1581 1522 
L 1381 1569 
Q 847 1681 609 1914 
Q 372 2147 372 2553 
Q 372 3047 722 3315 
Q 1072 3584 1716 3584 
Q 2034 3584 2315 3537 
Q 2597 3491 2834 3397 
z
" transform="scale(0.015625)"/>
       <path id="DejaVuSans-74" d="M 1172 4494 
L 1172 3500 
L 2356 3500 
L 2356 3053 
L 1172 3053 
L 1172 1153 
Q 1172 725 1289 603 
Q 1406 481 1766 481 
L 2356 481 
L 2356 0 
L 1766 0 
Q 1100 0 847 248 
Q 594 497 594 1153 
L 594 3053 
L 172 3053 
L 172 3500 
L 594 3500 
L 594 4494 
L 1172 4494 
z
" transform="scale(0.015625)"/>
       <path id="DejaVuSans-61" d="M 2194 1759 
Q 1497 1759 1228 1600 
Q 959 1441 959 1056 
Q 959 750 1161 570 
Q 1363 391 1709 391 
Q 2188 391 2477 730 
Q 2766 1069 2766 1631 
L 2766 1759 
L 2194 1759 
z
M 3341 1997 
L 3341 0 
L 2766 0 
L 2766 531 
Q 2569 213 2275 61 
Q 1981 -91 1556 -91 
Q 1019 -91 701 211 
Q 384 513 384 1019 
Q 384 1609 779 1909 
Q 1175 2209 1959 2209 
L 2766 2209 
L 2766 2266 
Q 2766 2663 2505 2880 
Q 2244 3097 1772 3097 
Q 1472 3097 1187 3025 
Q 903 2953 641 2809 
L 641 3341 
Q 956 3463 1253 3523 
Q 1550 3584 1831 3584 
Q 2591 3584 2966 3190 
Q 3341 2797 3341 1997 
z
" transform="scale(0.015625)"/>
       <path id="DejaVuSans-6c" d="M 603 4863 
L 1178 4863 
L 1178 0 
L 603 0 
L 603 4863 
z
" transform="scale(0.015625)"/>
       <path id="DejaVuSans-68" d="M 3513 2113 
L 3513 0 
L 2938 0 
L 2938 2094 
Q 2938 2591 2744 2837 
Q 2550 3084 2163 3084 
Q 1697 3084 1428 2787 
Q 1159 2491 1159 1978 
L 1159 0 
L 581 0 
L 581 4863 
L 1159 4863 
L 1159 2956 
Q 1366 3272 1645 3428 
Q 1925 3584 2291 3584 
Q 2894 3584 3203 3211 
Q 3513 2838 3513 2113 
z
" transform="scale(0.015625)"/>
      </defs>
      <use xlink:href="#DejaVuSans-4e"/>
      <use xlink:href="#DejaVuSans-75" x="74.804688"/>
      <use xlink:href="#DejaVuSans-6d" x="138.183594"/>
      <use xlink:href="#DejaVuSans-62" x="235.595703"/>
      <use xlink:href="#DejaVuSans-65" x="299.072266"/>
      <use xlink:href="#DejaVuSans-72" x="360.595703"/>
      <use xlink:href="#DejaVuSans-20" x="401.708984"/>
      <use xlink:href="#DejaVuSans-6f" x="433.496094"/>
      <use xlink:href="#DejaVuSans-66" x="494.677734"/>
      <use xlink:href="#DejaVuSans-20" x="529.882812"/>
      <use xlink:href="#DejaVuSans-70" x="561.669922"/>
      <use xlink:href="#DejaVuSans-69" x="625.146484"/>
      <use xlink:href="#DejaVuSans-70" x="652.929688"/>
      <use xlink:href="#DejaVuSans-2d" x="716.40625"/>
      <use xlink:href="#DejaVuSans-69" x="752.490234"/>
      <use xlink:href="#DejaVuSans-6e" x="780.273438"/>
      <use xlink:href="#DejaVuSans-73" x="843.652344"/>
      <use xlink:href="#DejaVuSans-74" x="895.751953"/>
      <use xlink:href="#DejaVuSans-61" x="934.960938"/>
      <use xlink:href="#DejaVuSans-6c" x="996.240234"/>
      <use xlink:href="#DejaVuSans-6c" x="1024.023438"/>
      <use xlink:href="#DejaVuSans-73" x="1051.806641"/>
      <use xlink:href="#DejaVuSans-20" x="1103.90625"/>
      <use xlink:href="#DejaVuSans-70" x="1135.693359"/>
      <use xlink:href="#DejaVuSans-65" x="1199.169922"/>
      <use xlink:href="#DejaVuSans-72" x="1260.693359"/>
      <use xlink:href="#DejaVuSans-20" x="1301.806641"/>
      <use xlink:href="#DejaVuSans-6d" x="1333.59375"/>
      <use xlink:href="#DejaVuSans-6f" x="1431.005859"/>
      <use xlink:href="#DejaVuSans-6e" x="1492.1875"/>
      <use xlink:href="#DejaVuSans-74" x="1555.566406"/>
      <use xlink:href="#DejaVuSans-68" x="1594.775391"/>
     </g>
    </g>
   </g>
   <g id="line2d_56">
    <path d="M 167.168321 361 
L 167.170213 308.48038 
L 170.138298 298.193182 
L 173.106383 286.805623 
L 176.074468 302.968119 
L 179.042553 308.48038 
L 184.978723 308.48038 
L 187.946809 293.981389 
L 190.914894 280.831951 
L 193.882979 265.427622 
L 196.851064 267.261815 
L 199.819149 271.239122 
L 202.787234 283.694191 
L 205.755319 280.831951 
L 208.723404 283.694191 
L 211.691489 290.213811 
L 214.659574 256.045762 
L 217.62766 245.416371 
L 220.595745 234.121813 
L 223.56383 242.475626 
L 226.531915 244.409011 
L 229.5 250.928631 
L 232.468085 256.045762 
L 235.43617 267.261815 
L 238.404255 273.406993 
L 241.37234 263.682939 
L 244.340426 252.140914 
L 247.308511 247.520443 
L 250.276596 242.475626 
L 253.244681 246.452934 
L 256.212766 253.395741 
L 259.180851 244.409011 
L 262.148936 231.953943 
L 265.117021 220.122955 
L 268.085106 224.397759 
L 271.053191 230.57843 
L 274.021277 234.87466 
L 276.989362 207.875874 
L 279.957447 195.58948 
L 282.925532 187.660868 
L 285.893617 190.846258 
L 288.861702 190.846258 
L 291.829787 188.691455 
L 294.797872 182.381565 
L 300.734043 185.492997 
L 303.702128 203.505505 
L 306.670213 200.473273 
L 309.638298 206.473384 
L 312.606383 191.29325 
L 315.574468 187.056477 
L 318.542553 181.859528 
L 321.510638 181.006053 
L 324.478723 179.19717 
L 327.446809 165.838651 
L 330.414894 162.071074 
L 333.382979 159.670245 
L 336.351064 167.533704 
L 339.319149 173.707825 
L 342.287234 181.345002 
L 345.255319 183.089685 
L 348.223404 179.19717 
L 351.191489 177.936814 
L 354.159574 176.273309 
L 357.12766 176.125849 
L 360.095745 172.891997 
L 363.06383 175.110315 
L 366.031915 177.019868 
L 369 179.519325 
L 371.968085 177.019868 
L 374.93617 176.570065 
L 377.904255 171.963142 
L 380.87234 170.550577 
L 383.840426 157.333405 
L 386.808511 125.217546 
L 389.776596 118.603544 
L 392.744681 115.991415 
L 395.712766 125.825159 
L 398.680851 122.129749 
L 401.648936 114.176394 
L 404.617021 104.420133 
L 407.585106 95.137465 
L 410.553191 89.75643 
L 413.521277 89.143815 
L 416.489362 88.288267 
L 419.457447 92.586913 
L 422.425532 91.150507 
L 425.393617 98.550238 
L 428.361702 100.733873 
L 431.329787 98.600709 
L 434.297872 92.134442 
L 437.265957 83.105584 
L 440.234043 81.777059 
L 443.202128 82.062161 
L 446.170213 83.269691 
L 449.138298 86.68446 
L 452.106383 86.938714 
L 455.074468 91.369888 
L 458.042553 88.617845 
L 461.010638 88.011747 
L 463.978723 77.184008 
L 466.946809 77.555919 
L 472.882979 73.337895 
L 475.851064 66.563075 
L 478.819149 64.364088 
L 484.755319 75.362767 
L 487.723404 78.064214 
L 490.691489 75.796107 
L 493.659574 70.160765 
L 496.62766 68.832893 
L 499.595745 66.112326 
L 502.56383 69.483207 
L 505.531915 69.112261 
L 508.5 70.168366 
L 511.468085 72.598029 
L 514.43617 74.008657 
L 517.404255 77.602681 
L 520.37234 75.362767 
L 523.340426 75.813906 
L 526.308511 75.459591 
L 529.276596 78.531782 
L 532.244681 77.415998 
L 535.212766 70.366561 
L 538.180851 70.719928 
L 541.148936 73.613061 
L 544.117021 83.018367 
L 547.085106 77.323022 
L 550.053191 65.633691 
L 553.021277 58.259411 
L 555.989362 55.406812 
L 558.957447 58.720044 
L 561.925532 61.466568 
L 564.893617 67.531379 
L 567.861702 66.762942 
L 570.829787 72.630589 
L 573.797872 67.005658 
L 576.765957 65.929554 
L 579.734043 65.566789 
L 582.702128 66.707694 
L 585.670213 67.559636 
L 588.638298 63.729923 
L 591.606383 65.727564 
L 594.574468 70.282575 
L 600.510638 80.062438 
L 603.478723 82.264159 
L 606.446809 79.982329 
L 609.414894 78.560608 
L 612.382979 80.032376 
L 615.351064 87.09702 
L 618.319149 93.088449 
L 621.287234 97.392355 
L 624.255319 98.315643 
L 627.223404 102.174269 
L 630.191489 100.449082 
L 633.159574 101.364876 
L 636.12766 97.100577 
L 639.095745 96.286569 
L 642.06383 95.676361 
L 645.031915 94.291776 
L 648 94.908973 
L 648 94.908973 
" clip-path="url(#p37445e3fd9)" style="fill: none; stroke-dasharray: 1.5,2.475; stroke-dashoffset: 0; stroke: #1f77b4; stroke-width: 1.5"/>
   </g>
   <g id="line2d_57">
    <path d="M 167.168321 361 
L 167.170213 308.48038 
L 170.138298 298.193182 
L 173.106383 286.805623 
L 176.074468 302.968119 
L 179.042553 308.48038 
L 182.010638 308.48038 
L 184.978723 322.979371 
L 187.946809 333.266568 
L 187.947808 361 
M 514.435693 361 
L 514.43617 347.765559 
L 520.37234 347.765559 
L 520.372817 361 
L 520.372817 361 
" clip-path="url(#p37445e3fd9)" style="fill: none; stroke: #ff7f0e; stroke-width: 1.5; stroke-linecap: square"/>
   </g>
   <g id="line2d_58">
    <path d="M 184.978246 361 
L 184.978723 347.765559 
L 187.946809 308.48038 
L 190.914894 280.831951 
L 193.882979 265.427622 
L 196.851064 267.261815 
L 199.819149 271.239122 
L 202.787234 283.694191 
L 205.755319 280.831951 
L 208.723404 283.694191 
L 211.691489 290.213811 
L 214.659574 256.045762 
L 217.62766 245.416371 
L 220.595745 234.121813 
L 223.56383 242.475626 
L 226.531915 244.409011 
L 229.5 250.928631 
L 232.468085 256.045762 
L 235.43617 267.261815 
L 238.404255 273.406993 
L 241.37234 263.682939 
L 244.340426 252.140914 
L 247.308511 247.520443 
L 250.276596 242.475626 
L 253.244681 246.452934 
L 256.212766 253.395741 
L 259.180851 244.409011 
L 262.148936 231.953943 
L 265.117021 220.122955 
L 268.085106 224.969914 
L 271.053191 232.662063 
L 274.021277 249.756103 
L 276.989362 273.406993 
L 279.957447 315 
L 279.959104 361 
M 315.571919 361 
L 315.574468 290.213811 
L 318.542553 286.805623 
L 321.510638 286.805623 
L 324.078862 361 
M 514.435171 361 
L 514.43617 333.266568 
L 520.37234 333.266568 
L 520.37334 361 
M 532.242789 361 
L 532.244681 308.48038 
L 535.212766 308.48038 
L 538.180851 302.968119 
L 541.148936 322.979371 
L 544.117021 322.979371 
L 547.085106 333.266568 
L 555.989362 333.266568 
L 555.990361 361 
M 603.476461 361 
L 603.478723 298.193182 
L 609.414894 298.193182 
L 609.417156 361 
M 621.882986 361 
L 624.255319 315 
L 627.223404 315 
L 630.191489 322.979371 
L 630.192859 361 
L 630.192859 361 
" clip-path="url(#p37445e3fd9)" style="fill: none; stroke: #2ca02c; stroke-width: 1.5; stroke-linecap: square"/>
   </g>
   <g id="line2d_59">
    <path d="M 268.957867 361 
L 271.053191 333.266568 
L 276.989362 214.110561 
L 279.957447 196.880556 
L 282.925532 187.660868 
L 285.893617 190.846258 
L 288.861702 191.069056 
L 291.829787 188.901185 
L 294.797872 182.557285 
L 297.765957 183.995023 
L 300.734043 185.684734 
L 303.702128 203.823364 
L 306.670213 200.765184 
L 309.638298 206.473384 
L 312.606383 191.29325 
L 315.574468 189.112153 
L 318.542553 183.812112 
L 321.510638 182.911336 
L 324.478723 179.357885 
L 327.446809 165.838651 
L 330.414894 162.071074 
L 333.382979 159.670245 
L 336.351064 167.533704 
L 339.319149 173.707825 
L 342.287234 181.345002 
L 345.255319 183.089685 
L 348.223404 179.19717 
L 351.191489 178.09195 
L 354.159574 176.421379 
L 357.12766 176.273309 
L 360.095745 172.891997 
L 363.06383 175.110315 
L 366.031915 177.019868 
L 369 179.519325 
L 371.968085 177.019868 
L 374.93617 176.570065 
L 377.904255 171.963142 
L 380.87234 170.550577 
L 383.840426 157.333405 
L 386.808511 125.217546 
L 389.776596 118.603544 
L 392.744681 115.991415 
L 395.712766 125.825159 
L 398.680851 122.129749 
L 401.648936 114.176394 
L 404.617021 104.420133 
L 407.585106 95.137465 
L 410.553191 89.75643 
L 413.521277 89.143815 
L 416.489362 88.288267 
L 419.457447 92.586913 
L 422.425532 91.150507 
L 425.393617 98.550238 
L 428.361702 100.733873 
L 431.329787 98.600709 
L 434.297872 92.134442 
L 437.265957 83.105584 
L 440.234043 81.777059 
L 443.202128 82.062161 
L 446.170213 83.269691 
L 449.138298 86.68446 
L 452.106383 86.938714 
L 455.074468 91.369888 
L 458.042553 88.617845 
L 461.010638 88.08695 
L 463.978723 77.248814 
L 466.946809 77.640134 
L 469.914894 75.521344 
L 472.882979 73.755644 
L 475.851064 67.397464 
L 478.819149 65.882321 
L 481.787234 72.622446 
L 484.755319 81.275758 
L 487.723404 85.126399 
L 490.691489 83.258727 
L 493.659574 77.490554 
L 496.62766 75.876274 
L 499.595745 71.539854 
L 502.56383 74.33173 
L 505.531915 75.592048 
L 508.5 80.506278 
L 511.468085 83.09467 
L 514.43617 85.967824 
L 517.404255 90.366348 
L 520.37234 88.719867 
L 526.308511 90.607873 
L 529.276596 98.315643 
L 532.244681 98.332349 
L 535.212766 92.473257 
L 538.180851 94.142842 
L 541.148936 97.068303 
L 544.117021 106.041211 
L 547.085106 97.441217 
L 550.053191 86.950867 
L 553.021277 80.51643 
L 555.989362 78.966634 
L 558.957447 83.844499 
L 561.925532 88.338774 
L 564.893617 95.000195 
L 567.861702 93.494804 
L 570.829787 99.903671 
L 573.797872 97.620952 
L 576.765957 103.578247 
L 579.734043 106.647486 
L 582.702128 110.730371 
L 585.670213 110.848739 
L 588.638298 107.804556 
L 591.606383 107.393156 
L 594.574468 111.326168 
L 597.542553 116.266274 
L 600.510638 127.072263 
L 603.478723 128.753547 
L 606.446809 130.068507 
L 609.414894 132.114818 
L 612.382979 135.729905 
L 615.351064 142.979716 
L 618.319149 147.439887 
L 621.287234 166.282867 
L 624.255319 167.765905 
L 627.223404 170.050444 
L 630.191489 146.981013 
L 633.159574 137.284885 
L 636.12766 132.373629 
L 639.095745 138.190222 
L 642.06383 138.754983 
L 645.031915 141.163 
L 648 147.439887 
L 648 147.439887 
" clip-path="url(#p37445e3fd9)" style="fill: none; stroke: #d62728; stroke-width: 1.5; stroke-linecap: square"/>
   </g>
   <g id="line2d_60">
    <path d="M 461.008747 361 
L 461.010638 308.48038 
L 463.978723 302.968119 
L 466.946809 293.981389 
L 469.914894 283.694191 
L 472.882979 232.662063 
L 475.851064 201.356254 
L 478.819149 178.09195 
L 481.787234 162.071074 
L 484.755319 142.631977 
L 487.723404 139.539775 
L 490.691489 135.492933 
L 493.659574 130.435687 
L 496.62766 130.394703 
L 499.595745 136.208612 
L 502.56383 143.330871 
L 505.531915 133.383462 
L 508.5 119.58903 
L 511.468085 121.549339 
L 514.43617 119.137712 
L 517.404255 120.789829 
L 520.37234 117.188594 
L 523.340426 116.487692 
L 526.308511 113.480523 
L 529.276596 109.135687 
L 532.244681 106.668577 
L 535.212766 98.149012 
L 538.180851 97.036059 
L 541.148936 99.851328 
L 544.117021 109.751252 
L 547.085106 107.544174 
L 550.053191 94.306703 
L 553.021277 85.802656 
L 555.989362 81.494213 
L 558.957447 83.171137 
L 561.925532 84.293033 
L 564.893617 89.835397 
L 567.861702 89.717012 
L 570.829787 95.09165 
L 573.797872 86.781105 
L 576.765957 81.275758 
L 579.734043 79.200736 
L 582.702128 79.054243 
L 585.670213 80.213129 
L 588.638298 76.055069 
L 591.606383 79.093249 
L 597.542553 88.656069 
L 603.478723 93.758493 
L 606.446809 90.206234 
L 609.414894 87.712507 
L 612.382979 88.490724 
L 615.351064 95.506117 
L 618.319149 101.914742 
L 621.287234 103.040509 
L 624.255319 103.947801 
L 627.223404 108.088792 
L 630.191489 111.907626 
L 633.159574 117.673178 
L 636.12766 113.788129 
L 639.095745 109.544884 
L 642.06383 108.419589 
L 645.031915 105.526686 
L 648 104.261995 
L 648 104.261995 
" clip-path="url(#p37445e3fd9)" style="fill: none; stroke: #9467bd; stroke-width: 1.5; stroke-linecap: square"/>
   </g>
   <g id="line2d_61">
    <path d="M 515.623404 315 
L 515.623404 43.2 
" clip-path="url(#p37445e3fd9)" style="fill: none; stroke-dasharray: 1.5,2.475; stroke-dashoffset: 0; stroke: #808080; stroke-width: 1.5"/>
   </g>
   <g id="patch_3">
    <path d="M 90 315 
L 90 43.2 
" style="fill: none; stroke: #000000; stroke-width: 0.8; stroke-linejoin: miter; stroke-linecap: square"/>
   </g>
   <g id="patch_4">
    <path d="M 648 315 
L 648 43.2 
" style="fill: none; stroke: #000000; stroke-width: 0.8; stroke-linejoin: miter; stroke-linecap: square"/>
   </g>
   <g id="patch_5">
    <path d="M 90 315 
L 648 315 
" style="fill: none; stroke: #000000; stroke-width: 0.8; stroke-linejoin: miter; stroke-linecap: square"/>
   </g>
   <g id="patch_6">
    <path d="M 90 43.2 
L 648 43.2 
" style="fill: none; stroke: #000000; stroke-width: 0.8; stroke-linejoin: miter; stroke-linecap: square"/>
   </g>
   <g id="text_12">
    <!-- pip name transition -->
    <g transform="translate(512.833544 303.611052)rotate(-90)scale(0.1 -0.1)">
     <use xlink:href="#DejaVuSans-70"/>
     <use xlink:href="#DejaVuSans-69" x="63.476562"/>
     <use xlink:href="#DejaVuSans-70" x="91.259766"/>
     <use xlink:href="#DejaVuSans-20" x="154.736328"/>
     <use xlink:href="#DejaVuSans-6e" x="186.523438"/>
     <use xlink:href="#DejaVuSans-61" x="249.902344"/>
     <use xlink:href="#DejaVuSans-6d" x="311.181641"/>
     <use xlink:href="#DejaVuSans-65" x="408.59375"/>
     <use xlink:href="#DejaVuSans-20" x="470.117188"/>
     <use xlink:href="#DejaVuSans-74" x="501.904297"/>
     <use xlink:href="#DejaVuSans-72" x="541.113281"/>
     <use xlink:href="#DejaVuSans-61" x="582.226562"/>
     <use xlink:href="#DejaVuSans-6e" x="643.505859"/>
     <use xlink:href="#DejaVuSans-73" x="706.884766"/>
     <use xlink:href="#DejaVuSans-69" x="758.984375"/>
     <use xlink:href="#DejaVuSans-74" x="786.767578"/>
     <use xlink:href="#DejaVuSans-69" x="825.976562"/>
     <use xlink:href="#DejaVuSans-6f" x="853.759766"/>
     <use xlink:href="#DejaVuSans-6e" x="914.941406"/>
    </g>
   </g>
   <g id="text_13">
    <!-- MacOS and Windows (i.e. no batch jobs) -->
    <g transform="translate(248.265 37.2)scale(0.12 -0.12)">
     <defs>
      <path id="DejaVuSans-4d" d="M 628 4666 
L 1569 4666 
L 2759 1491 
L 3956 4666 
L 4897 4666 
L 4897 0 
L 4281 0 
L 4281 4097 
L 3078 897 
L 2444 897 
L 1241 4097 
L 1241 0 
L 628 0 
L 628 4666 
z
" transform="scale(0.015625)"/>
      <path id="DejaVuSans-63" d="M 3122 3366 
L 3122 2828 
Q 2878 2963 2633 3030 
Q 2388 3097 2138 3097 
Q 1578 3097 1268 2742 
Q 959 2388 959 1747 
Q 959 1106 1268 751 
Q 1578 397 2138 397 
Q 2388 397 2633 464 
Q 2878 531 3122 666 
L 3122 134 
Q 2881 22 2623 -34 
Q 2366 -91 2075 -91 
Q 1284 -91 818 406 
Q 353 903 353 1747 
Q 353 2603 823 3093 
Q 1294 3584 2113 3584 
Q 2378 3584 2631 3529 
Q 2884 3475 3122 3366 
z
" transform="scale(0.015625)"/>
      <path id="DejaVuSans-4f" d="M 2522 4238 
Q 1834 4238 1429 3725 
Q 1025 3213 1025 2328 
Q 1025 1447 1429 934 
Q 1834 422 2522 422 
Q 3209 422 3611 934 
Q 4013 1447 4013 2328 
Q 4013 3213 3611 3725 
Q 3209 4238 2522 4238 
z
M 2522 4750 
Q 3503 4750 4090 4092 
Q 4678 3434 4678 2328 
Q 4678 1225 4090 567 
Q 3503 -91 2522 -91 
Q 1538 -91 948 565 
Q 359 1222 359 2328 
Q 359 3434 948 4092 
Q 1538 4750 2522 4750 
z
" transform="scale(0.015625)"/>
      <path id="DejaVuSans-53" d="M 3425 4513 
L 3425 3897 
Q 3066 4069 2747 4153 
Q 2428 4238 2131 4238 
Q 1616 4238 1336 4038 
Q 1056 3838 1056 3469 
Q 1056 3159 1242 3001 
Q 1428 2844 1947 2747 
L 2328 2669 
Q 3034 2534 3370 2195 
Q 3706 1856 3706 1288 
Q 3706 609 3251 259 
Q 2797 -91 1919 -91 
Q 1588 -91 1214 -16 
Q 841 59 441 206 
L 441 856 
Q 825 641 1194 531 
Q 1563 422 1919 422 
Q 2459 422 2753 634 
Q 3047 847 3047 1241 
Q 3047 1584 2836 1778 
Q 2625 1972 2144 2069 
L 1759 2144 
Q 1053 2284 737 2584 
Q 422 2884 422 3419 
Q 422 4038 858 4394 
Q 1294 4750 2059 4750 
Q 2388 4750 2728 4690 
Q 3069 4631 3425 4513 
z
" transform="scale(0.015625)"/>
      <path id="DejaVuSans-64" d="M 2906 2969 
L 2906 4863 
L 3481 4863 
L 3481 0 
L 2906 0 
L 2906 525 
Q 2725 213 2448 61 
Q 2172 -91 1784 -91 
Q 1150 -91 751 415 
Q 353 922 353 1747 
Q 353 2572 751 3078 
Q 1150 3584 1784 3584 
Q 2172 3584 2448 3432 
Q 2725 3281 2906 2969 
z
M 947 1747 
Q 947 1113 1208 752 
Q 1469 391 1925 391 
Q 2381 391 2643 752 
Q 2906 1113 2906 1747 
Q 2906 2381 2643 2742 
Q 2381 3103 1925 3103 
Q 1469 3103 1208 2742 
Q 947 2381 947 1747 
z
" transform="scale(0.015625)"/>
      <path id="DejaVuSans-57" d="M 213 4666 
L 850 4666 
L 1831 722 
L 2809 4666 
L 3519 4666 
L 4500 722 
L 5478 4666 
L 6119 4666 
L 4947 0 
L 4153 0 
L 3169 4050 
L 2175 0 
L 1381 0 
L 213 4666 
z
" transform="scale(0.015625)"/>
      <path id="DejaVuSans-77" d="M 269 3500 
L 844 3500 
L 1563 769 
L 2278 3500 
L 2956 3500 
L 3675 769 
L 4391 3500 
L 4966 3500 
L 4050 0 
L 3372 0 
L 2619 2869 
L 1863 0 
L 1184 0 
L 269 3500 
z
" transform="scale(0.015625)"/>
      <path id="DejaVuSans-28" d="M 1984 4856 
Q 1566 4138 1362 3434 
Q 1159 2731 1159 2009 
Q 1159 1288 1364 580 
Q 1569 -128 1984 -844 
L 1484 -844 
Q 1016 -109 783 600 
Q 550 1309 550 2009 
Q 550 2706 781 3412 
Q 1013 4119 1484 4856 
L 1984 4856 
z
" transform="scale(0.015625)"/>
      <path id="DejaVuSans-2e" d="M 684 794 
L 1344 794 
L 1344 0 
L 684 0 
L 684 794 
z
" transform="scale(0.015625)"/>
      <path id="DejaVuSans-6a" d="M 603 3500 
L 1178 3500 
L 1178 -63 
Q 1178 -731 923 -1031 
Q 669 -1331 103 -1331 
L -116 -1331 
L -116 -844 
L 38 -844 
Q 366 -844 484 -692 
Q 603 -541 603 -63 
L 603 3500 
z
M 603 4863 
L 1178 4863 
L 1178 4134 
L 603 4134 
L 603 4863 
z
" transform="scale(0.015625)"/>
      <path id="DejaVuSans-29" d="M 513 4856 
L 1013 4856 
Q 1481 4119 1714 3412 
Q 1947 2706 1947 2009 
Q 1947 1309 1714 600 
Q 1481 -109 1013 -844 
L 513 -844 
Q 928 -128 1133 580 
Q 1338 1288 1338 2009 
Q 1338 2731 1133 3434 
Q 928 4138 513 4856 
z
" transform="scale(0.015625)"/>
     </defs>
     <use xlink:href="#DejaVuSans-4d"/>
     <use xlink:href="#DejaVuSans-61" x="86.279297"/>
     <use xlink:href="#DejaVuSans-63" x="147.558594"/>
     <use xlink:href="#DejaVuSans-4f" x="202.539062"/>
     <use xlink:href="#DejaVuSans-53" x="281.25"/>
     <use xlink:href="#DejaVuSans-20" x="344.726562"/>
     <use xlink:href="#DejaVuSans-61" x="376.513672"/>
     <use xlink:href="#DejaVuSans-6e" x="437.792969"/>
     <use xlink:href="#DejaVuSans-64" x="501.171875"/>
     <use xlink:href="#DejaVuSans-20" x="564.648438"/>
     <use xlink:href="#DejaVuSans-57" x="596.435547"/>
     <use xlink:href="#DejaVuSans-69" x="693.0625"/>
     <use xlink:href="#DejaVuSans-6e" x="720.845703"/>
     <use xlink:href="#DejaVuSans-64" x="784.224609"/>
     <use xlink:href="#DejaVuSans-6f" x="847.701172"/>
     <use xlink:href="#DejaVuSans-77" x="908.882812"/>
     <use xlink:href="#DejaVuSans-73" x="990.669922"/>
     <use xlink:href="#DejaVuSans-20" x="1042.769531"/>
     <use xlink:href="#DejaVuSans-28" x="1074.556641"/>
     <use xlink:href="#DejaVuSans-69" x="1113.570312"/>
     <use xlink:href="#DejaVuSans-2e" x="1141.353516"/>
     <use xlink:href="#DejaVuSans-65" x="1173.140625"/>
     <use xlink:href="#DejaVuSans-2e" x="1234.664062"/>
     <use xlink:href="#DejaVuSans-20" x="1266.451172"/>
     <use xlink:href="#DejaVuSans-6e" x="1298.238281"/>
     <use xlink:href="#DejaVuSans-6f" x="1361.617188"/>
     <use xlink:href="#DejaVuSans-20" x="1422.798828"/>
     <use xlink:href="#DejaVuSans-62" x="1454.585938"/>
     <use xlink:href="#DejaVuSans-61" x="1518.0625"/>
     <use xlink:href="#DejaVuSans-74" x="1579.341797"/>
     <use xlink:href="#DejaVuSans-63" x="1618.550781"/>
     <use xlink:href="#DejaVuSans-68" x="1673.53125"/>
     <use xlink:href="#DejaVuSans-20" x="1736.910156"/>
     <use xlink:href="#DejaVuSans-6a" x="1768.697266"/>
     <use xlink:href="#DejaVuSans-6f" x="1796.480469"/>
     <use xlink:href="#DejaVuSans-62" x="1857.662109"/>
     <use xlink:href="#DejaVuSans-73" x="1921.138672"/>
     <use xlink:href="#DejaVuSans-29" x="1973.238281"/>
    </g>
   </g>
   <g id="legend_1">
    <g id="patch_7">
     <path d="M 97 124.590625 
L 230.390625 124.590625 
Q 232.390625 124.590625 232.390625 122.590625 
L 232.390625 50.2 
Q 232.390625 48.2 230.390625 48.2 
L 97 48.2 
Q 95 48.2 95 50.2 
L 95 122.590625 
Q 95 124.590625 97 124.590625 
z
" style="fill: #ffffff; opacity: 0.8; stroke: #cccccc; stroke-linejoin: miter"/>
    </g>
    <g id="line2d_62">
     <path d="M 99 56.298437 
L 109 56.298437 
L 119 56.298437 
" style="fill: none; stroke-dasharray: 1.5,2.475; stroke-dashoffset: 0; stroke: #1f77b4; stroke-width: 1.5"/>
    </g>
    <g id="text_14">
     <!-- Uproot (all versions) -->
     <g transform="translate(127 59.798437)scale(0.1 -0.1)">
      <defs>
       <path id="DejaVuSans-55" d="M 556 4666 
L 1191 4666 
L 1191 1831 
Q 1191 1081 1462 751 
Q 1734 422 2344 422 
Q 2950 422 3222 751 
Q 3494 1081 3494 1831 
L 3494 4666 
L 4128 4666 
L 4128 1753 
Q 4128 841 3676 375 
Q 3225 -91 2344 -91 
Q 1459 -91 1007 375 
Q 556 841 556 1753 
L 556 4666 
z
" transform="scale(0.015625)"/>
       <path id="DejaVuSans-76" d="M 191 3500 
L 800 3500 
L 1894 563 
L 2988 3500 
L 3597 3500 
L 2284 0 
L 1503 0 
L 191 3500 
z
" transform="scale(0.015625)"/>
      </defs>
      <use xlink:href="#DejaVuSans-55"/>
      <use xlink:href="#DejaVuSans-70" x="73.193359"/>
      <use xlink:href="#DejaVuSans-72" x="136.669922"/>
      <use xlink:href="#DejaVuSans-6f" x="175.533203"/>
      <use xlink:href="#DejaVuSans-6f" x="236.714844"/>
      <use xlink:href="#DejaVuSans-74" x="297.896484"/>
      <use xlink:href="#DejaVuSans-20" x="337.105469"/>
      <use xlink:href="#DejaVuSans-28" x="368.892578"/>
      <use xlink:href="#DejaVuSans-61" x="407.90625"/>
      <use xlink:href="#DejaVuSans-6c" x="469.185547"/>
      <use xlink:href="#DejaVuSans-6c" x="496.96875"/>
      <use xlink:href="#DejaVuSans-20" x="524.751953"/>
      <use xlink:href="#DejaVuSans-76" x="556.539062"/>
      <use xlink:href="#DejaVuSans-65" x="615.71875"/>
      <use xlink:href="#DejaVuSans-72" x="677.242188"/>
      <use xlink:href="#DejaVuSans-73" x="718.355469"/>
      <use xlink:href="#DejaVuSans-69" x="770.455078"/>
      <use xlink:href="#DejaVuSans-6f" x="798.238281"/>
      <use xlink:href="#DejaVuSans-6e" x="859.419922"/>
      <use xlink:href="#DejaVuSans-73" x="922.798828"/>
      <use xlink:href="#DejaVuSans-29" x="974.898438"/>
     </g>
    </g>
    <g id="line2d_63">
     <path d="M 99 70.976562 
L 109 70.976562 
L 119 70.976562 
" style="fill: none; stroke: #ff7f0e; stroke-width: 1.5; stroke-linecap: square"/>
    </g>
    <g id="text_15">
     <!-- Uproot 1.x -->
     <g transform="translate(127 74.476562)scale(0.1 -0.1)">
      <defs>
       <path id="DejaVuSans-78" d="M 3513 3500 
L 2247 1797 
L 3578 0 
L 2900 0 
L 1881 1375 
L 863 0 
L 184 0 
L 1544 1831 
L 300 3500 
L 978 3500 
L 1906 2253 
L 2834 3500 
L 3513 3500 
z
" transform="scale(0.015625)"/>
      </defs>
      <use xlink:href="#DejaVuSans-55"/>
      <use xlink:href="#DejaVuSans-70" x="73.193359"/>
      <use xlink:href="#DejaVuSans-72" x="136.669922"/>
      <use xlink:href="#DejaVuSans-6f" x="175.533203"/>
      <use xlink:href="#DejaVuSans-6f" x="236.714844"/>
      <use xlink:href="#DejaVuSans-74" x="297.896484"/>
      <use xlink:href="#DejaVuSans-20" x="337.105469"/>
      <use xlink:href="#DejaVuSans-31" x="368.892578"/>
      <use xlink:href="#DejaVuSans-2e" x="432.515625"/>
      <use xlink:href="#DejaVuSans-78" x="464.302734"/>
     </g>
    </g>
    <g id="line2d_64">
     <path d="M 99 85.654687 
L 109 85.654687 
L 119 85.654687 
" style="fill: none; stroke: #2ca02c; stroke-width: 1.5; stroke-linecap: square"/>
    </g>
    <g id="text_16">
     <!-- Uproot 2.x -->
     <g transform="translate(127 89.154687)scale(0.1 -0.1)">
      <use xlink:href="#DejaVuSans-55"/>
      <use xlink:href="#DejaVuSans-70" x="73.193359"/>
      <use xlink:href="#DejaVuSans-72" x="136.669922"/>
      <use xlink:href="#DejaVuSans-6f" x="175.533203"/>
      <use xlink:href="#DejaVuSans-6f" x="236.714844"/>
      <use xlink:href="#DejaVuSans-74" x="297.896484"/>
      <use xlink:href="#DejaVuSans-20" x="337.105469"/>
      <use xlink:href="#DejaVuSans-32" x="368.892578"/>
      <use xlink:href="#DejaVuSans-2e" x="432.515625"/>
      <use xlink:href="#DejaVuSans-78" x="464.302734"/>
     </g>
    </g>
    <g id="line2d_65">
     <path d="M 99 100.332812 
L 109 100.332812 
L 119 100.332812 
" style="fill: none; stroke: #d62728; stroke-width: 1.5; stroke-linecap: square"/>
    </g>
    <g id="text_17">
     <!-- Uproot 3.x -->
     <g transform="translate(127 103.832812)scale(0.1 -0.1)">
      <use xlink:href="#DejaVuSans-55"/>
      <use xlink:href="#DejaVuSans-70" x="73.193359"/>
      <use xlink:href="#DejaVuSans-72" x="136.669922"/>
      <use xlink:href="#DejaVuSans-6f" x="175.533203"/>
      <use xlink:href="#DejaVuSans-6f" x="236.714844"/>
      <use xlink:href="#DejaVuSans-74" x="297.896484"/>
      <use xlink:href="#DejaVuSans-20" x="337.105469"/>
      <use xlink:href="#DejaVuSans-33" x="368.892578"/>
      <use xlink:href="#DejaVuSans-2e" x="432.515625"/>
      <use xlink:href="#DejaVuSans-78" x="464.302734"/>
     </g>
    </g>
    <g id="line2d_66">
     <path d="M 99 115.010937 
L 109 115.010937 
L 119 115.010937 
" style="fill: none; stroke: #9467bd; stroke-width: 1.5; stroke-linecap: square"/>
    </g>
    <g id="text_18">
     <!-- Uproot 4.x -->
     <g transform="translate(127 118.510937)scale(0.1 -0.1)">
      <use xlink:href="#DejaVuSans-55"/>
      <use xlink:href="#DejaVuSans-70" x="73.193359"/>
      <use xlink:href="#DejaVuSans-72" x="136.669922"/>
      <use xlink:href="#DejaVuSans-6f" x="175.533203"/>
      <use xlink:href="#DejaVuSans-6f" x="236.714844"/>
      <use xlink:href="#DejaVuSans-74" x="297.896484"/>
      <use xlink:href="#DejaVuSans-20" x="337.105469"/>
      <use xlink:href="#DejaVuSans-34" x="368.892578"/>
      <use xlink:href="#DejaVuSans-2e" x="432.515625"/>
      <use xlink:href="#DejaVuSans-78" x="464.302734"/>
     </g>
    </g>
   </g>
  </g>
 </g>
 <defs>
  <clipPath id="p37445e3fd9">
   <rect x="90" y="43.2" width="558" height="271.8"/>
  </clipPath>
 </defs>
</svg>
