<?xml version="1.0" encoding="utf-8" standalone="no"?>
<!DOCTYPE svg PUBLIC "-//W3C//DTD SVG 1.1//EN"
  "http://www.w3.org/Graphics/SVG/1.1/DTD/svg11.dtd">
<svg xmlns:xlink="http://www.w3.org/1999/xlink" width="720pt" height="360pt" viewBox="0 0 720 360" xmlns="http://www.w3.org/2000/svg" version="1.1">
 <metadata>
  <rdf:RDF xmlns:dc="http://purl.org/dc/elements/1.1/" xmlns:cc="http://creativecommons.org/ns#" xmlns:rdf="http://www.w3.org/1999/02/22-rdf-syntax-ns#">
   <cc:Work>
    <dc:type rdf:resource="http://purl.org/dc/dcmitype/StillImage"/>
    <dc:date>2023-04-05T16:17:10.790789</dc:date>
    <dc:format>image/svg+xml</dc:format>
    <dc:creator>
     <cc:Agent>
      <dc:title>Matplotlib v3.7.1, https://matplotlib.org/</dc:title>
     </cc:Agent>
    </dc:creator>
   </cc:Work>
  </rdf:RDF>
 </metadata>
 <defs>
  <style type="text/css">*{stroke-linejoin: round; stroke-linecap: butt}</style>
 </defs>
 <g id="figure_1">
  <g id="patch_1">
   <path d="M 0 360 
L 720 360 
L 720 0 
L 0 0 
z
" style="fill: #ffffff"/>
  </g>
  <g id="axes_1">
   <g id="patch_2">
    <path d="M 90 320.4 
L 648 320.4 
L 648 43.2 
L 90 43.2 
z
" style="fill: #ffffff"/>
   </g>
   <g id="matplotlib.axis_1">
    <g id="xtick_1">
     <g id="line2d_1">
      <defs>
       <path id="m35e03baf67" d="M 0 0 
L 0 3.5 
" style="stroke: #000000; stroke-width: 0.8"/>
      </defs>
      <g>
       <use xlink:href="#m35e03baf67" x="90" y="320.4" style="stroke: #000000; stroke-width: 0.8"/>
      </g>
     </g>
     <g id="text_1">
      <!-- 2018 -->
      <g transform="translate(77.275 334.998438) scale(0.1 -0.1)">
       <defs>
        <path id="DejaVuSans-32" d="M 1228 531 
L 3431 531 
L 3431 0 
L 469 0 
L 469 531 
Q 828 903 1448 1529 
Q 2069 2156 2228 2338 
Q 2531 2678 2651 2914 
Q 2772 3150 2772 3378 
Q 2772 3750 2511 3984 
Q 2250 4219 1831 4219 
Q 1534 4219 1204 4116 
Q 875 4013 500 3803 
L 500 4441 
Q 881 4594 1212 4672 
Q 1544 4750 1819 4750 
Q 2544 4750 2975 4387 
Q 3406 4025 3406 3419 
Q 3406 3131 3298 2873 
Q 3191 2616 2906 2266 
Q 2828 2175 2409 1742 
Q 1991 1309 1228 531 
z
" transform="scale(0.015625)"/>
        <path id="DejaVuSans-30" d="M 2034 4250 
Q 1547 4250 1301 3770 
Q 1056 3291 1056 2328 
Q 1056 1369 1301 889 
Q 1547 409 2034 409 
Q 2525 409 2770 889 
Q 3016 1369 3016 2328 
Q 3016 3291 2770 3770 
Q 2525 4250 2034 4250 
z
M 2034 4750 
Q 2819 4750 3233 4129 
Q 3647 3509 3647 2328 
Q 3647 1150 3233 529 
Q 2819 -91 2034 -91 
Q 1250 -91 836 529 
Q 422 1150 422 2328 
Q 422 3509 836 4129 
Q 1250 4750 2034 4750 
z
" transform="scale(0.015625)"/>
        <path id="DejaVuSans-31" d="M 794 531 
L 1825 531 
L 1825 4091 
L 703 3866 
L 703 4441 
L 1819 4666 
L 2450 4666 
L 2450 531 
L 3481 531 
L 3481 0 
L 794 0 
L 794 531 
z
" transform="scale(0.015625)"/>
        <path id="DejaVuSans-38" d="M 2034 2216 
Q 1584 2216 1326 1975 
Q 1069 1734 1069 1313 
Q 1069 891 1326 650 
Q 1584 409 2034 409 
Q 2484 409 2743 651 
Q 3003 894 3003 1313 
Q 3003 1734 2745 1975 
Q 2488 2216 2034 2216 
z
M 1403 2484 
Q 997 2584 770 2862 
Q 544 3141 544 3541 
Q 544 4100 942 4425 
Q 1341 4750 2034 4750 
Q 2731 4750 3128 4425 
Q 3525 4100 3525 3541 
Q 3525 3141 3298 2862 
Q 3072 2584 2669 2484 
Q 3125 2378 3379 2068 
Q 3634 1759 3634 1313 
Q 3634 634 3220 271 
Q 2806 -91 2034 -91 
Q 1263 -91 848 271 
Q 434 634 434 1313 
Q 434 1759 690 2068 
Q 947 2378 1403 2484 
z
M 1172 3481 
Q 1172 3119 1398 2916 
Q 1625 2713 2034 2713 
Q 2441 2713 2670 2916 
Q 2900 3119 2900 3481 
Q 2900 3844 2670 4047 
Q 2441 4250 2034 4250 
Q 1625 4250 1398 4047 
Q 1172 3844 1172 3481 
z
" transform="scale(0.015625)"/>
       </defs>
       <use xlink:href="#DejaVuSans-32"/>
       <use xlink:href="#DejaVuSans-30" x="63.623047"/>
       <use xlink:href="#DejaVuSans-31" x="127.246094"/>
       <use xlink:href="#DejaVuSans-38" x="190.869141"/>
      </g>
     </g>
    </g>
    <g id="xtick_2">
     <g id="line2d_2">
      <g>
       <use xlink:href="#m35e03baf67" x="198.624" y="320.4" style="stroke: #000000; stroke-width: 0.8"/>
      </g>
     </g>
     <g id="text_2">
      <!-- 2019 -->
      <g transform="translate(185.899 334.998438) scale(0.1 -0.1)">
       <defs>
        <path id="DejaVuSans-39" d="M 703 97 
L 703 672 
Q 941 559 1184 500 
Q 1428 441 1663 441 
Q 2288 441 2617 861 
Q 2947 1281 2994 2138 
Q 2813 1869 2534 1725 
Q 2256 1581 1919 1581 
Q 1219 1581 811 2004 
Q 403 2428 403 3163 
Q 403 3881 828 4315 
Q 1253 4750 1959 4750 
Q 2769 4750 3195 4129 
Q 3622 3509 3622 2328 
Q 3622 1225 3098 567 
Q 2575 -91 1691 -91 
Q 1453 -91 1209 -44 
Q 966 3 703 97 
z
M 1959 2075 
Q 2384 2075 2632 2365 
Q 2881 2656 2881 3163 
Q 2881 3666 2632 3958 
Q 2384 4250 1959 4250 
Q 1534 4250 1286 3958 
Q 1038 3666 1038 3163 
Q 1038 2656 1286 2365 
Q 1534 2075 1959 2075 
z
" transform="scale(0.015625)"/>
       </defs>
       <use xlink:href="#DejaVuSans-32"/>
       <use xlink:href="#DejaVuSans-30" x="63.623047"/>
       <use xlink:href="#DejaVuSans-31" x="127.246094"/>
       <use xlink:href="#DejaVuSans-39" x="190.869141"/>
      </g>
     </g>
    </g>
    <g id="xtick_3">
     <g id="line2d_3">
      <g>
       <use xlink:href="#m35e03baf67" x="307.248" y="320.4" style="stroke: #000000; stroke-width: 0.8"/>
      </g>
     </g>
     <g id="text_3">
      <!-- 2020 -->
      <g transform="translate(294.523 334.998438) scale(0.1 -0.1)">
       <use xlink:href="#DejaVuSans-32"/>
       <use xlink:href="#DejaVuSans-30" x="63.623047"/>
       <use xlink:href="#DejaVuSans-32" x="127.246094"/>
       <use xlink:href="#DejaVuSans-30" x="190.869141"/>
      </g>
     </g>
    </g>
    <g id="xtick_4">
     <g id="line2d_4">
      <g>
       <use xlink:href="#m35e03baf67" x="416.1696" y="320.4" style="stroke: #000000; stroke-width: 0.8"/>
      </g>
     </g>
     <g id="text_4">
      <!-- 2021 -->
      <g transform="translate(403.4446 334.998438) scale(0.1 -0.1)">
       <use xlink:href="#DejaVuSans-32"/>
       <use xlink:href="#DejaVuSans-30" x="63.623047"/>
       <use xlink:href="#DejaVuSans-32" x="127.246094"/>
       <use xlink:href="#DejaVuSans-31" x="190.869141"/>
      </g>
     </g>
    </g>
    <g id="xtick_5">
     <g id="line2d_5">
      <g>
       <use xlink:href="#m35e03baf67" x="524.7936" y="320.4" style="stroke: #000000; stroke-width: 0.8"/>
      </g>
     </g>
     <g id="text_5">
      <!-- 2022 -->
      <g transform="translate(512.0686 334.998438) scale(0.1 -0.1)">
       <use xlink:href="#DejaVuSans-32"/>
       <use xlink:href="#DejaVuSans-30" x="63.623047"/>
       <use xlink:href="#DejaVuSans-32" x="127.246094"/>
       <use xlink:href="#DejaVuSans-32" x="190.869141"/>
      </g>
     </g>
    </g>
    <g id="xtick_6">
     <g id="line2d_6">
      <g>
       <use xlink:href="#m35e03baf67" x="633.4176" y="320.4" style="stroke: #000000; stroke-width: 0.8"/>
      </g>
     </g>
     <g id="text_6">
      <!-- 2023 -->
      <g transform="translate(620.6926 334.998438) scale(0.1 -0.1)">
       <defs>
        <path id="DejaVuSans-33" d="M 2597 2516 
Q 3050 2419 3304 2112 
Q 3559 1806 3559 1356 
Q 3559 666 3084 287 
Q 2609 -91 1734 -91 
Q 1441 -91 1130 -33 
Q 819 25 488 141 
L 488 750 
Q 750 597 1062 519 
Q 1375 441 1716 441 
Q 2309 441 2620 675 
Q 2931 909 2931 1356 
Q 2931 1769 2642 2001 
Q 2353 2234 1838 2234 
L 1294 2234 
L 1294 2753 
L 1863 2753 
Q 2328 2753 2575 2939 
Q 2822 3125 2822 3475 
Q 2822 3834 2567 4026 
Q 2313 4219 1838 4219 
Q 1578 4219 1281 4162 
Q 984 4106 628 3988 
L 628 4550 
Q 988 4650 1302 4700 
Q 1616 4750 1894 4750 
Q 2613 4750 3031 4423 
Q 3450 4097 3450 3541 
Q 3450 3153 3228 2886 
Q 3006 2619 2597 2516 
z
" transform="scale(0.015625)"/>
       </defs>
       <use xlink:href="#DejaVuSans-32"/>
       <use xlink:href="#DejaVuSans-30" x="63.623047"/>
       <use xlink:href="#DejaVuSans-32" x="127.246094"/>
       <use xlink:href="#DejaVuSans-33" x="190.869141"/>
      </g>
     </g>
    </g>
    <g id="xtick_7">
     <g id="line2d_7">
      <g>
       <use xlink:href="#m35e03baf67" x="648" y="320.4" style="stroke: #000000; stroke-width: 0.8"/>
      </g>
     </g>
    </g>
    <g id="xtick_8">
     <g id="line2d_8">
      <defs>
       <path id="m354ce7b298" d="M 0 0 
L 0 2 
" style="stroke: #000000; stroke-width: 0.6"/>
      </defs>
      <g>
       <use xlink:href="#m354ce7b298" x="116.784" y="320.4" style="stroke: #000000; stroke-width: 0.6"/>
      </g>
     </g>
    </g>
    <g id="xtick_9">
     <g id="line2d_9">
      <g>
       <use xlink:href="#m354ce7b298" x="143.8656" y="320.4" style="stroke: #000000; stroke-width: 0.6"/>
      </g>
     </g>
    </g>
    <g id="xtick_10">
     <g id="line2d_10">
      <g>
       <use xlink:href="#m354ce7b298" x="171.2448" y="320.4" style="stroke: #000000; stroke-width: 0.6"/>
      </g>
     </g>
    </g>
    <g id="xtick_11">
     <g id="line2d_11">
      <g>
       <use xlink:href="#m354ce7b298" x="225.408" y="320.4" style="stroke: #000000; stroke-width: 0.6"/>
      </g>
     </g>
    </g>
    <g id="xtick_12">
     <g id="line2d_12">
      <g>
       <use xlink:href="#m354ce7b298" x="252.4896" y="320.4" style="stroke: #000000; stroke-width: 0.6"/>
      </g>
     </g>
    </g>
    <g id="xtick_13">
     <g id="line2d_13">
      <g>
       <use xlink:href="#m354ce7b298" x="279.8688" y="320.4" style="stroke: #000000; stroke-width: 0.6"/>
      </g>
     </g>
    </g>
    <g id="xtick_14">
     <g id="line2d_14">
      <g>
       <use xlink:href="#m354ce7b298" x="334.3296" y="320.4" style="stroke: #000000; stroke-width: 0.6"/>
      </g>
     </g>
    </g>
    <g id="xtick_15">
     <g id="line2d_15">
      <g>
       <use xlink:href="#m354ce7b298" x="361.4112" y="320.4" style="stroke: #000000; stroke-width: 0.6"/>
      </g>
     </g>
    </g>
    <g id="xtick_16">
     <g id="line2d_16">
      <g>
       <use xlink:href="#m354ce7b298" x="388.7904" y="320.4" style="stroke: #000000; stroke-width: 0.6"/>
      </g>
     </g>
    </g>
    <g id="xtick_17">
     <g id="line2d_17">
      <g>
       <use xlink:href="#m354ce7b298" x="442.9536" y="320.4" style="stroke: #000000; stroke-width: 0.6"/>
      </g>
     </g>
    </g>
    <g id="xtick_18">
     <g id="line2d_18">
      <g>
       <use xlink:href="#m354ce7b298" x="470.0352" y="320.4" style="stroke: #000000; stroke-width: 0.6"/>
      </g>
     </g>
    </g>
    <g id="xtick_19">
     <g id="line2d_19">
      <g>
       <use xlink:href="#m354ce7b298" x="497.4144" y="320.4" style="stroke: #000000; stroke-width: 0.6"/>
      </g>
     </g>
    </g>
    <g id="xtick_20">
     <g id="line2d_20">
      <g>
       <use xlink:href="#m354ce7b298" x="551.5776" y="320.4" style="stroke: #000000; stroke-width: 0.6"/>
      </g>
     </g>
    </g>
    <g id="xtick_21">
     <g id="line2d_21">
      <g>
       <use xlink:href="#m354ce7b298" x="578.6592" y="320.4" style="stroke: #000000; stroke-width: 0.6"/>
      </g>
     </g>
    </g>
    <g id="xtick_22">
     <g id="line2d_22">
      <g>
       <use xlink:href="#m354ce7b298" x="606.0384" y="320.4" style="stroke: #000000; stroke-width: 0.6"/>
      </g>
     </g>
    </g>
   </g>
   <g id="matplotlib.axis_2">
    <g id="ytick_1">
     <g id="line2d_23">
      <defs>
       <path id="m6e34f5e37b" d="M 0 0 
L -3.5 0 
" style="stroke: #000000; stroke-width: 0.8"/>
      </defs>
      <g>
       <use xlink:href="#m6e34f5e37b" x="90" y="307.8" style="stroke: #000000; stroke-width: 0.8"/>
      </g>
     </g>
     <g id="text_7">
      <!-- 0 -->
      <g transform="translate(76.6375 311.599219) scale(0.1 -0.1)">
       <use xlink:href="#DejaVuSans-30"/>
      </g>
     </g>
    </g>
    <g id="ytick_2">
     <g id="line2d_24">
      <g>
       <use xlink:href="#m6e34f5e37b" x="90" y="247.698639" style="stroke: #000000; stroke-width: 0.8"/>
      </g>
     </g>
     <g id="text_8">
      <!-- 10000 -->
      <g transform="translate(51.1875 251.497857) scale(0.1 -0.1)">
       <use xlink:href="#DejaVuSans-31"/>
       <use xlink:href="#DejaVuSans-30" x="63.623047"/>
       <use xlink:href="#DejaVuSans-30" x="127.246094"/>
       <use xlink:href="#DejaVuSans-30" x="190.869141"/>
       <use xlink:href="#DejaVuSans-30" x="254.492188"/>
      </g>
     </g>
    </g>
    <g id="ytick_3">
     <g id="line2d_25">
      <g>
       <use xlink:href="#m6e34f5e37b" x="90" y="187.597277" style="stroke: #000000; stroke-width: 0.8"/>
      </g>
     </g>
     <g id="text_9">
      <!-- 20000 -->
      <g transform="translate(51.1875 191.396496) scale(0.1 -0.1)">
       <use xlink:href="#DejaVuSans-32"/>
       <use xlink:href="#DejaVuSans-30" x="63.623047"/>
       <use xlink:href="#DejaVuSans-30" x="127.246094"/>
       <use xlink:href="#DejaVuSans-30" x="190.869141"/>
       <use xlink:href="#DejaVuSans-30" x="254.492188"/>
      </g>
     </g>
    </g>
    <g id="ytick_4">
     <g id="line2d_26">
      <g>
       <use xlink:href="#m6e34f5e37b" x="90" y="127.495916" style="stroke: #000000; stroke-width: 0.8"/>
      </g>
     </g>
     <g id="text_10">
      <!-- 30000 -->
      <g transform="translate(51.1875 131.295134) scale(0.1 -0.1)">
       <use xlink:href="#DejaVuSans-33"/>
       <use xlink:href="#DejaVuSans-30" x="63.623047"/>
       <use xlink:href="#DejaVuSans-30" x="127.246094"/>
       <use xlink:href="#DejaVuSans-30" x="190.869141"/>
       <use xlink:href="#DejaVuSans-30" x="254.492188"/>
      </g>
     </g>
    </g>
    <g id="ytick_5">
     <g id="line2d_27">
      <g>
       <use xlink:href="#m6e34f5e37b" x="90" y="67.394554" style="stroke: #000000; stroke-width: 0.8"/>
      </g>
     </g>
     <g id="text_11">
      <!-- 40000 -->
      <g transform="translate(51.1875 71.193773) scale(0.1 -0.1)">
       <defs>
        <path id="DejaVuSans-34" d="M 2419 4116 
L 825 1625 
L 2419 1625 
L 2419 4116 
z
M 2253 4666 
L 3047 4666 
L 3047 1625 
L 3713 1625 
L 3713 1100 
L 3047 1100 
L 3047 0 
L 2419 0 
L 2419 1100 
L 313 1100 
L 313 1709 
L 2253 4666 
z
" transform="scale(0.015625)"/>
       </defs>
       <use xlink:href="#DejaVuSans-34"/>
       <use xlink:href="#DejaVuSans-30" x="63.623047"/>
       <use xlink:href="#DejaVuSans-30" x="127.246094"/>
       <use xlink:href="#DejaVuSans-30" x="190.869141"/>
       <use xlink:href="#DejaVuSans-30" x="254.492188"/>
      </g>
     </g>
    </g>
    <g id="text_12">
     <!-- Number of pip-installs per month -->
     <g transform="translate(45.107812 264.70625) rotate(-90) scale(0.1 -0.1)">
      <defs>
       <path id="DejaVuSans-4e" d="M 628 4666 
L 1478 4666 
L 3547 763 
L 3547 4666 
L 4159 4666 
L 4159 0 
L 3309 0 
L 1241 3903 
L 1241 0 
L 628 0 
L 628 4666 
z
" transform="scale(0.015625)"/>
       <path id="DejaVuSans-75" d="M 544 1381 
L 544 3500 
L 1119 3500 
L 1119 1403 
Q 1119 906 1312 657 
Q 1506 409 1894 409 
Q 2359 409 2629 706 
Q 2900 1003 2900 1516 
L 2900 3500 
L 3475 3500 
L 3475 0 
L 2900 0 
L 2900 538 
Q 2691 219 2414 64 
Q 2138 -91 1772 -91 
Q 1169 -91 856 284 
Q 544 659 544 1381 
z
M 1991 3584 
L 1991 3584 
z
" transform="scale(0.015625)"/>
       <path id="DejaVuSans-6d" d="M 3328 2828 
Q 3544 3216 3844 3400 
Q 4144 3584 4550 3584 
Q 5097 3584 5394 3201 
Q 5691 2819 5691 2113 
L 5691 0 
L 5113 0 
L 5113 2094 
Q 5113 2597 4934 2840 
Q 4756 3084 4391 3084 
Q 3944 3084 3684 2787 
Q 3425 2491 3425 1978 
L 3425 0 
L 2847 0 
L 2847 2094 
Q 2847 2600 2669 2842 
Q 2491 3084 2119 3084 
Q 1678 3084 1418 2786 
Q 1159 2488 1159 1978 
L 1159 0 
L 581 0 
L 581 3500 
L 1159 3500 
L 1159 2956 
Q 1356 3278 1631 3431 
Q 1906 3584 2284 3584 
Q 2666 3584 2933 3390 
Q 3200 3197 3328 2828 
z
" transform="scale(0.015625)"/>
       <path id="DejaVuSans-62" d="M 3116 1747 
Q 3116 2381 2855 2742 
Q 2594 3103 2138 3103 
Q 1681 3103 1420 2742 
Q 1159 2381 1159 1747 
Q 1159 1113 1420 752 
Q 1681 391 2138 391 
Q 2594 391 2855 752 
Q 3116 1113 3116 1747 
z
M 1159 2969 
Q 1341 3281 1617 3432 
Q 1894 3584 2278 3584 
Q 2916 3584 3314 3078 
Q 3713 2572 3713 1747 
Q 3713 922 3314 415 
Q 2916 -91 2278 -91 
Q 1894 -91 1617 61 
Q 1341 213 1159 525 
L 1159 0 
L 581 0 
L 581 4863 
L 1159 4863 
L 1159 2969 
z
" transform="scale(0.015625)"/>
       <path id="DejaVuSans-65" d="M 3597 1894 
L 3597 1613 
L 953 1613 
Q 991 1019 1311 708 
Q 1631 397 2203 397 
Q 2534 397 2845 478 
Q 3156 559 3463 722 
L 3463 178 
Q 3153 47 2828 -22 
Q 2503 -91 2169 -91 
Q 1331 -91 842 396 
Q 353 884 353 1716 
Q 353 2575 817 3079 
Q 1281 3584 2069 3584 
Q 2775 3584 3186 3129 
Q 3597 2675 3597 1894 
z
M 3022 2063 
Q 3016 2534 2758 2815 
Q 2500 3097 2075 3097 
Q 1594 3097 1305 2825 
Q 1016 2553 972 2059 
L 3022 2063 
z
" transform="scale(0.015625)"/>
       <path id="DejaVuSans-72" d="M 2631 2963 
Q 2534 3019 2420 3045 
Q 2306 3072 2169 3072 
Q 1681 3072 1420 2755 
Q 1159 2438 1159 1844 
L 1159 0 
L 581 0 
L 581 3500 
L 1159 3500 
L 1159 2956 
Q 1341 3275 1631 3429 
Q 1922 3584 2338 3584 
Q 2397 3584 2469 3576 
Q 2541 3569 2628 3553 
L 2631 2963 
z
" transform="scale(0.015625)"/>
       <path id="DejaVuSans-20" transform="scale(0.015625)"/>
       <path id="DejaVuSans-6f" d="M 1959 3097 
Q 1497 3097 1228 2736 
Q 959 2375 959 1747 
Q 959 1119 1226 758 
Q 1494 397 1959 397 
Q 2419 397 2687 759 
Q 2956 1122 2956 1747 
Q 2956 2369 2687 2733 
Q 2419 3097 1959 3097 
z
M 1959 3584 
Q 2709 3584 3137 3096 
Q 3566 2609 3566 1747 
Q 3566 888 3137 398 
Q 2709 -91 1959 -91 
Q 1206 -91 779 398 
Q 353 888 353 1747 
Q 353 2609 779 3096 
Q 1206 3584 1959 3584 
z
" transform="scale(0.015625)"/>
       <path id="DejaVuSans-66" d="M 2375 4863 
L 2375 4384 
L 1825 4384 
Q 1516 4384 1395 4259 
Q 1275 4134 1275 3809 
L 1275 3500 
L 2222 3500 
L 2222 3053 
L 1275 3053 
L 1275 0 
L 697 0 
L 697 3053 
L 147 3053 
L 147 3500 
L 697 3500 
L 697 3744 
Q 697 4328 969 4595 
Q 1241 4863 1831 4863 
L 2375 4863 
z
" transform="scale(0.015625)"/>
       <path id="DejaVuSans-70" d="M 1159 525 
L 1159 -1331 
L 581 -1331 
L 581 3500 
L 1159 3500 
L 1159 2969 
Q 1341 3281 1617 3432 
Q 1894 3584 2278 3584 
Q 2916 3584 3314 3078 
Q 3713 2572 3713 1747 
Q 3713 922 3314 415 
Q 2916 -91 2278 -91 
Q 1894 -91 1617 61 
Q 1341 213 1159 525 
z
M 3116 1747 
Q 3116 2381 2855 2742 
Q 2594 3103 2138 3103 
Q 1681 3103 1420 2742 
Q 1159 2381 1159 1747 
Q 1159 1113 1420 752 
Q 1681 391 2138 391 
Q 2594 391 2855 752 
Q 3116 1113 3116 1747 
z
" transform="scale(0.015625)"/>
       <path id="DejaVuSans-69" d="M 603 3500 
L 1178 3500 
L 1178 0 
L 603 0 
L 603 3500 
z
M 603 4863 
L 1178 4863 
L 1178 4134 
L 603 4134 
L 603 4863 
z
" transform="scale(0.015625)"/>
       <path id="DejaVuSans-2d" d="M 313 2009 
L 1997 2009 
L 1997 1497 
L 313 1497 
L 313 2009 
z
" transform="scale(0.015625)"/>
       <path id="DejaVuSans-6e" d="M 3513 2113 
L 3513 0 
L 2938 0 
L 2938 2094 
Q 2938 2591 2744 2837 
Q 2550 3084 2163 3084 
Q 1697 3084 1428 2787 
Q 1159 2491 1159 1978 
L 1159 0 
L 581 0 
L 581 3500 
L 1159 3500 
L 1159 2956 
Q 1366 3272 1645 3428 
Q 1925 3584 2291 3584 
Q 2894 3584 3203 3211 
Q 3513 2838 3513 2113 
z
" transform="scale(0.015625)"/>
       <path id="DejaVuSans-73" d="M 2834 3397 
L 2834 2853 
Q 2591 2978 2328 3040 
Q 2066 3103 1784 3103 
Q 1356 3103 1142 2972 
Q 928 2841 928 2578 
Q 928 2378 1081 2264 
Q 1234 2150 1697 2047 
L 1894 2003 
Q 2506 1872 2764 1633 
Q 3022 1394 3022 966 
Q 3022 478 2636 193 
Q 2250 -91 1575 -91 
Q 1294 -91 989 -36 
Q 684 19 347 128 
L 347 722 
Q 666 556 975 473 
Q 1284 391 1588 391 
Q 1994 391 2212 530 
Q 2431 669 2431 922 
Q 2431 1156 2273 1281 
Q 2116 1406 1581 1522 
L 1381 1569 
Q 847 1681 609 1914 
Q 372 2147 372 2553 
Q 372 3047 722 3315 
Q 1072 3584 1716 3584 
Q 2034 3584 2315 3537 
Q 2597 3491 2834 3397 
z
" transform="scale(0.015625)"/>
       <path id="DejaVuSans-74" d="M 1172 4494 
L 1172 3500 
L 2356 3500 
L 2356 3053 
L 1172 3053 
L 1172 1153 
Q 1172 725 1289 603 
Q 1406 481 1766 481 
L 2356 481 
L 2356 0 
L 1766 0 
Q 1100 0 847 248 
Q 594 497 594 1153 
L 594 3053 
L 172 3053 
L 172 3500 
L 594 3500 
L 594 4494 
L 1172 4494 
z
" transform="scale(0.015625)"/>
       <path id="DejaVuSans-61" d="M 2194 1759 
Q 1497 1759 1228 1600 
Q 959 1441 959 1056 
Q 959 750 1161 570 
Q 1363 391 1709 391 
Q 2188 391 2477 730 
Q 2766 1069 2766 1631 
L 2766 1759 
L 2194 1759 
z
M 3341 1997 
L 3341 0 
L 2766 0 
L 2766 531 
Q 2569 213 2275 61 
Q 1981 -91 1556 -91 
Q 1019 -91 701 211 
Q 384 513 384 1019 
Q 384 1609 779 1909 
Q 1175 2209 1959 2209 
L 2766 2209 
L 2766 2266 
Q 2766 2663 2505 2880 
Q 2244 3097 1772 3097 
Q 1472 3097 1187 3025 
Q 903 2953 641 2809 
L 641 3341 
Q 956 3463 1253 3523 
Q 1550 3584 1831 3584 
Q 2591 3584 2966 3190 
Q 3341 2797 3341 1997 
z
" transform="scale(0.015625)"/>
       <path id="DejaVuSans-6c" d="M 603 4863 
L 1178 4863 
L 1178 0 
L 603 0 
L 603 4863 
z
" transform="scale(0.015625)"/>
       <path id="DejaVuSans-68" d="M 3513 2113 
L 3513 0 
L 2938 0 
L 2938 2094 
Q 2938 2591 2744 2837 
Q 2550 3084 2163 3084 
Q 1697 3084 1428 2787 
Q 1159 2491 1159 1978 
L 1159 0 
L 581 0 
L 581 4863 
L 1159 4863 
L 1159 2956 
Q 1366 3272 1645 3428 
Q 1925 3584 2291 3584 
Q 2894 3584 3203 3211 
Q 3513 2838 3513 2113 
z
" transform="scale(0.015625)"/>
      </defs>
      <use xlink:href="#DejaVuSans-4e"/>
      <use xlink:href="#DejaVuSans-75" x="74.804688"/>
      <use xlink:href="#DejaVuSans-6d" x="138.183594"/>
      <use xlink:href="#DejaVuSans-62" x="235.595703"/>
      <use xlink:href="#DejaVuSans-65" x="299.072266"/>
      <use xlink:href="#DejaVuSans-72" x="360.595703"/>
      <use xlink:href="#DejaVuSans-20" x="401.708984"/>
      <use xlink:href="#DejaVuSans-6f" x="433.496094"/>
      <use xlink:href="#DejaVuSans-66" x="494.677734"/>
      <use xlink:href="#DejaVuSans-20" x="529.882812"/>
      <use xlink:href="#DejaVuSans-70" x="561.669922"/>
      <use xlink:href="#DejaVuSans-69" x="625.146484"/>
      <use xlink:href="#DejaVuSans-70" x="652.929688"/>
      <use xlink:href="#DejaVuSans-2d" x="716.40625"/>
      <use xlink:href="#DejaVuSans-69" x="752.490234"/>
      <use xlink:href="#DejaVuSans-6e" x="780.273438"/>
      <use xlink:href="#DejaVuSans-73" x="843.652344"/>
      <use xlink:href="#DejaVuSans-74" x="895.751953"/>
      <use xlink:href="#DejaVuSans-61" x="934.960938"/>
      <use xlink:href="#DejaVuSans-6c" x="996.240234"/>
      <use xlink:href="#DejaVuSans-6c" x="1024.023438"/>
      <use xlink:href="#DejaVuSans-73" x="1051.806641"/>
      <use xlink:href="#DejaVuSans-20" x="1103.90625"/>
      <use xlink:href="#DejaVuSans-70" x="1135.693359"/>
      <use xlink:href="#DejaVuSans-65" x="1199.169922"/>
      <use xlink:href="#DejaVuSans-72" x="1260.693359"/>
      <use xlink:href="#DejaVuSans-20" x="1301.806641"/>
      <use xlink:href="#DejaVuSans-6d" x="1333.59375"/>
      <use xlink:href="#DejaVuSans-6f" x="1431.005859"/>
      <use xlink:href="#DejaVuSans-6e" x="1492.1875"/>
      <use xlink:href="#DejaVuSans-74" x="1555.566406"/>
      <use xlink:href="#DejaVuSans-68" x="1594.775391"/>
     </g>
    </g>
   </g>
   <g id="line2d_28">
    <path d="M 85.536 307.63973 
L 97.44 307.557591 
L 100.416 307.333213 
L 109.344 307.257084 
L 124.224 307.094811 
L 127.2 306.929532 
L 133.152 306.962588 
L 136.128 307.21902 
L 148.032 307.524535 
L 151.008 307.191975 
L 153.984 306.985627 
L 156.96 306.588958 
L 162.912 306.351557 
L 165.888 306.090116 
L 171.84 305.95589 
L 174.816 305.834685 
L 177.792 305.572243 
L 180.768 305.08442 
L 186.72 302.904744 
L 189.696 301.449289 
L 192.672 299.318696 
L 195.648 299.524043 
L 201.6 298.54439 
L 204.576 297.541699 
L 207.552 297.011806 
L 210.528 296.766392 
L 213.504 293.699219 
L 216.48 290.987646 
L 219.456 289.080429 
L 222.432 288.534509 
L 225.408 287.33148 
L 228.384 288.224987 
L 231.36 290.499823 
L 234.336 291.743921 
L 237.312 293.723259 
L 240.288 295.153672 
L 243.264 296.009115 
L 246.24 295.779728 
L 249.216 294.016754 
L 252.192 294.86819 
L 255.168 292.878835 
L 258.144 292.232746 
L 261.12 291.818046 
L 264.096 292.4431 
L 267.072 290.688141 
L 270.048 286.850669 
L 273.024 284.525748 
L 276 277.131277 
L 278.976 249.381477 
L 281.952 237.831998 
L 284.928 232.633231 
L 287.904 229.243514 
L 290.88 219.486058 
L 293.856 219.075365 
L 296.832 243.771015 
L 299.808 246.443522 
L 302.784 247.977108 
L 305.76 253.966209 
L 308.736 261.184382 
L 311.712 255.849385 
L 314.688 243.69689 
L 317.664 241.594344 
L 320.64 241.231732 
L 323.616 233.958466 
L 326.592 230.517663 
L 329.568 232.89367 
L 332.544 236.847338 
L 335.52 233.224227 
L 338.496 224.008685 
L 341.472 218.949152 
L 344.448 216.892684 
L 350.4 228.90895 
L 353.376 233.657959 
L 356.352 237.505448 
L 359.328 238.526169 
L 362.304 235.263667 
L 365.28 228.658527 
L 368.256 221.713815 
L 371.232 223.97563 
L 374.208 232.03422 
L 377.184 236.43364 
L 380.16 241.179644 
L 383.136 242.814401 
L 386.112 240.306171 
L 389.088 234.200874 
L 392.064 221.029661 
L 395.04 210.874534 
L 398.016 206.351907 
L 400.992 198.483637 
L 403.968 197.2756 
L 406.944 191.732251 
L 409.92 199.384156 
L 412.896 211.578722 
L 415.872 206.364929 
L 418.848 199.407195 
L 421.824 197.177434 
L 424.8 194.298579 
L 427.776 169.601928 
L 430.752 163.761077 
L 433.728 158.477166 
L 436.704 161.109605 
L 439.68 157.801026 
L 442.656 146.165402 
L 445.632 153.408618 
L 448.608 141.214051 
L 451.584 141.173984 
L 454.56 112.266231 
L 457.536 115.716049 
L 460.512 137.303456 
L 466.464 153.784251 
L 469.44 164.689643 
L 472.416 206.677456 
L 475.392 210.947658 
L 478.368 210.033115 
L 481.344 219.331798 
L 484.32 223.046062 
L 487.296 230.26724 
L 490.272 223.438724 
L 493.248 222.522178 
L 496.224 216.892684 
L 499.2 205.88512 
L 502.176 209.304887 
L 505.152 207.191323 
L 508.128 215.827888 
L 511.104 222.393962 
L 517.056 239.58195 
L 520.032 244.174695 
L 523.008 245.382733 
L 525.984 245.2445 
L 528.96 241.321884 
L 531.936 222.68946 
L 534.912 217.322409 
L 537.888 198.219191 
L 540.864 199.763796 
L 543.84 199.259946 
L 546.816 193.698567 
L 549.792 207.017029 
L 552.768 210.886555 
L 555.744 213.97276 
L 558.72 201.273342 
L 561.696 123.509192 
L 564.672 95.998796 
L 570.624 89.724213 
L 573.6 97.023524 
L 576.576 108.460813 
L 579.552 182.233231 
L 582.528 220.531822 
L 585.504 226.635115 
L 588.48 235.634292 
L 594.432 196.069566 
L 597.408 191.420725 
L 600.384 103.081741 
L 603.36 103.851038 
L 606.336 98.773475 
L 609.312 114.061258 
L 612.288 92.898567 
L 615.264 99.028906 
L 618.24 181.721367 
L 621.216 172.435707 
L 624.192 168.430953 
L 627.168 114.549081 
L 630.144 141.459465 
L 633.12 120.47808 
L 636.096 73.794348 
L 639.072 74.842115 
L 642.048 55.8 
L 645.024 97.924043 
L 648 98.868636 
L 650.976 99.288343 
L 653.952 127.634149 
L 656.928 90.192002 
L 659.904 109.574691 
L 659.904 109.574691 
" clip-path="url(#paf9425b70f)" style="fill: none; stroke-dasharray: 1.5,2.475; stroke-dashoffset: 0; stroke: #1f77b4; stroke-width: 1.5"/>
   </g>
   <g id="line2d_29">
    <path d="M 85.536 307.766944 
L 109.344 307.78798 
L 139.104 307.8 
L 395.04 307.702836 
L 409.92 307.731885 
L 436.704 307.792988 
L 511.104 307.8 
L 659.904 307.78798 
L 659.904 307.78798 
" clip-path="url(#paf9425b70f)" style="fill: none; stroke: #ff7f0e; stroke-width: 1.5; stroke-linecap: square"/>
   </g>
   <g id="line2d_30">
    <path d="M 85.536 307.672785 
L 97.44 307.569611 
L 100.416 307.345233 
L 109.344 307.269105 
L 124.224 307.094811 
L 127.2 306.929532 
L 133.152 306.962588 
L 136.128 307.21902 
L 148.032 307.524535 
L 151.008 307.191975 
L 153.984 306.985627 
L 156.96 306.588958 
L 165.888 306.260403 
L 174.816 307.325199 
L 183.744 307.676792 
L 186.72 307.698829 
L 192.672 307.584637 
L 201.6 307.625706 
L 207.552 307.71686 
L 213.504 307.624704 
L 225.408 307.528542 
L 228.384 307.363263 
L 231.36 307.464434 
L 237.312 307.396319 
L 246.24 307.670782 
L 249.216 307.556589 
L 252.192 307.624704 
L 255.168 307.49148 
L 261.12 307.406336 
L 264.096 307.237051 
L 267.072 307.334214 
L 270.048 307.241057 
L 276 307.380292 
L 290.88 307.733889 
L 296.832 307.745909 
L 305.76 307.447405 
L 317.664 307.563601 
L 326.592 307.779966 
L 365.28 307.757929 
L 368.256 307.751919 
L 371.232 307.583635 
L 380.16 307.479459 
L 386.112 307.083792 
L 389.088 307.162926 
L 395.04 306.935542 
L 400.992 306.700145 
L 406.944 306.932537 
L 418.848 307.533551 
L 475.392 307.724873 
L 496.224 307.766944 
L 525.984 307.785976 
L 531.936 307.687811 
L 597.408 307.796995 
L 600.384 307.595655 
L 612.288 307.486471 
L 615.264 307.396319 
L 618.24 307.597659 
L 639.072 307.692819 
L 645.024 307.794992 
L 659.904 307.700833 
L 659.904 307.700833 
" clip-path="url(#paf9425b70f)" style="fill: none; stroke: #2ca02c; stroke-width: 1.5; stroke-linecap: square"/>
   </g>
   <g id="line2d_31">
    <path d="M 85.536 307.8 
L 162.912 307.78197 
L 165.888 307.629713 
L 171.84 306.880449 
L 174.816 306.310488 
L 177.792 305.912817 
L 180.768 305.308799 
L 186.72 303.005915 
L 189.696 301.664653 
L 192.672 299.54608 
L 195.648 299.713362 
L 201.6 298.730705 
L 204.576 297.737029 
L 207.552 297.094946 
L 210.528 296.840517 
L 213.504 293.886535 
L 216.48 291.184979 
L 219.456 289.259732 
L 222.432 288.821993 
L 225.408 287.626978 
L 228.384 288.698786 
L 231.36 290.860431 
L 234.336 292.189673 
L 237.312 294.159996 
L 240.288 295.50226 
L 243.264 296.336667 
L 246.24 295.920966 
L 249.216 294.284206 
L 252.192 295.059513 
L 255.168 293.205386 
L 258.144 292.554288 
L 261.12 292.242763 
L 264.096 293.046117 
L 267.072 291.181974 
L 270.048 287.449679 
L 273.024 285.000549 
L 276 277.589049 
L 278.976 249.742085 
L 281.952 238.018313 
L 284.928 232.806523 
L 287.904 229.313632 
L 290.88 219.552169 
L 293.856 219.134465 
L 296.832 243.825106 
L 299.808 246.613809 
L 302.784 248.270603 
L 305.76 254.354864 
L 308.736 261.568029 
L 311.712 256.231029 
L 314.688 244.080537 
L 317.664 241.854783 
L 320.64 241.373972 
L 323.616 233.983508 
L 326.592 230.5397 
L 329.568 232.909697 
L 332.544 236.858356 
L 335.52 233.235246 
L 338.496 224.0177 
L 341.472 218.958168 
L 344.448 216.921733 
L 350.4 228.969051 
L 353.376 233.769146 
L 356.352 237.623647 
L 359.328 238.693451 
L 362.304 235.510082 
L 368.256 222.778611 
L 371.232 225.791692 
L 374.208 234.437273 
L 380.16 245.147336 
L 383.136 247.525346 
L 386.112 245.877567 
L 389.088 239.681117 
L 392.064 226.779358 
L 395.04 216.812549 
L 398.016 213.03017 
L 400.992 206.286797 
L 403.968 204.875417 
L 406.944 204.246356 
L 409.92 214.611837 
L 412.896 229.19944 
L 415.872 227.161002 
L 418.848 222.412994 
L 421.824 224.046749 
L 424.8 220.46571 
L 427.776 200.541107 
L 433.728 192.723923 
L 436.704 196.11965 
L 439.68 193.471184 
L 442.656 185.996578 
L 445.632 194.946672 
L 448.608 187.740519 
L 451.584 192.43143 
L 454.56 182.335403 
L 457.536 188.468747 
L 460.512 207.27246 
L 463.488 211.02579 
L 466.464 214.992479 
L 469.44 220.665046 
L 472.416 242.350619 
L 475.392 245.168371 
L 478.368 243.441459 
L 481.344 252.216258 
L 484.32 254.457037 
L 487.296 261.51494 
L 490.272 256.287123 
L 493.248 252.279364 
L 496.224 250.467308 
L 499.2 246.794113 
L 502.176 252.863349 
L 505.152 254.612299 
L 508.128 264.749395 
L 511.104 277.200394 
L 514.08 286.890736 
L 517.056 295.527302 
L 520.032 297.573753 
L 525.984 299.568117 
L 528.96 297.64888 
L 531.936 288.678752 
L 534.912 287.686078 
L 537.888 286.143476 
L 540.864 286.083375 
L 543.84 285.278016 
L 546.816 279.315961 
L 549.792 285.450307 
L 552.768 283.069291 
L 555.744 278.629804 
L 558.72 271.98059 
L 561.696 259.141938 
L 564.672 247.507316 
L 567.648 244.280874 
L 570.624 242.919579 
L 573.6 248.198482 
L 576.576 254.074391 
L 579.552 264.665253 
L 582.528 281.866263 
L 585.504 283.00318 
L 588.48 286.560179 
L 591.456 272.961244 
L 594.432 262.375391 
L 597.408 260.142625 
L 600.384 216.897693 
L 603.36 218.066664 
L 606.336 214.903329 
L 609.312 223.077114 
L 612.288 212.259871 
L 615.264 216.843601 
L 618.24 261.658181 
L 621.216 265.13204 
L 624.192 266.517377 
L 627.168 220.223301 
L 630.144 235.860674 
L 633.12 226.523927 
L 636.096 199.549435 
L 639.072 199.71271 
L 642.048 195.274224 
L 645.024 246.633843 
L 648 253.172871 
L 650.976 257.733563 
L 653.952 278.35434 
L 656.928 257.521204 
L 659.904 262.217124 
L 659.904 262.217124 
" clip-path="url(#paf9425b70f)" style="fill: none; stroke: #d62728; stroke-width: 1.5; stroke-linecap: square"/>
   </g>
   <g id="line2d_32">
    <path d="M 85.536 307.8 
L 356.352 307.705841 
L 362.304 307.59866 
L 365.28 307.311176 
L 374.208 305.667403 
L 377.184 304.863047 
L 380.16 304.190913 
L 383.136 303.67304 
L 386.112 303.035965 
L 392.064 302.936798 
L 395.04 302.823607 
L 398.016 302.212577 
L 400.992 301.203876 
L 403.968 301.209886 
L 406.944 296.234495 
L 409.92 293.356641 
L 412.896 290.831382 
L 415.872 287.56287 
L 418.848 285.090701 
L 421.824 281.211158 
L 424.8 281.885295 
L 427.776 277.079189 
L 430.752 275.138917 
L 433.728 273.72954 
L 436.704 272.898138 
L 439.68 272.255053 
L 442.656 268.110063 
L 445.632 266.384152 
L 448.608 261.362683 
L 451.584 256.614676 
L 454.56 237.789927 
L 457.536 235.071343 
L 460.512 237.833 
L 463.488 242.362639 
L 466.464 246.600787 
L 469.44 251.852644 
L 472.416 272.177923 
L 475.392 273.657418 
L 478.368 274.478804 
L 481.344 275.011702 
L 484.32 276.491197 
L 487.296 276.637444 
L 490.272 275.014707 
L 493.248 278.078875 
L 496.224 274.261437 
L 499.2 266.915047 
L 502.176 264.25456 
L 505.152 260.392046 
L 508.128 258.889512 
L 511.104 253.004587 
L 514.08 251.759487 
L 517.056 251.866668 
L 520.032 254.412962 
L 523.008 254.591263 
L 525.984 253.491408 
L 528.96 251.602222 
L 531.936 241.93592 
L 534.912 237.555532 
L 537.888 219.994916 
L 540.864 221.597619 
L 546.816 222.182606 
L 549.792 229.368725 
L 552.768 235.619267 
L 555.744 243.144959 
L 558.72 237.095757 
L 561.696 172.171261 
L 564.672 156.295486 
L 567.648 156.347574 
L 570.624 154.609643 
L 573.6 156.630051 
L 576.576 162.190428 
L 579.552 225.48818 
L 582.528 246.600787 
L 585.504 251.653308 
L 588.48 257.165605 
L 591.456 251.394872 
L 594.432 242.004035 
L 597.408 239.576941 
L 600.384 194.867539 
L 603.36 194.545996 
L 606.336 192.809067 
L 609.312 199.967139 
L 612.288 189.684798 
L 615.264 191.449774 
L 618.24 229.073227 
L 621.216 216.290669 
L 624.192 211.18606 
L 627.168 219.607262 
L 630.144 245.93867 
L 633.12 253.116776 
L 636.096 258.6451 
L 639.072 273.274773 
L 642.048 274.983655 
L 645.024 269.859012 
L 648 268.645966 
L 650.976 262.918307 
L 653.952 266.641586 
L 656.928 264.227515 
L 659.904 271.616977 
L 659.904 271.616977 
" clip-path="url(#paf9425b70f)" style="fill: none; stroke: #9467bd; stroke-width: 1.5; stroke-linecap: square"/>
   </g>
   <g id="line2d_33">
    <path d="M 85.536 307.8 
L 585.504 307.698829 
L 597.408 307.307169 
L 603.36 307.071772 
L 618.24 306.813336 
L 621.216 306.83337 
L 624.192 306.532863 
L 627.168 290.523864 
L 630.144 275.467471 
L 633.12 256.544557 
L 636.096 231.307996 
L 639.072 217.562814 
L 642.048 201.148131 
L 645.024 197.037198 
L 648 192.652803 
L 650.976 194.348663 
L 653.952 198.349411 
L 656.928 184.154471 
L 659.904 191.451778 
L 659.904 191.451778 
" clip-path="url(#paf9425b70f)" style="fill: none; stroke: #8c564b; stroke-width: 1.5; stroke-linecap: square"/>
   </g>
   <g id="line2d_34">
    <path d="M 408.1344 320.4 
L 408.1344 43.2 
" clip-path="url(#paf9425b70f)" style="fill: none; stroke-dasharray: 1.5,2.475; stroke-dashoffset: 0; stroke: #808080; stroke-width: 1.5"/>
   </g>
   <g id="line2d_35">
    <path d="M 626.5728 320.4 
L 626.5728 43.2 
" clip-path="url(#paf9425b70f)" style="fill: none; stroke-dasharray: 1.5,2.475; stroke-dashoffset: 0; stroke: #808080; stroke-width: 1.5"/>
   </g>
   <g id="patch_3">
    <path d="M 90 320.4 
L 90 43.2 
" style="fill: none; stroke: #000000; stroke-width: 0.8; stroke-linejoin: miter; stroke-linecap: square"/>
   </g>
   <g id="patch_4">
    <path d="M 648 320.4 
L 648 43.2 
" style="fill: none; stroke: #000000; stroke-width: 0.8; stroke-linejoin: miter; stroke-linecap: square"/>
   </g>
   <g id="patch_5">
    <path d="M 90 320.4 
L 648 320.4 
" style="fill: none; stroke: #000000; stroke-width: 0.8; stroke-linejoin: miter; stroke-linecap: square"/>
   </g>
   <g id="patch_6">
    <path d="M 90 43.2 
L 648 43.2 
" style="fill: none; stroke: #000000; stroke-width: 0.8; stroke-linejoin: miter; stroke-linecap: square"/>
   </g>
   <g id="text_13">
    <!-- release date -->
    <g transform="translate(405.316837 158.590447) rotate(-90) scale(0.1 -0.1)">
     <defs>
      <path id="DejaVuSans-64" d="M 2906 2969 
L 2906 4863 
L 3481 4863 
L 3481 0 
L 2906 0 
L 2906 525 
Q 2725 213 2448 61 
Q 2172 -91 1784 -91 
Q 1150 -91 751 415 
Q 353 922 353 1747 
Q 353 2572 751 3078 
Q 1150 3584 1784 3584 
Q 2172 3584 2448 3432 
Q 2725 3281 2906 2969 
z
M 947 1747 
Q 947 1113 1208 752 
Q 1469 391 1925 391 
Q 2381 391 2643 752 
Q 2906 1113 2906 1747 
Q 2906 2381 2643 2742 
Q 2381 3103 1925 3103 
Q 1469 3103 1208 2742 
Q 947 2381 947 1747 
z
" transform="scale(0.015625)"/>
     </defs>
     <use xlink:href="#DejaVuSans-72"/>
     <use xlink:href="#DejaVuSans-65" x="38.863281"/>
     <use xlink:href="#DejaVuSans-6c" x="100.386719"/>
     <use xlink:href="#DejaVuSans-65" x="128.169922"/>
     <use xlink:href="#DejaVuSans-61" x="189.693359"/>
     <use xlink:href="#DejaVuSans-73" x="250.972656"/>
     <use xlink:href="#DejaVuSans-65" x="303.072266"/>
     <use xlink:href="#DejaVuSans-20" x="364.595703"/>
     <use xlink:href="#DejaVuSans-64" x="396.382812"/>
     <use xlink:href="#DejaVuSans-61" x="459.859375"/>
     <use xlink:href="#DejaVuSans-74" x="521.138672"/>
     <use xlink:href="#DejaVuSans-65" x="560.347656"/>
    </g>
   </g>
   <g id="text_14">
    <!-- release date -->
    <g transform="translate(623.755237 158.590447) rotate(-90) scale(0.1 -0.1)">
     <use xlink:href="#DejaVuSans-72"/>
     <use xlink:href="#DejaVuSans-65" x="38.863281"/>
     <use xlink:href="#DejaVuSans-6c" x="100.386719"/>
     <use xlink:href="#DejaVuSans-65" x="128.169922"/>
     <use xlink:href="#DejaVuSans-61" x="189.693359"/>
     <use xlink:href="#DejaVuSans-73" x="250.972656"/>
     <use xlink:href="#DejaVuSans-65" x="303.072266"/>
     <use xlink:href="#DejaVuSans-20" x="364.595703"/>
     <use xlink:href="#DejaVuSans-64" x="396.382812"/>
     <use xlink:href="#DejaVuSans-61" x="459.859375"/>
     <use xlink:href="#DejaVuSans-74" x="521.138672"/>
     <use xlink:href="#DejaVuSans-65" x="560.347656"/>
    </g>
   </g>
   <g id="text_15">
    <!-- All operating systems -->
    <g transform="translate(303.985313 37.2) scale(0.12 -0.12)">
     <defs>
      <path id="DejaVuSans-41" d="M 2188 4044 
L 1331 1722 
L 3047 1722 
L 2188 4044 
z
M 1831 4666 
L 2547 4666 
L 4325 0 
L 3669 0 
L 3244 1197 
L 1141 1197 
L 716 0 
L 50 0 
L 1831 4666 
z
" transform="scale(0.015625)"/>
      <path id="DejaVuSans-67" d="M 2906 1791 
Q 2906 2416 2648 2759 
Q 2391 3103 1925 3103 
Q 1463 3103 1205 2759 
Q 947 2416 947 1791 
Q 947 1169 1205 825 
Q 1463 481 1925 481 
Q 2391 481 2648 825 
Q 2906 1169 2906 1791 
z
M 3481 434 
Q 3481 -459 3084 -895 
Q 2688 -1331 1869 -1331 
Q 1566 -1331 1297 -1286 
Q 1028 -1241 775 -1147 
L 775 -588 
Q 1028 -725 1275 -790 
Q 1522 -856 1778 -856 
Q 2344 -856 2625 -561 
Q 2906 -266 2906 331 
L 2906 616 
Q 2728 306 2450 153 
Q 2172 0 1784 0 
Q 1141 0 747 490 
Q 353 981 353 1791 
Q 353 2603 747 3093 
Q 1141 3584 1784 3584 
Q 2172 3584 2450 3431 
Q 2728 3278 2906 2969 
L 2906 3500 
L 3481 3500 
L 3481 434 
z
" transform="scale(0.015625)"/>
      <path id="DejaVuSans-79" d="M 2059 -325 
Q 1816 -950 1584 -1140 
Q 1353 -1331 966 -1331 
L 506 -1331 
L 506 -850 
L 844 -850 
Q 1081 -850 1212 -737 
Q 1344 -625 1503 -206 
L 1606 56 
L 191 3500 
L 800 3500 
L 1894 763 
L 2988 3500 
L 3597 3500 
L 2059 -325 
z
" transform="scale(0.015625)"/>
     </defs>
     <use xlink:href="#DejaVuSans-41"/>
     <use xlink:href="#DejaVuSans-6c" x="68.408203"/>
     <use xlink:href="#DejaVuSans-6c" x="96.191406"/>
     <use xlink:href="#DejaVuSans-20" x="123.974609"/>
     <use xlink:href="#DejaVuSans-6f" x="155.761719"/>
     <use xlink:href="#DejaVuSans-70" x="216.943359"/>
     <use xlink:href="#DejaVuSans-65" x="280.419922"/>
     <use xlink:href="#DejaVuSans-72" x="341.943359"/>
     <use xlink:href="#DejaVuSans-61" x="383.056641"/>
     <use xlink:href="#DejaVuSans-74" x="444.335938"/>
     <use xlink:href="#DejaVuSans-69" x="483.544922"/>
     <use xlink:href="#DejaVuSans-6e" x="511.328125"/>
     <use xlink:href="#DejaVuSans-67" x="574.707031"/>
     <use xlink:href="#DejaVuSans-20" x="638.183594"/>
     <use xlink:href="#DejaVuSans-73" x="669.970703"/>
     <use xlink:href="#DejaVuSans-79" x="722.070312"/>
     <use xlink:href="#DejaVuSans-73" x="781.25"/>
     <use xlink:href="#DejaVuSans-74" x="833.349609"/>
     <use xlink:href="#DejaVuSans-65" x="872.558594"/>
     <use xlink:href="#DejaVuSans-6d" x="934.082031"/>
     <use xlink:href="#DejaVuSans-73" x="1031.494141"/>
    </g>
   </g>
   <g id="legend_1">
    <g id="patch_7">
     <path d="M 97 139.26875 
L 230.390625 139.26875 
Q 232.390625 139.26875 232.390625 137.26875 
L 232.390625 50.2 
Q 232.390625 48.2 230.390625 48.2 
L 97 48.2 
Q 95 48.2 95 50.2 
L 95 137.26875 
Q 95 139.26875 97 139.26875 
z
" style="fill: #ffffff; opacity: 0.8; stroke: #cccccc; stroke-linejoin: miter"/>
    </g>
    <g id="line2d_36">
     <path d="M 99 56.298437 
L 109 56.298437 
L 119 56.298437 
" style="fill: none; stroke-dasharray: 1.5,2.475; stroke-dashoffset: 0; stroke: #1f77b4; stroke-width: 1.5"/>
    </g>
    <g id="text_16">
     <!-- Uproot (all versions) -->
     <g transform="translate(127 59.798437) scale(0.1 -0.1)">
      <defs>
       <path id="DejaVuSans-55" d="M 556 4666 
L 1191 4666 
L 1191 1831 
Q 1191 1081 1462 751 
Q 1734 422 2344 422 
Q 2950 422 3222 751 
Q 3494 1081 3494 1831 
L 3494 4666 
L 4128 4666 
L 4128 1753 
Q 4128 841 3676 375 
Q 3225 -91 2344 -91 
Q 1459 -91 1007 375 
Q 556 841 556 1753 
L 556 4666 
z
" transform="scale(0.015625)"/>
       <path id="DejaVuSans-28" d="M 1984 4856 
Q 1566 4138 1362 3434 
Q 1159 2731 1159 2009 
Q 1159 1288 1364 580 
Q 1569 -128 1984 -844 
L 1484 -844 
Q 1016 -109 783 600 
Q 550 1309 550 2009 
Q 550 2706 781 3412 
Q 1013 4119 1484 4856 
L 1984 4856 
z
" transform="scale(0.015625)"/>
       <path id="DejaVuSans-76" d="M 191 3500 
L 800 3500 
L 1894 563 
L 2988 3500 
L 3597 3500 
L 2284 0 
L 1503 0 
L 191 3500 
z
" transform="scale(0.015625)"/>
       <path id="DejaVuSans-29" d="M 513 4856 
L 1013 4856 
Q 1481 4119 1714 3412 
Q 1947 2706 1947 2009 
Q 1947 1309 1714 600 
Q 1481 -109 1013 -844 
L 513 -844 
Q 928 -128 1133 580 
Q 1338 1288 1338 2009 
Q 1338 2731 1133 3434 
Q 928 4138 513 4856 
z
" transform="scale(0.015625)"/>
      </defs>
      <use xlink:href="#DejaVuSans-55"/>
      <use xlink:href="#DejaVuSans-70" x="73.193359"/>
      <use xlink:href="#DejaVuSans-72" x="136.669922"/>
      <use xlink:href="#DejaVuSans-6f" x="175.533203"/>
      <use xlink:href="#DejaVuSans-6f" x="236.714844"/>
      <use xlink:href="#DejaVuSans-74" x="297.896484"/>
      <use xlink:href="#DejaVuSans-20" x="337.105469"/>
      <use xlink:href="#DejaVuSans-28" x="368.892578"/>
      <use xlink:href="#DejaVuSans-61" x="407.90625"/>
      <use xlink:href="#DejaVuSans-6c" x="469.185547"/>
      <use xlink:href="#DejaVuSans-6c" x="496.96875"/>
      <use xlink:href="#DejaVuSans-20" x="524.751953"/>
      <use xlink:href="#DejaVuSans-76" x="556.539062"/>
      <use xlink:href="#DejaVuSans-65" x="615.71875"/>
      <use xlink:href="#DejaVuSans-72" x="677.242188"/>
      <use xlink:href="#DejaVuSans-73" x="718.355469"/>
      <use xlink:href="#DejaVuSans-69" x="770.455078"/>
      <use xlink:href="#DejaVuSans-6f" x="798.238281"/>
      <use xlink:href="#DejaVuSans-6e" x="859.419922"/>
      <use xlink:href="#DejaVuSans-73" x="922.798828"/>
      <use xlink:href="#DejaVuSans-29" x="974.898438"/>
     </g>
    </g>
    <g id="line2d_37">
     <path d="M 99 70.976562 
L 109 70.976562 
L 119 70.976562 
" style="fill: none; stroke: #ff7f0e; stroke-width: 1.5; stroke-linecap: square"/>
    </g>
    <g id="text_17">
     <!-- Uproot 1.x -->
     <g transform="translate(127 74.476562) scale(0.1 -0.1)">
      <defs>
       <path id="DejaVuSans-2e" d="M 684 794 
L 1344 794 
L 1344 0 
L 684 0 
L 684 794 
z
" transform="scale(0.015625)"/>
       <path id="DejaVuSans-78" d="M 3513 3500 
L 2247 1797 
L 3578 0 
L 2900 0 
L 1881 1375 
L 863 0 
L 184 0 
L 1544 1831 
L 300 3500 
L 978 3500 
L 1906 2253 
L 2834 3500 
L 3513 3500 
z
" transform="scale(0.015625)"/>
      </defs>
      <use xlink:href="#DejaVuSans-55"/>
      <use xlink:href="#DejaVuSans-70" x="73.193359"/>
      <use xlink:href="#DejaVuSans-72" x="136.669922"/>
      <use xlink:href="#DejaVuSans-6f" x="175.533203"/>
      <use xlink:href="#DejaVuSans-6f" x="236.714844"/>
      <use xlink:href="#DejaVuSans-74" x="297.896484"/>
      <use xlink:href="#DejaVuSans-20" x="337.105469"/>
      <use xlink:href="#DejaVuSans-31" x="368.892578"/>
      <use xlink:href="#DejaVuSans-2e" x="432.515625"/>
      <use xlink:href="#DejaVuSans-78" x="464.302734"/>
     </g>
    </g>
    <g id="line2d_38">
     <path d="M 99 85.654687 
L 109 85.654687 
L 119 85.654687 
" style="fill: none; stroke: #2ca02c; stroke-width: 1.5; stroke-linecap: square"/>
    </g>
    <g id="text_18">
     <!-- Uproot 2.x -->
     <g transform="translate(127 89.154687) scale(0.1 -0.1)">
      <use xlink:href="#DejaVuSans-55"/>
      <use xlink:href="#DejaVuSans-70" x="73.193359"/>
      <use xlink:href="#DejaVuSans-72" x="136.669922"/>
      <use xlink:href="#DejaVuSans-6f" x="175.533203"/>
      <use xlink:href="#DejaVuSans-6f" x="236.714844"/>
      <use xlink:href="#DejaVuSans-74" x="297.896484"/>
      <use xlink:href="#DejaVuSans-20" x="337.105469"/>
      <use xlink:href="#DejaVuSans-32" x="368.892578"/>
      <use xlink:href="#DejaVuSans-2e" x="432.515625"/>
      <use xlink:href="#DejaVuSans-78" x="464.302734"/>
     </g>
    </g>
    <g id="line2d_39">
     <path d="M 99 100.332812 
L 109 100.332812 
L 119 100.332812 
" style="fill: none; stroke: #d62728; stroke-width: 1.5; stroke-linecap: square"/>
    </g>
    <g id="text_19">
     <!-- Uproot 3.x -->
     <g transform="translate(127 103.832812) scale(0.1 -0.1)">
      <use xlink:href="#DejaVuSans-55"/>
      <use xlink:href="#DejaVuSans-70" x="73.193359"/>
      <use xlink:href="#DejaVuSans-72" x="136.669922"/>
      <use xlink:href="#DejaVuSans-6f" x="175.533203"/>
      <use xlink:href="#DejaVuSans-6f" x="236.714844"/>
      <use xlink:href="#DejaVuSans-74" x="297.896484"/>
      <use xlink:href="#DejaVuSans-20" x="337.105469"/>
      <use xlink:href="#DejaVuSans-33" x="368.892578"/>
      <use xlink:href="#DejaVuSans-2e" x="432.515625"/>
      <use xlink:href="#DejaVuSans-78" x="464.302734"/>
     </g>
    </g>
    <g id="line2d_40">
     <path d="M 99 115.010937 
L 109 115.010937 
L 119 115.010937 
" style="fill: none; stroke: #9467bd; stroke-width: 1.5; stroke-linecap: square"/>
    </g>
    <g id="text_20">
     <!-- Uproot 4.x -->
     <g transform="translate(127 118.510937) scale(0.1 -0.1)">
      <use xlink:href="#DejaVuSans-55"/>
      <use xlink:href="#DejaVuSans-70" x="73.193359"/>
      <use xlink:href="#DejaVuSans-72" x="136.669922"/>
      <use xlink:href="#DejaVuSans-6f" x="175.533203"/>
      <use xlink:href="#DejaVuSans-6f" x="236.714844"/>
      <use xlink:href="#DejaVuSans-74" x="297.896484"/>
      <use xlink:href="#DejaVuSans-20" x="337.105469"/>
      <use xlink:href="#DejaVuSans-34" x="368.892578"/>
      <use xlink:href="#DejaVuSans-2e" x="432.515625"/>
      <use xlink:href="#DejaVuSans-78" x="464.302734"/>
     </g>
    </g>
    <g id="line2d_41">
     <path d="M 99 129.689062 
L 109 129.689062 
L 119 129.689062 
" style="fill: none; stroke: #8c564b; stroke-width: 1.5; stroke-linecap: square"/>
    </g>
    <g id="text_21">
     <!-- Uproot 5.x -->
     <g transform="translate(127 133.189062) scale(0.1 -0.1)">
      <defs>
       <path id="DejaVuSans-35" d="M 691 4666 
L 3169 4666 
L 3169 4134 
L 1269 4134 
L 1269 2991 
Q 1406 3038 1543 3061 
Q 1681 3084 1819 3084 
Q 2600 3084 3056 2656 
Q 3513 2228 3513 1497 
Q 3513 744 3044 326 
Q 2575 -91 1722 -91 
Q 1428 -91 1123 -41 
Q 819 9 494 109 
L 494 744 
Q 775 591 1075 516 
Q 1375 441 1709 441 
Q 2250 441 2565 725 
Q 2881 1009 2881 1497 
Q 2881 1984 2565 2268 
Q 2250 2553 1709 2553 
Q 1456 2553 1204 2497 
Q 953 2441 691 2322 
L 691 4666 
z
" transform="scale(0.015625)"/>
      </defs>
      <use xlink:href="#DejaVuSans-55"/>
      <use xlink:href="#DejaVuSans-70" x="73.193359"/>
      <use xlink:href="#DejaVuSans-72" x="136.669922"/>
      <use xlink:href="#DejaVuSans-6f" x="175.533203"/>
      <use xlink:href="#DejaVuSans-6f" x="236.714844"/>
      <use xlink:href="#DejaVuSans-74" x="297.896484"/>
      <use xlink:href="#DejaVuSans-20" x="337.105469"/>
      <use xlink:href="#DejaVuSans-35" x="368.892578"/>
      <use xlink:href="#DejaVuSans-2e" x="432.515625"/>
      <use xlink:href="#DejaVuSans-78" x="464.302734"/>
     </g>
    </g>
   </g>
  </g>
 </g>
 <defs>
  <clipPath id="paf9425b70f">
   <rect x="90" y="43.2" width="558" height="277.2"/>
  </clipPath>
 </defs>
</svg>
