<?xml version="1.0" encoding="utf-8" standalone="no"?>
<!DOCTYPE svg PUBLIC "-//W3C//DTD SVG 1.1//EN"
  "http://www.w3.org/Graphics/SVG/1.1/DTD/svg11.dtd">
<svg xmlns:xlink="http://www.w3.org/1999/xlink" width="720pt" height="360pt" viewBox="0 0 720 360" xmlns="http://www.w3.org/2000/svg" version="1.1">
 <metadata>
  <rdf:RDF xmlns:dc="http://purl.org/dc/elements/1.1/" xmlns:cc="http://creativecommons.org/ns#" xmlns:rdf="http://www.w3.org/1999/02/22-rdf-syntax-ns#">
   <cc:Work>
    <dc:type rdf:resource="http://purl.org/dc/dcmitype/StillImage"/>
    <dc:date>2023-04-05T16:17:20.860476</dc:date>
    <dc:format>image/svg+xml</dc:format>
    <dc:creator>
     <cc:Agent>
      <dc:title>Matplotlib v3.7.1, https://matplotlib.org/</dc:title>
     </cc:Agent>
    </dc:creator>
   </cc:Work>
  </rdf:RDF>
 </metadata>
 <defs>
  <style type="text/css">*{stroke-linejoin: round; stroke-linecap: butt}</style>
 </defs>
 <g id="figure_1">
  <g id="patch_1">
   <path d="M 0 360 
L 720 360 
L 720 0 
L 0 0 
z
" style="fill: #ffffff"/>
  </g>
  <g id="axes_1">
   <g id="patch_2">
    <path d="M 90 320.4 
L 648 320.4 
L 648 43.2 
L 90 43.2 
z
" style="fill: #ffffff"/>
   </g>
   <g id="matplotlib.axis_1">
    <g id="xtick_1">
     <g id="line2d_1">
      <defs>
       <path id="m87af131f8a" d="M 0 0 
L 0 3.5 
" style="stroke: #000000; stroke-width: 0.8"/>
      </defs>
      <g>
       <use xlink:href="#m87af131f8a" x="90" y="320.4" style="stroke: #000000; stroke-width: 0.8"/>
      </g>
     </g>
     <g id="text_1">
      <!-- 2017 -->
      <g transform="translate(77.275 334.998438) scale(0.1 -0.1)">
       <defs>
        <path id="DejaVuSans-32" d="M 1228 531 
L 3431 531 
L 3431 0 
L 469 0 
L 469 531 
Q 828 903 1448 1529 
Q 2069 2156 2228 2338 
Q 2531 2678 2651 2914 
Q 2772 3150 2772 3378 
Q 2772 3750 2511 3984 
Q 2250 4219 1831 4219 
Q 1534 4219 1204 4116 
Q 875 4013 500 3803 
L 500 4441 
Q 881 4594 1212 4672 
Q 1544 4750 1819 4750 
Q 2544 4750 2975 4387 
Q 3406 4025 3406 3419 
Q 3406 3131 3298 2873 
Q 3191 2616 2906 2266 
Q 2828 2175 2409 1742 
Q 1991 1309 1228 531 
z
" transform="scale(0.015625)"/>
        <path id="DejaVuSans-30" d="M 2034 4250 
Q 1547 4250 1301 3770 
Q 1056 3291 1056 2328 
Q 1056 1369 1301 889 
Q 1547 409 2034 409 
Q 2525 409 2770 889 
Q 3016 1369 3016 2328 
Q 3016 3291 2770 3770 
Q 2525 4250 2034 4250 
z
M 2034 4750 
Q 2819 4750 3233 4129 
Q 3647 3509 3647 2328 
Q 3647 1150 3233 529 
Q 2819 -91 2034 -91 
Q 1250 -91 836 529 
Q 422 1150 422 2328 
Q 422 3509 836 4129 
Q 1250 4750 2034 4750 
z
" transform="scale(0.015625)"/>
        <path id="DejaVuSans-31" d="M 794 531 
L 1825 531 
L 1825 4091 
L 703 3866 
L 703 4441 
L 1819 4666 
L 2450 4666 
L 2450 531 
L 3481 531 
L 3481 0 
L 794 0 
L 794 531 
z
" transform="scale(0.015625)"/>
        <path id="DejaVuSans-37" d="M 525 4666 
L 3525 4666 
L 3525 4397 
L 1831 0 
L 1172 0 
L 2766 4134 
L 525 4134 
L 525 4666 
z
" transform="scale(0.015625)"/>
       </defs>
       <use xlink:href="#DejaVuSans-32"/>
       <use xlink:href="#DejaVuSans-30" x="63.623047"/>
       <use xlink:href="#DejaVuSans-31" x="127.246094"/>
       <use xlink:href="#DejaVuSans-37" x="190.869141"/>
      </g>
     </g>
    </g>
    <g id="xtick_2">
     <g id="line2d_2">
      <g>
       <use xlink:href="#m87af131f8a" x="180.924107" y="320.4" style="stroke: #000000; stroke-width: 0.8"/>
      </g>
     </g>
     <g id="text_2">
      <!-- 2018 -->
      <g transform="translate(168.199107 334.998438) scale(0.1 -0.1)">
       <defs>
        <path id="DejaVuSans-38" d="M 2034 2216 
Q 1584 2216 1326 1975 
Q 1069 1734 1069 1313 
Q 1069 891 1326 650 
Q 1584 409 2034 409 
Q 2484 409 2743 651 
Q 3003 894 3003 1313 
Q 3003 1734 2745 1975 
Q 2488 2216 2034 2216 
z
M 1403 2484 
Q 997 2584 770 2862 
Q 544 3141 544 3541 
Q 544 4100 942 4425 
Q 1341 4750 2034 4750 
Q 2731 4750 3128 4425 
Q 3525 4100 3525 3541 
Q 3525 3141 3298 2862 
Q 3072 2584 2669 2484 
Q 3125 2378 3379 2068 
Q 3634 1759 3634 1313 
Q 3634 634 3220 271 
Q 2806 -91 2034 -91 
Q 1263 -91 848 271 
Q 434 634 434 1313 
Q 434 1759 690 2068 
Q 947 2378 1403 2484 
z
M 1172 3481 
Q 1172 3119 1398 2916 
Q 1625 2713 2034 2713 
Q 2441 2713 2670 2916 
Q 2900 3119 2900 3481 
Q 2900 3844 2670 4047 
Q 2441 4250 2034 4250 
Q 1625 4250 1398 4047 
Q 1172 3844 1172 3481 
z
" transform="scale(0.015625)"/>
       </defs>
       <use xlink:href="#DejaVuSans-32"/>
       <use xlink:href="#DejaVuSans-30" x="63.623047"/>
       <use xlink:href="#DejaVuSans-31" x="127.246094"/>
       <use xlink:href="#DejaVuSans-38" x="190.869141"/>
      </g>
     </g>
    </g>
    <g id="xtick_3">
     <g id="line2d_3">
      <g>
       <use xlink:href="#m87af131f8a" x="271.848214" y="320.4" style="stroke: #000000; stroke-width: 0.8"/>
      </g>
     </g>
     <g id="text_3">
      <!-- 2019 -->
      <g transform="translate(259.123214 334.998438) scale(0.1 -0.1)">
       <defs>
        <path id="DejaVuSans-39" d="M 703 97 
L 703 672 
Q 941 559 1184 500 
Q 1428 441 1663 441 
Q 2288 441 2617 861 
Q 2947 1281 2994 2138 
Q 2813 1869 2534 1725 
Q 2256 1581 1919 1581 
Q 1219 1581 811 2004 
Q 403 2428 403 3163 
Q 403 3881 828 4315 
Q 1253 4750 1959 4750 
Q 2769 4750 3195 4129 
Q 3622 3509 3622 2328 
Q 3622 1225 3098 567 
Q 2575 -91 1691 -91 
Q 1453 -91 1209 -44 
Q 966 3 703 97 
z
M 1959 2075 
Q 2384 2075 2632 2365 
Q 2881 2656 2881 3163 
Q 2881 3666 2632 3958 
Q 2384 4250 1959 4250 
Q 1534 4250 1286 3958 
Q 1038 3666 1038 3163 
Q 1038 2656 1286 2365 
Q 1534 2075 1959 2075 
z
" transform="scale(0.015625)"/>
       </defs>
       <use xlink:href="#DejaVuSans-32"/>
       <use xlink:href="#DejaVuSans-30" x="63.623047"/>
       <use xlink:href="#DejaVuSans-31" x="127.246094"/>
       <use xlink:href="#DejaVuSans-39" x="190.869141"/>
      </g>
     </g>
    </g>
    <g id="xtick_4">
     <g id="line2d_4">
      <g>
       <use xlink:href="#m87af131f8a" x="362.772321" y="320.4" style="stroke: #000000; stroke-width: 0.8"/>
      </g>
     </g>
     <g id="text_4">
      <!-- 2020 -->
      <g transform="translate(350.047321 334.998438) scale(0.1 -0.1)">
       <use xlink:href="#DejaVuSans-32"/>
       <use xlink:href="#DejaVuSans-30" x="63.623047"/>
       <use xlink:href="#DejaVuSans-32" x="127.246094"/>
       <use xlink:href="#DejaVuSans-30" x="190.869141"/>
      </g>
     </g>
    </g>
    <g id="xtick_5">
     <g id="line2d_5">
      <g>
       <use xlink:href="#m87af131f8a" x="453.945536" y="320.4" style="stroke: #000000; stroke-width: 0.8"/>
      </g>
     </g>
     <g id="text_5">
      <!-- 2021 -->
      <g transform="translate(441.220536 334.998438) scale(0.1 -0.1)">
       <use xlink:href="#DejaVuSans-32"/>
       <use xlink:href="#DejaVuSans-30" x="63.623047"/>
       <use xlink:href="#DejaVuSans-32" x="127.246094"/>
       <use xlink:href="#DejaVuSans-31" x="190.869141"/>
      </g>
     </g>
    </g>
    <g id="xtick_6">
     <g id="line2d_6">
      <g>
       <use xlink:href="#m87af131f8a" x="544.869643" y="320.4" style="stroke: #000000; stroke-width: 0.8"/>
      </g>
     </g>
     <g id="text_6">
      <!-- 2022 -->
      <g transform="translate(532.144643 334.998438) scale(0.1 -0.1)">
       <use xlink:href="#DejaVuSans-32"/>
       <use xlink:href="#DejaVuSans-30" x="63.623047"/>
       <use xlink:href="#DejaVuSans-32" x="127.246094"/>
       <use xlink:href="#DejaVuSans-32" x="190.869141"/>
      </g>
     </g>
    </g>
    <g id="xtick_7">
     <g id="line2d_7">
      <g>
       <use xlink:href="#m87af131f8a" x="635.79375" y="320.4" style="stroke: #000000; stroke-width: 0.8"/>
      </g>
     </g>
     <g id="text_7">
      <!-- 2023 -->
      <g transform="translate(623.06875 334.998438) scale(0.1 -0.1)">
       <defs>
        <path id="DejaVuSans-33" d="M 2597 2516 
Q 3050 2419 3304 2112 
Q 3559 1806 3559 1356 
Q 3559 666 3084 287 
Q 2609 -91 1734 -91 
Q 1441 -91 1130 -33 
Q 819 25 488 141 
L 488 750 
Q 750 597 1062 519 
Q 1375 441 1716 441 
Q 2309 441 2620 675 
Q 2931 909 2931 1356 
Q 2931 1769 2642 2001 
Q 2353 2234 1838 2234 
L 1294 2234 
L 1294 2753 
L 1863 2753 
Q 2328 2753 2575 2939 
Q 2822 3125 2822 3475 
Q 2822 3834 2567 4026 
Q 2313 4219 1838 4219 
Q 1578 4219 1281 4162 
Q 984 4106 628 3988 
L 628 4550 
Q 988 4650 1302 4700 
Q 1616 4750 1894 4750 
Q 2613 4750 3031 4423 
Q 3450 4097 3450 3541 
Q 3450 3153 3228 2886 
Q 3006 2619 2597 2516 
z
" transform="scale(0.015625)"/>
       </defs>
       <use xlink:href="#DejaVuSans-32"/>
       <use xlink:href="#DejaVuSans-30" x="63.623047"/>
       <use xlink:href="#DejaVuSans-32" x="127.246094"/>
       <use xlink:href="#DejaVuSans-33" x="190.869141"/>
      </g>
     </g>
    </g>
    <g id="xtick_8">
     <g id="line2d_8">
      <g>
       <use xlink:href="#m87af131f8a" x="648" y="320.4" style="stroke: #000000; stroke-width: 0.8"/>
      </g>
     </g>
    </g>
    <g id="xtick_9">
     <g id="line2d_9">
      <defs>
       <path id="me7edb1c1fb" d="M 0 0 
L 0 2 
" style="stroke: #000000; stroke-width: 0.6"/>
      </defs>
      <g>
       <use xlink:href="#me7edb1c1fb" x="112.419643" y="320.4" style="stroke: #000000; stroke-width: 0.6"/>
      </g>
     </g>
    </g>
    <g id="xtick_10">
     <g id="line2d_10">
      <g>
       <use xlink:href="#me7edb1c1fb" x="135.088393" y="320.4" style="stroke: #000000; stroke-width: 0.6"/>
      </g>
     </g>
    </g>
    <g id="xtick_11">
     <g id="line2d_11">
      <g>
       <use xlink:href="#me7edb1c1fb" x="158.00625" y="320.4" style="stroke: #000000; stroke-width: 0.6"/>
      </g>
     </g>
    </g>
    <g id="xtick_12">
     <g id="line2d_12">
      <g>
       <use xlink:href="#me7edb1c1fb" x="203.34375" y="320.4" style="stroke: #000000; stroke-width: 0.6"/>
      </g>
     </g>
    </g>
    <g id="xtick_13">
     <g id="line2d_13">
      <g>
       <use xlink:href="#me7edb1c1fb" x="226.0125" y="320.4" style="stroke: #000000; stroke-width: 0.6"/>
      </g>
     </g>
    </g>
    <g id="xtick_14">
     <g id="line2d_14">
      <g>
       <use xlink:href="#me7edb1c1fb" x="248.930357" y="320.4" style="stroke: #000000; stroke-width: 0.6"/>
      </g>
     </g>
    </g>
    <g id="xtick_15">
     <g id="line2d_15">
      <g>
       <use xlink:href="#me7edb1c1fb" x="294.267857" y="320.4" style="stroke: #000000; stroke-width: 0.6"/>
      </g>
     </g>
    </g>
    <g id="xtick_16">
     <g id="line2d_16">
      <g>
       <use xlink:href="#me7edb1c1fb" x="316.936607" y="320.4" style="stroke: #000000; stroke-width: 0.6"/>
      </g>
     </g>
    </g>
    <g id="xtick_17">
     <g id="line2d_17">
      <g>
       <use xlink:href="#me7edb1c1fb" x="339.854464" y="320.4" style="stroke: #000000; stroke-width: 0.6"/>
      </g>
     </g>
    </g>
    <g id="xtick_18">
     <g id="line2d_18">
      <g>
       <use xlink:href="#me7edb1c1fb" x="385.441071" y="320.4" style="stroke: #000000; stroke-width: 0.6"/>
      </g>
     </g>
    </g>
    <g id="xtick_19">
     <g id="line2d_19">
      <g>
       <use xlink:href="#me7edb1c1fb" x="408.109821" y="320.4" style="stroke: #000000; stroke-width: 0.6"/>
      </g>
     </g>
    </g>
    <g id="xtick_20">
     <g id="line2d_20">
      <g>
       <use xlink:href="#me7edb1c1fb" x="431.027679" y="320.4" style="stroke: #000000; stroke-width: 0.6"/>
      </g>
     </g>
    </g>
    <g id="xtick_21">
     <g id="line2d_21">
      <g>
       <use xlink:href="#me7edb1c1fb" x="476.365179" y="320.4" style="stroke: #000000; stroke-width: 0.6"/>
      </g>
     </g>
    </g>
    <g id="xtick_22">
     <g id="line2d_22">
      <g>
       <use xlink:href="#me7edb1c1fb" x="499.033929" y="320.4" style="stroke: #000000; stroke-width: 0.6"/>
      </g>
     </g>
    </g>
    <g id="xtick_23">
     <g id="line2d_23">
      <g>
       <use xlink:href="#me7edb1c1fb" x="521.951786" y="320.4" style="stroke: #000000; stroke-width: 0.6"/>
      </g>
     </g>
    </g>
    <g id="xtick_24">
     <g id="line2d_24">
      <g>
       <use xlink:href="#me7edb1c1fb" x="567.289286" y="320.4" style="stroke: #000000; stroke-width: 0.6"/>
      </g>
     </g>
    </g>
    <g id="xtick_25">
     <g id="line2d_25">
      <g>
       <use xlink:href="#me7edb1c1fb" x="589.958036" y="320.4" style="stroke: #000000; stroke-width: 0.6"/>
      </g>
     </g>
    </g>
    <g id="xtick_26">
     <g id="line2d_26">
      <g>
       <use xlink:href="#me7edb1c1fb" x="612.875893" y="320.4" style="stroke: #000000; stroke-width: 0.6"/>
      </g>
     </g>
    </g>
   </g>
   <g id="matplotlib.axis_2">
    <g id="ytick_1">
     <g id="line2d_27">
      <defs>
       <path id="m47d62ba8c3" d="M 0 0 
L -3.5 0 
" style="stroke: #000000; stroke-width: 0.8"/>
      </defs>
      <g>
       <use xlink:href="#m47d62ba8c3" x="90" y="302.267791" style="stroke: #000000; stroke-width: 0.8"/>
      </g>
     </g>
     <g id="text_8">
      <!-- $\mathdefault{10^{1}}$ -->
      <g transform="translate(65.4 306.067009) scale(0.1 -0.1)">
       <use xlink:href="#DejaVuSans-31" transform="translate(0 0.684375)"/>
       <use xlink:href="#DejaVuSans-30" transform="translate(63.623047 0.684375)"/>
       <use xlink:href="#DejaVuSans-31" transform="translate(128.203125 38.965625) scale(0.7)"/>
      </g>
     </g>
    </g>
    <g id="ytick_2">
     <g id="line2d_28">
      <g>
       <use xlink:href="#m47d62ba8c3" x="90" y="242.033895" style="stroke: #000000; stroke-width: 0.8"/>
      </g>
     </g>
     <g id="text_9">
      <!-- $\mathdefault{10^{2}}$ -->
      <g transform="translate(65.4 245.833114) scale(0.1 -0.1)">
       <use xlink:href="#DejaVuSans-31" transform="translate(0 0.765625)"/>
       <use xlink:href="#DejaVuSans-30" transform="translate(63.623047 0.765625)"/>
       <use xlink:href="#DejaVuSans-32" transform="translate(128.203125 39.046875) scale(0.7)"/>
      </g>
     </g>
    </g>
    <g id="ytick_3">
     <g id="line2d_29">
      <g>
       <use xlink:href="#m47d62ba8c3" x="90" y="181.8" style="stroke: #000000; stroke-width: 0.8"/>
      </g>
     </g>
     <g id="text_10">
      <!-- $\mathdefault{10^{3}}$ -->
      <g transform="translate(65.4 185.599219) scale(0.1 -0.1)">
       <use xlink:href="#DejaVuSans-31" transform="translate(0 0.765625)"/>
       <use xlink:href="#DejaVuSans-30" transform="translate(63.623047 0.765625)"/>
       <use xlink:href="#DejaVuSans-33" transform="translate(128.203125 39.046875) scale(0.7)"/>
      </g>
     </g>
    </g>
    <g id="ytick_4">
     <g id="line2d_30">
      <g>
       <use xlink:href="#m47d62ba8c3" x="90" y="121.566105" style="stroke: #000000; stroke-width: 0.8"/>
      </g>
     </g>
     <g id="text_11">
      <!-- $\mathdefault{10^{4}}$ -->
      <g transform="translate(65.4 125.365323) scale(0.1 -0.1)">
       <defs>
        <path id="DejaVuSans-34" d="M 2419 4116 
L 825 1625 
L 2419 1625 
L 2419 4116 
z
M 2253 4666 
L 3047 4666 
L 3047 1625 
L 3713 1625 
L 3713 1100 
L 3047 1100 
L 3047 0 
L 2419 0 
L 2419 1100 
L 313 1100 
L 313 1709 
L 2253 4666 
z
" transform="scale(0.015625)"/>
       </defs>
       <use xlink:href="#DejaVuSans-31" transform="translate(0 0.684375)"/>
       <use xlink:href="#DejaVuSans-30" transform="translate(63.623047 0.684375)"/>
       <use xlink:href="#DejaVuSans-34" transform="translate(128.203125 38.965625) scale(0.7)"/>
      </g>
     </g>
    </g>
    <g id="ytick_5">
     <g id="line2d_31">
      <g>
       <use xlink:href="#m47d62ba8c3" x="90" y="61.332209" style="stroke: #000000; stroke-width: 0.8"/>
      </g>
     </g>
     <g id="text_12">
      <!-- $\mathdefault{10^{5}}$ -->
      <g transform="translate(65.4 65.131428) scale(0.1 -0.1)">
       <defs>
        <path id="DejaVuSans-35" d="M 691 4666 
L 3169 4666 
L 3169 4134 
L 1269 4134 
L 1269 2991 
Q 1406 3038 1543 3061 
Q 1681 3084 1819 3084 
Q 2600 3084 3056 2656 
Q 3513 2228 3513 1497 
Q 3513 744 3044 326 
Q 2575 -91 1722 -91 
Q 1428 -91 1123 -41 
Q 819 9 494 109 
L 494 744 
Q 775 591 1075 516 
Q 1375 441 1709 441 
Q 2250 441 2565 725 
Q 2881 1009 2881 1497 
Q 2881 1984 2565 2268 
Q 2250 2553 1709 2553 
Q 1456 2553 1204 2497 
Q 953 2441 691 2322 
L 691 4666 
z
" transform="scale(0.015625)"/>
       </defs>
       <use xlink:href="#DejaVuSans-31" transform="translate(0 0.684375)"/>
       <use xlink:href="#DejaVuSans-30" transform="translate(63.623047 0.684375)"/>
       <use xlink:href="#DejaVuSans-35" transform="translate(128.203125 38.965625) scale(0.7)"/>
      </g>
     </g>
    </g>
    <g id="ytick_6">
     <g id="line2d_32">
      <defs>
       <path id="mc30d33b527" d="M 0 0 
L -2 0 
" style="stroke: #000000; stroke-width: 0.6"/>
      </defs>
      <g>
       <use xlink:href="#mc30d33b527" x="90" y="320.4" style="stroke: #000000; stroke-width: 0.6"/>
      </g>
     </g>
    </g>
    <g id="ytick_7">
     <g id="line2d_33">
      <g>
       <use xlink:href="#mc30d33b527" x="90" y="315.630605" style="stroke: #000000; stroke-width: 0.6"/>
      </g>
     </g>
    </g>
    <g id="ytick_8">
     <g id="line2d_34">
      <g>
       <use xlink:href="#mc30d33b527" x="90" y="311.598139" style="stroke: #000000; stroke-width: 0.6"/>
      </g>
     </g>
    </g>
    <g id="ytick_9">
     <g id="line2d_35">
      <g>
       <use xlink:href="#mc30d33b527" x="90" y="308.105058" style="stroke: #000000; stroke-width: 0.6"/>
      </g>
     </g>
    </g>
    <g id="ytick_10">
     <g id="line2d_36">
      <g>
       <use xlink:href="#mc30d33b527" x="90" y="305.023943" style="stroke: #000000; stroke-width: 0.6"/>
      </g>
     </g>
    </g>
    <g id="ytick_11">
     <g id="line2d_37">
      <g>
       <use xlink:href="#mc30d33b527" x="90" y="284.135581" style="stroke: #000000; stroke-width: 0.6"/>
      </g>
     </g>
    </g>
    <g id="ytick_12">
     <g id="line2d_38">
      <g>
       <use xlink:href="#mc30d33b527" x="90" y="273.528919" style="stroke: #000000; stroke-width: 0.6"/>
      </g>
     </g>
    </g>
    <g id="ytick_13">
     <g id="line2d_39">
      <g>
       <use xlink:href="#mc30d33b527" x="90" y="266.003372" style="stroke: #000000; stroke-width: 0.6"/>
      </g>
     </g>
    </g>
    <g id="ytick_14">
     <g id="line2d_40">
      <g>
       <use xlink:href="#mc30d33b527" x="90" y="260.166105" style="stroke: #000000; stroke-width: 0.6"/>
      </g>
     </g>
    </g>
    <g id="ytick_15">
     <g id="line2d_41">
      <g>
       <use xlink:href="#mc30d33b527" x="90" y="255.39671" style="stroke: #000000; stroke-width: 0.6"/>
      </g>
     </g>
    </g>
    <g id="ytick_16">
     <g id="line2d_42">
      <g>
       <use xlink:href="#mc30d33b527" x="90" y="251.364244" style="stroke: #000000; stroke-width: 0.6"/>
      </g>
     </g>
    </g>
    <g id="ytick_17">
     <g id="line2d_43">
      <g>
       <use xlink:href="#mc30d33b527" x="90" y="247.871163" style="stroke: #000000; stroke-width: 0.6"/>
      </g>
     </g>
    </g>
    <g id="ytick_18">
     <g id="line2d_44">
      <g>
       <use xlink:href="#mc30d33b527" x="90" y="244.790047" style="stroke: #000000; stroke-width: 0.6"/>
      </g>
     </g>
    </g>
    <g id="ytick_19">
     <g id="line2d_45">
      <g>
       <use xlink:href="#mc30d33b527" x="90" y="223.901686" style="stroke: #000000; stroke-width: 0.6"/>
      </g>
     </g>
    </g>
    <g id="ytick_20">
     <g id="line2d_46">
      <g>
       <use xlink:href="#mc30d33b527" x="90" y="213.295024" style="stroke: #000000; stroke-width: 0.6"/>
      </g>
     </g>
    </g>
    <g id="ytick_21">
     <g id="line2d_47">
      <g>
       <use xlink:href="#mc30d33b527" x="90" y="205.769477" style="stroke: #000000; stroke-width: 0.6"/>
      </g>
     </g>
    </g>
    <g id="ytick_22">
     <g id="line2d_48">
      <g>
       <use xlink:href="#mc30d33b527" x="90" y="199.932209" style="stroke: #000000; stroke-width: 0.6"/>
      </g>
     </g>
    </g>
    <g id="ytick_23">
     <g id="line2d_49">
      <g>
       <use xlink:href="#mc30d33b527" x="90" y="195.162814" style="stroke: #000000; stroke-width: 0.6"/>
      </g>
     </g>
    </g>
    <g id="ytick_24">
     <g id="line2d_50">
      <g>
       <use xlink:href="#mc30d33b527" x="90" y="191.130348" style="stroke: #000000; stroke-width: 0.6"/>
      </g>
     </g>
    </g>
    <g id="ytick_25">
     <g id="line2d_51">
      <g>
       <use xlink:href="#mc30d33b527" x="90" y="187.637268" style="stroke: #000000; stroke-width: 0.6"/>
      </g>
     </g>
    </g>
    <g id="ytick_26">
     <g id="line2d_52">
      <g>
       <use xlink:href="#mc30d33b527" x="90" y="184.556152" style="stroke: #000000; stroke-width: 0.6"/>
      </g>
     </g>
    </g>
    <g id="ytick_27">
     <g id="line2d_53">
      <g>
       <use xlink:href="#mc30d33b527" x="90" y="163.667791" style="stroke: #000000; stroke-width: 0.6"/>
      </g>
     </g>
    </g>
    <g id="ytick_28">
     <g id="line2d_54">
      <g>
       <use xlink:href="#mc30d33b527" x="90" y="153.061128" style="stroke: #000000; stroke-width: 0.6"/>
      </g>
     </g>
    </g>
    <g id="ytick_29">
     <g id="line2d_55">
      <g>
       <use xlink:href="#mc30d33b527" x="90" y="145.535581" style="stroke: #000000; stroke-width: 0.6"/>
      </g>
     </g>
    </g>
    <g id="ytick_30">
     <g id="line2d_56">
      <g>
       <use xlink:href="#mc30d33b527" x="90" y="139.698314" style="stroke: #000000; stroke-width: 0.6"/>
      </g>
     </g>
    </g>
    <g id="ytick_31">
     <g id="line2d_57">
      <g>
       <use xlink:href="#mc30d33b527" x="90" y="134.928919" style="stroke: #000000; stroke-width: 0.6"/>
      </g>
     </g>
    </g>
    <g id="ytick_32">
     <g id="line2d_58">
      <g>
       <use xlink:href="#mc30d33b527" x="90" y="130.896453" style="stroke: #000000; stroke-width: 0.6"/>
      </g>
     </g>
    </g>
    <g id="ytick_33">
     <g id="line2d_59">
      <g>
       <use xlink:href="#mc30d33b527" x="90" y="127.403372" style="stroke: #000000; stroke-width: 0.6"/>
      </g>
     </g>
    </g>
    <g id="ytick_34">
     <g id="line2d_60">
      <g>
       <use xlink:href="#mc30d33b527" x="90" y="124.322257" style="stroke: #000000; stroke-width: 0.6"/>
      </g>
     </g>
    </g>
    <g id="ytick_35">
     <g id="line2d_61">
      <g>
       <use xlink:href="#mc30d33b527" x="90" y="103.433895" style="stroke: #000000; stroke-width: 0.6"/>
      </g>
     </g>
    </g>
    <g id="ytick_36">
     <g id="line2d_62">
      <g>
       <use xlink:href="#mc30d33b527" x="90" y="92.827233" style="stroke: #000000; stroke-width: 0.6"/>
      </g>
     </g>
    </g>
    <g id="ytick_37">
     <g id="line2d_63">
      <g>
       <use xlink:href="#mc30d33b527" x="90" y="85.301686" style="stroke: #000000; stroke-width: 0.6"/>
      </g>
     </g>
    </g>
    <g id="ytick_38">
     <g id="line2d_64">
      <g>
       <use xlink:href="#mc30d33b527" x="90" y="79.464419" style="stroke: #000000; stroke-width: 0.6"/>
      </g>
     </g>
    </g>
    <g id="ytick_39">
     <g id="line2d_65">
      <g>
       <use xlink:href="#mc30d33b527" x="90" y="74.695024" style="stroke: #000000; stroke-width: 0.6"/>
      </g>
     </g>
    </g>
    <g id="ytick_40">
     <g id="line2d_66">
      <g>
       <use xlink:href="#mc30d33b527" x="90" y="70.662558" style="stroke: #000000; stroke-width: 0.6"/>
      </g>
     </g>
    </g>
    <g id="ytick_41">
     <g id="line2d_67">
      <g>
       <use xlink:href="#mc30d33b527" x="90" y="67.169477" style="stroke: #000000; stroke-width: 0.6"/>
      </g>
     </g>
    </g>
    <g id="ytick_42">
     <g id="line2d_68">
      <g>
       <use xlink:href="#mc30d33b527" x="90" y="64.088361" style="stroke: #000000; stroke-width: 0.6"/>
      </g>
     </g>
    </g>
    <g id="ytick_43">
     <g id="line2d_69">
      <g>
       <use xlink:href="#mc30d33b527" x="90" y="43.2" style="stroke: #000000; stroke-width: 0.6"/>
      </g>
     </g>
    </g>
    <g id="text_13">
     <!-- Number of pip-installs per month -->
     <g transform="translate(59.320312 264.70625) rotate(-90) scale(0.1 -0.1)">
      <defs>
       <path id="DejaVuSans-4e" d="M 628 4666 
L 1478 4666 
L 3547 763 
L 3547 4666 
L 4159 4666 
L 4159 0 
L 3309 0 
L 1241 3903 
L 1241 0 
L 628 0 
L 628 4666 
z
" transform="scale(0.015625)"/>
       <path id="DejaVuSans-75" d="M 544 1381 
L 544 3500 
L 1119 3500 
L 1119 1403 
Q 1119 906 1312 657 
Q 1506 409 1894 409 
Q 2359 409 2629 706 
Q 2900 1003 2900 1516 
L 2900 3500 
L 3475 3500 
L 3475 0 
L 2900 0 
L 2900 538 
Q 2691 219 2414 64 
Q 2138 -91 1772 -91 
Q 1169 -91 856 284 
Q 544 659 544 1381 
z
M 1991 3584 
L 1991 3584 
z
" transform="scale(0.015625)"/>
       <path id="DejaVuSans-6d" d="M 3328 2828 
Q 3544 3216 3844 3400 
Q 4144 3584 4550 3584 
Q 5097 3584 5394 3201 
Q 5691 2819 5691 2113 
L 5691 0 
L 5113 0 
L 5113 2094 
Q 5113 2597 4934 2840 
Q 4756 3084 4391 3084 
Q 3944 3084 3684 2787 
Q 3425 2491 3425 1978 
L 3425 0 
L 2847 0 
L 2847 2094 
Q 2847 2600 2669 2842 
Q 2491 3084 2119 3084 
Q 1678 3084 1418 2786 
Q 1159 2488 1159 1978 
L 1159 0 
L 581 0 
L 581 3500 
L 1159 3500 
L 1159 2956 
Q 1356 3278 1631 3431 
Q 1906 3584 2284 3584 
Q 2666 3584 2933 3390 
Q 3200 3197 3328 2828 
z
" transform="scale(0.015625)"/>
       <path id="DejaVuSans-62" d="M 3116 1747 
Q 3116 2381 2855 2742 
Q 2594 3103 2138 3103 
Q 1681 3103 1420 2742 
Q 1159 2381 1159 1747 
Q 1159 1113 1420 752 
Q 1681 391 2138 391 
Q 2594 391 2855 752 
Q 3116 1113 3116 1747 
z
M 1159 2969 
Q 1341 3281 1617 3432 
Q 1894 3584 2278 3584 
Q 2916 3584 3314 3078 
Q 3713 2572 3713 1747 
Q 3713 922 3314 415 
Q 2916 -91 2278 -91 
Q 1894 -91 1617 61 
Q 1341 213 1159 525 
L 1159 0 
L 581 0 
L 581 4863 
L 1159 4863 
L 1159 2969 
z
" transform="scale(0.015625)"/>
       <path id="DejaVuSans-65" d="M 3597 1894 
L 3597 1613 
L 953 1613 
Q 991 1019 1311 708 
Q 1631 397 2203 397 
Q 2534 397 2845 478 
Q 3156 559 3463 722 
L 3463 178 
Q 3153 47 2828 -22 
Q 2503 -91 2169 -91 
Q 1331 -91 842 396 
Q 353 884 353 1716 
Q 353 2575 817 3079 
Q 1281 3584 2069 3584 
Q 2775 3584 3186 3129 
Q 3597 2675 3597 1894 
z
M 3022 2063 
Q 3016 2534 2758 2815 
Q 2500 3097 2075 3097 
Q 1594 3097 1305 2825 
Q 1016 2553 972 2059 
L 3022 2063 
z
" transform="scale(0.015625)"/>
       <path id="DejaVuSans-72" d="M 2631 2963 
Q 2534 3019 2420 3045 
Q 2306 3072 2169 3072 
Q 1681 3072 1420 2755 
Q 1159 2438 1159 1844 
L 1159 0 
L 581 0 
L 581 3500 
L 1159 3500 
L 1159 2956 
Q 1341 3275 1631 3429 
Q 1922 3584 2338 3584 
Q 2397 3584 2469 3576 
Q 2541 3569 2628 3553 
L 2631 2963 
z
" transform="scale(0.015625)"/>
       <path id="DejaVuSans-20" transform="scale(0.015625)"/>
       <path id="DejaVuSans-6f" d="M 1959 3097 
Q 1497 3097 1228 2736 
Q 959 2375 959 1747 
Q 959 1119 1226 758 
Q 1494 397 1959 397 
Q 2419 397 2687 759 
Q 2956 1122 2956 1747 
Q 2956 2369 2687 2733 
Q 2419 3097 1959 3097 
z
M 1959 3584 
Q 2709 3584 3137 3096 
Q 3566 2609 3566 1747 
Q 3566 888 3137 398 
Q 2709 -91 1959 -91 
Q 1206 -91 779 398 
Q 353 888 353 1747 
Q 353 2609 779 3096 
Q 1206 3584 1959 3584 
z
" transform="scale(0.015625)"/>
       <path id="DejaVuSans-66" d="M 2375 4863 
L 2375 4384 
L 1825 4384 
Q 1516 4384 1395 4259 
Q 1275 4134 1275 3809 
L 1275 3500 
L 2222 3500 
L 2222 3053 
L 1275 3053 
L 1275 0 
L 697 0 
L 697 3053 
L 147 3053 
L 147 3500 
L 697 3500 
L 697 3744 
Q 697 4328 969 4595 
Q 1241 4863 1831 4863 
L 2375 4863 
z
" transform="scale(0.015625)"/>
       <path id="DejaVuSans-70" d="M 1159 525 
L 1159 -1331 
L 581 -1331 
L 581 3500 
L 1159 3500 
L 1159 2969 
Q 1341 3281 1617 3432 
Q 1894 3584 2278 3584 
Q 2916 3584 3314 3078 
Q 3713 2572 3713 1747 
Q 3713 922 3314 415 
Q 2916 -91 2278 -91 
Q 1894 -91 1617 61 
Q 1341 213 1159 525 
z
M 3116 1747 
Q 3116 2381 2855 2742 
Q 2594 3103 2138 3103 
Q 1681 3103 1420 2742 
Q 1159 2381 1159 1747 
Q 1159 1113 1420 752 
Q 1681 391 2138 391 
Q 2594 391 2855 752 
Q 3116 1113 3116 1747 
z
" transform="scale(0.015625)"/>
       <path id="DejaVuSans-69" d="M 603 3500 
L 1178 3500 
L 1178 0 
L 603 0 
L 603 3500 
z
M 603 4863 
L 1178 4863 
L 1178 4134 
L 603 4134 
L 603 4863 
z
" transform="scale(0.015625)"/>
       <path id="DejaVuSans-2d" d="M 313 2009 
L 1997 2009 
L 1997 1497 
L 313 1497 
L 313 2009 
z
" transform="scale(0.015625)"/>
       <path id="DejaVuSans-6e" d="M 3513 2113 
L 3513 0 
L 2938 0 
L 2938 2094 
Q 2938 2591 2744 2837 
Q 2550 3084 2163 3084 
Q 1697 3084 1428 2787 
Q 1159 2491 1159 1978 
L 1159 0 
L 581 0 
L 581 3500 
L 1159 3500 
L 1159 2956 
Q 1366 3272 1645 3428 
Q 1925 3584 2291 3584 
Q 2894 3584 3203 3211 
Q 3513 2838 3513 2113 
z
" transform="scale(0.015625)"/>
       <path id="DejaVuSans-73" d="M 2834 3397 
L 2834 2853 
Q 2591 2978 2328 3040 
Q 2066 3103 1784 3103 
Q 1356 3103 1142 2972 
Q 928 2841 928 2578 
Q 928 2378 1081 2264 
Q 1234 2150 1697 2047 
L 1894 2003 
Q 2506 1872 2764 1633 
Q 3022 1394 3022 966 
Q 3022 478 2636 193 
Q 2250 -91 1575 -91 
Q 1294 -91 989 -36 
Q 684 19 347 128 
L 347 722 
Q 666 556 975 473 
Q 1284 391 1588 391 
Q 1994 391 2212 530 
Q 2431 669 2431 922 
Q 2431 1156 2273 1281 
Q 2116 1406 1581 1522 
L 1381 1569 
Q 847 1681 609 1914 
Q 372 2147 372 2553 
Q 372 3047 722 3315 
Q 1072 3584 1716 3584 
Q 2034 3584 2315 3537 
Q 2597 3491 2834 3397 
z
" transform="scale(0.015625)"/>
       <path id="DejaVuSans-74" d="M 1172 4494 
L 1172 3500 
L 2356 3500 
L 2356 3053 
L 1172 3053 
L 1172 1153 
Q 1172 725 1289 603 
Q 1406 481 1766 481 
L 2356 481 
L 2356 0 
L 1766 0 
Q 1100 0 847 248 
Q 594 497 594 1153 
L 594 3053 
L 172 3053 
L 172 3500 
L 594 3500 
L 594 4494 
L 1172 4494 
z
" transform="scale(0.015625)"/>
       <path id="DejaVuSans-61" d="M 2194 1759 
Q 1497 1759 1228 1600 
Q 959 1441 959 1056 
Q 959 750 1161 570 
Q 1363 391 1709 391 
Q 2188 391 2477 730 
Q 2766 1069 2766 1631 
L 2766 1759 
L 2194 1759 
z
M 3341 1997 
L 3341 0 
L 2766 0 
L 2766 531 
Q 2569 213 2275 61 
Q 1981 -91 1556 -91 
Q 1019 -91 701 211 
Q 384 513 384 1019 
Q 384 1609 779 1909 
Q 1175 2209 1959 2209 
L 2766 2209 
L 2766 2266 
Q 2766 2663 2505 2880 
Q 2244 3097 1772 3097 
Q 1472 3097 1187 3025 
Q 903 2953 641 2809 
L 641 3341 
Q 956 3463 1253 3523 
Q 1550 3584 1831 3584 
Q 2591 3584 2966 3190 
Q 3341 2797 3341 1997 
z
" transform="scale(0.015625)"/>
       <path id="DejaVuSans-6c" d="M 603 4863 
L 1178 4863 
L 1178 0 
L 603 0 
L 603 4863 
z
" transform="scale(0.015625)"/>
       <path id="DejaVuSans-68" d="M 3513 2113 
L 3513 0 
L 2938 0 
L 2938 2094 
Q 2938 2591 2744 2837 
Q 2550 3084 2163 3084 
Q 1697 3084 1428 2787 
Q 1159 2491 1159 1978 
L 1159 0 
L 581 0 
L 581 4863 
L 1159 4863 
L 1159 2956 
Q 1366 3272 1645 3428 
Q 1925 3584 2291 3584 
Q 2894 3584 3203 3211 
Q 3513 2838 3513 2113 
z
" transform="scale(0.015625)"/>
      </defs>
      <use xlink:href="#DejaVuSans-4e"/>
      <use xlink:href="#DejaVuSans-75" x="74.804688"/>
      <use xlink:href="#DejaVuSans-6d" x="138.183594"/>
      <use xlink:href="#DejaVuSans-62" x="235.595703"/>
      <use xlink:href="#DejaVuSans-65" x="299.072266"/>
      <use xlink:href="#DejaVuSans-72" x="360.595703"/>
      <use xlink:href="#DejaVuSans-20" x="401.708984"/>
      <use xlink:href="#DejaVuSans-6f" x="433.496094"/>
      <use xlink:href="#DejaVuSans-66" x="494.677734"/>
      <use xlink:href="#DejaVuSans-20" x="529.882812"/>
      <use xlink:href="#DejaVuSans-70" x="561.669922"/>
      <use xlink:href="#DejaVuSans-69" x="625.146484"/>
      <use xlink:href="#DejaVuSans-70" x="652.929688"/>
      <use xlink:href="#DejaVuSans-2d" x="716.40625"/>
      <use xlink:href="#DejaVuSans-69" x="752.490234"/>
      <use xlink:href="#DejaVuSans-6e" x="780.273438"/>
      <use xlink:href="#DejaVuSans-73" x="843.652344"/>
      <use xlink:href="#DejaVuSans-74" x="895.751953"/>
      <use xlink:href="#DejaVuSans-61" x="934.960938"/>
      <use xlink:href="#DejaVuSans-6c" x="996.240234"/>
      <use xlink:href="#DejaVuSans-6c" x="1024.023438"/>
      <use xlink:href="#DejaVuSans-73" x="1051.806641"/>
      <use xlink:href="#DejaVuSans-20" x="1103.90625"/>
      <use xlink:href="#DejaVuSans-70" x="1135.693359"/>
      <use xlink:href="#DejaVuSans-65" x="1199.169922"/>
      <use xlink:href="#DejaVuSans-72" x="1260.693359"/>
      <use xlink:href="#DejaVuSans-20" x="1301.806641"/>
      <use xlink:href="#DejaVuSans-6d" x="1333.59375"/>
      <use xlink:href="#DejaVuSans-6f" x="1431.005859"/>
      <use xlink:href="#DejaVuSans-6e" x="1492.1875"/>
      <use xlink:href="#DejaVuSans-74" x="1555.566406"/>
      <use xlink:href="#DejaVuSans-68" x="1594.775391"/>
     </g>
    </g>
   </g>
   <g id="line2d_70">
    <path d="M 309.212411 361 
L 309.214286 315.630605 
L 311.705357 287.380706 
L 314.196429 273.674653 
L 316.6875 262.825549 
L 319.178571 257.593711 
L 321.669643 250.870658 
L 324.160714 249.675965 
L 326.651786 252.251083 
L 329.142857 197.822259 
L 331.633929 184.176224 
L 334.125 172.691636 
L 336.616071 162.719477 
L 339.107143 149.983888 
L 341.598214 138.57024 
L 344.089286 135.114141 
L 346.580357 132.210726 
L 349.071429 126.348582 
L 351.5625 124.726964 
L 356.544643 130.404701 
L 359.035714 132.413226 
L 361.526786 137.086435 
L 364.017857 145.020766 
L 366.508929 139.873293 
L 369 130.993797 
L 371.491071 129.825591 
L 373.982143 129.202335 
L 376.473214 127.045595 
L 378.964286 127.390296 
L 381.455357 131.258954 
L 383.946429 136.349616 
L 386.4375 134.076085 
L 388.928571 131.25706 
L 391.419643 131.782648 
L 393.910714 128.873408 
L 396.401786 130.770941 
L 398.892857 134.143693 
L 401.383929 139.004777 
L 403.875 140.385662 
L 406.366071 135.678557 
L 408.857143 137.424778 
L 411.348214 136.205778 
L 413.839286 134.694539 
L 416.330357 137.860863 
L 418.821429 144.860946 
L 421.3125 149.343211 
L 423.803571 149.009984 
L 426.294643 147.672983 
L 428.785714 142.878368 
L 431.276786 136.918107 
L 433.767857 130.138944 
L 436.258929 125.061179 
L 438.75 122.926262 
L 441.241071 120.217641 
L 443.732143 118.40489 
L 446.223214 116.907759 
L 448.714286 119.390678 
L 451.205357 124.597891 
L 453.696429 122.452944 
L 456.1875 120.142799 
L 458.678571 120.181227 
L 461.169643 118.575443 
L 463.660714 112.242253 
L 468.642857 110.301878 
L 471.133929 110.487054 
L 473.625 109.945199 
L 476.116071 108.398379 
L 478.607143 110.591453 
L 481.098214 109.116843 
L 483.589286 110.600053 
L 486.080357 108.067875 
L 488.571429 109.236035 
L 491.0625 114.326928 
L 493.553571 115.078133 
L 496.044643 116.093763 
L 498.535714 118.164523 
L 501.026786 127.542166 
L 503.517857 129.779 
L 506.008929 128.690724 
L 508.5 133.907826 
L 510.991071 135.553232 
L 513.482143 140.391929 
L 515.973214 135.830796 
L 518.464286 131.878179 
L 520.955357 129.841738 
L 523.446429 127.187363 
L 525.9375 129.63616 
L 528.428571 130.561034 
L 530.919643 137.672963 
L 533.410714 149.878158 
L 535.901786 165.173016 
L 538.392857 197.534265 
L 540.883929 212.36704 
L 543.375 218.55734 
L 545.866071 227.594839 
L 548.357143 202.495303 
L 550.848214 165.951078 
L 553.339286 166.238099 
L 560.8125 165.584944 
L 563.303571 155.04718 
L 565.794643 166.221269 
L 568.285714 159.758939 
L 570.776786 150.523004 
L 573.267857 142.904968 
L 575.758929 131.76397 
L 578.25 124.959224 
L 580.741071 123.312114 
L 583.232143 122.530635 
L 585.723214 125.123542 
L 588.214286 128.123863 
L 590.705357 135.020637 
L 593.196429 151.797274 
L 595.6875 153.106219 
L 598.178571 158.559083 
L 600.669643 141.001586 
L 603.160714 132.73197 
L 605.651786 131.107824 
L 608.142857 112.474675 
L 610.633929 112.856587 
L 613.125 111.917037 
L 615.616071 114.457174 
L 618.107143 111.0223 
L 620.598214 112.39994 
L 623.089286 131.519172 
L 625.580357 133.544179 
L 628.071429 134.619749 
L 630.5625 137.793485 
L 633.053571 169.562344 
L 635.544643 173.160581 
L 638.035714 177.488747 
L 640.526786 179.314686 
L 643.017857 165.617805 
L 645.508929 167.778488 
L 648 167.348394 
L 650.491071 156.073666 
L 652.982143 148.10108 
L 655.473214 136.58931 
L 657.964286 140.805273 
L 657.964286 140.805273 
" clip-path="url(#pc1601f1f47)" style="fill: none; stroke-dasharray: 1.5,2.475; stroke-dashoffset: 0; stroke: #1f77b4; stroke-width: 1.5"/>
   </g>
   <g id="line2d_71">
    <path d="M 311.704764 361 
L 311.705357 346.645629 
L 314.196429 305.023943 
L 316.6875 289.167886 
L 319.178571 279.548482 
L 321.669643 269.372181 
L 324.160714 264.315093 
L 326.651786 263.411229 
L 329.142857 198.75574 
L 331.633929 184.498085 
L 334.125 172.849083 
L 336.616071 162.79527 
L 339.107143 150.016208 
L 341.598214 138.584441 
L 344.089286 135.124389 
L 346.580357 132.219896 
L 349.071429 126.360101 
L 351.5625 124.732868 
L 356.544643 130.42121 
L 359.035714 132.443605 
L 361.526786 137.12355 
L 364.017857 145.067832 
L 366.508929 139.912825 
L 369 131.015687 
L 371.491071 129.843533 
L 373.982143 129.21051 
L 376.473214 127.052585 
L 378.964286 127.394654 
L 381.455357 131.262744 
L 383.946429 136.354219 
L 386.4375 134.080305 
L 388.928571 131.258954 
L 391.419643 131.784581 
L 393.910714 128.875137 
L 396.401786 130.770941 
L 398.892857 134.143693 
L 401.383929 139.004777 
L 403.875 140.388348 
L 406.366071 135.6808 
L 408.857143 137.428775 
L 411.348214 136.209593 
L 413.839286 134.69814 
L 416.330357 137.870618 
L 418.821429 144.875821 
L 421.3125 149.360868 
L 423.803571 149.024926 
L 426.294643 147.68718 
L 428.785714 142.890187 
L 431.276786 136.922027 
L 433.767857 130.138944 
L 436.258929 125.061179 
L 438.75 122.926722 
L 441.241071 120.218469 
L 443.732143 118.406049 
L 446.223214 116.909583 
L 448.714286 119.392684 
L 451.205357 124.600339 
L 453.696429 122.46377 
L 456.1875 120.158494 
L 458.678571 120.20191 
L 461.169643 118.625268 
L 463.660714 112.348396 
L 468.642857 110.503044 
L 471.133929 110.699149 
L 473.625 110.218961 
L 476.116071 108.942163 
L 478.607143 111.186851 
L 481.098214 110.908916 
L 483.589286 114.395119 
L 486.080357 117.469441 
L 488.571429 120.840744 
L 491.0625 129.632005 
L 493.553571 132.127681 
L 496.044643 132.329537 
L 498.535714 132.199594 
L 501.026786 133.939992 
L 503.517857 135.285211 
L 506.008929 133.333452 
L 508.5 138.046847 
L 510.991071 138.381339 
L 513.482143 143.603202 
L 515.973214 138.571075 
L 518.464286 132.681243 
L 520.955357 132.460129 
L 523.446429 132.033188 
L 525.9375 135.211653 
L 528.428571 136.560678 
L 530.919643 145.887822 
L 533.410714 164.758381 
L 535.901786 180.748875 
L 538.392857 208.647018 
L 540.883929 230.429211 
L 543.375 234.248055 
L 545.866071 247.654073 
L 548.357143 246.491248 
L 550.848214 185.203545 
L 553.339286 185.964321 
L 560.8125 185.857184 
L 563.303571 163.081468 
L 565.794643 174.196093 
L 568.285714 171.840731 
L 575.758929 171.852651 
L 578.25 214.590964 
L 580.741071 224.054729 
L 583.232143 234.151109 
L 585.723214 226.344838 
L 588.214286 211.281781 
L 590.705357 202.40889 
L 593.196429 199.116679 
L 595.6875 181.953042 
L 598.178571 178.979836 
L 600.669643 175.131992 
L 603.160714 172.544312 
L 605.651786 175.071243 
L 608.142857 172.725515 
L 610.633929 178.718884 
L 613.125 175.872204 
L 615.616071 173.994742 
L 618.107143 179.322616 
L 620.598214 176.548227 
L 623.089286 177.411216 
L 625.580357 182.417616 
L 628.071429 192.452481 
L 630.5625 192.921807 
L 633.053571 194.115877 
L 635.544643 199.94093 
L 638.035714 209.613694 
L 640.526786 207.597645 
L 643.017857 200.133536 
L 645.508929 211.160952 
L 648 210.591243 
L 650.491071 206.973952 
L 652.982143 180.91694 
L 655.473214 153.551088 
L 657.964286 151.35242 
L 657.964286 151.35242 
" clip-path="url(#pc1601f1f47)" style="fill: none; stroke: #ff7f0e; stroke-width: 1.5; stroke-linecap: square"/>
   </g>
   <g id="line2d_72">
    <path d="M 461.167234 361 
L 461.169643 302.707452 
L 463.660714 262.633201 
L 466.151786 248.701685 
L 468.642857 240.223281 
L 471.133929 238.339943 
L 473.625 230.457204 
L 476.116071 210.33043 
L 478.607143 210.188084 
L 481.098214 180.246953 
L 483.589286 163.032487 
L 486.080357 139.427663 
L 488.571429 136.109817 
L 491.0625 135.650904 
L 493.553571 134.357522 
L 496.044643 136.288311 
L 498.535714 141.176306 
L 501.026786 167.557498 
L 503.517857 173.311427 
L 506.008929 176.271482 
L 508.5 184.286268 
L 510.991071 195.323167 
L 513.482143 197.045587 
L 515.973214 196.374899 
L 518.464286 223.879896 
L 520.955357 191.52571 
L 523.446429 173.762844 
L 528.428571 172.098224 
L 530.919643 172.04412 
L 533.410714 171.787157 
L 535.901786 186.200546 
L 538.392857 225.683142 
L 540.883929 231.023444 
L 543.375 239.779552 
L 545.866071 244.405346 
L 548.357143 208.093235 
L 550.848214 183.08678 
L 553.339286 182.908778 
L 560.8125 181.77821 
L 563.303571 189.848103 
L 565.794643 201.191525 
L 568.285714 185.780925 
L 570.776786 165.827674 
L 573.267857 153.418157 
L 575.758929 138.129659 
L 578.25 125.823634 
L 580.741071 123.874143 
L 583.232143 122.900098 
L 585.723214 125.675271 
L 588.214286 129.240893 
L 590.705357 137.096696 
L 593.196429 156.491171 
L 595.6875 163.676512 
L 598.178571 174.61344 
L 600.669643 149.289055 
L 603.160714 139.174309 
L 605.651786 136.499649 
L 608.142857 115.228945 
L 610.633929 115.056028 
L 613.125 114.296532 
L 615.616071 117.298518 
L 618.107143 113.024008 
L 620.598214 114.761273 
L 623.089286 136.508138 
L 625.580357 137.951242 
L 628.071429 137.662474 
L 630.5625 141.19015 
L 633.053571 182.578817 
L 635.544643 184.843539 
L 638.035714 186.558933 
L 640.526786 190.158319 
L 643.017857 173.756431 
L 648 172.907983 
L 650.491071 160.106675 
L 652.982143 156.888517 
L 655.473214 155.953274 
L 657.964286 169.674551 
L 657.964286 169.674551 
" clip-path="url(#pc1601f1f47)" style="fill: none; stroke: #2ca02c; stroke-width: 1.5; stroke-linecap: square"/>
   </g>
   <g id="patch_3">
    <path d="M 90 320.4 
L 90 43.2 
" style="fill: none; stroke: #000000; stroke-width: 0.8; stroke-linejoin: miter; stroke-linecap: square"/>
   </g>
   <g id="patch_4">
    <path d="M 648 320.4 
L 648 43.2 
" style="fill: none; stroke: #000000; stroke-width: 0.8; stroke-linejoin: miter; stroke-linecap: square"/>
   </g>
   <g id="patch_5">
    <path d="M 90 320.4 
L 648 320.4 
" style="fill: none; stroke: #000000; stroke-width: 0.8; stroke-linejoin: miter; stroke-linecap: square"/>
   </g>
   <g id="patch_6">
    <path d="M 90 43.2 
L 648 43.2 
" style="fill: none; stroke: #000000; stroke-width: 0.8; stroke-linejoin: miter; stroke-linecap: square"/>
   </g>
   <g id="text_14">
    <!-- All operating systems -->
    <g transform="translate(303.985313 37.2) scale(0.12 -0.12)">
     <defs>
      <path id="DejaVuSans-41" d="M 2188 4044 
L 1331 1722 
L 3047 1722 
L 2188 4044 
z
M 1831 4666 
L 2547 4666 
L 4325 0 
L 3669 0 
L 3244 1197 
L 1141 1197 
L 716 0 
L 50 0 
L 1831 4666 
z
" transform="scale(0.015625)"/>
      <path id="DejaVuSans-67" d="M 2906 1791 
Q 2906 2416 2648 2759 
Q 2391 3103 1925 3103 
Q 1463 3103 1205 2759 
Q 947 2416 947 1791 
Q 947 1169 1205 825 
Q 1463 481 1925 481 
Q 2391 481 2648 825 
Q 2906 1169 2906 1791 
z
M 3481 434 
Q 3481 -459 3084 -895 
Q 2688 -1331 1869 -1331 
Q 1566 -1331 1297 -1286 
Q 1028 -1241 775 -1147 
L 775 -588 
Q 1028 -725 1275 -790 
Q 1522 -856 1778 -856 
Q 2344 -856 2625 -561 
Q 2906 -266 2906 331 
L 2906 616 
Q 2728 306 2450 153 
Q 2172 0 1784 0 
Q 1141 0 747 490 
Q 353 981 353 1791 
Q 353 2603 747 3093 
Q 1141 3584 1784 3584 
Q 2172 3584 2450 3431 
Q 2728 3278 2906 2969 
L 2906 3500 
L 3481 3500 
L 3481 434 
z
" transform="scale(0.015625)"/>
      <path id="DejaVuSans-79" d="M 2059 -325 
Q 1816 -950 1584 -1140 
Q 1353 -1331 966 -1331 
L 506 -1331 
L 506 -850 
L 844 -850 
Q 1081 -850 1212 -737 
Q 1344 -625 1503 -206 
L 1606 56 
L 191 3500 
L 800 3500 
L 1894 763 
L 2988 3500 
L 3597 3500 
L 2059 -325 
z
" transform="scale(0.015625)"/>
     </defs>
     <use xlink:href="#DejaVuSans-41"/>
     <use xlink:href="#DejaVuSans-6c" x="68.408203"/>
     <use xlink:href="#DejaVuSans-6c" x="96.191406"/>
     <use xlink:href="#DejaVuSans-20" x="123.974609"/>
     <use xlink:href="#DejaVuSans-6f" x="155.761719"/>
     <use xlink:href="#DejaVuSans-70" x="216.943359"/>
     <use xlink:href="#DejaVuSans-65" x="280.419922"/>
     <use xlink:href="#DejaVuSans-72" x="341.943359"/>
     <use xlink:href="#DejaVuSans-61" x="383.056641"/>
     <use xlink:href="#DejaVuSans-74" x="444.335938"/>
     <use xlink:href="#DejaVuSans-69" x="483.544922"/>
     <use xlink:href="#DejaVuSans-6e" x="511.328125"/>
     <use xlink:href="#DejaVuSans-67" x="574.707031"/>
     <use xlink:href="#DejaVuSans-20" x="638.183594"/>
     <use xlink:href="#DejaVuSans-73" x="669.970703"/>
     <use xlink:href="#DejaVuSans-79" x="722.070312"/>
     <use xlink:href="#DejaVuSans-73" x="781.25"/>
     <use xlink:href="#DejaVuSans-74" x="833.349609"/>
     <use xlink:href="#DejaVuSans-65" x="872.558594"/>
     <use xlink:href="#DejaVuSans-6d" x="934.082031"/>
     <use xlink:href="#DejaVuSans-73" x="1031.494141"/>
    </g>
   </g>
   <g id="legend_1">
    <g id="patch_7">
     <path d="M 97 95.234375 
L 229.103125 95.234375 
Q 231.103125 95.234375 231.103125 93.234375 
L 231.103125 50.2 
Q 231.103125 48.2 229.103125 48.2 
L 97 48.2 
Q 95 48.2 95 50.2 
L 95 93.234375 
Q 95 95.234375 97 95.234375 
z
" style="fill: #ffffff; opacity: 0.8; stroke: #cccccc; stroke-linejoin: miter"/>
    </g>
    <g id="line2d_73">
     <path d="M 99 56.298437 
L 109 56.298437 
L 119 56.298437 
" style="fill: none; stroke-dasharray: 1.5,2.475; stroke-dashoffset: 0; stroke: #1f77b4; stroke-width: 1.5"/>
    </g>
    <g id="text_15">
     <!-- Coffea (all versions) -->
     <g transform="translate(127 59.798437) scale(0.1 -0.1)">
      <defs>
       <path id="DejaVuSans-43" d="M 4122 4306 
L 4122 3641 
Q 3803 3938 3442 4084 
Q 3081 4231 2675 4231 
Q 1875 4231 1450 3742 
Q 1025 3253 1025 2328 
Q 1025 1406 1450 917 
Q 1875 428 2675 428 
Q 3081 428 3442 575 
Q 3803 722 4122 1019 
L 4122 359 
Q 3791 134 3420 21 
Q 3050 -91 2638 -91 
Q 1578 -91 968 557 
Q 359 1206 359 2328 
Q 359 3453 968 4101 
Q 1578 4750 2638 4750 
Q 3056 4750 3426 4639 
Q 3797 4528 4122 4306 
z
" transform="scale(0.015625)"/>
       <path id="DejaVuSans-28" d="M 1984 4856 
Q 1566 4138 1362 3434 
Q 1159 2731 1159 2009 
Q 1159 1288 1364 580 
Q 1569 -128 1984 -844 
L 1484 -844 
Q 1016 -109 783 600 
Q 550 1309 550 2009 
Q 550 2706 781 3412 
Q 1013 4119 1484 4856 
L 1984 4856 
z
" transform="scale(0.015625)"/>
       <path id="DejaVuSans-76" d="M 191 3500 
L 800 3500 
L 1894 563 
L 2988 3500 
L 3597 3500 
L 2284 0 
L 1503 0 
L 191 3500 
z
" transform="scale(0.015625)"/>
       <path id="DejaVuSans-29" d="M 513 4856 
L 1013 4856 
Q 1481 4119 1714 3412 
Q 1947 2706 1947 2009 
Q 1947 1309 1714 600 
Q 1481 -109 1013 -844 
L 513 -844 
Q 928 -128 1133 580 
Q 1338 1288 1338 2009 
Q 1338 2731 1133 3434 
Q 928 4138 513 4856 
z
" transform="scale(0.015625)"/>
      </defs>
      <use xlink:href="#DejaVuSans-43"/>
      <use xlink:href="#DejaVuSans-6f" x="69.824219"/>
      <use xlink:href="#DejaVuSans-66" x="131.005859"/>
      <use xlink:href="#DejaVuSans-66" x="166.210938"/>
      <use xlink:href="#DejaVuSans-65" x="201.416016"/>
      <use xlink:href="#DejaVuSans-61" x="262.939453"/>
      <use xlink:href="#DejaVuSans-20" x="324.21875"/>
      <use xlink:href="#DejaVuSans-28" x="356.005859"/>
      <use xlink:href="#DejaVuSans-61" x="395.019531"/>
      <use xlink:href="#DejaVuSans-6c" x="456.298828"/>
      <use xlink:href="#DejaVuSans-6c" x="484.082031"/>
      <use xlink:href="#DejaVuSans-20" x="511.865234"/>
      <use xlink:href="#DejaVuSans-76" x="543.652344"/>
      <use xlink:href="#DejaVuSans-65" x="602.832031"/>
      <use xlink:href="#DejaVuSans-72" x="664.355469"/>
      <use xlink:href="#DejaVuSans-73" x="705.46875"/>
      <use xlink:href="#DejaVuSans-69" x="757.568359"/>
      <use xlink:href="#DejaVuSans-6f" x="785.351562"/>
      <use xlink:href="#DejaVuSans-6e" x="846.533203"/>
      <use xlink:href="#DejaVuSans-73" x="909.912109"/>
      <use xlink:href="#DejaVuSans-29" x="962.011719"/>
     </g>
    </g>
    <g id="line2d_74">
     <path d="M 99 70.976562 
L 109 70.976562 
L 119 70.976562 
" style="fill: none; stroke: #ff7f0e; stroke-width: 1.5; stroke-linecap: square"/>
    </g>
    <g id="text_16">
     <!-- Coffea 0.6.x -->
     <g transform="translate(127 74.476562) scale(0.1 -0.1)">
      <defs>
       <path id="DejaVuSans-2e" d="M 684 794 
L 1344 794 
L 1344 0 
L 684 0 
L 684 794 
z
" transform="scale(0.015625)"/>
       <path id="DejaVuSans-36" d="M 2113 2584 
Q 1688 2584 1439 2293 
Q 1191 2003 1191 1497 
Q 1191 994 1439 701 
Q 1688 409 2113 409 
Q 2538 409 2786 701 
Q 3034 994 3034 1497 
Q 3034 2003 2786 2293 
Q 2538 2584 2113 2584 
z
M 3366 4563 
L 3366 3988 
Q 3128 4100 2886 4159 
Q 2644 4219 2406 4219 
Q 1781 4219 1451 3797 
Q 1122 3375 1075 2522 
Q 1259 2794 1537 2939 
Q 1816 3084 2150 3084 
Q 2853 3084 3261 2657 
Q 3669 2231 3669 1497 
Q 3669 778 3244 343 
Q 2819 -91 2113 -91 
Q 1303 -91 875 529 
Q 447 1150 447 2328 
Q 447 3434 972 4092 
Q 1497 4750 2381 4750 
Q 2619 4750 2861 4703 
Q 3103 4656 3366 4563 
z
" transform="scale(0.015625)"/>
       <path id="DejaVuSans-78" d="M 3513 3500 
L 2247 1797 
L 3578 0 
L 2900 0 
L 1881 1375 
L 863 0 
L 184 0 
L 1544 1831 
L 300 3500 
L 978 3500 
L 1906 2253 
L 2834 3500 
L 3513 3500 
z
" transform="scale(0.015625)"/>
      </defs>
      <use xlink:href="#DejaVuSans-43"/>
      <use xlink:href="#DejaVuSans-6f" x="69.824219"/>
      <use xlink:href="#DejaVuSans-66" x="131.005859"/>
      <use xlink:href="#DejaVuSans-66" x="166.210938"/>
      <use xlink:href="#DejaVuSans-65" x="201.416016"/>
      <use xlink:href="#DejaVuSans-61" x="262.939453"/>
      <use xlink:href="#DejaVuSans-20" x="324.21875"/>
      <use xlink:href="#DejaVuSans-30" x="356.005859"/>
      <use xlink:href="#DejaVuSans-2e" x="419.628906"/>
      <use xlink:href="#DejaVuSans-36" x="451.416016"/>
      <use xlink:href="#DejaVuSans-2e" x="515.039062"/>
      <use xlink:href="#DejaVuSans-78" x="546.826172"/>
     </g>
    </g>
    <g id="line2d_75">
     <path d="M 99 85.654687 
L 109 85.654687 
L 119 85.654687 
" style="fill: none; stroke: #2ca02c; stroke-width: 1.5; stroke-linecap: square"/>
    </g>
    <g id="text_17">
     <!-- Coffea 0.7.x -->
     <g transform="translate(127 89.154687) scale(0.1 -0.1)">
      <use xlink:href="#DejaVuSans-43"/>
      <use xlink:href="#DejaVuSans-6f" x="69.824219"/>
      <use xlink:href="#DejaVuSans-66" x="131.005859"/>
      <use xlink:href="#DejaVuSans-66" x="166.210938"/>
      <use xlink:href="#DejaVuSans-65" x="201.416016"/>
      <use xlink:href="#DejaVuSans-61" x="262.939453"/>
      <use xlink:href="#DejaVuSans-20" x="324.21875"/>
      <use xlink:href="#DejaVuSans-30" x="356.005859"/>
      <use xlink:href="#DejaVuSans-2e" x="419.628906"/>
      <use xlink:href="#DejaVuSans-37" x="451.416016"/>
      <use xlink:href="#DejaVuSans-2e" x="515.039062"/>
      <use xlink:href="#DejaVuSans-78" x="546.826172"/>
     </g>
    </g>
   </g>
  </g>
 </g>
 <defs>
  <clipPath id="pc1601f1f47">
   <rect x="90" y="43.2" width="558" height="277.2"/>
  </clipPath>
 </defs>
</svg>
